%TF.GenerationSoftware,KiCad,Pcbnew,9.0.1*%
%TF.CreationDate,2026-10-01T23:39:16+02:00*%
%TF.ProjectId,BaseChipOnly,42617365-4368-4697-904f-6e6c792e6b69,rev?*%
%TF.SameCoordinates,Original*%
%TF.FileFunction,AssemblyDrawing,Top*%
%FSLAX46Y46*%
G04 Gerber Fmt 4.6, Leading zero omitted, Abs format (unit mm)*
G04 Created by KiCad (PCBNEW 9.0.1) date 2026-10-01 23:39:16*
%MOMM*%
%LPD*%
G01*
G04 APERTURE LIST*
%ADD10C,0.150000*%
%ADD11C,0.080000*%
%ADD12C,0.060000*%
%ADD13C,0.075000*%
%ADD14C,0.090000*%
%ADD15C,0.050000*%
%ADD16C,0.100000*%
%ADD17C,0.200000*%
%ADD18C,0.127000*%
G04 APERTURE END LIST*
D10*
X162588152Y-93883333D02*
X163254819Y-93883333D01*
X162207200Y-94121428D02*
X162921485Y-94359523D01*
X162921485Y-94359523D02*
X162921485Y-93740476D01*
X162254819Y-93454761D02*
X162254819Y-92788095D01*
X162254819Y-92788095D02*
X163254819Y-93216666D01*
X162254819Y-92216666D02*
X162254819Y-92121428D01*
X162254819Y-92121428D02*
X162302438Y-92026190D01*
X162302438Y-92026190D02*
X162350057Y-91978571D01*
X162350057Y-91978571D02*
X162445295Y-91930952D01*
X162445295Y-91930952D02*
X162635771Y-91883333D01*
X162635771Y-91883333D02*
X162873866Y-91883333D01*
X162873866Y-91883333D02*
X163064342Y-91930952D01*
X163064342Y-91930952D02*
X163159580Y-91978571D01*
X163159580Y-91978571D02*
X163207200Y-92026190D01*
X163207200Y-92026190D02*
X163254819Y-92121428D01*
X163254819Y-92121428D02*
X163254819Y-92216666D01*
X163254819Y-92216666D02*
X163207200Y-92311904D01*
X163207200Y-92311904D02*
X163159580Y-92359523D01*
X163159580Y-92359523D02*
X163064342Y-92407142D01*
X163064342Y-92407142D02*
X162873866Y-92454761D01*
X162873866Y-92454761D02*
X162635771Y-92454761D01*
X162635771Y-92454761D02*
X162445295Y-92407142D01*
X162445295Y-92407142D02*
X162350057Y-92359523D01*
X162350057Y-92359523D02*
X162302438Y-92311904D01*
X162302438Y-92311904D02*
X162254819Y-92216666D01*
X163254819Y-91502380D02*
X163254819Y-91264285D01*
X163254819Y-91264285D02*
X163064342Y-91264285D01*
X163064342Y-91264285D02*
X163016723Y-91359523D01*
X163016723Y-91359523D02*
X162921485Y-91454761D01*
X162921485Y-91454761D02*
X162778628Y-91502380D01*
X162778628Y-91502380D02*
X162540533Y-91502380D01*
X162540533Y-91502380D02*
X162397676Y-91454761D01*
X162397676Y-91454761D02*
X162302438Y-91359523D01*
X162302438Y-91359523D02*
X162254819Y-91216666D01*
X162254819Y-91216666D02*
X162254819Y-91026190D01*
X162254819Y-91026190D02*
X162302438Y-90883333D01*
X162302438Y-90883333D02*
X162397676Y-90788095D01*
X162397676Y-90788095D02*
X162540533Y-90740476D01*
X162540533Y-90740476D02*
X162778628Y-90740476D01*
X162778628Y-90740476D02*
X162921485Y-90788095D01*
X162921485Y-90788095D02*
X163016723Y-90883333D01*
X163016723Y-90883333D02*
X163064342Y-90978571D01*
X163064342Y-90978571D02*
X163254819Y-90978571D01*
X163254819Y-90978571D02*
X163254819Y-90740476D01*
D11*
X164727149Y-92583333D02*
X164489054Y-92749999D01*
X164727149Y-92869047D02*
X164227149Y-92869047D01*
X164227149Y-92869047D02*
X164227149Y-92678571D01*
X164227149Y-92678571D02*
X164250959Y-92630952D01*
X164250959Y-92630952D02*
X164274768Y-92607142D01*
X164274768Y-92607142D02*
X164322387Y-92583333D01*
X164322387Y-92583333D02*
X164393816Y-92583333D01*
X164393816Y-92583333D02*
X164441435Y-92607142D01*
X164441435Y-92607142D02*
X164465244Y-92630952D01*
X164465244Y-92630952D02*
X164489054Y-92678571D01*
X164489054Y-92678571D02*
X164489054Y-92869047D01*
X164227149Y-92273809D02*
X164227149Y-92226190D01*
X164227149Y-92226190D02*
X164250959Y-92178571D01*
X164250959Y-92178571D02*
X164274768Y-92154761D01*
X164274768Y-92154761D02*
X164322387Y-92130952D01*
X164322387Y-92130952D02*
X164417625Y-92107142D01*
X164417625Y-92107142D02*
X164536673Y-92107142D01*
X164536673Y-92107142D02*
X164631911Y-92130952D01*
X164631911Y-92130952D02*
X164679530Y-92154761D01*
X164679530Y-92154761D02*
X164703340Y-92178571D01*
X164703340Y-92178571D02*
X164727149Y-92226190D01*
X164727149Y-92226190D02*
X164727149Y-92273809D01*
X164727149Y-92273809D02*
X164703340Y-92321428D01*
X164703340Y-92321428D02*
X164679530Y-92345237D01*
X164679530Y-92345237D02*
X164631911Y-92369047D01*
X164631911Y-92369047D02*
X164536673Y-92392856D01*
X164536673Y-92392856D02*
X164417625Y-92392856D01*
X164417625Y-92392856D02*
X164322387Y-92369047D01*
X164322387Y-92369047D02*
X164274768Y-92345237D01*
X164274768Y-92345237D02*
X164250959Y-92321428D01*
X164250959Y-92321428D02*
X164227149Y-92273809D01*
D10*
X157509524Y-41537142D02*
X157509524Y-40537142D01*
X157509524Y-40537142D02*
X157842857Y-41251427D01*
X157842857Y-41251427D02*
X158176190Y-40537142D01*
X158176190Y-40537142D02*
X158176190Y-41537142D01*
X158795238Y-41537142D02*
X158700000Y-41489523D01*
X158700000Y-41489523D02*
X158652381Y-41441903D01*
X158652381Y-41441903D02*
X158604762Y-41346665D01*
X158604762Y-41346665D02*
X158604762Y-41060951D01*
X158604762Y-41060951D02*
X158652381Y-40965713D01*
X158652381Y-40965713D02*
X158700000Y-40918094D01*
X158700000Y-40918094D02*
X158795238Y-40870475D01*
X158795238Y-40870475D02*
X158938095Y-40870475D01*
X158938095Y-40870475D02*
X159033333Y-40918094D01*
X159033333Y-40918094D02*
X159080952Y-40965713D01*
X159080952Y-40965713D02*
X159128571Y-41060951D01*
X159128571Y-41060951D02*
X159128571Y-41346665D01*
X159128571Y-41346665D02*
X159080952Y-41441903D01*
X159080952Y-41441903D02*
X159033333Y-41489523D01*
X159033333Y-41489523D02*
X158938095Y-41537142D01*
X158938095Y-41537142D02*
X158795238Y-41537142D01*
X159985714Y-40870475D02*
X159985714Y-41537142D01*
X159557143Y-40870475D02*
X159557143Y-41394284D01*
X159557143Y-41394284D02*
X159604762Y-41489523D01*
X159604762Y-41489523D02*
X159700000Y-41537142D01*
X159700000Y-41537142D02*
X159842857Y-41537142D01*
X159842857Y-41537142D02*
X159938095Y-41489523D01*
X159938095Y-41489523D02*
X159985714Y-41441903D01*
X160461905Y-40870475D02*
X160461905Y-41537142D01*
X160461905Y-40965713D02*
X160509524Y-40918094D01*
X160509524Y-40918094D02*
X160604762Y-40870475D01*
X160604762Y-40870475D02*
X160747619Y-40870475D01*
X160747619Y-40870475D02*
X160842857Y-40918094D01*
X160842857Y-40918094D02*
X160890476Y-41013332D01*
X160890476Y-41013332D02*
X160890476Y-41537142D01*
X161223810Y-40870475D02*
X161604762Y-40870475D01*
X161366667Y-40537142D02*
X161366667Y-41394284D01*
X161366667Y-41394284D02*
X161414286Y-41489523D01*
X161414286Y-41489523D02*
X161509524Y-41537142D01*
X161509524Y-41537142D02*
X161604762Y-41537142D01*
X161938096Y-41537142D02*
X161938096Y-40870475D01*
X161938096Y-40537142D02*
X161890477Y-40584761D01*
X161890477Y-40584761D02*
X161938096Y-40632380D01*
X161938096Y-40632380D02*
X161985715Y-40584761D01*
X161985715Y-40584761D02*
X161938096Y-40537142D01*
X161938096Y-40537142D02*
X161938096Y-40632380D01*
X162414286Y-40870475D02*
X162414286Y-41537142D01*
X162414286Y-40965713D02*
X162461905Y-40918094D01*
X162461905Y-40918094D02*
X162557143Y-40870475D01*
X162557143Y-40870475D02*
X162700000Y-40870475D01*
X162700000Y-40870475D02*
X162795238Y-40918094D01*
X162795238Y-40918094D02*
X162842857Y-41013332D01*
X162842857Y-41013332D02*
X162842857Y-41537142D01*
X163747619Y-40870475D02*
X163747619Y-41679999D01*
X163747619Y-41679999D02*
X163700000Y-41775237D01*
X163700000Y-41775237D02*
X163652381Y-41822856D01*
X163652381Y-41822856D02*
X163557143Y-41870475D01*
X163557143Y-41870475D02*
X163414286Y-41870475D01*
X163414286Y-41870475D02*
X163319048Y-41822856D01*
X163747619Y-41489523D02*
X163652381Y-41537142D01*
X163652381Y-41537142D02*
X163461905Y-41537142D01*
X163461905Y-41537142D02*
X163366667Y-41489523D01*
X163366667Y-41489523D02*
X163319048Y-41441903D01*
X163319048Y-41441903D02*
X163271429Y-41346665D01*
X163271429Y-41346665D02*
X163271429Y-41060951D01*
X163271429Y-41060951D02*
X163319048Y-40965713D01*
X163319048Y-40965713D02*
X163366667Y-40918094D01*
X163366667Y-40918094D02*
X163461905Y-40870475D01*
X163461905Y-40870475D02*
X163652381Y-40870475D01*
X163652381Y-40870475D02*
X163747619Y-40918094D01*
X164223810Y-41537142D02*
X164223810Y-40537142D01*
X164223810Y-41013332D02*
X164795238Y-41013332D01*
X164795238Y-41537142D02*
X164795238Y-40537142D01*
X165414286Y-41537142D02*
X165319048Y-41489523D01*
X165319048Y-41489523D02*
X165271429Y-41441903D01*
X165271429Y-41441903D02*
X165223810Y-41346665D01*
X165223810Y-41346665D02*
X165223810Y-41060951D01*
X165223810Y-41060951D02*
X165271429Y-40965713D01*
X165271429Y-40965713D02*
X165319048Y-40918094D01*
X165319048Y-40918094D02*
X165414286Y-40870475D01*
X165414286Y-40870475D02*
X165557143Y-40870475D01*
X165557143Y-40870475D02*
X165652381Y-40918094D01*
X165652381Y-40918094D02*
X165700000Y-40965713D01*
X165700000Y-40965713D02*
X165747619Y-41060951D01*
X165747619Y-41060951D02*
X165747619Y-41346665D01*
X165747619Y-41346665D02*
X165700000Y-41441903D01*
X165700000Y-41441903D02*
X165652381Y-41489523D01*
X165652381Y-41489523D02*
X165557143Y-41537142D01*
X165557143Y-41537142D02*
X165414286Y-41537142D01*
X166319048Y-41537142D02*
X166223810Y-41489523D01*
X166223810Y-41489523D02*
X166176191Y-41394284D01*
X166176191Y-41394284D02*
X166176191Y-40537142D01*
X167080953Y-41489523D02*
X166985715Y-41537142D01*
X166985715Y-41537142D02*
X166795239Y-41537142D01*
X166795239Y-41537142D02*
X166700001Y-41489523D01*
X166700001Y-41489523D02*
X166652382Y-41394284D01*
X166652382Y-41394284D02*
X166652382Y-41013332D01*
X166652382Y-41013332D02*
X166700001Y-40918094D01*
X166700001Y-40918094D02*
X166795239Y-40870475D01*
X166795239Y-40870475D02*
X166985715Y-40870475D01*
X166985715Y-40870475D02*
X167080953Y-40918094D01*
X167080953Y-40918094D02*
X167128572Y-41013332D01*
X167128572Y-41013332D02*
X167128572Y-41108570D01*
X167128572Y-41108570D02*
X166652382Y-41203808D01*
X167319049Y-41632380D02*
X168080953Y-41632380D01*
X168271430Y-40632380D02*
X168319049Y-40584761D01*
X168319049Y-40584761D02*
X168414287Y-40537142D01*
X168414287Y-40537142D02*
X168652382Y-40537142D01*
X168652382Y-40537142D02*
X168747620Y-40584761D01*
X168747620Y-40584761D02*
X168795239Y-40632380D01*
X168795239Y-40632380D02*
X168842858Y-40727618D01*
X168842858Y-40727618D02*
X168842858Y-40822856D01*
X168842858Y-40822856D02*
X168795239Y-40965713D01*
X168795239Y-40965713D02*
X168223811Y-41537142D01*
X168223811Y-41537142D02*
X168842858Y-41537142D01*
X169271430Y-41441903D02*
X169319049Y-41489523D01*
X169319049Y-41489523D02*
X169271430Y-41537142D01*
X169271430Y-41537142D02*
X169223811Y-41489523D01*
X169223811Y-41489523D02*
X169271430Y-41441903D01*
X169271430Y-41441903D02*
X169271430Y-41537142D01*
X170271429Y-41537142D02*
X169700001Y-41537142D01*
X169985715Y-41537142D02*
X169985715Y-40537142D01*
X169985715Y-40537142D02*
X169890477Y-40679999D01*
X169890477Y-40679999D02*
X169795239Y-40775237D01*
X169795239Y-40775237D02*
X169700001Y-40822856D01*
X170700001Y-41537142D02*
X170700001Y-40870475D01*
X170700001Y-40965713D02*
X170747620Y-40918094D01*
X170747620Y-40918094D02*
X170842858Y-40870475D01*
X170842858Y-40870475D02*
X170985715Y-40870475D01*
X170985715Y-40870475D02*
X171080953Y-40918094D01*
X171080953Y-40918094D02*
X171128572Y-41013332D01*
X171128572Y-41013332D02*
X171128572Y-41537142D01*
X171128572Y-41013332D02*
X171176191Y-40918094D01*
X171176191Y-40918094D02*
X171271429Y-40870475D01*
X171271429Y-40870475D02*
X171414286Y-40870475D01*
X171414286Y-40870475D02*
X171509525Y-40918094D01*
X171509525Y-40918094D02*
X171557144Y-41013332D01*
X171557144Y-41013332D02*
X171557144Y-41537142D01*
X172033334Y-41537142D02*
X172033334Y-40870475D01*
X172033334Y-40965713D02*
X172080953Y-40918094D01*
X172080953Y-40918094D02*
X172176191Y-40870475D01*
X172176191Y-40870475D02*
X172319048Y-40870475D01*
X172319048Y-40870475D02*
X172414286Y-40918094D01*
X172414286Y-40918094D02*
X172461905Y-41013332D01*
X172461905Y-41013332D02*
X172461905Y-41537142D01*
X172461905Y-41013332D02*
X172509524Y-40918094D01*
X172509524Y-40918094D02*
X172604762Y-40870475D01*
X172604762Y-40870475D02*
X172747619Y-40870475D01*
X172747619Y-40870475D02*
X172842858Y-40918094D01*
X172842858Y-40918094D02*
X172890477Y-41013332D01*
X172890477Y-41013332D02*
X172890477Y-41537142D01*
X164438095Y-38337142D02*
X164438095Y-37337142D01*
X164438095Y-37813332D02*
X165009523Y-37813332D01*
X165009523Y-38337142D02*
X165009523Y-37337142D01*
X165438095Y-37432380D02*
X165485714Y-37384761D01*
X165485714Y-37384761D02*
X165580952Y-37337142D01*
X165580952Y-37337142D02*
X165819047Y-37337142D01*
X165819047Y-37337142D02*
X165914285Y-37384761D01*
X165914285Y-37384761D02*
X165961904Y-37432380D01*
X165961904Y-37432380D02*
X166009523Y-37527618D01*
X166009523Y-37527618D02*
X166009523Y-37622856D01*
X166009523Y-37622856D02*
X165961904Y-37765713D01*
X165961904Y-37765713D02*
X165390476Y-38337142D01*
X165390476Y-38337142D02*
X166009523Y-38337142D01*
X159784819Y-63965061D02*
X159784819Y-64536489D01*
X159784819Y-64250775D02*
X158784819Y-64250775D01*
X158784819Y-64250775D02*
X158927676Y-64346013D01*
X158927676Y-64346013D02*
X159022914Y-64441251D01*
X159022914Y-64441251D02*
X159070533Y-64536489D01*
X158784819Y-63346013D02*
X158784819Y-63250775D01*
X158784819Y-63250775D02*
X158832438Y-63155537D01*
X158832438Y-63155537D02*
X158880057Y-63107918D01*
X158880057Y-63107918D02*
X158975295Y-63060299D01*
X158975295Y-63060299D02*
X159165771Y-63012680D01*
X159165771Y-63012680D02*
X159403866Y-63012680D01*
X159403866Y-63012680D02*
X159594342Y-63060299D01*
X159594342Y-63060299D02*
X159689580Y-63107918D01*
X159689580Y-63107918D02*
X159737200Y-63155537D01*
X159737200Y-63155537D02*
X159784819Y-63250775D01*
X159784819Y-63250775D02*
X159784819Y-63346013D01*
X159784819Y-63346013D02*
X159737200Y-63441251D01*
X159737200Y-63441251D02*
X159689580Y-63488870D01*
X159689580Y-63488870D02*
X159594342Y-63536489D01*
X159594342Y-63536489D02*
X159403866Y-63584108D01*
X159403866Y-63584108D02*
X159165771Y-63584108D01*
X159165771Y-63584108D02*
X158975295Y-63536489D01*
X158975295Y-63536489D02*
X158880057Y-63488870D01*
X158880057Y-63488870D02*
X158832438Y-63441251D01*
X158832438Y-63441251D02*
X158784819Y-63346013D01*
X159784819Y-62584108D02*
X158784819Y-62584108D01*
X159403866Y-62488870D02*
X159784819Y-62203156D01*
X159118152Y-62203156D02*
X159499104Y-62584108D01*
D12*
X158081927Y-63436489D02*
X157891451Y-63569822D01*
X158081927Y-63665060D02*
X157681927Y-63665060D01*
X157681927Y-63665060D02*
X157681927Y-63512679D01*
X157681927Y-63512679D02*
X157700975Y-63474584D01*
X157700975Y-63474584D02*
X157720022Y-63455537D01*
X157720022Y-63455537D02*
X157758118Y-63436489D01*
X157758118Y-63436489D02*
X157815260Y-63436489D01*
X157815260Y-63436489D02*
X157853356Y-63455537D01*
X157853356Y-63455537D02*
X157872403Y-63474584D01*
X157872403Y-63474584D02*
X157891451Y-63512679D01*
X157891451Y-63512679D02*
X157891451Y-63665060D01*
X157815260Y-63093632D02*
X158081927Y-63093632D01*
X157662880Y-63188870D02*
X157948594Y-63284108D01*
X157948594Y-63284108D02*
X157948594Y-63036489D01*
D13*
X148069047Y-73159732D02*
X148069047Y-73564494D01*
X148069047Y-73564494D02*
X148092857Y-73612113D01*
X148092857Y-73612113D02*
X148116666Y-73635923D01*
X148116666Y-73635923D02*
X148164285Y-73659732D01*
X148164285Y-73659732D02*
X148259523Y-73659732D01*
X148259523Y-73659732D02*
X148307142Y-73635923D01*
X148307142Y-73635923D02*
X148330952Y-73612113D01*
X148330952Y-73612113D02*
X148354761Y-73564494D01*
X148354761Y-73564494D02*
X148354761Y-73159732D01*
X148545238Y-73159732D02*
X148854762Y-73159732D01*
X148854762Y-73159732D02*
X148688095Y-73350208D01*
X148688095Y-73350208D02*
X148759524Y-73350208D01*
X148759524Y-73350208D02*
X148807143Y-73374018D01*
X148807143Y-73374018D02*
X148830952Y-73397827D01*
X148830952Y-73397827D02*
X148854762Y-73445446D01*
X148854762Y-73445446D02*
X148854762Y-73564494D01*
X148854762Y-73564494D02*
X148830952Y-73612113D01*
X148830952Y-73612113D02*
X148807143Y-73635923D01*
X148807143Y-73635923D02*
X148759524Y-73659732D01*
X148759524Y-73659732D02*
X148616667Y-73659732D01*
X148616667Y-73659732D02*
X148569048Y-73635923D01*
X148569048Y-73635923D02*
X148545238Y-73612113D01*
D10*
X166604819Y-96942857D02*
X166604819Y-97419047D01*
X166604819Y-97419047D02*
X165604819Y-97419047D01*
X166081009Y-96609523D02*
X166081009Y-96276190D01*
X166604819Y-96133333D02*
X166604819Y-96609523D01*
X166604819Y-96609523D02*
X165604819Y-96609523D01*
X165604819Y-96609523D02*
X165604819Y-96133333D01*
X166604819Y-95704761D02*
X165604819Y-95704761D01*
X165604819Y-95704761D02*
X165604819Y-95466666D01*
X165604819Y-95466666D02*
X165652438Y-95323809D01*
X165652438Y-95323809D02*
X165747676Y-95228571D01*
X165747676Y-95228571D02*
X165842914Y-95180952D01*
X165842914Y-95180952D02*
X166033390Y-95133333D01*
X166033390Y-95133333D02*
X166176247Y-95133333D01*
X166176247Y-95133333D02*
X166366723Y-95180952D01*
X166366723Y-95180952D02*
X166461961Y-95228571D01*
X166461961Y-95228571D02*
X166557200Y-95323809D01*
X166557200Y-95323809D02*
X166604819Y-95466666D01*
X166604819Y-95466666D02*
X166604819Y-95704761D01*
D11*
X164727149Y-96669047D02*
X164227149Y-96669047D01*
X164227149Y-96669047D02*
X164227149Y-96549999D01*
X164227149Y-96549999D02*
X164250959Y-96478571D01*
X164250959Y-96478571D02*
X164298578Y-96430952D01*
X164298578Y-96430952D02*
X164346197Y-96407142D01*
X164346197Y-96407142D02*
X164441435Y-96383333D01*
X164441435Y-96383333D02*
X164512863Y-96383333D01*
X164512863Y-96383333D02*
X164608101Y-96407142D01*
X164608101Y-96407142D02*
X164655720Y-96430952D01*
X164655720Y-96430952D02*
X164703340Y-96478571D01*
X164703340Y-96478571D02*
X164727149Y-96549999D01*
X164727149Y-96549999D02*
X164727149Y-96669047D01*
X164727149Y-95907142D02*
X164727149Y-96192856D01*
X164727149Y-96049999D02*
X164227149Y-96049999D01*
X164227149Y-96049999D02*
X164298578Y-96097618D01*
X164298578Y-96097618D02*
X164346197Y-96145237D01*
X164346197Y-96145237D02*
X164370006Y-96192856D01*
D10*
X135507200Y-84885713D02*
X135554819Y-84742856D01*
X135554819Y-84742856D02*
X135554819Y-84504761D01*
X135554819Y-84504761D02*
X135507200Y-84409523D01*
X135507200Y-84409523D02*
X135459580Y-84361904D01*
X135459580Y-84361904D02*
X135364342Y-84314285D01*
X135364342Y-84314285D02*
X135269104Y-84314285D01*
X135269104Y-84314285D02*
X135173866Y-84361904D01*
X135173866Y-84361904D02*
X135126247Y-84409523D01*
X135126247Y-84409523D02*
X135078628Y-84504761D01*
X135078628Y-84504761D02*
X135031009Y-84695237D01*
X135031009Y-84695237D02*
X134983390Y-84790475D01*
X134983390Y-84790475D02*
X134935771Y-84838094D01*
X134935771Y-84838094D02*
X134840533Y-84885713D01*
X134840533Y-84885713D02*
X134745295Y-84885713D01*
X134745295Y-84885713D02*
X134650057Y-84838094D01*
X134650057Y-84838094D02*
X134602438Y-84790475D01*
X134602438Y-84790475D02*
X134554819Y-84695237D01*
X134554819Y-84695237D02*
X134554819Y-84457142D01*
X134554819Y-84457142D02*
X134602438Y-84314285D01*
X135554819Y-83885713D02*
X134554819Y-83885713D01*
X134554819Y-83885713D02*
X135269104Y-83552380D01*
X135269104Y-83552380D02*
X134554819Y-83219047D01*
X134554819Y-83219047D02*
X135554819Y-83219047D01*
X135269104Y-82790475D02*
X135269104Y-82314285D01*
X135554819Y-82885713D02*
X134554819Y-82552380D01*
X134554819Y-82552380D02*
X135554819Y-82219047D01*
X134554819Y-81599999D02*
X135269104Y-81599999D01*
X135269104Y-81599999D02*
X135411961Y-81647618D01*
X135411961Y-81647618D02*
X135507200Y-81742856D01*
X135507200Y-81742856D02*
X135554819Y-81885713D01*
X135554819Y-81885713D02*
X135554819Y-81980951D01*
X134554819Y-80647618D02*
X134554819Y-81123808D01*
X134554819Y-81123808D02*
X135031009Y-81171427D01*
X135031009Y-81171427D02*
X134983390Y-81123808D01*
X134983390Y-81123808D02*
X134935771Y-81028570D01*
X134935771Y-81028570D02*
X134935771Y-80790475D01*
X134935771Y-80790475D02*
X134983390Y-80695237D01*
X134983390Y-80695237D02*
X135031009Y-80647618D01*
X135031009Y-80647618D02*
X135126247Y-80599999D01*
X135126247Y-80599999D02*
X135364342Y-80599999D01*
X135364342Y-80599999D02*
X135459580Y-80647618D01*
X135459580Y-80647618D02*
X135507200Y-80695237D01*
X135507200Y-80695237D02*
X135554819Y-80790475D01*
X135554819Y-80790475D02*
X135554819Y-81028570D01*
X135554819Y-81028570D02*
X135507200Y-81123808D01*
X135507200Y-81123808D02*
X135459580Y-81171427D01*
X135459580Y-80171427D02*
X135507200Y-80123808D01*
X135507200Y-80123808D02*
X135554819Y-80171427D01*
X135554819Y-80171427D02*
X135507200Y-80219046D01*
X135507200Y-80219046D02*
X135459580Y-80171427D01*
X135459580Y-80171427D02*
X135554819Y-80171427D01*
X134554819Y-79504761D02*
X134554819Y-79409523D01*
X134554819Y-79409523D02*
X134602438Y-79314285D01*
X134602438Y-79314285D02*
X134650057Y-79266666D01*
X134650057Y-79266666D02*
X134745295Y-79219047D01*
X134745295Y-79219047D02*
X134935771Y-79171428D01*
X134935771Y-79171428D02*
X135173866Y-79171428D01*
X135173866Y-79171428D02*
X135364342Y-79219047D01*
X135364342Y-79219047D02*
X135459580Y-79266666D01*
X135459580Y-79266666D02*
X135507200Y-79314285D01*
X135507200Y-79314285D02*
X135554819Y-79409523D01*
X135554819Y-79409523D02*
X135554819Y-79504761D01*
X135554819Y-79504761D02*
X135507200Y-79599999D01*
X135507200Y-79599999D02*
X135459580Y-79647618D01*
X135459580Y-79647618D02*
X135364342Y-79695237D01*
X135364342Y-79695237D02*
X135173866Y-79742856D01*
X135173866Y-79742856D02*
X134935771Y-79742856D01*
X134935771Y-79742856D02*
X134745295Y-79695237D01*
X134745295Y-79695237D02*
X134650057Y-79647618D01*
X134650057Y-79647618D02*
X134602438Y-79599999D01*
X134602438Y-79599999D02*
X134554819Y-79504761D01*
X135269104Y-78790475D02*
X135269104Y-78314285D01*
X135554819Y-78885713D02*
X134554819Y-78552380D01*
X134554819Y-78552380D02*
X135554819Y-78219047D01*
X130454819Y-84004761D02*
X129454819Y-84004761D01*
X129454819Y-84004761D02*
X129454819Y-83766666D01*
X129454819Y-83766666D02*
X129502438Y-83623809D01*
X129502438Y-83623809D02*
X129597676Y-83528571D01*
X129597676Y-83528571D02*
X129692914Y-83480952D01*
X129692914Y-83480952D02*
X129883390Y-83433333D01*
X129883390Y-83433333D02*
X130026247Y-83433333D01*
X130026247Y-83433333D02*
X130216723Y-83480952D01*
X130216723Y-83480952D02*
X130311961Y-83528571D01*
X130311961Y-83528571D02*
X130407200Y-83623809D01*
X130407200Y-83623809D02*
X130454819Y-83766666D01*
X130454819Y-83766666D02*
X130454819Y-84004761D01*
X130550057Y-83242857D02*
X130550057Y-82480952D01*
X129454819Y-82385713D02*
X129454819Y-81814285D01*
X130454819Y-82099999D02*
X129454819Y-82099999D01*
X129454819Y-81623808D02*
X130454819Y-81290475D01*
X130454819Y-81290475D02*
X129454819Y-80957142D01*
X130407200Y-80671427D02*
X130454819Y-80528570D01*
X130454819Y-80528570D02*
X130454819Y-80290475D01*
X130454819Y-80290475D02*
X130407200Y-80195237D01*
X130407200Y-80195237D02*
X130359580Y-80147618D01*
X130359580Y-80147618D02*
X130264342Y-80099999D01*
X130264342Y-80099999D02*
X130169104Y-80099999D01*
X130169104Y-80099999D02*
X130073866Y-80147618D01*
X130073866Y-80147618D02*
X130026247Y-80195237D01*
X130026247Y-80195237D02*
X129978628Y-80290475D01*
X129978628Y-80290475D02*
X129931009Y-80480951D01*
X129931009Y-80480951D02*
X129883390Y-80576189D01*
X129883390Y-80576189D02*
X129835771Y-80623808D01*
X129835771Y-80623808D02*
X129740533Y-80671427D01*
X129740533Y-80671427D02*
X129645295Y-80671427D01*
X129645295Y-80671427D02*
X129550057Y-80623808D01*
X129550057Y-80623808D02*
X129502438Y-80576189D01*
X129502438Y-80576189D02*
X129454819Y-80480951D01*
X129454819Y-80480951D02*
X129454819Y-80242856D01*
X129454819Y-80242856D02*
X129502438Y-80099999D01*
X130454819Y-79147618D02*
X130454819Y-79719046D01*
X130454819Y-79433332D02*
X129454819Y-79433332D01*
X129454819Y-79433332D02*
X129597676Y-79528570D01*
X129597676Y-79528570D02*
X129692914Y-79623808D01*
X129692914Y-79623808D02*
X129740533Y-79719046D01*
X147424819Y-63990061D02*
X147424819Y-64561489D01*
X147424819Y-64275775D02*
X146424819Y-64275775D01*
X146424819Y-64275775D02*
X146567676Y-64371013D01*
X146567676Y-64371013D02*
X146662914Y-64466251D01*
X146662914Y-64466251D02*
X146710533Y-64561489D01*
X146424819Y-63371013D02*
X146424819Y-63275775D01*
X146424819Y-63275775D02*
X146472438Y-63180537D01*
X146472438Y-63180537D02*
X146520057Y-63132918D01*
X146520057Y-63132918D02*
X146615295Y-63085299D01*
X146615295Y-63085299D02*
X146805771Y-63037680D01*
X146805771Y-63037680D02*
X147043866Y-63037680D01*
X147043866Y-63037680D02*
X147234342Y-63085299D01*
X147234342Y-63085299D02*
X147329580Y-63132918D01*
X147329580Y-63132918D02*
X147377200Y-63180537D01*
X147377200Y-63180537D02*
X147424819Y-63275775D01*
X147424819Y-63275775D02*
X147424819Y-63371013D01*
X147424819Y-63371013D02*
X147377200Y-63466251D01*
X147377200Y-63466251D02*
X147329580Y-63513870D01*
X147329580Y-63513870D02*
X147234342Y-63561489D01*
X147234342Y-63561489D02*
X147043866Y-63609108D01*
X147043866Y-63609108D02*
X146805771Y-63609108D01*
X146805771Y-63609108D02*
X146615295Y-63561489D01*
X146615295Y-63561489D02*
X146520057Y-63513870D01*
X146520057Y-63513870D02*
X146472438Y-63466251D01*
X146472438Y-63466251D02*
X146424819Y-63371013D01*
X147424819Y-62609108D02*
X146424819Y-62609108D01*
X147043866Y-62513870D02*
X147424819Y-62228156D01*
X146758152Y-62228156D02*
X147139104Y-62609108D01*
D12*
X148581927Y-63461489D02*
X148391451Y-63594822D01*
X148581927Y-63690060D02*
X148181927Y-63690060D01*
X148181927Y-63690060D02*
X148181927Y-63537679D01*
X148181927Y-63537679D02*
X148200975Y-63499584D01*
X148200975Y-63499584D02*
X148220022Y-63480537D01*
X148220022Y-63480537D02*
X148258118Y-63461489D01*
X148258118Y-63461489D02*
X148315260Y-63461489D01*
X148315260Y-63461489D02*
X148353356Y-63480537D01*
X148353356Y-63480537D02*
X148372403Y-63499584D01*
X148372403Y-63499584D02*
X148391451Y-63537679D01*
X148391451Y-63537679D02*
X148391451Y-63690060D01*
X148581927Y-63080537D02*
X148581927Y-63309108D01*
X148581927Y-63194822D02*
X148181927Y-63194822D01*
X148181927Y-63194822D02*
X148239070Y-63232918D01*
X148239070Y-63232918D02*
X148277165Y-63271013D01*
X148277165Y-63271013D02*
X148296213Y-63309108D01*
D10*
X135604819Y-57833333D02*
X135604819Y-58404761D01*
X135604819Y-58119047D02*
X134604819Y-58119047D01*
X134604819Y-58119047D02*
X134747676Y-58214285D01*
X134747676Y-58214285D02*
X134842914Y-58309523D01*
X134842914Y-58309523D02*
X134890533Y-58404761D01*
X135509580Y-57404761D02*
X135557200Y-57357142D01*
X135557200Y-57357142D02*
X135604819Y-57404761D01*
X135604819Y-57404761D02*
X135557200Y-57452380D01*
X135557200Y-57452380D02*
X135509580Y-57404761D01*
X135509580Y-57404761D02*
X135604819Y-57404761D01*
X134700057Y-56976190D02*
X134652438Y-56928571D01*
X134652438Y-56928571D02*
X134604819Y-56833333D01*
X134604819Y-56833333D02*
X134604819Y-56595238D01*
X134604819Y-56595238D02*
X134652438Y-56500000D01*
X134652438Y-56500000D02*
X134700057Y-56452381D01*
X134700057Y-56452381D02*
X134795295Y-56404762D01*
X134795295Y-56404762D02*
X134890533Y-56404762D01*
X134890533Y-56404762D02*
X135033390Y-56452381D01*
X135033390Y-56452381D02*
X135604819Y-57023809D01*
X135604819Y-57023809D02*
X135604819Y-56404762D01*
X135604819Y-55976190D02*
X134604819Y-55976190D01*
X135223866Y-55880952D02*
X135604819Y-55595238D01*
X134938152Y-55595238D02*
X135319104Y-55976190D01*
D11*
X133727149Y-57678571D02*
X133489054Y-57845237D01*
X133727149Y-57964285D02*
X133227149Y-57964285D01*
X133227149Y-57964285D02*
X133227149Y-57773809D01*
X133227149Y-57773809D02*
X133250959Y-57726190D01*
X133250959Y-57726190D02*
X133274768Y-57702380D01*
X133274768Y-57702380D02*
X133322387Y-57678571D01*
X133322387Y-57678571D02*
X133393816Y-57678571D01*
X133393816Y-57678571D02*
X133441435Y-57702380D01*
X133441435Y-57702380D02*
X133465244Y-57726190D01*
X133465244Y-57726190D02*
X133489054Y-57773809D01*
X133489054Y-57773809D02*
X133489054Y-57964285D01*
X133727149Y-57464285D02*
X133227149Y-57464285D01*
X133417625Y-57464285D02*
X133393816Y-57416666D01*
X133393816Y-57416666D02*
X133393816Y-57321428D01*
X133393816Y-57321428D02*
X133417625Y-57273809D01*
X133417625Y-57273809D02*
X133441435Y-57249999D01*
X133441435Y-57249999D02*
X133489054Y-57226190D01*
X133489054Y-57226190D02*
X133631911Y-57226190D01*
X133631911Y-57226190D02*
X133679530Y-57249999D01*
X133679530Y-57249999D02*
X133703340Y-57273809D01*
X133703340Y-57273809D02*
X133727149Y-57321428D01*
X133727149Y-57321428D02*
X133727149Y-57416666D01*
X133727149Y-57416666D02*
X133703340Y-57464285D01*
X133727149Y-56940475D02*
X133703340Y-56988094D01*
X133703340Y-56988094D02*
X133679530Y-57011904D01*
X133679530Y-57011904D02*
X133631911Y-57035713D01*
X133631911Y-57035713D02*
X133489054Y-57035713D01*
X133489054Y-57035713D02*
X133441435Y-57011904D01*
X133441435Y-57011904D02*
X133417625Y-56988094D01*
X133417625Y-56988094D02*
X133393816Y-56940475D01*
X133393816Y-56940475D02*
X133393816Y-56869047D01*
X133393816Y-56869047D02*
X133417625Y-56821428D01*
X133417625Y-56821428D02*
X133441435Y-56797618D01*
X133441435Y-56797618D02*
X133489054Y-56773809D01*
X133489054Y-56773809D02*
X133631911Y-56773809D01*
X133631911Y-56773809D02*
X133679530Y-56797618D01*
X133679530Y-56797618D02*
X133703340Y-56821428D01*
X133703340Y-56821428D02*
X133727149Y-56869047D01*
X133727149Y-56869047D02*
X133727149Y-56940475D01*
X133393816Y-56630951D02*
X133393816Y-56440475D01*
X133227149Y-56559523D02*
X133655720Y-56559523D01*
X133655720Y-56559523D02*
X133703340Y-56535713D01*
X133703340Y-56535713D02*
X133727149Y-56488094D01*
X133727149Y-56488094D02*
X133727149Y-56440475D01*
X133727149Y-56011904D02*
X133727149Y-56297618D01*
X133727149Y-56154761D02*
X133227149Y-56154761D01*
X133227149Y-56154761D02*
X133298578Y-56202380D01*
X133298578Y-56202380D02*
X133346197Y-56249999D01*
X133346197Y-56249999D02*
X133370006Y-56297618D01*
D10*
X130638095Y-38337142D02*
X130638095Y-37337142D01*
X130638095Y-37813332D02*
X131209523Y-37813332D01*
X131209523Y-38337142D02*
X131209523Y-37337142D01*
X132209523Y-38337142D02*
X131638095Y-38337142D01*
X131923809Y-38337142D02*
X131923809Y-37337142D01*
X131923809Y-37337142D02*
X131828571Y-37479999D01*
X131828571Y-37479999D02*
X131733333Y-37575237D01*
X131733333Y-37575237D02*
X131638095Y-37622856D01*
X147111904Y-70687142D02*
X146540476Y-70687142D01*
X146826190Y-70687142D02*
X146826190Y-69687142D01*
X146826190Y-69687142D02*
X146730952Y-69829999D01*
X146730952Y-69829999D02*
X146635714Y-69925237D01*
X146635714Y-69925237D02*
X146540476Y-69972856D01*
X147730952Y-69687142D02*
X147826190Y-69687142D01*
X147826190Y-69687142D02*
X147921428Y-69734761D01*
X147921428Y-69734761D02*
X147969047Y-69782380D01*
X147969047Y-69782380D02*
X148016666Y-69877618D01*
X148016666Y-69877618D02*
X148064285Y-70068094D01*
X148064285Y-70068094D02*
X148064285Y-70306189D01*
X148064285Y-70306189D02*
X148016666Y-70496665D01*
X148016666Y-70496665D02*
X147969047Y-70591903D01*
X147969047Y-70591903D02*
X147921428Y-70639523D01*
X147921428Y-70639523D02*
X147826190Y-70687142D01*
X147826190Y-70687142D02*
X147730952Y-70687142D01*
X147730952Y-70687142D02*
X147635714Y-70639523D01*
X147635714Y-70639523D02*
X147588095Y-70591903D01*
X147588095Y-70591903D02*
X147540476Y-70496665D01*
X147540476Y-70496665D02*
X147492857Y-70306189D01*
X147492857Y-70306189D02*
X147492857Y-70068094D01*
X147492857Y-70068094D02*
X147540476Y-69877618D01*
X147540476Y-69877618D02*
X147588095Y-69782380D01*
X147588095Y-69782380D02*
X147635714Y-69734761D01*
X147635714Y-69734761D02*
X147730952Y-69687142D01*
X148683333Y-69687142D02*
X148778571Y-69687142D01*
X148778571Y-69687142D02*
X148873809Y-69734761D01*
X148873809Y-69734761D02*
X148921428Y-69782380D01*
X148921428Y-69782380D02*
X148969047Y-69877618D01*
X148969047Y-69877618D02*
X149016666Y-70068094D01*
X149016666Y-70068094D02*
X149016666Y-70306189D01*
X149016666Y-70306189D02*
X148969047Y-70496665D01*
X148969047Y-70496665D02*
X148921428Y-70591903D01*
X148921428Y-70591903D02*
X148873809Y-70639523D01*
X148873809Y-70639523D02*
X148778571Y-70687142D01*
X148778571Y-70687142D02*
X148683333Y-70687142D01*
X148683333Y-70687142D02*
X148588095Y-70639523D01*
X148588095Y-70639523D02*
X148540476Y-70591903D01*
X148540476Y-70591903D02*
X148492857Y-70496665D01*
X148492857Y-70496665D02*
X148445238Y-70306189D01*
X148445238Y-70306189D02*
X148445238Y-70068094D01*
X148445238Y-70068094D02*
X148492857Y-69877618D01*
X148492857Y-69877618D02*
X148540476Y-69782380D01*
X148540476Y-69782380D02*
X148588095Y-69734761D01*
X148588095Y-69734761D02*
X148683333Y-69687142D01*
X149397619Y-70687142D02*
X149635714Y-70687142D01*
X149635714Y-70687142D02*
X149635714Y-70496665D01*
X149635714Y-70496665D02*
X149540476Y-70449046D01*
X149540476Y-70449046D02*
X149445238Y-70353808D01*
X149445238Y-70353808D02*
X149397619Y-70210951D01*
X149397619Y-70210951D02*
X149397619Y-69972856D01*
X149397619Y-69972856D02*
X149445238Y-69829999D01*
X149445238Y-69829999D02*
X149540476Y-69734761D01*
X149540476Y-69734761D02*
X149683333Y-69687142D01*
X149683333Y-69687142D02*
X149873809Y-69687142D01*
X149873809Y-69687142D02*
X150016666Y-69734761D01*
X150016666Y-69734761D02*
X150111904Y-69829999D01*
X150111904Y-69829999D02*
X150159523Y-69972856D01*
X150159523Y-69972856D02*
X150159523Y-70210951D01*
X150159523Y-70210951D02*
X150111904Y-70353808D01*
X150111904Y-70353808D02*
X150016666Y-70449046D01*
X150016666Y-70449046D02*
X149921428Y-70496665D01*
X149921428Y-70496665D02*
X149921428Y-70687142D01*
X149921428Y-70687142D02*
X150159523Y-70687142D01*
D11*
X148416666Y-69059472D02*
X148250000Y-68821377D01*
X148130952Y-69059472D02*
X148130952Y-68559472D01*
X148130952Y-68559472D02*
X148321428Y-68559472D01*
X148321428Y-68559472D02*
X148369047Y-68583282D01*
X148369047Y-68583282D02*
X148392857Y-68607091D01*
X148392857Y-68607091D02*
X148416666Y-68654710D01*
X148416666Y-68654710D02*
X148416666Y-68726139D01*
X148416666Y-68726139D02*
X148392857Y-68773758D01*
X148392857Y-68773758D02*
X148369047Y-68797567D01*
X148369047Y-68797567D02*
X148321428Y-68821377D01*
X148321428Y-68821377D02*
X148130952Y-68821377D01*
X148869047Y-68559472D02*
X148630952Y-68559472D01*
X148630952Y-68559472D02*
X148607143Y-68797567D01*
X148607143Y-68797567D02*
X148630952Y-68773758D01*
X148630952Y-68773758D02*
X148678571Y-68749948D01*
X148678571Y-68749948D02*
X148797619Y-68749948D01*
X148797619Y-68749948D02*
X148845238Y-68773758D01*
X148845238Y-68773758D02*
X148869047Y-68797567D01*
X148869047Y-68797567D02*
X148892857Y-68845186D01*
X148892857Y-68845186D02*
X148892857Y-68964234D01*
X148892857Y-68964234D02*
X148869047Y-69011853D01*
X148869047Y-69011853D02*
X148845238Y-69035663D01*
X148845238Y-69035663D02*
X148797619Y-69059472D01*
X148797619Y-69059472D02*
X148678571Y-69059472D01*
X148678571Y-69059472D02*
X148630952Y-69035663D01*
X148630952Y-69035663D02*
X148607143Y-69011853D01*
D10*
X136468152Y-90738095D02*
X137134819Y-90738095D01*
X136087200Y-90976190D02*
X136801485Y-91214285D01*
X136801485Y-91214285D02*
X136801485Y-90595238D01*
X136849104Y-90261904D02*
X136849104Y-89785714D01*
X137134819Y-90357142D02*
X136134819Y-90023809D01*
X136134819Y-90023809D02*
X137134819Y-89690476D01*
X133454819Y-93904762D02*
X132454819Y-93904762D01*
X132454819Y-93904762D02*
X132454819Y-93523810D01*
X132454819Y-93523810D02*
X132502438Y-93428572D01*
X132502438Y-93428572D02*
X132550057Y-93380953D01*
X132550057Y-93380953D02*
X132645295Y-93333334D01*
X132645295Y-93333334D02*
X132788152Y-93333334D01*
X132788152Y-93333334D02*
X132883390Y-93380953D01*
X132883390Y-93380953D02*
X132931009Y-93428572D01*
X132931009Y-93428572D02*
X132978628Y-93523810D01*
X132978628Y-93523810D02*
X132978628Y-93904762D01*
X133454819Y-92761905D02*
X133407200Y-92857143D01*
X133407200Y-92857143D02*
X133359580Y-92904762D01*
X133359580Y-92904762D02*
X133264342Y-92952381D01*
X133264342Y-92952381D02*
X132978628Y-92952381D01*
X132978628Y-92952381D02*
X132883390Y-92904762D01*
X132883390Y-92904762D02*
X132835771Y-92857143D01*
X132835771Y-92857143D02*
X132788152Y-92761905D01*
X132788152Y-92761905D02*
X132788152Y-92619048D01*
X132788152Y-92619048D02*
X132835771Y-92523810D01*
X132835771Y-92523810D02*
X132883390Y-92476191D01*
X132883390Y-92476191D02*
X132978628Y-92428572D01*
X132978628Y-92428572D02*
X133264342Y-92428572D01*
X133264342Y-92428572D02*
X133359580Y-92476191D01*
X133359580Y-92476191D02*
X133407200Y-92523810D01*
X133407200Y-92523810D02*
X133454819Y-92619048D01*
X133454819Y-92619048D02*
X133454819Y-92761905D01*
X133454819Y-91857143D02*
X133407200Y-91952381D01*
X133407200Y-91952381D02*
X133311961Y-92000000D01*
X133311961Y-92000000D02*
X132454819Y-92000000D01*
X132788152Y-91571428D02*
X133454819Y-91333333D01*
X132788152Y-91095238D02*
X133454819Y-91333333D01*
X133454819Y-91333333D02*
X133692914Y-91428571D01*
X133692914Y-91428571D02*
X133740533Y-91476190D01*
X133740533Y-91476190D02*
X133788152Y-91571428D01*
X132788152Y-90857142D02*
X132788152Y-90476190D01*
X133454819Y-90714285D02*
X132597676Y-90714285D01*
X132597676Y-90714285D02*
X132502438Y-90666666D01*
X132502438Y-90666666D02*
X132454819Y-90571428D01*
X132454819Y-90571428D02*
X132454819Y-90476190D01*
X132788152Y-89714285D02*
X133454819Y-89714285D01*
X132788152Y-90142856D02*
X133311961Y-90142856D01*
X133311961Y-90142856D02*
X133407200Y-90095237D01*
X133407200Y-90095237D02*
X133454819Y-89999999D01*
X133454819Y-89999999D02*
X133454819Y-89857142D01*
X133454819Y-89857142D02*
X133407200Y-89761904D01*
X133407200Y-89761904D02*
X133359580Y-89714285D01*
X133407200Y-89285713D02*
X133454819Y-89190475D01*
X133454819Y-89190475D02*
X133454819Y-88999999D01*
X133454819Y-88999999D02*
X133407200Y-88904761D01*
X133407200Y-88904761D02*
X133311961Y-88857142D01*
X133311961Y-88857142D02*
X133264342Y-88857142D01*
X133264342Y-88857142D02*
X133169104Y-88904761D01*
X133169104Y-88904761D02*
X133121485Y-88999999D01*
X133121485Y-88999999D02*
X133121485Y-89142856D01*
X133121485Y-89142856D02*
X133073866Y-89238094D01*
X133073866Y-89238094D02*
X132978628Y-89285713D01*
X132978628Y-89285713D02*
X132931009Y-89285713D01*
X132931009Y-89285713D02*
X132835771Y-89238094D01*
X132835771Y-89238094D02*
X132788152Y-89142856D01*
X132788152Y-89142856D02*
X132788152Y-88999999D01*
X132788152Y-88999999D02*
X132835771Y-88904761D01*
X133407200Y-88047618D02*
X133454819Y-88142856D01*
X133454819Y-88142856D02*
X133454819Y-88333332D01*
X133454819Y-88333332D02*
X133407200Y-88428570D01*
X133407200Y-88428570D02*
X133311961Y-88476189D01*
X133311961Y-88476189D02*
X132931009Y-88476189D01*
X132931009Y-88476189D02*
X132835771Y-88428570D01*
X132835771Y-88428570D02*
X132788152Y-88333332D01*
X132788152Y-88333332D02*
X132788152Y-88142856D01*
X132788152Y-88142856D02*
X132835771Y-88047618D01*
X132835771Y-88047618D02*
X132931009Y-87999999D01*
X132931009Y-87999999D02*
X133026247Y-87999999D01*
X133026247Y-87999999D02*
X133121485Y-88476189D01*
X133454819Y-87047618D02*
X133454819Y-87619046D01*
X133454819Y-87333332D02*
X132454819Y-87333332D01*
X132454819Y-87333332D02*
X132597676Y-87428570D01*
X132597676Y-87428570D02*
X132692914Y-87523808D01*
X132692914Y-87523808D02*
X132740533Y-87619046D01*
X147734819Y-65347619D02*
X147734819Y-65919047D01*
X147734819Y-65633333D02*
X146734819Y-65633333D01*
X146734819Y-65633333D02*
X146877676Y-65728571D01*
X146877676Y-65728571D02*
X146972914Y-65823809D01*
X146972914Y-65823809D02*
X147020533Y-65919047D01*
X146734819Y-64728571D02*
X146734819Y-64633333D01*
X146734819Y-64633333D02*
X146782438Y-64538095D01*
X146782438Y-64538095D02*
X146830057Y-64490476D01*
X146830057Y-64490476D02*
X146925295Y-64442857D01*
X146925295Y-64442857D02*
X147115771Y-64395238D01*
X147115771Y-64395238D02*
X147353866Y-64395238D01*
X147353866Y-64395238D02*
X147544342Y-64442857D01*
X147544342Y-64442857D02*
X147639580Y-64490476D01*
X147639580Y-64490476D02*
X147687200Y-64538095D01*
X147687200Y-64538095D02*
X147734819Y-64633333D01*
X147734819Y-64633333D02*
X147734819Y-64728571D01*
X147734819Y-64728571D02*
X147687200Y-64823809D01*
X147687200Y-64823809D02*
X147639580Y-64871428D01*
X147639580Y-64871428D02*
X147544342Y-64919047D01*
X147544342Y-64919047D02*
X147353866Y-64966666D01*
X147353866Y-64966666D02*
X147115771Y-64966666D01*
X147115771Y-64966666D02*
X146925295Y-64919047D01*
X146925295Y-64919047D02*
X146830057Y-64871428D01*
X146830057Y-64871428D02*
X146782438Y-64823809D01*
X146782438Y-64823809D02*
X146734819Y-64728571D01*
X146734819Y-63776190D02*
X146734819Y-63680952D01*
X146734819Y-63680952D02*
X146782438Y-63585714D01*
X146782438Y-63585714D02*
X146830057Y-63538095D01*
X146830057Y-63538095D02*
X146925295Y-63490476D01*
X146925295Y-63490476D02*
X147115771Y-63442857D01*
X147115771Y-63442857D02*
X147353866Y-63442857D01*
X147353866Y-63442857D02*
X147544342Y-63490476D01*
X147544342Y-63490476D02*
X147639580Y-63538095D01*
X147639580Y-63538095D02*
X147687200Y-63585714D01*
X147687200Y-63585714D02*
X147734819Y-63680952D01*
X147734819Y-63680952D02*
X147734819Y-63776190D01*
X147734819Y-63776190D02*
X147687200Y-63871428D01*
X147687200Y-63871428D02*
X147639580Y-63919047D01*
X147639580Y-63919047D02*
X147544342Y-63966666D01*
X147544342Y-63966666D02*
X147353866Y-64014285D01*
X147353866Y-64014285D02*
X147115771Y-64014285D01*
X147115771Y-64014285D02*
X146925295Y-63966666D01*
X146925295Y-63966666D02*
X146830057Y-63919047D01*
X146830057Y-63919047D02*
X146782438Y-63871428D01*
X146782438Y-63871428D02*
X146734819Y-63776190D01*
X147068152Y-63014285D02*
X147734819Y-63014285D01*
X147163390Y-63014285D02*
X147115771Y-62966666D01*
X147115771Y-62966666D02*
X147068152Y-62871428D01*
X147068152Y-62871428D02*
X147068152Y-62728571D01*
X147068152Y-62728571D02*
X147115771Y-62633333D01*
X147115771Y-62633333D02*
X147211009Y-62585714D01*
X147211009Y-62585714D02*
X147734819Y-62585714D01*
X147211009Y-61776190D02*
X147211009Y-62109523D01*
X147734819Y-62109523D02*
X146734819Y-62109523D01*
X146734819Y-62109523D02*
X146734819Y-61633333D01*
D11*
X145779530Y-63883333D02*
X145803340Y-63907142D01*
X145803340Y-63907142D02*
X145827149Y-63978571D01*
X145827149Y-63978571D02*
X145827149Y-64026190D01*
X145827149Y-64026190D02*
X145803340Y-64097618D01*
X145803340Y-64097618D02*
X145755720Y-64145237D01*
X145755720Y-64145237D02*
X145708101Y-64169047D01*
X145708101Y-64169047D02*
X145612863Y-64192856D01*
X145612863Y-64192856D02*
X145541435Y-64192856D01*
X145541435Y-64192856D02*
X145446197Y-64169047D01*
X145446197Y-64169047D02*
X145398578Y-64145237D01*
X145398578Y-64145237D02*
X145350959Y-64097618D01*
X145350959Y-64097618D02*
X145327149Y-64026190D01*
X145327149Y-64026190D02*
X145327149Y-63978571D01*
X145327149Y-63978571D02*
X145350959Y-63907142D01*
X145350959Y-63907142D02*
X145374768Y-63883333D01*
X145374768Y-63692856D02*
X145350959Y-63669047D01*
X145350959Y-63669047D02*
X145327149Y-63621428D01*
X145327149Y-63621428D02*
X145327149Y-63502380D01*
X145327149Y-63502380D02*
X145350959Y-63454761D01*
X145350959Y-63454761D02*
X145374768Y-63430952D01*
X145374768Y-63430952D02*
X145422387Y-63407142D01*
X145422387Y-63407142D02*
X145470006Y-63407142D01*
X145470006Y-63407142D02*
X145541435Y-63430952D01*
X145541435Y-63430952D02*
X145827149Y-63716666D01*
X145827149Y-63716666D02*
X145827149Y-63407142D01*
D10*
X143647618Y-35754819D02*
X143314285Y-35278628D01*
X143076190Y-35754819D02*
X143076190Y-34754819D01*
X143076190Y-34754819D02*
X143457142Y-34754819D01*
X143457142Y-34754819D02*
X143552380Y-34802438D01*
X143552380Y-34802438D02*
X143599999Y-34850057D01*
X143599999Y-34850057D02*
X143647618Y-34945295D01*
X143647618Y-34945295D02*
X143647618Y-35088152D01*
X143647618Y-35088152D02*
X143599999Y-35183390D01*
X143599999Y-35183390D02*
X143552380Y-35231009D01*
X143552380Y-35231009D02*
X143457142Y-35278628D01*
X143457142Y-35278628D02*
X143076190Y-35278628D01*
X144076190Y-35231009D02*
X144409523Y-35231009D01*
X144552380Y-35754819D02*
X144076190Y-35754819D01*
X144076190Y-35754819D02*
X144076190Y-34754819D01*
X144076190Y-34754819D02*
X144552380Y-34754819D01*
X144933333Y-35707200D02*
X145076190Y-35754819D01*
X145076190Y-35754819D02*
X145314285Y-35754819D01*
X145314285Y-35754819D02*
X145409523Y-35707200D01*
X145409523Y-35707200D02*
X145457142Y-35659580D01*
X145457142Y-35659580D02*
X145504761Y-35564342D01*
X145504761Y-35564342D02*
X145504761Y-35469104D01*
X145504761Y-35469104D02*
X145457142Y-35373866D01*
X145457142Y-35373866D02*
X145409523Y-35326247D01*
X145409523Y-35326247D02*
X145314285Y-35278628D01*
X145314285Y-35278628D02*
X145123809Y-35231009D01*
X145123809Y-35231009D02*
X145028571Y-35183390D01*
X145028571Y-35183390D02*
X144980952Y-35135771D01*
X144980952Y-35135771D02*
X144933333Y-35040533D01*
X144933333Y-35040533D02*
X144933333Y-34945295D01*
X144933333Y-34945295D02*
X144980952Y-34850057D01*
X144980952Y-34850057D02*
X145028571Y-34802438D01*
X145028571Y-34802438D02*
X145123809Y-34754819D01*
X145123809Y-34754819D02*
X145361904Y-34754819D01*
X145361904Y-34754819D02*
X145504761Y-34802438D01*
X145933333Y-35231009D02*
X146266666Y-35231009D01*
X146409523Y-35754819D02*
X145933333Y-35754819D01*
X145933333Y-35754819D02*
X145933333Y-34754819D01*
X145933333Y-34754819D02*
X146409523Y-34754819D01*
X146695238Y-34754819D02*
X147266666Y-34754819D01*
X146980952Y-35754819D02*
X146980952Y-34754819D01*
D14*
X144299999Y-38144320D02*
X144385714Y-38172891D01*
X144385714Y-38172891D02*
X144528571Y-38172891D01*
X144528571Y-38172891D02*
X144585714Y-38144320D01*
X144585714Y-38144320D02*
X144614285Y-38115748D01*
X144614285Y-38115748D02*
X144642856Y-38058605D01*
X144642856Y-38058605D02*
X144642856Y-38001462D01*
X144642856Y-38001462D02*
X144614285Y-37944320D01*
X144614285Y-37944320D02*
X144585714Y-37915748D01*
X144585714Y-37915748D02*
X144528571Y-37887177D01*
X144528571Y-37887177D02*
X144414285Y-37858605D01*
X144414285Y-37858605D02*
X144357142Y-37830034D01*
X144357142Y-37830034D02*
X144328571Y-37801462D01*
X144328571Y-37801462D02*
X144299999Y-37744320D01*
X144299999Y-37744320D02*
X144299999Y-37687177D01*
X144299999Y-37687177D02*
X144328571Y-37630034D01*
X144328571Y-37630034D02*
X144357142Y-37601462D01*
X144357142Y-37601462D02*
X144414285Y-37572891D01*
X144414285Y-37572891D02*
X144557142Y-37572891D01*
X144557142Y-37572891D02*
X144642856Y-37601462D01*
X144842857Y-37572891D02*
X144985714Y-38172891D01*
X144985714Y-38172891D02*
X145100000Y-37744320D01*
X145100000Y-37744320D02*
X145214285Y-38172891D01*
X145214285Y-38172891D02*
X145357143Y-37572891D01*
X145557142Y-37630034D02*
X145585714Y-37601462D01*
X145585714Y-37601462D02*
X145642857Y-37572891D01*
X145642857Y-37572891D02*
X145785714Y-37572891D01*
X145785714Y-37572891D02*
X145842857Y-37601462D01*
X145842857Y-37601462D02*
X145871428Y-37630034D01*
X145871428Y-37630034D02*
X145899999Y-37687177D01*
X145899999Y-37687177D02*
X145899999Y-37744320D01*
X145899999Y-37744320D02*
X145871428Y-37830034D01*
X145871428Y-37830034D02*
X145528571Y-38172891D01*
X145528571Y-38172891D02*
X145899999Y-38172891D01*
D10*
X135952380Y-48434819D02*
X135380952Y-48434819D01*
X135666666Y-48434819D02*
X135666666Y-47434819D01*
X135666666Y-47434819D02*
X135571428Y-47577676D01*
X135571428Y-47577676D02*
X135476190Y-47672914D01*
X135476190Y-47672914D02*
X135380952Y-47720533D01*
X136571428Y-47434819D02*
X136666666Y-47434819D01*
X136666666Y-47434819D02*
X136761904Y-47482438D01*
X136761904Y-47482438D02*
X136809523Y-47530057D01*
X136809523Y-47530057D02*
X136857142Y-47625295D01*
X136857142Y-47625295D02*
X136904761Y-47815771D01*
X136904761Y-47815771D02*
X136904761Y-48053866D01*
X136904761Y-48053866D02*
X136857142Y-48244342D01*
X136857142Y-48244342D02*
X136809523Y-48339580D01*
X136809523Y-48339580D02*
X136761904Y-48387200D01*
X136761904Y-48387200D02*
X136666666Y-48434819D01*
X136666666Y-48434819D02*
X136571428Y-48434819D01*
X136571428Y-48434819D02*
X136476190Y-48387200D01*
X136476190Y-48387200D02*
X136428571Y-48339580D01*
X136428571Y-48339580D02*
X136380952Y-48244342D01*
X136380952Y-48244342D02*
X136333333Y-48053866D01*
X136333333Y-48053866D02*
X136333333Y-47815771D01*
X136333333Y-47815771D02*
X136380952Y-47625295D01*
X136380952Y-47625295D02*
X136428571Y-47530057D01*
X136428571Y-47530057D02*
X136476190Y-47482438D01*
X136476190Y-47482438D02*
X136571428Y-47434819D01*
X137523809Y-47434819D02*
X137619047Y-47434819D01*
X137619047Y-47434819D02*
X137714285Y-47482438D01*
X137714285Y-47482438D02*
X137761904Y-47530057D01*
X137761904Y-47530057D02*
X137809523Y-47625295D01*
X137809523Y-47625295D02*
X137857142Y-47815771D01*
X137857142Y-47815771D02*
X137857142Y-48053866D01*
X137857142Y-48053866D02*
X137809523Y-48244342D01*
X137809523Y-48244342D02*
X137761904Y-48339580D01*
X137761904Y-48339580D02*
X137714285Y-48387200D01*
X137714285Y-48387200D02*
X137619047Y-48434819D01*
X137619047Y-48434819D02*
X137523809Y-48434819D01*
X137523809Y-48434819D02*
X137428571Y-48387200D01*
X137428571Y-48387200D02*
X137380952Y-48339580D01*
X137380952Y-48339580D02*
X137333333Y-48244342D01*
X137333333Y-48244342D02*
X137285714Y-48053866D01*
X137285714Y-48053866D02*
X137285714Y-47815771D01*
X137285714Y-47815771D02*
X137333333Y-47625295D01*
X137333333Y-47625295D02*
X137380952Y-47530057D01*
X137380952Y-47530057D02*
X137428571Y-47482438D01*
X137428571Y-47482438D02*
X137523809Y-47434819D01*
X138285714Y-47768152D02*
X138285714Y-48434819D01*
X138285714Y-47863390D02*
X138333333Y-47815771D01*
X138333333Y-47815771D02*
X138428571Y-47768152D01*
X138428571Y-47768152D02*
X138571428Y-47768152D01*
X138571428Y-47768152D02*
X138666666Y-47815771D01*
X138666666Y-47815771D02*
X138714285Y-47911009D01*
X138714285Y-47911009D02*
X138714285Y-48434819D01*
X139523809Y-47911009D02*
X139190476Y-47911009D01*
X139190476Y-48434819D02*
X139190476Y-47434819D01*
X139190476Y-47434819D02*
X139666666Y-47434819D01*
D11*
X137416666Y-46479530D02*
X137392857Y-46503340D01*
X137392857Y-46503340D02*
X137321428Y-46527149D01*
X137321428Y-46527149D02*
X137273809Y-46527149D01*
X137273809Y-46527149D02*
X137202381Y-46503340D01*
X137202381Y-46503340D02*
X137154762Y-46455720D01*
X137154762Y-46455720D02*
X137130952Y-46408101D01*
X137130952Y-46408101D02*
X137107143Y-46312863D01*
X137107143Y-46312863D02*
X137107143Y-46241435D01*
X137107143Y-46241435D02*
X137130952Y-46146197D01*
X137130952Y-46146197D02*
X137154762Y-46098578D01*
X137154762Y-46098578D02*
X137202381Y-46050959D01*
X137202381Y-46050959D02*
X137273809Y-46027149D01*
X137273809Y-46027149D02*
X137321428Y-46027149D01*
X137321428Y-46027149D02*
X137392857Y-46050959D01*
X137392857Y-46050959D02*
X137416666Y-46074768D01*
X137583333Y-46027149D02*
X137892857Y-46027149D01*
X137892857Y-46027149D02*
X137726190Y-46217625D01*
X137726190Y-46217625D02*
X137797619Y-46217625D01*
X137797619Y-46217625D02*
X137845238Y-46241435D01*
X137845238Y-46241435D02*
X137869047Y-46265244D01*
X137869047Y-46265244D02*
X137892857Y-46312863D01*
X137892857Y-46312863D02*
X137892857Y-46431911D01*
X137892857Y-46431911D02*
X137869047Y-46479530D01*
X137869047Y-46479530D02*
X137845238Y-46503340D01*
X137845238Y-46503340D02*
X137797619Y-46527149D01*
X137797619Y-46527149D02*
X137654762Y-46527149D01*
X137654762Y-46527149D02*
X137607143Y-46503340D01*
X137607143Y-46503340D02*
X137583333Y-46479530D01*
D10*
X150142857Y-35231009D02*
X150285714Y-35278628D01*
X150285714Y-35278628D02*
X150333333Y-35326247D01*
X150333333Y-35326247D02*
X150380952Y-35421485D01*
X150380952Y-35421485D02*
X150380952Y-35564342D01*
X150380952Y-35564342D02*
X150333333Y-35659580D01*
X150333333Y-35659580D02*
X150285714Y-35707200D01*
X150285714Y-35707200D02*
X150190476Y-35754819D01*
X150190476Y-35754819D02*
X149809524Y-35754819D01*
X149809524Y-35754819D02*
X149809524Y-34754819D01*
X149809524Y-34754819D02*
X150142857Y-34754819D01*
X150142857Y-34754819D02*
X150238095Y-34802438D01*
X150238095Y-34802438D02*
X150285714Y-34850057D01*
X150285714Y-34850057D02*
X150333333Y-34945295D01*
X150333333Y-34945295D02*
X150333333Y-35040533D01*
X150333333Y-35040533D02*
X150285714Y-35135771D01*
X150285714Y-35135771D02*
X150238095Y-35183390D01*
X150238095Y-35183390D02*
X150142857Y-35231009D01*
X150142857Y-35231009D02*
X149809524Y-35231009D01*
X151000000Y-34754819D02*
X151190476Y-34754819D01*
X151190476Y-34754819D02*
X151285714Y-34802438D01*
X151285714Y-34802438D02*
X151380952Y-34897676D01*
X151380952Y-34897676D02*
X151428571Y-35088152D01*
X151428571Y-35088152D02*
X151428571Y-35421485D01*
X151428571Y-35421485D02*
X151380952Y-35611961D01*
X151380952Y-35611961D02*
X151285714Y-35707200D01*
X151285714Y-35707200D02*
X151190476Y-35754819D01*
X151190476Y-35754819D02*
X151000000Y-35754819D01*
X151000000Y-35754819D02*
X150904762Y-35707200D01*
X150904762Y-35707200D02*
X150809524Y-35611961D01*
X150809524Y-35611961D02*
X150761905Y-35421485D01*
X150761905Y-35421485D02*
X150761905Y-35088152D01*
X150761905Y-35088152D02*
X150809524Y-34897676D01*
X150809524Y-34897676D02*
X150904762Y-34802438D01*
X150904762Y-34802438D02*
X151000000Y-34754819D01*
X152047619Y-34754819D02*
X152238095Y-34754819D01*
X152238095Y-34754819D02*
X152333333Y-34802438D01*
X152333333Y-34802438D02*
X152428571Y-34897676D01*
X152428571Y-34897676D02*
X152476190Y-35088152D01*
X152476190Y-35088152D02*
X152476190Y-35421485D01*
X152476190Y-35421485D02*
X152428571Y-35611961D01*
X152428571Y-35611961D02*
X152333333Y-35707200D01*
X152333333Y-35707200D02*
X152238095Y-35754819D01*
X152238095Y-35754819D02*
X152047619Y-35754819D01*
X152047619Y-35754819D02*
X151952381Y-35707200D01*
X151952381Y-35707200D02*
X151857143Y-35611961D01*
X151857143Y-35611961D02*
X151809524Y-35421485D01*
X151809524Y-35421485D02*
X151809524Y-35088152D01*
X151809524Y-35088152D02*
X151857143Y-34897676D01*
X151857143Y-34897676D02*
X151952381Y-34802438D01*
X151952381Y-34802438D02*
X152047619Y-34754819D01*
X152761905Y-34754819D02*
X153333333Y-34754819D01*
X153047619Y-35754819D02*
X153047619Y-34754819D01*
D14*
X150699999Y-38144320D02*
X150785714Y-38172891D01*
X150785714Y-38172891D02*
X150928571Y-38172891D01*
X150928571Y-38172891D02*
X150985714Y-38144320D01*
X150985714Y-38144320D02*
X151014285Y-38115748D01*
X151014285Y-38115748D02*
X151042856Y-38058605D01*
X151042856Y-38058605D02*
X151042856Y-38001462D01*
X151042856Y-38001462D02*
X151014285Y-37944320D01*
X151014285Y-37944320D02*
X150985714Y-37915748D01*
X150985714Y-37915748D02*
X150928571Y-37887177D01*
X150928571Y-37887177D02*
X150814285Y-37858605D01*
X150814285Y-37858605D02*
X150757142Y-37830034D01*
X150757142Y-37830034D02*
X150728571Y-37801462D01*
X150728571Y-37801462D02*
X150699999Y-37744320D01*
X150699999Y-37744320D02*
X150699999Y-37687177D01*
X150699999Y-37687177D02*
X150728571Y-37630034D01*
X150728571Y-37630034D02*
X150757142Y-37601462D01*
X150757142Y-37601462D02*
X150814285Y-37572891D01*
X150814285Y-37572891D02*
X150957142Y-37572891D01*
X150957142Y-37572891D02*
X151042856Y-37601462D01*
X151242857Y-37572891D02*
X151385714Y-38172891D01*
X151385714Y-38172891D02*
X151500000Y-37744320D01*
X151500000Y-37744320D02*
X151614285Y-38172891D01*
X151614285Y-38172891D02*
X151757143Y-37572891D01*
X152299999Y-38172891D02*
X151957142Y-38172891D01*
X152128571Y-38172891D02*
X152128571Y-37572891D01*
X152128571Y-37572891D02*
X152071428Y-37658605D01*
X152071428Y-37658605D02*
X152014285Y-37715748D01*
X152014285Y-37715748D02*
X151957142Y-37744320D01*
D10*
X132000057Y-58404761D02*
X131952438Y-58357142D01*
X131952438Y-58357142D02*
X131904819Y-58261904D01*
X131904819Y-58261904D02*
X131904819Y-58023809D01*
X131904819Y-58023809D02*
X131952438Y-57928571D01*
X131952438Y-57928571D02*
X132000057Y-57880952D01*
X132000057Y-57880952D02*
X132095295Y-57833333D01*
X132095295Y-57833333D02*
X132190533Y-57833333D01*
X132190533Y-57833333D02*
X132333390Y-57880952D01*
X132333390Y-57880952D02*
X132904819Y-58452380D01*
X132904819Y-58452380D02*
X132904819Y-57833333D01*
X132809580Y-57404761D02*
X132857200Y-57357142D01*
X132857200Y-57357142D02*
X132904819Y-57404761D01*
X132904819Y-57404761D02*
X132857200Y-57452380D01*
X132857200Y-57452380D02*
X132809580Y-57404761D01*
X132809580Y-57404761D02*
X132904819Y-57404761D01*
X131904819Y-56738095D02*
X131904819Y-56642857D01*
X131904819Y-56642857D02*
X131952438Y-56547619D01*
X131952438Y-56547619D02*
X132000057Y-56500000D01*
X132000057Y-56500000D02*
X132095295Y-56452381D01*
X132095295Y-56452381D02*
X132285771Y-56404762D01*
X132285771Y-56404762D02*
X132523866Y-56404762D01*
X132523866Y-56404762D02*
X132714342Y-56452381D01*
X132714342Y-56452381D02*
X132809580Y-56500000D01*
X132809580Y-56500000D02*
X132857200Y-56547619D01*
X132857200Y-56547619D02*
X132904819Y-56642857D01*
X132904819Y-56642857D02*
X132904819Y-56738095D01*
X132904819Y-56738095D02*
X132857200Y-56833333D01*
X132857200Y-56833333D02*
X132809580Y-56880952D01*
X132809580Y-56880952D02*
X132714342Y-56928571D01*
X132714342Y-56928571D02*
X132523866Y-56976190D01*
X132523866Y-56976190D02*
X132285771Y-56976190D01*
X132285771Y-56976190D02*
X132095295Y-56928571D01*
X132095295Y-56928571D02*
X132000057Y-56880952D01*
X132000057Y-56880952D02*
X131952438Y-56833333D01*
X131952438Y-56833333D02*
X131904819Y-56738095D01*
X132904819Y-55976190D02*
X131904819Y-55976190D01*
X132523866Y-55880952D02*
X132904819Y-55595238D01*
X132238152Y-55595238D02*
X132619104Y-55976190D01*
D11*
X131027149Y-57678571D02*
X130789054Y-57845237D01*
X131027149Y-57964285D02*
X130527149Y-57964285D01*
X130527149Y-57964285D02*
X130527149Y-57773809D01*
X130527149Y-57773809D02*
X130550959Y-57726190D01*
X130550959Y-57726190D02*
X130574768Y-57702380D01*
X130574768Y-57702380D02*
X130622387Y-57678571D01*
X130622387Y-57678571D02*
X130693816Y-57678571D01*
X130693816Y-57678571D02*
X130741435Y-57702380D01*
X130741435Y-57702380D02*
X130765244Y-57726190D01*
X130765244Y-57726190D02*
X130789054Y-57773809D01*
X130789054Y-57773809D02*
X130789054Y-57964285D01*
X130693816Y-57535713D02*
X130693816Y-57345237D01*
X130527149Y-57464285D02*
X130955720Y-57464285D01*
X130955720Y-57464285D02*
X131003340Y-57440475D01*
X131003340Y-57440475D02*
X131027149Y-57392856D01*
X131027149Y-57392856D02*
X131027149Y-57345237D01*
X131027149Y-57107142D02*
X131003340Y-57154761D01*
X131003340Y-57154761D02*
X130979530Y-57178571D01*
X130979530Y-57178571D02*
X130931911Y-57202380D01*
X130931911Y-57202380D02*
X130789054Y-57202380D01*
X130789054Y-57202380D02*
X130741435Y-57178571D01*
X130741435Y-57178571D02*
X130717625Y-57154761D01*
X130717625Y-57154761D02*
X130693816Y-57107142D01*
X130693816Y-57107142D02*
X130693816Y-57035714D01*
X130693816Y-57035714D02*
X130717625Y-56988095D01*
X130717625Y-56988095D02*
X130741435Y-56964285D01*
X130741435Y-56964285D02*
X130789054Y-56940476D01*
X130789054Y-56940476D02*
X130931911Y-56940476D01*
X130931911Y-56940476D02*
X130979530Y-56964285D01*
X130979530Y-56964285D02*
X131003340Y-56988095D01*
X131003340Y-56988095D02*
X131027149Y-57035714D01*
X131027149Y-57035714D02*
X131027149Y-57107142D01*
X130693816Y-56726190D02*
X131193816Y-56726190D01*
X130717625Y-56726190D02*
X130693816Y-56678571D01*
X130693816Y-56678571D02*
X130693816Y-56583333D01*
X130693816Y-56583333D02*
X130717625Y-56535714D01*
X130717625Y-56535714D02*
X130741435Y-56511904D01*
X130741435Y-56511904D02*
X130789054Y-56488095D01*
X130789054Y-56488095D02*
X130931911Y-56488095D01*
X130931911Y-56488095D02*
X130979530Y-56511904D01*
X130979530Y-56511904D02*
X131003340Y-56535714D01*
X131003340Y-56535714D02*
X131027149Y-56583333D01*
X131027149Y-56583333D02*
X131027149Y-56678571D01*
X131027149Y-56678571D02*
X131003340Y-56726190D01*
X131027149Y-56011904D02*
X131027149Y-56297618D01*
X131027149Y-56154761D02*
X130527149Y-56154761D01*
X130527149Y-56154761D02*
X130598578Y-56202380D01*
X130598578Y-56202380D02*
X130646197Y-56249999D01*
X130646197Y-56249999D02*
X130670006Y-56297618D01*
D10*
X123709524Y-105087142D02*
X123709524Y-104087142D01*
X123709524Y-104087142D02*
X124042857Y-104801427D01*
X124042857Y-104801427D02*
X124376190Y-104087142D01*
X124376190Y-104087142D02*
X124376190Y-105087142D01*
X124995238Y-105087142D02*
X124900000Y-105039523D01*
X124900000Y-105039523D02*
X124852381Y-104991903D01*
X124852381Y-104991903D02*
X124804762Y-104896665D01*
X124804762Y-104896665D02*
X124804762Y-104610951D01*
X124804762Y-104610951D02*
X124852381Y-104515713D01*
X124852381Y-104515713D02*
X124900000Y-104468094D01*
X124900000Y-104468094D02*
X124995238Y-104420475D01*
X124995238Y-104420475D02*
X125138095Y-104420475D01*
X125138095Y-104420475D02*
X125233333Y-104468094D01*
X125233333Y-104468094D02*
X125280952Y-104515713D01*
X125280952Y-104515713D02*
X125328571Y-104610951D01*
X125328571Y-104610951D02*
X125328571Y-104896665D01*
X125328571Y-104896665D02*
X125280952Y-104991903D01*
X125280952Y-104991903D02*
X125233333Y-105039523D01*
X125233333Y-105039523D02*
X125138095Y-105087142D01*
X125138095Y-105087142D02*
X124995238Y-105087142D01*
X126185714Y-104420475D02*
X126185714Y-105087142D01*
X125757143Y-104420475D02*
X125757143Y-104944284D01*
X125757143Y-104944284D02*
X125804762Y-105039523D01*
X125804762Y-105039523D02*
X125900000Y-105087142D01*
X125900000Y-105087142D02*
X126042857Y-105087142D01*
X126042857Y-105087142D02*
X126138095Y-105039523D01*
X126138095Y-105039523D02*
X126185714Y-104991903D01*
X126661905Y-104420475D02*
X126661905Y-105087142D01*
X126661905Y-104515713D02*
X126709524Y-104468094D01*
X126709524Y-104468094D02*
X126804762Y-104420475D01*
X126804762Y-104420475D02*
X126947619Y-104420475D01*
X126947619Y-104420475D02*
X127042857Y-104468094D01*
X127042857Y-104468094D02*
X127090476Y-104563332D01*
X127090476Y-104563332D02*
X127090476Y-105087142D01*
X127423810Y-104420475D02*
X127804762Y-104420475D01*
X127566667Y-104087142D02*
X127566667Y-104944284D01*
X127566667Y-104944284D02*
X127614286Y-105039523D01*
X127614286Y-105039523D02*
X127709524Y-105087142D01*
X127709524Y-105087142D02*
X127804762Y-105087142D01*
X128138096Y-105087142D02*
X128138096Y-104420475D01*
X128138096Y-104087142D02*
X128090477Y-104134761D01*
X128090477Y-104134761D02*
X128138096Y-104182380D01*
X128138096Y-104182380D02*
X128185715Y-104134761D01*
X128185715Y-104134761D02*
X128138096Y-104087142D01*
X128138096Y-104087142D02*
X128138096Y-104182380D01*
X128614286Y-104420475D02*
X128614286Y-105087142D01*
X128614286Y-104515713D02*
X128661905Y-104468094D01*
X128661905Y-104468094D02*
X128757143Y-104420475D01*
X128757143Y-104420475D02*
X128900000Y-104420475D01*
X128900000Y-104420475D02*
X128995238Y-104468094D01*
X128995238Y-104468094D02*
X129042857Y-104563332D01*
X129042857Y-104563332D02*
X129042857Y-105087142D01*
X129947619Y-104420475D02*
X129947619Y-105229999D01*
X129947619Y-105229999D02*
X129900000Y-105325237D01*
X129900000Y-105325237D02*
X129852381Y-105372856D01*
X129852381Y-105372856D02*
X129757143Y-105420475D01*
X129757143Y-105420475D02*
X129614286Y-105420475D01*
X129614286Y-105420475D02*
X129519048Y-105372856D01*
X129947619Y-105039523D02*
X129852381Y-105087142D01*
X129852381Y-105087142D02*
X129661905Y-105087142D01*
X129661905Y-105087142D02*
X129566667Y-105039523D01*
X129566667Y-105039523D02*
X129519048Y-104991903D01*
X129519048Y-104991903D02*
X129471429Y-104896665D01*
X129471429Y-104896665D02*
X129471429Y-104610951D01*
X129471429Y-104610951D02*
X129519048Y-104515713D01*
X129519048Y-104515713D02*
X129566667Y-104468094D01*
X129566667Y-104468094D02*
X129661905Y-104420475D01*
X129661905Y-104420475D02*
X129852381Y-104420475D01*
X129852381Y-104420475D02*
X129947619Y-104468094D01*
X130423810Y-105087142D02*
X130423810Y-104087142D01*
X130423810Y-104563332D02*
X130995238Y-104563332D01*
X130995238Y-105087142D02*
X130995238Y-104087142D01*
X131614286Y-105087142D02*
X131519048Y-105039523D01*
X131519048Y-105039523D02*
X131471429Y-104991903D01*
X131471429Y-104991903D02*
X131423810Y-104896665D01*
X131423810Y-104896665D02*
X131423810Y-104610951D01*
X131423810Y-104610951D02*
X131471429Y-104515713D01*
X131471429Y-104515713D02*
X131519048Y-104468094D01*
X131519048Y-104468094D02*
X131614286Y-104420475D01*
X131614286Y-104420475D02*
X131757143Y-104420475D01*
X131757143Y-104420475D02*
X131852381Y-104468094D01*
X131852381Y-104468094D02*
X131900000Y-104515713D01*
X131900000Y-104515713D02*
X131947619Y-104610951D01*
X131947619Y-104610951D02*
X131947619Y-104896665D01*
X131947619Y-104896665D02*
X131900000Y-104991903D01*
X131900000Y-104991903D02*
X131852381Y-105039523D01*
X131852381Y-105039523D02*
X131757143Y-105087142D01*
X131757143Y-105087142D02*
X131614286Y-105087142D01*
X132519048Y-105087142D02*
X132423810Y-105039523D01*
X132423810Y-105039523D02*
X132376191Y-104944284D01*
X132376191Y-104944284D02*
X132376191Y-104087142D01*
X133280953Y-105039523D02*
X133185715Y-105087142D01*
X133185715Y-105087142D02*
X132995239Y-105087142D01*
X132995239Y-105087142D02*
X132900001Y-105039523D01*
X132900001Y-105039523D02*
X132852382Y-104944284D01*
X132852382Y-104944284D02*
X132852382Y-104563332D01*
X132852382Y-104563332D02*
X132900001Y-104468094D01*
X132900001Y-104468094D02*
X132995239Y-104420475D01*
X132995239Y-104420475D02*
X133185715Y-104420475D01*
X133185715Y-104420475D02*
X133280953Y-104468094D01*
X133280953Y-104468094D02*
X133328572Y-104563332D01*
X133328572Y-104563332D02*
X133328572Y-104658570D01*
X133328572Y-104658570D02*
X132852382Y-104753808D01*
X133519049Y-105182380D02*
X134280953Y-105182380D01*
X134471430Y-104182380D02*
X134519049Y-104134761D01*
X134519049Y-104134761D02*
X134614287Y-104087142D01*
X134614287Y-104087142D02*
X134852382Y-104087142D01*
X134852382Y-104087142D02*
X134947620Y-104134761D01*
X134947620Y-104134761D02*
X134995239Y-104182380D01*
X134995239Y-104182380D02*
X135042858Y-104277618D01*
X135042858Y-104277618D02*
X135042858Y-104372856D01*
X135042858Y-104372856D02*
X134995239Y-104515713D01*
X134995239Y-104515713D02*
X134423811Y-105087142D01*
X134423811Y-105087142D02*
X135042858Y-105087142D01*
X135471430Y-104991903D02*
X135519049Y-105039523D01*
X135519049Y-105039523D02*
X135471430Y-105087142D01*
X135471430Y-105087142D02*
X135423811Y-105039523D01*
X135423811Y-105039523D02*
X135471430Y-104991903D01*
X135471430Y-104991903D02*
X135471430Y-105087142D01*
X136471429Y-105087142D02*
X135900001Y-105087142D01*
X136185715Y-105087142D02*
X136185715Y-104087142D01*
X136185715Y-104087142D02*
X136090477Y-104229999D01*
X136090477Y-104229999D02*
X135995239Y-104325237D01*
X135995239Y-104325237D02*
X135900001Y-104372856D01*
X136900001Y-105087142D02*
X136900001Y-104420475D01*
X136900001Y-104515713D02*
X136947620Y-104468094D01*
X136947620Y-104468094D02*
X137042858Y-104420475D01*
X137042858Y-104420475D02*
X137185715Y-104420475D01*
X137185715Y-104420475D02*
X137280953Y-104468094D01*
X137280953Y-104468094D02*
X137328572Y-104563332D01*
X137328572Y-104563332D02*
X137328572Y-105087142D01*
X137328572Y-104563332D02*
X137376191Y-104468094D01*
X137376191Y-104468094D02*
X137471429Y-104420475D01*
X137471429Y-104420475D02*
X137614286Y-104420475D01*
X137614286Y-104420475D02*
X137709525Y-104468094D01*
X137709525Y-104468094D02*
X137757144Y-104563332D01*
X137757144Y-104563332D02*
X137757144Y-105087142D01*
X138233334Y-105087142D02*
X138233334Y-104420475D01*
X138233334Y-104515713D02*
X138280953Y-104468094D01*
X138280953Y-104468094D02*
X138376191Y-104420475D01*
X138376191Y-104420475D02*
X138519048Y-104420475D01*
X138519048Y-104420475D02*
X138614286Y-104468094D01*
X138614286Y-104468094D02*
X138661905Y-104563332D01*
X138661905Y-104563332D02*
X138661905Y-105087142D01*
X138661905Y-104563332D02*
X138709524Y-104468094D01*
X138709524Y-104468094D02*
X138804762Y-104420475D01*
X138804762Y-104420475D02*
X138947619Y-104420475D01*
X138947619Y-104420475D02*
X139042858Y-104468094D01*
X139042858Y-104468094D02*
X139090477Y-104563332D01*
X139090477Y-104563332D02*
X139090477Y-105087142D01*
X130638095Y-101887142D02*
X130638095Y-100887142D01*
X130638095Y-101363332D02*
X131209523Y-101363332D01*
X131209523Y-101887142D02*
X131209523Y-100887142D01*
X131590476Y-100887142D02*
X132209523Y-100887142D01*
X132209523Y-100887142D02*
X131876190Y-101268094D01*
X131876190Y-101268094D02*
X132019047Y-101268094D01*
X132019047Y-101268094D02*
X132114285Y-101315713D01*
X132114285Y-101315713D02*
X132161904Y-101363332D01*
X132161904Y-101363332D02*
X132209523Y-101458570D01*
X132209523Y-101458570D02*
X132209523Y-101696665D01*
X132209523Y-101696665D02*
X132161904Y-101791903D01*
X132161904Y-101791903D02*
X132114285Y-101839523D01*
X132114285Y-101839523D02*
X132019047Y-101887142D01*
X132019047Y-101887142D02*
X131733333Y-101887142D01*
X131733333Y-101887142D02*
X131638095Y-101839523D01*
X131638095Y-101839523D02*
X131590476Y-101791903D01*
X140207200Y-58514285D02*
X140254819Y-58371428D01*
X140254819Y-58371428D02*
X140254819Y-58133333D01*
X140254819Y-58133333D02*
X140207200Y-58038095D01*
X140207200Y-58038095D02*
X140159580Y-57990476D01*
X140159580Y-57990476D02*
X140064342Y-57942857D01*
X140064342Y-57942857D02*
X139969104Y-57942857D01*
X139969104Y-57942857D02*
X139873866Y-57990476D01*
X139873866Y-57990476D02*
X139826247Y-58038095D01*
X139826247Y-58038095D02*
X139778628Y-58133333D01*
X139778628Y-58133333D02*
X139731009Y-58323809D01*
X139731009Y-58323809D02*
X139683390Y-58419047D01*
X139683390Y-58419047D02*
X139635771Y-58466666D01*
X139635771Y-58466666D02*
X139540533Y-58514285D01*
X139540533Y-58514285D02*
X139445295Y-58514285D01*
X139445295Y-58514285D02*
X139350057Y-58466666D01*
X139350057Y-58466666D02*
X139302438Y-58419047D01*
X139302438Y-58419047D02*
X139254819Y-58323809D01*
X139254819Y-58323809D02*
X139254819Y-58085714D01*
X139254819Y-58085714D02*
X139302438Y-57942857D01*
X140207200Y-57561904D02*
X140254819Y-57419047D01*
X140254819Y-57419047D02*
X140254819Y-57180952D01*
X140254819Y-57180952D02*
X140207200Y-57085714D01*
X140207200Y-57085714D02*
X140159580Y-57038095D01*
X140159580Y-57038095D02*
X140064342Y-56990476D01*
X140064342Y-56990476D02*
X139969104Y-56990476D01*
X139969104Y-56990476D02*
X139873866Y-57038095D01*
X139873866Y-57038095D02*
X139826247Y-57085714D01*
X139826247Y-57085714D02*
X139778628Y-57180952D01*
X139778628Y-57180952D02*
X139731009Y-57371428D01*
X139731009Y-57371428D02*
X139683390Y-57466666D01*
X139683390Y-57466666D02*
X139635771Y-57514285D01*
X139635771Y-57514285D02*
X139540533Y-57561904D01*
X139540533Y-57561904D02*
X139445295Y-57561904D01*
X139445295Y-57561904D02*
X139350057Y-57514285D01*
X139350057Y-57514285D02*
X139302438Y-57466666D01*
X139302438Y-57466666D02*
X139254819Y-57371428D01*
X139254819Y-57371428D02*
X139254819Y-57133333D01*
X139254819Y-57133333D02*
X139302438Y-56990476D01*
X139254819Y-56657142D02*
X139254819Y-56038095D01*
X139254819Y-56038095D02*
X139635771Y-56371428D01*
X139635771Y-56371428D02*
X139635771Y-56228571D01*
X139635771Y-56228571D02*
X139683390Y-56133333D01*
X139683390Y-56133333D02*
X139731009Y-56085714D01*
X139731009Y-56085714D02*
X139826247Y-56038095D01*
X139826247Y-56038095D02*
X140064342Y-56038095D01*
X140064342Y-56038095D02*
X140159580Y-56085714D01*
X140159580Y-56085714D02*
X140207200Y-56133333D01*
X140207200Y-56133333D02*
X140254819Y-56228571D01*
X140254819Y-56228571D02*
X140254819Y-56514285D01*
X140254819Y-56514285D02*
X140207200Y-56609523D01*
X140207200Y-56609523D02*
X140159580Y-56657142D01*
X139588152Y-55180952D02*
X140254819Y-55180952D01*
X139207200Y-55419047D02*
X139921485Y-55657142D01*
X139921485Y-55657142D02*
X139921485Y-55038095D01*
X133719045Y-87113332D02*
X133861902Y-87160951D01*
X133861902Y-87160951D02*
X133909521Y-87208570D01*
X133909521Y-87208570D02*
X133957140Y-87303808D01*
X133957140Y-87303808D02*
X133957140Y-87446665D01*
X133957140Y-87446665D02*
X133909521Y-87541903D01*
X133909521Y-87541903D02*
X133861902Y-87589523D01*
X133861902Y-87589523D02*
X133766664Y-87637142D01*
X133766664Y-87637142D02*
X133385712Y-87637142D01*
X133385712Y-87637142D02*
X133385712Y-86637142D01*
X133385712Y-86637142D02*
X133719045Y-86637142D01*
X133719045Y-86637142D02*
X133814283Y-86684761D01*
X133814283Y-86684761D02*
X133861902Y-86732380D01*
X133861902Y-86732380D02*
X133909521Y-86827618D01*
X133909521Y-86827618D02*
X133909521Y-86922856D01*
X133909521Y-86922856D02*
X133861902Y-87018094D01*
X133861902Y-87018094D02*
X133814283Y-87065713D01*
X133814283Y-87065713D02*
X133719045Y-87113332D01*
X133719045Y-87113332D02*
X133385712Y-87113332D01*
X134814283Y-87637142D02*
X134814283Y-87113332D01*
X134814283Y-87113332D02*
X134766664Y-87018094D01*
X134766664Y-87018094D02*
X134671426Y-86970475D01*
X134671426Y-86970475D02*
X134480950Y-86970475D01*
X134480950Y-86970475D02*
X134385712Y-87018094D01*
X134814283Y-87589523D02*
X134719045Y-87637142D01*
X134719045Y-87637142D02*
X134480950Y-87637142D01*
X134480950Y-87637142D02*
X134385712Y-87589523D01*
X134385712Y-87589523D02*
X134338093Y-87494284D01*
X134338093Y-87494284D02*
X134338093Y-87399046D01*
X134338093Y-87399046D02*
X134385712Y-87303808D01*
X134385712Y-87303808D02*
X134480950Y-87256189D01*
X134480950Y-87256189D02*
X134719045Y-87256189D01*
X134719045Y-87256189D02*
X134814283Y-87208570D01*
X135290474Y-87637142D02*
X135290474Y-86970475D01*
X135290474Y-87160951D02*
X135338093Y-87065713D01*
X135338093Y-87065713D02*
X135385712Y-87018094D01*
X135385712Y-87018094D02*
X135480950Y-86970475D01*
X135480950Y-86970475D02*
X135576188Y-86970475D01*
X135909522Y-87637142D02*
X135909522Y-86970475D01*
X135909522Y-87160951D02*
X135957141Y-87065713D01*
X135957141Y-87065713D02*
X136004760Y-87018094D01*
X136004760Y-87018094D02*
X136099998Y-86970475D01*
X136099998Y-86970475D02*
X136195236Y-86970475D01*
X136909522Y-87589523D02*
X136814284Y-87637142D01*
X136814284Y-87637142D02*
X136623808Y-87637142D01*
X136623808Y-87637142D02*
X136528570Y-87589523D01*
X136528570Y-87589523D02*
X136480951Y-87494284D01*
X136480951Y-87494284D02*
X136480951Y-87113332D01*
X136480951Y-87113332D02*
X136528570Y-87018094D01*
X136528570Y-87018094D02*
X136623808Y-86970475D01*
X136623808Y-86970475D02*
X136814284Y-86970475D01*
X136814284Y-86970475D02*
X136909522Y-87018094D01*
X136909522Y-87018094D02*
X136957141Y-87113332D01*
X136957141Y-87113332D02*
X136957141Y-87208570D01*
X136957141Y-87208570D02*
X136480951Y-87303808D01*
X137528570Y-87637142D02*
X137433332Y-87589523D01*
X137433332Y-87589523D02*
X137385713Y-87494284D01*
X137385713Y-87494284D02*
X137385713Y-86637142D01*
X137671428Y-87732380D02*
X138433332Y-87732380D01*
X138957142Y-86637142D02*
X138957142Y-87351427D01*
X138957142Y-87351427D02*
X138909523Y-87494284D01*
X138909523Y-87494284D02*
X138814285Y-87589523D01*
X138814285Y-87589523D02*
X138671428Y-87637142D01*
X138671428Y-87637142D02*
X138576190Y-87637142D01*
X139861904Y-87637142D02*
X139861904Y-87113332D01*
X139861904Y-87113332D02*
X139814285Y-87018094D01*
X139814285Y-87018094D02*
X139719047Y-86970475D01*
X139719047Y-86970475D02*
X139528571Y-86970475D01*
X139528571Y-86970475D02*
X139433333Y-87018094D01*
X139861904Y-87589523D02*
X139766666Y-87637142D01*
X139766666Y-87637142D02*
X139528571Y-87637142D01*
X139528571Y-87637142D02*
X139433333Y-87589523D01*
X139433333Y-87589523D02*
X139385714Y-87494284D01*
X139385714Y-87494284D02*
X139385714Y-87399046D01*
X139385714Y-87399046D02*
X139433333Y-87303808D01*
X139433333Y-87303808D02*
X139528571Y-87256189D01*
X139528571Y-87256189D02*
X139766666Y-87256189D01*
X139766666Y-87256189D02*
X139861904Y-87208570D01*
X140766666Y-87589523D02*
X140671428Y-87637142D01*
X140671428Y-87637142D02*
X140480952Y-87637142D01*
X140480952Y-87637142D02*
X140385714Y-87589523D01*
X140385714Y-87589523D02*
X140338095Y-87541903D01*
X140338095Y-87541903D02*
X140290476Y-87446665D01*
X140290476Y-87446665D02*
X140290476Y-87160951D01*
X140290476Y-87160951D02*
X140338095Y-87065713D01*
X140338095Y-87065713D02*
X140385714Y-87018094D01*
X140385714Y-87018094D02*
X140480952Y-86970475D01*
X140480952Y-86970475D02*
X140671428Y-86970475D01*
X140671428Y-86970475D02*
X140766666Y-87018094D01*
X141195238Y-87637142D02*
X141195238Y-86637142D01*
X141290476Y-87256189D02*
X141576190Y-87637142D01*
X141576190Y-86970475D02*
X141195238Y-87351427D01*
X141766667Y-87732380D02*
X142528571Y-87732380D01*
X143338095Y-87541903D02*
X143290476Y-87589523D01*
X143290476Y-87589523D02*
X143147619Y-87637142D01*
X143147619Y-87637142D02*
X143052381Y-87637142D01*
X143052381Y-87637142D02*
X142909524Y-87589523D01*
X142909524Y-87589523D02*
X142814286Y-87494284D01*
X142814286Y-87494284D02*
X142766667Y-87399046D01*
X142766667Y-87399046D02*
X142719048Y-87208570D01*
X142719048Y-87208570D02*
X142719048Y-87065713D01*
X142719048Y-87065713D02*
X142766667Y-86875237D01*
X142766667Y-86875237D02*
X142814286Y-86779999D01*
X142814286Y-86779999D02*
X142909524Y-86684761D01*
X142909524Y-86684761D02*
X143052381Y-86637142D01*
X143052381Y-86637142D02*
X143147619Y-86637142D01*
X143147619Y-86637142D02*
X143290476Y-86684761D01*
X143290476Y-86684761D02*
X143338095Y-86732380D01*
X143909524Y-87637142D02*
X143814286Y-87589523D01*
X143814286Y-87589523D02*
X143766667Y-87541903D01*
X143766667Y-87541903D02*
X143719048Y-87446665D01*
X143719048Y-87446665D02*
X143719048Y-87160951D01*
X143719048Y-87160951D02*
X143766667Y-87065713D01*
X143766667Y-87065713D02*
X143814286Y-87018094D01*
X143814286Y-87018094D02*
X143909524Y-86970475D01*
X143909524Y-86970475D02*
X144052381Y-86970475D01*
X144052381Y-86970475D02*
X144147619Y-87018094D01*
X144147619Y-87018094D02*
X144195238Y-87065713D01*
X144195238Y-87065713D02*
X144242857Y-87160951D01*
X144242857Y-87160951D02*
X144242857Y-87446665D01*
X144242857Y-87446665D02*
X144195238Y-87541903D01*
X144195238Y-87541903D02*
X144147619Y-87589523D01*
X144147619Y-87589523D02*
X144052381Y-87637142D01*
X144052381Y-87637142D02*
X143909524Y-87637142D01*
X144671429Y-86970475D02*
X144671429Y-87637142D01*
X144671429Y-87065713D02*
X144719048Y-87018094D01*
X144719048Y-87018094D02*
X144814286Y-86970475D01*
X144814286Y-86970475D02*
X144957143Y-86970475D01*
X144957143Y-86970475D02*
X145052381Y-87018094D01*
X145052381Y-87018094D02*
X145100000Y-87113332D01*
X145100000Y-87113332D02*
X145100000Y-87637142D01*
X145576191Y-86970475D02*
X145576191Y-87637142D01*
X145576191Y-87065713D02*
X145623810Y-87018094D01*
X145623810Y-87018094D02*
X145719048Y-86970475D01*
X145719048Y-86970475D02*
X145861905Y-86970475D01*
X145861905Y-86970475D02*
X145957143Y-87018094D01*
X145957143Y-87018094D02*
X146004762Y-87113332D01*
X146004762Y-87113332D02*
X146004762Y-87637142D01*
X146861905Y-87589523D02*
X146766667Y-87637142D01*
X146766667Y-87637142D02*
X146576191Y-87637142D01*
X146576191Y-87637142D02*
X146480953Y-87589523D01*
X146480953Y-87589523D02*
X146433334Y-87494284D01*
X146433334Y-87494284D02*
X146433334Y-87113332D01*
X146433334Y-87113332D02*
X146480953Y-87018094D01*
X146480953Y-87018094D02*
X146576191Y-86970475D01*
X146576191Y-86970475D02*
X146766667Y-86970475D01*
X146766667Y-86970475D02*
X146861905Y-87018094D01*
X146861905Y-87018094D02*
X146909524Y-87113332D01*
X146909524Y-87113332D02*
X146909524Y-87208570D01*
X146909524Y-87208570D02*
X146433334Y-87303808D01*
X147766667Y-87589523D02*
X147671429Y-87637142D01*
X147671429Y-87637142D02*
X147480953Y-87637142D01*
X147480953Y-87637142D02*
X147385715Y-87589523D01*
X147385715Y-87589523D02*
X147338096Y-87541903D01*
X147338096Y-87541903D02*
X147290477Y-87446665D01*
X147290477Y-87446665D02*
X147290477Y-87160951D01*
X147290477Y-87160951D02*
X147338096Y-87065713D01*
X147338096Y-87065713D02*
X147385715Y-87018094D01*
X147385715Y-87018094D02*
X147480953Y-86970475D01*
X147480953Y-86970475D02*
X147671429Y-86970475D01*
X147671429Y-86970475D02*
X147766667Y-87018094D01*
X148052382Y-86970475D02*
X148433334Y-86970475D01*
X148195239Y-86637142D02*
X148195239Y-87494284D01*
X148195239Y-87494284D02*
X148242858Y-87589523D01*
X148242858Y-87589523D02*
X148338096Y-87637142D01*
X148338096Y-87637142D02*
X148433334Y-87637142D01*
X148909525Y-87637142D02*
X148814287Y-87589523D01*
X148814287Y-87589523D02*
X148766668Y-87541903D01*
X148766668Y-87541903D02*
X148719049Y-87446665D01*
X148719049Y-87446665D02*
X148719049Y-87160951D01*
X148719049Y-87160951D02*
X148766668Y-87065713D01*
X148766668Y-87065713D02*
X148814287Y-87018094D01*
X148814287Y-87018094D02*
X148909525Y-86970475D01*
X148909525Y-86970475D02*
X149052382Y-86970475D01*
X149052382Y-86970475D02*
X149147620Y-87018094D01*
X149147620Y-87018094D02*
X149195239Y-87065713D01*
X149195239Y-87065713D02*
X149242858Y-87160951D01*
X149242858Y-87160951D02*
X149242858Y-87446665D01*
X149242858Y-87446665D02*
X149195239Y-87541903D01*
X149195239Y-87541903D02*
X149147620Y-87589523D01*
X149147620Y-87589523D02*
X149052382Y-87637142D01*
X149052382Y-87637142D02*
X148909525Y-87637142D01*
X149671430Y-87637142D02*
X149671430Y-86970475D01*
X149671430Y-87160951D02*
X149719049Y-87065713D01*
X149719049Y-87065713D02*
X149766668Y-87018094D01*
X149766668Y-87018094D02*
X149861906Y-86970475D01*
X149861906Y-86970475D02*
X149957144Y-86970475D01*
X140960588Y-97149761D02*
X140865350Y-97102142D01*
X140865350Y-97102142D02*
X140722493Y-97102142D01*
X140722493Y-97102142D02*
X140579636Y-97149761D01*
X140579636Y-97149761D02*
X140484398Y-97244999D01*
X140484398Y-97244999D02*
X140436779Y-97340237D01*
X140436779Y-97340237D02*
X140389160Y-97530713D01*
X140389160Y-97530713D02*
X140389160Y-97673570D01*
X140389160Y-97673570D02*
X140436779Y-97864046D01*
X140436779Y-97864046D02*
X140484398Y-97959284D01*
X140484398Y-97959284D02*
X140579636Y-98054523D01*
X140579636Y-98054523D02*
X140722493Y-98102142D01*
X140722493Y-98102142D02*
X140817731Y-98102142D01*
X140817731Y-98102142D02*
X140960588Y-98054523D01*
X140960588Y-98054523D02*
X141008207Y-98006903D01*
X141008207Y-98006903D02*
X141008207Y-97673570D01*
X141008207Y-97673570D02*
X140817731Y-97673570D01*
X141436779Y-98102142D02*
X141436779Y-97102142D01*
X141436779Y-97102142D02*
X142008207Y-98102142D01*
X142008207Y-98102142D02*
X142008207Y-97102142D01*
X142484398Y-98102142D02*
X142484398Y-97102142D01*
X142484398Y-97102142D02*
X142722493Y-97102142D01*
X142722493Y-97102142D02*
X142865350Y-97149761D01*
X142865350Y-97149761D02*
X142960588Y-97244999D01*
X142960588Y-97244999D02*
X143008207Y-97340237D01*
X143008207Y-97340237D02*
X143055826Y-97530713D01*
X143055826Y-97530713D02*
X143055826Y-97673570D01*
X143055826Y-97673570D02*
X143008207Y-97864046D01*
X143008207Y-97864046D02*
X142960588Y-97959284D01*
X142960588Y-97959284D02*
X142865350Y-98054523D01*
X142865350Y-98054523D02*
X142722493Y-98102142D01*
X142722493Y-98102142D02*
X142484398Y-98102142D01*
X149069819Y-93795543D02*
X148069819Y-93795543D01*
X148069819Y-93795543D02*
X148069819Y-93557448D01*
X148069819Y-93557448D02*
X148117438Y-93414591D01*
X148117438Y-93414591D02*
X148212676Y-93319353D01*
X148212676Y-93319353D02*
X148307914Y-93271734D01*
X148307914Y-93271734D02*
X148498390Y-93224115D01*
X148498390Y-93224115D02*
X148641247Y-93224115D01*
X148641247Y-93224115D02*
X148831723Y-93271734D01*
X148831723Y-93271734D02*
X148926961Y-93319353D01*
X148926961Y-93319353D02*
X149022200Y-93414591D01*
X149022200Y-93414591D02*
X149069819Y-93557448D01*
X149069819Y-93557448D02*
X149069819Y-93795543D01*
X148784104Y-92843162D02*
X148784104Y-92366972D01*
X149069819Y-92938400D02*
X148069819Y-92605067D01*
X148069819Y-92605067D02*
X149069819Y-92271734D01*
X148069819Y-92081257D02*
X148069819Y-91509829D01*
X149069819Y-91795543D02*
X148069819Y-91795543D01*
X148784104Y-91224114D02*
X148784104Y-90747924D01*
X149069819Y-91319352D02*
X148069819Y-90986019D01*
X148069819Y-90986019D02*
X149069819Y-90652686D01*
X153434819Y-63977561D02*
X153434819Y-64548989D01*
X153434819Y-64263275D02*
X152434819Y-64263275D01*
X152434819Y-64263275D02*
X152577676Y-64358513D01*
X152577676Y-64358513D02*
X152672914Y-64453751D01*
X152672914Y-64453751D02*
X152720533Y-64548989D01*
X152434819Y-63358513D02*
X152434819Y-63263275D01*
X152434819Y-63263275D02*
X152482438Y-63168037D01*
X152482438Y-63168037D02*
X152530057Y-63120418D01*
X152530057Y-63120418D02*
X152625295Y-63072799D01*
X152625295Y-63072799D02*
X152815771Y-63025180D01*
X152815771Y-63025180D02*
X153053866Y-63025180D01*
X153053866Y-63025180D02*
X153244342Y-63072799D01*
X153244342Y-63072799D02*
X153339580Y-63120418D01*
X153339580Y-63120418D02*
X153387200Y-63168037D01*
X153387200Y-63168037D02*
X153434819Y-63263275D01*
X153434819Y-63263275D02*
X153434819Y-63358513D01*
X153434819Y-63358513D02*
X153387200Y-63453751D01*
X153387200Y-63453751D02*
X153339580Y-63501370D01*
X153339580Y-63501370D02*
X153244342Y-63548989D01*
X153244342Y-63548989D02*
X153053866Y-63596608D01*
X153053866Y-63596608D02*
X152815771Y-63596608D01*
X152815771Y-63596608D02*
X152625295Y-63548989D01*
X152625295Y-63548989D02*
X152530057Y-63501370D01*
X152530057Y-63501370D02*
X152482438Y-63453751D01*
X152482438Y-63453751D02*
X152434819Y-63358513D01*
X153434819Y-62596608D02*
X152434819Y-62596608D01*
X153053866Y-62501370D02*
X153434819Y-62215656D01*
X152768152Y-62215656D02*
X153149104Y-62596608D01*
D12*
X151731927Y-63448989D02*
X151541451Y-63582322D01*
X151731927Y-63677560D02*
X151331927Y-63677560D01*
X151331927Y-63677560D02*
X151331927Y-63525179D01*
X151331927Y-63525179D02*
X151350975Y-63487084D01*
X151350975Y-63487084D02*
X151370022Y-63468037D01*
X151370022Y-63468037D02*
X151408118Y-63448989D01*
X151408118Y-63448989D02*
X151465260Y-63448989D01*
X151465260Y-63448989D02*
X151503356Y-63468037D01*
X151503356Y-63468037D02*
X151522403Y-63487084D01*
X151522403Y-63487084D02*
X151541451Y-63525179D01*
X151541451Y-63525179D02*
X151541451Y-63677560D01*
X151370022Y-63296608D02*
X151350975Y-63277560D01*
X151350975Y-63277560D02*
X151331927Y-63239465D01*
X151331927Y-63239465D02*
X151331927Y-63144227D01*
X151331927Y-63144227D02*
X151350975Y-63106132D01*
X151350975Y-63106132D02*
X151370022Y-63087084D01*
X151370022Y-63087084D02*
X151408118Y-63068037D01*
X151408118Y-63068037D02*
X151446213Y-63068037D01*
X151446213Y-63068037D02*
X151503356Y-63087084D01*
X151503356Y-63087084D02*
X151731927Y-63315656D01*
X151731927Y-63315656D02*
X151731927Y-63068037D01*
D10*
X138209524Y-47400057D02*
X138257143Y-47352438D01*
X138257143Y-47352438D02*
X138352381Y-47304819D01*
X138352381Y-47304819D02*
X138590476Y-47304819D01*
X138590476Y-47304819D02*
X138685714Y-47352438D01*
X138685714Y-47352438D02*
X138733333Y-47400057D01*
X138733333Y-47400057D02*
X138780952Y-47495295D01*
X138780952Y-47495295D02*
X138780952Y-47590533D01*
X138780952Y-47590533D02*
X138733333Y-47733390D01*
X138733333Y-47733390D02*
X138161905Y-48304819D01*
X138161905Y-48304819D02*
X138780952Y-48304819D01*
X139161905Y-47400057D02*
X139209524Y-47352438D01*
X139209524Y-47352438D02*
X139304762Y-47304819D01*
X139304762Y-47304819D02*
X139542857Y-47304819D01*
X139542857Y-47304819D02*
X139638095Y-47352438D01*
X139638095Y-47352438D02*
X139685714Y-47400057D01*
X139685714Y-47400057D02*
X139733333Y-47495295D01*
X139733333Y-47495295D02*
X139733333Y-47590533D01*
X139733333Y-47590533D02*
X139685714Y-47733390D01*
X139685714Y-47733390D02*
X139114286Y-48304819D01*
X139114286Y-48304819D02*
X139733333Y-48304819D01*
X140352381Y-47304819D02*
X140447619Y-47304819D01*
X140447619Y-47304819D02*
X140542857Y-47352438D01*
X140542857Y-47352438D02*
X140590476Y-47400057D01*
X140590476Y-47400057D02*
X140638095Y-47495295D01*
X140638095Y-47495295D02*
X140685714Y-47685771D01*
X140685714Y-47685771D02*
X140685714Y-47923866D01*
X140685714Y-47923866D02*
X140638095Y-48114342D01*
X140638095Y-48114342D02*
X140590476Y-48209580D01*
X140590476Y-48209580D02*
X140542857Y-48257200D01*
X140542857Y-48257200D02*
X140447619Y-48304819D01*
X140447619Y-48304819D02*
X140352381Y-48304819D01*
X140352381Y-48304819D02*
X140257143Y-48257200D01*
X140257143Y-48257200D02*
X140209524Y-48209580D01*
X140209524Y-48209580D02*
X140161905Y-48114342D01*
X140161905Y-48114342D02*
X140114286Y-47923866D01*
X140114286Y-47923866D02*
X140114286Y-47685771D01*
X140114286Y-47685771D02*
X140161905Y-47495295D01*
X140161905Y-47495295D02*
X140209524Y-47400057D01*
X140209524Y-47400057D02*
X140257143Y-47352438D01*
X140257143Y-47352438D02*
X140352381Y-47304819D01*
X141114286Y-47638152D02*
X141114286Y-48638152D01*
X141590476Y-48161961D02*
X141638095Y-48257200D01*
X141638095Y-48257200D02*
X141733333Y-48304819D01*
X141114286Y-48161961D02*
X141161905Y-48257200D01*
X141161905Y-48257200D02*
X141257143Y-48304819D01*
X141257143Y-48304819D02*
X141447619Y-48304819D01*
X141447619Y-48304819D02*
X141542857Y-48257200D01*
X141542857Y-48257200D02*
X141590476Y-48161961D01*
X141590476Y-48161961D02*
X141590476Y-47638152D01*
X142495238Y-47781009D02*
X142161905Y-47781009D01*
X142161905Y-48304819D02*
X142161905Y-47304819D01*
X142161905Y-47304819D02*
X142638095Y-47304819D01*
X144209524Y-47304819D02*
X144019048Y-47304819D01*
X144019048Y-47304819D02*
X143923810Y-47352438D01*
X143923810Y-47352438D02*
X143876191Y-47400057D01*
X143876191Y-47400057D02*
X143780953Y-47542914D01*
X143780953Y-47542914D02*
X143733334Y-47733390D01*
X143733334Y-47733390D02*
X143733334Y-48114342D01*
X143733334Y-48114342D02*
X143780953Y-48209580D01*
X143780953Y-48209580D02*
X143828572Y-48257200D01*
X143828572Y-48257200D02*
X143923810Y-48304819D01*
X143923810Y-48304819D02*
X144114286Y-48304819D01*
X144114286Y-48304819D02*
X144209524Y-48257200D01*
X144209524Y-48257200D02*
X144257143Y-48209580D01*
X144257143Y-48209580D02*
X144304762Y-48114342D01*
X144304762Y-48114342D02*
X144304762Y-47876247D01*
X144304762Y-47876247D02*
X144257143Y-47781009D01*
X144257143Y-47781009D02*
X144209524Y-47733390D01*
X144209524Y-47733390D02*
X144114286Y-47685771D01*
X144114286Y-47685771D02*
X143923810Y-47685771D01*
X143923810Y-47685771D02*
X143828572Y-47733390D01*
X143828572Y-47733390D02*
X143780953Y-47781009D01*
X143780953Y-47781009D02*
X143733334Y-47876247D01*
X144733334Y-48209580D02*
X144780953Y-48257200D01*
X144780953Y-48257200D02*
X144733334Y-48304819D01*
X144733334Y-48304819D02*
X144685715Y-48257200D01*
X144685715Y-48257200D02*
X144733334Y-48209580D01*
X144733334Y-48209580D02*
X144733334Y-48304819D01*
X145114286Y-47304819D02*
X145733333Y-47304819D01*
X145733333Y-47304819D02*
X145400000Y-47685771D01*
X145400000Y-47685771D02*
X145542857Y-47685771D01*
X145542857Y-47685771D02*
X145638095Y-47733390D01*
X145638095Y-47733390D02*
X145685714Y-47781009D01*
X145685714Y-47781009D02*
X145733333Y-47876247D01*
X145733333Y-47876247D02*
X145733333Y-48114342D01*
X145733333Y-48114342D02*
X145685714Y-48209580D01*
X145685714Y-48209580D02*
X145638095Y-48257200D01*
X145638095Y-48257200D02*
X145542857Y-48304819D01*
X145542857Y-48304819D02*
X145257143Y-48304819D01*
X145257143Y-48304819D02*
X145161905Y-48257200D01*
X145161905Y-48257200D02*
X145114286Y-48209580D01*
X146019048Y-47304819D02*
X146352381Y-48304819D01*
X146352381Y-48304819D02*
X146685714Y-47304819D01*
X140804761Y-50759580D02*
X140757142Y-50807200D01*
X140757142Y-50807200D02*
X140614285Y-50854819D01*
X140614285Y-50854819D02*
X140519047Y-50854819D01*
X140519047Y-50854819D02*
X140376190Y-50807200D01*
X140376190Y-50807200D02*
X140280952Y-50711961D01*
X140280952Y-50711961D02*
X140233333Y-50616723D01*
X140233333Y-50616723D02*
X140185714Y-50426247D01*
X140185714Y-50426247D02*
X140185714Y-50283390D01*
X140185714Y-50283390D02*
X140233333Y-50092914D01*
X140233333Y-50092914D02*
X140280952Y-49997676D01*
X140280952Y-49997676D02*
X140376190Y-49902438D01*
X140376190Y-49902438D02*
X140519047Y-49854819D01*
X140519047Y-49854819D02*
X140614285Y-49854819D01*
X140614285Y-49854819D02*
X140757142Y-49902438D01*
X140757142Y-49902438D02*
X140804761Y-49950057D01*
X141423809Y-49854819D02*
X141614285Y-49854819D01*
X141614285Y-49854819D02*
X141709523Y-49902438D01*
X141709523Y-49902438D02*
X141804761Y-49997676D01*
X141804761Y-49997676D02*
X141852380Y-50188152D01*
X141852380Y-50188152D02*
X141852380Y-50521485D01*
X141852380Y-50521485D02*
X141804761Y-50711961D01*
X141804761Y-50711961D02*
X141709523Y-50807200D01*
X141709523Y-50807200D02*
X141614285Y-50854819D01*
X141614285Y-50854819D02*
X141423809Y-50854819D01*
X141423809Y-50854819D02*
X141328571Y-50807200D01*
X141328571Y-50807200D02*
X141233333Y-50711961D01*
X141233333Y-50711961D02*
X141185714Y-50521485D01*
X141185714Y-50521485D02*
X141185714Y-50188152D01*
X141185714Y-50188152D02*
X141233333Y-49997676D01*
X141233333Y-49997676D02*
X141328571Y-49902438D01*
X141328571Y-49902438D02*
X141423809Y-49854819D01*
X142280952Y-49854819D02*
X142280952Y-50664342D01*
X142280952Y-50664342D02*
X142328571Y-50759580D01*
X142328571Y-50759580D02*
X142376190Y-50807200D01*
X142376190Y-50807200D02*
X142471428Y-50854819D01*
X142471428Y-50854819D02*
X142661904Y-50854819D01*
X142661904Y-50854819D02*
X142757142Y-50807200D01*
X142757142Y-50807200D02*
X142804761Y-50759580D01*
X142804761Y-50759580D02*
X142852380Y-50664342D01*
X142852380Y-50664342D02*
X142852380Y-49854819D01*
X143185714Y-49854819D02*
X143757142Y-49854819D01*
X143471428Y-50854819D02*
X143471428Y-49854819D01*
X144042857Y-49950057D02*
X144090476Y-49902438D01*
X144090476Y-49902438D02*
X144185714Y-49854819D01*
X144185714Y-49854819D02*
X144423809Y-49854819D01*
X144423809Y-49854819D02*
X144519047Y-49902438D01*
X144519047Y-49902438D02*
X144566666Y-49950057D01*
X144566666Y-49950057D02*
X144614285Y-50045295D01*
X144614285Y-50045295D02*
X144614285Y-50140533D01*
X144614285Y-50140533D02*
X144566666Y-50283390D01*
X144566666Y-50283390D02*
X143995238Y-50854819D01*
X143995238Y-50854819D02*
X144614285Y-50854819D01*
X152744528Y-62088126D02*
X153078439Y-62088126D01*
X153221543Y-62612843D02*
X152744528Y-62612843D01*
X152744528Y-62612843D02*
X152744528Y-61611111D01*
X152744528Y-61611111D02*
X153221543Y-61611111D01*
X153603156Y-62565142D02*
X153746260Y-62612843D01*
X153746260Y-62612843D02*
X153984768Y-62612843D01*
X153984768Y-62612843D02*
X154080171Y-62565142D01*
X154080171Y-62565142D02*
X154127872Y-62517440D01*
X154127872Y-62517440D02*
X154175574Y-62422037D01*
X154175574Y-62422037D02*
X154175574Y-62326634D01*
X154175574Y-62326634D02*
X154127872Y-62231231D01*
X154127872Y-62231231D02*
X154080171Y-62183529D01*
X154080171Y-62183529D02*
X153984768Y-62135828D01*
X153984768Y-62135828D02*
X153793962Y-62088126D01*
X153793962Y-62088126D02*
X153698559Y-62040425D01*
X153698559Y-62040425D02*
X153650857Y-61992723D01*
X153650857Y-61992723D02*
X153603156Y-61897320D01*
X153603156Y-61897320D02*
X153603156Y-61801917D01*
X153603156Y-61801917D02*
X153650857Y-61706514D01*
X153650857Y-61706514D02*
X153698559Y-61658813D01*
X153698559Y-61658813D02*
X153793962Y-61611111D01*
X153793962Y-61611111D02*
X154032469Y-61611111D01*
X154032469Y-61611111D02*
X154175574Y-61658813D01*
X154604887Y-62612843D02*
X154604887Y-61611111D01*
X154604887Y-61611111D02*
X154986499Y-61611111D01*
X154986499Y-61611111D02*
X155081902Y-61658813D01*
X155081902Y-61658813D02*
X155129604Y-61706514D01*
X155129604Y-61706514D02*
X155177305Y-61801917D01*
X155177305Y-61801917D02*
X155177305Y-61945022D01*
X155177305Y-61945022D02*
X155129604Y-62040425D01*
X155129604Y-62040425D02*
X155081902Y-62088126D01*
X155081902Y-62088126D02*
X154986499Y-62135828D01*
X154986499Y-62135828D02*
X154604887Y-62135828D01*
X155511216Y-61611111D02*
X156131336Y-61611111D01*
X156131336Y-61611111D02*
X155797425Y-61992723D01*
X155797425Y-61992723D02*
X155940530Y-61992723D01*
X155940530Y-61992723D02*
X156035933Y-62040425D01*
X156035933Y-62040425D02*
X156083634Y-62088126D01*
X156083634Y-62088126D02*
X156131336Y-62183529D01*
X156131336Y-62183529D02*
X156131336Y-62422037D01*
X156131336Y-62422037D02*
X156083634Y-62517440D01*
X156083634Y-62517440D02*
X156035933Y-62565142D01*
X156035933Y-62565142D02*
X155940530Y-62612843D01*
X155940530Y-62612843D02*
X155654321Y-62612843D01*
X155654321Y-62612843D02*
X155558918Y-62565142D01*
X155558918Y-62565142D02*
X155511216Y-62517440D01*
X156512948Y-61706514D02*
X156560649Y-61658813D01*
X156560649Y-61658813D02*
X156656052Y-61611111D01*
X156656052Y-61611111D02*
X156894560Y-61611111D01*
X156894560Y-61611111D02*
X156989963Y-61658813D01*
X156989963Y-61658813D02*
X157037664Y-61706514D01*
X157037664Y-61706514D02*
X157085366Y-61801917D01*
X157085366Y-61801917D02*
X157085366Y-61897320D01*
X157085366Y-61897320D02*
X157037664Y-62040425D01*
X157037664Y-62040425D02*
X156465246Y-62612843D01*
X156465246Y-62612843D02*
X157085366Y-62612843D01*
X157514679Y-62231231D02*
X158277904Y-62231231D01*
X158659516Y-61611111D02*
X158898024Y-62612843D01*
X158898024Y-62612843D02*
X159088830Y-61897320D01*
X159088830Y-61897320D02*
X159279636Y-62612843D01*
X159279636Y-62612843D02*
X159518144Y-61611111D01*
X160472174Y-62612843D02*
X160138264Y-62135828D01*
X159899756Y-62612843D02*
X159899756Y-61611111D01*
X159899756Y-61611111D02*
X160281368Y-61611111D01*
X160281368Y-61611111D02*
X160376771Y-61658813D01*
X160376771Y-61658813D02*
X160424473Y-61706514D01*
X160424473Y-61706514D02*
X160472174Y-61801917D01*
X160472174Y-61801917D02*
X160472174Y-61945022D01*
X160472174Y-61945022D02*
X160424473Y-62040425D01*
X160424473Y-62040425D02*
X160376771Y-62088126D01*
X160376771Y-62088126D02*
X160281368Y-62135828D01*
X160281368Y-62135828D02*
X159899756Y-62135828D01*
X161092294Y-61611111D02*
X161283100Y-61611111D01*
X161283100Y-61611111D02*
X161378503Y-61658813D01*
X161378503Y-61658813D02*
X161473906Y-61754216D01*
X161473906Y-61754216D02*
X161521608Y-61945022D01*
X161521608Y-61945022D02*
X161521608Y-62278932D01*
X161521608Y-62278932D02*
X161473906Y-62469738D01*
X161473906Y-62469738D02*
X161378503Y-62565142D01*
X161378503Y-62565142D02*
X161283100Y-62612843D01*
X161283100Y-62612843D02*
X161092294Y-62612843D01*
X161092294Y-62612843D02*
X160996891Y-62565142D01*
X160996891Y-62565142D02*
X160901488Y-62469738D01*
X160901488Y-62469738D02*
X160853787Y-62278932D01*
X160853787Y-62278932D02*
X160853787Y-61945022D01*
X160853787Y-61945022D02*
X160901488Y-61754216D01*
X160901488Y-61754216D02*
X160996891Y-61658813D01*
X160996891Y-61658813D02*
X161092294Y-61611111D01*
X162141728Y-61611111D02*
X162332534Y-61611111D01*
X162332534Y-61611111D02*
X162427937Y-61658813D01*
X162427937Y-61658813D02*
X162523340Y-61754216D01*
X162523340Y-61754216D02*
X162571042Y-61945022D01*
X162571042Y-61945022D02*
X162571042Y-62278932D01*
X162571042Y-62278932D02*
X162523340Y-62469738D01*
X162523340Y-62469738D02*
X162427937Y-62565142D01*
X162427937Y-62565142D02*
X162332534Y-62612843D01*
X162332534Y-62612843D02*
X162141728Y-62612843D01*
X162141728Y-62612843D02*
X162046325Y-62565142D01*
X162046325Y-62565142D02*
X161950922Y-62469738D01*
X161950922Y-62469738D02*
X161903221Y-62278932D01*
X161903221Y-62278932D02*
X161903221Y-61945022D01*
X161903221Y-61945022D02*
X161950922Y-61754216D01*
X161950922Y-61754216D02*
X162046325Y-61658813D01*
X162046325Y-61658813D02*
X162141728Y-61611111D01*
X163000356Y-62612843D02*
X163000356Y-61611111D01*
X163000356Y-61611111D02*
X163334267Y-62326634D01*
X163334267Y-62326634D02*
X163668177Y-61611111D01*
X163668177Y-61611111D02*
X163668177Y-62612843D01*
X164145193Y-62231231D02*
X164908418Y-62231231D01*
X165290030Y-61611111D02*
X165910150Y-61611111D01*
X165910150Y-61611111D02*
X165576239Y-61992723D01*
X165576239Y-61992723D02*
X165719344Y-61992723D01*
X165719344Y-61992723D02*
X165814747Y-62040425D01*
X165814747Y-62040425D02*
X165862448Y-62088126D01*
X165862448Y-62088126D02*
X165910150Y-62183529D01*
X165910150Y-62183529D02*
X165910150Y-62422037D01*
X165910150Y-62422037D02*
X165862448Y-62517440D01*
X165862448Y-62517440D02*
X165814747Y-62565142D01*
X165814747Y-62565142D02*
X165719344Y-62612843D01*
X165719344Y-62612843D02*
X165433135Y-62612843D01*
X165433135Y-62612843D02*
X165337732Y-62565142D01*
X165337732Y-62565142D02*
X165290030Y-62517440D01*
X166291762Y-61706514D02*
X166339463Y-61658813D01*
X166339463Y-61658813D02*
X166434866Y-61611111D01*
X166434866Y-61611111D02*
X166673374Y-61611111D01*
X166673374Y-61611111D02*
X166768777Y-61658813D01*
X166768777Y-61658813D02*
X166816478Y-61706514D01*
X166816478Y-61706514D02*
X166864180Y-61801917D01*
X166864180Y-61801917D02*
X166864180Y-61897320D01*
X166864180Y-61897320D02*
X166816478Y-62040425D01*
X166816478Y-62040425D02*
X166244060Y-62612843D01*
X166244060Y-62612843D02*
X166864180Y-62612843D01*
X167293493Y-61611111D02*
X167293493Y-62422037D01*
X167293493Y-62422037D02*
X167341195Y-62517440D01*
X167341195Y-62517440D02*
X167388896Y-62565142D01*
X167388896Y-62565142D02*
X167484299Y-62612843D01*
X167484299Y-62612843D02*
X167675105Y-62612843D01*
X167675105Y-62612843D02*
X167770508Y-62565142D01*
X167770508Y-62565142D02*
X167818210Y-62517440D01*
X167818210Y-62517440D02*
X167865911Y-62422037D01*
X167865911Y-62422037D02*
X167865911Y-61611111D01*
X149772024Y-71137142D02*
X149772024Y-70137142D01*
X149772024Y-70137142D02*
X150105357Y-70851427D01*
X150105357Y-70851427D02*
X150438690Y-70137142D01*
X150438690Y-70137142D02*
X150438690Y-71137142D01*
X150914881Y-71137142D02*
X150914881Y-70137142D01*
X150914881Y-70137142D02*
X151248214Y-70851427D01*
X151248214Y-70851427D02*
X151581547Y-70137142D01*
X151581547Y-70137142D02*
X151581547Y-71137142D01*
X152391071Y-70613332D02*
X152533928Y-70660951D01*
X152533928Y-70660951D02*
X152581547Y-70708570D01*
X152581547Y-70708570D02*
X152629166Y-70803808D01*
X152629166Y-70803808D02*
X152629166Y-70946665D01*
X152629166Y-70946665D02*
X152581547Y-71041903D01*
X152581547Y-71041903D02*
X152533928Y-71089523D01*
X152533928Y-71089523D02*
X152438690Y-71137142D01*
X152438690Y-71137142D02*
X152057738Y-71137142D01*
X152057738Y-71137142D02*
X152057738Y-70137142D01*
X152057738Y-70137142D02*
X152391071Y-70137142D01*
X152391071Y-70137142D02*
X152486309Y-70184761D01*
X152486309Y-70184761D02*
X152533928Y-70232380D01*
X152533928Y-70232380D02*
X152581547Y-70327618D01*
X152581547Y-70327618D02*
X152581547Y-70422856D01*
X152581547Y-70422856D02*
X152533928Y-70518094D01*
X152533928Y-70518094D02*
X152486309Y-70565713D01*
X152486309Y-70565713D02*
X152391071Y-70613332D01*
X152391071Y-70613332D02*
X152057738Y-70613332D01*
X152914881Y-70137142D02*
X153486309Y-70137142D01*
X153200595Y-71137142D02*
X153200595Y-70137142D01*
X153724405Y-70137142D02*
X154343452Y-70137142D01*
X154343452Y-70137142D02*
X154010119Y-70518094D01*
X154010119Y-70518094D02*
X154152976Y-70518094D01*
X154152976Y-70518094D02*
X154248214Y-70565713D01*
X154248214Y-70565713D02*
X154295833Y-70613332D01*
X154295833Y-70613332D02*
X154343452Y-70708570D01*
X154343452Y-70708570D02*
X154343452Y-70946665D01*
X154343452Y-70946665D02*
X154295833Y-71041903D01*
X154295833Y-71041903D02*
X154248214Y-71089523D01*
X154248214Y-71089523D02*
X154152976Y-71137142D01*
X154152976Y-71137142D02*
X153867262Y-71137142D01*
X153867262Y-71137142D02*
X153772024Y-71089523D01*
X153772024Y-71089523D02*
X153724405Y-71041903D01*
X154819643Y-71137142D02*
X155010119Y-71137142D01*
X155010119Y-71137142D02*
X155105357Y-71089523D01*
X155105357Y-71089523D02*
X155152976Y-71041903D01*
X155152976Y-71041903D02*
X155248214Y-70899046D01*
X155248214Y-70899046D02*
X155295833Y-70708570D01*
X155295833Y-70708570D02*
X155295833Y-70327618D01*
X155295833Y-70327618D02*
X155248214Y-70232380D01*
X155248214Y-70232380D02*
X155200595Y-70184761D01*
X155200595Y-70184761D02*
X155105357Y-70137142D01*
X155105357Y-70137142D02*
X154914881Y-70137142D01*
X154914881Y-70137142D02*
X154819643Y-70184761D01*
X154819643Y-70184761D02*
X154772024Y-70232380D01*
X154772024Y-70232380D02*
X154724405Y-70327618D01*
X154724405Y-70327618D02*
X154724405Y-70565713D01*
X154724405Y-70565713D02*
X154772024Y-70660951D01*
X154772024Y-70660951D02*
X154819643Y-70708570D01*
X154819643Y-70708570D02*
X154914881Y-70756189D01*
X154914881Y-70756189D02*
X155105357Y-70756189D01*
X155105357Y-70756189D02*
X155200595Y-70708570D01*
X155200595Y-70708570D02*
X155248214Y-70660951D01*
X155248214Y-70660951D02*
X155295833Y-70565713D01*
X155914881Y-70137142D02*
X156010119Y-70137142D01*
X156010119Y-70137142D02*
X156105357Y-70184761D01*
X156105357Y-70184761D02*
X156152976Y-70232380D01*
X156152976Y-70232380D02*
X156200595Y-70327618D01*
X156200595Y-70327618D02*
X156248214Y-70518094D01*
X156248214Y-70518094D02*
X156248214Y-70756189D01*
X156248214Y-70756189D02*
X156200595Y-70946665D01*
X156200595Y-70946665D02*
X156152976Y-71041903D01*
X156152976Y-71041903D02*
X156105357Y-71089523D01*
X156105357Y-71089523D02*
X156010119Y-71137142D01*
X156010119Y-71137142D02*
X155914881Y-71137142D01*
X155914881Y-71137142D02*
X155819643Y-71089523D01*
X155819643Y-71089523D02*
X155772024Y-71041903D01*
X155772024Y-71041903D02*
X155724405Y-70946665D01*
X155724405Y-70946665D02*
X155676786Y-70756189D01*
X155676786Y-70756189D02*
X155676786Y-70518094D01*
X155676786Y-70518094D02*
X155724405Y-70327618D01*
X155724405Y-70327618D02*
X155772024Y-70232380D01*
X155772024Y-70232380D02*
X155819643Y-70184761D01*
X155819643Y-70184761D02*
X155914881Y-70137142D01*
X157105357Y-70470475D02*
X157105357Y-71137142D01*
X156867262Y-70089523D02*
X156629167Y-70803808D01*
X156629167Y-70803808D02*
X157248214Y-70803808D01*
D15*
X152296785Y-68427761D02*
X152296785Y-68107761D01*
X152510118Y-68107761D02*
X152571071Y-68107761D01*
X152571071Y-68107761D02*
X152601547Y-68122999D01*
X152601547Y-68122999D02*
X152632023Y-68153475D01*
X152632023Y-68153475D02*
X152647261Y-68214427D01*
X152647261Y-68214427D02*
X152647261Y-68321094D01*
X152647261Y-68321094D02*
X152632023Y-68382046D01*
X152632023Y-68382046D02*
X152601547Y-68412523D01*
X152601547Y-68412523D02*
X152571071Y-68427761D01*
X152571071Y-68427761D02*
X152510118Y-68427761D01*
X152510118Y-68427761D02*
X152479642Y-68412523D01*
X152479642Y-68412523D02*
X152449166Y-68382046D01*
X152449166Y-68382046D02*
X152433928Y-68321094D01*
X152433928Y-68321094D02*
X152433928Y-68214427D01*
X152433928Y-68214427D02*
X152449166Y-68153475D01*
X152449166Y-68153475D02*
X152479642Y-68122999D01*
X152479642Y-68122999D02*
X152510118Y-68107761D01*
X152845356Y-68107761D02*
X152875833Y-68107761D01*
X152875833Y-68107761D02*
X152906309Y-68122999D01*
X152906309Y-68122999D02*
X152921547Y-68138237D01*
X152921547Y-68138237D02*
X152936785Y-68168713D01*
X152936785Y-68168713D02*
X152952023Y-68229665D01*
X152952023Y-68229665D02*
X152952023Y-68305856D01*
X152952023Y-68305856D02*
X152936785Y-68366808D01*
X152936785Y-68366808D02*
X152921547Y-68397284D01*
X152921547Y-68397284D02*
X152906309Y-68412523D01*
X152906309Y-68412523D02*
X152875833Y-68427761D01*
X152875833Y-68427761D02*
X152845356Y-68427761D01*
X152845356Y-68427761D02*
X152814880Y-68412523D01*
X152814880Y-68412523D02*
X152799642Y-68397284D01*
X152799642Y-68397284D02*
X152784404Y-68366808D01*
X152784404Y-68366808D02*
X152769166Y-68305856D01*
X152769166Y-68305856D02*
X152769166Y-68229665D01*
X152769166Y-68229665D02*
X152784404Y-68168713D01*
X152784404Y-68168713D02*
X152799642Y-68138237D01*
X152799642Y-68138237D02*
X152814880Y-68122999D01*
X152814880Y-68122999D02*
X152845356Y-68107761D01*
X153012976Y-68458237D02*
X153256785Y-68458237D01*
X153515833Y-68397284D02*
X153500595Y-68412523D01*
X153500595Y-68412523D02*
X153454881Y-68427761D01*
X153454881Y-68427761D02*
X153424405Y-68427761D01*
X153424405Y-68427761D02*
X153378690Y-68412523D01*
X153378690Y-68412523D02*
X153348214Y-68382046D01*
X153348214Y-68382046D02*
X153332976Y-68351570D01*
X153332976Y-68351570D02*
X153317738Y-68290618D01*
X153317738Y-68290618D02*
X153317738Y-68244903D01*
X153317738Y-68244903D02*
X153332976Y-68183951D01*
X153332976Y-68183951D02*
X153348214Y-68153475D01*
X153348214Y-68153475D02*
X153378690Y-68122999D01*
X153378690Y-68122999D02*
X153424405Y-68107761D01*
X153424405Y-68107761D02*
X153454881Y-68107761D01*
X153454881Y-68107761D02*
X153500595Y-68122999D01*
X153500595Y-68122999D02*
X153515833Y-68138237D01*
X153607262Y-68107761D02*
X153790119Y-68107761D01*
X153698690Y-68427761D02*
X153698690Y-68107761D01*
X154079643Y-68427761D02*
X153972976Y-68275380D01*
X153896786Y-68427761D02*
X153896786Y-68107761D01*
X153896786Y-68107761D02*
X154018691Y-68107761D01*
X154018691Y-68107761D02*
X154049167Y-68122999D01*
X154049167Y-68122999D02*
X154064405Y-68138237D01*
X154064405Y-68138237D02*
X154079643Y-68168713D01*
X154079643Y-68168713D02*
X154079643Y-68214427D01*
X154079643Y-68214427D02*
X154064405Y-68244903D01*
X154064405Y-68244903D02*
X154049167Y-68260142D01*
X154049167Y-68260142D02*
X154018691Y-68275380D01*
X154018691Y-68275380D02*
X153896786Y-68275380D01*
X154369167Y-68427761D02*
X154216786Y-68427761D01*
X154216786Y-68427761D02*
X154216786Y-68107761D01*
X154643453Y-68427761D02*
X154460596Y-68427761D01*
X154552024Y-68427761D02*
X154552024Y-68107761D01*
X154552024Y-68107761D02*
X154521548Y-68153475D01*
X154521548Y-68153475D02*
X154491072Y-68183951D01*
X154491072Y-68183951D02*
X154460596Y-68199189D01*
D10*
X156272024Y-71137142D02*
X156272024Y-70137142D01*
X156272024Y-70137142D02*
X156605357Y-70851427D01*
X156605357Y-70851427D02*
X156938690Y-70137142D01*
X156938690Y-70137142D02*
X156938690Y-71137142D01*
X157414881Y-71137142D02*
X157414881Y-70137142D01*
X157414881Y-70137142D02*
X157748214Y-70851427D01*
X157748214Y-70851427D02*
X158081547Y-70137142D01*
X158081547Y-70137142D02*
X158081547Y-71137142D01*
X158891071Y-70613332D02*
X159033928Y-70660951D01*
X159033928Y-70660951D02*
X159081547Y-70708570D01*
X159081547Y-70708570D02*
X159129166Y-70803808D01*
X159129166Y-70803808D02*
X159129166Y-70946665D01*
X159129166Y-70946665D02*
X159081547Y-71041903D01*
X159081547Y-71041903D02*
X159033928Y-71089523D01*
X159033928Y-71089523D02*
X158938690Y-71137142D01*
X158938690Y-71137142D02*
X158557738Y-71137142D01*
X158557738Y-71137142D02*
X158557738Y-70137142D01*
X158557738Y-70137142D02*
X158891071Y-70137142D01*
X158891071Y-70137142D02*
X158986309Y-70184761D01*
X158986309Y-70184761D02*
X159033928Y-70232380D01*
X159033928Y-70232380D02*
X159081547Y-70327618D01*
X159081547Y-70327618D02*
X159081547Y-70422856D01*
X159081547Y-70422856D02*
X159033928Y-70518094D01*
X159033928Y-70518094D02*
X158986309Y-70565713D01*
X158986309Y-70565713D02*
X158891071Y-70613332D01*
X158891071Y-70613332D02*
X158557738Y-70613332D01*
X159414881Y-70137142D02*
X159986309Y-70137142D01*
X159700595Y-71137142D02*
X159700595Y-70137142D01*
X160224405Y-70137142D02*
X160843452Y-70137142D01*
X160843452Y-70137142D02*
X160510119Y-70518094D01*
X160510119Y-70518094D02*
X160652976Y-70518094D01*
X160652976Y-70518094D02*
X160748214Y-70565713D01*
X160748214Y-70565713D02*
X160795833Y-70613332D01*
X160795833Y-70613332D02*
X160843452Y-70708570D01*
X160843452Y-70708570D02*
X160843452Y-70946665D01*
X160843452Y-70946665D02*
X160795833Y-71041903D01*
X160795833Y-71041903D02*
X160748214Y-71089523D01*
X160748214Y-71089523D02*
X160652976Y-71137142D01*
X160652976Y-71137142D02*
X160367262Y-71137142D01*
X160367262Y-71137142D02*
X160272024Y-71089523D01*
X160272024Y-71089523D02*
X160224405Y-71041903D01*
X161319643Y-71137142D02*
X161510119Y-71137142D01*
X161510119Y-71137142D02*
X161605357Y-71089523D01*
X161605357Y-71089523D02*
X161652976Y-71041903D01*
X161652976Y-71041903D02*
X161748214Y-70899046D01*
X161748214Y-70899046D02*
X161795833Y-70708570D01*
X161795833Y-70708570D02*
X161795833Y-70327618D01*
X161795833Y-70327618D02*
X161748214Y-70232380D01*
X161748214Y-70232380D02*
X161700595Y-70184761D01*
X161700595Y-70184761D02*
X161605357Y-70137142D01*
X161605357Y-70137142D02*
X161414881Y-70137142D01*
X161414881Y-70137142D02*
X161319643Y-70184761D01*
X161319643Y-70184761D02*
X161272024Y-70232380D01*
X161272024Y-70232380D02*
X161224405Y-70327618D01*
X161224405Y-70327618D02*
X161224405Y-70565713D01*
X161224405Y-70565713D02*
X161272024Y-70660951D01*
X161272024Y-70660951D02*
X161319643Y-70708570D01*
X161319643Y-70708570D02*
X161414881Y-70756189D01*
X161414881Y-70756189D02*
X161605357Y-70756189D01*
X161605357Y-70756189D02*
X161700595Y-70708570D01*
X161700595Y-70708570D02*
X161748214Y-70660951D01*
X161748214Y-70660951D02*
X161795833Y-70565713D01*
X162414881Y-70137142D02*
X162510119Y-70137142D01*
X162510119Y-70137142D02*
X162605357Y-70184761D01*
X162605357Y-70184761D02*
X162652976Y-70232380D01*
X162652976Y-70232380D02*
X162700595Y-70327618D01*
X162700595Y-70327618D02*
X162748214Y-70518094D01*
X162748214Y-70518094D02*
X162748214Y-70756189D01*
X162748214Y-70756189D02*
X162700595Y-70946665D01*
X162700595Y-70946665D02*
X162652976Y-71041903D01*
X162652976Y-71041903D02*
X162605357Y-71089523D01*
X162605357Y-71089523D02*
X162510119Y-71137142D01*
X162510119Y-71137142D02*
X162414881Y-71137142D01*
X162414881Y-71137142D02*
X162319643Y-71089523D01*
X162319643Y-71089523D02*
X162272024Y-71041903D01*
X162272024Y-71041903D02*
X162224405Y-70946665D01*
X162224405Y-70946665D02*
X162176786Y-70756189D01*
X162176786Y-70756189D02*
X162176786Y-70518094D01*
X162176786Y-70518094D02*
X162224405Y-70327618D01*
X162224405Y-70327618D02*
X162272024Y-70232380D01*
X162272024Y-70232380D02*
X162319643Y-70184761D01*
X162319643Y-70184761D02*
X162414881Y-70137142D01*
X163605357Y-70470475D02*
X163605357Y-71137142D01*
X163367262Y-70089523D02*
X163129167Y-70803808D01*
X163129167Y-70803808D02*
X163748214Y-70803808D01*
D15*
X158880594Y-68260142D02*
X158987261Y-68260142D01*
X159032975Y-68427761D02*
X158880594Y-68427761D01*
X158880594Y-68427761D02*
X158880594Y-68107761D01*
X158880594Y-68107761D02*
X159032975Y-68107761D01*
X159170118Y-68427761D02*
X159170118Y-68107761D01*
X159170118Y-68107761D02*
X159352975Y-68427761D01*
X159352975Y-68427761D02*
X159352975Y-68107761D01*
X159429166Y-68458237D02*
X159672975Y-68458237D01*
X159932023Y-68397284D02*
X159916785Y-68412523D01*
X159916785Y-68412523D02*
X159871071Y-68427761D01*
X159871071Y-68427761D02*
X159840595Y-68427761D01*
X159840595Y-68427761D02*
X159794880Y-68412523D01*
X159794880Y-68412523D02*
X159764404Y-68382046D01*
X159764404Y-68382046D02*
X159749166Y-68351570D01*
X159749166Y-68351570D02*
X159733928Y-68290618D01*
X159733928Y-68290618D02*
X159733928Y-68244903D01*
X159733928Y-68244903D02*
X159749166Y-68183951D01*
X159749166Y-68183951D02*
X159764404Y-68153475D01*
X159764404Y-68153475D02*
X159794880Y-68122999D01*
X159794880Y-68122999D02*
X159840595Y-68107761D01*
X159840595Y-68107761D02*
X159871071Y-68107761D01*
X159871071Y-68107761D02*
X159916785Y-68122999D01*
X159916785Y-68122999D02*
X159932023Y-68138237D01*
X160023452Y-68107761D02*
X160206309Y-68107761D01*
X160114880Y-68427761D02*
X160114880Y-68107761D01*
X160495833Y-68427761D02*
X160389166Y-68275380D01*
X160312976Y-68427761D02*
X160312976Y-68107761D01*
X160312976Y-68107761D02*
X160434881Y-68107761D01*
X160434881Y-68107761D02*
X160465357Y-68122999D01*
X160465357Y-68122999D02*
X160480595Y-68138237D01*
X160480595Y-68138237D02*
X160495833Y-68168713D01*
X160495833Y-68168713D02*
X160495833Y-68214427D01*
X160495833Y-68214427D02*
X160480595Y-68244903D01*
X160480595Y-68244903D02*
X160465357Y-68260142D01*
X160465357Y-68260142D02*
X160434881Y-68275380D01*
X160434881Y-68275380D02*
X160312976Y-68275380D01*
X160785357Y-68427761D02*
X160632976Y-68427761D01*
X160632976Y-68427761D02*
X160632976Y-68107761D01*
X161059643Y-68427761D02*
X160876786Y-68427761D01*
X160968214Y-68427761D02*
X160968214Y-68107761D01*
X160968214Y-68107761D02*
X160937738Y-68153475D01*
X160937738Y-68153475D02*
X160907262Y-68183951D01*
X160907262Y-68183951D02*
X160876786Y-68199189D01*
D10*
X157509524Y-105087142D02*
X157509524Y-104087142D01*
X157509524Y-104087142D02*
X157842857Y-104801427D01*
X157842857Y-104801427D02*
X158176190Y-104087142D01*
X158176190Y-104087142D02*
X158176190Y-105087142D01*
X158795238Y-105087142D02*
X158700000Y-105039523D01*
X158700000Y-105039523D02*
X158652381Y-104991903D01*
X158652381Y-104991903D02*
X158604762Y-104896665D01*
X158604762Y-104896665D02*
X158604762Y-104610951D01*
X158604762Y-104610951D02*
X158652381Y-104515713D01*
X158652381Y-104515713D02*
X158700000Y-104468094D01*
X158700000Y-104468094D02*
X158795238Y-104420475D01*
X158795238Y-104420475D02*
X158938095Y-104420475D01*
X158938095Y-104420475D02*
X159033333Y-104468094D01*
X159033333Y-104468094D02*
X159080952Y-104515713D01*
X159080952Y-104515713D02*
X159128571Y-104610951D01*
X159128571Y-104610951D02*
X159128571Y-104896665D01*
X159128571Y-104896665D02*
X159080952Y-104991903D01*
X159080952Y-104991903D02*
X159033333Y-105039523D01*
X159033333Y-105039523D02*
X158938095Y-105087142D01*
X158938095Y-105087142D02*
X158795238Y-105087142D01*
X159985714Y-104420475D02*
X159985714Y-105087142D01*
X159557143Y-104420475D02*
X159557143Y-104944284D01*
X159557143Y-104944284D02*
X159604762Y-105039523D01*
X159604762Y-105039523D02*
X159700000Y-105087142D01*
X159700000Y-105087142D02*
X159842857Y-105087142D01*
X159842857Y-105087142D02*
X159938095Y-105039523D01*
X159938095Y-105039523D02*
X159985714Y-104991903D01*
X160461905Y-104420475D02*
X160461905Y-105087142D01*
X160461905Y-104515713D02*
X160509524Y-104468094D01*
X160509524Y-104468094D02*
X160604762Y-104420475D01*
X160604762Y-104420475D02*
X160747619Y-104420475D01*
X160747619Y-104420475D02*
X160842857Y-104468094D01*
X160842857Y-104468094D02*
X160890476Y-104563332D01*
X160890476Y-104563332D02*
X160890476Y-105087142D01*
X161223810Y-104420475D02*
X161604762Y-104420475D01*
X161366667Y-104087142D02*
X161366667Y-104944284D01*
X161366667Y-104944284D02*
X161414286Y-105039523D01*
X161414286Y-105039523D02*
X161509524Y-105087142D01*
X161509524Y-105087142D02*
X161604762Y-105087142D01*
X161938096Y-105087142D02*
X161938096Y-104420475D01*
X161938096Y-104087142D02*
X161890477Y-104134761D01*
X161890477Y-104134761D02*
X161938096Y-104182380D01*
X161938096Y-104182380D02*
X161985715Y-104134761D01*
X161985715Y-104134761D02*
X161938096Y-104087142D01*
X161938096Y-104087142D02*
X161938096Y-104182380D01*
X162414286Y-104420475D02*
X162414286Y-105087142D01*
X162414286Y-104515713D02*
X162461905Y-104468094D01*
X162461905Y-104468094D02*
X162557143Y-104420475D01*
X162557143Y-104420475D02*
X162700000Y-104420475D01*
X162700000Y-104420475D02*
X162795238Y-104468094D01*
X162795238Y-104468094D02*
X162842857Y-104563332D01*
X162842857Y-104563332D02*
X162842857Y-105087142D01*
X163747619Y-104420475D02*
X163747619Y-105229999D01*
X163747619Y-105229999D02*
X163700000Y-105325237D01*
X163700000Y-105325237D02*
X163652381Y-105372856D01*
X163652381Y-105372856D02*
X163557143Y-105420475D01*
X163557143Y-105420475D02*
X163414286Y-105420475D01*
X163414286Y-105420475D02*
X163319048Y-105372856D01*
X163747619Y-105039523D02*
X163652381Y-105087142D01*
X163652381Y-105087142D02*
X163461905Y-105087142D01*
X163461905Y-105087142D02*
X163366667Y-105039523D01*
X163366667Y-105039523D02*
X163319048Y-104991903D01*
X163319048Y-104991903D02*
X163271429Y-104896665D01*
X163271429Y-104896665D02*
X163271429Y-104610951D01*
X163271429Y-104610951D02*
X163319048Y-104515713D01*
X163319048Y-104515713D02*
X163366667Y-104468094D01*
X163366667Y-104468094D02*
X163461905Y-104420475D01*
X163461905Y-104420475D02*
X163652381Y-104420475D01*
X163652381Y-104420475D02*
X163747619Y-104468094D01*
X164223810Y-105087142D02*
X164223810Y-104087142D01*
X164223810Y-104563332D02*
X164795238Y-104563332D01*
X164795238Y-105087142D02*
X164795238Y-104087142D01*
X165414286Y-105087142D02*
X165319048Y-105039523D01*
X165319048Y-105039523D02*
X165271429Y-104991903D01*
X165271429Y-104991903D02*
X165223810Y-104896665D01*
X165223810Y-104896665D02*
X165223810Y-104610951D01*
X165223810Y-104610951D02*
X165271429Y-104515713D01*
X165271429Y-104515713D02*
X165319048Y-104468094D01*
X165319048Y-104468094D02*
X165414286Y-104420475D01*
X165414286Y-104420475D02*
X165557143Y-104420475D01*
X165557143Y-104420475D02*
X165652381Y-104468094D01*
X165652381Y-104468094D02*
X165700000Y-104515713D01*
X165700000Y-104515713D02*
X165747619Y-104610951D01*
X165747619Y-104610951D02*
X165747619Y-104896665D01*
X165747619Y-104896665D02*
X165700000Y-104991903D01*
X165700000Y-104991903D02*
X165652381Y-105039523D01*
X165652381Y-105039523D02*
X165557143Y-105087142D01*
X165557143Y-105087142D02*
X165414286Y-105087142D01*
X166319048Y-105087142D02*
X166223810Y-105039523D01*
X166223810Y-105039523D02*
X166176191Y-104944284D01*
X166176191Y-104944284D02*
X166176191Y-104087142D01*
X167080953Y-105039523D02*
X166985715Y-105087142D01*
X166985715Y-105087142D02*
X166795239Y-105087142D01*
X166795239Y-105087142D02*
X166700001Y-105039523D01*
X166700001Y-105039523D02*
X166652382Y-104944284D01*
X166652382Y-104944284D02*
X166652382Y-104563332D01*
X166652382Y-104563332D02*
X166700001Y-104468094D01*
X166700001Y-104468094D02*
X166795239Y-104420475D01*
X166795239Y-104420475D02*
X166985715Y-104420475D01*
X166985715Y-104420475D02*
X167080953Y-104468094D01*
X167080953Y-104468094D02*
X167128572Y-104563332D01*
X167128572Y-104563332D02*
X167128572Y-104658570D01*
X167128572Y-104658570D02*
X166652382Y-104753808D01*
X167319049Y-105182380D02*
X168080953Y-105182380D01*
X168271430Y-104182380D02*
X168319049Y-104134761D01*
X168319049Y-104134761D02*
X168414287Y-104087142D01*
X168414287Y-104087142D02*
X168652382Y-104087142D01*
X168652382Y-104087142D02*
X168747620Y-104134761D01*
X168747620Y-104134761D02*
X168795239Y-104182380D01*
X168795239Y-104182380D02*
X168842858Y-104277618D01*
X168842858Y-104277618D02*
X168842858Y-104372856D01*
X168842858Y-104372856D02*
X168795239Y-104515713D01*
X168795239Y-104515713D02*
X168223811Y-105087142D01*
X168223811Y-105087142D02*
X168842858Y-105087142D01*
X169271430Y-104991903D02*
X169319049Y-105039523D01*
X169319049Y-105039523D02*
X169271430Y-105087142D01*
X169271430Y-105087142D02*
X169223811Y-105039523D01*
X169223811Y-105039523D02*
X169271430Y-104991903D01*
X169271430Y-104991903D02*
X169271430Y-105087142D01*
X170271429Y-105087142D02*
X169700001Y-105087142D01*
X169985715Y-105087142D02*
X169985715Y-104087142D01*
X169985715Y-104087142D02*
X169890477Y-104229999D01*
X169890477Y-104229999D02*
X169795239Y-104325237D01*
X169795239Y-104325237D02*
X169700001Y-104372856D01*
X170700001Y-105087142D02*
X170700001Y-104420475D01*
X170700001Y-104515713D02*
X170747620Y-104468094D01*
X170747620Y-104468094D02*
X170842858Y-104420475D01*
X170842858Y-104420475D02*
X170985715Y-104420475D01*
X170985715Y-104420475D02*
X171080953Y-104468094D01*
X171080953Y-104468094D02*
X171128572Y-104563332D01*
X171128572Y-104563332D02*
X171128572Y-105087142D01*
X171128572Y-104563332D02*
X171176191Y-104468094D01*
X171176191Y-104468094D02*
X171271429Y-104420475D01*
X171271429Y-104420475D02*
X171414286Y-104420475D01*
X171414286Y-104420475D02*
X171509525Y-104468094D01*
X171509525Y-104468094D02*
X171557144Y-104563332D01*
X171557144Y-104563332D02*
X171557144Y-105087142D01*
X172033334Y-105087142D02*
X172033334Y-104420475D01*
X172033334Y-104515713D02*
X172080953Y-104468094D01*
X172080953Y-104468094D02*
X172176191Y-104420475D01*
X172176191Y-104420475D02*
X172319048Y-104420475D01*
X172319048Y-104420475D02*
X172414286Y-104468094D01*
X172414286Y-104468094D02*
X172461905Y-104563332D01*
X172461905Y-104563332D02*
X172461905Y-105087142D01*
X172461905Y-104563332D02*
X172509524Y-104468094D01*
X172509524Y-104468094D02*
X172604762Y-104420475D01*
X172604762Y-104420475D02*
X172747619Y-104420475D01*
X172747619Y-104420475D02*
X172842858Y-104468094D01*
X172842858Y-104468094D02*
X172890477Y-104563332D01*
X172890477Y-104563332D02*
X172890477Y-105087142D01*
X164438095Y-101887142D02*
X164438095Y-100887142D01*
X164438095Y-101363332D02*
X165009523Y-101363332D01*
X165009523Y-101887142D02*
X165009523Y-100887142D01*
X165914285Y-101220475D02*
X165914285Y-101887142D01*
X165676190Y-100839523D02*
X165438095Y-101553808D01*
X165438095Y-101553808D02*
X166057142Y-101553808D01*
X142161904Y-44408152D02*
X142161904Y-45074819D01*
X141923809Y-44027200D02*
X141685714Y-44741485D01*
X141685714Y-44741485D02*
X142304761Y-44741485D01*
X142590476Y-44074819D02*
X143257142Y-44074819D01*
X143257142Y-44074819D02*
X142828571Y-45074819D01*
X143638095Y-44408152D02*
X143638095Y-45408152D01*
X144114285Y-44931961D02*
X144161904Y-45027200D01*
X144161904Y-45027200D02*
X144257142Y-45074819D01*
X143638095Y-44931961D02*
X143685714Y-45027200D01*
X143685714Y-45027200D02*
X143780952Y-45074819D01*
X143780952Y-45074819D02*
X143971428Y-45074819D01*
X143971428Y-45074819D02*
X144066666Y-45027200D01*
X144066666Y-45027200D02*
X144114285Y-44931961D01*
X144114285Y-44931961D02*
X144114285Y-44408152D01*
X145019047Y-44551009D02*
X144685714Y-44551009D01*
X144685714Y-45074819D02*
X144685714Y-44074819D01*
X144685714Y-44074819D02*
X145161904Y-44074819D01*
D11*
X142602380Y-46479530D02*
X142578571Y-46503340D01*
X142578571Y-46503340D02*
X142507142Y-46527149D01*
X142507142Y-46527149D02*
X142459523Y-46527149D01*
X142459523Y-46527149D02*
X142388095Y-46503340D01*
X142388095Y-46503340D02*
X142340476Y-46455720D01*
X142340476Y-46455720D02*
X142316666Y-46408101D01*
X142316666Y-46408101D02*
X142292857Y-46312863D01*
X142292857Y-46312863D02*
X142292857Y-46241435D01*
X142292857Y-46241435D02*
X142316666Y-46146197D01*
X142316666Y-46146197D02*
X142340476Y-46098578D01*
X142340476Y-46098578D02*
X142388095Y-46050959D01*
X142388095Y-46050959D02*
X142459523Y-46027149D01*
X142459523Y-46027149D02*
X142507142Y-46027149D01*
X142507142Y-46027149D02*
X142578571Y-46050959D01*
X142578571Y-46050959D02*
X142602380Y-46074768D01*
X142911904Y-46027149D02*
X143007142Y-46027149D01*
X143007142Y-46027149D02*
X143054761Y-46050959D01*
X143054761Y-46050959D02*
X143102380Y-46098578D01*
X143102380Y-46098578D02*
X143126190Y-46193816D01*
X143126190Y-46193816D02*
X143126190Y-46360482D01*
X143126190Y-46360482D02*
X143102380Y-46455720D01*
X143102380Y-46455720D02*
X143054761Y-46503340D01*
X143054761Y-46503340D02*
X143007142Y-46527149D01*
X143007142Y-46527149D02*
X142911904Y-46527149D01*
X142911904Y-46527149D02*
X142864285Y-46503340D01*
X142864285Y-46503340D02*
X142816666Y-46455720D01*
X142816666Y-46455720D02*
X142792857Y-46360482D01*
X142792857Y-46360482D02*
X142792857Y-46193816D01*
X142792857Y-46193816D02*
X142816666Y-46098578D01*
X142816666Y-46098578D02*
X142864285Y-46050959D01*
X142864285Y-46050959D02*
X142911904Y-46027149D01*
X143340476Y-46027149D02*
X143340476Y-46431911D01*
X143340476Y-46431911D02*
X143364286Y-46479530D01*
X143364286Y-46479530D02*
X143388095Y-46503340D01*
X143388095Y-46503340D02*
X143435714Y-46527149D01*
X143435714Y-46527149D02*
X143530952Y-46527149D01*
X143530952Y-46527149D02*
X143578571Y-46503340D01*
X143578571Y-46503340D02*
X143602381Y-46479530D01*
X143602381Y-46479530D02*
X143626190Y-46431911D01*
X143626190Y-46431911D02*
X143626190Y-46027149D01*
X143792858Y-46027149D02*
X144078572Y-46027149D01*
X143935715Y-46527149D02*
X143935715Y-46027149D01*
X144507143Y-46527149D02*
X144221429Y-46527149D01*
X144364286Y-46527149D02*
X144364286Y-46027149D01*
X144364286Y-46027149D02*
X144316667Y-46098578D01*
X144316667Y-46098578D02*
X144269048Y-46146197D01*
X144269048Y-46146197D02*
X144221429Y-46170006D01*
D10*
X159924819Y-63948989D02*
X159924819Y-64520417D01*
X159924819Y-64234703D02*
X158924819Y-64234703D01*
X158924819Y-64234703D02*
X159067676Y-64329941D01*
X159067676Y-64329941D02*
X159162914Y-64425179D01*
X159162914Y-64425179D02*
X159210533Y-64520417D01*
X159258152Y-63520417D02*
X160258152Y-63520417D01*
X159781961Y-63044227D02*
X159877200Y-62996608D01*
X159877200Y-62996608D02*
X159924819Y-62901370D01*
X159781961Y-63520417D02*
X159877200Y-63472798D01*
X159877200Y-63472798D02*
X159924819Y-63377560D01*
X159924819Y-63377560D02*
X159924819Y-63187084D01*
X159924819Y-63187084D02*
X159877200Y-63091846D01*
X159877200Y-63091846D02*
X159781961Y-63044227D01*
X159781961Y-63044227D02*
X159258152Y-63044227D01*
X159401009Y-62139465D02*
X159401009Y-62472798D01*
X159924819Y-62472798D02*
X158924819Y-62472798D01*
X158924819Y-62472798D02*
X158924819Y-61996608D01*
D12*
X161043832Y-63348989D02*
X161062880Y-63368037D01*
X161062880Y-63368037D02*
X161081927Y-63425179D01*
X161081927Y-63425179D02*
X161081927Y-63463275D01*
X161081927Y-63463275D02*
X161062880Y-63520418D01*
X161062880Y-63520418D02*
X161024784Y-63558513D01*
X161024784Y-63558513D02*
X160986689Y-63577560D01*
X160986689Y-63577560D02*
X160910499Y-63596608D01*
X160910499Y-63596608D02*
X160853356Y-63596608D01*
X160853356Y-63596608D02*
X160777165Y-63577560D01*
X160777165Y-63577560D02*
X160739070Y-63558513D01*
X160739070Y-63558513D02*
X160700975Y-63520418D01*
X160700975Y-63520418D02*
X160681927Y-63463275D01*
X160681927Y-63463275D02*
X160681927Y-63425179D01*
X160681927Y-63425179D02*
X160700975Y-63368037D01*
X160700975Y-63368037D02*
X160720022Y-63348989D01*
X160815260Y-63006132D02*
X161081927Y-63006132D01*
X160662880Y-63101370D02*
X160948594Y-63196608D01*
X160948594Y-63196608D02*
X160948594Y-62948989D01*
D10*
X144430057Y-65514285D02*
X144382438Y-65466666D01*
X144382438Y-65466666D02*
X144334819Y-65371428D01*
X144334819Y-65371428D02*
X144334819Y-65133333D01*
X144334819Y-65133333D02*
X144382438Y-65038095D01*
X144382438Y-65038095D02*
X144430057Y-64990476D01*
X144430057Y-64990476D02*
X144525295Y-64942857D01*
X144525295Y-64942857D02*
X144620533Y-64942857D01*
X144620533Y-64942857D02*
X144763390Y-64990476D01*
X144763390Y-64990476D02*
X145334819Y-65561904D01*
X145334819Y-65561904D02*
X145334819Y-64942857D01*
X144430057Y-64561904D02*
X144382438Y-64514285D01*
X144382438Y-64514285D02*
X144334819Y-64419047D01*
X144334819Y-64419047D02*
X144334819Y-64180952D01*
X144334819Y-64180952D02*
X144382438Y-64085714D01*
X144382438Y-64085714D02*
X144430057Y-64038095D01*
X144430057Y-64038095D02*
X144525295Y-63990476D01*
X144525295Y-63990476D02*
X144620533Y-63990476D01*
X144620533Y-63990476D02*
X144763390Y-64038095D01*
X144763390Y-64038095D02*
X145334819Y-64609523D01*
X145334819Y-64609523D02*
X145334819Y-63990476D01*
X144668152Y-63561904D02*
X145668152Y-63561904D01*
X145191961Y-63085714D02*
X145287200Y-63038095D01*
X145287200Y-63038095D02*
X145334819Y-62942857D01*
X145191961Y-63561904D02*
X145287200Y-63514285D01*
X145287200Y-63514285D02*
X145334819Y-63419047D01*
X145334819Y-63419047D02*
X145334819Y-63228571D01*
X145334819Y-63228571D02*
X145287200Y-63133333D01*
X145287200Y-63133333D02*
X145191961Y-63085714D01*
X145191961Y-63085714D02*
X144668152Y-63085714D01*
X144811009Y-62180952D02*
X144811009Y-62514285D01*
X145334819Y-62514285D02*
X144334819Y-62514285D01*
X144334819Y-62514285D02*
X144334819Y-62038095D01*
D11*
X143379530Y-64264285D02*
X143403340Y-64288094D01*
X143403340Y-64288094D02*
X143427149Y-64359523D01*
X143427149Y-64359523D02*
X143427149Y-64407142D01*
X143427149Y-64407142D02*
X143403340Y-64478570D01*
X143403340Y-64478570D02*
X143355720Y-64526189D01*
X143355720Y-64526189D02*
X143308101Y-64549999D01*
X143308101Y-64549999D02*
X143212863Y-64573808D01*
X143212863Y-64573808D02*
X143141435Y-64573808D01*
X143141435Y-64573808D02*
X143046197Y-64549999D01*
X143046197Y-64549999D02*
X142998578Y-64526189D01*
X142998578Y-64526189D02*
X142950959Y-64478570D01*
X142950959Y-64478570D02*
X142927149Y-64407142D01*
X142927149Y-64407142D02*
X142927149Y-64359523D01*
X142927149Y-64359523D02*
X142950959Y-64288094D01*
X142950959Y-64288094D02*
X142974768Y-64264285D01*
X143427149Y-64049999D02*
X142927149Y-64049999D01*
X143427149Y-63811904D02*
X142927149Y-63811904D01*
X142927149Y-63811904D02*
X143427149Y-63526190D01*
X143427149Y-63526190D02*
X142927149Y-63526190D01*
X143427149Y-63026189D02*
X143427149Y-63311903D01*
X143427149Y-63169046D02*
X142927149Y-63169046D01*
X142927149Y-63169046D02*
X142998578Y-63216665D01*
X142998578Y-63216665D02*
X143046197Y-63264284D01*
X143046197Y-63264284D02*
X143070006Y-63311903D01*
D10*
X150604819Y-94877561D02*
X150604819Y-95448989D01*
X150604819Y-95163275D02*
X149604819Y-95163275D01*
X149604819Y-95163275D02*
X149747676Y-95258513D01*
X149747676Y-95258513D02*
X149842914Y-95353751D01*
X149842914Y-95353751D02*
X149890533Y-95448989D01*
X149604819Y-94258513D02*
X149604819Y-94163275D01*
X149604819Y-94163275D02*
X149652438Y-94068037D01*
X149652438Y-94068037D02*
X149700057Y-94020418D01*
X149700057Y-94020418D02*
X149795295Y-93972799D01*
X149795295Y-93972799D02*
X149985771Y-93925180D01*
X149985771Y-93925180D02*
X150223866Y-93925180D01*
X150223866Y-93925180D02*
X150414342Y-93972799D01*
X150414342Y-93972799D02*
X150509580Y-94020418D01*
X150509580Y-94020418D02*
X150557200Y-94068037D01*
X150557200Y-94068037D02*
X150604819Y-94163275D01*
X150604819Y-94163275D02*
X150604819Y-94258513D01*
X150604819Y-94258513D02*
X150557200Y-94353751D01*
X150557200Y-94353751D02*
X150509580Y-94401370D01*
X150509580Y-94401370D02*
X150414342Y-94448989D01*
X150414342Y-94448989D02*
X150223866Y-94496608D01*
X150223866Y-94496608D02*
X149985771Y-94496608D01*
X149985771Y-94496608D02*
X149795295Y-94448989D01*
X149795295Y-94448989D02*
X149700057Y-94401370D01*
X149700057Y-94401370D02*
X149652438Y-94353751D01*
X149652438Y-94353751D02*
X149604819Y-94258513D01*
X149604819Y-93306132D02*
X149604819Y-93210894D01*
X149604819Y-93210894D02*
X149652438Y-93115656D01*
X149652438Y-93115656D02*
X149700057Y-93068037D01*
X149700057Y-93068037D02*
X149795295Y-93020418D01*
X149795295Y-93020418D02*
X149985771Y-92972799D01*
X149985771Y-92972799D02*
X150223866Y-92972799D01*
X150223866Y-92972799D02*
X150414342Y-93020418D01*
X150414342Y-93020418D02*
X150509580Y-93068037D01*
X150509580Y-93068037D02*
X150557200Y-93115656D01*
X150557200Y-93115656D02*
X150604819Y-93210894D01*
X150604819Y-93210894D02*
X150604819Y-93306132D01*
X150604819Y-93306132D02*
X150557200Y-93401370D01*
X150557200Y-93401370D02*
X150509580Y-93448989D01*
X150509580Y-93448989D02*
X150414342Y-93496608D01*
X150414342Y-93496608D02*
X150223866Y-93544227D01*
X150223866Y-93544227D02*
X149985771Y-93544227D01*
X149985771Y-93544227D02*
X149795295Y-93496608D01*
X149795295Y-93496608D02*
X149700057Y-93448989D01*
X149700057Y-93448989D02*
X149652438Y-93401370D01*
X149652438Y-93401370D02*
X149604819Y-93306132D01*
X149604819Y-92353751D02*
X149604819Y-92258513D01*
X149604819Y-92258513D02*
X149652438Y-92163275D01*
X149652438Y-92163275D02*
X149700057Y-92115656D01*
X149700057Y-92115656D02*
X149795295Y-92068037D01*
X149795295Y-92068037D02*
X149985771Y-92020418D01*
X149985771Y-92020418D02*
X150223866Y-92020418D01*
X150223866Y-92020418D02*
X150414342Y-92068037D01*
X150414342Y-92068037D02*
X150509580Y-92115656D01*
X150509580Y-92115656D02*
X150557200Y-92163275D01*
X150557200Y-92163275D02*
X150604819Y-92258513D01*
X150604819Y-92258513D02*
X150604819Y-92353751D01*
X150604819Y-92353751D02*
X150557200Y-92448989D01*
X150557200Y-92448989D02*
X150509580Y-92496608D01*
X150509580Y-92496608D02*
X150414342Y-92544227D01*
X150414342Y-92544227D02*
X150223866Y-92591846D01*
X150223866Y-92591846D02*
X149985771Y-92591846D01*
X149985771Y-92591846D02*
X149795295Y-92544227D01*
X149795295Y-92544227D02*
X149700057Y-92496608D01*
X149700057Y-92496608D02*
X149652438Y-92448989D01*
X149652438Y-92448989D02*
X149604819Y-92353751D01*
X149938152Y-91591846D02*
X150938152Y-91591846D01*
X150461961Y-91115656D02*
X150557200Y-91068037D01*
X150557200Y-91068037D02*
X150604819Y-90972799D01*
X150461961Y-91591846D02*
X150557200Y-91544227D01*
X150557200Y-91544227D02*
X150604819Y-91448989D01*
X150604819Y-91448989D02*
X150604819Y-91258513D01*
X150604819Y-91258513D02*
X150557200Y-91163275D01*
X150557200Y-91163275D02*
X150461961Y-91115656D01*
X150461961Y-91115656D02*
X149938152Y-91115656D01*
X150081009Y-90210894D02*
X150081009Y-90544227D01*
X150604819Y-90544227D02*
X149604819Y-90544227D01*
X149604819Y-90544227D02*
X149604819Y-90068037D01*
X156759580Y-92948989D02*
X156807200Y-92996608D01*
X156807200Y-92996608D02*
X156854819Y-93139465D01*
X156854819Y-93139465D02*
X156854819Y-93234703D01*
X156854819Y-93234703D02*
X156807200Y-93377560D01*
X156807200Y-93377560D02*
X156711961Y-93472798D01*
X156711961Y-93472798D02*
X156616723Y-93520417D01*
X156616723Y-93520417D02*
X156426247Y-93568036D01*
X156426247Y-93568036D02*
X156283390Y-93568036D01*
X156283390Y-93568036D02*
X156092914Y-93520417D01*
X156092914Y-93520417D02*
X155997676Y-93472798D01*
X155997676Y-93472798D02*
X155902438Y-93377560D01*
X155902438Y-93377560D02*
X155854819Y-93234703D01*
X155854819Y-93234703D02*
X155854819Y-93139465D01*
X155854819Y-93139465D02*
X155902438Y-92996608D01*
X155902438Y-92996608D02*
X155950057Y-92948989D01*
X156854819Y-91996608D02*
X156854819Y-92568036D01*
X156854819Y-92282322D02*
X155854819Y-92282322D01*
X155854819Y-92282322D02*
X155997676Y-92377560D01*
X155997676Y-92377560D02*
X156092914Y-92472798D01*
X156092914Y-92472798D02*
X156140533Y-92568036D01*
X147654819Y-58514285D02*
X147654819Y-59085713D01*
X147654819Y-58799999D02*
X146654819Y-58799999D01*
X146654819Y-58799999D02*
X146797676Y-58895237D01*
X146797676Y-58895237D02*
X146892914Y-58990475D01*
X146892914Y-58990475D02*
X146940533Y-59085713D01*
X146654819Y-57895237D02*
X146654819Y-57799999D01*
X146654819Y-57799999D02*
X146702438Y-57704761D01*
X146702438Y-57704761D02*
X146750057Y-57657142D01*
X146750057Y-57657142D02*
X146845295Y-57609523D01*
X146845295Y-57609523D02*
X147035771Y-57561904D01*
X147035771Y-57561904D02*
X147273866Y-57561904D01*
X147273866Y-57561904D02*
X147464342Y-57609523D01*
X147464342Y-57609523D02*
X147559580Y-57657142D01*
X147559580Y-57657142D02*
X147607200Y-57704761D01*
X147607200Y-57704761D02*
X147654819Y-57799999D01*
X147654819Y-57799999D02*
X147654819Y-57895237D01*
X147654819Y-57895237D02*
X147607200Y-57990475D01*
X147607200Y-57990475D02*
X147559580Y-58038094D01*
X147559580Y-58038094D02*
X147464342Y-58085713D01*
X147464342Y-58085713D02*
X147273866Y-58133332D01*
X147273866Y-58133332D02*
X147035771Y-58133332D01*
X147035771Y-58133332D02*
X146845295Y-58085713D01*
X146845295Y-58085713D02*
X146750057Y-58038094D01*
X146750057Y-58038094D02*
X146702438Y-57990475D01*
X146702438Y-57990475D02*
X146654819Y-57895237D01*
X146654819Y-56942856D02*
X146654819Y-56847618D01*
X146654819Y-56847618D02*
X146702438Y-56752380D01*
X146702438Y-56752380D02*
X146750057Y-56704761D01*
X146750057Y-56704761D02*
X146845295Y-56657142D01*
X146845295Y-56657142D02*
X147035771Y-56609523D01*
X147035771Y-56609523D02*
X147273866Y-56609523D01*
X147273866Y-56609523D02*
X147464342Y-56657142D01*
X147464342Y-56657142D02*
X147559580Y-56704761D01*
X147559580Y-56704761D02*
X147607200Y-56752380D01*
X147607200Y-56752380D02*
X147654819Y-56847618D01*
X147654819Y-56847618D02*
X147654819Y-56942856D01*
X147654819Y-56942856D02*
X147607200Y-57038094D01*
X147607200Y-57038094D02*
X147559580Y-57085713D01*
X147559580Y-57085713D02*
X147464342Y-57133332D01*
X147464342Y-57133332D02*
X147273866Y-57180951D01*
X147273866Y-57180951D02*
X147035771Y-57180951D01*
X147035771Y-57180951D02*
X146845295Y-57133332D01*
X146845295Y-57133332D02*
X146750057Y-57085713D01*
X146750057Y-57085713D02*
X146702438Y-57038094D01*
X146702438Y-57038094D02*
X146654819Y-56942856D01*
X146988152Y-56180951D02*
X147988152Y-56180951D01*
X147511961Y-55704761D02*
X147607200Y-55657142D01*
X147607200Y-55657142D02*
X147654819Y-55561904D01*
X147511961Y-56180951D02*
X147607200Y-56133332D01*
X147607200Y-56133332D02*
X147654819Y-56038094D01*
X147654819Y-56038094D02*
X147654819Y-55847618D01*
X147654819Y-55847618D02*
X147607200Y-55752380D01*
X147607200Y-55752380D02*
X147511961Y-55704761D01*
X147511961Y-55704761D02*
X146988152Y-55704761D01*
X147654819Y-55133332D02*
X146654819Y-55133332D01*
X147131009Y-55133332D02*
X147131009Y-54561904D01*
X147654819Y-54561904D02*
X146654819Y-54561904D01*
X142833333Y-57254819D02*
X142357143Y-57254819D01*
X142357143Y-57254819D02*
X142357143Y-56254819D01*
X143690476Y-57254819D02*
X143119048Y-57254819D01*
X143404762Y-57254819D02*
X143404762Y-56254819D01*
X143404762Y-56254819D02*
X143309524Y-56397676D01*
X143309524Y-56397676D02*
X143214286Y-56492914D01*
X143214286Y-56492914D02*
X143119048Y-56540533D01*
X131344285Y-40713332D02*
X131677618Y-40713332D01*
X131820475Y-41237142D02*
X131344285Y-41237142D01*
X131344285Y-41237142D02*
X131344285Y-40237142D01*
X131344285Y-40237142D02*
X131820475Y-40237142D01*
X132201428Y-41189523D02*
X132344285Y-41237142D01*
X132344285Y-41237142D02*
X132582380Y-41237142D01*
X132582380Y-41237142D02*
X132677618Y-41189523D01*
X132677618Y-41189523D02*
X132725237Y-41141903D01*
X132725237Y-41141903D02*
X132772856Y-41046665D01*
X132772856Y-41046665D02*
X132772856Y-40951427D01*
X132772856Y-40951427D02*
X132725237Y-40856189D01*
X132725237Y-40856189D02*
X132677618Y-40808570D01*
X132677618Y-40808570D02*
X132582380Y-40760951D01*
X132582380Y-40760951D02*
X132391904Y-40713332D01*
X132391904Y-40713332D02*
X132296666Y-40665713D01*
X132296666Y-40665713D02*
X132249047Y-40618094D01*
X132249047Y-40618094D02*
X132201428Y-40522856D01*
X132201428Y-40522856D02*
X132201428Y-40427618D01*
X132201428Y-40427618D02*
X132249047Y-40332380D01*
X132249047Y-40332380D02*
X132296666Y-40284761D01*
X132296666Y-40284761D02*
X132391904Y-40237142D01*
X132391904Y-40237142D02*
X132629999Y-40237142D01*
X132629999Y-40237142D02*
X132772856Y-40284761D01*
X133201428Y-41237142D02*
X133201428Y-40237142D01*
X133201428Y-40237142D02*
X133582380Y-40237142D01*
X133582380Y-40237142D02*
X133677618Y-40284761D01*
X133677618Y-40284761D02*
X133725237Y-40332380D01*
X133725237Y-40332380D02*
X133772856Y-40427618D01*
X133772856Y-40427618D02*
X133772856Y-40570475D01*
X133772856Y-40570475D02*
X133725237Y-40665713D01*
X133725237Y-40665713D02*
X133677618Y-40713332D01*
X133677618Y-40713332D02*
X133582380Y-40760951D01*
X133582380Y-40760951D02*
X133201428Y-40760951D01*
X134106190Y-40237142D02*
X134725237Y-40237142D01*
X134725237Y-40237142D02*
X134391904Y-40618094D01*
X134391904Y-40618094D02*
X134534761Y-40618094D01*
X134534761Y-40618094D02*
X134629999Y-40665713D01*
X134629999Y-40665713D02*
X134677618Y-40713332D01*
X134677618Y-40713332D02*
X134725237Y-40808570D01*
X134725237Y-40808570D02*
X134725237Y-41046665D01*
X134725237Y-41046665D02*
X134677618Y-41141903D01*
X134677618Y-41141903D02*
X134629999Y-41189523D01*
X134629999Y-41189523D02*
X134534761Y-41237142D01*
X134534761Y-41237142D02*
X134249047Y-41237142D01*
X134249047Y-41237142D02*
X134153809Y-41189523D01*
X134153809Y-41189523D02*
X134106190Y-41141903D01*
X135106190Y-40332380D02*
X135153809Y-40284761D01*
X135153809Y-40284761D02*
X135249047Y-40237142D01*
X135249047Y-40237142D02*
X135487142Y-40237142D01*
X135487142Y-40237142D02*
X135582380Y-40284761D01*
X135582380Y-40284761D02*
X135629999Y-40332380D01*
X135629999Y-40332380D02*
X135677618Y-40427618D01*
X135677618Y-40427618D02*
X135677618Y-40522856D01*
X135677618Y-40522856D02*
X135629999Y-40665713D01*
X135629999Y-40665713D02*
X135058571Y-41237142D01*
X135058571Y-41237142D02*
X135677618Y-41237142D01*
X135868095Y-41332380D02*
X136629999Y-41332380D01*
X136868095Y-41237142D02*
X136868095Y-40237142D01*
X136868095Y-40237142D02*
X137249047Y-40237142D01*
X137249047Y-40237142D02*
X137344285Y-40284761D01*
X137344285Y-40284761D02*
X137391904Y-40332380D01*
X137391904Y-40332380D02*
X137439523Y-40427618D01*
X137439523Y-40427618D02*
X137439523Y-40570475D01*
X137439523Y-40570475D02*
X137391904Y-40665713D01*
X137391904Y-40665713D02*
X137344285Y-40713332D01*
X137344285Y-40713332D02*
X137249047Y-40760951D01*
X137249047Y-40760951D02*
X136868095Y-40760951D01*
X138439523Y-41237142D02*
X138106190Y-40760951D01*
X137868095Y-41237142D02*
X137868095Y-40237142D01*
X137868095Y-40237142D02*
X138249047Y-40237142D01*
X138249047Y-40237142D02*
X138344285Y-40284761D01*
X138344285Y-40284761D02*
X138391904Y-40332380D01*
X138391904Y-40332380D02*
X138439523Y-40427618D01*
X138439523Y-40427618D02*
X138439523Y-40570475D01*
X138439523Y-40570475D02*
X138391904Y-40665713D01*
X138391904Y-40665713D02*
X138344285Y-40713332D01*
X138344285Y-40713332D02*
X138249047Y-40760951D01*
X138249047Y-40760951D02*
X137868095Y-40760951D01*
X139058571Y-40237142D02*
X139249047Y-40237142D01*
X139249047Y-40237142D02*
X139344285Y-40284761D01*
X139344285Y-40284761D02*
X139439523Y-40379999D01*
X139439523Y-40379999D02*
X139487142Y-40570475D01*
X139487142Y-40570475D02*
X139487142Y-40903808D01*
X139487142Y-40903808D02*
X139439523Y-41094284D01*
X139439523Y-41094284D02*
X139344285Y-41189523D01*
X139344285Y-41189523D02*
X139249047Y-41237142D01*
X139249047Y-41237142D02*
X139058571Y-41237142D01*
X139058571Y-41237142D02*
X138963333Y-41189523D01*
X138963333Y-41189523D02*
X138868095Y-41094284D01*
X138868095Y-41094284D02*
X138820476Y-40903808D01*
X138820476Y-40903808D02*
X138820476Y-40570475D01*
X138820476Y-40570475D02*
X138868095Y-40379999D01*
X138868095Y-40379999D02*
X138963333Y-40284761D01*
X138963333Y-40284761D02*
X139058571Y-40237142D01*
X140439523Y-40284761D02*
X140344285Y-40237142D01*
X140344285Y-40237142D02*
X140201428Y-40237142D01*
X140201428Y-40237142D02*
X140058571Y-40284761D01*
X140058571Y-40284761D02*
X139963333Y-40379999D01*
X139963333Y-40379999D02*
X139915714Y-40475237D01*
X139915714Y-40475237D02*
X139868095Y-40665713D01*
X139868095Y-40665713D02*
X139868095Y-40808570D01*
X139868095Y-40808570D02*
X139915714Y-40999046D01*
X139915714Y-40999046D02*
X139963333Y-41094284D01*
X139963333Y-41094284D02*
X140058571Y-41189523D01*
X140058571Y-41189523D02*
X140201428Y-41237142D01*
X140201428Y-41237142D02*
X140296666Y-41237142D01*
X140296666Y-41237142D02*
X140439523Y-41189523D01*
X140439523Y-41189523D02*
X140487142Y-41141903D01*
X140487142Y-41141903D02*
X140487142Y-40808570D01*
X140487142Y-40808570D02*
X140296666Y-40808570D01*
X140677619Y-41332380D02*
X141439523Y-41332380D01*
X142201428Y-41237142D02*
X141630000Y-41237142D01*
X141915714Y-41237142D02*
X141915714Y-40237142D01*
X141915714Y-40237142D02*
X141820476Y-40379999D01*
X141820476Y-40379999D02*
X141725238Y-40475237D01*
X141725238Y-40475237D02*
X141630000Y-40522856D01*
X142534762Y-41237142D02*
X143058571Y-40570475D01*
X142534762Y-40570475D02*
X143058571Y-41237142D01*
X143868095Y-40237142D02*
X143677619Y-40237142D01*
X143677619Y-40237142D02*
X143582381Y-40284761D01*
X143582381Y-40284761D02*
X143534762Y-40332380D01*
X143534762Y-40332380D02*
X143439524Y-40475237D01*
X143439524Y-40475237D02*
X143391905Y-40665713D01*
X143391905Y-40665713D02*
X143391905Y-41046665D01*
X143391905Y-41046665D02*
X143439524Y-41141903D01*
X143439524Y-41141903D02*
X143487143Y-41189523D01*
X143487143Y-41189523D02*
X143582381Y-41237142D01*
X143582381Y-41237142D02*
X143772857Y-41237142D01*
X143772857Y-41237142D02*
X143868095Y-41189523D01*
X143868095Y-41189523D02*
X143915714Y-41141903D01*
X143915714Y-41141903D02*
X143963333Y-41046665D01*
X143963333Y-41046665D02*
X143963333Y-40808570D01*
X143963333Y-40808570D02*
X143915714Y-40713332D01*
X143915714Y-40713332D02*
X143868095Y-40665713D01*
X143868095Y-40665713D02*
X143772857Y-40618094D01*
X143772857Y-40618094D02*
X143582381Y-40618094D01*
X143582381Y-40618094D02*
X143487143Y-40665713D01*
X143487143Y-40665713D02*
X143439524Y-40713332D01*
X143439524Y-40713332D02*
X143391905Y-40808570D01*
X137796666Y-42237142D02*
X137796666Y-42951427D01*
X137796666Y-42951427D02*
X137749047Y-43094284D01*
X137749047Y-43094284D02*
X137653809Y-43189523D01*
X137653809Y-43189523D02*
X137510952Y-43237142D01*
X137510952Y-43237142D02*
X137415714Y-43237142D01*
X138177619Y-42237142D02*
X138796666Y-42237142D01*
X138796666Y-42237142D02*
X138463333Y-42618094D01*
X138463333Y-42618094D02*
X138606190Y-42618094D01*
X138606190Y-42618094D02*
X138701428Y-42665713D01*
X138701428Y-42665713D02*
X138749047Y-42713332D01*
X138749047Y-42713332D02*
X138796666Y-42808570D01*
X138796666Y-42808570D02*
X138796666Y-43046665D01*
X138796666Y-43046665D02*
X138749047Y-43141903D01*
X138749047Y-43141903D02*
X138701428Y-43189523D01*
X138701428Y-43189523D02*
X138606190Y-43237142D01*
X138606190Y-43237142D02*
X138320476Y-43237142D01*
X138320476Y-43237142D02*
X138225238Y-43189523D01*
X138225238Y-43189523D02*
X138177619Y-43141903D01*
X156684819Y-63965061D02*
X156684819Y-64536489D01*
X156684819Y-64250775D02*
X155684819Y-64250775D01*
X155684819Y-64250775D02*
X155827676Y-64346013D01*
X155827676Y-64346013D02*
X155922914Y-64441251D01*
X155922914Y-64441251D02*
X155970533Y-64536489D01*
X155684819Y-63346013D02*
X155684819Y-63250775D01*
X155684819Y-63250775D02*
X155732438Y-63155537D01*
X155732438Y-63155537D02*
X155780057Y-63107918D01*
X155780057Y-63107918D02*
X155875295Y-63060299D01*
X155875295Y-63060299D02*
X156065771Y-63012680D01*
X156065771Y-63012680D02*
X156303866Y-63012680D01*
X156303866Y-63012680D02*
X156494342Y-63060299D01*
X156494342Y-63060299D02*
X156589580Y-63107918D01*
X156589580Y-63107918D02*
X156637200Y-63155537D01*
X156637200Y-63155537D02*
X156684819Y-63250775D01*
X156684819Y-63250775D02*
X156684819Y-63346013D01*
X156684819Y-63346013D02*
X156637200Y-63441251D01*
X156637200Y-63441251D02*
X156589580Y-63488870D01*
X156589580Y-63488870D02*
X156494342Y-63536489D01*
X156494342Y-63536489D02*
X156303866Y-63584108D01*
X156303866Y-63584108D02*
X156065771Y-63584108D01*
X156065771Y-63584108D02*
X155875295Y-63536489D01*
X155875295Y-63536489D02*
X155780057Y-63488870D01*
X155780057Y-63488870D02*
X155732438Y-63441251D01*
X155732438Y-63441251D02*
X155684819Y-63346013D01*
X156684819Y-62584108D02*
X155684819Y-62584108D01*
X156303866Y-62488870D02*
X156684819Y-62203156D01*
X156018152Y-62203156D02*
X156399104Y-62584108D01*
D12*
X154981927Y-63436489D02*
X154791451Y-63569822D01*
X154981927Y-63665060D02*
X154581927Y-63665060D01*
X154581927Y-63665060D02*
X154581927Y-63512679D01*
X154581927Y-63512679D02*
X154600975Y-63474584D01*
X154600975Y-63474584D02*
X154620022Y-63455537D01*
X154620022Y-63455537D02*
X154658118Y-63436489D01*
X154658118Y-63436489D02*
X154715260Y-63436489D01*
X154715260Y-63436489D02*
X154753356Y-63455537D01*
X154753356Y-63455537D02*
X154772403Y-63474584D01*
X154772403Y-63474584D02*
X154791451Y-63512679D01*
X154791451Y-63512679D02*
X154791451Y-63665060D01*
X154581927Y-63303156D02*
X154581927Y-63055537D01*
X154581927Y-63055537D02*
X154734308Y-63188870D01*
X154734308Y-63188870D02*
X154734308Y-63131727D01*
X154734308Y-63131727D02*
X154753356Y-63093632D01*
X154753356Y-63093632D02*
X154772403Y-63074584D01*
X154772403Y-63074584D02*
X154810499Y-63055537D01*
X154810499Y-63055537D02*
X154905737Y-63055537D01*
X154905737Y-63055537D02*
X154943832Y-63074584D01*
X154943832Y-63074584D02*
X154962880Y-63093632D01*
X154962880Y-63093632D02*
X154981927Y-63131727D01*
X154981927Y-63131727D02*
X154981927Y-63246013D01*
X154981927Y-63246013D02*
X154962880Y-63284108D01*
X154962880Y-63284108D02*
X154943832Y-63303156D01*
D10*
X129804819Y-76071428D02*
X129804819Y-76547618D01*
X129804819Y-76547618D02*
X128804819Y-76547618D01*
X129804819Y-75738094D02*
X128804819Y-75738094D01*
X128804819Y-75738094D02*
X129519104Y-75404761D01*
X129519104Y-75404761D02*
X128804819Y-75071428D01*
X128804819Y-75071428D02*
X129804819Y-75071428D01*
X128900057Y-74642856D02*
X128852438Y-74595237D01*
X128852438Y-74595237D02*
X128804819Y-74499999D01*
X128804819Y-74499999D02*
X128804819Y-74261904D01*
X128804819Y-74261904D02*
X128852438Y-74166666D01*
X128852438Y-74166666D02*
X128900057Y-74119047D01*
X128900057Y-74119047D02*
X128995295Y-74071428D01*
X128995295Y-74071428D02*
X129090533Y-74071428D01*
X129090533Y-74071428D02*
X129233390Y-74119047D01*
X129233390Y-74119047D02*
X129804819Y-74690475D01*
X129804819Y-74690475D02*
X129804819Y-74071428D01*
X128804819Y-73166666D02*
X128804819Y-73642856D01*
X128804819Y-73642856D02*
X129281009Y-73690475D01*
X129281009Y-73690475D02*
X129233390Y-73642856D01*
X129233390Y-73642856D02*
X129185771Y-73547618D01*
X129185771Y-73547618D02*
X129185771Y-73309523D01*
X129185771Y-73309523D02*
X129233390Y-73214285D01*
X129233390Y-73214285D02*
X129281009Y-73166666D01*
X129281009Y-73166666D02*
X129376247Y-73119047D01*
X129376247Y-73119047D02*
X129614342Y-73119047D01*
X129614342Y-73119047D02*
X129709580Y-73166666D01*
X129709580Y-73166666D02*
X129757200Y-73214285D01*
X129757200Y-73214285D02*
X129804819Y-73309523D01*
X129804819Y-73309523D02*
X129804819Y-73547618D01*
X129804819Y-73547618D02*
X129757200Y-73642856D01*
X129757200Y-73642856D02*
X129709580Y-73690475D01*
X129804819Y-72642856D02*
X129804819Y-72452380D01*
X129804819Y-72452380D02*
X129757200Y-72357142D01*
X129757200Y-72357142D02*
X129709580Y-72309523D01*
X129709580Y-72309523D02*
X129566723Y-72214285D01*
X129566723Y-72214285D02*
X129376247Y-72166666D01*
X129376247Y-72166666D02*
X128995295Y-72166666D01*
X128995295Y-72166666D02*
X128900057Y-72214285D01*
X128900057Y-72214285D02*
X128852438Y-72261904D01*
X128852438Y-72261904D02*
X128804819Y-72357142D01*
X128804819Y-72357142D02*
X128804819Y-72547618D01*
X128804819Y-72547618D02*
X128852438Y-72642856D01*
X128852438Y-72642856D02*
X128900057Y-72690475D01*
X128900057Y-72690475D02*
X128995295Y-72738094D01*
X128995295Y-72738094D02*
X129233390Y-72738094D01*
X129233390Y-72738094D02*
X129328628Y-72690475D01*
X129328628Y-72690475D02*
X129376247Y-72642856D01*
X129376247Y-72642856D02*
X129423866Y-72547618D01*
X129423866Y-72547618D02*
X129423866Y-72357142D01*
X129423866Y-72357142D02*
X129376247Y-72261904D01*
X129376247Y-72261904D02*
X129328628Y-72214285D01*
X129328628Y-72214285D02*
X129233390Y-72166666D01*
X128804819Y-71309523D02*
X128804819Y-71499999D01*
X128804819Y-71499999D02*
X128852438Y-71595237D01*
X128852438Y-71595237D02*
X128900057Y-71642856D01*
X128900057Y-71642856D02*
X129042914Y-71738094D01*
X129042914Y-71738094D02*
X129233390Y-71785713D01*
X129233390Y-71785713D02*
X129614342Y-71785713D01*
X129614342Y-71785713D02*
X129709580Y-71738094D01*
X129709580Y-71738094D02*
X129757200Y-71690475D01*
X129757200Y-71690475D02*
X129804819Y-71595237D01*
X129804819Y-71595237D02*
X129804819Y-71404761D01*
X129804819Y-71404761D02*
X129757200Y-71309523D01*
X129757200Y-71309523D02*
X129709580Y-71261904D01*
X129709580Y-71261904D02*
X129614342Y-71214285D01*
X129614342Y-71214285D02*
X129376247Y-71214285D01*
X129376247Y-71214285D02*
X129281009Y-71261904D01*
X129281009Y-71261904D02*
X129233390Y-71309523D01*
X129233390Y-71309523D02*
X129185771Y-71404761D01*
X129185771Y-71404761D02*
X129185771Y-71595237D01*
X129185771Y-71595237D02*
X129233390Y-71690475D01*
X129233390Y-71690475D02*
X129281009Y-71738094D01*
X129281009Y-71738094D02*
X129376247Y-71785713D01*
X129757200Y-70833332D02*
X129804819Y-70690475D01*
X129804819Y-70690475D02*
X129804819Y-70452380D01*
X129804819Y-70452380D02*
X129757200Y-70357142D01*
X129757200Y-70357142D02*
X129709580Y-70309523D01*
X129709580Y-70309523D02*
X129614342Y-70261904D01*
X129614342Y-70261904D02*
X129519104Y-70261904D01*
X129519104Y-70261904D02*
X129423866Y-70309523D01*
X129423866Y-70309523D02*
X129376247Y-70357142D01*
X129376247Y-70357142D02*
X129328628Y-70452380D01*
X129328628Y-70452380D02*
X129281009Y-70642856D01*
X129281009Y-70642856D02*
X129233390Y-70738094D01*
X129233390Y-70738094D02*
X129185771Y-70785713D01*
X129185771Y-70785713D02*
X129090533Y-70833332D01*
X129090533Y-70833332D02*
X128995295Y-70833332D01*
X128995295Y-70833332D02*
X128900057Y-70785713D01*
X128900057Y-70785713D02*
X128852438Y-70738094D01*
X128852438Y-70738094D02*
X128804819Y-70642856D01*
X128804819Y-70642856D02*
X128804819Y-70404761D01*
X128804819Y-70404761D02*
X128852438Y-70261904D01*
X129423866Y-69833332D02*
X129423866Y-69071428D01*
X129519104Y-68642856D02*
X129519104Y-68166666D01*
X129804819Y-68738094D02*
X128804819Y-68404761D01*
X128804819Y-68404761D02*
X129804819Y-68071428D01*
X129804819Y-67738094D02*
X128804819Y-67738094D01*
X128804819Y-67738094D02*
X128804819Y-67499999D01*
X128804819Y-67499999D02*
X128852438Y-67357142D01*
X128852438Y-67357142D02*
X128947676Y-67261904D01*
X128947676Y-67261904D02*
X129042914Y-67214285D01*
X129042914Y-67214285D02*
X129233390Y-67166666D01*
X129233390Y-67166666D02*
X129376247Y-67166666D01*
X129376247Y-67166666D02*
X129566723Y-67214285D01*
X129566723Y-67214285D02*
X129661961Y-67261904D01*
X129661961Y-67261904D02*
X129757200Y-67357142D01*
X129757200Y-67357142D02*
X129804819Y-67499999D01*
X129804819Y-67499999D02*
X129804819Y-67738094D01*
X128804819Y-66452380D02*
X129519104Y-66452380D01*
X129519104Y-66452380D02*
X129661961Y-66499999D01*
X129661961Y-66499999D02*
X129757200Y-66595237D01*
X129757200Y-66595237D02*
X129804819Y-66738094D01*
X129804819Y-66738094D02*
X129804819Y-66833332D01*
X135454819Y-72261904D02*
X136264342Y-72261904D01*
X136264342Y-72261904D02*
X136359580Y-72214285D01*
X136359580Y-72214285D02*
X136407200Y-72166666D01*
X136407200Y-72166666D02*
X136454819Y-72071428D01*
X136454819Y-72071428D02*
X136454819Y-71880952D01*
X136454819Y-71880952D02*
X136407200Y-71785714D01*
X136407200Y-71785714D02*
X136359580Y-71738095D01*
X136359580Y-71738095D02*
X136264342Y-71690476D01*
X136264342Y-71690476D02*
X135454819Y-71690476D01*
X135788152Y-70785714D02*
X136454819Y-70785714D01*
X135407200Y-71023809D02*
X136121485Y-71261904D01*
X136121485Y-71261904D02*
X136121485Y-70642857D01*
D16*
%TO.C,R0*%
X163875000Y-91500000D02*
X165125000Y-91500000D01*
X163875000Y-93500000D02*
X163875000Y-91500000D01*
X165125000Y-91500000D02*
X165125000Y-93500000D01*
X165125000Y-93500000D02*
X163875000Y-93500000D01*
%TO.C,R4*%
X157487500Y-62569823D02*
X158312500Y-62569823D01*
X157487500Y-64169823D02*
X157487500Y-62569823D01*
X158312500Y-62569823D02*
X158312500Y-64169823D01*
X158312500Y-64169823D02*
X157487500Y-64169823D01*
%TO.C,U3*%
X146900000Y-74332323D02*
X146900000Y-72532323D01*
X149350000Y-72532323D02*
X146900000Y-72532323D01*
X149350000Y-72532323D02*
X150000000Y-73182323D01*
X150000000Y-74332323D02*
X146900000Y-74332323D01*
X150000000Y-74332323D02*
X150000000Y-73182323D01*
%TO.C,D1*%
X163900000Y-95300000D02*
X163900000Y-97000000D01*
X163900000Y-97000000D02*
X164200000Y-97300000D01*
X164200000Y-97300000D02*
X165100000Y-97300000D01*
X165100000Y-95300000D02*
X163900000Y-95300000D01*
X165100000Y-97300000D02*
X165100000Y-95300000D01*
%TO.C,D_TVS1*%
X131000000Y-79300000D02*
X131000000Y-83900000D01*
X131000000Y-79300000D02*
X134000000Y-79300000D01*
X131700920Y-82249440D02*
X133301120Y-82249440D01*
X132501020Y-81098820D02*
X132501020Y-80100600D01*
X132501020Y-82249440D02*
X131700920Y-81098820D01*
X132501020Y-82249440D02*
X132501020Y-83151140D01*
X132501020Y-82249440D02*
X133250320Y-81098820D01*
X133250320Y-81098820D02*
X131700920Y-81098820D01*
X134000000Y-79300000D02*
X134000000Y-83900000D01*
X134000000Y-83900000D02*
X131000000Y-83900000D01*
%TO.C,R1*%
X147987500Y-62594823D02*
X148812500Y-62594823D01*
X147987500Y-64194823D02*
X147987500Y-62594823D01*
X148812500Y-62594823D02*
X148812500Y-64194823D01*
X148812500Y-64194823D02*
X147987500Y-64194823D01*
%TO.C,Rbot1*%
X132875000Y-56000000D02*
X134125000Y-56000000D01*
X132875000Y-58000000D02*
X132875000Y-56000000D01*
X134125000Y-56000000D02*
X134125000Y-58000000D01*
X134125000Y-58000000D02*
X132875000Y-58000000D01*
%TO.C,R5*%
X147500000Y-68207323D02*
X149500000Y-68207323D01*
X147500000Y-69457323D02*
X147500000Y-68207323D01*
X149500000Y-68207323D02*
X149500000Y-69457323D01*
X149500000Y-69457323D02*
X147500000Y-69457323D01*
%TO.C,Polyfuse1*%
X130440000Y-86822500D02*
X135560000Y-86822500D01*
X130440000Y-94177500D02*
X130440000Y-86822500D01*
X135560000Y-86822500D02*
X135560000Y-94177500D01*
X135560000Y-94177500D02*
X130440000Y-94177500D01*
%TO.C,C2*%
X144975000Y-62800000D02*
X146225000Y-62800000D01*
X144975000Y-64800000D02*
X144975000Y-62800000D01*
X146225000Y-62800000D02*
X146225000Y-64800000D01*
X146225000Y-64800000D02*
X144975000Y-64800000D01*
%TO.C,SW2*%
X143000000Y-36300000D02*
X143000000Y-39500000D01*
X143000000Y-39500000D02*
X147200000Y-39500000D01*
X144700000Y-36800000D02*
X145500000Y-36800000D01*
X145500000Y-39000000D02*
X144700000Y-39000000D01*
X147200000Y-36300000D02*
X143000000Y-36300000D01*
X147200000Y-39500000D02*
X147200000Y-36300000D01*
X144700000Y-39000000D02*
G75*
G02*
X144700000Y-36800000I0J1100000D01*
G01*
X145500000Y-36800000D02*
G75*
G02*
X145500000Y-39000000I0J-1100000D01*
G01*
%TO.C,C3*%
X136500000Y-45675000D02*
X138500000Y-45675000D01*
X136500000Y-46925000D02*
X136500000Y-45675000D01*
X138500000Y-45675000D02*
X138500000Y-46925000D01*
X138500000Y-46925000D02*
X136500000Y-46925000D01*
%TO.C,SW1*%
X149400000Y-36300000D02*
X149400000Y-39500000D01*
X149400000Y-39500000D02*
X153600000Y-39500000D01*
X151100000Y-36800000D02*
X151900000Y-36800000D01*
X151900000Y-39000000D02*
X151100000Y-39000000D01*
X153600000Y-36300000D02*
X149400000Y-36300000D01*
X153600000Y-39500000D02*
X153600000Y-36300000D01*
X151100000Y-39000000D02*
G75*
G02*
X151100000Y-36800000I0J1100000D01*
G01*
X151900000Y-36800000D02*
G75*
G02*
X151900000Y-39000000I0J-1100000D01*
G01*
%TO.C,Rtop1*%
X130175000Y-56000000D02*
X131425000Y-56000000D01*
X130175000Y-58000000D02*
X130175000Y-56000000D01*
X131425000Y-56000000D02*
X131425000Y-58000000D01*
X131425000Y-58000000D02*
X130175000Y-58000000D01*
%TO.C,D2*%
X135700000Y-54500000D02*
X135700000Y-59100000D01*
X135700000Y-54500000D02*
X138700000Y-54500000D01*
X136400920Y-57449440D02*
X138001120Y-57449440D01*
X137201020Y-56298820D02*
X137201020Y-55300600D01*
X137201020Y-57449440D02*
X136400920Y-56298820D01*
X137201020Y-57449440D02*
X137201020Y-58351140D01*
X137201020Y-57449440D02*
X137950320Y-56298820D01*
X137950320Y-56298820D02*
X136400920Y-56298820D01*
X138700000Y-54500000D02*
X138700000Y-59100000D01*
X138700000Y-59100000D02*
X135700000Y-59100000D01*
%TO.C,J1*%
X137100000Y-88782323D02*
X146100000Y-88782323D01*
X137100000Y-103082323D02*
X137100000Y-88782323D01*
X137100000Y-103082323D02*
X146100000Y-103082323D01*
X146100000Y-103082323D02*
X146100000Y-88782323D01*
D17*
X141700000Y-87282323D02*
G75*
G02*
X141500000Y-87282323I-100000J0D01*
G01*
X141500000Y-87282323D02*
G75*
G02*
X141700000Y-87282323I100000J0D01*
G01*
D16*
%TO.C,R2*%
X151137500Y-62582323D02*
X151962500Y-62582323D01*
X151137500Y-64182323D02*
X151137500Y-62582323D01*
X151962500Y-62582323D02*
X151962500Y-64182323D01*
X151962500Y-64182323D02*
X151137500Y-64182323D01*
%TO.C,COUT2*%
X139400000Y-48800000D02*
X139400000Y-52000000D01*
X139400000Y-52000000D02*
X144600000Y-52000000D01*
X144600000Y-52000000D02*
X145400000Y-51200000D01*
X145400000Y-48800000D02*
X139400000Y-48800000D01*
X145400000Y-51200000D02*
X145400000Y-48800000D01*
D18*
%TO.C,U1*%
X148300000Y-41022323D02*
X166300000Y-41022323D01*
X148300000Y-60222323D02*
X148300000Y-41022323D01*
X166300000Y-41022323D02*
X166300000Y-60222323D01*
X166300000Y-60222323D02*
X148300000Y-60222323D01*
D17*
X147400000Y-42212323D02*
G75*
G02*
X147200000Y-42212323I-100000J0D01*
G01*
X147200000Y-42212323D02*
G75*
G02*
X147400000Y-42212323I100000J0D01*
G01*
D16*
%TO.C,IO0_CTRL1*%
X152812500Y-67157323D02*
X153137500Y-66832323D01*
X152812500Y-69732323D02*
X152812500Y-67157323D01*
X153137500Y-66832323D02*
X154112500Y-66832323D01*
X154112500Y-66832323D02*
X154112500Y-69732323D01*
X154112500Y-69732323D02*
X152812500Y-69732323D01*
%TO.C,EN_CTRL1*%
X159312500Y-67157323D02*
X159637500Y-66832323D01*
X159312500Y-69732323D02*
X159312500Y-67157323D01*
X159637500Y-66832323D02*
X160612500Y-66832323D01*
X160612500Y-66832323D02*
X160612500Y-69732323D01*
X160612500Y-69732323D02*
X159312500Y-69732323D01*
%TO.C,COUT1*%
X142400000Y-45675000D02*
X144400000Y-45675000D01*
X142400000Y-46925000D02*
X142400000Y-45675000D01*
X144400000Y-45675000D02*
X144400000Y-46925000D01*
X144400000Y-46925000D02*
X142400000Y-46925000D01*
%TO.C,C4*%
X160500000Y-62482323D02*
X161300000Y-62482323D01*
X160500000Y-64082323D02*
X160500000Y-62482323D01*
X161300000Y-62482323D02*
X161300000Y-64082323D01*
X161300000Y-64082323D02*
X160500000Y-64082323D01*
%TO.C,CIN1*%
X142575000Y-62800000D02*
X143825000Y-62800000D01*
X142575000Y-64800000D02*
X142575000Y-62800000D01*
X143825000Y-62800000D02*
X143825000Y-64800000D01*
X143825000Y-64800000D02*
X142575000Y-64800000D01*
%TO.C,C1*%
X158587500Y-88493462D02*
X158587500Y-89493462D01*
X159087500Y-88993462D02*
X158087500Y-88993462D01*
X161400000Y-92782323D02*
G75*
G02*
X151400000Y-92782323I-5000000J0D01*
G01*
X151400000Y-92782323D02*
G75*
G02*
X161400000Y-92782323I5000000J0D01*
G01*
%TO.C,L1*%
X140000000Y-59800000D02*
X140000000Y-53800000D01*
X140000000Y-59800000D02*
X146000000Y-59800000D01*
X146000000Y-53800000D02*
X140000000Y-53800000D01*
X146000000Y-59800000D02*
X146000000Y-53800000D01*
%TO.C,J3*%
X130510000Y-41512323D02*
X145750000Y-41512323D01*
X130510000Y-43417323D02*
X130510000Y-41512323D01*
X131145000Y-44052323D02*
X130510000Y-43417323D01*
X145750000Y-41512323D02*
X145750000Y-44052323D01*
X145750000Y-44052323D02*
X131145000Y-44052323D01*
%TO.C,R3*%
X154387500Y-62569823D02*
X155212500Y-62569823D01*
X154387500Y-64169823D02*
X154387500Y-62569823D01*
X155212500Y-62569823D02*
X155212500Y-64169823D01*
X155212500Y-64169823D02*
X154387500Y-64169823D01*
%TO.C,U4*%
X131000000Y-77125000D02*
X131000000Y-76125000D01*
X132200000Y-62175000D02*
X132200000Y-66875000D01*
X133000000Y-62175000D02*
X132200000Y-62175000D01*
X133000000Y-66875000D02*
X133000000Y-62175000D01*
X133900000Y-62175000D02*
X133900000Y-66875000D01*
X134700000Y-62175000D02*
X133900000Y-62175000D01*
X134700000Y-66875000D02*
X134700000Y-62175000D01*
X135600000Y-62175000D02*
X135600000Y-66875000D01*
X136400000Y-62175000D02*
X135600000Y-62175000D01*
X136400000Y-66875000D02*
X136400000Y-62175000D01*
X137300000Y-62175000D02*
X137300000Y-66875000D01*
X138100000Y-62175000D02*
X137300000Y-62175000D01*
X138100000Y-66875000D02*
X138100000Y-62175000D01*
X139000000Y-62175000D02*
X139000000Y-66875000D01*
X139800000Y-62175000D02*
X139000000Y-62175000D01*
X139800000Y-66875000D02*
X139800000Y-62175000D01*
X141000000Y-76125000D02*
X141000000Y-77125000D01*
X141000000Y-77125000D02*
X131000000Y-77125000D01*
X141000000Y-67875000D02*
X141000000Y-76125000D01*
X131000000Y-76125000D01*
X131000000Y-66875000D01*
X140000000Y-66875000D01*
X141000000Y-67875000D01*
%TD*%
M02*
