%TF.GenerationSoftware,KiCad,Pcbnew,9.0.1*%
%TF.CreationDate,2026-10-01T23:39:15+02:00*%
%TF.ProjectId,BaseChipOnly,42617365-4368-4697-904f-6e6c792e6b69,rev?*%
%TF.SameCoordinates,Original*%
%TF.FileFunction,Paste,Top*%
%TF.FilePolarity,Positive*%
%FSLAX46Y46*%
G04 Gerber Fmt 4.6, Leading zero omitted, Abs format (unit mm)*
G04 Created by KiCad (PCBNEW 9.0.1) date 2026-10-01 23:39:15*
%MOMM*%
%LPD*%
G01*
G04 APERTURE LIST*
G04 Aperture macros list*
%AMRoundRect*
0 Rectangle with rounded corners*
0 $1 Rounding radius*
0 $2 $3 $4 $5 $6 $7 $8 $9 X,Y pos of 4 corners*
0 Add a 4 corners polygon primitive as box body*
4,1,4,$2,$3,$4,$5,$6,$7,$8,$9,$2,$3,0*
0 Add four circle primitives for the rounded corners*
1,1,$1+$1,$2,$3*
1,1,$1+$1,$4,$5*
1,1,$1+$1,$6,$7*
1,1,$1+$1,$8,$9*
0 Add four rect primitives between the rounded corners*
20,1,$1+$1,$2,$3,$4,$5,0*
20,1,$1+$1,$4,$5,$6,$7,0*
20,1,$1+$1,$6,$7,$8,$9,0*
20,1,$1+$1,$8,$9,$2,$3,0*%
G04 Aperture macros list end*
%ADD10RoundRect,0.250000X-0.450000X0.350000X-0.450000X-0.350000X0.450000X-0.350000X0.450000X0.350000X0*%
%ADD11RoundRect,0.237500X0.237500X-0.250000X0.237500X0.250000X-0.237500X0.250000X-0.237500X-0.250000X0*%
%ADD12RoundRect,0.162500X-0.162500X0.617500X-0.162500X-0.617500X0.162500X-0.617500X0.162500X0.617500X0*%
%ADD13RoundRect,0.250000X0.450000X-0.325000X0.450000X0.325000X-0.450000X0.325000X-0.450000X-0.325000X0*%
%ADD14RoundRect,0.250000X0.650000X-1.000000X0.650000X1.000000X-0.650000X1.000000X-0.650000X-1.000000X0*%
%ADD15RoundRect,0.237500X-0.237500X0.250000X-0.237500X-0.250000X0.237500X-0.250000X0.237500X0.250000X0*%
%ADD16RoundRect,0.250000X0.450000X-0.350000X0.450000X0.350000X-0.450000X0.350000X-0.450000X-0.350000X0*%
%ADD17RoundRect,0.250000X0.350000X0.450000X-0.350000X0.450000X-0.350000X-0.450000X0.350000X-0.450000X0*%
%ADD18RoundRect,0.250001X2.474999X-0.799999X2.474999X0.799999X-2.474999X0.799999X-2.474999X-0.799999X0*%
%ADD19RoundRect,0.250000X0.475000X-0.337500X0.475000X0.337500X-0.475000X0.337500X-0.475000X-0.337500X0*%
%ADD20R,1.050000X0.650000*%
%ADD21RoundRect,0.250000X-0.337500X-0.475000X0.337500X-0.475000X0.337500X0.475000X-0.337500X0.475000X0*%
%ADD22RoundRect,0.250001X0.872499X0.944999X-0.872499X0.944999X-0.872499X-0.944999X0.872499X-0.944999X0*%
%ADD23R,1.500000X0.900000*%
%ADD24R,0.900000X1.500000*%
%ADD25R,0.900000X0.900000*%
%ADD26RoundRect,0.150000X-0.587500X-0.150000X0.587500X-0.150000X0.587500X0.150000X-0.587500X0.150000X0*%
%ADD27RoundRect,0.250000X0.337500X0.475000X-0.337500X0.475000X-0.337500X-0.475000X0.337500X-0.475000X0*%
%ADD28RoundRect,0.237500X-0.237500X0.300000X-0.237500X-0.300000X0.237500X-0.300000X0.237500X0.300000X0*%
%ADD29R,5.100000X2.350000*%
%ADD30RoundRect,0.250000X-2.375000X2.025000X-2.375000X-2.025000X2.375000X-2.025000X2.375000X2.025000X0*%
%ADD31RoundRect,0.250000X-0.300000X2.050000X-0.300000X-2.050000X0.300000X-2.050000X0.300000X2.050000X0*%
G04 APERTURE END LIST*
D10*
%TO.C,R0*%
X164500000Y-91500000D03*
X164500000Y-93500000D03*
%TD*%
D11*
%TO.C,R4*%
X157900000Y-64282323D03*
X157900000Y-62457323D03*
%TD*%
D12*
%TO.C,U3*%
X149400000Y-72082323D03*
X148450000Y-72082323D03*
X147500000Y-72082323D03*
X147500000Y-74782323D03*
X148450000Y-74782323D03*
X149400000Y-74782323D03*
%TD*%
D13*
%TO.C,D1*%
X164500000Y-97325000D03*
X164500000Y-95275000D03*
%TD*%
D14*
%TO.C,D_TVS1*%
X132500000Y-83600000D03*
X132500000Y-79600000D03*
%TD*%
D15*
%TO.C,R1*%
X148400000Y-62482323D03*
X148400000Y-64307323D03*
%TD*%
D16*
%TO.C,Rbot1*%
X133500000Y-58000000D03*
X133500000Y-56000000D03*
%TD*%
D17*
%TO.C,R5*%
X149500000Y-68832323D03*
X147500000Y-68832323D03*
%TD*%
D18*
%TO.C,Polyfuse1*%
X133000000Y-93975000D03*
X133000000Y-87025000D03*
%TD*%
D19*
%TO.C,C2*%
X145600000Y-64837500D03*
X145600000Y-62762500D03*
%TD*%
D20*
%TO.C,SW2*%
X147175000Y-38975000D03*
X143025000Y-38975000D03*
X147175000Y-36825000D03*
X143025000Y-36825000D03*
%TD*%
D21*
%TO.C,C3*%
X136462500Y-46300000D03*
X138537500Y-46300000D03*
%TD*%
D20*
%TO.C,SW1*%
X153575000Y-38975000D03*
X149425000Y-38975000D03*
X153575000Y-36825000D03*
X149425000Y-36825000D03*
%TD*%
D16*
%TO.C,Rtop1*%
X130800000Y-58000000D03*
X130800000Y-56000000D03*
%TD*%
D14*
%TO.C,D2*%
X137200000Y-58800000D03*
X137200000Y-54800000D03*
%TD*%
D11*
%TO.C,R2*%
X151550000Y-64294823D03*
X151550000Y-62469823D03*
%TD*%
D22*
%TO.C,COUT2*%
X144957500Y-50400000D03*
X139842500Y-50400000D03*
%TD*%
D23*
%TO.C,U1*%
X148550000Y-42212323D03*
X148550000Y-43482323D03*
X148550000Y-44752323D03*
X148550000Y-46022323D03*
X148550000Y-47292323D03*
X148550000Y-48562323D03*
X148550000Y-49832323D03*
X148550000Y-51102323D03*
X148550000Y-52372323D03*
X148550000Y-53642323D03*
X148550000Y-54912323D03*
X148550000Y-56182323D03*
X148550000Y-57452323D03*
X148550000Y-58722323D03*
D24*
X151585000Y-59972323D03*
X152855000Y-59972323D03*
X154125000Y-59972323D03*
X155395000Y-59972323D03*
X156665000Y-59972323D03*
X157935000Y-59972323D03*
X159205000Y-59972323D03*
X160475000Y-59972323D03*
X161745000Y-59972323D03*
X163015000Y-59972323D03*
D23*
X166050000Y-58722323D03*
X166050000Y-57452323D03*
X166050000Y-56182323D03*
X166050000Y-54912323D03*
X166050000Y-53642323D03*
X166050000Y-52372323D03*
X166050000Y-51102323D03*
X166050000Y-49832323D03*
X166050000Y-48562323D03*
X166050000Y-47292323D03*
X166050000Y-46022323D03*
X166050000Y-44752323D03*
X166050000Y-43482323D03*
X166050000Y-42212323D03*
D25*
X154400000Y-48532323D03*
X155800000Y-48532323D03*
X157200000Y-48532323D03*
X154400000Y-49932323D03*
X155800000Y-49932323D03*
X157200000Y-49932323D03*
X154400000Y-51332323D03*
X155800000Y-51332323D03*
X157200000Y-51332323D03*
%TD*%
D26*
%TO.C,IO0_CTRL1*%
X152525000Y-67332323D03*
X152525000Y-69232323D03*
X154400000Y-68282323D03*
%TD*%
%TO.C,EN_CTRL1*%
X159025000Y-67332323D03*
X159025000Y-69232323D03*
X160900000Y-68282323D03*
%TD*%
D27*
%TO.C,COUT1*%
X144437500Y-46300000D03*
X142362500Y-46300000D03*
%TD*%
D28*
%TO.C,C4*%
X160900000Y-62419823D03*
X160900000Y-64144823D03*
%TD*%
D19*
%TO.C,CIN1*%
X143200000Y-64837500D03*
X143200000Y-62762500D03*
%TD*%
D29*
%TO.C,L1*%
X143000000Y-58875000D03*
X143000000Y-54725000D03*
%TD*%
D11*
%TO.C,R3*%
X154800000Y-64282323D03*
X154800000Y-62457323D03*
%TD*%
D30*
%TO.C,U4*%
X138775000Y-70575000D03*
X133225000Y-70575000D03*
X138775000Y-75425000D03*
X133225000Y-75425000D03*
D31*
X139400000Y-63850000D03*
X137700000Y-63850000D03*
X136000000Y-63850000D03*
X134300000Y-63850000D03*
X132600000Y-63850000D03*
%TD*%
M02*
