%TF.GenerationSoftware,KiCad,Pcbnew,9.0.1*%
%TF.CreationDate,2026-10-01T23:39:15+02:00*%
%TF.ProjectId,BaseChipOnly,42617365-4368-4697-904f-6e6c792e6b69,rev?*%
%TF.SameCoordinates,Original*%
%TF.FileFunction,Legend,Top*%
%TF.FilePolarity,Positive*%
%FSLAX46Y46*%
G04 Gerber Fmt 4.6, Leading zero omitted, Abs format (unit mm)*
G04 Created by KiCad (PCBNEW 9.0.1) date 2026-10-01 23:39:15*
%MOMM*%
%LPD*%
G01*
G04 APERTURE LIST*
%ADD10C,0.100000*%
%ADD11C,0.150000*%
%ADD12C,0.250000*%
%ADD13C,0.120000*%
%ADD14C,0.200000*%
%ADD15C,0.127000*%
G04 APERTURE END LIST*
D10*
X128865000Y-35357323D02*
X167715000Y-35357323D01*
X167715000Y-103957323D01*
X128865000Y-103957323D01*
X128865000Y-35357323D01*
D11*
X135869523Y-40094295D02*
X136326666Y-40094295D01*
X136098094Y-40894295D02*
X136098094Y-40094295D01*
X136517142Y-40094295D02*
X137050476Y-40894295D01*
X137050476Y-40094295D02*
X136517142Y-40894295D01*
X137507619Y-40094295D02*
X137583809Y-40094295D01*
X137583809Y-40094295D02*
X137660000Y-40132390D01*
X137660000Y-40132390D02*
X137698095Y-40170485D01*
X137698095Y-40170485D02*
X137736190Y-40246676D01*
X137736190Y-40246676D02*
X137774285Y-40399057D01*
X137774285Y-40399057D02*
X137774285Y-40589533D01*
X137774285Y-40589533D02*
X137736190Y-40741914D01*
X137736190Y-40741914D02*
X137698095Y-40818104D01*
X137698095Y-40818104D02*
X137660000Y-40856200D01*
X137660000Y-40856200D02*
X137583809Y-40894295D01*
X137583809Y-40894295D02*
X137507619Y-40894295D01*
X137507619Y-40894295D02*
X137431428Y-40856200D01*
X137431428Y-40856200D02*
X137393333Y-40818104D01*
X137393333Y-40818104D02*
X137355238Y-40741914D01*
X137355238Y-40741914D02*
X137317142Y-40589533D01*
X137317142Y-40589533D02*
X137317142Y-40399057D01*
X137317142Y-40399057D02*
X137355238Y-40246676D01*
X137355238Y-40246676D02*
X137393333Y-40170485D01*
X137393333Y-40170485D02*
X137431428Y-40132390D01*
X137431428Y-40132390D02*
X137507619Y-40094295D01*
X137947618Y-38354819D02*
X137614285Y-37878628D01*
X137376190Y-38354819D02*
X137376190Y-37354819D01*
X137376190Y-37354819D02*
X137757142Y-37354819D01*
X137757142Y-37354819D02*
X137852380Y-37402438D01*
X137852380Y-37402438D02*
X137899999Y-37450057D01*
X137899999Y-37450057D02*
X137947618Y-37545295D01*
X137947618Y-37545295D02*
X137947618Y-37688152D01*
X137947618Y-37688152D02*
X137899999Y-37783390D01*
X137899999Y-37783390D02*
X137852380Y-37831009D01*
X137852380Y-37831009D02*
X137757142Y-37878628D01*
X137757142Y-37878628D02*
X137376190Y-37878628D01*
X138376190Y-37831009D02*
X138709523Y-37831009D01*
X138852380Y-38354819D02*
X138376190Y-38354819D01*
X138376190Y-38354819D02*
X138376190Y-37354819D01*
X138376190Y-37354819D02*
X138852380Y-37354819D01*
X139233333Y-38307200D02*
X139376190Y-38354819D01*
X139376190Y-38354819D02*
X139614285Y-38354819D01*
X139614285Y-38354819D02*
X139709523Y-38307200D01*
X139709523Y-38307200D02*
X139757142Y-38259580D01*
X139757142Y-38259580D02*
X139804761Y-38164342D01*
X139804761Y-38164342D02*
X139804761Y-38069104D01*
X139804761Y-38069104D02*
X139757142Y-37973866D01*
X139757142Y-37973866D02*
X139709523Y-37926247D01*
X139709523Y-37926247D02*
X139614285Y-37878628D01*
X139614285Y-37878628D02*
X139423809Y-37831009D01*
X139423809Y-37831009D02*
X139328571Y-37783390D01*
X139328571Y-37783390D02*
X139280952Y-37735771D01*
X139280952Y-37735771D02*
X139233333Y-37640533D01*
X139233333Y-37640533D02*
X139233333Y-37545295D01*
X139233333Y-37545295D02*
X139280952Y-37450057D01*
X139280952Y-37450057D02*
X139328571Y-37402438D01*
X139328571Y-37402438D02*
X139423809Y-37354819D01*
X139423809Y-37354819D02*
X139661904Y-37354819D01*
X139661904Y-37354819D02*
X139804761Y-37402438D01*
X140233333Y-37831009D02*
X140566666Y-37831009D01*
X140709523Y-38354819D02*
X140233333Y-38354819D01*
X140233333Y-38354819D02*
X140233333Y-37354819D01*
X140233333Y-37354819D02*
X140709523Y-37354819D01*
X140995238Y-37354819D02*
X141566666Y-37354819D01*
X141280952Y-38354819D02*
X141280952Y-37354819D01*
X141025714Y-40894295D02*
X141025714Y-40094295D01*
X141025714Y-40094295D02*
X141216190Y-40094295D01*
X141216190Y-40094295D02*
X141330476Y-40132390D01*
X141330476Y-40132390D02*
X141406666Y-40208580D01*
X141406666Y-40208580D02*
X141444761Y-40284771D01*
X141444761Y-40284771D02*
X141482857Y-40437152D01*
X141482857Y-40437152D02*
X141482857Y-40551438D01*
X141482857Y-40551438D02*
X141444761Y-40703819D01*
X141444761Y-40703819D02*
X141406666Y-40780009D01*
X141406666Y-40780009D02*
X141330476Y-40856200D01*
X141330476Y-40856200D02*
X141216190Y-40894295D01*
X141216190Y-40894295D02*
X141025714Y-40894295D01*
X141711428Y-40094295D02*
X142168571Y-40094295D01*
X141939999Y-40894295D02*
X141939999Y-40094295D01*
X142892381Y-40894295D02*
X142625714Y-40513342D01*
X142435238Y-40894295D02*
X142435238Y-40094295D01*
X142435238Y-40094295D02*
X142740000Y-40094295D01*
X142740000Y-40094295D02*
X142816190Y-40132390D01*
X142816190Y-40132390D02*
X142854285Y-40170485D01*
X142854285Y-40170485D02*
X142892381Y-40246676D01*
X142892381Y-40246676D02*
X142892381Y-40360961D01*
X142892381Y-40360961D02*
X142854285Y-40437152D01*
X142854285Y-40437152D02*
X142816190Y-40475247D01*
X142816190Y-40475247D02*
X142740000Y-40513342D01*
X142740000Y-40513342D02*
X142435238Y-40513342D01*
X131170476Y-40132390D02*
X131094286Y-40094295D01*
X131094286Y-40094295D02*
X130980000Y-40094295D01*
X130980000Y-40094295D02*
X130865714Y-40132390D01*
X130865714Y-40132390D02*
X130789524Y-40208580D01*
X130789524Y-40208580D02*
X130751429Y-40284771D01*
X130751429Y-40284771D02*
X130713333Y-40437152D01*
X130713333Y-40437152D02*
X130713333Y-40551438D01*
X130713333Y-40551438D02*
X130751429Y-40703819D01*
X130751429Y-40703819D02*
X130789524Y-40780009D01*
X130789524Y-40780009D02*
X130865714Y-40856200D01*
X130865714Y-40856200D02*
X130980000Y-40894295D01*
X130980000Y-40894295D02*
X131056191Y-40894295D01*
X131056191Y-40894295D02*
X131170476Y-40856200D01*
X131170476Y-40856200D02*
X131208572Y-40818104D01*
X131208572Y-40818104D02*
X131208572Y-40551438D01*
X131208572Y-40551438D02*
X131056191Y-40551438D01*
X131551429Y-40894295D02*
X131551429Y-40094295D01*
X131551429Y-40094295D02*
X132008572Y-40894295D01*
X132008572Y-40894295D02*
X132008572Y-40094295D01*
X132389524Y-40894295D02*
X132389524Y-40094295D01*
X132389524Y-40094295D02*
X132580000Y-40094295D01*
X132580000Y-40094295D02*
X132694286Y-40132390D01*
X132694286Y-40132390D02*
X132770476Y-40208580D01*
X132770476Y-40208580D02*
X132808571Y-40284771D01*
X132808571Y-40284771D02*
X132846667Y-40437152D01*
X132846667Y-40437152D02*
X132846667Y-40551438D01*
X132846667Y-40551438D02*
X132808571Y-40703819D01*
X132808571Y-40703819D02*
X132770476Y-40780009D01*
X132770476Y-40780009D02*
X132694286Y-40856200D01*
X132694286Y-40856200D02*
X132580000Y-40894295D01*
X132580000Y-40894295D02*
X132389524Y-40894295D01*
X138885714Y-40894295D02*
X138619047Y-40513342D01*
X138428571Y-40894295D02*
X138428571Y-40094295D01*
X138428571Y-40094295D02*
X138733333Y-40094295D01*
X138733333Y-40094295D02*
X138809523Y-40132390D01*
X138809523Y-40132390D02*
X138847618Y-40170485D01*
X138847618Y-40170485D02*
X138885714Y-40246676D01*
X138885714Y-40246676D02*
X138885714Y-40360961D01*
X138885714Y-40360961D02*
X138847618Y-40437152D01*
X138847618Y-40437152D02*
X138809523Y-40475247D01*
X138809523Y-40475247D02*
X138733333Y-40513342D01*
X138733333Y-40513342D02*
X138428571Y-40513342D01*
X139152380Y-40094295D02*
X139685714Y-40894295D01*
X139685714Y-40094295D02*
X139152380Y-40894295D01*
X140142857Y-40094295D02*
X140219047Y-40094295D01*
X140219047Y-40094295D02*
X140295238Y-40132390D01*
X140295238Y-40132390D02*
X140333333Y-40170485D01*
X140333333Y-40170485D02*
X140371428Y-40246676D01*
X140371428Y-40246676D02*
X140409523Y-40399057D01*
X140409523Y-40399057D02*
X140409523Y-40589533D01*
X140409523Y-40589533D02*
X140371428Y-40741914D01*
X140371428Y-40741914D02*
X140333333Y-40818104D01*
X140333333Y-40818104D02*
X140295238Y-40856200D01*
X140295238Y-40856200D02*
X140219047Y-40894295D01*
X140219047Y-40894295D02*
X140142857Y-40894295D01*
X140142857Y-40894295D02*
X140066666Y-40856200D01*
X140066666Y-40856200D02*
X140028571Y-40818104D01*
X140028571Y-40818104D02*
X139990476Y-40741914D01*
X139990476Y-40741914D02*
X139952380Y-40589533D01*
X139952380Y-40589533D02*
X139952380Y-40399057D01*
X139952380Y-40399057D02*
X139990476Y-40246676D01*
X139990476Y-40246676D02*
X140028571Y-40170485D01*
X140028571Y-40170485D02*
X140066666Y-40132390D01*
X140066666Y-40132390D02*
X140142857Y-40094295D01*
X158761904Y-80434761D02*
X158666666Y-80387142D01*
X158666666Y-80387142D02*
X158523809Y-80387142D01*
X158523809Y-80387142D02*
X158380952Y-80434761D01*
X158380952Y-80434761D02*
X158285714Y-80529999D01*
X158285714Y-80529999D02*
X158238095Y-80625237D01*
X158238095Y-80625237D02*
X158190476Y-80815713D01*
X158190476Y-80815713D02*
X158190476Y-80958570D01*
X158190476Y-80958570D02*
X158238095Y-81149046D01*
X158238095Y-81149046D02*
X158285714Y-81244284D01*
X158285714Y-81244284D02*
X158380952Y-81339523D01*
X158380952Y-81339523D02*
X158523809Y-81387142D01*
X158523809Y-81387142D02*
X158619047Y-81387142D01*
X158619047Y-81387142D02*
X158761904Y-81339523D01*
X158761904Y-81339523D02*
X158809523Y-81291903D01*
X158809523Y-81291903D02*
X158809523Y-80958570D01*
X158809523Y-80958570D02*
X158619047Y-80958570D01*
X133367618Y-40094295D02*
X133862856Y-40094295D01*
X133862856Y-40094295D02*
X133596190Y-40399057D01*
X133596190Y-40399057D02*
X133710475Y-40399057D01*
X133710475Y-40399057D02*
X133786666Y-40437152D01*
X133786666Y-40437152D02*
X133824761Y-40475247D01*
X133824761Y-40475247D02*
X133862856Y-40551438D01*
X133862856Y-40551438D02*
X133862856Y-40741914D01*
X133862856Y-40741914D02*
X133824761Y-40818104D01*
X133824761Y-40818104D02*
X133786666Y-40856200D01*
X133786666Y-40856200D02*
X133710475Y-40894295D01*
X133710475Y-40894295D02*
X133481904Y-40894295D01*
X133481904Y-40894295D02*
X133405713Y-40856200D01*
X133405713Y-40856200D02*
X133367618Y-40818104D01*
X134129523Y-40360961D02*
X134319999Y-40894295D01*
X134319999Y-40894295D02*
X134510476Y-40360961D01*
X134739047Y-40094295D02*
X135234285Y-40094295D01*
X135234285Y-40094295D02*
X134967619Y-40399057D01*
X134967619Y-40399057D02*
X135081904Y-40399057D01*
X135081904Y-40399057D02*
X135158095Y-40437152D01*
X135158095Y-40437152D02*
X135196190Y-40475247D01*
X135196190Y-40475247D02*
X135234285Y-40551438D01*
X135234285Y-40551438D02*
X135234285Y-40741914D01*
X135234285Y-40741914D02*
X135196190Y-40818104D01*
X135196190Y-40818104D02*
X135158095Y-40856200D01*
X135158095Y-40856200D02*
X135081904Y-40894295D01*
X135081904Y-40894295D02*
X134853333Y-40894295D01*
X134853333Y-40894295D02*
X134777142Y-40856200D01*
X134777142Y-40856200D02*
X134739047Y-40818104D01*
X155842857Y-37831009D02*
X155985714Y-37878628D01*
X155985714Y-37878628D02*
X156033333Y-37926247D01*
X156033333Y-37926247D02*
X156080952Y-38021485D01*
X156080952Y-38021485D02*
X156080952Y-38164342D01*
X156080952Y-38164342D02*
X156033333Y-38259580D01*
X156033333Y-38259580D02*
X155985714Y-38307200D01*
X155985714Y-38307200D02*
X155890476Y-38354819D01*
X155890476Y-38354819D02*
X155509524Y-38354819D01*
X155509524Y-38354819D02*
X155509524Y-37354819D01*
X155509524Y-37354819D02*
X155842857Y-37354819D01*
X155842857Y-37354819D02*
X155938095Y-37402438D01*
X155938095Y-37402438D02*
X155985714Y-37450057D01*
X155985714Y-37450057D02*
X156033333Y-37545295D01*
X156033333Y-37545295D02*
X156033333Y-37640533D01*
X156033333Y-37640533D02*
X155985714Y-37735771D01*
X155985714Y-37735771D02*
X155938095Y-37783390D01*
X155938095Y-37783390D02*
X155842857Y-37831009D01*
X155842857Y-37831009D02*
X155509524Y-37831009D01*
X156700000Y-37354819D02*
X156890476Y-37354819D01*
X156890476Y-37354819D02*
X156985714Y-37402438D01*
X156985714Y-37402438D02*
X157080952Y-37497676D01*
X157080952Y-37497676D02*
X157128571Y-37688152D01*
X157128571Y-37688152D02*
X157128571Y-38021485D01*
X157128571Y-38021485D02*
X157080952Y-38211961D01*
X157080952Y-38211961D02*
X156985714Y-38307200D01*
X156985714Y-38307200D02*
X156890476Y-38354819D01*
X156890476Y-38354819D02*
X156700000Y-38354819D01*
X156700000Y-38354819D02*
X156604762Y-38307200D01*
X156604762Y-38307200D02*
X156509524Y-38211961D01*
X156509524Y-38211961D02*
X156461905Y-38021485D01*
X156461905Y-38021485D02*
X156461905Y-37688152D01*
X156461905Y-37688152D02*
X156509524Y-37497676D01*
X156509524Y-37497676D02*
X156604762Y-37402438D01*
X156604762Y-37402438D02*
X156700000Y-37354819D01*
X157747619Y-37354819D02*
X157938095Y-37354819D01*
X157938095Y-37354819D02*
X158033333Y-37402438D01*
X158033333Y-37402438D02*
X158128571Y-37497676D01*
X158128571Y-37497676D02*
X158176190Y-37688152D01*
X158176190Y-37688152D02*
X158176190Y-38021485D01*
X158176190Y-38021485D02*
X158128571Y-38211961D01*
X158128571Y-38211961D02*
X158033333Y-38307200D01*
X158033333Y-38307200D02*
X157938095Y-38354819D01*
X157938095Y-38354819D02*
X157747619Y-38354819D01*
X157747619Y-38354819D02*
X157652381Y-38307200D01*
X157652381Y-38307200D02*
X157557143Y-38211961D01*
X157557143Y-38211961D02*
X157509524Y-38021485D01*
X157509524Y-38021485D02*
X157509524Y-37688152D01*
X157509524Y-37688152D02*
X157557143Y-37497676D01*
X157557143Y-37497676D02*
X157652381Y-37402438D01*
X157652381Y-37402438D02*
X157747619Y-37354819D01*
X158461905Y-37354819D02*
X159033333Y-37354819D01*
X158747619Y-38354819D02*
X158747619Y-37354819D01*
X158216667Y-77837142D02*
X158550000Y-78837142D01*
X158550000Y-78837142D02*
X158883333Y-77837142D01*
X144041905Y-40894295D02*
X143775238Y-40513342D01*
X143584762Y-40894295D02*
X143584762Y-40094295D01*
X143584762Y-40094295D02*
X143889524Y-40094295D01*
X143889524Y-40094295D02*
X143965714Y-40132390D01*
X143965714Y-40132390D02*
X144003809Y-40170485D01*
X144003809Y-40170485D02*
X144041905Y-40246676D01*
X144041905Y-40246676D02*
X144041905Y-40360961D01*
X144041905Y-40360961D02*
X144003809Y-40437152D01*
X144003809Y-40437152D02*
X143965714Y-40475247D01*
X143965714Y-40475247D02*
X143889524Y-40513342D01*
X143889524Y-40513342D02*
X143584762Y-40513342D01*
X144270476Y-40094295D02*
X144727619Y-40094295D01*
X144499047Y-40894295D02*
X144499047Y-40094295D01*
X144956190Y-40856200D02*
X145070476Y-40894295D01*
X145070476Y-40894295D02*
X145260952Y-40894295D01*
X145260952Y-40894295D02*
X145337143Y-40856200D01*
X145337143Y-40856200D02*
X145375238Y-40818104D01*
X145375238Y-40818104D02*
X145413333Y-40741914D01*
X145413333Y-40741914D02*
X145413333Y-40665723D01*
X145413333Y-40665723D02*
X145375238Y-40589533D01*
X145375238Y-40589533D02*
X145337143Y-40551438D01*
X145337143Y-40551438D02*
X145260952Y-40513342D01*
X145260952Y-40513342D02*
X145108571Y-40475247D01*
X145108571Y-40475247D02*
X145032381Y-40437152D01*
X145032381Y-40437152D02*
X144994286Y-40399057D01*
X144994286Y-40399057D02*
X144956190Y-40322866D01*
X144956190Y-40322866D02*
X144956190Y-40246676D01*
X144956190Y-40246676D02*
X144994286Y-40170485D01*
X144994286Y-40170485D02*
X145032381Y-40132390D01*
X145032381Y-40132390D02*
X145108571Y-40094295D01*
X145108571Y-40094295D02*
X145299048Y-40094295D01*
X145299048Y-40094295D02*
X145413333Y-40132390D01*
X158288095Y-76237142D02*
X158288095Y-75237142D01*
X158288095Y-75237142D02*
X158526190Y-75237142D01*
X158526190Y-75237142D02*
X158669047Y-75284761D01*
X158669047Y-75284761D02*
X158764285Y-75379999D01*
X158764285Y-75379999D02*
X158811904Y-75475237D01*
X158811904Y-75475237D02*
X158859523Y-75665713D01*
X158859523Y-75665713D02*
X158859523Y-75808570D01*
X158859523Y-75808570D02*
X158811904Y-75999046D01*
X158811904Y-75999046D02*
X158764285Y-76094284D01*
X158764285Y-76094284D02*
X158669047Y-76189523D01*
X158669047Y-76189523D02*
X158526190Y-76237142D01*
X158526190Y-76237142D02*
X158288095Y-76237142D01*
D12*
X161061143Y-83046286D02*
X161108762Y-82903429D01*
X161108762Y-82903429D02*
X161156381Y-82855810D01*
X161156381Y-82855810D02*
X161251619Y-82808191D01*
X161251619Y-82808191D02*
X161394476Y-82808191D01*
X161394476Y-82808191D02*
X161489714Y-82855810D01*
X161489714Y-82855810D02*
X161537334Y-82903429D01*
X161537334Y-82903429D02*
X161584953Y-82998667D01*
X161584953Y-82998667D02*
X161584953Y-83379619D01*
X161584953Y-83379619D02*
X160584953Y-83379619D01*
X160584953Y-83379619D02*
X160584953Y-83046286D01*
X160584953Y-83046286D02*
X160632572Y-82951048D01*
X160632572Y-82951048D02*
X160680191Y-82903429D01*
X160680191Y-82903429D02*
X160775429Y-82855810D01*
X160775429Y-82855810D02*
X160870667Y-82855810D01*
X160870667Y-82855810D02*
X160965905Y-82903429D01*
X160965905Y-82903429D02*
X161013524Y-82951048D01*
X161013524Y-82951048D02*
X161061143Y-83046286D01*
X161061143Y-83046286D02*
X161061143Y-83379619D01*
X161299238Y-82427238D02*
X161299238Y-81951048D01*
X161584953Y-82522476D02*
X160584953Y-82189143D01*
X160584953Y-82189143D02*
X161584953Y-81855810D01*
X161584953Y-80951048D02*
X161108762Y-81284381D01*
X161584953Y-81522476D02*
X160584953Y-81522476D01*
X160584953Y-81522476D02*
X160584953Y-81141524D01*
X160584953Y-81141524D02*
X160632572Y-81046286D01*
X160632572Y-81046286D02*
X160680191Y-80998667D01*
X160680191Y-80998667D02*
X160775429Y-80951048D01*
X160775429Y-80951048D02*
X160918286Y-80951048D01*
X160918286Y-80951048D02*
X161013524Y-80998667D01*
X161013524Y-80998667D02*
X161061143Y-81046286D01*
X161061143Y-81046286D02*
X161108762Y-81141524D01*
X161108762Y-81141524D02*
X161108762Y-81522476D01*
X161584953Y-80046286D02*
X161584953Y-80522476D01*
X161584953Y-80522476D02*
X160584953Y-80522476D01*
X161299238Y-79760571D02*
X161299238Y-79284381D01*
X161584953Y-79855809D02*
X160584953Y-79522476D01*
X160584953Y-79522476D02*
X161584953Y-79189143D01*
X161584953Y-78284381D02*
X161108762Y-78617714D01*
X161584953Y-78855809D02*
X160584953Y-78855809D01*
X160584953Y-78855809D02*
X160584953Y-78474857D01*
X160584953Y-78474857D02*
X160632572Y-78379619D01*
X160632572Y-78379619D02*
X160680191Y-78332000D01*
X160680191Y-78332000D02*
X160775429Y-78284381D01*
X160775429Y-78284381D02*
X160918286Y-78284381D01*
X160918286Y-78284381D02*
X161013524Y-78332000D01*
X161013524Y-78332000D02*
X161061143Y-78379619D01*
X161061143Y-78379619D02*
X161108762Y-78474857D01*
X161108762Y-78474857D02*
X161108762Y-78855809D01*
X160584953Y-77665333D02*
X160584953Y-77474857D01*
X160584953Y-77474857D02*
X160632572Y-77379619D01*
X160632572Y-77379619D02*
X160727810Y-77284381D01*
X160727810Y-77284381D02*
X160918286Y-77236762D01*
X160918286Y-77236762D02*
X161251619Y-77236762D01*
X161251619Y-77236762D02*
X161442095Y-77284381D01*
X161442095Y-77284381D02*
X161537334Y-77379619D01*
X161537334Y-77379619D02*
X161584953Y-77474857D01*
X161584953Y-77474857D02*
X161584953Y-77665333D01*
X161584953Y-77665333D02*
X161537334Y-77760571D01*
X161537334Y-77760571D02*
X161442095Y-77855809D01*
X161442095Y-77855809D02*
X161251619Y-77903428D01*
X161251619Y-77903428D02*
X160918286Y-77903428D01*
X160918286Y-77903428D02*
X160727810Y-77855809D01*
X160727810Y-77855809D02*
X160632572Y-77760571D01*
X160632572Y-77760571D02*
X160584953Y-77665333D01*
X161584953Y-76808190D02*
X160584953Y-76808190D01*
X161584953Y-76236762D02*
X161013524Y-76665333D01*
X160584953Y-76236762D02*
X161156381Y-76808190D01*
X163147278Y-86165335D02*
X163194897Y-86022478D01*
X163194897Y-86022478D02*
X163194897Y-85784383D01*
X163194897Y-85784383D02*
X163147278Y-85689145D01*
X163147278Y-85689145D02*
X163099658Y-85641526D01*
X163099658Y-85641526D02*
X163004420Y-85593907D01*
X163004420Y-85593907D02*
X162909182Y-85593907D01*
X162909182Y-85593907D02*
X162813944Y-85641526D01*
X162813944Y-85641526D02*
X162766325Y-85689145D01*
X162766325Y-85689145D02*
X162718706Y-85784383D01*
X162718706Y-85784383D02*
X162671087Y-85974859D01*
X162671087Y-85974859D02*
X162623468Y-86070097D01*
X162623468Y-86070097D02*
X162575849Y-86117716D01*
X162575849Y-86117716D02*
X162480611Y-86165335D01*
X162480611Y-86165335D02*
X162385373Y-86165335D01*
X162385373Y-86165335D02*
X162290135Y-86117716D01*
X162290135Y-86117716D02*
X162242516Y-86070097D01*
X162242516Y-86070097D02*
X162194897Y-85974859D01*
X162194897Y-85974859D02*
X162194897Y-85736764D01*
X162194897Y-85736764D02*
X162242516Y-85593907D01*
X163194897Y-85165335D02*
X162528230Y-85165335D01*
X162623468Y-85165335D02*
X162575849Y-85117716D01*
X162575849Y-85117716D02*
X162528230Y-85022478D01*
X162528230Y-85022478D02*
X162528230Y-84879621D01*
X162528230Y-84879621D02*
X162575849Y-84784383D01*
X162575849Y-84784383D02*
X162671087Y-84736764D01*
X162671087Y-84736764D02*
X163194897Y-84736764D01*
X162671087Y-84736764D02*
X162575849Y-84689145D01*
X162575849Y-84689145D02*
X162528230Y-84593907D01*
X162528230Y-84593907D02*
X162528230Y-84451050D01*
X162528230Y-84451050D02*
X162575849Y-84355811D01*
X162575849Y-84355811D02*
X162671087Y-84308192D01*
X162671087Y-84308192D02*
X163194897Y-84308192D01*
X163194897Y-83403431D02*
X162671087Y-83403431D01*
X162671087Y-83403431D02*
X162575849Y-83451050D01*
X162575849Y-83451050D02*
X162528230Y-83546288D01*
X162528230Y-83546288D02*
X162528230Y-83736764D01*
X162528230Y-83736764D02*
X162575849Y-83832002D01*
X163147278Y-83403431D02*
X163194897Y-83498669D01*
X163194897Y-83498669D02*
X163194897Y-83736764D01*
X163194897Y-83736764D02*
X163147278Y-83832002D01*
X163147278Y-83832002D02*
X163052039Y-83879621D01*
X163052039Y-83879621D02*
X162956801Y-83879621D01*
X162956801Y-83879621D02*
X162861563Y-83832002D01*
X162861563Y-83832002D02*
X162813944Y-83736764D01*
X162813944Y-83736764D02*
X162813944Y-83498669D01*
X162813944Y-83498669D02*
X162766325Y-83403431D01*
X163194897Y-82927240D02*
X162528230Y-82927240D01*
X162718706Y-82927240D02*
X162623468Y-82879621D01*
X162623468Y-82879621D02*
X162575849Y-82832002D01*
X162575849Y-82832002D02*
X162528230Y-82736764D01*
X162528230Y-82736764D02*
X162528230Y-82641526D01*
X162528230Y-82451049D02*
X162528230Y-82070097D01*
X162194897Y-82308192D02*
X163052039Y-82308192D01*
X163052039Y-82308192D02*
X163147278Y-82260573D01*
X163147278Y-82260573D02*
X163194897Y-82165335D01*
X163194897Y-82165335D02*
X163194897Y-82070097D01*
X163194897Y-81736763D02*
X162194897Y-81736763D01*
X162194897Y-81736763D02*
X162194897Y-81355811D01*
X162194897Y-81355811D02*
X162242516Y-81260573D01*
X162242516Y-81260573D02*
X162290135Y-81212954D01*
X162290135Y-81212954D02*
X162385373Y-81165335D01*
X162385373Y-81165335D02*
X162528230Y-81165335D01*
X162528230Y-81165335D02*
X162623468Y-81212954D01*
X162623468Y-81212954D02*
X162671087Y-81260573D01*
X162671087Y-81260573D02*
X162718706Y-81355811D01*
X162718706Y-81355811D02*
X162718706Y-81736763D01*
X163194897Y-80593906D02*
X163147278Y-80689144D01*
X163147278Y-80689144D02*
X163052039Y-80736763D01*
X163052039Y-80736763D02*
X162194897Y-80736763D01*
X163194897Y-79784382D02*
X162671087Y-79784382D01*
X162671087Y-79784382D02*
X162575849Y-79832001D01*
X162575849Y-79832001D02*
X162528230Y-79927239D01*
X162528230Y-79927239D02*
X162528230Y-80117715D01*
X162528230Y-80117715D02*
X162575849Y-80212953D01*
X163147278Y-79784382D02*
X163194897Y-79879620D01*
X163194897Y-79879620D02*
X163194897Y-80117715D01*
X163194897Y-80117715D02*
X163147278Y-80212953D01*
X163147278Y-80212953D02*
X163052039Y-80260572D01*
X163052039Y-80260572D02*
X162956801Y-80260572D01*
X162956801Y-80260572D02*
X162861563Y-80212953D01*
X162861563Y-80212953D02*
X162813944Y-80117715D01*
X162813944Y-80117715D02*
X162813944Y-79879620D01*
X162813944Y-79879620D02*
X162766325Y-79784382D01*
X162528230Y-79308191D02*
X163194897Y-79308191D01*
X162623468Y-79308191D02*
X162575849Y-79260572D01*
X162575849Y-79260572D02*
X162528230Y-79165334D01*
X162528230Y-79165334D02*
X162528230Y-79022477D01*
X162528230Y-79022477D02*
X162575849Y-78927239D01*
X162575849Y-78927239D02*
X162671087Y-78879620D01*
X162671087Y-78879620D02*
X163194897Y-78879620D01*
X162528230Y-78546286D02*
X162528230Y-78165334D01*
X162194897Y-78403429D02*
X163052039Y-78403429D01*
X163052039Y-78403429D02*
X163147278Y-78355810D01*
X163147278Y-78355810D02*
X163194897Y-78260572D01*
X163194897Y-78260572D02*
X163194897Y-78165334D01*
X162194897Y-77212952D02*
X162194897Y-76641524D01*
X163194897Y-76927238D02*
X162194897Y-76927238D01*
X163194897Y-76308190D02*
X162528230Y-76308190D01*
X162718706Y-76308190D02*
X162623468Y-76260571D01*
X162623468Y-76260571D02*
X162575849Y-76212952D01*
X162575849Y-76212952D02*
X162528230Y-76117714D01*
X162528230Y-76117714D02*
X162528230Y-76022476D01*
X162528230Y-75260571D02*
X163194897Y-75260571D01*
X162528230Y-75689142D02*
X163052039Y-75689142D01*
X163052039Y-75689142D02*
X163147278Y-75641523D01*
X163147278Y-75641523D02*
X163194897Y-75546285D01*
X163194897Y-75546285D02*
X163194897Y-75403428D01*
X163194897Y-75403428D02*
X163147278Y-75308190D01*
X163147278Y-75308190D02*
X163099658Y-75260571D01*
X162528230Y-74784380D02*
X163194897Y-74784380D01*
X162623468Y-74784380D02*
X162575849Y-74736761D01*
X162575849Y-74736761D02*
X162528230Y-74641523D01*
X162528230Y-74641523D02*
X162528230Y-74498666D01*
X162528230Y-74498666D02*
X162575849Y-74403428D01*
X162575849Y-74403428D02*
X162671087Y-74355809D01*
X162671087Y-74355809D02*
X163194897Y-74355809D01*
X163194897Y-73879618D02*
X162194897Y-73879618D01*
X162813944Y-73784380D02*
X163194897Y-73498666D01*
X162528230Y-73498666D02*
X162909182Y-73879618D01*
X164804841Y-89855811D02*
X163804841Y-89855811D01*
X163804841Y-89855811D02*
X163804841Y-89617716D01*
X163804841Y-89617716D02*
X163852460Y-89474859D01*
X163852460Y-89474859D02*
X163947698Y-89379621D01*
X163947698Y-89379621D02*
X164042936Y-89332002D01*
X164042936Y-89332002D02*
X164233412Y-89284383D01*
X164233412Y-89284383D02*
X164376269Y-89284383D01*
X164376269Y-89284383D02*
X164566745Y-89332002D01*
X164566745Y-89332002D02*
X164661983Y-89379621D01*
X164661983Y-89379621D02*
X164757222Y-89474859D01*
X164757222Y-89474859D02*
X164804841Y-89617716D01*
X164804841Y-89617716D02*
X164804841Y-89855811D01*
X164757222Y-88474859D02*
X164804841Y-88570097D01*
X164804841Y-88570097D02*
X164804841Y-88760573D01*
X164804841Y-88760573D02*
X164757222Y-88855811D01*
X164757222Y-88855811D02*
X164661983Y-88903430D01*
X164661983Y-88903430D02*
X164281031Y-88903430D01*
X164281031Y-88903430D02*
X164185793Y-88855811D01*
X164185793Y-88855811D02*
X164138174Y-88760573D01*
X164138174Y-88760573D02*
X164138174Y-88570097D01*
X164138174Y-88570097D02*
X164185793Y-88474859D01*
X164185793Y-88474859D02*
X164281031Y-88427240D01*
X164281031Y-88427240D02*
X164376269Y-88427240D01*
X164376269Y-88427240D02*
X164471507Y-88903430D01*
X164757222Y-88046287D02*
X164804841Y-87951049D01*
X164804841Y-87951049D02*
X164804841Y-87760573D01*
X164804841Y-87760573D02*
X164757222Y-87665335D01*
X164757222Y-87665335D02*
X164661983Y-87617716D01*
X164661983Y-87617716D02*
X164614364Y-87617716D01*
X164614364Y-87617716D02*
X164519126Y-87665335D01*
X164519126Y-87665335D02*
X164471507Y-87760573D01*
X164471507Y-87760573D02*
X164471507Y-87903430D01*
X164471507Y-87903430D02*
X164423888Y-87998668D01*
X164423888Y-87998668D02*
X164328650Y-88046287D01*
X164328650Y-88046287D02*
X164281031Y-88046287D01*
X164281031Y-88046287D02*
X164185793Y-87998668D01*
X164185793Y-87998668D02*
X164138174Y-87903430D01*
X164138174Y-87903430D02*
X164138174Y-87760573D01*
X164138174Y-87760573D02*
X164185793Y-87665335D01*
X164804841Y-87189144D02*
X164138174Y-87189144D01*
X163804841Y-87189144D02*
X163852460Y-87236763D01*
X163852460Y-87236763D02*
X163900079Y-87189144D01*
X163900079Y-87189144D02*
X163852460Y-87141525D01*
X163852460Y-87141525D02*
X163804841Y-87189144D01*
X163804841Y-87189144D02*
X163900079Y-87189144D01*
X164138174Y-86284383D02*
X164947698Y-86284383D01*
X164947698Y-86284383D02*
X165042936Y-86332002D01*
X165042936Y-86332002D02*
X165090555Y-86379621D01*
X165090555Y-86379621D02*
X165138174Y-86474859D01*
X165138174Y-86474859D02*
X165138174Y-86617716D01*
X165138174Y-86617716D02*
X165090555Y-86712954D01*
X164757222Y-86284383D02*
X164804841Y-86379621D01*
X164804841Y-86379621D02*
X164804841Y-86570097D01*
X164804841Y-86570097D02*
X164757222Y-86665335D01*
X164757222Y-86665335D02*
X164709602Y-86712954D01*
X164709602Y-86712954D02*
X164614364Y-86760573D01*
X164614364Y-86760573D02*
X164328650Y-86760573D01*
X164328650Y-86760573D02*
X164233412Y-86712954D01*
X164233412Y-86712954D02*
X164185793Y-86665335D01*
X164185793Y-86665335D02*
X164138174Y-86570097D01*
X164138174Y-86570097D02*
X164138174Y-86379621D01*
X164138174Y-86379621D02*
X164185793Y-86284383D01*
X164138174Y-85808192D02*
X164804841Y-85808192D01*
X164233412Y-85808192D02*
X164185793Y-85760573D01*
X164185793Y-85760573D02*
X164138174Y-85665335D01*
X164138174Y-85665335D02*
X164138174Y-85522478D01*
X164138174Y-85522478D02*
X164185793Y-85427240D01*
X164185793Y-85427240D02*
X164281031Y-85379621D01*
X164281031Y-85379621D02*
X164804841Y-85379621D01*
X164757222Y-84522478D02*
X164804841Y-84617716D01*
X164804841Y-84617716D02*
X164804841Y-84808192D01*
X164804841Y-84808192D02*
X164757222Y-84903430D01*
X164757222Y-84903430D02*
X164661983Y-84951049D01*
X164661983Y-84951049D02*
X164281031Y-84951049D01*
X164281031Y-84951049D02*
X164185793Y-84903430D01*
X164185793Y-84903430D02*
X164138174Y-84808192D01*
X164138174Y-84808192D02*
X164138174Y-84617716D01*
X164138174Y-84617716D02*
X164185793Y-84522478D01*
X164185793Y-84522478D02*
X164281031Y-84474859D01*
X164281031Y-84474859D02*
X164376269Y-84474859D01*
X164376269Y-84474859D02*
X164471507Y-84951049D01*
X164804841Y-83617716D02*
X163804841Y-83617716D01*
X164757222Y-83617716D02*
X164804841Y-83712954D01*
X164804841Y-83712954D02*
X164804841Y-83903430D01*
X164804841Y-83903430D02*
X164757222Y-83998668D01*
X164757222Y-83998668D02*
X164709602Y-84046287D01*
X164709602Y-84046287D02*
X164614364Y-84093906D01*
X164614364Y-84093906D02*
X164328650Y-84093906D01*
X164328650Y-84093906D02*
X164233412Y-84046287D01*
X164233412Y-84046287D02*
X164185793Y-83998668D01*
X164185793Y-83998668D02*
X164138174Y-83903430D01*
X164138174Y-83903430D02*
X164138174Y-83712954D01*
X164138174Y-83712954D02*
X164185793Y-83617716D01*
X164804841Y-82379620D02*
X163804841Y-82379620D01*
X164185793Y-82379620D02*
X164138174Y-82284382D01*
X164138174Y-82284382D02*
X164138174Y-82093906D01*
X164138174Y-82093906D02*
X164185793Y-81998668D01*
X164185793Y-81998668D02*
X164233412Y-81951049D01*
X164233412Y-81951049D02*
X164328650Y-81903430D01*
X164328650Y-81903430D02*
X164614364Y-81903430D01*
X164614364Y-81903430D02*
X164709602Y-81951049D01*
X164709602Y-81951049D02*
X164757222Y-81998668D01*
X164757222Y-81998668D02*
X164804841Y-82093906D01*
X164804841Y-82093906D02*
X164804841Y-82284382D01*
X164804841Y-82284382D02*
X164757222Y-82379620D01*
X164138174Y-81570096D02*
X164804841Y-81332001D01*
X164138174Y-81093906D02*
X164804841Y-81332001D01*
X164804841Y-81332001D02*
X165042936Y-81427239D01*
X165042936Y-81427239D02*
X165090555Y-81474858D01*
X165090555Y-81474858D02*
X165138174Y-81570096D01*
X164804841Y-79951048D02*
X163804841Y-79951048D01*
X163804841Y-79951048D02*
X164519126Y-79617715D01*
X164519126Y-79617715D02*
X163804841Y-79284382D01*
X163804841Y-79284382D02*
X164804841Y-79284382D01*
X164804841Y-78379620D02*
X164281031Y-78379620D01*
X164281031Y-78379620D02*
X164185793Y-78427239D01*
X164185793Y-78427239D02*
X164138174Y-78522477D01*
X164138174Y-78522477D02*
X164138174Y-78712953D01*
X164138174Y-78712953D02*
X164185793Y-78808191D01*
X164757222Y-78379620D02*
X164804841Y-78474858D01*
X164804841Y-78474858D02*
X164804841Y-78712953D01*
X164804841Y-78712953D02*
X164757222Y-78808191D01*
X164757222Y-78808191D02*
X164661983Y-78855810D01*
X164661983Y-78855810D02*
X164566745Y-78855810D01*
X164566745Y-78855810D02*
X164471507Y-78808191D01*
X164471507Y-78808191D02*
X164423888Y-78712953D01*
X164423888Y-78712953D02*
X164423888Y-78474858D01*
X164423888Y-78474858D02*
X164376269Y-78379620D01*
X164804841Y-77903429D02*
X164138174Y-77903429D01*
X164328650Y-77903429D02*
X164233412Y-77855810D01*
X164233412Y-77855810D02*
X164185793Y-77808191D01*
X164185793Y-77808191D02*
X164138174Y-77712953D01*
X164138174Y-77712953D02*
X164138174Y-77617715D01*
X164757222Y-76855810D02*
X164804841Y-76951048D01*
X164804841Y-76951048D02*
X164804841Y-77141524D01*
X164804841Y-77141524D02*
X164757222Y-77236762D01*
X164757222Y-77236762D02*
X164709602Y-77284381D01*
X164709602Y-77284381D02*
X164614364Y-77332000D01*
X164614364Y-77332000D02*
X164328650Y-77332000D01*
X164328650Y-77332000D02*
X164233412Y-77284381D01*
X164233412Y-77284381D02*
X164185793Y-77236762D01*
X164185793Y-77236762D02*
X164138174Y-77141524D01*
X164138174Y-77141524D02*
X164138174Y-76951048D01*
X164138174Y-76951048D02*
X164185793Y-76855810D01*
X164804841Y-76284381D02*
X164757222Y-76379619D01*
X164757222Y-76379619D02*
X164709602Y-76427238D01*
X164709602Y-76427238D02*
X164614364Y-76474857D01*
X164614364Y-76474857D02*
X164328650Y-76474857D01*
X164328650Y-76474857D02*
X164233412Y-76427238D01*
X164233412Y-76427238D02*
X164185793Y-76379619D01*
X164185793Y-76379619D02*
X164138174Y-76284381D01*
X164138174Y-76284381D02*
X164138174Y-76141524D01*
X164138174Y-76141524D02*
X164185793Y-76046286D01*
X164185793Y-76046286D02*
X164233412Y-75998667D01*
X164233412Y-75998667D02*
X164328650Y-75951048D01*
X164328650Y-75951048D02*
X164614364Y-75951048D01*
X164614364Y-75951048D02*
X164709602Y-75998667D01*
X164709602Y-75998667D02*
X164757222Y-76046286D01*
X164757222Y-76046286D02*
X164804841Y-76141524D01*
X164804841Y-76141524D02*
X164804841Y-76284381D01*
X164281031Y-74427238D02*
X164328650Y-74284381D01*
X164328650Y-74284381D02*
X164376269Y-74236762D01*
X164376269Y-74236762D02*
X164471507Y-74189143D01*
X164471507Y-74189143D02*
X164614364Y-74189143D01*
X164614364Y-74189143D02*
X164709602Y-74236762D01*
X164709602Y-74236762D02*
X164757222Y-74284381D01*
X164757222Y-74284381D02*
X164804841Y-74379619D01*
X164804841Y-74379619D02*
X164804841Y-74760571D01*
X164804841Y-74760571D02*
X163804841Y-74760571D01*
X163804841Y-74760571D02*
X163804841Y-74427238D01*
X163804841Y-74427238D02*
X163852460Y-74332000D01*
X163852460Y-74332000D02*
X163900079Y-74284381D01*
X163900079Y-74284381D02*
X163995317Y-74236762D01*
X163995317Y-74236762D02*
X164090555Y-74236762D01*
X164090555Y-74236762D02*
X164185793Y-74284381D01*
X164185793Y-74284381D02*
X164233412Y-74332000D01*
X164233412Y-74332000D02*
X164281031Y-74427238D01*
X164281031Y-74427238D02*
X164281031Y-74760571D01*
X164804841Y-73332000D02*
X164281031Y-73332000D01*
X164281031Y-73332000D02*
X164185793Y-73379619D01*
X164185793Y-73379619D02*
X164138174Y-73474857D01*
X164138174Y-73474857D02*
X164138174Y-73665333D01*
X164138174Y-73665333D02*
X164185793Y-73760571D01*
X164757222Y-73332000D02*
X164804841Y-73427238D01*
X164804841Y-73427238D02*
X164804841Y-73665333D01*
X164804841Y-73665333D02*
X164757222Y-73760571D01*
X164757222Y-73760571D02*
X164661983Y-73808190D01*
X164661983Y-73808190D02*
X164566745Y-73808190D01*
X164566745Y-73808190D02*
X164471507Y-73760571D01*
X164471507Y-73760571D02*
X164423888Y-73665333D01*
X164423888Y-73665333D02*
X164423888Y-73427238D01*
X164423888Y-73427238D02*
X164376269Y-73332000D01*
X164804841Y-72855809D02*
X164138174Y-72855809D01*
X164328650Y-72855809D02*
X164233412Y-72808190D01*
X164233412Y-72808190D02*
X164185793Y-72760571D01*
X164185793Y-72760571D02*
X164138174Y-72665333D01*
X164138174Y-72665333D02*
X164138174Y-72570095D01*
X164804841Y-72093904D02*
X164757222Y-72189142D01*
X164757222Y-72189142D02*
X164661983Y-72236761D01*
X164661983Y-72236761D02*
X163804841Y-72236761D01*
X164757222Y-71331999D02*
X164804841Y-71427237D01*
X164804841Y-71427237D02*
X164804841Y-71617713D01*
X164804841Y-71617713D02*
X164757222Y-71712951D01*
X164757222Y-71712951D02*
X164661983Y-71760570D01*
X164661983Y-71760570D02*
X164281031Y-71760570D01*
X164281031Y-71760570D02*
X164185793Y-71712951D01*
X164185793Y-71712951D02*
X164138174Y-71617713D01*
X164138174Y-71617713D02*
X164138174Y-71427237D01*
X164138174Y-71427237D02*
X164185793Y-71331999D01*
X164185793Y-71331999D02*
X164281031Y-71284380D01*
X164281031Y-71284380D02*
X164376269Y-71284380D01*
X164376269Y-71284380D02*
X164471507Y-71760570D01*
X164804841Y-70855808D02*
X164138174Y-70855808D01*
X164328650Y-70855808D02*
X164233412Y-70808189D01*
X164233412Y-70808189D02*
X164185793Y-70760570D01*
X164185793Y-70760570D02*
X164138174Y-70665332D01*
X164138174Y-70665332D02*
X164138174Y-70570094D01*
X164804841Y-69808189D02*
X164281031Y-69808189D01*
X164281031Y-69808189D02*
X164185793Y-69855808D01*
X164185793Y-69855808D02*
X164138174Y-69951046D01*
X164138174Y-69951046D02*
X164138174Y-70141522D01*
X164138174Y-70141522D02*
X164185793Y-70236760D01*
X164757222Y-69808189D02*
X164804841Y-69903427D01*
X164804841Y-69903427D02*
X164804841Y-70141522D01*
X164804841Y-70141522D02*
X164757222Y-70236760D01*
X164757222Y-70236760D02*
X164661983Y-70284379D01*
X164661983Y-70284379D02*
X164566745Y-70284379D01*
X164566745Y-70284379D02*
X164471507Y-70236760D01*
X164471507Y-70236760D02*
X164423888Y-70141522D01*
X164423888Y-70141522D02*
X164423888Y-69903427D01*
X164423888Y-69903427D02*
X164376269Y-69808189D01*
X166414785Y-87093905D02*
X165414785Y-87093905D01*
X165890975Y-87093905D02*
X165890975Y-86522477D01*
X166414785Y-86522477D02*
X165414785Y-86522477D01*
X165414785Y-86141524D02*
X166414785Y-85903429D01*
X166414785Y-85903429D02*
X165700499Y-85712953D01*
X165700499Y-85712953D02*
X166414785Y-85522477D01*
X166414785Y-85522477D02*
X165414785Y-85284382D01*
X166414785Y-83570096D02*
X165938594Y-83903429D01*
X166414785Y-84141524D02*
X165414785Y-84141524D01*
X165414785Y-84141524D02*
X165414785Y-83760572D01*
X165414785Y-83760572D02*
X165462404Y-83665334D01*
X165462404Y-83665334D02*
X165510023Y-83617715D01*
X165510023Y-83617715D02*
X165605261Y-83570096D01*
X165605261Y-83570096D02*
X165748118Y-83570096D01*
X165748118Y-83570096D02*
X165843356Y-83617715D01*
X165843356Y-83617715D02*
X165890975Y-83665334D01*
X165890975Y-83665334D02*
X165938594Y-83760572D01*
X165938594Y-83760572D02*
X165938594Y-84141524D01*
X166367166Y-82760572D02*
X166414785Y-82855810D01*
X166414785Y-82855810D02*
X166414785Y-83046286D01*
X166414785Y-83046286D02*
X166367166Y-83141524D01*
X166367166Y-83141524D02*
X166271927Y-83189143D01*
X166271927Y-83189143D02*
X165890975Y-83189143D01*
X165890975Y-83189143D02*
X165795737Y-83141524D01*
X165795737Y-83141524D02*
X165748118Y-83046286D01*
X165748118Y-83046286D02*
X165748118Y-82855810D01*
X165748118Y-82855810D02*
X165795737Y-82760572D01*
X165795737Y-82760572D02*
X165890975Y-82712953D01*
X165890975Y-82712953D02*
X165986213Y-82712953D01*
X165986213Y-82712953D02*
X166081451Y-83189143D01*
X165748118Y-82379619D02*
X166414785Y-82141524D01*
X166414785Y-82141524D02*
X165748118Y-81903429D01*
X165510023Y-80808190D02*
X165462404Y-80760571D01*
X165462404Y-80760571D02*
X165414785Y-80665333D01*
X165414785Y-80665333D02*
X165414785Y-80427238D01*
X165414785Y-80427238D02*
X165462404Y-80332000D01*
X165462404Y-80332000D02*
X165510023Y-80284381D01*
X165510023Y-80284381D02*
X165605261Y-80236762D01*
X165605261Y-80236762D02*
X165700499Y-80236762D01*
X165700499Y-80236762D02*
X165843356Y-80284381D01*
X165843356Y-80284381D02*
X166414785Y-80855809D01*
X166414785Y-80855809D02*
X166414785Y-80236762D01*
X166319546Y-79808190D02*
X166367166Y-79760571D01*
X166367166Y-79760571D02*
X166414785Y-79808190D01*
X166414785Y-79808190D02*
X166367166Y-79855809D01*
X166367166Y-79855809D02*
X166319546Y-79808190D01*
X166319546Y-79808190D02*
X166414785Y-79808190D01*
X165414785Y-79141524D02*
X165414785Y-79046286D01*
X165414785Y-79046286D02*
X165462404Y-78951048D01*
X165462404Y-78951048D02*
X165510023Y-78903429D01*
X165510023Y-78903429D02*
X165605261Y-78855810D01*
X165605261Y-78855810D02*
X165795737Y-78808191D01*
X165795737Y-78808191D02*
X166033832Y-78808191D01*
X166033832Y-78808191D02*
X166224308Y-78855810D01*
X166224308Y-78855810D02*
X166319546Y-78903429D01*
X166319546Y-78903429D02*
X166367166Y-78951048D01*
X166367166Y-78951048D02*
X166414785Y-79046286D01*
X166414785Y-79046286D02*
X166414785Y-79141524D01*
X166414785Y-79141524D02*
X166367166Y-79236762D01*
X166367166Y-79236762D02*
X166319546Y-79284381D01*
X166319546Y-79284381D02*
X166224308Y-79332000D01*
X166224308Y-79332000D02*
X166033832Y-79379619D01*
X166033832Y-79379619D02*
X165795737Y-79379619D01*
X165795737Y-79379619D02*
X165605261Y-79332000D01*
X165605261Y-79332000D02*
X165510023Y-79284381D01*
X165510023Y-79284381D02*
X165462404Y-79236762D01*
X165462404Y-79236762D02*
X165414785Y-79141524D01*
X166748118Y-77379619D02*
X165319546Y-77379619D01*
X165510023Y-75951047D02*
X165462404Y-75903428D01*
X165462404Y-75903428D02*
X165414785Y-75808190D01*
X165414785Y-75808190D02*
X165414785Y-75570095D01*
X165414785Y-75570095D02*
X165462404Y-75474857D01*
X165462404Y-75474857D02*
X165510023Y-75427238D01*
X165510023Y-75427238D02*
X165605261Y-75379619D01*
X165605261Y-75379619D02*
X165700499Y-75379619D01*
X165700499Y-75379619D02*
X165843356Y-75427238D01*
X165843356Y-75427238D02*
X166414785Y-75998666D01*
X166414785Y-75998666D02*
X166414785Y-75379619D01*
X165414785Y-74760571D02*
X165414785Y-74665333D01*
X165414785Y-74665333D02*
X165462404Y-74570095D01*
X165462404Y-74570095D02*
X165510023Y-74522476D01*
X165510023Y-74522476D02*
X165605261Y-74474857D01*
X165605261Y-74474857D02*
X165795737Y-74427238D01*
X165795737Y-74427238D02*
X166033832Y-74427238D01*
X166033832Y-74427238D02*
X166224308Y-74474857D01*
X166224308Y-74474857D02*
X166319546Y-74522476D01*
X166319546Y-74522476D02*
X166367166Y-74570095D01*
X166367166Y-74570095D02*
X166414785Y-74665333D01*
X166414785Y-74665333D02*
X166414785Y-74760571D01*
X166414785Y-74760571D02*
X166367166Y-74855809D01*
X166367166Y-74855809D02*
X166319546Y-74903428D01*
X166319546Y-74903428D02*
X166224308Y-74951047D01*
X166224308Y-74951047D02*
X166033832Y-74998666D01*
X166033832Y-74998666D02*
X165795737Y-74998666D01*
X165795737Y-74998666D02*
X165605261Y-74951047D01*
X165605261Y-74951047D02*
X165510023Y-74903428D01*
X165510023Y-74903428D02*
X165462404Y-74855809D01*
X165462404Y-74855809D02*
X165414785Y-74760571D01*
X165510023Y-74046285D02*
X165462404Y-73998666D01*
X165462404Y-73998666D02*
X165414785Y-73903428D01*
X165414785Y-73903428D02*
X165414785Y-73665333D01*
X165414785Y-73665333D02*
X165462404Y-73570095D01*
X165462404Y-73570095D02*
X165510023Y-73522476D01*
X165510023Y-73522476D02*
X165605261Y-73474857D01*
X165605261Y-73474857D02*
X165700499Y-73474857D01*
X165700499Y-73474857D02*
X165843356Y-73522476D01*
X165843356Y-73522476D02*
X166414785Y-74093904D01*
X166414785Y-74093904D02*
X166414785Y-73474857D01*
X165414785Y-72617714D02*
X165414785Y-72808190D01*
X165414785Y-72808190D02*
X165462404Y-72903428D01*
X165462404Y-72903428D02*
X165510023Y-72951047D01*
X165510023Y-72951047D02*
X165652880Y-73046285D01*
X165652880Y-73046285D02*
X165843356Y-73093904D01*
X165843356Y-73093904D02*
X166224308Y-73093904D01*
X166224308Y-73093904D02*
X166319546Y-73046285D01*
X166319546Y-73046285D02*
X166367166Y-72998666D01*
X166367166Y-72998666D02*
X166414785Y-72903428D01*
X166414785Y-72903428D02*
X166414785Y-72712952D01*
X166414785Y-72712952D02*
X166367166Y-72617714D01*
X166367166Y-72617714D02*
X166319546Y-72570095D01*
X166319546Y-72570095D02*
X166224308Y-72522476D01*
X166224308Y-72522476D02*
X165986213Y-72522476D01*
X165986213Y-72522476D02*
X165890975Y-72570095D01*
X165890975Y-72570095D02*
X165843356Y-72617714D01*
X165843356Y-72617714D02*
X165795737Y-72712952D01*
X165795737Y-72712952D02*
X165795737Y-72903428D01*
X165795737Y-72903428D02*
X165843356Y-72998666D01*
X165843356Y-72998666D02*
X165890975Y-73046285D01*
X165890975Y-73046285D02*
X165986213Y-73093904D01*
D11*
X166362295Y-92633332D02*
X165981342Y-92899999D01*
X166362295Y-93090475D02*
X165562295Y-93090475D01*
X165562295Y-93090475D02*
X165562295Y-92785713D01*
X165562295Y-92785713D02*
X165600390Y-92709523D01*
X165600390Y-92709523D02*
X165638485Y-92671428D01*
X165638485Y-92671428D02*
X165714676Y-92633332D01*
X165714676Y-92633332D02*
X165828961Y-92633332D01*
X165828961Y-92633332D02*
X165905152Y-92671428D01*
X165905152Y-92671428D02*
X165943247Y-92709523D01*
X165943247Y-92709523D02*
X165981342Y-92785713D01*
X165981342Y-92785713D02*
X165981342Y-93090475D01*
X165562295Y-92138094D02*
X165562295Y-92061904D01*
X165562295Y-92061904D02*
X165600390Y-91985713D01*
X165600390Y-91985713D02*
X165638485Y-91947618D01*
X165638485Y-91947618D02*
X165714676Y-91909523D01*
X165714676Y-91909523D02*
X165867057Y-91871428D01*
X165867057Y-91871428D02*
X166057533Y-91871428D01*
X166057533Y-91871428D02*
X166209914Y-91909523D01*
X166209914Y-91909523D02*
X166286104Y-91947618D01*
X166286104Y-91947618D02*
X166324200Y-91985713D01*
X166324200Y-91985713D02*
X166362295Y-92061904D01*
X166362295Y-92061904D02*
X166362295Y-92138094D01*
X166362295Y-92138094D02*
X166324200Y-92214285D01*
X166324200Y-92214285D02*
X166286104Y-92252380D01*
X166286104Y-92252380D02*
X166209914Y-92290475D01*
X166209914Y-92290475D02*
X166057533Y-92328571D01*
X166057533Y-92328571D02*
X165867057Y-92328571D01*
X165867057Y-92328571D02*
X165714676Y-92290475D01*
X165714676Y-92290475D02*
X165638485Y-92252380D01*
X165638485Y-92252380D02*
X165600390Y-92214285D01*
X165600390Y-92214285D02*
X165562295Y-92138094D01*
X156832295Y-63503155D02*
X156451342Y-63769822D01*
X156832295Y-63960298D02*
X156032295Y-63960298D01*
X156032295Y-63960298D02*
X156032295Y-63655536D01*
X156032295Y-63655536D02*
X156070390Y-63579346D01*
X156070390Y-63579346D02*
X156108485Y-63541251D01*
X156108485Y-63541251D02*
X156184676Y-63503155D01*
X156184676Y-63503155D02*
X156298961Y-63503155D01*
X156298961Y-63503155D02*
X156375152Y-63541251D01*
X156375152Y-63541251D02*
X156413247Y-63579346D01*
X156413247Y-63579346D02*
X156451342Y-63655536D01*
X156451342Y-63655536D02*
X156451342Y-63960298D01*
X156298961Y-62817441D02*
X156832295Y-62817441D01*
X155994200Y-63007917D02*
X156565628Y-63198394D01*
X156565628Y-63198394D02*
X156565628Y-62703155D01*
X145712295Y-74441846D02*
X146359914Y-74441846D01*
X146359914Y-74441846D02*
X146436104Y-74403751D01*
X146436104Y-74403751D02*
X146474200Y-74365656D01*
X146474200Y-74365656D02*
X146512295Y-74289465D01*
X146512295Y-74289465D02*
X146512295Y-74137084D01*
X146512295Y-74137084D02*
X146474200Y-74060894D01*
X146474200Y-74060894D02*
X146436104Y-74022799D01*
X146436104Y-74022799D02*
X146359914Y-73984703D01*
X146359914Y-73984703D02*
X145712295Y-73984703D01*
X145712295Y-73679942D02*
X145712295Y-73184704D01*
X145712295Y-73184704D02*
X146017057Y-73451370D01*
X146017057Y-73451370D02*
X146017057Y-73337085D01*
X146017057Y-73337085D02*
X146055152Y-73260894D01*
X146055152Y-73260894D02*
X146093247Y-73222799D01*
X146093247Y-73222799D02*
X146169438Y-73184704D01*
X146169438Y-73184704D02*
X146359914Y-73184704D01*
X146359914Y-73184704D02*
X146436104Y-73222799D01*
X146436104Y-73222799D02*
X146474200Y-73260894D01*
X146474200Y-73260894D02*
X146512295Y-73337085D01*
X146512295Y-73337085D02*
X146512295Y-73565656D01*
X146512295Y-73565656D02*
X146474200Y-73641847D01*
X146474200Y-73641847D02*
X146436104Y-73679942D01*
X163212295Y-96890475D02*
X162412295Y-96890475D01*
X162412295Y-96890475D02*
X162412295Y-96699999D01*
X162412295Y-96699999D02*
X162450390Y-96585713D01*
X162450390Y-96585713D02*
X162526580Y-96509523D01*
X162526580Y-96509523D02*
X162602771Y-96471428D01*
X162602771Y-96471428D02*
X162755152Y-96433332D01*
X162755152Y-96433332D02*
X162869438Y-96433332D01*
X162869438Y-96433332D02*
X163021819Y-96471428D01*
X163021819Y-96471428D02*
X163098009Y-96509523D01*
X163098009Y-96509523D02*
X163174200Y-96585713D01*
X163174200Y-96585713D02*
X163212295Y-96699999D01*
X163212295Y-96699999D02*
X163212295Y-96890475D01*
X163212295Y-95671428D02*
X163212295Y-96128571D01*
X163212295Y-95899999D02*
X162412295Y-95899999D01*
X162412295Y-95899999D02*
X162526580Y-95976190D01*
X162526580Y-95976190D02*
X162602771Y-96052380D01*
X162602771Y-96052380D02*
X162640866Y-96128571D01*
X130362295Y-83523809D02*
X129562295Y-83523809D01*
X129562295Y-83523809D02*
X129562295Y-83333333D01*
X129562295Y-83333333D02*
X129600390Y-83219047D01*
X129600390Y-83219047D02*
X129676580Y-83142857D01*
X129676580Y-83142857D02*
X129752771Y-83104762D01*
X129752771Y-83104762D02*
X129905152Y-83066666D01*
X129905152Y-83066666D02*
X130019438Y-83066666D01*
X130019438Y-83066666D02*
X130171819Y-83104762D01*
X130171819Y-83104762D02*
X130248009Y-83142857D01*
X130248009Y-83142857D02*
X130324200Y-83219047D01*
X130324200Y-83219047D02*
X130362295Y-83333333D01*
X130362295Y-83333333D02*
X130362295Y-83523809D01*
X130438485Y-82914286D02*
X130438485Y-82304762D01*
X129562295Y-82228571D02*
X129562295Y-81771428D01*
X130362295Y-82000000D02*
X129562295Y-82000000D01*
X129562295Y-81619047D02*
X130362295Y-81352380D01*
X130362295Y-81352380D02*
X129562295Y-81085714D01*
X130324200Y-80857143D02*
X130362295Y-80742857D01*
X130362295Y-80742857D02*
X130362295Y-80552381D01*
X130362295Y-80552381D02*
X130324200Y-80476190D01*
X130324200Y-80476190D02*
X130286104Y-80438095D01*
X130286104Y-80438095D02*
X130209914Y-80400000D01*
X130209914Y-80400000D02*
X130133723Y-80400000D01*
X130133723Y-80400000D02*
X130057533Y-80438095D01*
X130057533Y-80438095D02*
X130019438Y-80476190D01*
X130019438Y-80476190D02*
X129981342Y-80552381D01*
X129981342Y-80552381D02*
X129943247Y-80704762D01*
X129943247Y-80704762D02*
X129905152Y-80780952D01*
X129905152Y-80780952D02*
X129867057Y-80819047D01*
X129867057Y-80819047D02*
X129790866Y-80857143D01*
X129790866Y-80857143D02*
X129714676Y-80857143D01*
X129714676Y-80857143D02*
X129638485Y-80819047D01*
X129638485Y-80819047D02*
X129600390Y-80780952D01*
X129600390Y-80780952D02*
X129562295Y-80704762D01*
X129562295Y-80704762D02*
X129562295Y-80514285D01*
X129562295Y-80514285D02*
X129600390Y-80400000D01*
X130362295Y-79638095D02*
X130362295Y-80095238D01*
X130362295Y-79866666D02*
X129562295Y-79866666D01*
X129562295Y-79866666D02*
X129676580Y-79942857D01*
X129676580Y-79942857D02*
X129752771Y-80019047D01*
X129752771Y-80019047D02*
X129790866Y-80095238D01*
X147262295Y-63528155D02*
X146881342Y-63794822D01*
X147262295Y-63985298D02*
X146462295Y-63985298D01*
X146462295Y-63985298D02*
X146462295Y-63680536D01*
X146462295Y-63680536D02*
X146500390Y-63604346D01*
X146500390Y-63604346D02*
X146538485Y-63566251D01*
X146538485Y-63566251D02*
X146614676Y-63528155D01*
X146614676Y-63528155D02*
X146728961Y-63528155D01*
X146728961Y-63528155D02*
X146805152Y-63566251D01*
X146805152Y-63566251D02*
X146843247Y-63604346D01*
X146843247Y-63604346D02*
X146881342Y-63680536D01*
X146881342Y-63680536D02*
X146881342Y-63985298D01*
X147262295Y-62766251D02*
X147262295Y-63223394D01*
X147262295Y-62994822D02*
X146462295Y-62994822D01*
X146462295Y-62994822D02*
X146576580Y-63071013D01*
X146576580Y-63071013D02*
X146652771Y-63147203D01*
X146652771Y-63147203D02*
X146690866Y-63223394D01*
X135162295Y-58085714D02*
X134781342Y-58352381D01*
X135162295Y-58542857D02*
X134362295Y-58542857D01*
X134362295Y-58542857D02*
X134362295Y-58238095D01*
X134362295Y-58238095D02*
X134400390Y-58161905D01*
X134400390Y-58161905D02*
X134438485Y-58123810D01*
X134438485Y-58123810D02*
X134514676Y-58085714D01*
X134514676Y-58085714D02*
X134628961Y-58085714D01*
X134628961Y-58085714D02*
X134705152Y-58123810D01*
X134705152Y-58123810D02*
X134743247Y-58161905D01*
X134743247Y-58161905D02*
X134781342Y-58238095D01*
X134781342Y-58238095D02*
X134781342Y-58542857D01*
X135162295Y-57742857D02*
X134362295Y-57742857D01*
X134667057Y-57742857D02*
X134628961Y-57666667D01*
X134628961Y-57666667D02*
X134628961Y-57514286D01*
X134628961Y-57514286D02*
X134667057Y-57438095D01*
X134667057Y-57438095D02*
X134705152Y-57400000D01*
X134705152Y-57400000D02*
X134781342Y-57361905D01*
X134781342Y-57361905D02*
X135009914Y-57361905D01*
X135009914Y-57361905D02*
X135086104Y-57400000D01*
X135086104Y-57400000D02*
X135124200Y-57438095D01*
X135124200Y-57438095D02*
X135162295Y-57514286D01*
X135162295Y-57514286D02*
X135162295Y-57666667D01*
X135162295Y-57666667D02*
X135124200Y-57742857D01*
X135162295Y-56904762D02*
X135124200Y-56980952D01*
X135124200Y-56980952D02*
X135086104Y-57019047D01*
X135086104Y-57019047D02*
X135009914Y-57057143D01*
X135009914Y-57057143D02*
X134781342Y-57057143D01*
X134781342Y-57057143D02*
X134705152Y-57019047D01*
X134705152Y-57019047D02*
X134667057Y-56980952D01*
X134667057Y-56980952D02*
X134628961Y-56904762D01*
X134628961Y-56904762D02*
X134628961Y-56790476D01*
X134628961Y-56790476D02*
X134667057Y-56714285D01*
X134667057Y-56714285D02*
X134705152Y-56676190D01*
X134705152Y-56676190D02*
X134781342Y-56638095D01*
X134781342Y-56638095D02*
X135009914Y-56638095D01*
X135009914Y-56638095D02*
X135086104Y-56676190D01*
X135086104Y-56676190D02*
X135124200Y-56714285D01*
X135124200Y-56714285D02*
X135162295Y-56790476D01*
X135162295Y-56790476D02*
X135162295Y-56904762D01*
X134628961Y-56409523D02*
X134628961Y-56104761D01*
X134362295Y-56295237D02*
X135048009Y-56295237D01*
X135048009Y-56295237D02*
X135124200Y-56257142D01*
X135124200Y-56257142D02*
X135162295Y-56180952D01*
X135162295Y-56180952D02*
X135162295Y-56104761D01*
X135162295Y-55419047D02*
X135162295Y-55876190D01*
X135162295Y-55647618D02*
X134362295Y-55647618D01*
X134362295Y-55647618D02*
X134476580Y-55723809D01*
X134476580Y-55723809D02*
X134552771Y-55799999D01*
X134552771Y-55799999D02*
X134590866Y-55876190D01*
X148216667Y-67694618D02*
X147950000Y-67313665D01*
X147759524Y-67694618D02*
X147759524Y-66894618D01*
X147759524Y-66894618D02*
X148064286Y-66894618D01*
X148064286Y-66894618D02*
X148140476Y-66932713D01*
X148140476Y-66932713D02*
X148178571Y-66970808D01*
X148178571Y-66970808D02*
X148216667Y-67046999D01*
X148216667Y-67046999D02*
X148216667Y-67161284D01*
X148216667Y-67161284D02*
X148178571Y-67237475D01*
X148178571Y-67237475D02*
X148140476Y-67275570D01*
X148140476Y-67275570D02*
X148064286Y-67313665D01*
X148064286Y-67313665D02*
X147759524Y-67313665D01*
X148940476Y-66894618D02*
X148559524Y-66894618D01*
X148559524Y-66894618D02*
X148521428Y-67275570D01*
X148521428Y-67275570D02*
X148559524Y-67237475D01*
X148559524Y-67237475D02*
X148635714Y-67199380D01*
X148635714Y-67199380D02*
X148826190Y-67199380D01*
X148826190Y-67199380D02*
X148902381Y-67237475D01*
X148902381Y-67237475D02*
X148940476Y-67275570D01*
X148940476Y-67275570D02*
X148978571Y-67351761D01*
X148978571Y-67351761D02*
X148978571Y-67542237D01*
X148978571Y-67542237D02*
X148940476Y-67618427D01*
X148940476Y-67618427D02*
X148902381Y-67656523D01*
X148902381Y-67656523D02*
X148826190Y-67694618D01*
X148826190Y-67694618D02*
X148635714Y-67694618D01*
X148635714Y-67694618D02*
X148559524Y-67656523D01*
X148559524Y-67656523D02*
X148521428Y-67618427D01*
X130276190Y-97362295D02*
X130276190Y-96562295D01*
X130276190Y-96562295D02*
X130580952Y-96562295D01*
X130580952Y-96562295D02*
X130657142Y-96600390D01*
X130657142Y-96600390D02*
X130695237Y-96638485D01*
X130695237Y-96638485D02*
X130733333Y-96714676D01*
X130733333Y-96714676D02*
X130733333Y-96828961D01*
X130733333Y-96828961D02*
X130695237Y-96905152D01*
X130695237Y-96905152D02*
X130657142Y-96943247D01*
X130657142Y-96943247D02*
X130580952Y-96981342D01*
X130580952Y-96981342D02*
X130276190Y-96981342D01*
X131190475Y-97362295D02*
X131114285Y-97324200D01*
X131114285Y-97324200D02*
X131076190Y-97286104D01*
X131076190Y-97286104D02*
X131038094Y-97209914D01*
X131038094Y-97209914D02*
X131038094Y-96981342D01*
X131038094Y-96981342D02*
X131076190Y-96905152D01*
X131076190Y-96905152D02*
X131114285Y-96867057D01*
X131114285Y-96867057D02*
X131190475Y-96828961D01*
X131190475Y-96828961D02*
X131304761Y-96828961D01*
X131304761Y-96828961D02*
X131380952Y-96867057D01*
X131380952Y-96867057D02*
X131419047Y-96905152D01*
X131419047Y-96905152D02*
X131457142Y-96981342D01*
X131457142Y-96981342D02*
X131457142Y-97209914D01*
X131457142Y-97209914D02*
X131419047Y-97286104D01*
X131419047Y-97286104D02*
X131380952Y-97324200D01*
X131380952Y-97324200D02*
X131304761Y-97362295D01*
X131304761Y-97362295D02*
X131190475Y-97362295D01*
X131914285Y-97362295D02*
X131838095Y-97324200D01*
X131838095Y-97324200D02*
X131800000Y-97248009D01*
X131800000Y-97248009D02*
X131800000Y-96562295D01*
X132142857Y-96828961D02*
X132333333Y-97362295D01*
X132523810Y-96828961D02*
X132333333Y-97362295D01*
X132333333Y-97362295D02*
X132257143Y-97552771D01*
X132257143Y-97552771D02*
X132219048Y-97590866D01*
X132219048Y-97590866D02*
X132142857Y-97628961D01*
X132714286Y-96828961D02*
X133019048Y-96828961D01*
X132828572Y-97362295D02*
X132828572Y-96676580D01*
X132828572Y-96676580D02*
X132866667Y-96600390D01*
X132866667Y-96600390D02*
X132942857Y-96562295D01*
X132942857Y-96562295D02*
X133019048Y-96562295D01*
X133628572Y-96828961D02*
X133628572Y-97362295D01*
X133285715Y-96828961D02*
X133285715Y-97248009D01*
X133285715Y-97248009D02*
X133323810Y-97324200D01*
X133323810Y-97324200D02*
X133400000Y-97362295D01*
X133400000Y-97362295D02*
X133514286Y-97362295D01*
X133514286Y-97362295D02*
X133590477Y-97324200D01*
X133590477Y-97324200D02*
X133628572Y-97286104D01*
X133971429Y-97324200D02*
X134047620Y-97362295D01*
X134047620Y-97362295D02*
X134200001Y-97362295D01*
X134200001Y-97362295D02*
X134276191Y-97324200D01*
X134276191Y-97324200D02*
X134314287Y-97248009D01*
X134314287Y-97248009D02*
X134314287Y-97209914D01*
X134314287Y-97209914D02*
X134276191Y-97133723D01*
X134276191Y-97133723D02*
X134200001Y-97095628D01*
X134200001Y-97095628D02*
X134085715Y-97095628D01*
X134085715Y-97095628D02*
X134009525Y-97057533D01*
X134009525Y-97057533D02*
X133971429Y-96981342D01*
X133971429Y-96981342D02*
X133971429Y-96943247D01*
X133971429Y-96943247D02*
X134009525Y-96867057D01*
X134009525Y-96867057D02*
X134085715Y-96828961D01*
X134085715Y-96828961D02*
X134200001Y-96828961D01*
X134200001Y-96828961D02*
X134276191Y-96867057D01*
X134961906Y-97324200D02*
X134885715Y-97362295D01*
X134885715Y-97362295D02*
X134733334Y-97362295D01*
X134733334Y-97362295D02*
X134657144Y-97324200D01*
X134657144Y-97324200D02*
X134619048Y-97248009D01*
X134619048Y-97248009D02*
X134619048Y-96943247D01*
X134619048Y-96943247D02*
X134657144Y-96867057D01*
X134657144Y-96867057D02*
X134733334Y-96828961D01*
X134733334Y-96828961D02*
X134885715Y-96828961D01*
X134885715Y-96828961D02*
X134961906Y-96867057D01*
X134961906Y-96867057D02*
X135000001Y-96943247D01*
X135000001Y-96943247D02*
X135000001Y-97019438D01*
X135000001Y-97019438D02*
X134619048Y-97095628D01*
X135761905Y-97362295D02*
X135304762Y-97362295D01*
X135533334Y-97362295D02*
X135533334Y-96562295D01*
X135533334Y-96562295D02*
X135457143Y-96676580D01*
X135457143Y-96676580D02*
X135380953Y-96752771D01*
X135380953Y-96752771D02*
X135304762Y-96790866D01*
X145466667Y-67386103D02*
X145428571Y-67424199D01*
X145428571Y-67424199D02*
X145314286Y-67462294D01*
X145314286Y-67462294D02*
X145238095Y-67462294D01*
X145238095Y-67462294D02*
X145123809Y-67424199D01*
X145123809Y-67424199D02*
X145047619Y-67348008D01*
X145047619Y-67348008D02*
X145009524Y-67271818D01*
X145009524Y-67271818D02*
X144971428Y-67119437D01*
X144971428Y-67119437D02*
X144971428Y-67005151D01*
X144971428Y-67005151D02*
X145009524Y-66852770D01*
X145009524Y-66852770D02*
X145047619Y-66776579D01*
X145047619Y-66776579D02*
X145123809Y-66700389D01*
X145123809Y-66700389D02*
X145238095Y-66662294D01*
X145238095Y-66662294D02*
X145314286Y-66662294D01*
X145314286Y-66662294D02*
X145428571Y-66700389D01*
X145428571Y-66700389D02*
X145466667Y-66738484D01*
X145771428Y-66738484D02*
X145809524Y-66700389D01*
X145809524Y-66700389D02*
X145885714Y-66662294D01*
X145885714Y-66662294D02*
X146076190Y-66662294D01*
X146076190Y-66662294D02*
X146152381Y-66700389D01*
X146152381Y-66700389D02*
X146190476Y-66738484D01*
X146190476Y-66738484D02*
X146228571Y-66814675D01*
X146228571Y-66814675D02*
X146228571Y-66890865D01*
X146228571Y-66890865D02*
X146190476Y-67005151D01*
X146190476Y-67005151D02*
X145733333Y-67462294D01*
X145733333Y-67462294D02*
X146228571Y-67462294D01*
X144033332Y-38224200D02*
X144147618Y-38262295D01*
X144147618Y-38262295D02*
X144338094Y-38262295D01*
X144338094Y-38262295D02*
X144414285Y-38224200D01*
X144414285Y-38224200D02*
X144452380Y-38186104D01*
X144452380Y-38186104D02*
X144490475Y-38109914D01*
X144490475Y-38109914D02*
X144490475Y-38033723D01*
X144490475Y-38033723D02*
X144452380Y-37957533D01*
X144452380Y-37957533D02*
X144414285Y-37919438D01*
X144414285Y-37919438D02*
X144338094Y-37881342D01*
X144338094Y-37881342D02*
X144185713Y-37843247D01*
X144185713Y-37843247D02*
X144109523Y-37805152D01*
X144109523Y-37805152D02*
X144071428Y-37767057D01*
X144071428Y-37767057D02*
X144033332Y-37690866D01*
X144033332Y-37690866D02*
X144033332Y-37614676D01*
X144033332Y-37614676D02*
X144071428Y-37538485D01*
X144071428Y-37538485D02*
X144109523Y-37500390D01*
X144109523Y-37500390D02*
X144185713Y-37462295D01*
X144185713Y-37462295D02*
X144376190Y-37462295D01*
X144376190Y-37462295D02*
X144490475Y-37500390D01*
X144757142Y-37462295D02*
X144947618Y-38262295D01*
X144947618Y-38262295D02*
X145099999Y-37690866D01*
X145099999Y-37690866D02*
X145252380Y-38262295D01*
X145252380Y-38262295D02*
X145442857Y-37462295D01*
X145709523Y-37538485D02*
X145747619Y-37500390D01*
X145747619Y-37500390D02*
X145823809Y-37462295D01*
X145823809Y-37462295D02*
X146014285Y-37462295D01*
X146014285Y-37462295D02*
X146090476Y-37500390D01*
X146090476Y-37500390D02*
X146128571Y-37538485D01*
X146128571Y-37538485D02*
X146166666Y-37614676D01*
X146166666Y-37614676D02*
X146166666Y-37690866D01*
X146166666Y-37690866D02*
X146128571Y-37805152D01*
X146128571Y-37805152D02*
X145671428Y-38262295D01*
X145671428Y-38262295D02*
X146166666Y-38262295D01*
X135286104Y-46433332D02*
X135324200Y-46471428D01*
X135324200Y-46471428D02*
X135362295Y-46585713D01*
X135362295Y-46585713D02*
X135362295Y-46661904D01*
X135362295Y-46661904D02*
X135324200Y-46776190D01*
X135324200Y-46776190D02*
X135248009Y-46852380D01*
X135248009Y-46852380D02*
X135171819Y-46890475D01*
X135171819Y-46890475D02*
X135019438Y-46928571D01*
X135019438Y-46928571D02*
X134905152Y-46928571D01*
X134905152Y-46928571D02*
X134752771Y-46890475D01*
X134752771Y-46890475D02*
X134676580Y-46852380D01*
X134676580Y-46852380D02*
X134600390Y-46776190D01*
X134600390Y-46776190D02*
X134562295Y-46661904D01*
X134562295Y-46661904D02*
X134562295Y-46585713D01*
X134562295Y-46585713D02*
X134600390Y-46471428D01*
X134600390Y-46471428D02*
X134638485Y-46433332D01*
X134562295Y-46166666D02*
X134562295Y-45671428D01*
X134562295Y-45671428D02*
X134867057Y-45938094D01*
X134867057Y-45938094D02*
X134867057Y-45823809D01*
X134867057Y-45823809D02*
X134905152Y-45747618D01*
X134905152Y-45747618D02*
X134943247Y-45709523D01*
X134943247Y-45709523D02*
X135019438Y-45671428D01*
X135019438Y-45671428D02*
X135209914Y-45671428D01*
X135209914Y-45671428D02*
X135286104Y-45709523D01*
X135286104Y-45709523D02*
X135324200Y-45747618D01*
X135324200Y-45747618D02*
X135362295Y-45823809D01*
X135362295Y-45823809D02*
X135362295Y-46052380D01*
X135362295Y-46052380D02*
X135324200Y-46128571D01*
X135324200Y-46128571D02*
X135286104Y-46166666D01*
X150433332Y-38224200D02*
X150547618Y-38262295D01*
X150547618Y-38262295D02*
X150738094Y-38262295D01*
X150738094Y-38262295D02*
X150814285Y-38224200D01*
X150814285Y-38224200D02*
X150852380Y-38186104D01*
X150852380Y-38186104D02*
X150890475Y-38109914D01*
X150890475Y-38109914D02*
X150890475Y-38033723D01*
X150890475Y-38033723D02*
X150852380Y-37957533D01*
X150852380Y-37957533D02*
X150814285Y-37919438D01*
X150814285Y-37919438D02*
X150738094Y-37881342D01*
X150738094Y-37881342D02*
X150585713Y-37843247D01*
X150585713Y-37843247D02*
X150509523Y-37805152D01*
X150509523Y-37805152D02*
X150471428Y-37767057D01*
X150471428Y-37767057D02*
X150433332Y-37690866D01*
X150433332Y-37690866D02*
X150433332Y-37614676D01*
X150433332Y-37614676D02*
X150471428Y-37538485D01*
X150471428Y-37538485D02*
X150509523Y-37500390D01*
X150509523Y-37500390D02*
X150585713Y-37462295D01*
X150585713Y-37462295D02*
X150776190Y-37462295D01*
X150776190Y-37462295D02*
X150890475Y-37500390D01*
X151157142Y-37462295D02*
X151347618Y-38262295D01*
X151347618Y-38262295D02*
X151499999Y-37690866D01*
X151499999Y-37690866D02*
X151652380Y-38262295D01*
X151652380Y-38262295D02*
X151842857Y-37462295D01*
X152566666Y-38262295D02*
X152109523Y-38262295D01*
X152338095Y-38262295D02*
X152338095Y-37462295D01*
X152338095Y-37462295D02*
X152261904Y-37576580D01*
X152261904Y-37576580D02*
X152185714Y-37652771D01*
X152185714Y-37652771D02*
X152109523Y-37690866D01*
X129914285Y-59962295D02*
X129647618Y-59581342D01*
X129457142Y-59962295D02*
X129457142Y-59162295D01*
X129457142Y-59162295D02*
X129761904Y-59162295D01*
X129761904Y-59162295D02*
X129838094Y-59200390D01*
X129838094Y-59200390D02*
X129876189Y-59238485D01*
X129876189Y-59238485D02*
X129914285Y-59314676D01*
X129914285Y-59314676D02*
X129914285Y-59428961D01*
X129914285Y-59428961D02*
X129876189Y-59505152D01*
X129876189Y-59505152D02*
X129838094Y-59543247D01*
X129838094Y-59543247D02*
X129761904Y-59581342D01*
X129761904Y-59581342D02*
X129457142Y-59581342D01*
X130142856Y-59428961D02*
X130447618Y-59428961D01*
X130257142Y-59162295D02*
X130257142Y-59848009D01*
X130257142Y-59848009D02*
X130295237Y-59924200D01*
X130295237Y-59924200D02*
X130371427Y-59962295D01*
X130371427Y-59962295D02*
X130447618Y-59962295D01*
X130828570Y-59962295D02*
X130752380Y-59924200D01*
X130752380Y-59924200D02*
X130714285Y-59886104D01*
X130714285Y-59886104D02*
X130676189Y-59809914D01*
X130676189Y-59809914D02*
X130676189Y-59581342D01*
X130676189Y-59581342D02*
X130714285Y-59505152D01*
X130714285Y-59505152D02*
X130752380Y-59467057D01*
X130752380Y-59467057D02*
X130828570Y-59428961D01*
X130828570Y-59428961D02*
X130942856Y-59428961D01*
X130942856Y-59428961D02*
X131019047Y-59467057D01*
X131019047Y-59467057D02*
X131057142Y-59505152D01*
X131057142Y-59505152D02*
X131095237Y-59581342D01*
X131095237Y-59581342D02*
X131095237Y-59809914D01*
X131095237Y-59809914D02*
X131057142Y-59886104D01*
X131057142Y-59886104D02*
X131019047Y-59924200D01*
X131019047Y-59924200D02*
X130942856Y-59962295D01*
X130942856Y-59962295D02*
X130828570Y-59962295D01*
X131438095Y-59428961D02*
X131438095Y-60228961D01*
X131438095Y-59467057D02*
X131514285Y-59428961D01*
X131514285Y-59428961D02*
X131666666Y-59428961D01*
X131666666Y-59428961D02*
X131742857Y-59467057D01*
X131742857Y-59467057D02*
X131780952Y-59505152D01*
X131780952Y-59505152D02*
X131819047Y-59581342D01*
X131819047Y-59581342D02*
X131819047Y-59809914D01*
X131819047Y-59809914D02*
X131780952Y-59886104D01*
X131780952Y-59886104D02*
X131742857Y-59924200D01*
X131742857Y-59924200D02*
X131666666Y-59962295D01*
X131666666Y-59962295D02*
X131514285Y-59962295D01*
X131514285Y-59962295D02*
X131438095Y-59924200D01*
X132580952Y-59962295D02*
X132123809Y-59962295D01*
X132352381Y-59962295D02*
X132352381Y-59162295D01*
X132352381Y-59162295D02*
X132276190Y-59276580D01*
X132276190Y-59276580D02*
X132200000Y-59352771D01*
X132200000Y-59352771D02*
X132123809Y-59390866D01*
X137562295Y-57388152D02*
X136762295Y-57388152D01*
X136762295Y-57388152D02*
X136762295Y-57197676D01*
X136762295Y-57197676D02*
X136800390Y-57083390D01*
X136800390Y-57083390D02*
X136876580Y-57007200D01*
X136876580Y-57007200D02*
X136952771Y-56969105D01*
X136952771Y-56969105D02*
X137105152Y-56931009D01*
X137105152Y-56931009D02*
X137219438Y-56931009D01*
X137219438Y-56931009D02*
X137371819Y-56969105D01*
X137371819Y-56969105D02*
X137448009Y-57007200D01*
X137448009Y-57007200D02*
X137524200Y-57083390D01*
X137524200Y-57083390D02*
X137562295Y-57197676D01*
X137562295Y-57197676D02*
X137562295Y-57388152D01*
X136838485Y-56626248D02*
X136800390Y-56588152D01*
X136800390Y-56588152D02*
X136762295Y-56511962D01*
X136762295Y-56511962D02*
X136762295Y-56321486D01*
X136762295Y-56321486D02*
X136800390Y-56245295D01*
X136800390Y-56245295D02*
X136838485Y-56207200D01*
X136838485Y-56207200D02*
X136914676Y-56169105D01*
X136914676Y-56169105D02*
X136990866Y-56169105D01*
X136990866Y-56169105D02*
X137105152Y-56207200D01*
X137105152Y-56207200D02*
X137562295Y-56664343D01*
X137562295Y-56664343D02*
X137562295Y-56169105D01*
X150482295Y-63515655D02*
X150101342Y-63782322D01*
X150482295Y-63972798D02*
X149682295Y-63972798D01*
X149682295Y-63972798D02*
X149682295Y-63668036D01*
X149682295Y-63668036D02*
X149720390Y-63591846D01*
X149720390Y-63591846D02*
X149758485Y-63553751D01*
X149758485Y-63553751D02*
X149834676Y-63515655D01*
X149834676Y-63515655D02*
X149948961Y-63515655D01*
X149948961Y-63515655D02*
X150025152Y-63553751D01*
X150025152Y-63553751D02*
X150063247Y-63591846D01*
X150063247Y-63591846D02*
X150101342Y-63668036D01*
X150101342Y-63668036D02*
X150101342Y-63972798D01*
X149758485Y-63210894D02*
X149720390Y-63172798D01*
X149720390Y-63172798D02*
X149682295Y-63096608D01*
X149682295Y-63096608D02*
X149682295Y-62906132D01*
X149682295Y-62906132D02*
X149720390Y-62829941D01*
X149720390Y-62829941D02*
X149758485Y-62791846D01*
X149758485Y-62791846D02*
X149834676Y-62753751D01*
X149834676Y-62753751D02*
X149910866Y-62753751D01*
X149910866Y-62753751D02*
X150025152Y-62791846D01*
X150025152Y-62791846D02*
X150482295Y-63248989D01*
X150482295Y-63248989D02*
X150482295Y-62753751D01*
X133423810Y-50686104D02*
X133385714Y-50724200D01*
X133385714Y-50724200D02*
X133271429Y-50762295D01*
X133271429Y-50762295D02*
X133195238Y-50762295D01*
X133195238Y-50762295D02*
X133080952Y-50724200D01*
X133080952Y-50724200D02*
X133004762Y-50648009D01*
X133004762Y-50648009D02*
X132966667Y-50571819D01*
X132966667Y-50571819D02*
X132928571Y-50419438D01*
X132928571Y-50419438D02*
X132928571Y-50305152D01*
X132928571Y-50305152D02*
X132966667Y-50152771D01*
X132966667Y-50152771D02*
X133004762Y-50076580D01*
X133004762Y-50076580D02*
X133080952Y-50000390D01*
X133080952Y-50000390D02*
X133195238Y-49962295D01*
X133195238Y-49962295D02*
X133271429Y-49962295D01*
X133271429Y-49962295D02*
X133385714Y-50000390D01*
X133385714Y-50000390D02*
X133423810Y-50038485D01*
X133919048Y-49962295D02*
X134071429Y-49962295D01*
X134071429Y-49962295D02*
X134147619Y-50000390D01*
X134147619Y-50000390D02*
X134223810Y-50076580D01*
X134223810Y-50076580D02*
X134261905Y-50228961D01*
X134261905Y-50228961D02*
X134261905Y-50495628D01*
X134261905Y-50495628D02*
X134223810Y-50648009D01*
X134223810Y-50648009D02*
X134147619Y-50724200D01*
X134147619Y-50724200D02*
X134071429Y-50762295D01*
X134071429Y-50762295D02*
X133919048Y-50762295D01*
X133919048Y-50762295D02*
X133842857Y-50724200D01*
X133842857Y-50724200D02*
X133766667Y-50648009D01*
X133766667Y-50648009D02*
X133728571Y-50495628D01*
X133728571Y-50495628D02*
X133728571Y-50228961D01*
X133728571Y-50228961D02*
X133766667Y-50076580D01*
X133766667Y-50076580D02*
X133842857Y-50000390D01*
X133842857Y-50000390D02*
X133919048Y-49962295D01*
X134604762Y-49962295D02*
X134604762Y-50609914D01*
X134604762Y-50609914D02*
X134642857Y-50686104D01*
X134642857Y-50686104D02*
X134680952Y-50724200D01*
X134680952Y-50724200D02*
X134757143Y-50762295D01*
X134757143Y-50762295D02*
X134909524Y-50762295D01*
X134909524Y-50762295D02*
X134985714Y-50724200D01*
X134985714Y-50724200D02*
X135023809Y-50686104D01*
X135023809Y-50686104D02*
X135061905Y-50609914D01*
X135061905Y-50609914D02*
X135061905Y-49962295D01*
X135328571Y-49962295D02*
X135785714Y-49962295D01*
X135557142Y-50762295D02*
X135557142Y-49962295D01*
X136014285Y-50038485D02*
X136052381Y-50000390D01*
X136052381Y-50000390D02*
X136128571Y-49962295D01*
X136128571Y-49962295D02*
X136319047Y-49962295D01*
X136319047Y-49962295D02*
X136395238Y-50000390D01*
X136395238Y-50000390D02*
X136433333Y-50038485D01*
X136433333Y-50038485D02*
X136471428Y-50114676D01*
X136471428Y-50114676D02*
X136471428Y-50190866D01*
X136471428Y-50190866D02*
X136433333Y-50305152D01*
X136433333Y-50305152D02*
X135976190Y-50762295D01*
X135976190Y-50762295D02*
X136471428Y-50762295D01*
X156690476Y-44562295D02*
X156690476Y-45209914D01*
X156690476Y-45209914D02*
X156728571Y-45286104D01*
X156728571Y-45286104D02*
X156766666Y-45324200D01*
X156766666Y-45324200D02*
X156842857Y-45362295D01*
X156842857Y-45362295D02*
X156995238Y-45362295D01*
X156995238Y-45362295D02*
X157071428Y-45324200D01*
X157071428Y-45324200D02*
X157109523Y-45286104D01*
X157109523Y-45286104D02*
X157147619Y-45209914D01*
X157147619Y-45209914D02*
X157147619Y-44562295D01*
X157947618Y-45362295D02*
X157490475Y-45362295D01*
X157719047Y-45362295D02*
X157719047Y-44562295D01*
X157719047Y-44562295D02*
X157642856Y-44676580D01*
X157642856Y-44676580D02*
X157566666Y-44752771D01*
X157566666Y-44752771D02*
X157490475Y-44790866D01*
X150548214Y-70894618D02*
X150548214Y-70094618D01*
X151081547Y-70094618D02*
X151233928Y-70094618D01*
X151233928Y-70094618D02*
X151310118Y-70132713D01*
X151310118Y-70132713D02*
X151386309Y-70208903D01*
X151386309Y-70208903D02*
X151424404Y-70361284D01*
X151424404Y-70361284D02*
X151424404Y-70627951D01*
X151424404Y-70627951D02*
X151386309Y-70780332D01*
X151386309Y-70780332D02*
X151310118Y-70856523D01*
X151310118Y-70856523D02*
X151233928Y-70894618D01*
X151233928Y-70894618D02*
X151081547Y-70894618D01*
X151081547Y-70894618D02*
X151005356Y-70856523D01*
X151005356Y-70856523D02*
X150929166Y-70780332D01*
X150929166Y-70780332D02*
X150891070Y-70627951D01*
X150891070Y-70627951D02*
X150891070Y-70361284D01*
X150891070Y-70361284D02*
X150929166Y-70208903D01*
X150929166Y-70208903D02*
X151005356Y-70132713D01*
X151005356Y-70132713D02*
X151081547Y-70094618D01*
X151919642Y-70094618D02*
X151995832Y-70094618D01*
X151995832Y-70094618D02*
X152072023Y-70132713D01*
X152072023Y-70132713D02*
X152110118Y-70170808D01*
X152110118Y-70170808D02*
X152148213Y-70246999D01*
X152148213Y-70246999D02*
X152186308Y-70399380D01*
X152186308Y-70399380D02*
X152186308Y-70589856D01*
X152186308Y-70589856D02*
X152148213Y-70742237D01*
X152148213Y-70742237D02*
X152110118Y-70818427D01*
X152110118Y-70818427D02*
X152072023Y-70856523D01*
X152072023Y-70856523D02*
X151995832Y-70894618D01*
X151995832Y-70894618D02*
X151919642Y-70894618D01*
X151919642Y-70894618D02*
X151843451Y-70856523D01*
X151843451Y-70856523D02*
X151805356Y-70818427D01*
X151805356Y-70818427D02*
X151767261Y-70742237D01*
X151767261Y-70742237D02*
X151729165Y-70589856D01*
X151729165Y-70589856D02*
X151729165Y-70399380D01*
X151729165Y-70399380D02*
X151767261Y-70246999D01*
X151767261Y-70246999D02*
X151805356Y-70170808D01*
X151805356Y-70170808D02*
X151843451Y-70132713D01*
X151843451Y-70132713D02*
X151919642Y-70094618D01*
X152338690Y-70970808D02*
X152948213Y-70970808D01*
X153595833Y-70818427D02*
X153557737Y-70856523D01*
X153557737Y-70856523D02*
X153443452Y-70894618D01*
X153443452Y-70894618D02*
X153367261Y-70894618D01*
X153367261Y-70894618D02*
X153252975Y-70856523D01*
X153252975Y-70856523D02*
X153176785Y-70780332D01*
X153176785Y-70780332D02*
X153138690Y-70704142D01*
X153138690Y-70704142D02*
X153100594Y-70551761D01*
X153100594Y-70551761D02*
X153100594Y-70437475D01*
X153100594Y-70437475D02*
X153138690Y-70285094D01*
X153138690Y-70285094D02*
X153176785Y-70208903D01*
X153176785Y-70208903D02*
X153252975Y-70132713D01*
X153252975Y-70132713D02*
X153367261Y-70094618D01*
X153367261Y-70094618D02*
X153443452Y-70094618D01*
X153443452Y-70094618D02*
X153557737Y-70132713D01*
X153557737Y-70132713D02*
X153595833Y-70170808D01*
X153824404Y-70094618D02*
X154281547Y-70094618D01*
X154052975Y-70894618D02*
X154052975Y-70094618D01*
X155005357Y-70894618D02*
X154738690Y-70513665D01*
X154548214Y-70894618D02*
X154548214Y-70094618D01*
X154548214Y-70094618D02*
X154852976Y-70094618D01*
X154852976Y-70094618D02*
X154929166Y-70132713D01*
X154929166Y-70132713D02*
X154967261Y-70170808D01*
X154967261Y-70170808D02*
X155005357Y-70246999D01*
X155005357Y-70246999D02*
X155005357Y-70361284D01*
X155005357Y-70361284D02*
X154967261Y-70437475D01*
X154967261Y-70437475D02*
X154929166Y-70475570D01*
X154929166Y-70475570D02*
X154852976Y-70513665D01*
X154852976Y-70513665D02*
X154548214Y-70513665D01*
X155729166Y-70894618D02*
X155348214Y-70894618D01*
X155348214Y-70894618D02*
X155348214Y-70094618D01*
X156414880Y-70894618D02*
X155957737Y-70894618D01*
X156186309Y-70894618D02*
X156186309Y-70094618D01*
X156186309Y-70094618D02*
X156110118Y-70208903D01*
X156110118Y-70208903D02*
X156033928Y-70285094D01*
X156033928Y-70285094D02*
X155957737Y-70323189D01*
X157257738Y-70475570D02*
X157524404Y-70475570D01*
X157638690Y-70894618D02*
X157257738Y-70894618D01*
X157257738Y-70894618D02*
X157257738Y-70094618D01*
X157257738Y-70094618D02*
X157638690Y-70094618D01*
X157981548Y-70894618D02*
X157981548Y-70094618D01*
X157981548Y-70094618D02*
X158438691Y-70894618D01*
X158438691Y-70894618D02*
X158438691Y-70094618D01*
X158629167Y-70970808D02*
X159238690Y-70970808D01*
X159886310Y-70818427D02*
X159848214Y-70856523D01*
X159848214Y-70856523D02*
X159733929Y-70894618D01*
X159733929Y-70894618D02*
X159657738Y-70894618D01*
X159657738Y-70894618D02*
X159543452Y-70856523D01*
X159543452Y-70856523D02*
X159467262Y-70780332D01*
X159467262Y-70780332D02*
X159429167Y-70704142D01*
X159429167Y-70704142D02*
X159391071Y-70551761D01*
X159391071Y-70551761D02*
X159391071Y-70437475D01*
X159391071Y-70437475D02*
X159429167Y-70285094D01*
X159429167Y-70285094D02*
X159467262Y-70208903D01*
X159467262Y-70208903D02*
X159543452Y-70132713D01*
X159543452Y-70132713D02*
X159657738Y-70094618D01*
X159657738Y-70094618D02*
X159733929Y-70094618D01*
X159733929Y-70094618D02*
X159848214Y-70132713D01*
X159848214Y-70132713D02*
X159886310Y-70170808D01*
X160114881Y-70094618D02*
X160572024Y-70094618D01*
X160343452Y-70894618D02*
X160343452Y-70094618D01*
X161295834Y-70894618D02*
X161029167Y-70513665D01*
X160838691Y-70894618D02*
X160838691Y-70094618D01*
X160838691Y-70094618D02*
X161143453Y-70094618D01*
X161143453Y-70094618D02*
X161219643Y-70132713D01*
X161219643Y-70132713D02*
X161257738Y-70170808D01*
X161257738Y-70170808D02*
X161295834Y-70246999D01*
X161295834Y-70246999D02*
X161295834Y-70361284D01*
X161295834Y-70361284D02*
X161257738Y-70437475D01*
X161257738Y-70437475D02*
X161219643Y-70475570D01*
X161219643Y-70475570D02*
X161143453Y-70513665D01*
X161143453Y-70513665D02*
X160838691Y-70513665D01*
X162019643Y-70894618D02*
X161638691Y-70894618D01*
X161638691Y-70894618D02*
X161638691Y-70094618D01*
X162705357Y-70894618D02*
X162248214Y-70894618D01*
X162476786Y-70894618D02*
X162476786Y-70094618D01*
X162476786Y-70094618D02*
X162400595Y-70208903D01*
X162400595Y-70208903D02*
X162324405Y-70285094D01*
X162324405Y-70285094D02*
X162248214Y-70323189D01*
X142123810Y-48186104D02*
X142085714Y-48224200D01*
X142085714Y-48224200D02*
X141971429Y-48262295D01*
X141971429Y-48262295D02*
X141895238Y-48262295D01*
X141895238Y-48262295D02*
X141780952Y-48224200D01*
X141780952Y-48224200D02*
X141704762Y-48148009D01*
X141704762Y-48148009D02*
X141666667Y-48071819D01*
X141666667Y-48071819D02*
X141628571Y-47919438D01*
X141628571Y-47919438D02*
X141628571Y-47805152D01*
X141628571Y-47805152D02*
X141666667Y-47652771D01*
X141666667Y-47652771D02*
X141704762Y-47576580D01*
X141704762Y-47576580D02*
X141780952Y-47500390D01*
X141780952Y-47500390D02*
X141895238Y-47462295D01*
X141895238Y-47462295D02*
X141971429Y-47462295D01*
X141971429Y-47462295D02*
X142085714Y-47500390D01*
X142085714Y-47500390D02*
X142123810Y-47538485D01*
X142619048Y-47462295D02*
X142771429Y-47462295D01*
X142771429Y-47462295D02*
X142847619Y-47500390D01*
X142847619Y-47500390D02*
X142923810Y-47576580D01*
X142923810Y-47576580D02*
X142961905Y-47728961D01*
X142961905Y-47728961D02*
X142961905Y-47995628D01*
X142961905Y-47995628D02*
X142923810Y-48148009D01*
X142923810Y-48148009D02*
X142847619Y-48224200D01*
X142847619Y-48224200D02*
X142771429Y-48262295D01*
X142771429Y-48262295D02*
X142619048Y-48262295D01*
X142619048Y-48262295D02*
X142542857Y-48224200D01*
X142542857Y-48224200D02*
X142466667Y-48148009D01*
X142466667Y-48148009D02*
X142428571Y-47995628D01*
X142428571Y-47995628D02*
X142428571Y-47728961D01*
X142428571Y-47728961D02*
X142466667Y-47576580D01*
X142466667Y-47576580D02*
X142542857Y-47500390D01*
X142542857Y-47500390D02*
X142619048Y-47462295D01*
X143304762Y-47462295D02*
X143304762Y-48109914D01*
X143304762Y-48109914D02*
X143342857Y-48186104D01*
X143342857Y-48186104D02*
X143380952Y-48224200D01*
X143380952Y-48224200D02*
X143457143Y-48262295D01*
X143457143Y-48262295D02*
X143609524Y-48262295D01*
X143609524Y-48262295D02*
X143685714Y-48224200D01*
X143685714Y-48224200D02*
X143723809Y-48186104D01*
X143723809Y-48186104D02*
X143761905Y-48109914D01*
X143761905Y-48109914D02*
X143761905Y-47462295D01*
X144028571Y-47462295D02*
X144485714Y-47462295D01*
X144257142Y-48262295D02*
X144257142Y-47462295D01*
X145171428Y-48262295D02*
X144714285Y-48262295D01*
X144942857Y-48262295D02*
X144942857Y-47462295D01*
X144942857Y-47462295D02*
X144866666Y-47576580D01*
X144866666Y-47576580D02*
X144790476Y-47652771D01*
X144790476Y-47652771D02*
X144714285Y-47690866D01*
X162616104Y-63415655D02*
X162654200Y-63453751D01*
X162654200Y-63453751D02*
X162692295Y-63568036D01*
X162692295Y-63568036D02*
X162692295Y-63644227D01*
X162692295Y-63644227D02*
X162654200Y-63758513D01*
X162654200Y-63758513D02*
X162578009Y-63834703D01*
X162578009Y-63834703D02*
X162501819Y-63872798D01*
X162501819Y-63872798D02*
X162349438Y-63910894D01*
X162349438Y-63910894D02*
X162235152Y-63910894D01*
X162235152Y-63910894D02*
X162082771Y-63872798D01*
X162082771Y-63872798D02*
X162006580Y-63834703D01*
X162006580Y-63834703D02*
X161930390Y-63758513D01*
X161930390Y-63758513D02*
X161892295Y-63644227D01*
X161892295Y-63644227D02*
X161892295Y-63568036D01*
X161892295Y-63568036D02*
X161930390Y-63453751D01*
X161930390Y-63453751D02*
X161968485Y-63415655D01*
X162158961Y-62729941D02*
X162692295Y-62729941D01*
X161854200Y-62920417D02*
X162425628Y-63110894D01*
X162425628Y-63110894D02*
X162425628Y-62615655D01*
X142186104Y-64542856D02*
X142224200Y-64580952D01*
X142224200Y-64580952D02*
X142262295Y-64695237D01*
X142262295Y-64695237D02*
X142262295Y-64771428D01*
X142262295Y-64771428D02*
X142224200Y-64885714D01*
X142224200Y-64885714D02*
X142148009Y-64961904D01*
X142148009Y-64961904D02*
X142071819Y-64999999D01*
X142071819Y-64999999D02*
X141919438Y-65038095D01*
X141919438Y-65038095D02*
X141805152Y-65038095D01*
X141805152Y-65038095D02*
X141652771Y-64999999D01*
X141652771Y-64999999D02*
X141576580Y-64961904D01*
X141576580Y-64961904D02*
X141500390Y-64885714D01*
X141500390Y-64885714D02*
X141462295Y-64771428D01*
X141462295Y-64771428D02*
X141462295Y-64695237D01*
X141462295Y-64695237D02*
X141500390Y-64580952D01*
X141500390Y-64580952D02*
X141538485Y-64542856D01*
X142262295Y-64199999D02*
X141462295Y-64199999D01*
X142262295Y-63819047D02*
X141462295Y-63819047D01*
X141462295Y-63819047D02*
X142262295Y-63361904D01*
X142262295Y-63361904D02*
X141462295Y-63361904D01*
X142262295Y-62561905D02*
X142262295Y-63019048D01*
X142262295Y-62790476D02*
X141462295Y-62790476D01*
X141462295Y-62790476D02*
X141576580Y-62866667D01*
X141576580Y-62866667D02*
X141652771Y-62942857D01*
X141652771Y-62942857D02*
X141690866Y-63019048D01*
X162936104Y-92915655D02*
X162974200Y-92953751D01*
X162974200Y-92953751D02*
X163012295Y-93068036D01*
X163012295Y-93068036D02*
X163012295Y-93144227D01*
X163012295Y-93144227D02*
X162974200Y-93258513D01*
X162974200Y-93258513D02*
X162898009Y-93334703D01*
X162898009Y-93334703D02*
X162821819Y-93372798D01*
X162821819Y-93372798D02*
X162669438Y-93410894D01*
X162669438Y-93410894D02*
X162555152Y-93410894D01*
X162555152Y-93410894D02*
X162402771Y-93372798D01*
X162402771Y-93372798D02*
X162326580Y-93334703D01*
X162326580Y-93334703D02*
X162250390Y-93258513D01*
X162250390Y-93258513D02*
X162212295Y-93144227D01*
X162212295Y-93144227D02*
X162212295Y-93068036D01*
X162212295Y-93068036D02*
X162250390Y-92953751D01*
X162250390Y-92953751D02*
X162288485Y-92915655D01*
X163012295Y-92153751D02*
X163012295Y-92610894D01*
X163012295Y-92382322D02*
X162212295Y-92382322D01*
X162212295Y-92382322D02*
X162326580Y-92458513D01*
X162326580Y-92458513D02*
X162402771Y-92534703D01*
X162402771Y-92534703D02*
X162440866Y-92610894D01*
X142866666Y-57162295D02*
X142485714Y-57162295D01*
X142485714Y-57162295D02*
X142485714Y-56362295D01*
X143552380Y-57162295D02*
X143095237Y-57162295D01*
X143323809Y-57162295D02*
X143323809Y-56362295D01*
X143323809Y-56362295D02*
X143247618Y-56476580D01*
X143247618Y-56476580D02*
X143171428Y-56552771D01*
X143171428Y-56552771D02*
X143095237Y-56590866D01*
X153732295Y-63503155D02*
X153351342Y-63769822D01*
X153732295Y-63960298D02*
X152932295Y-63960298D01*
X152932295Y-63960298D02*
X152932295Y-63655536D01*
X152932295Y-63655536D02*
X152970390Y-63579346D01*
X152970390Y-63579346D02*
X153008485Y-63541251D01*
X153008485Y-63541251D02*
X153084676Y-63503155D01*
X153084676Y-63503155D02*
X153198961Y-63503155D01*
X153198961Y-63503155D02*
X153275152Y-63541251D01*
X153275152Y-63541251D02*
X153313247Y-63579346D01*
X153313247Y-63579346D02*
X153351342Y-63655536D01*
X153351342Y-63655536D02*
X153351342Y-63960298D01*
X152932295Y-63236489D02*
X152932295Y-62741251D01*
X152932295Y-62741251D02*
X153237057Y-63007917D01*
X153237057Y-63007917D02*
X153237057Y-62893632D01*
X153237057Y-62893632D02*
X153275152Y-62817441D01*
X153275152Y-62817441D02*
X153313247Y-62779346D01*
X153313247Y-62779346D02*
X153389438Y-62741251D01*
X153389438Y-62741251D02*
X153579914Y-62741251D01*
X153579914Y-62741251D02*
X153656104Y-62779346D01*
X153656104Y-62779346D02*
X153694200Y-62817441D01*
X153694200Y-62817441D02*
X153732295Y-62893632D01*
X153732295Y-62893632D02*
X153732295Y-63122203D01*
X153732295Y-63122203D02*
X153694200Y-63198394D01*
X153694200Y-63198394D02*
X153656104Y-63236489D01*
X151097619Y-76257142D02*
X151097619Y-75257142D01*
X151097619Y-75257142D02*
X151335714Y-75257142D01*
X151335714Y-75257142D02*
X151478571Y-75304761D01*
X151478571Y-75304761D02*
X151573809Y-75399999D01*
X151573809Y-75399999D02*
X151621428Y-75495237D01*
X151621428Y-75495237D02*
X151669047Y-75685713D01*
X151669047Y-75685713D02*
X151669047Y-75828570D01*
X151669047Y-75828570D02*
X151621428Y-76019046D01*
X151621428Y-76019046D02*
X151573809Y-76114284D01*
X151573809Y-76114284D02*
X151478571Y-76209523D01*
X151478571Y-76209523D02*
X151335714Y-76257142D01*
X151335714Y-76257142D02*
X151097619Y-76257142D01*
X152526190Y-76257142D02*
X152526190Y-75733332D01*
X152526190Y-75733332D02*
X152478571Y-75638094D01*
X152478571Y-75638094D02*
X152383333Y-75590475D01*
X152383333Y-75590475D02*
X152192857Y-75590475D01*
X152192857Y-75590475D02*
X152097619Y-75638094D01*
X152526190Y-76209523D02*
X152430952Y-76257142D01*
X152430952Y-76257142D02*
X152192857Y-76257142D01*
X152192857Y-76257142D02*
X152097619Y-76209523D01*
X152097619Y-76209523D02*
X152050000Y-76114284D01*
X152050000Y-76114284D02*
X152050000Y-76019046D01*
X152050000Y-76019046D02*
X152097619Y-75923808D01*
X152097619Y-75923808D02*
X152192857Y-75876189D01*
X152192857Y-75876189D02*
X152430952Y-75876189D01*
X152430952Y-75876189D02*
X152526190Y-75828570D01*
X152859524Y-75590475D02*
X153240476Y-75590475D01*
X153002381Y-75257142D02*
X153002381Y-76114284D01*
X153002381Y-76114284D02*
X153050000Y-76209523D01*
X153050000Y-76209523D02*
X153145238Y-76257142D01*
X153145238Y-76257142D02*
X153240476Y-76257142D01*
X154002381Y-76257142D02*
X154002381Y-75733332D01*
X154002381Y-75733332D02*
X153954762Y-75638094D01*
X153954762Y-75638094D02*
X153859524Y-75590475D01*
X153859524Y-75590475D02*
X153669048Y-75590475D01*
X153669048Y-75590475D02*
X153573810Y-75638094D01*
X154002381Y-76209523D02*
X153907143Y-76257142D01*
X153907143Y-76257142D02*
X153669048Y-76257142D01*
X153669048Y-76257142D02*
X153573810Y-76209523D01*
X153573810Y-76209523D02*
X153526191Y-76114284D01*
X153526191Y-76114284D02*
X153526191Y-76019046D01*
X153526191Y-76019046D02*
X153573810Y-75923808D01*
X153573810Y-75923808D02*
X153669048Y-75876189D01*
X153669048Y-75876189D02*
X153907143Y-75876189D01*
X153907143Y-75876189D02*
X154002381Y-75828570D01*
X151714762Y-77847142D02*
X152048095Y-78847142D01*
X152048095Y-78847142D02*
X152381428Y-77847142D01*
X152714762Y-78847142D02*
X152714762Y-77847142D01*
X153190952Y-78847142D02*
X153190952Y-77847142D01*
X153190952Y-77847142D02*
X153762380Y-78847142D01*
X153762380Y-78847142D02*
X153762380Y-77847142D01*
X152018095Y-80454761D02*
X151922857Y-80407142D01*
X151922857Y-80407142D02*
X151780000Y-80407142D01*
X151780000Y-80407142D02*
X151637143Y-80454761D01*
X151637143Y-80454761D02*
X151541905Y-80549999D01*
X151541905Y-80549999D02*
X151494286Y-80645237D01*
X151494286Y-80645237D02*
X151446667Y-80835713D01*
X151446667Y-80835713D02*
X151446667Y-80978570D01*
X151446667Y-80978570D02*
X151494286Y-81169046D01*
X151494286Y-81169046D02*
X151541905Y-81264284D01*
X151541905Y-81264284D02*
X151637143Y-81359523D01*
X151637143Y-81359523D02*
X151780000Y-81407142D01*
X151780000Y-81407142D02*
X151875238Y-81407142D01*
X151875238Y-81407142D02*
X152018095Y-81359523D01*
X152018095Y-81359523D02*
X152065714Y-81311903D01*
X152065714Y-81311903D02*
X152065714Y-80978570D01*
X152065714Y-80978570D02*
X151875238Y-80978570D01*
X152494286Y-81407142D02*
X152494286Y-80407142D01*
X152494286Y-80407142D02*
X153065714Y-81407142D01*
X153065714Y-81407142D02*
X153065714Y-80407142D01*
X153541905Y-81407142D02*
X153541905Y-80407142D01*
X153541905Y-80407142D02*
X153780000Y-80407142D01*
X153780000Y-80407142D02*
X153922857Y-80454761D01*
X153922857Y-80454761D02*
X154018095Y-80549999D01*
X154018095Y-80549999D02*
X154065714Y-80645237D01*
X154065714Y-80645237D02*
X154113333Y-80835713D01*
X154113333Y-80835713D02*
X154113333Y-80978570D01*
X154113333Y-80978570D02*
X154065714Y-81169046D01*
X154065714Y-81169046D02*
X154018095Y-81264284D01*
X154018095Y-81264284D02*
X153922857Y-81359523D01*
X153922857Y-81359523D02*
X153780000Y-81407142D01*
X153780000Y-81407142D02*
X153541905Y-81407142D01*
X142212295Y-72109523D02*
X142859914Y-72109523D01*
X142859914Y-72109523D02*
X142936104Y-72071428D01*
X142936104Y-72071428D02*
X142974200Y-72033333D01*
X142974200Y-72033333D02*
X143012295Y-71957142D01*
X143012295Y-71957142D02*
X143012295Y-71804761D01*
X143012295Y-71804761D02*
X142974200Y-71728571D01*
X142974200Y-71728571D02*
X142936104Y-71690476D01*
X142936104Y-71690476D02*
X142859914Y-71652380D01*
X142859914Y-71652380D02*
X142212295Y-71652380D01*
X142478961Y-70928571D02*
X143012295Y-70928571D01*
X142174200Y-71119047D02*
X142745628Y-71309524D01*
X142745628Y-71309524D02*
X142745628Y-70814285D01*
D13*
%TO.C,R0*%
X163765000Y-92272936D02*
X163765000Y-92727064D01*
X165235000Y-92272936D02*
X165235000Y-92727064D01*
%TO.C,R4*%
X157377500Y-63624547D02*
X157377500Y-63115099D01*
X158422500Y-63624547D02*
X158422500Y-63115099D01*
%TO.C,U3*%
X146840000Y-72532323D02*
X146840000Y-74332323D01*
X150060000Y-73532323D02*
X150060000Y-72732323D01*
X150060000Y-73532323D02*
X150060000Y-74332323D01*
X150340000Y-72472323D02*
X150010000Y-72232323D01*
X150340000Y-71992323D01*
X150340000Y-72472323D01*
G36*
X150340000Y-72472323D02*
G01*
X150010000Y-72232323D01*
X150340000Y-71992323D01*
X150340000Y-72472323D01*
G37*
%TO.C,D1*%
X163540000Y-95300000D02*
X163540000Y-98160000D01*
X163540000Y-98160000D02*
X165460000Y-98160000D01*
X165460000Y-98160000D02*
X165460000Y-95300000D01*
%TO.C,D_TVS1*%
X130850000Y-85110000D02*
X130850000Y-79600000D01*
X130850000Y-85110000D02*
X134150000Y-85110000D01*
X134150000Y-85110000D02*
X134150000Y-79600000D01*
%TO.C,R1*%
X147877500Y-63140099D02*
X147877500Y-63649547D01*
X148922500Y-63140099D02*
X148922500Y-63649547D01*
%TO.C,Rbot1*%
X132765000Y-57227064D02*
X132765000Y-56772936D01*
X134235000Y-57227064D02*
X134235000Y-56772936D01*
%TO.C,R5*%
X148727064Y-68097323D02*
X148272936Y-68097323D01*
X148727064Y-69567323D02*
X148272936Y-69567323D01*
%TO.C,Polyfuse1*%
X130330000Y-92703752D02*
X130330000Y-88296248D01*
X135670000Y-92703752D02*
X135670000Y-88296248D01*
%TO.C,C2*%
X144865000Y-64061252D02*
X144865000Y-63538748D01*
X146335000Y-64061252D02*
X146335000Y-63538748D01*
%TO.C,SW2*%
X142900000Y-36200000D02*
X142900000Y-36320000D01*
X142900000Y-37330000D02*
X142900000Y-38470000D01*
X142900000Y-39480000D02*
X142900000Y-39600000D01*
X142900000Y-39600000D02*
X147300000Y-39600000D01*
X147300000Y-36200000D02*
X142900000Y-36200000D01*
X147300000Y-36320000D02*
X147300000Y-36200000D01*
X147300000Y-38470000D02*
X147300000Y-37330000D01*
X147300000Y-39600000D02*
X147300000Y-39480000D01*
%TO.C,C3*%
X137238748Y-45565000D02*
X137761252Y-45565000D01*
X137238748Y-47035000D02*
X137761252Y-47035000D01*
%TO.C,SW1*%
X149300000Y-36200000D02*
X149300000Y-36320000D01*
X149300000Y-37330000D02*
X149300000Y-38470000D01*
X149300000Y-39480000D02*
X149300000Y-39600000D01*
X149300000Y-39600000D02*
X153700000Y-39600000D01*
X153700000Y-36200000D02*
X149300000Y-36200000D01*
X153700000Y-36320000D02*
X153700000Y-36200000D01*
X153700000Y-38470000D02*
X153700000Y-37330000D01*
X153700000Y-39600000D02*
X153700000Y-39480000D01*
%TO.C,Rtop1*%
X130065000Y-57227064D02*
X130065000Y-56772936D01*
X131535000Y-57227064D02*
X131535000Y-56772936D01*
%TO.C,D2*%
X135550000Y-60310000D02*
X135550000Y-54800000D01*
X135550000Y-60310000D02*
X138850000Y-60310000D01*
X138850000Y-60310000D02*
X138850000Y-54800000D01*
D14*
%TO.C,J1*%
X137100000Y-103082323D02*
X137100000Y-88782323D01*
X137100000Y-103082323D02*
X146100000Y-103082323D01*
X139150000Y-88782323D02*
X137100000Y-88782323D01*
X144050000Y-88782323D02*
X146100000Y-88782323D01*
X146100000Y-88782323D02*
X146100000Y-90032323D01*
X146100000Y-103082323D02*
X146100000Y-94532323D01*
X141700000Y-87282323D02*
G75*
G02*
X141500000Y-87282323I-100000J0D01*
G01*
X141500000Y-87282323D02*
G75*
G02*
X141700000Y-87282323I100000J0D01*
G01*
D13*
%TO.C,R2*%
X151027500Y-63637047D02*
X151027500Y-63127599D01*
X152072500Y-63637047D02*
X152072500Y-63127599D01*
%TO.C,COUT2*%
X139400000Y-52110000D02*
X146340000Y-52110000D01*
X146340000Y-48690000D02*
X139400000Y-48690000D01*
X146340000Y-52110000D02*
X146340000Y-48690000D01*
D15*
%TO.C,U1*%
X148300000Y-41022323D02*
X166300000Y-41022323D01*
X148300000Y-41442323D02*
X148300000Y-41022323D01*
X148300000Y-59492323D02*
X148300000Y-60222323D01*
X148300000Y-60222323D02*
X150815000Y-60222323D01*
X163785000Y-60222323D02*
X166300000Y-60222323D01*
X166300000Y-41022323D02*
X166300000Y-41442323D01*
X166300000Y-60222323D02*
X166300000Y-59492323D01*
D14*
X147400000Y-42212323D02*
G75*
G02*
X147200000Y-42212323I-100000J0D01*
G01*
X147200000Y-42212323D02*
G75*
G02*
X147400000Y-42212323I100000J0D01*
G01*
D13*
%TO.C,IO0_CTRL1*%
X153462500Y-66722323D02*
X152812500Y-66722323D01*
X153462500Y-66722323D02*
X154112500Y-66722323D01*
X153462500Y-69842323D02*
X152812500Y-69842323D01*
X153462500Y-69842323D02*
X154112500Y-69842323D01*
X152300000Y-66772323D02*
X152060000Y-66442323D01*
X152540000Y-66442323D01*
X152300000Y-66772323D01*
G36*
X152300000Y-66772323D02*
G01*
X152060000Y-66442323D01*
X152540000Y-66442323D01*
X152300000Y-66772323D01*
G37*
%TO.C,EN_CTRL1*%
X159962500Y-66722323D02*
X159312500Y-66722323D01*
X159962500Y-66722323D02*
X160612500Y-66722323D01*
X159962500Y-69842323D02*
X159312500Y-69842323D01*
X159962500Y-69842323D02*
X160612500Y-69842323D01*
X158800000Y-66772323D02*
X158560000Y-66442323D01*
X159040000Y-66442323D01*
X158800000Y-66772323D01*
G36*
X158800000Y-66772323D02*
G01*
X158560000Y-66442323D01*
X159040000Y-66442323D01*
X158800000Y-66772323D01*
G37*
%TO.C,COUT1*%
X143661252Y-45565000D02*
X143138748Y-45565000D01*
X143661252Y-47035000D02*
X143138748Y-47035000D01*
%TO.C,C4*%
X160390000Y-63136056D02*
X160390000Y-63428590D01*
X161410000Y-63136056D02*
X161410000Y-63428590D01*
%TO.C,CIN1*%
X142465000Y-64061252D02*
X142465000Y-63538748D01*
X143935000Y-64061252D02*
X143935000Y-63538748D01*
%TO.C,C1*%
X155160000Y-94062323D02*
X151483000Y-94062323D01*
X155160000Y-94102323D02*
X151493000Y-94102323D01*
X155160000Y-94142323D02*
X151504000Y-94142323D01*
X155160000Y-94182323D02*
X151515000Y-94182323D01*
X155160000Y-94222323D02*
X151527000Y-94222323D01*
X155160000Y-94262323D02*
X151539000Y-94262323D01*
X155160000Y-94302323D02*
X151551000Y-94302323D01*
X155160000Y-94342323D02*
X151563000Y-94342323D01*
X155160000Y-94382323D02*
X151576000Y-94382323D01*
X155160000Y-94422323D02*
X151590000Y-94422323D01*
X155160000Y-94462323D02*
X151603000Y-94462323D01*
X155160000Y-94502323D02*
X151618000Y-94502323D01*
X155160000Y-94542323D02*
X151632000Y-94542323D01*
X155160000Y-94582323D02*
X151647000Y-94582323D01*
X155160000Y-94622323D02*
X151662000Y-94622323D01*
X155160000Y-94662323D02*
X151678000Y-94662323D01*
X155160000Y-94702323D02*
X151694000Y-94702323D01*
X155160000Y-94742323D02*
X151710000Y-94742323D01*
X155160000Y-94782323D02*
X151727000Y-94782323D01*
X155160000Y-94822323D02*
X151744000Y-94822323D01*
X155160000Y-94862323D02*
X151762000Y-94862323D01*
X155160000Y-94902323D02*
X151780000Y-94902323D01*
X155160000Y-94942323D02*
X151798000Y-94942323D01*
X155160000Y-94982323D02*
X151817000Y-94982323D01*
X155160000Y-95022323D02*
X151836000Y-95022323D01*
X155160000Y-95062323D02*
X151856000Y-95062323D01*
X155160000Y-95102323D02*
X151876000Y-95102323D01*
X155160000Y-95142323D02*
X151896000Y-95142323D01*
X155160000Y-95182323D02*
X151917000Y-95182323D01*
X155160000Y-95222323D02*
X151939000Y-95222323D01*
X155160000Y-95262323D02*
X151961000Y-95262323D01*
X155160000Y-95302323D02*
X151983000Y-95302323D01*
X155160000Y-95342323D02*
X152006000Y-95342323D01*
X155160000Y-95382323D02*
X152029000Y-95382323D01*
X155160000Y-95422323D02*
X152053000Y-95422323D01*
X155160000Y-95462323D02*
X152077000Y-95462323D01*
X155160000Y-95502323D02*
X152102000Y-95502323D01*
X155160000Y-95542323D02*
X152128000Y-95542323D01*
X155160000Y-95582323D02*
X152153000Y-95582323D01*
X155160000Y-95622323D02*
X152180000Y-95622323D01*
X155160000Y-95662323D02*
X152207000Y-95662323D01*
X155160000Y-95702323D02*
X152234000Y-95702323D01*
X155160000Y-95742323D02*
X152262000Y-95742323D01*
X155160000Y-95782323D02*
X152291000Y-95782323D01*
X155160000Y-95822323D02*
X152320000Y-95822323D01*
X155160000Y-95862323D02*
X152350000Y-95862323D01*
X155160000Y-95902323D02*
X152380000Y-95902323D01*
X155160000Y-95942323D02*
X152412000Y-95942323D01*
X155160000Y-95982323D02*
X152443000Y-95982323D01*
X155160000Y-96022323D02*
X152476000Y-96022323D01*
X155160000Y-96062323D02*
X152509000Y-96062323D01*
X155160000Y-96102323D02*
X152542000Y-96102323D01*
X155160000Y-96142323D02*
X152577000Y-96142323D01*
X155160000Y-96182323D02*
X152612000Y-96182323D01*
X155160000Y-96222323D02*
X152648000Y-96222323D01*
X155160000Y-96262323D02*
X152684000Y-96262323D01*
X155160000Y-96302323D02*
X152722000Y-96302323D01*
X155160000Y-96342323D02*
X152760000Y-96342323D01*
X155160000Y-96382323D02*
X152799000Y-96382323D01*
X155160000Y-96422323D02*
X152839000Y-96422323D01*
X155160000Y-96462323D02*
X152880000Y-96462323D01*
X155160000Y-96502323D02*
X152922000Y-96502323D01*
X156999000Y-97862323D02*
X155801000Y-97862323D01*
X157262000Y-97822323D02*
X155538000Y-97822323D01*
X157462000Y-97782323D02*
X155338000Y-97782323D01*
X157630000Y-97742323D02*
X155170000Y-97742323D01*
X157777000Y-97702323D02*
X155023000Y-97702323D01*
X157909000Y-97662323D02*
X154891000Y-97662323D01*
X158030000Y-97622323D02*
X154770000Y-97622323D01*
X158142000Y-97582323D02*
X154658000Y-97582323D01*
X158246000Y-97542323D02*
X154554000Y-97542323D01*
X158344000Y-97502323D02*
X154456000Y-97502323D01*
X158437000Y-97462323D02*
X154363000Y-97462323D01*
X158524000Y-97422323D02*
X154276000Y-97422323D01*
X158608000Y-97382323D02*
X154192000Y-97382323D01*
X158688000Y-97342323D02*
X154112000Y-97342323D01*
X158765000Y-97302323D02*
X154035000Y-97302323D01*
X158839000Y-97262323D02*
X153961000Y-97262323D01*
X158910000Y-97222323D02*
X153890000Y-97222323D01*
X158978000Y-97182323D02*
X153822000Y-97182323D01*
X159044000Y-97142323D02*
X153756000Y-97142323D01*
X159108000Y-97102323D02*
X153692000Y-97102323D01*
X159170000Y-97062323D02*
X153630000Y-97062323D01*
X159230000Y-97022323D02*
X153570000Y-97022323D01*
X159275000Y-87302677D02*
X159275000Y-88302677D01*
X159288000Y-96982323D02*
X153512000Y-96982323D01*
X159345000Y-96942323D02*
X153455000Y-96942323D01*
X159400000Y-96902323D02*
X153400000Y-96902323D01*
X159453000Y-96862323D02*
X153347000Y-96862323D01*
X159505000Y-96822323D02*
X153295000Y-96822323D01*
X159556000Y-96782323D02*
X153244000Y-96782323D01*
X159605000Y-96742323D02*
X153195000Y-96742323D01*
X159654000Y-96702323D02*
X153146000Y-96702323D01*
X159701000Y-96662323D02*
X153099000Y-96662323D01*
X159747000Y-96622323D02*
X153053000Y-96622323D01*
X159775000Y-87802677D02*
X158775000Y-87802677D01*
X159791000Y-96582323D02*
X153009000Y-96582323D01*
X159835000Y-96542323D02*
X152965000Y-96542323D01*
X159878000Y-96502323D02*
X157640000Y-96502323D01*
X159920000Y-96462323D02*
X157640000Y-96462323D01*
X159961000Y-96422323D02*
X157640000Y-96422323D01*
X160001000Y-96382323D02*
X157640000Y-96382323D01*
X160040000Y-96342323D02*
X157640000Y-96342323D01*
X160078000Y-96302323D02*
X157640000Y-96302323D01*
X160116000Y-96262323D02*
X157640000Y-96262323D01*
X160152000Y-96222323D02*
X157640000Y-96222323D01*
X160188000Y-96182323D02*
X157640000Y-96182323D01*
X160223000Y-96142323D02*
X157640000Y-96142323D01*
X160258000Y-96102323D02*
X157640000Y-96102323D01*
X160291000Y-96062323D02*
X157640000Y-96062323D01*
X160324000Y-96022323D02*
X157640000Y-96022323D01*
X160357000Y-95982323D02*
X157640000Y-95982323D01*
X160388000Y-95942323D02*
X157640000Y-95942323D01*
X160420000Y-95902323D02*
X157640000Y-95902323D01*
X160450000Y-95862323D02*
X157640000Y-95862323D01*
X160480000Y-95822323D02*
X157640000Y-95822323D01*
X160509000Y-95782323D02*
X157640000Y-95782323D01*
X160538000Y-95742323D02*
X157640000Y-95742323D01*
X160566000Y-95702323D02*
X157640000Y-95702323D01*
X160593000Y-95662323D02*
X157640000Y-95662323D01*
X160620000Y-95622323D02*
X157640000Y-95622323D01*
X160647000Y-95582323D02*
X157640000Y-95582323D01*
X160672000Y-95542323D02*
X157640000Y-95542323D01*
X160698000Y-95502323D02*
X157640000Y-95502323D01*
X160723000Y-95462323D02*
X157640000Y-95462323D01*
X160747000Y-95422323D02*
X157640000Y-95422323D01*
X160771000Y-95382323D02*
X157640000Y-95382323D01*
X160794000Y-95342323D02*
X157640000Y-95342323D01*
X160817000Y-95302323D02*
X157640000Y-95302323D01*
X160839000Y-95262323D02*
X157640000Y-95262323D01*
X160861000Y-95222323D02*
X157640000Y-95222323D01*
X160883000Y-95182323D02*
X157640000Y-95182323D01*
X160904000Y-95142323D02*
X157640000Y-95142323D01*
X160924000Y-95102323D02*
X157640000Y-95102323D01*
X160944000Y-95062323D02*
X157640000Y-95062323D01*
X160964000Y-95022323D02*
X157640000Y-95022323D01*
X160983000Y-94982323D02*
X157640000Y-94982323D01*
X161002000Y-94942323D02*
X157640000Y-94942323D01*
X161020000Y-94902323D02*
X157640000Y-94902323D01*
X161038000Y-94862323D02*
X157640000Y-94862323D01*
X161056000Y-94822323D02*
X157640000Y-94822323D01*
X161073000Y-94782323D02*
X157640000Y-94782323D01*
X161090000Y-94742323D02*
X157640000Y-94742323D01*
X161106000Y-94702323D02*
X157640000Y-94702323D01*
X161122000Y-94662323D02*
X157640000Y-94662323D01*
X161138000Y-94622323D02*
X157640000Y-94622323D01*
X161153000Y-94582323D02*
X157640000Y-94582323D01*
X161168000Y-94542323D02*
X157640000Y-94542323D01*
X161182000Y-94502323D02*
X157640000Y-94502323D01*
X161197000Y-94462323D02*
X157640000Y-94462323D01*
X161210000Y-94422323D02*
X157640000Y-94422323D01*
X161224000Y-94382323D02*
X157640000Y-94382323D01*
X161237000Y-94342323D02*
X157640000Y-94342323D01*
X161249000Y-94302323D02*
X157640000Y-94302323D01*
X161261000Y-94262323D02*
X157640000Y-94262323D01*
X161273000Y-94222323D02*
X157640000Y-94222323D01*
X161285000Y-94182323D02*
X157640000Y-94182323D01*
X161296000Y-94142323D02*
X157640000Y-94142323D01*
X161307000Y-94102323D02*
X157640000Y-94102323D01*
X161317000Y-94062323D02*
X157640000Y-94062323D01*
X161328000Y-94022323D02*
X151472000Y-94022323D01*
X161337000Y-93982323D02*
X151463000Y-93982323D01*
X161347000Y-93942323D02*
X151453000Y-93942323D01*
X161356000Y-93902323D02*
X151444000Y-93902323D01*
X161365000Y-93862323D02*
X151435000Y-93862323D01*
X161373000Y-93822323D02*
X151427000Y-93822323D01*
X161381000Y-93782323D02*
X151419000Y-93782323D01*
X161389000Y-93742323D02*
X151411000Y-93742323D01*
X161397000Y-93702323D02*
X151403000Y-93702323D01*
X161404000Y-93662323D02*
X151396000Y-93662323D01*
X161411000Y-93622323D02*
X151389000Y-93622323D01*
X161417000Y-93582323D02*
X151383000Y-93582323D01*
X161423000Y-93542323D02*
X151377000Y-93542323D01*
X161429000Y-93502323D02*
X151371000Y-93502323D01*
X161435000Y-93462323D02*
X151365000Y-93462323D01*
X161440000Y-93422323D02*
X151360000Y-93422323D01*
X161445000Y-93382323D02*
X151355000Y-93382323D01*
X161449000Y-93342323D02*
X151351000Y-93342323D01*
X161454000Y-93302323D02*
X151346000Y-93302323D01*
X161457000Y-93262323D02*
X151343000Y-93262323D01*
X161461000Y-93222323D02*
X151339000Y-93222323D01*
X161464000Y-93182323D02*
X151336000Y-93182323D01*
X161467000Y-93142323D02*
X151333000Y-93142323D01*
X161470000Y-93102323D02*
X151330000Y-93102323D01*
X161472000Y-93062323D02*
X151328000Y-93062323D01*
X161474000Y-93022323D02*
X151326000Y-93022323D01*
X161476000Y-92982323D02*
X151324000Y-92982323D01*
X161477000Y-92942323D02*
X151323000Y-92942323D01*
X161479000Y-92862323D02*
X151321000Y-92862323D01*
X161479000Y-92902323D02*
X151321000Y-92902323D01*
X161480000Y-92782323D02*
X151320000Y-92782323D01*
X161480000Y-92822323D02*
X151320000Y-92822323D01*
X161520000Y-92782323D02*
G75*
G02*
X151280000Y-92782323I-5120000J0D01*
G01*
X151280000Y-92782323D02*
G75*
G02*
X161520000Y-92782323I5120000J0D01*
G01*
%TO.C,L1*%
X139900000Y-53700000D02*
X140350000Y-53700000D01*
X139900000Y-59900000D02*
X139900000Y-53700000D01*
X139900000Y-59900000D02*
X140350000Y-59900000D01*
X146100000Y-53700000D02*
X145650000Y-53700000D01*
X146100000Y-53700000D02*
X146100000Y-59900000D01*
X146100000Y-59900000D02*
X145650000Y-59900000D01*
%TO.C,J3*%
X130400000Y-44162323D02*
X130400000Y-42782323D01*
X131780000Y-44162323D02*
X130400000Y-44162323D01*
X133050000Y-41402323D02*
X145860000Y-41402323D01*
X133050000Y-44162323D02*
X133050000Y-41402323D01*
X133050000Y-44162323D02*
X145860000Y-44162323D01*
X145860000Y-44162323D02*
X145860000Y-41402323D01*
%TO.C,R3*%
X154277500Y-63624547D02*
X154277500Y-63115099D01*
X155322500Y-63624547D02*
X155322500Y-63115099D01*
%TO.C,J2*%
D10*
X150730000Y-74892323D02*
X157870000Y-74892323D01*
X157870000Y-81962323D01*
X150730000Y-81962323D01*
X150730000Y-74892323D01*
D13*
%TO.C,U4*%
X130800000Y-66675000D02*
X131750000Y-66675000D01*
X130800000Y-68040000D02*
X130800000Y-66675000D01*
X141200000Y-66675000D02*
X140250000Y-66675000D01*
X141200000Y-68040000D02*
X141200000Y-66675000D01*
X140680000Y-64190000D02*
X140210000Y-63850000D01*
X140680000Y-63510000D01*
X140680000Y-64190000D01*
G36*
X140680000Y-64190000D02*
G01*
X140210000Y-63850000D01*
X140680000Y-63510000D01*
X140680000Y-64190000D01*
G37*
%TD*%
M02*
