%TF.GenerationSoftware,KiCad,Pcbnew,9.0.1*%
%TF.CreationDate,2026-04-21T21:09:18+02:00*%
%TF.ProjectId,BaseChipOnly,42617365-4368-4697-904f-6e6c792e6b69,rev?*%
%TF.SameCoordinates,Original*%
%TF.FileFunction,Copper,L2,Bot*%
%TF.FilePolarity,Positive*%
%FSLAX46Y46*%
G04 Gerber Fmt 4.6, Leading zero omitted, Abs format (unit mm)*
G04 Created by KiCad (PCBNEW 9.0.1) date 2026-04-21 21:09:18*
%MOMM*%
%LPD*%
G01*
G04 APERTURE LIST*
%TA.AperFunction,ComponentPad*%
%ADD10O,4.400000X2.200000*%
%TD*%
%TA.AperFunction,ComponentPad*%
%ADD11O,4.000000X2.000000*%
%TD*%
%TA.AperFunction,ComponentPad*%
%ADD12O,2.000000X4.000000*%
%TD*%
%TA.AperFunction,ComponentPad*%
%ADD13C,0.450000*%
%TD*%
%TA.AperFunction,ComponentPad*%
%ADD14R,2.000000X2.000000*%
%TD*%
%TA.AperFunction,ComponentPad*%
%ADD15C,2.000000*%
%TD*%
%TA.AperFunction,ComponentPad*%
%ADD16R,1.700000X1.700000*%
%TD*%
%TA.AperFunction,ComponentPad*%
%ADD17C,1.700000*%
%TD*%
%TA.AperFunction,ComponentPad*%
%ADD18O,2.000000X1.200000*%
%TD*%
%TA.AperFunction,ViaPad*%
%ADD19C,0.600000*%
%TD*%
%TA.AperFunction,Conductor*%
%ADD20C,0.200000*%
%TD*%
G04 APERTURE END LIST*
D10*
%TO.P,J1,1,V_IN_RAW*%
%TO.N,Net-(J1-V_IN_RAW)*%
X141600000Y-89382323D03*
D11*
%TO.P,J1,2,GDN*%
%TO.N,GND*%
X141600000Y-95682323D03*
D12*
%TO.P,J1,3,DATA*%
%TO.N,unconnected-(J1-DATA-Pad3)*%
X146400000Y-92282323D03*
%TD*%
D13*
%TO.P,U1,40_1*%
%TO.N,N/C*%
X155100000Y-48532323D03*
%TO.P,U1,40_2*%
X156500000Y-48532323D03*
%TO.P,U1,40_3*%
X154400000Y-49232323D03*
%TO.P,U1,40_4*%
X155800000Y-49232323D03*
%TO.P,U1,40_5*%
X157200000Y-49232323D03*
%TO.P,U1,40_6*%
X155100000Y-49932323D03*
%TO.P,U1,40_7*%
X156500000Y-49932323D03*
%TO.P,U1,40_8*%
X154400000Y-50632323D03*
%TO.P,U1,40_9*%
X155800000Y-50632323D03*
%TO.P,U1,40_10*%
X157200000Y-50632323D03*
%TO.P,U1,40_11*%
X155100000Y-51332323D03*
%TO.P,U1,40_12*%
X156500000Y-51332323D03*
%TD*%
D14*
%TO.P,1000\u00B5F,1*%
%TO.N,+5V*%
X156400000Y-90282323D03*
D15*
%TO.P,1000\u00B5F,2*%
%TO.N,GND*%
X156400000Y-95282323D03*
%TD*%
D16*
%TO.P,J3,1,GND*%
%TO.N,GND*%
X131780000Y-42782323D03*
D17*
%TO.P,J3,2,3V3*%
%TO.N,+3V3*%
X134320000Y-42782323D03*
%TO.P,J3,3,TX0*%
%TO.N,Net-(J3-TX0)*%
X136860000Y-42782323D03*
%TO.P,J3,4,RX0*%
%TO.N,Net-(J3-RX0)*%
X139400000Y-42782323D03*
%TO.P,J3,5,DTR*%
%TO.N,Net-(J3-DTR)*%
X141940000Y-42782323D03*
%TO.P,J3,6,RTS*%
%TO.N,Net-(J3-RTS)*%
X144480000Y-42782323D03*
%TD*%
D18*
%TO.P,J2,1,Pin_1*%
%TO.N,Net-(J2-Pin_1)*%
X156400000Y-75782323D03*
%TO.P,J2,2,Pin_2*%
%TO.N,+5V*%
X156400000Y-78322323D03*
%TO.P,J2,3,Pin_3*%
%TO.N,GND*%
X156400000Y-80862323D03*
%TD*%
D19*
%TO.N,GND*%
X157403930Y-49936592D03*
X154145772Y-49911290D03*
X154375769Y-48498881D03*
X155801939Y-48336519D03*
X157252985Y-48509259D03*
X157250388Y-51355572D03*
X155813250Y-51564708D03*
X154375461Y-51358251D03*
X134250000Y-45800000D03*
%TO.N,/FB_NODE*%
X135050000Y-53432323D03*
%TO.N,GND*%
X138900000Y-72950000D03*
X166100000Y-42232323D03*
X152500000Y-69282323D03*
X141400000Y-82782323D03*
X159050000Y-69232323D03*
X151600000Y-59982323D03*
X143850000Y-57050000D03*
X131400000Y-50932323D03*
X143900000Y-60382323D03*
X143450000Y-47582323D03*
X134250000Y-60882323D03*
X134750000Y-59882323D03*
X135250000Y-60882323D03*
X134750000Y-60882323D03*
X134750000Y-60382323D03*
X135250000Y-59882323D03*
X134250000Y-59882323D03*
X142400000Y-75282323D03*
X135250000Y-60382323D03*
X148550000Y-42232323D03*
X131287500Y-45937500D03*
X134250000Y-60382323D03*
X160900000Y-64182323D03*
X142375000Y-70282323D03*
%TO.N,+3V3*%
X154800000Y-62457323D03*
X157900000Y-62457323D03*
X148550000Y-43482323D03*
X139150000Y-45582323D03*
%TO.N,Net-(EN_CTRL1-C)*%
X160900000Y-62419823D03*
X148550000Y-44752323D03*
%TO.N,/FB_NODE*%
X143900000Y-58782323D03*
X131350000Y-52882323D03*
%TO.N,Net-(IO0_CTRL1-C)*%
X166100000Y-58732323D03*
X154500000Y-68282323D03*
X154800000Y-64282323D03*
%TO.N,Net-(U1-IO13)*%
X149500000Y-68832323D03*
X149500000Y-68832323D03*
X152855000Y-59972323D03*
%TD*%
D20*
%TO.N,GND*%
X134250000Y-45800000D02*
X134600000Y-45800000D01*
%TO.N,+3V3*%
X137600000Y-45582323D02*
X134800000Y-42782323D01*
%TO.N,/FB_NODE*%
X135100000Y-54194823D02*
X135987500Y-54194823D01*
X135100000Y-54194823D02*
X135100000Y-53482323D01*
X135100000Y-53482323D02*
X135050000Y-53432323D01*
X131350000Y-52882323D02*
X132662500Y-54194823D01*
X132662500Y-54194823D02*
X135100000Y-54194823D01*
X140575000Y-58782323D02*
X143900000Y-58782323D01*
X135987500Y-54194823D02*
X140575000Y-58782323D01*
%TO.N,GND*%
X134750000Y-60382323D02*
X134950000Y-60382323D01*
%TO.N,+3V3*%
X134800000Y-42782323D02*
X134320000Y-42782323D01*
X154900000Y-62357323D02*
X154900000Y-59082323D01*
X147950000Y-43482323D02*
X147475000Y-43957323D01*
X154800000Y-62457323D02*
X154900000Y-62357323D01*
X148550000Y-43482323D02*
X147950000Y-43482323D01*
X157900000Y-62457323D02*
X157875000Y-62482323D01*
X154900000Y-59082323D02*
X145850000Y-50032323D01*
X145850000Y-50032323D02*
X145850000Y-45582323D01*
X139150000Y-45582323D02*
X137600000Y-45582323D01*
X145850000Y-45582323D02*
X147475000Y-43957323D01*
X154825000Y-62482323D02*
X154800000Y-62457323D01*
X157875000Y-62482323D02*
X154825000Y-62482323D01*
X139150000Y-45582323D02*
X145850000Y-45582323D01*
%TO.N,Net-(EN_CTRL1-C)*%
X160900000Y-62419823D02*
X160900000Y-59582323D01*
X150200000Y-48882323D02*
X150200000Y-45682323D01*
X149270000Y-44752323D02*
X148550000Y-44752323D01*
X160900000Y-59582323D02*
X150200000Y-48882323D01*
X150200000Y-45682323D02*
X149270000Y-44752323D01*
%TO.N,Net-(IO0_CTRL1-C)*%
X163850000Y-60982323D02*
X166100000Y-58732323D01*
X154500000Y-68282323D02*
X154500000Y-64582323D01*
X163850000Y-65482323D02*
X163850000Y-60982323D01*
X154500000Y-64582323D02*
X154800000Y-64282323D01*
X154800000Y-64282323D02*
X156000000Y-65482323D01*
X156000000Y-65482323D02*
X163850000Y-65482323D01*
%TO.N,Net-(U1-IO13)*%
X149500000Y-63327323D02*
X152855000Y-59972323D01*
X149500000Y-68832323D02*
X149500000Y-63327323D01*
%TD*%
%TA.AperFunction,Conductor*%
%TO.N,GND*%
G36*
X167292539Y-35752508D02*
G01*
X167338294Y-35805312D01*
X167349500Y-35856823D01*
X167349500Y-103457823D01*
X167329815Y-103524862D01*
X167277011Y-103570617D01*
X167225500Y-103581823D01*
X129374500Y-103581823D01*
X129307461Y-103562138D01*
X129261706Y-103509334D01*
X129250500Y-103457823D01*
X129250500Y-101329971D01*
X130099500Y-101329971D01*
X130099500Y-101534674D01*
X130131522Y-101736857D01*
X130194781Y-101931546D01*
X130287715Y-102113936D01*
X130408028Y-102279536D01*
X130552786Y-102424294D01*
X130707749Y-102536879D01*
X130718390Y-102544610D01*
X130834607Y-102603826D01*
X130900776Y-102637541D01*
X130900778Y-102637541D01*
X130900781Y-102637543D01*
X131005137Y-102671450D01*
X131095465Y-102700800D01*
X131196557Y-102716811D01*
X131297648Y-102732823D01*
X131297649Y-102732823D01*
X131502351Y-102732823D01*
X131502352Y-102732823D01*
X131704534Y-102700800D01*
X131899219Y-102637543D01*
X132081610Y-102544610D01*
X132174590Y-102477055D01*
X132247213Y-102424294D01*
X132247215Y-102424291D01*
X132247219Y-102424289D01*
X132391966Y-102279542D01*
X132391968Y-102279538D01*
X132391971Y-102279536D01*
X132444732Y-102206913D01*
X132512287Y-102113933D01*
X132605220Y-101931542D01*
X132668477Y-101736857D01*
X132700500Y-101534675D01*
X132700500Y-101329971D01*
X163899500Y-101329971D01*
X163899500Y-101534674D01*
X163931522Y-101736857D01*
X163994781Y-101931546D01*
X164087715Y-102113936D01*
X164208028Y-102279536D01*
X164352786Y-102424294D01*
X164507749Y-102536879D01*
X164518390Y-102544610D01*
X164634607Y-102603826D01*
X164700776Y-102637541D01*
X164700778Y-102637541D01*
X164700781Y-102637543D01*
X164805137Y-102671450D01*
X164895465Y-102700800D01*
X164996557Y-102716811D01*
X165097648Y-102732823D01*
X165097649Y-102732823D01*
X165302351Y-102732823D01*
X165302352Y-102732823D01*
X165504534Y-102700800D01*
X165699219Y-102637543D01*
X165881610Y-102544610D01*
X165974590Y-102477055D01*
X166047213Y-102424294D01*
X166047215Y-102424291D01*
X166047219Y-102424289D01*
X166191966Y-102279542D01*
X166191968Y-102279538D01*
X166191971Y-102279536D01*
X166244732Y-102206913D01*
X166312287Y-102113933D01*
X166405220Y-101931542D01*
X166468477Y-101736857D01*
X166500500Y-101534675D01*
X166500500Y-101329971D01*
X166468477Y-101127789D01*
X166405220Y-100933104D01*
X166405218Y-100933101D01*
X166405218Y-100933099D01*
X166371503Y-100866930D01*
X166312287Y-100750713D01*
X166304556Y-100740072D01*
X166191971Y-100585109D01*
X166047213Y-100440351D01*
X165881613Y-100320038D01*
X165881612Y-100320037D01*
X165881610Y-100320036D01*
X165824653Y-100291014D01*
X165699223Y-100227104D01*
X165504534Y-100163845D01*
X165329995Y-100136201D01*
X165302352Y-100131823D01*
X165097648Y-100131823D01*
X165073329Y-100135674D01*
X164895465Y-100163845D01*
X164700776Y-100227104D01*
X164518386Y-100320038D01*
X164352786Y-100440351D01*
X164208028Y-100585109D01*
X164087715Y-100750709D01*
X163994781Y-100933099D01*
X163931522Y-101127788D01*
X163899500Y-101329971D01*
X132700500Y-101329971D01*
X132668477Y-101127789D01*
X132605220Y-100933104D01*
X132605218Y-100933101D01*
X132605218Y-100933099D01*
X132571503Y-100866930D01*
X132512287Y-100750713D01*
X132504556Y-100740072D01*
X132391971Y-100585109D01*
X132247213Y-100440351D01*
X132081613Y-100320038D01*
X132081612Y-100320037D01*
X132081610Y-100320036D01*
X132024653Y-100291014D01*
X131899223Y-100227104D01*
X131704534Y-100163845D01*
X131529995Y-100136201D01*
X131502352Y-100131823D01*
X131297648Y-100131823D01*
X131273329Y-100135674D01*
X131095465Y-100163845D01*
X130900776Y-100227104D01*
X130718386Y-100320038D01*
X130552786Y-100440351D01*
X130408028Y-100585109D01*
X130287715Y-100750709D01*
X130194781Y-100933099D01*
X130131522Y-101127788D01*
X130099500Y-101329971D01*
X129250500Y-101329971D01*
X129250500Y-95432323D01*
X139120898Y-95432323D01*
X140066988Y-95432323D01*
X140034075Y-95489330D01*
X140000000Y-95616497D01*
X140000000Y-95748149D01*
X140034075Y-95875316D01*
X140066988Y-95932323D01*
X139120898Y-95932323D01*
X139136934Y-96033570D01*
X139209897Y-96258125D01*
X139317085Y-96468494D01*
X139455866Y-96659509D01*
X139622813Y-96826456D01*
X139813828Y-96965237D01*
X140024197Y-97072425D01*
X140248752Y-97145388D01*
X140248751Y-97145388D01*
X140481948Y-97182323D01*
X141350000Y-97182323D01*
X141350000Y-96182323D01*
X141850000Y-96182323D01*
X141850000Y-97182323D01*
X142718052Y-97182323D01*
X142951247Y-97145388D01*
X143175802Y-97072425D01*
X143386171Y-96965237D01*
X143577186Y-96826456D01*
X143744133Y-96659509D01*
X143882914Y-96468494D01*
X143917087Y-96401427D01*
X143990102Y-96258125D01*
X144063065Y-96033570D01*
X144079102Y-95932323D01*
X143133012Y-95932323D01*
X143165925Y-95875316D01*
X143200000Y-95748149D01*
X143200000Y-95616497D01*
X143165925Y-95489330D01*
X143133012Y-95432323D01*
X144079102Y-95432323D01*
X144063065Y-95331077D01*
X144019734Y-95197717D01*
X144019733Y-95197715D01*
X144008866Y-95164270D01*
X154900000Y-95164270D01*
X154900000Y-95400375D01*
X154936934Y-95633570D01*
X155009897Y-95858125D01*
X155117087Y-96068497D01*
X155177338Y-96151427D01*
X155177340Y-96151428D01*
X155917037Y-95411731D01*
X155934075Y-95475316D01*
X155999901Y-95589330D01*
X156092993Y-95682422D01*
X156207007Y-95748248D01*
X156270590Y-95765285D01*
X155530893Y-96504981D01*
X155613828Y-96565237D01*
X155824197Y-96672425D01*
X156048752Y-96745388D01*
X156048751Y-96745388D01*
X156281948Y-96782323D01*
X156518052Y-96782323D01*
X156751247Y-96745388D01*
X156975802Y-96672425D01*
X157186163Y-96565241D01*
X157186169Y-96565237D01*
X157269104Y-96504981D01*
X157269105Y-96504981D01*
X156529408Y-95765285D01*
X156592993Y-95748248D01*
X156707007Y-95682422D01*
X156800099Y-95589330D01*
X156865925Y-95475316D01*
X156882962Y-95411732D01*
X157622658Y-96151428D01*
X157622658Y-96151427D01*
X157682914Y-96068492D01*
X157682918Y-96068486D01*
X157790102Y-95858125D01*
X157863065Y-95633570D01*
X157900000Y-95400375D01*
X157900000Y-95164270D01*
X157863065Y-94931075D01*
X157790102Y-94706520D01*
X157682914Y-94496151D01*
X157622658Y-94413217D01*
X157622658Y-94413216D01*
X156882962Y-95152913D01*
X156865925Y-95089330D01*
X156800099Y-94975316D01*
X156707007Y-94882224D01*
X156592993Y-94816398D01*
X156529409Y-94799360D01*
X157269105Y-94059663D01*
X157269104Y-94059661D01*
X157186174Y-93999410D01*
X156975802Y-93892220D01*
X156751247Y-93819257D01*
X156751248Y-93819257D01*
X156518052Y-93782323D01*
X156281948Y-93782323D01*
X156048752Y-93819257D01*
X155824197Y-93892220D01*
X155613830Y-93999407D01*
X155530894Y-94059663D01*
X156270591Y-94799360D01*
X156207007Y-94816398D01*
X156092993Y-94882224D01*
X155999901Y-94975316D01*
X155934075Y-95089330D01*
X155917037Y-95152913D01*
X155177340Y-94413217D01*
X155117084Y-94496153D01*
X155009897Y-94706520D01*
X154936934Y-94931075D01*
X154900000Y-95164270D01*
X144008866Y-95164270D01*
X143990102Y-95106520D01*
X143882914Y-94896151D01*
X143744133Y-94705136D01*
X143577186Y-94538189D01*
X143386171Y-94399408D01*
X143175802Y-94292220D01*
X142951247Y-94219257D01*
X142951248Y-94219257D01*
X142718052Y-94182323D01*
X141850000Y-94182323D01*
X141850000Y-95182323D01*
X141350000Y-95182323D01*
X141350000Y-94182323D01*
X140481948Y-94182323D01*
X140248752Y-94219257D01*
X140024197Y-94292220D01*
X139813828Y-94399408D01*
X139622813Y-94538189D01*
X139455866Y-94705136D01*
X139317085Y-94896151D01*
X139209897Y-95106520D01*
X139136934Y-95331075D01*
X139120898Y-95432323D01*
X129250500Y-95432323D01*
X129250500Y-91164225D01*
X144899500Y-91164225D01*
X144899500Y-93400420D01*
X144936446Y-93633691D01*
X145009433Y-93858319D01*
X145026707Y-93892220D01*
X145116657Y-94068756D01*
X145255483Y-94259833D01*
X145422490Y-94426840D01*
X145613567Y-94565666D01*
X145712991Y-94616325D01*
X145824003Y-94672889D01*
X145824005Y-94672889D01*
X145824008Y-94672891D01*
X145923248Y-94705136D01*
X146048631Y-94745876D01*
X146281903Y-94782823D01*
X146281908Y-94782823D01*
X146518097Y-94782823D01*
X146751368Y-94745876D01*
X146975992Y-94672891D01*
X147186433Y-94565666D01*
X147377510Y-94426840D01*
X147544517Y-94259833D01*
X147683343Y-94068756D01*
X147790568Y-93858315D01*
X147863553Y-93633691D01*
X147900500Y-93400420D01*
X147900500Y-91164225D01*
X147863553Y-90930954D01*
X147829689Y-90826735D01*
X147790568Y-90706331D01*
X147790566Y-90706328D01*
X147790566Y-90706326D01*
X147683342Y-90495889D01*
X147544517Y-90304813D01*
X147377510Y-90137806D01*
X147186433Y-89998980D01*
X147181962Y-89996702D01*
X146975996Y-89891756D01*
X146751368Y-89818769D01*
X146518097Y-89781823D01*
X146518092Y-89781823D01*
X146281908Y-89781823D01*
X146281903Y-89781823D01*
X146048631Y-89818769D01*
X145824003Y-89891756D01*
X145613566Y-89998980D01*
X145504550Y-90078185D01*
X145422490Y-90137806D01*
X145422488Y-90137808D01*
X145422487Y-90137808D01*
X145255485Y-90304810D01*
X145255485Y-90304811D01*
X145255483Y-90304813D01*
X145195862Y-90386873D01*
X145116657Y-90495889D01*
X145009433Y-90706326D01*
X144936446Y-90930954D01*
X144899500Y-91164225D01*
X129250500Y-91164225D01*
X129250500Y-89256361D01*
X138899500Y-89256361D01*
X138899500Y-89508284D01*
X138938910Y-89757108D01*
X139016760Y-89996706D01*
X139131132Y-90221171D01*
X139279201Y-90424972D01*
X139279205Y-90424977D01*
X139457345Y-90603117D01*
X139457350Y-90603121D01*
X139635117Y-90732275D01*
X139661155Y-90751193D01*
X139804184Y-90824070D01*
X139885616Y-90865562D01*
X139885618Y-90865562D01*
X139885621Y-90865564D01*
X140125215Y-90943413D01*
X140374038Y-90982823D01*
X140374039Y-90982823D01*
X142825961Y-90982823D01*
X142825962Y-90982823D01*
X143074785Y-90943413D01*
X143314379Y-90865564D01*
X143538845Y-90751193D01*
X143742656Y-90603116D01*
X143920793Y-90424979D01*
X144068870Y-90221168D01*
X144183241Y-89996702D01*
X144261090Y-89757108D01*
X144300500Y-89508285D01*
X144300500Y-89256361D01*
X144297031Y-89234458D01*
X154899500Y-89234458D01*
X154899500Y-91330193D01*
X154899501Y-91330199D01*
X154905908Y-91389806D01*
X154956202Y-91524651D01*
X154956206Y-91524658D01*
X155042452Y-91639867D01*
X155042455Y-91639870D01*
X155157664Y-91726116D01*
X155157671Y-91726120D01*
X155292517Y-91776414D01*
X155292516Y-91776414D01*
X155299444Y-91777158D01*
X155352127Y-91782823D01*
X157447872Y-91782822D01*
X157507483Y-91776414D01*
X157642331Y-91726119D01*
X157757546Y-91639869D01*
X157843796Y-91524654D01*
X157894091Y-91389806D01*
X157900500Y-91330196D01*
X157900499Y-89234451D01*
X157894091Y-89174840D01*
X157843796Y-89039992D01*
X157843795Y-89039991D01*
X157843793Y-89039987D01*
X157757547Y-88924778D01*
X157757544Y-88924775D01*
X157642335Y-88838529D01*
X157642328Y-88838525D01*
X157507482Y-88788231D01*
X157507483Y-88788231D01*
X157447883Y-88781824D01*
X157447881Y-88781823D01*
X157447873Y-88781823D01*
X157447864Y-88781823D01*
X155352129Y-88781823D01*
X155352123Y-88781824D01*
X155292516Y-88788231D01*
X155157671Y-88838525D01*
X155157664Y-88838529D01*
X155042455Y-88924775D01*
X155042452Y-88924778D01*
X154956206Y-89039987D01*
X154956202Y-89039994D01*
X154905908Y-89174840D01*
X154899501Y-89234439D01*
X154899501Y-89234446D01*
X154899500Y-89234458D01*
X144297031Y-89234458D01*
X144266230Y-89039992D01*
X144261090Y-89007537D01*
X144224970Y-88896372D01*
X144183241Y-88767944D01*
X144183239Y-88767941D01*
X144183239Y-88767939D01*
X144141747Y-88686507D01*
X144068870Y-88543478D01*
X144049952Y-88517440D01*
X143920798Y-88339673D01*
X143920794Y-88339668D01*
X143742654Y-88161528D01*
X143742649Y-88161524D01*
X143538848Y-88013455D01*
X143538847Y-88013454D01*
X143538845Y-88013453D01*
X143468747Y-87977736D01*
X143314383Y-87899083D01*
X143074785Y-87821233D01*
X142825962Y-87781823D01*
X140374038Y-87781823D01*
X140249626Y-87801528D01*
X140125214Y-87821233D01*
X139885616Y-87899083D01*
X139661151Y-88013455D01*
X139457350Y-88161524D01*
X139457345Y-88161528D01*
X139279205Y-88339668D01*
X139279201Y-88339673D01*
X139131132Y-88543474D01*
X139016760Y-88767939D01*
X138938910Y-89007537D01*
X138899500Y-89256361D01*
X129250500Y-89256361D01*
X129250500Y-80612322D01*
X154925884Y-80612322D01*
X154925885Y-80612323D01*
X156084314Y-80612323D01*
X156079920Y-80616717D01*
X156027259Y-80707929D01*
X156000000Y-80809662D01*
X156000000Y-80914984D01*
X156027259Y-81016717D01*
X156079920Y-81107929D01*
X156084314Y-81112323D01*
X154925885Y-81112323D01*
X154927085Y-81119907D01*
X154980591Y-81284578D01*
X155059195Y-81438847D01*
X155160967Y-81578925D01*
X155283397Y-81701355D01*
X155423475Y-81803127D01*
X155577742Y-81881731D01*
X155742415Y-81935237D01*
X155913429Y-81962323D01*
X156150000Y-81962323D01*
X156150000Y-81178009D01*
X156154394Y-81182403D01*
X156245606Y-81235064D01*
X156347339Y-81262323D01*
X156452661Y-81262323D01*
X156554394Y-81235064D01*
X156645606Y-81182403D01*
X156650000Y-81178009D01*
X156650000Y-81962323D01*
X156886571Y-81962323D01*
X157057584Y-81935237D01*
X157222257Y-81881731D01*
X157376524Y-81803127D01*
X157516602Y-81701355D01*
X157639032Y-81578925D01*
X157740804Y-81438847D01*
X157819408Y-81284578D01*
X157872914Y-81119907D01*
X157874115Y-81112323D01*
X156715686Y-81112323D01*
X156720080Y-81107929D01*
X156772741Y-81016717D01*
X156800000Y-80914984D01*
X156800000Y-80809662D01*
X156772741Y-80707929D01*
X156720080Y-80616717D01*
X156715686Y-80612323D01*
X157874115Y-80612323D01*
X157874115Y-80612322D01*
X157872914Y-80604738D01*
X157819408Y-80440067D01*
X157740804Y-80285798D01*
X157639032Y-80145720D01*
X157516602Y-80023290D01*
X157376524Y-79921518D01*
X157222257Y-79842914D01*
X157057584Y-79789408D01*
X156886571Y-79762323D01*
X156650000Y-79762323D01*
X156650000Y-80546637D01*
X156645606Y-80542243D01*
X156554394Y-80489582D01*
X156452661Y-80462323D01*
X156347339Y-80462323D01*
X156245606Y-80489582D01*
X156154394Y-80542243D01*
X156150000Y-80546637D01*
X156150000Y-79762323D01*
X155913429Y-79762323D01*
X155742415Y-79789408D01*
X155577742Y-79842914D01*
X155423475Y-79921518D01*
X155283397Y-80023290D01*
X155160967Y-80145720D01*
X155059195Y-80285798D01*
X154980591Y-80440067D01*
X154927085Y-80604738D01*
X154925884Y-80612322D01*
X129250500Y-80612322D01*
X129250500Y-78235712D01*
X154899500Y-78235712D01*
X154899500Y-78408934D01*
X154926598Y-78580024D01*
X154980127Y-78744768D01*
X155058768Y-78899111D01*
X155160586Y-79039251D01*
X155283072Y-79161737D01*
X155423212Y-79263555D01*
X155577555Y-79342196D01*
X155742299Y-79395725D01*
X155913389Y-79422823D01*
X155913390Y-79422823D01*
X156886610Y-79422823D01*
X156886611Y-79422823D01*
X157057701Y-79395725D01*
X157222445Y-79342196D01*
X157376788Y-79263555D01*
X157516928Y-79161737D01*
X157639414Y-79039251D01*
X157741232Y-78899111D01*
X157819873Y-78744768D01*
X157873402Y-78580024D01*
X157900500Y-78408934D01*
X157900500Y-78235712D01*
X157873402Y-78064622D01*
X157819873Y-77899878D01*
X157741232Y-77745535D01*
X157639414Y-77605395D01*
X157516928Y-77482909D01*
X157376788Y-77381091D01*
X157222445Y-77302450D01*
X157057701Y-77248921D01*
X157057699Y-77248920D01*
X157057698Y-77248920D01*
X156926271Y-77228104D01*
X156886611Y-77221823D01*
X155913389Y-77221823D01*
X155873728Y-77228104D01*
X155742302Y-77248920D01*
X155577552Y-77302451D01*
X155423211Y-77381091D01*
X155343256Y-77439182D01*
X155283072Y-77482909D01*
X155283070Y-77482911D01*
X155283069Y-77482911D01*
X155160588Y-77605392D01*
X155160588Y-77605393D01*
X155160586Y-77605395D01*
X155116859Y-77665579D01*
X155058768Y-77745534D01*
X154980128Y-77899875D01*
X154926597Y-78064625D01*
X154899500Y-78235712D01*
X129250500Y-78235712D01*
X129250500Y-75695712D01*
X154899500Y-75695712D01*
X154899500Y-75868934D01*
X154926598Y-76040024D01*
X154980127Y-76204768D01*
X155058768Y-76359111D01*
X155160586Y-76499251D01*
X155283072Y-76621737D01*
X155423212Y-76723555D01*
X155577555Y-76802196D01*
X155742299Y-76855725D01*
X155913389Y-76882823D01*
X155913390Y-76882823D01*
X156886610Y-76882823D01*
X156886611Y-76882823D01*
X157057701Y-76855725D01*
X157222445Y-76802196D01*
X157376788Y-76723555D01*
X157516928Y-76621737D01*
X157639414Y-76499251D01*
X157741232Y-76359111D01*
X157819873Y-76204768D01*
X157873402Y-76040024D01*
X157900500Y-75868934D01*
X157900500Y-75695712D01*
X157873402Y-75524622D01*
X157819873Y-75359878D01*
X157741232Y-75205535D01*
X157639414Y-75065395D01*
X157516928Y-74942909D01*
X157376788Y-74841091D01*
X157222445Y-74762450D01*
X157057701Y-74708921D01*
X157057699Y-74708920D01*
X157057698Y-74708920D01*
X156926271Y-74688104D01*
X156886611Y-74681823D01*
X155913389Y-74681823D01*
X155873728Y-74688104D01*
X155742302Y-74708920D01*
X155577552Y-74762451D01*
X155423211Y-74841091D01*
X155343256Y-74899182D01*
X155283072Y-74942909D01*
X155283070Y-74942911D01*
X155283069Y-74942911D01*
X155160588Y-75065392D01*
X155160588Y-75065393D01*
X155160586Y-75065395D01*
X155116859Y-75125579D01*
X155058768Y-75205534D01*
X154980128Y-75359875D01*
X154926597Y-75524625D01*
X154899500Y-75695712D01*
X129250500Y-75695712D01*
X129250500Y-68753476D01*
X148699500Y-68753476D01*
X148699500Y-68911169D01*
X148730261Y-69065812D01*
X148730264Y-69065824D01*
X148790602Y-69211495D01*
X148790609Y-69211508D01*
X148878210Y-69342611D01*
X148878213Y-69342615D01*
X148989707Y-69454109D01*
X148989711Y-69454112D01*
X149120814Y-69541713D01*
X149120827Y-69541720D01*
X149266498Y-69602058D01*
X149266503Y-69602060D01*
X149421153Y-69632822D01*
X149421156Y-69632823D01*
X149421158Y-69632823D01*
X149578844Y-69632823D01*
X149578845Y-69632822D01*
X149733497Y-69602060D01*
X149879179Y-69541717D01*
X150010289Y-69454112D01*
X150121789Y-69342612D01*
X150209394Y-69211502D01*
X150269737Y-69065820D01*
X150300500Y-68911165D01*
X150300500Y-68753481D01*
X150300500Y-68753478D01*
X150300499Y-68753476D01*
X150282204Y-68661502D01*
X150269737Y-68598826D01*
X150235352Y-68515812D01*
X150209397Y-68453150D01*
X150209390Y-68453137D01*
X150121398Y-68321448D01*
X150100520Y-68254770D01*
X150100500Y-68252557D01*
X150100500Y-63627420D01*
X150120185Y-63560381D01*
X150136819Y-63539739D01*
X151490237Y-62186321D01*
X152869664Y-60806894D01*
X152930985Y-60773411D01*
X152933152Y-60772960D01*
X152933841Y-60772823D01*
X152933842Y-60772823D01*
X153088497Y-60742060D01*
X153234179Y-60681717D01*
X153365289Y-60594112D01*
X153476789Y-60482612D01*
X153564394Y-60351502D01*
X153624737Y-60205820D01*
X153655500Y-60051165D01*
X153655500Y-59893481D01*
X153655500Y-59893478D01*
X153655499Y-59893476D01*
X153624738Y-59738833D01*
X153624738Y-59738831D01*
X153624737Y-59738826D01*
X153624735Y-59738821D01*
X153564397Y-59593150D01*
X153564390Y-59593137D01*
X153476789Y-59462034D01*
X153476786Y-59462030D01*
X153365292Y-59350536D01*
X153365288Y-59350533D01*
X153234185Y-59262932D01*
X153234172Y-59262925D01*
X153088501Y-59202587D01*
X153088489Y-59202584D01*
X152933845Y-59171823D01*
X152933842Y-59171823D01*
X152776158Y-59171823D01*
X152776155Y-59171823D01*
X152621510Y-59202584D01*
X152621498Y-59202587D01*
X152475827Y-59262925D01*
X152475814Y-59262932D01*
X152344711Y-59350533D01*
X152344707Y-59350536D01*
X152233213Y-59462030D01*
X152233210Y-59462034D01*
X152145609Y-59593137D01*
X152145602Y-59593150D01*
X152085264Y-59738821D01*
X152085261Y-59738831D01*
X152054362Y-59894171D01*
X152021977Y-59956082D01*
X152020426Y-59957660D01*
X149131286Y-62846801D01*
X149019481Y-62958605D01*
X149019477Y-62958610D01*
X148971392Y-63041898D01*
X148971392Y-63041899D01*
X148940423Y-63095537D01*
X148940423Y-63095538D01*
X148899499Y-63248266D01*
X148899499Y-63248268D01*
X148899499Y-63416369D01*
X148899500Y-63416382D01*
X148899500Y-68252557D01*
X148879815Y-68319596D01*
X148878602Y-68321448D01*
X148790609Y-68453137D01*
X148790602Y-68453150D01*
X148730264Y-68598821D01*
X148730261Y-68598833D01*
X148699500Y-68753476D01*
X129250500Y-68753476D01*
X129250500Y-52803476D01*
X130549500Y-52803476D01*
X130549500Y-52961169D01*
X130580261Y-53115812D01*
X130580264Y-53115824D01*
X130640602Y-53261495D01*
X130640609Y-53261508D01*
X130728210Y-53392611D01*
X130728213Y-53392615D01*
X130839707Y-53504109D01*
X130839711Y-53504112D01*
X130970814Y-53591713D01*
X130970827Y-53591720D01*
X131075910Y-53635246D01*
X131116503Y-53652060D01*
X131181147Y-53664918D01*
X131271849Y-53682961D01*
X131333760Y-53715346D01*
X131335339Y-53716897D01*
X132177639Y-54559197D01*
X132177649Y-54559208D01*
X132181979Y-54563538D01*
X132181980Y-54563539D01*
X132293784Y-54675343D01*
X132380595Y-54725462D01*
X132380597Y-54725464D01*
X132430713Y-54754399D01*
X132430715Y-54754400D01*
X132583442Y-54795323D01*
X132583443Y-54795323D01*
X135020943Y-54795323D01*
X135179057Y-54795323D01*
X135687403Y-54795323D01*
X135754442Y-54815008D01*
X135775083Y-54831641D01*
X140206284Y-59262843D01*
X140206286Y-59262844D01*
X140206290Y-59262847D01*
X140324437Y-59331058D01*
X140343216Y-59341900D01*
X140495943Y-59382824D01*
X140495945Y-59382824D01*
X140661654Y-59382824D01*
X140661670Y-59382823D01*
X143320234Y-59382823D01*
X143387273Y-59402508D01*
X143389125Y-59403721D01*
X143520814Y-59491713D01*
X143520827Y-59491720D01*
X143666498Y-59552058D01*
X143666503Y-59552060D01*
X143821153Y-59582822D01*
X143821156Y-59582823D01*
X143821158Y-59582823D01*
X143978844Y-59582823D01*
X143978845Y-59582822D01*
X144133497Y-59552060D01*
X144279179Y-59491717D01*
X144410289Y-59404112D01*
X144521789Y-59292612D01*
X144609394Y-59161502D01*
X144669737Y-59015820D01*
X144700500Y-58861165D01*
X144700500Y-58703481D01*
X144700500Y-58703478D01*
X144700499Y-58703476D01*
X144696543Y-58683587D01*
X144669737Y-58548826D01*
X144669735Y-58548821D01*
X144609397Y-58403150D01*
X144609390Y-58403137D01*
X144521789Y-58272034D01*
X144521786Y-58272030D01*
X144410292Y-58160536D01*
X144410288Y-58160533D01*
X144279185Y-58072932D01*
X144279172Y-58072925D01*
X144133501Y-58012587D01*
X144133489Y-58012584D01*
X143978845Y-57981823D01*
X143978842Y-57981823D01*
X143821158Y-57981823D01*
X143821155Y-57981823D01*
X143666510Y-58012584D01*
X143666498Y-58012587D01*
X143520827Y-58072925D01*
X143520814Y-58072932D01*
X143389125Y-58160925D01*
X143322447Y-58181803D01*
X143320234Y-58181823D01*
X140875098Y-58181823D01*
X140808059Y-58162138D01*
X140787417Y-58145504D01*
X136475090Y-53833178D01*
X136475088Y-53833175D01*
X136356217Y-53714304D01*
X136356216Y-53714303D01*
X136248407Y-53652060D01*
X136248406Y-53652059D01*
X136219283Y-53635245D01*
X136163381Y-53620266D01*
X136066557Y-53594322D01*
X135974500Y-53594322D01*
X135907461Y-53574637D01*
X135861706Y-53521833D01*
X135850500Y-53470322D01*
X135850500Y-53353478D01*
X135850499Y-53353476D01*
X135832204Y-53261502D01*
X135819737Y-53198826D01*
X135785352Y-53115812D01*
X135759397Y-53053150D01*
X135759390Y-53053137D01*
X135671789Y-52922034D01*
X135671786Y-52922030D01*
X135560292Y-52810536D01*
X135560288Y-52810533D01*
X135429185Y-52722932D01*
X135429172Y-52722925D01*
X135283501Y-52662587D01*
X135283489Y-52662584D01*
X135128845Y-52631823D01*
X135128842Y-52631823D01*
X134971158Y-52631823D01*
X134971155Y-52631823D01*
X134816510Y-52662584D01*
X134816498Y-52662587D01*
X134670827Y-52722925D01*
X134670814Y-52722932D01*
X134539711Y-52810533D01*
X134539707Y-52810536D01*
X134428213Y-52922030D01*
X134428210Y-52922034D01*
X134340609Y-53053137D01*
X134340602Y-53053150D01*
X134280264Y-53198821D01*
X134280261Y-53198833D01*
X134249500Y-53353476D01*
X134249500Y-53470323D01*
X134229815Y-53537362D01*
X134177011Y-53583117D01*
X134125500Y-53594323D01*
X132962597Y-53594323D01*
X132895558Y-53574638D01*
X132874916Y-53558004D01*
X132184574Y-52867662D01*
X132151089Y-52806339D01*
X132150638Y-52804172D01*
X132122474Y-52662586D01*
X132119737Y-52648826D01*
X132112694Y-52631823D01*
X132059397Y-52503150D01*
X132059390Y-52503137D01*
X131971789Y-52372034D01*
X131971786Y-52372030D01*
X131860292Y-52260536D01*
X131860288Y-52260533D01*
X131729185Y-52172932D01*
X131729172Y-52172925D01*
X131583501Y-52112587D01*
X131583489Y-52112584D01*
X131428845Y-52081823D01*
X131428842Y-52081823D01*
X131271158Y-52081823D01*
X131271155Y-52081823D01*
X131116510Y-52112584D01*
X131116498Y-52112587D01*
X130970827Y-52172925D01*
X130970814Y-52172932D01*
X130839711Y-52260533D01*
X130839707Y-52260536D01*
X130728213Y-52372030D01*
X130728210Y-52372034D01*
X130640609Y-52503137D01*
X130640602Y-52503150D01*
X130580264Y-52648821D01*
X130580261Y-52648833D01*
X130549500Y-52803476D01*
X129250500Y-52803476D01*
X129250500Y-41884478D01*
X130430000Y-41884478D01*
X130430000Y-42532323D01*
X131346988Y-42532323D01*
X131314075Y-42589330D01*
X131280000Y-42716497D01*
X131280000Y-42848149D01*
X131314075Y-42975316D01*
X131346988Y-43032323D01*
X130430000Y-43032323D01*
X130430000Y-43680167D01*
X130436401Y-43739695D01*
X130436403Y-43739702D01*
X130486645Y-43874409D01*
X130486649Y-43874416D01*
X130572809Y-43989510D01*
X130572812Y-43989513D01*
X130687906Y-44075673D01*
X130687913Y-44075677D01*
X130822620Y-44125919D01*
X130822627Y-44125921D01*
X130882155Y-44132322D01*
X130882172Y-44132323D01*
X131530000Y-44132323D01*
X131530000Y-43215335D01*
X131587007Y-43248248D01*
X131714174Y-43282323D01*
X131845826Y-43282323D01*
X131972993Y-43248248D01*
X132030000Y-43215335D01*
X132030000Y-44132323D01*
X132677828Y-44132323D01*
X132677844Y-44132322D01*
X132737372Y-44125921D01*
X132737379Y-44125919D01*
X132872086Y-44075677D01*
X132872093Y-44075673D01*
X132987187Y-43989513D01*
X132987190Y-43989510D01*
X133073350Y-43874416D01*
X133073354Y-43874409D01*
X133122422Y-43742852D01*
X133164293Y-43686918D01*
X133229757Y-43662501D01*
X133298030Y-43677353D01*
X133326285Y-43698504D01*
X133440213Y-43812432D01*
X133612179Y-43937371D01*
X133612181Y-43937372D01*
X133612184Y-43937374D01*
X133801588Y-44033880D01*
X134003757Y-44099569D01*
X134213713Y-44132823D01*
X134213714Y-44132823D01*
X134426286Y-44132823D01*
X134426287Y-44132823D01*
X134636243Y-44099569D01*
X134838412Y-44033880D01*
X134999217Y-43951945D01*
X135067885Y-43939050D01*
X135132626Y-43965326D01*
X135143192Y-43974750D01*
X137115139Y-45946697D01*
X137115149Y-45946708D01*
X137119479Y-45951038D01*
X137119480Y-45951039D01*
X137231284Y-46062843D01*
X137318095Y-46112962D01*
X137318097Y-46112964D01*
X137356151Y-46134934D01*
X137368215Y-46141900D01*
X137520943Y-46182824D01*
X137520946Y-46182824D01*
X137686653Y-46182824D01*
X137686669Y-46182823D01*
X138570234Y-46182823D01*
X138637273Y-46202508D01*
X138639125Y-46203721D01*
X138770814Y-46291713D01*
X138770827Y-46291720D01*
X138916498Y-46352058D01*
X138916503Y-46352060D01*
X139071153Y-46382822D01*
X139071156Y-46382823D01*
X139071158Y-46382823D01*
X139228844Y-46382823D01*
X139228845Y-46382822D01*
X139383497Y-46352060D01*
X139529179Y-46291717D01*
X139583663Y-46255312D01*
X139660875Y-46203721D01*
X139727553Y-46182843D01*
X139729766Y-46182823D01*
X145125500Y-46182823D01*
X145192539Y-46202508D01*
X145238294Y-46255312D01*
X145249500Y-46306823D01*
X145249500Y-49945653D01*
X145249499Y-49945671D01*
X145249499Y-50111377D01*
X145249498Y-50111377D01*
X145265165Y-50169844D01*
X145290423Y-50264108D01*
X145304605Y-50288672D01*
X145319358Y-50314223D01*
X145319359Y-50314227D01*
X145319360Y-50314227D01*
X145369479Y-50401037D01*
X145369481Y-50401040D01*
X145488349Y-50519908D01*
X145488355Y-50519913D01*
X154263181Y-59294739D01*
X154296666Y-59356062D01*
X154299500Y-59382420D01*
X154299500Y-61774382D01*
X154279815Y-61841421D01*
X154263181Y-61862063D01*
X154178213Y-61947030D01*
X154178210Y-61947034D01*
X154090609Y-62078137D01*
X154090602Y-62078150D01*
X154030264Y-62223821D01*
X154030261Y-62223833D01*
X153999500Y-62378476D01*
X153999500Y-62536169D01*
X154030261Y-62690812D01*
X154030264Y-62690824D01*
X154090602Y-62836495D01*
X154090609Y-62836508D01*
X154178210Y-62967611D01*
X154178213Y-62967615D01*
X154289707Y-63079109D01*
X154289711Y-63079112D01*
X154420814Y-63166713D01*
X154420827Y-63166720D01*
X154550236Y-63220322D01*
X154566503Y-63227060D01*
X154566507Y-63227060D01*
X154566508Y-63227061D01*
X154672808Y-63248206D01*
X154734718Y-63280591D01*
X154769293Y-63341307D01*
X154765553Y-63411076D01*
X154724686Y-63467748D01*
X154672808Y-63491440D01*
X154566508Y-63512584D01*
X154566498Y-63512587D01*
X154420827Y-63572925D01*
X154420814Y-63572932D01*
X154289711Y-63660533D01*
X154289707Y-63660536D01*
X154178213Y-63772030D01*
X154178210Y-63772034D01*
X154090609Y-63903137D01*
X154090602Y-63903150D01*
X154030264Y-64048821D01*
X154030261Y-64048833D01*
X153999500Y-64203476D01*
X153999500Y-64214987D01*
X153995350Y-64230475D01*
X153996005Y-64244218D01*
X153982889Y-64276984D01*
X153969362Y-64300415D01*
X153969359Y-64300419D01*
X153940425Y-64350532D01*
X153940424Y-64350533D01*
X153940423Y-64350538D01*
X153899499Y-64503266D01*
X153899499Y-64503268D01*
X153899499Y-64671369D01*
X153899500Y-64671382D01*
X153899500Y-67702557D01*
X153879815Y-67769596D01*
X153878602Y-67771448D01*
X153790609Y-67903137D01*
X153790602Y-67903150D01*
X153730264Y-68048821D01*
X153730261Y-68048833D01*
X153699500Y-68203476D01*
X153699500Y-68361169D01*
X153730261Y-68515812D01*
X153730264Y-68515824D01*
X153790602Y-68661495D01*
X153790609Y-68661508D01*
X153878210Y-68792611D01*
X153878213Y-68792615D01*
X153989707Y-68904109D01*
X153989711Y-68904112D01*
X154120814Y-68991713D01*
X154120827Y-68991720D01*
X154266498Y-69052058D01*
X154266503Y-69052060D01*
X154421153Y-69082822D01*
X154421156Y-69082823D01*
X154421158Y-69082823D01*
X154578844Y-69082823D01*
X154578845Y-69082822D01*
X154733497Y-69052060D01*
X154879179Y-68991717D01*
X155010289Y-68904112D01*
X155121789Y-68792612D01*
X155209394Y-68661502D01*
X155269737Y-68515820D01*
X155300500Y-68361165D01*
X155300500Y-68203481D01*
X155300500Y-68203478D01*
X155300499Y-68203476D01*
X155269738Y-68048833D01*
X155269737Y-68048826D01*
X155269735Y-68048821D01*
X155209397Y-67903150D01*
X155209390Y-67903137D01*
X155121398Y-67771448D01*
X155100520Y-67704770D01*
X155100500Y-67702557D01*
X155100500Y-65731420D01*
X155120185Y-65664381D01*
X155172989Y-65618626D01*
X155242147Y-65608682D01*
X155305703Y-65637707D01*
X155312181Y-65643739D01*
X155515139Y-65846697D01*
X155515149Y-65846708D01*
X155519479Y-65851038D01*
X155519480Y-65851039D01*
X155631284Y-65962843D01*
X155718095Y-66012962D01*
X155718097Y-66012964D01*
X155768208Y-66041896D01*
X155768215Y-66041900D01*
X155920942Y-66082823D01*
X155920943Y-66082823D01*
X155920944Y-66082823D01*
X163929055Y-66082823D01*
X163929057Y-66082823D01*
X164081784Y-66041900D01*
X164218716Y-65962843D01*
X164330520Y-65851039D01*
X164409577Y-65714107D01*
X164450500Y-65561380D01*
X164450500Y-61282420D01*
X164470185Y-61215381D01*
X164486819Y-61194739D01*
X165198947Y-60482611D01*
X166114664Y-59566894D01*
X166175985Y-59533411D01*
X166178152Y-59532960D01*
X166178841Y-59532823D01*
X166178842Y-59532823D01*
X166333497Y-59502060D01*
X166479179Y-59441717D01*
X166610289Y-59354112D01*
X166721789Y-59242612D01*
X166809394Y-59111502D01*
X166869737Y-58965820D01*
X166900500Y-58811165D01*
X166900500Y-58653481D01*
X166900500Y-58653478D01*
X166900499Y-58653476D01*
X166879684Y-58548833D01*
X166869737Y-58498826D01*
X166830102Y-58403137D01*
X166809397Y-58353150D01*
X166809390Y-58353137D01*
X166721789Y-58222034D01*
X166721786Y-58222030D01*
X166610292Y-58110536D01*
X166610288Y-58110533D01*
X166479185Y-58022932D01*
X166479172Y-58022925D01*
X166333501Y-57962587D01*
X166333489Y-57962584D01*
X166178845Y-57931823D01*
X166178842Y-57931823D01*
X166021158Y-57931823D01*
X166021155Y-57931823D01*
X165866510Y-57962584D01*
X165866498Y-57962587D01*
X165720827Y-58022925D01*
X165720814Y-58022932D01*
X165589711Y-58110533D01*
X165589707Y-58110536D01*
X165478213Y-58222030D01*
X165478210Y-58222034D01*
X165390609Y-58353137D01*
X165390602Y-58353150D01*
X165330264Y-58498821D01*
X165330261Y-58498831D01*
X165299362Y-58654171D01*
X165266977Y-58716082D01*
X165265426Y-58717660D01*
X163481286Y-60501801D01*
X163369481Y-60613605D01*
X163369480Y-60613607D01*
X163330157Y-60681717D01*
X163290423Y-60750538D01*
X163249499Y-60903266D01*
X163249499Y-60903268D01*
X163249499Y-61071369D01*
X163249500Y-61071382D01*
X163249500Y-64757823D01*
X163229815Y-64824862D01*
X163177011Y-64870617D01*
X163125500Y-64881823D01*
X156300097Y-64881823D01*
X156233058Y-64862138D01*
X156212416Y-64845504D01*
X155634574Y-64267662D01*
X155601089Y-64206339D01*
X155600638Y-64204172D01*
X155569738Y-64048833D01*
X155569737Y-64048826D01*
X155569735Y-64048821D01*
X155509397Y-63903150D01*
X155509390Y-63903137D01*
X155421789Y-63772034D01*
X155421786Y-63772030D01*
X155310292Y-63660536D01*
X155310288Y-63660533D01*
X155179185Y-63572932D01*
X155179172Y-63572925D01*
X155033501Y-63512587D01*
X155033489Y-63512584D01*
X154927192Y-63491440D01*
X154865281Y-63459055D01*
X154830707Y-63398339D01*
X154834446Y-63328570D01*
X154875313Y-63271898D01*
X154927192Y-63248206D01*
X154974705Y-63238754D01*
X155033497Y-63227060D01*
X155179179Y-63166717D01*
X155273459Y-63103721D01*
X155340136Y-63082843D01*
X155342350Y-63082823D01*
X157357650Y-63082823D01*
X157424689Y-63102508D01*
X157426541Y-63103721D01*
X157520821Y-63166717D01*
X157520823Y-63166718D01*
X157520827Y-63166720D01*
X157650236Y-63220322D01*
X157666503Y-63227060D01*
X157821153Y-63257822D01*
X157821156Y-63257823D01*
X157821158Y-63257823D01*
X157978844Y-63257823D01*
X157978845Y-63257822D01*
X158133497Y-63227060D01*
X158279179Y-63166717D01*
X158410289Y-63079112D01*
X158521789Y-62967612D01*
X158609394Y-62836502D01*
X158669737Y-62690820D01*
X158700500Y-62536165D01*
X158700500Y-62378481D01*
X158700500Y-62378478D01*
X158700499Y-62378476D01*
X158669738Y-62223833D01*
X158669737Y-62223826D01*
X158654202Y-62186321D01*
X158609397Y-62078150D01*
X158609390Y-62078137D01*
X158521789Y-61947034D01*
X158521786Y-61947030D01*
X158410292Y-61835536D01*
X158410288Y-61835533D01*
X158279185Y-61747932D01*
X158279172Y-61747925D01*
X158133501Y-61687587D01*
X158133489Y-61687584D01*
X157978845Y-61656823D01*
X157978842Y-61656823D01*
X157821158Y-61656823D01*
X157821155Y-61656823D01*
X157666510Y-61687584D01*
X157666498Y-61687587D01*
X157520827Y-61747925D01*
X157520814Y-61747932D01*
X157389711Y-61835533D01*
X157389707Y-61835536D01*
X157379740Y-61845504D01*
X157318417Y-61878989D01*
X157292059Y-61881823D01*
X155624500Y-61881823D01*
X155557461Y-61862138D01*
X155511706Y-61809334D01*
X155500500Y-61757823D01*
X155500500Y-59171383D01*
X155500501Y-59171370D01*
X155500501Y-59003267D01*
X155462425Y-58861169D01*
X155459577Y-58850539D01*
X155436845Y-58811165D01*
X155380524Y-58713613D01*
X155380518Y-58713605D01*
X146486819Y-49819906D01*
X146453334Y-49758583D01*
X146450500Y-49732225D01*
X146450500Y-45882419D01*
X146470185Y-45815380D01*
X146486814Y-45794743D01*
X147537819Y-44743737D01*
X147599142Y-44710253D01*
X147668834Y-44715237D01*
X147724767Y-44757109D01*
X147749184Y-44822573D01*
X147749485Y-44831024D01*
X147749500Y-44831169D01*
X147780261Y-44985812D01*
X147780264Y-44985824D01*
X147840602Y-45131495D01*
X147840609Y-45131508D01*
X147928210Y-45262611D01*
X147928213Y-45262615D01*
X148039707Y-45374109D01*
X148039711Y-45374112D01*
X148170814Y-45461713D01*
X148170827Y-45461720D01*
X148316498Y-45522058D01*
X148316503Y-45522060D01*
X148471153Y-45552822D01*
X148471156Y-45552823D01*
X148471158Y-45552823D01*
X148628844Y-45552823D01*
X148628845Y-45552822D01*
X148783497Y-45522060D01*
X148929179Y-45461717D01*
X148965045Y-45437751D01*
X149031718Y-45416874D01*
X149099099Y-45435357D01*
X149121615Y-45453173D01*
X149563181Y-45894739D01*
X149596666Y-45956062D01*
X149599500Y-45982420D01*
X149599500Y-48795653D01*
X149599499Y-48795671D01*
X149599499Y-48961377D01*
X149599498Y-48961377D01*
X149640424Y-49114112D01*
X149640425Y-49114113D01*
X149663030Y-49153265D01*
X149663031Y-49153267D01*
X149719475Y-49251032D01*
X149719481Y-49251040D01*
X149838349Y-49369908D01*
X149838355Y-49369913D01*
X160263181Y-59794739D01*
X160296666Y-59856062D01*
X160299500Y-59882420D01*
X160299500Y-61840057D01*
X160279815Y-61907096D01*
X160278602Y-61908948D01*
X160190609Y-62040637D01*
X160190602Y-62040650D01*
X160130264Y-62186321D01*
X160130261Y-62186333D01*
X160099500Y-62340976D01*
X160099500Y-62498669D01*
X160130261Y-62653312D01*
X160130264Y-62653324D01*
X160190602Y-62798995D01*
X160190609Y-62799008D01*
X160278210Y-62930111D01*
X160278213Y-62930115D01*
X160389707Y-63041609D01*
X160389711Y-63041612D01*
X160520814Y-63129213D01*
X160520827Y-63129220D01*
X160666498Y-63189558D01*
X160666503Y-63189560D01*
X160821153Y-63220322D01*
X160821156Y-63220323D01*
X160821158Y-63220323D01*
X160978844Y-63220323D01*
X160978845Y-63220322D01*
X161133497Y-63189560D01*
X161279179Y-63129217D01*
X161410289Y-63041612D01*
X161521789Y-62930112D01*
X161609394Y-62799002D01*
X161669737Y-62653320D01*
X161700500Y-62498665D01*
X161700500Y-62340981D01*
X161700500Y-62340978D01*
X161700499Y-62340976D01*
X161669737Y-62186326D01*
X161669735Y-62186321D01*
X161609397Y-62040650D01*
X161609390Y-62040637D01*
X161521398Y-61908948D01*
X161500520Y-61842270D01*
X161500500Y-61840057D01*
X161500500Y-59503268D01*
X161500500Y-59503266D01*
X161476245Y-59412746D01*
X161459577Y-59350538D01*
X161423239Y-59287599D01*
X161380520Y-59213607D01*
X161268716Y-59101803D01*
X161268715Y-59101802D01*
X161264385Y-59097472D01*
X161264374Y-59097462D01*
X151470692Y-49303780D01*
X153674499Y-49303780D01*
X153702379Y-49443937D01*
X153702381Y-49443943D01*
X153757069Y-49575973D01*
X153757074Y-49575982D01*
X153836467Y-49694801D01*
X153836470Y-49694805D01*
X153937517Y-49795852D01*
X153937521Y-49795855D01*
X153987456Y-49829221D01*
X154032261Y-49882833D01*
X154040968Y-49952158D01*
X154010813Y-50015186D01*
X153987456Y-50035425D01*
X153937521Y-50068790D01*
X153937517Y-50068793D01*
X153836470Y-50169840D01*
X153836467Y-50169844D01*
X153757074Y-50288663D01*
X153757069Y-50288672D01*
X153702381Y-50420702D01*
X153702379Y-50420708D01*
X153674500Y-50560865D01*
X153674500Y-50560868D01*
X153674500Y-50703778D01*
X153674500Y-50703780D01*
X153674499Y-50703780D01*
X153702379Y-50843937D01*
X153702381Y-50843943D01*
X153757069Y-50975973D01*
X153757074Y-50975982D01*
X153836467Y-51094801D01*
X153836470Y-51094805D01*
X153937517Y-51195852D01*
X153937521Y-51195855D01*
X154056340Y-51275248D01*
X154056346Y-51275251D01*
X154056347Y-51275252D01*
X154188380Y-51329942D01*
X154285613Y-51349283D01*
X154347524Y-51381667D01*
X154382098Y-51442383D01*
X154383039Y-51446708D01*
X154402379Y-51543937D01*
X154402381Y-51543943D01*
X154457069Y-51675973D01*
X154457074Y-51675982D01*
X154536467Y-51794801D01*
X154536470Y-51794805D01*
X154637517Y-51895852D01*
X154637521Y-51895855D01*
X154756340Y-51975248D01*
X154756346Y-51975251D01*
X154756347Y-51975252D01*
X154888380Y-52029942D01*
X154888384Y-52029942D01*
X154888385Y-52029943D01*
X155028542Y-52057823D01*
X155028545Y-52057823D01*
X155171457Y-52057823D01*
X155265751Y-52039065D01*
X155311620Y-52029942D01*
X155443653Y-51975252D01*
X155562479Y-51895855D01*
X155663532Y-51794802D01*
X155696898Y-51744866D01*
X155750509Y-51700061D01*
X155819834Y-51691354D01*
X155882862Y-51721508D01*
X155903100Y-51744864D01*
X155923089Y-51774779D01*
X155936469Y-51794804D01*
X156037517Y-51895852D01*
X156037521Y-51895855D01*
X156156340Y-51975248D01*
X156156346Y-51975251D01*
X156156347Y-51975252D01*
X156288380Y-52029942D01*
X156288384Y-52029942D01*
X156288385Y-52029943D01*
X156428542Y-52057823D01*
X156428545Y-52057823D01*
X156571457Y-52057823D01*
X156665751Y-52039065D01*
X156711620Y-52029942D01*
X156843653Y-51975252D01*
X156962479Y-51895855D01*
X157063532Y-51794802D01*
X157142929Y-51675976D01*
X157197619Y-51543943D01*
X157216960Y-51446707D01*
X157249344Y-51384798D01*
X157310060Y-51350224D01*
X157314366Y-51349287D01*
X157411620Y-51329942D01*
X157543653Y-51275252D01*
X157662479Y-51195855D01*
X157763532Y-51094802D01*
X157842929Y-50975976D01*
X157897619Y-50843943D01*
X157925500Y-50703778D01*
X157925500Y-50560868D01*
X157925500Y-50560865D01*
X157897620Y-50420708D01*
X157897619Y-50420707D01*
X157897619Y-50420703D01*
X157842929Y-50288670D01*
X157842928Y-50288669D01*
X157842925Y-50288663D01*
X157763532Y-50169844D01*
X157763529Y-50169840D01*
X157662481Y-50068792D01*
X157642456Y-50055412D01*
X157612543Y-50035424D01*
X157567738Y-49981814D01*
X157559031Y-49912489D01*
X157589185Y-49849461D01*
X157612543Y-49829221D01*
X157662479Y-49795855D01*
X157763532Y-49694802D01*
X157842929Y-49575976D01*
X157897619Y-49443943D01*
X157925500Y-49303778D01*
X157925500Y-49160868D01*
X157925500Y-49160865D01*
X157897620Y-49020708D01*
X157897619Y-49020707D01*
X157897619Y-49020703D01*
X157842929Y-48888670D01*
X157842928Y-48888669D01*
X157842925Y-48888663D01*
X157763532Y-48769844D01*
X157763529Y-48769840D01*
X157662482Y-48668793D01*
X157662478Y-48668790D01*
X157543659Y-48589397D01*
X157543650Y-48589392D01*
X157411620Y-48534704D01*
X157411614Y-48534702D01*
X157314385Y-48515362D01*
X157252474Y-48482977D01*
X157217900Y-48422261D01*
X157216960Y-48417936D01*
X157197619Y-48320703D01*
X157142929Y-48188670D01*
X157142928Y-48188669D01*
X157142925Y-48188663D01*
X157063532Y-48069844D01*
X157063529Y-48069840D01*
X156962482Y-47968793D01*
X156962478Y-47968790D01*
X156843659Y-47889397D01*
X156843650Y-47889392D01*
X156711620Y-47834704D01*
X156711614Y-47834702D01*
X156571457Y-47806823D01*
X156571455Y-47806823D01*
X156428545Y-47806823D01*
X156428543Y-47806823D01*
X156288385Y-47834702D01*
X156288379Y-47834704D01*
X156156349Y-47889392D01*
X156156340Y-47889397D01*
X156037521Y-47968790D01*
X156037517Y-47968793D01*
X155936470Y-48069840D01*
X155936467Y-48069844D01*
X155903102Y-48119779D01*
X155849490Y-48164584D01*
X155780165Y-48173291D01*
X155717137Y-48143136D01*
X155696898Y-48119779D01*
X155663532Y-48069844D01*
X155663529Y-48069840D01*
X155562482Y-47968793D01*
X155562478Y-47968790D01*
X155443659Y-47889397D01*
X155443650Y-47889392D01*
X155311620Y-47834704D01*
X155311614Y-47834702D01*
X155171457Y-47806823D01*
X155171455Y-47806823D01*
X155028545Y-47806823D01*
X155028543Y-47806823D01*
X154888385Y-47834702D01*
X154888379Y-47834704D01*
X154756349Y-47889392D01*
X154756340Y-47889397D01*
X154637521Y-47968790D01*
X154637517Y-47968793D01*
X154536470Y-48069840D01*
X154536467Y-48069844D01*
X154457074Y-48188663D01*
X154457069Y-48188672D01*
X154402381Y-48320702D01*
X154402379Y-48320708D01*
X154383039Y-48417937D01*
X154350654Y-48479848D01*
X154289938Y-48514422D01*
X154285614Y-48515362D01*
X154188385Y-48534702D01*
X154188379Y-48534704D01*
X154056349Y-48589392D01*
X154056340Y-48589397D01*
X153937521Y-48668790D01*
X153937517Y-48668793D01*
X153836470Y-48769840D01*
X153836467Y-48769844D01*
X153757074Y-48888663D01*
X153757069Y-48888672D01*
X153702381Y-49020702D01*
X153702379Y-49020708D01*
X153674500Y-49160865D01*
X153674500Y-49160868D01*
X153674500Y-49303778D01*
X153674500Y-49303780D01*
X153674499Y-49303780D01*
X151470692Y-49303780D01*
X150836819Y-48669907D01*
X150803334Y-48608584D01*
X150800500Y-48582226D01*
X150800500Y-45771383D01*
X150800501Y-45771370D01*
X150800501Y-45603267D01*
X150800501Y-45603266D01*
X150759577Y-45450539D01*
X150719553Y-45381215D01*
X150680524Y-45313613D01*
X150680518Y-45313605D01*
X149757590Y-44390678D01*
X149757588Y-44390675D01*
X149638717Y-44271804D01*
X149638716Y-44271803D01*
X149551904Y-44221683D01*
X149551904Y-44221682D01*
X149551900Y-44221681D01*
X149501785Y-44192746D01*
X149349057Y-44151822D01*
X149297396Y-44151822D01*
X149230357Y-44132137D01*
X149184602Y-44079333D01*
X149174658Y-44010175D01*
X149194294Y-43958931D01*
X149259390Y-43861508D01*
X149259390Y-43861507D01*
X149259394Y-43861502D01*
X149319737Y-43715820D01*
X149350500Y-43561165D01*
X149350500Y-43403481D01*
X149350500Y-43403478D01*
X149350499Y-43403476D01*
X149319738Y-43248833D01*
X149319737Y-43248826D01*
X149263728Y-43113607D01*
X149259397Y-43103150D01*
X149259390Y-43103137D01*
X149171789Y-42972034D01*
X149171786Y-42972030D01*
X149060292Y-42860536D01*
X149060288Y-42860533D01*
X148929185Y-42772932D01*
X148929172Y-42772925D01*
X148783501Y-42712587D01*
X148783489Y-42712584D01*
X148628845Y-42681823D01*
X148628842Y-42681823D01*
X148471158Y-42681823D01*
X148471155Y-42681823D01*
X148316510Y-42712584D01*
X148316498Y-42712587D01*
X148170827Y-42772925D01*
X148170814Y-42772932D01*
X148039125Y-42860925D01*
X147972447Y-42881803D01*
X147970234Y-42881823D01*
X147870940Y-42881823D01*
X147830019Y-42892787D01*
X147830019Y-42892788D01*
X147792751Y-42902774D01*
X147718214Y-42922746D01*
X147718209Y-42922749D01*
X147581290Y-43001798D01*
X147581282Y-43001804D01*
X147469478Y-43113609D01*
X147106284Y-43476804D01*
X145637584Y-44945504D01*
X145576261Y-44978989D01*
X145549903Y-44981823D01*
X139729766Y-44981823D01*
X139662727Y-44962138D01*
X139660875Y-44960925D01*
X139529185Y-44872932D01*
X139529172Y-44872925D01*
X139383501Y-44812587D01*
X139383489Y-44812584D01*
X139228845Y-44781823D01*
X139228842Y-44781823D01*
X139071158Y-44781823D01*
X139071155Y-44781823D01*
X138916510Y-44812584D01*
X138916498Y-44812587D01*
X138770827Y-44872925D01*
X138770814Y-44872932D01*
X138639125Y-44960925D01*
X138572447Y-44981803D01*
X138570234Y-44981823D01*
X137900097Y-44981823D01*
X137833058Y-44962138D01*
X137812416Y-44945504D01*
X137161005Y-44294093D01*
X137127520Y-44232770D01*
X137132504Y-44163078D01*
X137174376Y-44107145D01*
X137210368Y-44088481D01*
X137378412Y-44033880D01*
X137567816Y-43937374D01*
X137654471Y-43874416D01*
X137739786Y-43812432D01*
X137739788Y-43812429D01*
X137739792Y-43812427D01*
X137890104Y-43662115D01*
X137890106Y-43662111D01*
X137890109Y-43662109D01*
X138015048Y-43490143D01*
X138015047Y-43490143D01*
X138015051Y-43490139D01*
X138019514Y-43481377D01*
X138067488Y-43430582D01*
X138135308Y-43413786D01*
X138201444Y-43436322D01*
X138240486Y-43481379D01*
X138244951Y-43490143D01*
X138369890Y-43662109D01*
X138520213Y-43812432D01*
X138692179Y-43937371D01*
X138692181Y-43937372D01*
X138692184Y-43937374D01*
X138881588Y-44033880D01*
X139083757Y-44099569D01*
X139293713Y-44132823D01*
X139293714Y-44132823D01*
X139506286Y-44132823D01*
X139506287Y-44132823D01*
X139716243Y-44099569D01*
X139918412Y-44033880D01*
X140107816Y-43937374D01*
X140194471Y-43874416D01*
X140279786Y-43812432D01*
X140279788Y-43812429D01*
X140279792Y-43812427D01*
X140430104Y-43662115D01*
X140430106Y-43662111D01*
X140430109Y-43662109D01*
X140555048Y-43490143D01*
X140555047Y-43490143D01*
X140555051Y-43490139D01*
X140559514Y-43481377D01*
X140607488Y-43430582D01*
X140675308Y-43413786D01*
X140741444Y-43436322D01*
X140780486Y-43481379D01*
X140784951Y-43490143D01*
X140909890Y-43662109D01*
X141060213Y-43812432D01*
X141232179Y-43937371D01*
X141232181Y-43937372D01*
X141232184Y-43937374D01*
X141421588Y-44033880D01*
X141623757Y-44099569D01*
X141833713Y-44132823D01*
X141833714Y-44132823D01*
X142046286Y-44132823D01*
X142046287Y-44132823D01*
X142256243Y-44099569D01*
X142458412Y-44033880D01*
X142647816Y-43937374D01*
X142734471Y-43874416D01*
X142819786Y-43812432D01*
X142819788Y-43812429D01*
X142819792Y-43812427D01*
X142970104Y-43662115D01*
X142970106Y-43662111D01*
X142970109Y-43662109D01*
X143095048Y-43490143D01*
X143095047Y-43490143D01*
X143095051Y-43490139D01*
X143099514Y-43481377D01*
X143147488Y-43430582D01*
X143215308Y-43413786D01*
X143281444Y-43436322D01*
X143320486Y-43481379D01*
X143324951Y-43490143D01*
X143449890Y-43662109D01*
X143600213Y-43812432D01*
X143772179Y-43937371D01*
X143772181Y-43937372D01*
X143772184Y-43937374D01*
X143961588Y-44033880D01*
X144163757Y-44099569D01*
X144373713Y-44132823D01*
X144373714Y-44132823D01*
X144586286Y-44132823D01*
X144586287Y-44132823D01*
X144796243Y-44099569D01*
X144998412Y-44033880D01*
X145187816Y-43937374D01*
X145274471Y-43874416D01*
X145359786Y-43812432D01*
X145359788Y-43812429D01*
X145359792Y-43812427D01*
X145510104Y-43662115D01*
X145510106Y-43662111D01*
X145510109Y-43662109D01*
X145635048Y-43490143D01*
X145635047Y-43490143D01*
X145635051Y-43490139D01*
X145731557Y-43300735D01*
X145797246Y-43098566D01*
X145830500Y-42888610D01*
X145830500Y-42676036D01*
X145797246Y-42466080D01*
X145731557Y-42263911D01*
X145635051Y-42074507D01*
X145635049Y-42074504D01*
X145635048Y-42074502D01*
X145510109Y-41902536D01*
X145359786Y-41752213D01*
X145187820Y-41627274D01*
X144998414Y-41530767D01*
X144998413Y-41530766D01*
X144998412Y-41530766D01*
X144796243Y-41465077D01*
X144796241Y-41465076D01*
X144796240Y-41465076D01*
X144634957Y-41439531D01*
X144586287Y-41431823D01*
X144373713Y-41431823D01*
X144325042Y-41439531D01*
X144163760Y-41465076D01*
X143961585Y-41530767D01*
X143772179Y-41627274D01*
X143600213Y-41752213D01*
X143449890Y-41902536D01*
X143324949Y-42074505D01*
X143320484Y-42083269D01*
X143272509Y-42134065D01*
X143204688Y-42150859D01*
X143138553Y-42128321D01*
X143099516Y-42083269D01*
X143095050Y-42074505D01*
X142970109Y-41902536D01*
X142819786Y-41752213D01*
X142647820Y-41627274D01*
X142458414Y-41530767D01*
X142458413Y-41530766D01*
X142458412Y-41530766D01*
X142256243Y-41465077D01*
X142256241Y-41465076D01*
X142256240Y-41465076D01*
X142094957Y-41439531D01*
X142046287Y-41431823D01*
X141833713Y-41431823D01*
X141785042Y-41439531D01*
X141623760Y-41465076D01*
X141421585Y-41530767D01*
X141232179Y-41627274D01*
X141060213Y-41752213D01*
X140909890Y-41902536D01*
X140784949Y-42074505D01*
X140780484Y-42083269D01*
X140732509Y-42134065D01*
X140664688Y-42150859D01*
X140598553Y-42128321D01*
X140559516Y-42083269D01*
X140555050Y-42074505D01*
X140430109Y-41902536D01*
X140279786Y-41752213D01*
X140107820Y-41627274D01*
X139918414Y-41530767D01*
X139918413Y-41530766D01*
X139918412Y-41530766D01*
X139716243Y-41465077D01*
X139716241Y-41465076D01*
X139716240Y-41465076D01*
X139554957Y-41439531D01*
X139506287Y-41431823D01*
X139293713Y-41431823D01*
X139245042Y-41439531D01*
X139083760Y-41465076D01*
X138881585Y-41530767D01*
X138692179Y-41627274D01*
X138520213Y-41752213D01*
X138369890Y-41902536D01*
X138244949Y-42074505D01*
X138240484Y-42083269D01*
X138192509Y-42134065D01*
X138124688Y-42150859D01*
X138058553Y-42128321D01*
X138019516Y-42083269D01*
X138015050Y-42074505D01*
X137890109Y-41902536D01*
X137739786Y-41752213D01*
X137567820Y-41627274D01*
X137378414Y-41530767D01*
X137378413Y-41530766D01*
X137378412Y-41530766D01*
X137176243Y-41465077D01*
X137176241Y-41465076D01*
X137176240Y-41465076D01*
X137014957Y-41439531D01*
X136966287Y-41431823D01*
X136753713Y-41431823D01*
X136705042Y-41439531D01*
X136543760Y-41465076D01*
X136341585Y-41530767D01*
X136152179Y-41627274D01*
X135980213Y-41752213D01*
X135829890Y-41902536D01*
X135704949Y-42074505D01*
X135700484Y-42083269D01*
X135652509Y-42134065D01*
X135584688Y-42150859D01*
X135518553Y-42128321D01*
X135479516Y-42083269D01*
X135475050Y-42074505D01*
X135350109Y-41902536D01*
X135199786Y-41752213D01*
X135027820Y-41627274D01*
X134838414Y-41530767D01*
X134838413Y-41530766D01*
X134838412Y-41530766D01*
X134636243Y-41465077D01*
X134636241Y-41465076D01*
X134636240Y-41465076D01*
X134474957Y-41439531D01*
X134426287Y-41431823D01*
X134213713Y-41431823D01*
X134165042Y-41439531D01*
X134003760Y-41465076D01*
X133801585Y-41530767D01*
X133612179Y-41627274D01*
X133440215Y-41752212D01*
X133326285Y-41866142D01*
X133264962Y-41899626D01*
X133195270Y-41894642D01*
X133139337Y-41852770D01*
X133122422Y-41821793D01*
X133073354Y-41690236D01*
X133073350Y-41690229D01*
X132987190Y-41575135D01*
X132987187Y-41575132D01*
X132872093Y-41488972D01*
X132872086Y-41488968D01*
X132737379Y-41438726D01*
X132737372Y-41438724D01*
X132677844Y-41432323D01*
X132030000Y-41432323D01*
X132030000Y-42349311D01*
X131972993Y-42316398D01*
X131845826Y-42282323D01*
X131714174Y-42282323D01*
X131587007Y-42316398D01*
X131530000Y-42349311D01*
X131530000Y-41432323D01*
X130882155Y-41432323D01*
X130822627Y-41438724D01*
X130822620Y-41438726D01*
X130687913Y-41488968D01*
X130687906Y-41488972D01*
X130572812Y-41575132D01*
X130572809Y-41575135D01*
X130486649Y-41690229D01*
X130486645Y-41690236D01*
X130436403Y-41824943D01*
X130436401Y-41824950D01*
X130430000Y-41884478D01*
X129250500Y-41884478D01*
X129250500Y-37779971D01*
X130099500Y-37779971D01*
X130099500Y-37984674D01*
X130131522Y-38186857D01*
X130194781Y-38381546D01*
X130287715Y-38563936D01*
X130408028Y-38729536D01*
X130552786Y-38874294D01*
X130707749Y-38986879D01*
X130718390Y-38994610D01*
X130834607Y-39053826D01*
X130900776Y-39087541D01*
X130900778Y-39087541D01*
X130900781Y-39087543D01*
X131005137Y-39121450D01*
X131095465Y-39150800D01*
X131196557Y-39166811D01*
X131297648Y-39182823D01*
X131297649Y-39182823D01*
X131502351Y-39182823D01*
X131502352Y-39182823D01*
X131704534Y-39150800D01*
X131899219Y-39087543D01*
X132081610Y-38994610D01*
X132174590Y-38927055D01*
X132247213Y-38874294D01*
X132247215Y-38874291D01*
X132247219Y-38874289D01*
X132391966Y-38729542D01*
X132391968Y-38729538D01*
X132391971Y-38729536D01*
X132444732Y-38656913D01*
X132512287Y-38563933D01*
X132605220Y-38381542D01*
X132668477Y-38186857D01*
X132700500Y-37984675D01*
X132700500Y-37779971D01*
X163899500Y-37779971D01*
X163899500Y-37984674D01*
X163931522Y-38186857D01*
X163994781Y-38381546D01*
X164087715Y-38563936D01*
X164208028Y-38729536D01*
X164352786Y-38874294D01*
X164507749Y-38986879D01*
X164518390Y-38994610D01*
X164634607Y-39053826D01*
X164700776Y-39087541D01*
X164700778Y-39087541D01*
X164700781Y-39087543D01*
X164805137Y-39121450D01*
X164895465Y-39150800D01*
X164996557Y-39166811D01*
X165097648Y-39182823D01*
X165097649Y-39182823D01*
X165302351Y-39182823D01*
X165302352Y-39182823D01*
X165504534Y-39150800D01*
X165699219Y-39087543D01*
X165881610Y-38994610D01*
X165974590Y-38927055D01*
X166047213Y-38874294D01*
X166047215Y-38874291D01*
X166047219Y-38874289D01*
X166191966Y-38729542D01*
X166191968Y-38729538D01*
X166191971Y-38729536D01*
X166244732Y-38656913D01*
X166312287Y-38563933D01*
X166405220Y-38381542D01*
X166468477Y-38186857D01*
X166500500Y-37984675D01*
X166500500Y-37779971D01*
X166468477Y-37577789D01*
X166405220Y-37383104D01*
X166405218Y-37383101D01*
X166405218Y-37383099D01*
X166371503Y-37316930D01*
X166312287Y-37200713D01*
X166304556Y-37190072D01*
X166191971Y-37035109D01*
X166047213Y-36890351D01*
X165881613Y-36770038D01*
X165881612Y-36770037D01*
X165881610Y-36770036D01*
X165824653Y-36741014D01*
X165699223Y-36677104D01*
X165504534Y-36613845D01*
X165329995Y-36586201D01*
X165302352Y-36581823D01*
X165097648Y-36581823D01*
X165073329Y-36585674D01*
X164895465Y-36613845D01*
X164700776Y-36677104D01*
X164518386Y-36770038D01*
X164352786Y-36890351D01*
X164208028Y-37035109D01*
X164087715Y-37200709D01*
X163994781Y-37383099D01*
X163931522Y-37577788D01*
X163899500Y-37779971D01*
X132700500Y-37779971D01*
X132668477Y-37577789D01*
X132605220Y-37383104D01*
X132605218Y-37383101D01*
X132605218Y-37383099D01*
X132571503Y-37316930D01*
X132512287Y-37200713D01*
X132504556Y-37190072D01*
X132391971Y-37035109D01*
X132247213Y-36890351D01*
X132081613Y-36770038D01*
X132081612Y-36770037D01*
X132081610Y-36770036D01*
X132024653Y-36741014D01*
X131899223Y-36677104D01*
X131704534Y-36613845D01*
X131529995Y-36586201D01*
X131502352Y-36581823D01*
X131297648Y-36581823D01*
X131273329Y-36585674D01*
X131095465Y-36613845D01*
X130900776Y-36677104D01*
X130718386Y-36770038D01*
X130552786Y-36890351D01*
X130408028Y-37035109D01*
X130287715Y-37200709D01*
X130194781Y-37383099D01*
X130131522Y-37577788D01*
X130099500Y-37779971D01*
X129250500Y-37779971D01*
X129250500Y-35856823D01*
X129270185Y-35789784D01*
X129322989Y-35744029D01*
X129374500Y-35732823D01*
X167225500Y-35732823D01*
X167292539Y-35752508D01*
G37*
%TD.AperFunction*%
%TD*%
M02*
