ISO-10303-21;
HEADER;
/* Generated by software containing ST-Developer
 * from STEP Tools, Inc. (www.steptools.com) 
 */

FILE_DESCRIPTION(
/* description */ (''),
/* implementation_level */ '2;1');

FILE_NAME(
/* name */ 'Coperchio.step',
/* time_stamp */ '2026-09-24T00:40:31+02:00',
/* author */ (''),
/* organization */ (''),
/* preprocessor_version */ 'ST-DEVELOPER v20.2',
/* originating_system */ 'Autodesk Translation Framework v15.15.0.0',
/* authorisation */ '');

FILE_SCHEMA (('AUTOMOTIVE_DESIGN { 1 0 10303 214 3 1 1 }'));
ENDSEC;

DATA;
#10=MECHANICAL_DESIGN_GEOMETRIC_PRESENTATION_REPRESENTATION('',(#13),#2022);
#11=SHAPE_REPRESENTATION_RELATIONSHIP('SRR','None',#2029,#12);
#12=ADVANCED_BREP_SHAPE_REPRESENTATION('',(#14),#2021);
#13=STYLED_ITEM('',(#2039),#14);
#14=MANIFOLD_SOLID_BREP('Coperchio',#1161);
#15=CONICAL_SURFACE('',#1197,33.65,0.785398163397448);
#16=CONICAL_SURFACE('',#1204,33.65,0.785398163397445);
#17=CONICAL_SURFACE('',#1216,34.,0.785398163397446);
#18=CONICAL_SURFACE('',#1221,33.65,0.785398163397448);
#19=CONICAL_SURFACE('',#1228,33.65,0.785398163397445);
#20=CONICAL_SURFACE('',#1240,34.,0.785398163397446);
#21=CONICAL_SURFACE('',#1245,33.65,0.785398163397448);
#22=CONICAL_SURFACE('',#1252,33.65,0.785398163397445);
#23=CONICAL_SURFACE('',#1264,34.,0.785398163397446);
#24=CONICAL_SURFACE('',#1265,30.5,0.785398163397451);
#25=CONICAL_SURFACE('',#1272,70.6,0.785398163397451);
#26=B_SPLINE_CURVE_WITH_KNOTS('',3,(#1724,#1725,#1726,#1727,#1728,#1729,
#1730,#1731,#1732,#1733,#1734,#1735,#1736,#1737),.UNSPECIFIED.,.F.,.F.,
(4,2,2,2,2,2,4),(2.1734911238496,2.21198160188625,2.31571094873985,2.41944029559344,
2.52316964244703,2.62689898930063,2.66538946733728),.UNSPECIFIED.);
#27=B_SPLINE_CURVE_WITH_KNOTS('',3,(#1741,#1742,#1743,#1744,#1745,#1746,
#1747,#1748,#1749,#1750,#1751,#1752,#1753,#1754),.UNSPECIFIED.,.F.,.F.,
(4,2,2,2,2,2,4),(0.673867931171725,0.712358409208375,0.816087756061969,
0.919817102915562,1.02354644976916,1.12727579662275,1.1657662746594),
 .UNSPECIFIED.);
#28=B_SPLINE_CURVE_WITH_KNOTS('',3,(#1821,#1822,#1823,#1824,#1825,#1826,
#1827,#1828,#1829,#1830,#1831,#1832,#1833,#1834),.UNSPECIFIED.,.F.,.F.,
(4,2,2,2,2,2,4),(2.17349112384961,2.21198160188625,2.31571094873985,2.41944029559344,
2.52316964244703,2.62689898930063,2.66538946733728),.UNSPECIFIED.);
#29=B_SPLINE_CURVE_WITH_KNOTS('',3,(#1838,#1839,#1840,#1841,#1842,#1843,
#1844,#1845,#1846,#1847,#1848,#1849,#1850,#1851),.UNSPECIFIED.,.F.,.F.,
(4,2,2,2,2,2,4),(0.673867931171723,0.712358409208375,0.816087756061968,
0.919817102915561,1.02354644976915,1.12727579662275,1.1657662746594),
 .UNSPECIFIED.);
#30=B_SPLINE_CURVE_WITH_KNOTS('',3,(#1915,#1916,#1917,#1918,#1919,#1920,
#1921,#1922,#1923,#1924,#1925,#1926,#1927,#1928),.UNSPECIFIED.,.F.,.F.,
(4,2,2,2,2,2,4),(2.1734911238496,2.21198160188625,2.31571094873984,2.41944029559344,
2.52316964244703,2.62689898930062,2.66538946733727),.UNSPECIFIED.);
#31=B_SPLINE_CURVE_WITH_KNOTS('',3,(#1932,#1933,#1934,#1935,#1936,#1937,
#1938,#1939,#1940,#1941,#1942,#1943,#1944,#1945),.UNSPECIFIED.,.F.,.F.,
(4,2,2,2,2,2,4),(0.673867931171725,0.712358409208376,0.816087756061969,
0.919817102915562,1.02354644976916,1.12727579662275,1.1657662746594),
 .UNSPECIFIED.);
#32=CYLINDRICAL_SURFACE('',#1196,4.55);
#33=CYLINDRICAL_SURFACE('',#1201,32.);
#34=CYLINDRICAL_SURFACE('',#1209,35.);
#35=CYLINDRICAL_SURFACE('',#1217,32.);
#36=CYLINDRICAL_SURFACE('',#1220,4.55);
#37=CYLINDRICAL_SURFACE('',#1225,32.);
#38=CYLINDRICAL_SURFACE('',#1233,35.);
#39=CYLINDRICAL_SURFACE('',#1241,32.);
#40=CYLINDRICAL_SURFACE('',#1244,4.55);
#41=CYLINDRICAL_SURFACE('',#1249,32.);
#42=CYLINDRICAL_SURFACE('',#1257,35.);
#43=CYLINDRICAL_SURFACE('',#1268,32.);
#44=CYLINDRICAL_SURFACE('',#1274,71.6);
#45=FACE_BOUND('',#174,.T.);
#46=FACE_BOUND('',#175,.T.);
#47=FACE_BOUND('',#214,.T.);
#48=FACE_BOUND('',#218,.T.);
#49=FACE_BOUND('',#219,.T.);
#50=FACE_BOUND('',#220,.T.);
#51=CIRCLE('',#1194,29.);
#52=CIRCLE('',#1195,29.);
#53=CIRCLE('',#1198,32.);
#54=CIRCLE('',#1199,35.);
#55=CIRCLE('',#1200,32.);
#56=CIRCLE('',#1202,32.);
#57=CIRCLE('',#1205,32.);
#58=CIRCLE('',#1206,35.);
#59=CIRCLE('',#1210,35.);
#60=CIRCLE('',#1211,35.);
#61=CIRCLE('',#1214,32.);
#62=CIRCLE('',#1215,33.);
#63=CIRCLE('',#1218,32.);
#64=CIRCLE('',#1219,32.);
#65=CIRCLE('',#1222,32.);
#66=CIRCLE('',#1223,35.);
#67=CIRCLE('',#1224,32.);
#68=CIRCLE('',#1226,32.);
#69=CIRCLE('',#1229,32.);
#70=CIRCLE('',#1230,35.);
#71=CIRCLE('',#1234,35.);
#72=CIRCLE('',#1235,35.);
#73=CIRCLE('',#1238,32.);
#74=CIRCLE('',#1239,33.);
#75=CIRCLE('',#1242,32.);
#76=CIRCLE('',#1243,32.);
#77=CIRCLE('',#1246,32.);
#78=CIRCLE('',#1247,35.);
#79=CIRCLE('',#1248,32.);
#80=CIRCLE('',#1250,32.);
#81=CIRCLE('',#1253,32.);
#82=CIRCLE('',#1254,35.);
#83=CIRCLE('',#1258,35.);
#84=CIRCLE('',#1259,35.);
#85=CIRCLE('',#1262,32.);
#86=CIRCLE('',#1263,33.);
#87=CIRCLE('',#1266,32.);
#88=CIRCLE('',#1267,32.);
#89=CIRCLE('',#1269,32.);
#90=CIRCLE('',#1271,69.6);
#91=CIRCLE('',#1273,71.6);
#92=CIRCLE('',#1275,71.6);
#93=(
BOUNDED_CURVE()
B_SPLINE_CURVE(2,(#1695,#1696,#1697),.UNSPECIFIED.,.F.,.F.)
B_SPLINE_CURVE_WITH_KNOTS((3,3),(0.,0.156415636832789),.UNSPECIFIED.)
CURVE()
GEOMETRIC_REPRESENTATION_ITEM()
RATIONAL_B_SPLINE_CURVE((1.,1.00150290923522,1.00243133181141))
REPRESENTATION_ITEM('')
);
#94=(
BOUNDED_CURVE()
B_SPLINE_CURVE(2,(#1713,#1714,#1715),.UNSPECIFIED.,.F.,.F.)
B_SPLINE_CURVE_WITH_KNOTS((3,3),(0.370682183982263,0.435885064926378),
 .UNSPECIFIED.)
CURVE()
GEOMETRIC_REPRESENTATION_ITEM()
RATIONAL_B_SPLINE_CURVE((1.00034254799477,1.00020140104029,1.))
REPRESENTATION_ITEM('')
);
#95=FACE_OUTER_BOUND('',#155,.T.);
#96=FACE_OUTER_BOUND('',#156,.T.);
#97=FACE_OUTER_BOUND('',#157,.T.);
#98=FACE_OUTER_BOUND('',#158,.T.);
#99=FACE_OUTER_BOUND('',#159,.T.);
#100=FACE_OUTER_BOUND('',#160,.T.);
#101=FACE_OUTER_BOUND('',#161,.T.);
#102=FACE_OUTER_BOUND('',#162,.T.);
#103=FACE_OUTER_BOUND('',#163,.T.);
#104=FACE_OUTER_BOUND('',#164,.T.);
#105=FACE_OUTER_BOUND('',#165,.T.);
#106=FACE_OUTER_BOUND('',#166,.T.);
#107=FACE_OUTER_BOUND('',#167,.T.);
#108=FACE_OUTER_BOUND('',#168,.T.);
#109=FACE_OUTER_BOUND('',#169,.T.);
#110=FACE_OUTER_BOUND('',#170,.T.);
#111=FACE_OUTER_BOUND('',#171,.T.);
#112=FACE_OUTER_BOUND('',#172,.T.);
#113=FACE_OUTER_BOUND('',#173,.T.);
#114=FACE_OUTER_BOUND('',#176,.T.);
#115=FACE_OUTER_BOUND('',#177,.T.);
#116=FACE_OUTER_BOUND('',#178,.T.);
#117=FACE_OUTER_BOUND('',#179,.T.);
#118=FACE_OUTER_BOUND('',#180,.T.);
#119=FACE_OUTER_BOUND('',#181,.T.);
#120=FACE_OUTER_BOUND('',#182,.T.);
#121=FACE_OUTER_BOUND('',#183,.T.);
#122=FACE_OUTER_BOUND('',#184,.T.);
#123=FACE_OUTER_BOUND('',#185,.T.);
#124=FACE_OUTER_BOUND('',#186,.T.);
#125=FACE_OUTER_BOUND('',#187,.T.);
#126=FACE_OUTER_BOUND('',#188,.T.);
#127=FACE_OUTER_BOUND('',#189,.T.);
#128=FACE_OUTER_BOUND('',#190,.T.);
#129=FACE_OUTER_BOUND('',#191,.T.);
#130=FACE_OUTER_BOUND('',#192,.T.);
#131=FACE_OUTER_BOUND('',#193,.T.);
#132=FACE_OUTER_BOUND('',#194,.T.);
#133=FACE_OUTER_BOUND('',#195,.T.);
#134=FACE_OUTER_BOUND('',#196,.T.);
#135=FACE_OUTER_BOUND('',#197,.T.);
#136=FACE_OUTER_BOUND('',#198,.T.);
#137=FACE_OUTER_BOUND('',#199,.T.);
#138=FACE_OUTER_BOUND('',#200,.T.);
#139=FACE_OUTER_BOUND('',#201,.T.);
#140=FACE_OUTER_BOUND('',#202,.T.);
#141=FACE_OUTER_BOUND('',#203,.T.);
#142=FACE_OUTER_BOUND('',#204,.T.);
#143=FACE_OUTER_BOUND('',#205,.T.);
#144=FACE_OUTER_BOUND('',#206,.T.);
#145=FACE_OUTER_BOUND('',#207,.T.);
#146=FACE_OUTER_BOUND('',#208,.T.);
#147=FACE_OUTER_BOUND('',#209,.T.);
#148=FACE_OUTER_BOUND('',#210,.T.);
#149=FACE_OUTER_BOUND('',#211,.T.);
#150=FACE_OUTER_BOUND('',#212,.T.);
#151=FACE_OUTER_BOUND('',#213,.T.);
#152=FACE_OUTER_BOUND('',#215,.T.);
#153=FACE_OUTER_BOUND('',#216,.T.);
#154=FACE_OUTER_BOUND('',#217,.T.);
#155=EDGE_LOOP('',(#731,#732,#733,#734));
#156=EDGE_LOOP('',(#735,#736,#737,#738));
#157=EDGE_LOOP('',(#739,#740,#741,#742));
#158=EDGE_LOOP('',(#743,#744,#745,#746));
#159=EDGE_LOOP('',(#747,#748,#749,#750));
#160=EDGE_LOOP('',(#751,#752,#753,#754));
#161=EDGE_LOOP('',(#755,#756,#757,#758));
#162=EDGE_LOOP('',(#759,#760,#761,#762,#763,#764));
#163=EDGE_LOOP('',(#765,#766,#767,#768));
#164=EDGE_LOOP('',(#769,#770,#771,#772,#773,#774));
#165=EDGE_LOOP('',(#775,#776,#777,#778));
#166=EDGE_LOOP('',(#779,#780,#781,#782,#783,#784));
#167=EDGE_LOOP('',(#785,#786,#787,#788));
#168=EDGE_LOOP('',(#789,#790,#791,#792,#793,#794));
#169=EDGE_LOOP('',(#795,#796,#797,#798,#799));
#170=EDGE_LOOP('',(#800,#801,#802,#803,#804,#805));
#171=EDGE_LOOP('',(#806,#807,#808,#809));
#172=EDGE_LOOP('',(#810,#811,#812,#813,#814,#815,#816));
#173=EDGE_LOOP('',(#817,#818,#819,#820,#821,#822));
#174=EDGE_LOOP('',(#823,#824,#825,#826));
#175=EDGE_LOOP('',(#827,#828,#829,#830));
#176=EDGE_LOOP('',(#831,#832,#833,#834));
#177=EDGE_LOOP('',(#835,#836,#837,#838,#839,#840));
#178=EDGE_LOOP('',(#841,#842,#843,#844));
#179=EDGE_LOOP('',(#845,#846,#847,#848));
#180=EDGE_LOOP('',(#849,#850,#851,#852,#853,#854));
#181=EDGE_LOOP('',(#855,#856,#857,#858,#859));
#182=EDGE_LOOP('',(#860,#861,#862,#863));
#183=EDGE_LOOP('',(#864,#865,#866,#867,#868,#869,#870,#871));
#184=EDGE_LOOP('',(#872,#873,#874,#875,#876));
#185=EDGE_LOOP('',(#877,#878,#879,#880));
#186=EDGE_LOOP('',(#881,#882,#883,#884));
#187=EDGE_LOOP('',(#885,#886,#887,#888,#889,#890,#891,#892));
#188=EDGE_LOOP('',(#893,#894,#895,#896));
#189=EDGE_LOOP('',(#897,#898,#899,#900,#901,#902));
#190=EDGE_LOOP('',(#903,#904,#905,#906));
#191=EDGE_LOOP('',(#907,#908,#909,#910));
#192=EDGE_LOOP('',(#911,#912,#913,#914,#915,#916));
#193=EDGE_LOOP('',(#917,#918,#919,#920,#921));
#194=EDGE_LOOP('',(#922,#923,#924,#925));
#195=EDGE_LOOP('',(#926,#927,#928,#929,#930,#931,#932,#933));
#196=EDGE_LOOP('',(#934,#935,#936,#937,#938));
#197=EDGE_LOOP('',(#939,#940,#941,#942));
#198=EDGE_LOOP('',(#943,#944,#945,#946));
#199=EDGE_LOOP('',(#947,#948,#949,#950,#951,#952,#953,#954));
#200=EDGE_LOOP('',(#955,#956,#957,#958));
#201=EDGE_LOOP('',(#959,#960,#961,#962,#963,#964));
#202=EDGE_LOOP('',(#965,#966,#967,#968));
#203=EDGE_LOOP('',(#969,#970,#971,#972));
#204=EDGE_LOOP('',(#973,#974,#975,#976,#977,#978));
#205=EDGE_LOOP('',(#979,#980,#981,#982,#983));
#206=EDGE_LOOP('',(#984,#985,#986,#987));
#207=EDGE_LOOP('',(#988,#989,#990,#991,#992,#993,#994,#995));
#208=EDGE_LOOP('',(#996,#997,#998,#999,#1000));
#209=EDGE_LOOP('',(#1001,#1002,#1003,#1004));
#210=EDGE_LOOP('',(#1005,#1006,#1007,#1008));
#211=EDGE_LOOP('',(#1009,#1010,#1011,#1012,#1013,#1014,#1015,#1016,#1017,
#1018,#1019,#1020,#1021));
#212=EDGE_LOOP('',(#1022,#1023,#1024,#1025,#1026,#1027,#1028,#1029,#1030));
#213=EDGE_LOOP('',(#1031));
#214=EDGE_LOOP('',(#1032,#1033,#1034,#1035,#1036,#1037,#1038,#1039,#1040,
#1041,#1042,#1043));
#215=EDGE_LOOP('',(#1044,#1045,#1046,#1047));
#216=EDGE_LOOP('',(#1048,#1049,#1050,#1051));
#217=EDGE_LOOP('',(#1052));
#218=EDGE_LOOP('',(#1053,#1054,#1055,#1056));
#219=EDGE_LOOP('',(#1057,#1058,#1059,#1060));
#220=EDGE_LOOP('',(#1061,#1062,#1063,#1064));
#221=LINE('',#1604,#338);
#222=LINE('',#1606,#339);
#223=LINE('',#1608,#340);
#224=LINE('',#1609,#341);
#225=LINE('',#1612,#342);
#226=LINE('',#1614,#343);
#227=LINE('',#1615,#344);
#228=LINE('',#1619,#345);
#229=LINE('',#1621,#346);
#230=LINE('',#1623,#347);
#231=LINE('',#1624,#348);
#232=LINE('',#1627,#349);
#233=LINE('',#1629,#350);
#234=LINE('',#1630,#351);
#235=LINE('',#1634,#352);
#236=LINE('',#1636,#353);
#237=LINE('',#1638,#354);
#238=LINE('',#1639,#355);
#239=LINE('',#1642,#356);
#240=LINE('',#1644,#357);
#241=LINE('',#1645,#358);
#242=LINE('',#1649,#359);
#243=LINE('',#1651,#360);
#244=LINE('',#1653,#361);
#245=LINE('',#1654,#362);
#246=LINE('',#1656,#363);
#247=LINE('',#1658,#364);
#248=LINE('',#1659,#365);
#249=LINE('',#1662,#366);
#250=LINE('',#1663,#367);
#251=LINE('',#1665,#368);
#252=LINE('',#1666,#369);
#253=LINE('',#1670,#370);
#254=LINE('',#1672,#371);
#255=LINE('',#1674,#372);
#256=LINE('',#1675,#373);
#257=LINE('',#1677,#374);
#258=LINE('',#1679,#375);
#259=LINE('',#1680,#376);
#260=LINE('',#1683,#377);
#261=LINE('',#1684,#378);
#262=LINE('',#1686,#379);
#263=LINE('',#1687,#380);
#264=LINE('',#1691,#381);
#265=LINE('',#1693,#382);
#266=LINE('',#1699,#383);
#267=LINE('',#1700,#384);
#268=LINE('',#1703,#385);
#269=LINE('',#1704,#386);
#270=LINE('',#1705,#387);
#271=LINE('',#1708,#388);
#272=LINE('',#1709,#389);
#273=LINE('',#1712,#390);
#274=LINE('',#1716,#391);
#275=LINE('',#1739,#392);
#276=LINE('',#1755,#393);
#277=LINE('',#1760,#394);
#278=LINE('',#1764,#395);
#279=LINE('',#1769,#396);
#280=LINE('',#1772,#397);
#281=LINE('',#1773,#398);
#282=LINE('',#1778,#399);
#283=LINE('',#1782,#400);
#284=LINE('',#1784,#401);
#285=LINE('',#1786,#402);
#286=LINE('',#1787,#403);
#287=LINE('',#1790,#404);
#288=LINE('',#1792,#405);
#289=LINE('',#1793,#406);
#290=LINE('',#1798,#407);
#291=LINE('',#1803,#408);
#292=LINE('',#1804,#409);
#293=LINE('',#1806,#410);
#294=LINE('',#1807,#411);
#295=LINE('',#1816,#412);
#296=LINE('',#1836,#413);
#297=LINE('',#1852,#414);
#298=LINE('',#1857,#415);
#299=LINE('',#1861,#416);
#300=LINE('',#1866,#417);
#301=LINE('',#1869,#418);
#302=LINE('',#1870,#419);
#303=LINE('',#1875,#420);
#304=LINE('',#1879,#421);
#305=LINE('',#1881,#422);
#306=LINE('',#1883,#423);
#307=LINE('',#1884,#424);
#308=LINE('',#1887,#425);
#309=LINE('',#1889,#426);
#310=LINE('',#1890,#427);
#311=LINE('',#1895,#428);
#312=LINE('',#1898,#429);
#313=LINE('',#1900,#430);
#314=LINE('',#1901,#431);
#315=LINE('',#1910,#432);
#316=LINE('',#1930,#433);
#317=LINE('',#1946,#434);
#318=LINE('',#1951,#435);
#319=LINE('',#1955,#436);
#320=LINE('',#1960,#437);
#321=LINE('',#1963,#438);
#322=LINE('',#1964,#439);
#323=LINE('',#1969,#440);
#324=LINE('',#1973,#441);
#325=LINE('',#1975,#442);
#326=LINE('',#1977,#443);
#327=LINE('',#1978,#444);
#328=LINE('',#1981,#445);
#329=LINE('',#1983,#446);
#330=LINE('',#1984,#447);
#331=LINE('',#1989,#448);
#332=LINE('',#1992,#449);
#333=LINE('',#1994,#450);
#334=LINE('',#1995,#451);
#335=LINE('',#2003,#452);
#336=LINE('',#2013,#453);
#337=LINE('',#2017,#454);
#338=VECTOR('',#1281,10.);
#339=VECTOR('',#1282,10.);
#340=VECTOR('',#1283,10.);
#341=VECTOR('',#1284,10.);
#342=VECTOR('',#1287,10.);
#343=VECTOR('',#1288,10.);
#344=VECTOR('',#1289,10.);
#345=VECTOR('',#1292,10.);
#346=VECTOR('',#1293,10.);
#347=VECTOR('',#1294,10.);
#348=VECTOR('',#1295,10.);
#349=VECTOR('',#1298,10.);
#350=VECTOR('',#1299,10.);
#351=VECTOR('',#1300,10.);
#352=VECTOR('',#1303,10.);
#353=VECTOR('',#1304,10.);
#354=VECTOR('',#1305,10.);
#355=VECTOR('',#1306,10.);
#356=VECTOR('',#1309,10.);
#357=VECTOR('',#1310,10.);
#358=VECTOR('',#1311,10.);
#359=VECTOR('',#1314,10.);
#360=VECTOR('',#1315,10.);
#361=VECTOR('',#1316,10.);
#362=VECTOR('',#1317,10.);
#363=VECTOR('',#1320,10.);
#364=VECTOR('',#1321,10.);
#365=VECTOR('',#1322,10.);
#366=VECTOR('',#1325,10.);
#367=VECTOR('',#1326,10.);
#368=VECTOR('',#1329,10.);
#369=VECTOR('',#1330,10.);
#370=VECTOR('',#1333,10.);
#371=VECTOR('',#1334,10.);
#372=VECTOR('',#1335,10.);
#373=VECTOR('',#1336,10.);
#374=VECTOR('',#1339,10.);
#375=VECTOR('',#1340,10.);
#376=VECTOR('',#1341,10.);
#377=VECTOR('',#1344,10.);
#378=VECTOR('',#1345,10.);
#379=VECTOR('',#1348,10.);
#380=VECTOR('',#1349,10.);
#381=VECTOR('',#1352,10.);
#382=VECTOR('',#1353,10.);
#383=VECTOR('',#1354,10.);
#384=VECTOR('',#1355,10.);
#385=VECTOR('',#1358,10.);
#386=VECTOR('',#1359,10.);
#387=VECTOR('',#1360,10.);
#388=VECTOR('',#1363,10.);
#389=VECTOR('',#1364,10.);
#390=VECTOR('',#1367,10.);
#391=VECTOR('',#1368,10.);
#392=VECTOR('',#1377,10.);
#393=VECTOR('',#1378,10.);
#394=VECTOR('',#1383,10.);
#395=VECTOR('',#1386,10.);
#396=VECTOR('',#1393,10.);
#397=VECTOR('',#1396,10.);
#398=VECTOR('',#1397,10.);
#399=VECTOR('',#1402,10.);
#400=VECTOR('',#1407,10.);
#401=VECTOR('',#1408,10.);
#402=VECTOR('',#1409,10.);
#403=VECTOR('',#1410,10.);
#404=VECTOR('',#1413,10.);
#405=VECTOR('',#1414,10.);
#406=VECTOR('',#1415,10.);
#407=VECTOR('',#1420,10.);
#408=VECTOR('',#1425,10.);
#409=VECTOR('',#1426,10.);
#410=VECTOR('',#1427,10.);
#411=VECTOR('',#1428,10.);
#412=VECTOR('',#1441,10.);
#413=VECTOR('',#1446,10.);
#414=VECTOR('',#1447,10.);
#415=VECTOR('',#1452,10.);
#416=VECTOR('',#1455,10.);
#417=VECTOR('',#1462,10.);
#418=VECTOR('',#1465,10.);
#419=VECTOR('',#1466,10.);
#420=VECTOR('',#1471,10.);
#421=VECTOR('',#1476,10.);
#422=VECTOR('',#1477,10.);
#423=VECTOR('',#1478,10.);
#424=VECTOR('',#1479,10.);
#425=VECTOR('',#1482,10.);
#426=VECTOR('',#1483,10.);
#427=VECTOR('',#1484,10.);
#428=VECTOR('',#1489,10.);
#429=VECTOR('',#1494,10.);
#430=VECTOR('',#1495,10.);
#431=VECTOR('',#1496,10.);
#432=VECTOR('',#1509,10.);
#433=VECTOR('',#1514,10.);
#434=VECTOR('',#1515,10.);
#435=VECTOR('',#1520,10.);
#436=VECTOR('',#1523,10.);
#437=VECTOR('',#1530,10.);
#438=VECTOR('',#1533,10.);
#439=VECTOR('',#1534,10.);
#440=VECTOR('',#1539,10.);
#441=VECTOR('',#1544,10.);
#442=VECTOR('',#1545,10.);
#443=VECTOR('',#1546,10.);
#444=VECTOR('',#1547,10.);
#445=VECTOR('',#1550,10.);
#446=VECTOR('',#1551,10.);
#447=VECTOR('',#1552,10.);
#448=VECTOR('',#1557,10.);
#449=VECTOR('',#1562,10.);
#450=VECTOR('',#1563,10.);
#451=VECTOR('',#1564,10.);
#452=VECTOR('',#1577,30.5);
#453=VECTOR('',#1592,70.6);
#454=VECTOR('',#1597,71.6);
#455=VERTEX_POINT('',#1602);
#456=VERTEX_POINT('',#1603);
#457=VERTEX_POINT('',#1605);
#458=VERTEX_POINT('',#1607);
#459=VERTEX_POINT('',#1611);
#460=VERTEX_POINT('',#1613);
#461=VERTEX_POINT('',#1617);
#462=VERTEX_POINT('',#1618);
#463=VERTEX_POINT('',#1620);
#464=VERTEX_POINT('',#1622);
#465=VERTEX_POINT('',#1626);
#466=VERTEX_POINT('',#1628);
#467=VERTEX_POINT('',#1632);
#468=VERTEX_POINT('',#1633);
#469=VERTEX_POINT('',#1635);
#470=VERTEX_POINT('',#1637);
#471=VERTEX_POINT('',#1641);
#472=VERTEX_POINT('',#1643);
#473=VERTEX_POINT('',#1647);
#474=VERTEX_POINT('',#1648);
#475=VERTEX_POINT('',#1650);
#476=VERTEX_POINT('',#1652);
#477=VERTEX_POINT('',#1657);
#478=VERTEX_POINT('',#1661);
#479=VERTEX_POINT('',#1668);
#480=VERTEX_POINT('',#1669);
#481=VERTEX_POINT('',#1671);
#482=VERTEX_POINT('',#1673);
#483=VERTEX_POINT('',#1678);
#484=VERTEX_POINT('',#1682);
#485=VERTEX_POINT('',#1689);
#486=VERTEX_POINT('',#1690);
#487=VERTEX_POINT('',#1692);
#488=VERTEX_POINT('',#1694);
#489=VERTEX_POINT('',#1698);
#490=VERTEX_POINT('',#1702);
#491=VERTEX_POINT('',#1707);
#492=VERTEX_POINT('',#1711);
#493=VERTEX_POINT('',#1718);
#494=VERTEX_POINT('',#1722);
#495=VERTEX_POINT('',#1723);
#496=VERTEX_POINT('',#1738);
#497=VERTEX_POINT('',#1740);
#498=VERTEX_POINT('',#1757);
#499=VERTEX_POINT('',#1759);
#500=VERTEX_POINT('',#1761);
#501=VERTEX_POINT('',#1763);
#502=VERTEX_POINT('',#1767);
#503=VERTEX_POINT('',#1771);
#504=VERTEX_POINT('',#1775);
#505=VERTEX_POINT('',#1777);
#506=VERTEX_POINT('',#1781);
#507=VERTEX_POINT('',#1783);
#508=VERTEX_POINT('',#1785);
#509=VERTEX_POINT('',#1789);
#510=VERTEX_POINT('',#1791);
#511=VERTEX_POINT('',#1795);
#512=VERTEX_POINT('',#1797);
#513=VERTEX_POINT('',#1801);
#514=VERTEX_POINT('',#1802);
#515=VERTEX_POINT('',#1805);
#516=VERTEX_POINT('',#1813);
#517=VERTEX_POINT('',#1815);
#518=VERTEX_POINT('',#1819);
#519=VERTEX_POINT('',#1820);
#520=VERTEX_POINT('',#1835);
#521=VERTEX_POINT('',#1837);
#522=VERTEX_POINT('',#1854);
#523=VERTEX_POINT('',#1856);
#524=VERTEX_POINT('',#1858);
#525=VERTEX_POINT('',#1860);
#526=VERTEX_POINT('',#1864);
#527=VERTEX_POINT('',#1868);
#528=VERTEX_POINT('',#1872);
#529=VERTEX_POINT('',#1874);
#530=VERTEX_POINT('',#1878);
#531=VERTEX_POINT('',#1880);
#532=VERTEX_POINT('',#1882);
#533=VERTEX_POINT('',#1886);
#534=VERTEX_POINT('',#1888);
#535=VERTEX_POINT('',#1892);
#536=VERTEX_POINT('',#1894);
#537=VERTEX_POINT('',#1899);
#538=VERTEX_POINT('',#1907);
#539=VERTEX_POINT('',#1909);
#540=VERTEX_POINT('',#1913);
#541=VERTEX_POINT('',#1914);
#542=VERTEX_POINT('',#1929);
#543=VERTEX_POINT('',#1931);
#544=VERTEX_POINT('',#1948);
#545=VERTEX_POINT('',#1950);
#546=VERTEX_POINT('',#1952);
#547=VERTEX_POINT('',#1954);
#548=VERTEX_POINT('',#1958);
#549=VERTEX_POINT('',#1962);
#550=VERTEX_POINT('',#1966);
#551=VERTEX_POINT('',#1968);
#552=VERTEX_POINT('',#1972);
#553=VERTEX_POINT('',#1974);
#554=VERTEX_POINT('',#1976);
#555=VERTEX_POINT('',#1980);
#556=VERTEX_POINT('',#1982);
#557=VERTEX_POINT('',#1986);
#558=VERTEX_POINT('',#1988);
#559=VERTEX_POINT('',#1993);
#560=VERTEX_POINT('',#2001);
#561=VERTEX_POINT('',#2008);
#562=VERTEX_POINT('',#2011);
#563=VERTEX_POINT('',#2015);
#564=EDGE_CURVE('',#455,#456,#221,.T.);
#565=EDGE_CURVE('',#457,#455,#222,.T.);
#566=EDGE_CURVE('',#458,#457,#223,.T.);
#567=EDGE_CURVE('',#456,#458,#224,.T.);
#568=EDGE_CURVE('',#458,#459,#225,.T.);
#569=EDGE_CURVE('',#460,#457,#226,.T.);
#570=EDGE_CURVE('',#459,#460,#227,.T.);
#571=EDGE_CURVE('',#461,#462,#228,.T.);
#572=EDGE_CURVE('',#463,#461,#229,.T.);
#573=EDGE_CURVE('',#464,#463,#230,.T.);
#574=EDGE_CURVE('',#462,#464,#231,.T.);
#575=EDGE_CURVE('',#464,#465,#232,.T.);
#576=EDGE_CURVE('',#466,#463,#233,.T.);
#577=EDGE_CURVE('',#465,#466,#234,.T.);
#578=EDGE_CURVE('',#467,#468,#235,.T.);
#579=EDGE_CURVE('',#469,#467,#236,.T.);
#580=EDGE_CURVE('',#470,#469,#237,.T.);
#581=EDGE_CURVE('',#468,#470,#238,.T.);
#582=EDGE_CURVE('',#470,#471,#239,.T.);
#583=EDGE_CURVE('',#472,#469,#240,.T.);
#584=EDGE_CURVE('',#471,#472,#241,.T.);
#585=EDGE_CURVE('',#473,#474,#242,.T.);
#586=EDGE_CURVE('',#473,#475,#243,.T.);
#587=EDGE_CURVE('',#476,#475,#244,.T.);
#588=EDGE_CURVE('',#474,#476,#245,.T.);
#589=EDGE_CURVE('',#474,#467,#246,.T.);
#590=EDGE_CURVE('',#477,#476,#247,.T.);
#591=EDGE_CURVE('',#472,#477,#248,.T.);
#592=EDGE_CURVE('',#478,#477,#249,.T.);
#593=EDGE_CURVE('',#471,#478,#250,.T.);
#594=EDGE_CURVE('',#475,#478,#251,.T.);
#595=EDGE_CURVE('',#468,#473,#252,.T.);
#596=EDGE_CURVE('',#479,#480,#253,.T.);
#597=EDGE_CURVE('',#479,#481,#254,.T.);
#598=EDGE_CURVE('',#482,#481,#255,.T.);
#599=EDGE_CURVE('',#480,#482,#256,.T.);
#600=EDGE_CURVE('',#480,#461,#257,.T.);
#601=EDGE_CURVE('',#483,#482,#258,.T.);
#602=EDGE_CURVE('',#466,#483,#259,.T.);
#603=EDGE_CURVE('',#484,#483,#260,.T.);
#604=EDGE_CURVE('',#465,#484,#261,.T.);
#605=EDGE_CURVE('',#481,#484,#262,.T.);
#606=EDGE_CURVE('',#462,#479,#263,.T.);
#607=EDGE_CURVE('',#485,#486,#264,.T.);
#608=EDGE_CURVE('',#487,#485,#265,.T.);
#609=EDGE_CURVE('',#488,#487,#93,.T.);
#610=EDGE_CURVE('',#489,#488,#266,.T.);
#611=EDGE_CURVE('',#489,#486,#267,.T.);
#612=EDGE_CURVE('',#459,#490,#268,.T.);
#613=EDGE_CURVE('',#486,#490,#269,.T.);
#614=EDGE_CURVE('',#456,#489,#270,.T.);
#615=EDGE_CURVE('',#460,#491,#271,.T.);
#616=EDGE_CURVE('',#490,#491,#272,.T.);
#617=EDGE_CURVE('',#492,#455,#273,.T.);
#618=EDGE_CURVE('',#487,#492,#94,.T.);
#619=EDGE_CURVE('',#491,#485,#274,.T.);
#620=EDGE_CURVE('',#493,#488,#51,.T.);
#621=EDGE_CURVE('',#492,#493,#52,.T.);
#622=EDGE_CURVE('',#494,#495,#26,.T.);
#623=EDGE_CURVE('',#496,#494,#275,.T.);
#624=EDGE_CURVE('',#497,#496,#27,.T.);
#625=EDGE_CURVE('',#495,#497,#276,.T.);
#626=EDGE_CURVE('',#496,#498,#53,.T.);
#627=EDGE_CURVE('',#498,#499,#277,.T.);
#628=EDGE_CURVE('',#500,#499,#54,.T.);
#629=EDGE_CURVE('',#501,#500,#278,.T.);
#630=EDGE_CURVE('',#501,#497,#55,.T.);
#631=EDGE_CURVE('',#494,#502,#56,.T.);
#632=EDGE_CURVE('',#502,#498,#279,.T.);
#633=EDGE_CURVE('',#499,#503,#280,.T.);
#634=EDGE_CURVE('',#503,#502,#281,.T.);
#635=EDGE_CURVE('',#504,#495,#57,.T.);
#636=EDGE_CURVE('',#505,#504,#282,.T.);
#637=EDGE_CURVE('',#503,#505,#58,.T.);
#638=EDGE_CURVE('',#506,#504,#283,.T.);
#639=EDGE_CURVE('',#507,#506,#284,.T.);
#640=EDGE_CURVE('',#508,#507,#285,.T.);
#641=EDGE_CURVE('',#505,#508,#286,.T.);
#642=EDGE_CURVE('',#509,#500,#287,.T.);
#643=EDGE_CURVE('',#510,#509,#288,.T.);
#644=EDGE_CURVE('',#501,#510,#289,.T.);
#645=EDGE_CURVE('',#508,#511,#59,.T.);
#646=EDGE_CURVE('',#512,#511,#290,.T.);
#647=EDGE_CURVE('',#509,#512,#60,.T.);
#648=EDGE_CURVE('',#513,#514,#291,.T.);
#649=EDGE_CURVE('',#512,#513,#292,.T.);
#650=EDGE_CURVE('',#511,#515,#293,.T.);
#651=EDGE_CURVE('',#515,#514,#294,.T.);
#652=EDGE_CURVE('',#506,#514,#61,.T.);
#653=EDGE_CURVE('',#507,#515,#62,.T.);
#654=EDGE_CURVE('',#516,#510,#63,.T.);
#655=EDGE_CURVE('',#516,#517,#295,.T.);
#656=EDGE_CURVE('',#517,#506,#64,.T.);
#657=EDGE_CURVE('',#518,#519,#28,.T.);
#658=EDGE_CURVE('',#520,#518,#296,.T.);
#659=EDGE_CURVE('',#521,#520,#29,.T.);
#660=EDGE_CURVE('',#519,#521,#297,.T.);
#661=EDGE_CURVE('',#520,#522,#65,.T.);
#662=EDGE_CURVE('',#522,#523,#298,.T.);
#663=EDGE_CURVE('',#524,#523,#66,.T.);
#664=EDGE_CURVE('',#525,#524,#299,.T.);
#665=EDGE_CURVE('',#525,#521,#67,.T.);
#666=EDGE_CURVE('',#518,#526,#68,.T.);
#667=EDGE_CURVE('',#526,#522,#300,.T.);
#668=EDGE_CURVE('',#523,#527,#301,.T.);
#669=EDGE_CURVE('',#527,#526,#302,.T.);
#670=EDGE_CURVE('',#528,#519,#69,.T.);
#671=EDGE_CURVE('',#529,#528,#303,.T.);
#672=EDGE_CURVE('',#527,#529,#70,.T.);
#673=EDGE_CURVE('',#530,#528,#304,.T.);
#674=EDGE_CURVE('',#531,#530,#305,.T.);
#675=EDGE_CURVE('',#532,#531,#306,.T.);
#676=EDGE_CURVE('',#529,#532,#307,.T.);
#677=EDGE_CURVE('',#533,#524,#308,.T.);
#678=EDGE_CURVE('',#534,#533,#309,.T.);
#679=EDGE_CURVE('',#525,#534,#310,.T.);
#680=EDGE_CURVE('',#532,#535,#71,.T.);
#681=EDGE_CURVE('',#536,#535,#311,.T.);
#682=EDGE_CURVE('',#533,#536,#72,.T.);
#683=EDGE_CURVE('',#536,#516,#312,.T.);
#684=EDGE_CURVE('',#535,#537,#313,.T.);
#685=EDGE_CURVE('',#537,#517,#314,.T.);
#686=EDGE_CURVE('',#530,#517,#73,.T.);
#687=EDGE_CURVE('',#531,#537,#74,.T.);
#688=EDGE_CURVE('',#538,#534,#75,.T.);
#689=EDGE_CURVE('',#538,#539,#315,.T.);
#690=EDGE_CURVE('',#539,#530,#76,.T.);
#691=EDGE_CURVE('',#540,#541,#30,.T.);
#692=EDGE_CURVE('',#542,#540,#316,.T.);
#693=EDGE_CURVE('',#543,#542,#31,.T.);
#694=EDGE_CURVE('',#541,#543,#317,.T.);
#695=EDGE_CURVE('',#542,#544,#77,.T.);
#696=EDGE_CURVE('',#544,#545,#318,.T.);
#697=EDGE_CURVE('',#546,#545,#78,.T.);
#698=EDGE_CURVE('',#547,#546,#319,.T.);
#699=EDGE_CURVE('',#547,#543,#79,.T.);
#700=EDGE_CURVE('',#540,#548,#80,.T.);
#701=EDGE_CURVE('',#548,#544,#320,.T.);
#702=EDGE_CURVE('',#545,#549,#321,.T.);
#703=EDGE_CURVE('',#549,#548,#322,.T.);
#704=EDGE_CURVE('',#550,#541,#81,.T.);
#705=EDGE_CURVE('',#551,#550,#323,.T.);
#706=EDGE_CURVE('',#549,#551,#82,.T.);
#707=EDGE_CURVE('',#552,#550,#324,.T.);
#708=EDGE_CURVE('',#553,#552,#325,.T.);
#709=EDGE_CURVE('',#554,#553,#326,.T.);
#710=EDGE_CURVE('',#551,#554,#327,.T.);
#711=EDGE_CURVE('',#555,#546,#328,.T.);
#712=EDGE_CURVE('',#556,#555,#329,.T.);
#713=EDGE_CURVE('',#547,#556,#330,.T.);
#714=EDGE_CURVE('',#554,#557,#83,.T.);
#715=EDGE_CURVE('',#558,#557,#331,.T.);
#716=EDGE_CURVE('',#555,#558,#84,.T.);
#717=EDGE_CURVE('',#558,#538,#332,.T.);
#718=EDGE_CURVE('',#557,#559,#333,.T.);
#719=EDGE_CURVE('',#559,#539,#334,.T.);
#720=EDGE_CURVE('',#552,#539,#85,.T.);
#721=EDGE_CURVE('',#553,#559,#86,.T.);
#722=EDGE_CURVE('',#560,#552,#87,.T.);
#723=EDGE_CURVE('',#560,#493,#335,.T.);
#724=EDGE_CURVE('',#514,#560,#88,.T.);
#725=EDGE_CURVE('',#513,#556,#89,.T.);
#726=EDGE_CURVE('',#561,#561,#90,.T.);
#727=EDGE_CURVE('',#562,#562,#91,.T.);
#728=EDGE_CURVE('',#562,#561,#336,.T.);
#729=EDGE_CURVE('',#563,#563,#92,.T.);
#730=EDGE_CURVE('',#563,#562,#337,.T.);
#731=ORIENTED_EDGE('',*,*,#564,.F.);
#732=ORIENTED_EDGE('',*,*,#565,.F.);
#733=ORIENTED_EDGE('',*,*,#566,.F.);
#734=ORIENTED_EDGE('',*,*,#567,.F.);
#735=ORIENTED_EDGE('',*,*,#568,.F.);
#736=ORIENTED_EDGE('',*,*,#566,.T.);
#737=ORIENTED_EDGE('',*,*,#569,.F.);
#738=ORIENTED_EDGE('',*,*,#570,.F.);
#739=ORIENTED_EDGE('',*,*,#571,.F.);
#740=ORIENTED_EDGE('',*,*,#572,.F.);
#741=ORIENTED_EDGE('',*,*,#573,.F.);
#742=ORIENTED_EDGE('',*,*,#574,.F.);
#743=ORIENTED_EDGE('',*,*,#575,.F.);
#744=ORIENTED_EDGE('',*,*,#573,.T.);
#745=ORIENTED_EDGE('',*,*,#576,.F.);
#746=ORIENTED_EDGE('',*,*,#577,.F.);
#747=ORIENTED_EDGE('',*,*,#578,.F.);
#748=ORIENTED_EDGE('',*,*,#579,.F.);
#749=ORIENTED_EDGE('',*,*,#580,.F.);
#750=ORIENTED_EDGE('',*,*,#581,.F.);
#751=ORIENTED_EDGE('',*,*,#582,.F.);
#752=ORIENTED_EDGE('',*,*,#580,.T.);
#753=ORIENTED_EDGE('',*,*,#583,.F.);
#754=ORIENTED_EDGE('',*,*,#584,.F.);
#755=ORIENTED_EDGE('',*,*,#585,.F.);
#756=ORIENTED_EDGE('',*,*,#586,.T.);
#757=ORIENTED_EDGE('',*,*,#587,.F.);
#758=ORIENTED_EDGE('',*,*,#588,.F.);
#759=ORIENTED_EDGE('',*,*,#579,.T.);
#760=ORIENTED_EDGE('',*,*,#589,.F.);
#761=ORIENTED_EDGE('',*,*,#588,.T.);
#762=ORIENTED_EDGE('',*,*,#590,.F.);
#763=ORIENTED_EDGE('',*,*,#591,.F.);
#764=ORIENTED_EDGE('',*,*,#583,.T.);
#765=ORIENTED_EDGE('',*,*,#584,.T.);
#766=ORIENTED_EDGE('',*,*,#591,.T.);
#767=ORIENTED_EDGE('',*,*,#592,.F.);
#768=ORIENTED_EDGE('',*,*,#593,.F.);
#769=ORIENTED_EDGE('',*,*,#582,.T.);
#770=ORIENTED_EDGE('',*,*,#593,.T.);
#771=ORIENTED_EDGE('',*,*,#594,.F.);
#772=ORIENTED_EDGE('',*,*,#586,.F.);
#773=ORIENTED_EDGE('',*,*,#595,.F.);
#774=ORIENTED_EDGE('',*,*,#581,.T.);
#775=ORIENTED_EDGE('',*,*,#596,.F.);
#776=ORIENTED_EDGE('',*,*,#597,.T.);
#777=ORIENTED_EDGE('',*,*,#598,.F.);
#778=ORIENTED_EDGE('',*,*,#599,.F.);
#779=ORIENTED_EDGE('',*,*,#572,.T.);
#780=ORIENTED_EDGE('',*,*,#600,.F.);
#781=ORIENTED_EDGE('',*,*,#599,.T.);
#782=ORIENTED_EDGE('',*,*,#601,.F.);
#783=ORIENTED_EDGE('',*,*,#602,.F.);
#784=ORIENTED_EDGE('',*,*,#576,.T.);
#785=ORIENTED_EDGE('',*,*,#577,.T.);
#786=ORIENTED_EDGE('',*,*,#602,.T.);
#787=ORIENTED_EDGE('',*,*,#603,.F.);
#788=ORIENTED_EDGE('',*,*,#604,.F.);
#789=ORIENTED_EDGE('',*,*,#575,.T.);
#790=ORIENTED_EDGE('',*,*,#604,.T.);
#791=ORIENTED_EDGE('',*,*,#605,.F.);
#792=ORIENTED_EDGE('',*,*,#597,.F.);
#793=ORIENTED_EDGE('',*,*,#606,.F.);
#794=ORIENTED_EDGE('',*,*,#574,.T.);
#795=ORIENTED_EDGE('',*,*,#607,.F.);
#796=ORIENTED_EDGE('',*,*,#608,.F.);
#797=ORIENTED_EDGE('',*,*,#609,.F.);
#798=ORIENTED_EDGE('',*,*,#610,.F.);
#799=ORIENTED_EDGE('',*,*,#611,.T.);
#800=ORIENTED_EDGE('',*,*,#568,.T.);
#801=ORIENTED_EDGE('',*,*,#612,.T.);
#802=ORIENTED_EDGE('',*,*,#613,.F.);
#803=ORIENTED_EDGE('',*,*,#611,.F.);
#804=ORIENTED_EDGE('',*,*,#614,.F.);
#805=ORIENTED_EDGE('',*,*,#567,.T.);
#806=ORIENTED_EDGE('',*,*,#570,.T.);
#807=ORIENTED_EDGE('',*,*,#615,.T.);
#808=ORIENTED_EDGE('',*,*,#616,.F.);
#809=ORIENTED_EDGE('',*,*,#612,.F.);
#810=ORIENTED_EDGE('',*,*,#565,.T.);
#811=ORIENTED_EDGE('',*,*,#617,.F.);
#812=ORIENTED_EDGE('',*,*,#618,.F.);
#813=ORIENTED_EDGE('',*,*,#608,.T.);
#814=ORIENTED_EDGE('',*,*,#619,.F.);
#815=ORIENTED_EDGE('',*,*,#615,.F.);
#816=ORIENTED_EDGE('',*,*,#569,.T.);
#817=ORIENTED_EDGE('',*,*,#617,.T.);
#818=ORIENTED_EDGE('',*,*,#564,.T.);
#819=ORIENTED_EDGE('',*,*,#614,.T.);
#820=ORIENTED_EDGE('',*,*,#610,.T.);
#821=ORIENTED_EDGE('',*,*,#620,.F.);
#822=ORIENTED_EDGE('',*,*,#621,.F.);
#823=ORIENTED_EDGE('',*,*,#571,.T.);
#824=ORIENTED_EDGE('',*,*,#606,.T.);
#825=ORIENTED_EDGE('',*,*,#596,.T.);
#826=ORIENTED_EDGE('',*,*,#600,.T.);
#827=ORIENTED_EDGE('',*,*,#578,.T.);
#828=ORIENTED_EDGE('',*,*,#595,.T.);
#829=ORIENTED_EDGE('',*,*,#585,.T.);
#830=ORIENTED_EDGE('',*,*,#589,.T.);
#831=ORIENTED_EDGE('',*,*,#622,.F.);
#832=ORIENTED_EDGE('',*,*,#623,.F.);
#833=ORIENTED_EDGE('',*,*,#624,.F.);
#834=ORIENTED_EDGE('',*,*,#625,.F.);
#835=ORIENTED_EDGE('',*,*,#624,.T.);
#836=ORIENTED_EDGE('',*,*,#626,.T.);
#837=ORIENTED_EDGE('',*,*,#627,.T.);
#838=ORIENTED_EDGE('',*,*,#628,.F.);
#839=ORIENTED_EDGE('',*,*,#629,.F.);
#840=ORIENTED_EDGE('',*,*,#630,.T.);
#841=ORIENTED_EDGE('',*,*,#623,.T.);
#842=ORIENTED_EDGE('',*,*,#631,.T.);
#843=ORIENTED_EDGE('',*,*,#632,.T.);
#844=ORIENTED_EDGE('',*,*,#626,.F.);
#845=ORIENTED_EDGE('',*,*,#633,.F.);
#846=ORIENTED_EDGE('',*,*,#627,.F.);
#847=ORIENTED_EDGE('',*,*,#632,.F.);
#848=ORIENTED_EDGE('',*,*,#634,.F.);
#849=ORIENTED_EDGE('',*,*,#622,.T.);
#850=ORIENTED_EDGE('',*,*,#635,.F.);
#851=ORIENTED_EDGE('',*,*,#636,.F.);
#852=ORIENTED_EDGE('',*,*,#637,.F.);
#853=ORIENTED_EDGE('',*,*,#634,.T.);
#854=ORIENTED_EDGE('',*,*,#631,.F.);
#855=ORIENTED_EDGE('',*,*,#636,.T.);
#856=ORIENTED_EDGE('',*,*,#638,.F.);
#857=ORIENTED_EDGE('',*,*,#639,.F.);
#858=ORIENTED_EDGE('',*,*,#640,.F.);
#859=ORIENTED_EDGE('',*,*,#641,.F.);
#860=ORIENTED_EDGE('',*,*,#629,.T.);
#861=ORIENTED_EDGE('',*,*,#642,.F.);
#862=ORIENTED_EDGE('',*,*,#643,.F.);
#863=ORIENTED_EDGE('',*,*,#644,.F.);
#864=ORIENTED_EDGE('',*,*,#628,.T.);
#865=ORIENTED_EDGE('',*,*,#633,.T.);
#866=ORIENTED_EDGE('',*,*,#637,.T.);
#867=ORIENTED_EDGE('',*,*,#641,.T.);
#868=ORIENTED_EDGE('',*,*,#645,.T.);
#869=ORIENTED_EDGE('',*,*,#646,.F.);
#870=ORIENTED_EDGE('',*,*,#647,.F.);
#871=ORIENTED_EDGE('',*,*,#642,.T.);
#872=ORIENTED_EDGE('',*,*,#648,.F.);
#873=ORIENTED_EDGE('',*,*,#649,.F.);
#874=ORIENTED_EDGE('',*,*,#646,.T.);
#875=ORIENTED_EDGE('',*,*,#650,.T.);
#876=ORIENTED_EDGE('',*,*,#651,.T.);
#877=ORIENTED_EDGE('',*,*,#652,.T.);
#878=ORIENTED_EDGE('',*,*,#651,.F.);
#879=ORIENTED_EDGE('',*,*,#653,.F.);
#880=ORIENTED_EDGE('',*,*,#639,.T.);
#881=ORIENTED_EDGE('',*,*,#640,.T.);
#882=ORIENTED_EDGE('',*,*,#653,.T.);
#883=ORIENTED_EDGE('',*,*,#650,.F.);
#884=ORIENTED_EDGE('',*,*,#645,.F.);
#885=ORIENTED_EDGE('',*,*,#625,.T.);
#886=ORIENTED_EDGE('',*,*,#630,.F.);
#887=ORIENTED_EDGE('',*,*,#644,.T.);
#888=ORIENTED_EDGE('',*,*,#654,.F.);
#889=ORIENTED_EDGE('',*,*,#655,.T.);
#890=ORIENTED_EDGE('',*,*,#656,.T.);
#891=ORIENTED_EDGE('',*,*,#638,.T.);
#892=ORIENTED_EDGE('',*,*,#635,.T.);
#893=ORIENTED_EDGE('',*,*,#657,.F.);
#894=ORIENTED_EDGE('',*,*,#658,.F.);
#895=ORIENTED_EDGE('',*,*,#659,.F.);
#896=ORIENTED_EDGE('',*,*,#660,.F.);
#897=ORIENTED_EDGE('',*,*,#659,.T.);
#898=ORIENTED_EDGE('',*,*,#661,.T.);
#899=ORIENTED_EDGE('',*,*,#662,.T.);
#900=ORIENTED_EDGE('',*,*,#663,.F.);
#901=ORIENTED_EDGE('',*,*,#664,.F.);
#902=ORIENTED_EDGE('',*,*,#665,.T.);
#903=ORIENTED_EDGE('',*,*,#658,.T.);
#904=ORIENTED_EDGE('',*,*,#666,.T.);
#905=ORIENTED_EDGE('',*,*,#667,.T.);
#906=ORIENTED_EDGE('',*,*,#661,.F.);
#907=ORIENTED_EDGE('',*,*,#668,.F.);
#908=ORIENTED_EDGE('',*,*,#662,.F.);
#909=ORIENTED_EDGE('',*,*,#667,.F.);
#910=ORIENTED_EDGE('',*,*,#669,.F.);
#911=ORIENTED_EDGE('',*,*,#657,.T.);
#912=ORIENTED_EDGE('',*,*,#670,.F.);
#913=ORIENTED_EDGE('',*,*,#671,.F.);
#914=ORIENTED_EDGE('',*,*,#672,.F.);
#915=ORIENTED_EDGE('',*,*,#669,.T.);
#916=ORIENTED_EDGE('',*,*,#666,.F.);
#917=ORIENTED_EDGE('',*,*,#671,.T.);
#918=ORIENTED_EDGE('',*,*,#673,.F.);
#919=ORIENTED_EDGE('',*,*,#674,.F.);
#920=ORIENTED_EDGE('',*,*,#675,.F.);
#921=ORIENTED_EDGE('',*,*,#676,.F.);
#922=ORIENTED_EDGE('',*,*,#664,.T.);
#923=ORIENTED_EDGE('',*,*,#677,.F.);
#924=ORIENTED_EDGE('',*,*,#678,.F.);
#925=ORIENTED_EDGE('',*,*,#679,.F.);
#926=ORIENTED_EDGE('',*,*,#663,.T.);
#927=ORIENTED_EDGE('',*,*,#668,.T.);
#928=ORIENTED_EDGE('',*,*,#672,.T.);
#929=ORIENTED_EDGE('',*,*,#676,.T.);
#930=ORIENTED_EDGE('',*,*,#680,.T.);
#931=ORIENTED_EDGE('',*,*,#681,.F.);
#932=ORIENTED_EDGE('',*,*,#682,.F.);
#933=ORIENTED_EDGE('',*,*,#677,.T.);
#934=ORIENTED_EDGE('',*,*,#655,.F.);
#935=ORIENTED_EDGE('',*,*,#683,.F.);
#936=ORIENTED_EDGE('',*,*,#681,.T.);
#937=ORIENTED_EDGE('',*,*,#684,.T.);
#938=ORIENTED_EDGE('',*,*,#685,.T.);
#939=ORIENTED_EDGE('',*,*,#686,.T.);
#940=ORIENTED_EDGE('',*,*,#685,.F.);
#941=ORIENTED_EDGE('',*,*,#687,.F.);
#942=ORIENTED_EDGE('',*,*,#674,.T.);
#943=ORIENTED_EDGE('',*,*,#675,.T.);
#944=ORIENTED_EDGE('',*,*,#687,.T.);
#945=ORIENTED_EDGE('',*,*,#684,.F.);
#946=ORIENTED_EDGE('',*,*,#680,.F.);
#947=ORIENTED_EDGE('',*,*,#660,.T.);
#948=ORIENTED_EDGE('',*,*,#665,.F.);
#949=ORIENTED_EDGE('',*,*,#679,.T.);
#950=ORIENTED_EDGE('',*,*,#688,.F.);
#951=ORIENTED_EDGE('',*,*,#689,.T.);
#952=ORIENTED_EDGE('',*,*,#690,.T.);
#953=ORIENTED_EDGE('',*,*,#673,.T.);
#954=ORIENTED_EDGE('',*,*,#670,.T.);
#955=ORIENTED_EDGE('',*,*,#691,.F.);
#956=ORIENTED_EDGE('',*,*,#692,.F.);
#957=ORIENTED_EDGE('',*,*,#693,.F.);
#958=ORIENTED_EDGE('',*,*,#694,.F.);
#959=ORIENTED_EDGE('',*,*,#693,.T.);
#960=ORIENTED_EDGE('',*,*,#695,.T.);
#961=ORIENTED_EDGE('',*,*,#696,.T.);
#962=ORIENTED_EDGE('',*,*,#697,.F.);
#963=ORIENTED_EDGE('',*,*,#698,.F.);
#964=ORIENTED_EDGE('',*,*,#699,.T.);
#965=ORIENTED_EDGE('',*,*,#692,.T.);
#966=ORIENTED_EDGE('',*,*,#700,.T.);
#967=ORIENTED_EDGE('',*,*,#701,.T.);
#968=ORIENTED_EDGE('',*,*,#695,.F.);
#969=ORIENTED_EDGE('',*,*,#702,.F.);
#970=ORIENTED_EDGE('',*,*,#696,.F.);
#971=ORIENTED_EDGE('',*,*,#701,.F.);
#972=ORIENTED_EDGE('',*,*,#703,.F.);
#973=ORIENTED_EDGE('',*,*,#691,.T.);
#974=ORIENTED_EDGE('',*,*,#704,.F.);
#975=ORIENTED_EDGE('',*,*,#705,.F.);
#976=ORIENTED_EDGE('',*,*,#706,.F.);
#977=ORIENTED_EDGE('',*,*,#703,.T.);
#978=ORIENTED_EDGE('',*,*,#700,.F.);
#979=ORIENTED_EDGE('',*,*,#705,.T.);
#980=ORIENTED_EDGE('',*,*,#707,.F.);
#981=ORIENTED_EDGE('',*,*,#708,.F.);
#982=ORIENTED_EDGE('',*,*,#709,.F.);
#983=ORIENTED_EDGE('',*,*,#710,.F.);
#984=ORIENTED_EDGE('',*,*,#698,.T.);
#985=ORIENTED_EDGE('',*,*,#711,.F.);
#986=ORIENTED_EDGE('',*,*,#712,.F.);
#987=ORIENTED_EDGE('',*,*,#713,.F.);
#988=ORIENTED_EDGE('',*,*,#697,.T.);
#989=ORIENTED_EDGE('',*,*,#702,.T.);
#990=ORIENTED_EDGE('',*,*,#706,.T.);
#991=ORIENTED_EDGE('',*,*,#710,.T.);
#992=ORIENTED_EDGE('',*,*,#714,.T.);
#993=ORIENTED_EDGE('',*,*,#715,.F.);
#994=ORIENTED_EDGE('',*,*,#716,.F.);
#995=ORIENTED_EDGE('',*,*,#711,.T.);
#996=ORIENTED_EDGE('',*,*,#689,.F.);
#997=ORIENTED_EDGE('',*,*,#717,.F.);
#998=ORIENTED_EDGE('',*,*,#715,.T.);
#999=ORIENTED_EDGE('',*,*,#718,.T.);
#1000=ORIENTED_EDGE('',*,*,#719,.T.);
#1001=ORIENTED_EDGE('',*,*,#720,.T.);
#1002=ORIENTED_EDGE('',*,*,#719,.F.);
#1003=ORIENTED_EDGE('',*,*,#721,.F.);
#1004=ORIENTED_EDGE('',*,*,#708,.T.);
#1005=ORIENTED_EDGE('',*,*,#709,.T.);
#1006=ORIENTED_EDGE('',*,*,#721,.T.);
#1007=ORIENTED_EDGE('',*,*,#718,.F.);
#1008=ORIENTED_EDGE('',*,*,#714,.F.);
#1009=ORIENTED_EDGE('',*,*,#690,.F.);
#1010=ORIENTED_EDGE('',*,*,#720,.F.);
#1011=ORIENTED_EDGE('',*,*,#722,.F.);
#1012=ORIENTED_EDGE('',*,*,#723,.T.);
#1013=ORIENTED_EDGE('',*,*,#620,.T.);
#1014=ORIENTED_EDGE('',*,*,#609,.T.);
#1015=ORIENTED_EDGE('',*,*,#618,.T.);
#1016=ORIENTED_EDGE('',*,*,#621,.T.);
#1017=ORIENTED_EDGE('',*,*,#723,.F.);
#1018=ORIENTED_EDGE('',*,*,#724,.F.);
#1019=ORIENTED_EDGE('',*,*,#652,.F.);
#1020=ORIENTED_EDGE('',*,*,#656,.F.);
#1021=ORIENTED_EDGE('',*,*,#686,.F.);
#1022=ORIENTED_EDGE('',*,*,#648,.T.);
#1023=ORIENTED_EDGE('',*,*,#724,.T.);
#1024=ORIENTED_EDGE('',*,*,#722,.T.);
#1025=ORIENTED_EDGE('',*,*,#707,.T.);
#1026=ORIENTED_EDGE('',*,*,#704,.T.);
#1027=ORIENTED_EDGE('',*,*,#694,.T.);
#1028=ORIENTED_EDGE('',*,*,#699,.F.);
#1029=ORIENTED_EDGE('',*,*,#713,.T.);
#1030=ORIENTED_EDGE('',*,*,#725,.F.);
#1031=ORIENTED_EDGE('',*,*,#726,.F.);
#1032=ORIENTED_EDGE('',*,*,#649,.T.);
#1033=ORIENTED_EDGE('',*,*,#725,.T.);
#1034=ORIENTED_EDGE('',*,*,#712,.T.);
#1035=ORIENTED_EDGE('',*,*,#716,.T.);
#1036=ORIENTED_EDGE('',*,*,#717,.T.);
#1037=ORIENTED_EDGE('',*,*,#688,.T.);
#1038=ORIENTED_EDGE('',*,*,#678,.T.);
#1039=ORIENTED_EDGE('',*,*,#682,.T.);
#1040=ORIENTED_EDGE('',*,*,#683,.T.);
#1041=ORIENTED_EDGE('',*,*,#654,.T.);
#1042=ORIENTED_EDGE('',*,*,#643,.T.);
#1043=ORIENTED_EDGE('',*,*,#647,.T.);
#1044=ORIENTED_EDGE('',*,*,#727,.F.);
#1045=ORIENTED_EDGE('',*,*,#728,.T.);
#1046=ORIENTED_EDGE('',*,*,#726,.T.);
#1047=ORIENTED_EDGE('',*,*,#728,.F.);
#1048=ORIENTED_EDGE('',*,*,#729,.F.);
#1049=ORIENTED_EDGE('',*,*,#730,.T.);
#1050=ORIENTED_EDGE('',*,*,#727,.T.);
#1051=ORIENTED_EDGE('',*,*,#730,.F.);
#1052=ORIENTED_EDGE('',*,*,#729,.T.);
#1053=ORIENTED_EDGE('',*,*,#592,.T.);
#1054=ORIENTED_EDGE('',*,*,#590,.T.);
#1055=ORIENTED_EDGE('',*,*,#587,.T.);
#1056=ORIENTED_EDGE('',*,*,#594,.T.);
#1057=ORIENTED_EDGE('',*,*,#603,.T.);
#1058=ORIENTED_EDGE('',*,*,#601,.T.);
#1059=ORIENTED_EDGE('',*,*,#598,.T.);
#1060=ORIENTED_EDGE('',*,*,#605,.T.);
#1061=ORIENTED_EDGE('',*,*,#616,.T.);
#1062=ORIENTED_EDGE('',*,*,#619,.T.);
#1063=ORIENTED_EDGE('',*,*,#607,.T.);
#1064=ORIENTED_EDGE('',*,*,#613,.T.);
#1065=PLANE('',#1175);
#1066=PLANE('',#1176);
#1067=PLANE('',#1177);
#1068=PLANE('',#1178);
#1069=PLANE('',#1179);
#1070=PLANE('',#1180);
#1071=PLANE('',#1181);
#1072=PLANE('',#1182);
#1073=PLANE('',#1183);
#1074=PLANE('',#1184);
#1075=PLANE('',#1185);
#1076=PLANE('',#1186);
#1077=PLANE('',#1187);
#1078=PLANE('',#1188);
#1079=PLANE('',#1189);
#1080=PLANE('',#1190);
#1081=PLANE('',#1191);
#1082=PLANE('',#1192);
#1083=PLANE('',#1193);
#1084=PLANE('',#1203);
#1085=PLANE('',#1207);
#1086=PLANE('',#1208);
#1087=PLANE('',#1212);
#1088=PLANE('',#1213);
#1089=PLANE('',#1227);
#1090=PLANE('',#1231);
#1091=PLANE('',#1232);
#1092=PLANE('',#1236);
#1093=PLANE('',#1237);
#1094=PLANE('',#1251);
#1095=PLANE('',#1255);
#1096=PLANE('',#1256);
#1097=PLANE('',#1260);
#1098=PLANE('',#1261);
#1099=PLANE('',#1270);
#1100=PLANE('',#1276);
#1101=ADVANCED_FACE('',(#95),#1065,.T.);
#1102=ADVANCED_FACE('',(#96),#1066,.T.);
#1103=ADVANCED_FACE('',(#97),#1067,.T.);
#1104=ADVANCED_FACE('',(#98),#1068,.T.);
#1105=ADVANCED_FACE('',(#99),#1069,.T.);
#1106=ADVANCED_FACE('',(#100),#1070,.T.);
#1107=ADVANCED_FACE('',(#101),#1071,.F.);
#1108=ADVANCED_FACE('',(#102),#1072,.F.);
#1109=ADVANCED_FACE('',(#103),#1073,.F.);
#1110=ADVANCED_FACE('',(#104),#1074,.F.);
#1111=ADVANCED_FACE('',(#105),#1075,.F.);
#1112=ADVANCED_FACE('',(#106),#1076,.F.);
#1113=ADVANCED_FACE('',(#107),#1077,.F.);
#1114=ADVANCED_FACE('',(#108),#1078,.F.);
#1115=ADVANCED_FACE('',(#109),#1079,.F.);
#1116=ADVANCED_FACE('',(#110),#1080,.F.);
#1117=ADVANCED_FACE('',(#111),#1081,.F.);
#1118=ADVANCED_FACE('',(#112),#1082,.F.);
#1119=ADVANCED_FACE('',(#113,#45,#46),#1083,.T.);
#1120=ADVANCED_FACE('',(#114),#32,.T.);
#1121=ADVANCED_FACE('',(#115),#15,.T.);
#1122=ADVANCED_FACE('',(#116),#33,.T.);
#1123=ADVANCED_FACE('',(#117),#1084,.F.);
#1124=ADVANCED_FACE('',(#118),#16,.T.);
#1125=ADVANCED_FACE('',(#119),#1085,.F.);
#1126=ADVANCED_FACE('',(#120),#1086,.F.);
#1127=ADVANCED_FACE('',(#121),#34,.T.);
#1128=ADVANCED_FACE('',(#122),#1087,.T.);
#1129=ADVANCED_FACE('',(#123),#1088,.T.);
#1130=ADVANCED_FACE('',(#124),#17,.T.);
#1131=ADVANCED_FACE('',(#125),#35,.T.);
#1132=ADVANCED_FACE('',(#126),#36,.T.);
#1133=ADVANCED_FACE('',(#127),#18,.T.);
#1134=ADVANCED_FACE('',(#128),#37,.T.);
#1135=ADVANCED_FACE('',(#129),#1089,.F.);
#1136=ADVANCED_FACE('',(#130),#19,.T.);
#1137=ADVANCED_FACE('',(#131),#1090,.F.);
#1138=ADVANCED_FACE('',(#132),#1091,.F.);
#1139=ADVANCED_FACE('',(#133),#38,.T.);
#1140=ADVANCED_FACE('',(#134),#1092,.T.);
#1141=ADVANCED_FACE('',(#135),#1093,.T.);
#1142=ADVANCED_FACE('',(#136),#20,.T.);
#1143=ADVANCED_FACE('',(#137),#39,.T.);
#1144=ADVANCED_FACE('',(#138),#40,.T.);
#1145=ADVANCED_FACE('',(#139),#21,.T.);
#1146=ADVANCED_FACE('',(#140),#41,.T.);
#1147=ADVANCED_FACE('',(#141),#1094,.F.);
#1148=ADVANCED_FACE('',(#142),#22,.T.);
#1149=ADVANCED_FACE('',(#143),#1095,.F.);
#1150=ADVANCED_FACE('',(#144),#1096,.F.);
#1151=ADVANCED_FACE('',(#145),#42,.T.);
#1152=ADVANCED_FACE('',(#146),#1097,.T.);
#1153=ADVANCED_FACE('',(#147),#1098,.T.);
#1154=ADVANCED_FACE('',(#148),#23,.T.);
#1155=ADVANCED_FACE('',(#149),#24,.T.);
#1156=ADVANCED_FACE('',(#150),#43,.T.);
#1157=ADVANCED_FACE('',(#151,#47),#1099,.T.);
#1158=ADVANCED_FACE('',(#152),#25,.T.);
#1159=ADVANCED_FACE('',(#153),#44,.T.);
#1160=ADVANCED_FACE('',(#154,#48,#49,#50),#1100,.T.);
#1161=CLOSED_SHELL('',(#1101,#1102,#1103,#1104,#1105,#1106,#1107,#1108,
#1109,#1110,#1111,#1112,#1113,#1114,#1115,#1116,#1117,#1118,#1119,#1120,
#1121,#1122,#1123,#1124,#1125,#1126,#1127,#1128,#1129,#1130,#1131,#1132,
#1133,#1134,#1135,#1136,#1137,#1138,#1139,#1140,#1141,#1142,#1143,#1144,
#1145,#1146,#1147,#1148,#1149,#1150,#1151,#1152,#1153,#1154,#1155,#1156,
#1157,#1158,#1159,#1160));
#1162=DERIVED_UNIT_ELEMENT(#1164,1.);
#1163=DERIVED_UNIT_ELEMENT(#2024,-3.);
#1164=(
MASS_UNIT()
NAMED_UNIT(*)
SI_UNIT(.KILO.,.GRAM.)
);
#1165=DERIVED_UNIT((#1162,#1163));
#1166=MEASURE_REPRESENTATION_ITEM('density measure',
POSITIVE_RATIO_MEASURE(7850.),#1165);
#1167=PROPERTY_DEFINITION_REPRESENTATION(#1172,#1169);
#1168=PROPERTY_DEFINITION_REPRESENTATION(#1173,#1170);
#1169=REPRESENTATION('material name',(#1171),#2021);
#1170=REPRESENTATION('density',(#1166),#2021);
#1171=DESCRIPTIVE_REPRESENTATION_ITEM('Acciaio','Acciaio');
#1172=PROPERTY_DEFINITION('material property','material name',#2031);
#1173=PROPERTY_DEFINITION('material property','density of part',#2031);
#1174=AXIS2_PLACEMENT_3D('',#1600,#1277,#1278);
#1175=AXIS2_PLACEMENT_3D('',#1601,#1279,#1280);
#1176=AXIS2_PLACEMENT_3D('',#1610,#1285,#1286);
#1177=AXIS2_PLACEMENT_3D('',#1616,#1290,#1291);
#1178=AXIS2_PLACEMENT_3D('',#1625,#1296,#1297);
#1179=AXIS2_PLACEMENT_3D('',#1631,#1301,#1302);
#1180=AXIS2_PLACEMENT_3D('',#1640,#1307,#1308);
#1181=AXIS2_PLACEMENT_3D('',#1646,#1312,#1313);
#1182=AXIS2_PLACEMENT_3D('',#1655,#1318,#1319);
#1183=AXIS2_PLACEMENT_3D('',#1660,#1323,#1324);
#1184=AXIS2_PLACEMENT_3D('',#1664,#1327,#1328);
#1185=AXIS2_PLACEMENT_3D('',#1667,#1331,#1332);
#1186=AXIS2_PLACEMENT_3D('',#1676,#1337,#1338);
#1187=AXIS2_PLACEMENT_3D('',#1681,#1342,#1343);
#1188=AXIS2_PLACEMENT_3D('',#1685,#1346,#1347);
#1189=AXIS2_PLACEMENT_3D('',#1688,#1350,#1351);
#1190=AXIS2_PLACEMENT_3D('',#1701,#1356,#1357);
#1191=AXIS2_PLACEMENT_3D('',#1706,#1361,#1362);
#1192=AXIS2_PLACEMENT_3D('',#1710,#1365,#1366);
#1193=AXIS2_PLACEMENT_3D('',#1717,#1369,#1370);
#1194=AXIS2_PLACEMENT_3D('',#1719,#1371,#1372);
#1195=AXIS2_PLACEMENT_3D('',#1720,#1373,#1374);
#1196=AXIS2_PLACEMENT_3D('',#1721,#1375,#1376);
#1197=AXIS2_PLACEMENT_3D('',#1756,#1379,#1380);
#1198=AXIS2_PLACEMENT_3D('',#1758,#1381,#1382);
#1199=AXIS2_PLACEMENT_3D('',#1762,#1384,#1385);
#1200=AXIS2_PLACEMENT_3D('',#1765,#1387,#1388);
#1201=AXIS2_PLACEMENT_3D('',#1766,#1389,#1390);
#1202=AXIS2_PLACEMENT_3D('',#1768,#1391,#1392);
#1203=AXIS2_PLACEMENT_3D('',#1770,#1394,#1395);
#1204=AXIS2_PLACEMENT_3D('',#1774,#1398,#1399);
#1205=AXIS2_PLACEMENT_3D('',#1776,#1400,#1401);
#1206=AXIS2_PLACEMENT_3D('',#1779,#1403,#1404);
#1207=AXIS2_PLACEMENT_3D('',#1780,#1405,#1406);
#1208=AXIS2_PLACEMENT_3D('',#1788,#1411,#1412);
#1209=AXIS2_PLACEMENT_3D('',#1794,#1416,#1417);
#1210=AXIS2_PLACEMENT_3D('',#1796,#1418,#1419);
#1211=AXIS2_PLACEMENT_3D('',#1799,#1421,#1422);
#1212=AXIS2_PLACEMENT_3D('',#1800,#1423,#1424);
#1213=AXIS2_PLACEMENT_3D('',#1808,#1429,#1430);
#1214=AXIS2_PLACEMENT_3D('',#1809,#1431,#1432);
#1215=AXIS2_PLACEMENT_3D('',#1810,#1433,#1434);
#1216=AXIS2_PLACEMENT_3D('',#1811,#1435,#1436);
#1217=AXIS2_PLACEMENT_3D('',#1812,#1437,#1438);
#1218=AXIS2_PLACEMENT_3D('',#1814,#1439,#1440);
#1219=AXIS2_PLACEMENT_3D('',#1817,#1442,#1443);
#1220=AXIS2_PLACEMENT_3D('',#1818,#1444,#1445);
#1221=AXIS2_PLACEMENT_3D('',#1853,#1448,#1449);
#1222=AXIS2_PLACEMENT_3D('',#1855,#1450,#1451);
#1223=AXIS2_PLACEMENT_3D('',#1859,#1453,#1454);
#1224=AXIS2_PLACEMENT_3D('',#1862,#1456,#1457);
#1225=AXIS2_PLACEMENT_3D('',#1863,#1458,#1459);
#1226=AXIS2_PLACEMENT_3D('',#1865,#1460,#1461);
#1227=AXIS2_PLACEMENT_3D('',#1867,#1463,#1464);
#1228=AXIS2_PLACEMENT_3D('',#1871,#1467,#1468);
#1229=AXIS2_PLACEMENT_3D('',#1873,#1469,#1470);
#1230=AXIS2_PLACEMENT_3D('',#1876,#1472,#1473);
#1231=AXIS2_PLACEMENT_3D('',#1877,#1474,#1475);
#1232=AXIS2_PLACEMENT_3D('',#1885,#1480,#1481);
#1233=AXIS2_PLACEMENT_3D('',#1891,#1485,#1486);
#1234=AXIS2_PLACEMENT_3D('',#1893,#1487,#1488);
#1235=AXIS2_PLACEMENT_3D('',#1896,#1490,#1491);
#1236=AXIS2_PLACEMENT_3D('',#1897,#1492,#1493);
#1237=AXIS2_PLACEMENT_3D('',#1902,#1497,#1498);
#1238=AXIS2_PLACEMENT_3D('',#1903,#1499,#1500);
#1239=AXIS2_PLACEMENT_3D('',#1904,#1501,#1502);
#1240=AXIS2_PLACEMENT_3D('',#1905,#1503,#1504);
#1241=AXIS2_PLACEMENT_3D('',#1906,#1505,#1506);
#1242=AXIS2_PLACEMENT_3D('',#1908,#1507,#1508);
#1243=AXIS2_PLACEMENT_3D('',#1911,#1510,#1511);
#1244=AXIS2_PLACEMENT_3D('',#1912,#1512,#1513);
#1245=AXIS2_PLACEMENT_3D('',#1947,#1516,#1517);
#1246=AXIS2_PLACEMENT_3D('',#1949,#1518,#1519);
#1247=AXIS2_PLACEMENT_3D('',#1953,#1521,#1522);
#1248=AXIS2_PLACEMENT_3D('',#1956,#1524,#1525);
#1249=AXIS2_PLACEMENT_3D('',#1957,#1526,#1527);
#1250=AXIS2_PLACEMENT_3D('',#1959,#1528,#1529);
#1251=AXIS2_PLACEMENT_3D('',#1961,#1531,#1532);
#1252=AXIS2_PLACEMENT_3D('',#1965,#1535,#1536);
#1253=AXIS2_PLACEMENT_3D('',#1967,#1537,#1538);
#1254=AXIS2_PLACEMENT_3D('',#1970,#1540,#1541);
#1255=AXIS2_PLACEMENT_3D('',#1971,#1542,#1543);
#1256=AXIS2_PLACEMENT_3D('',#1979,#1548,#1549);
#1257=AXIS2_PLACEMENT_3D('',#1985,#1553,#1554);
#1258=AXIS2_PLACEMENT_3D('',#1987,#1555,#1556);
#1259=AXIS2_PLACEMENT_3D('',#1990,#1558,#1559);
#1260=AXIS2_PLACEMENT_3D('',#1991,#1560,#1561);
#1261=AXIS2_PLACEMENT_3D('',#1996,#1565,#1566);
#1262=AXIS2_PLACEMENT_3D('',#1997,#1567,#1568);
#1263=AXIS2_PLACEMENT_3D('',#1998,#1569,#1570);
#1264=AXIS2_PLACEMENT_3D('',#1999,#1571,#1572);
#1265=AXIS2_PLACEMENT_3D('',#2000,#1573,#1574);
#1266=AXIS2_PLACEMENT_3D('',#2002,#1575,#1576);
#1267=AXIS2_PLACEMENT_3D('',#2004,#1578,#1579);
#1268=AXIS2_PLACEMENT_3D('',#2005,#1580,#1581);
#1269=AXIS2_PLACEMENT_3D('',#2006,#1582,#1583);
#1270=AXIS2_PLACEMENT_3D('',#2007,#1584,#1585);
#1271=AXIS2_PLACEMENT_3D('',#2009,#1586,#1587);
#1272=AXIS2_PLACEMENT_3D('',#2010,#1588,#1589);
#1273=AXIS2_PLACEMENT_3D('',#2012,#1590,#1591);
#1274=AXIS2_PLACEMENT_3D('',#2014,#1593,#1594);
#1275=AXIS2_PLACEMENT_3D('',#2016,#1595,#1596);
#1276=AXIS2_PLACEMENT_3D('',#2018,#1598,#1599);
#1277=DIRECTION('axis',(0.,0.,1.));
#1278=DIRECTION('refdir',(1.,0.,0.));
#1279=DIRECTION('center_axis',(0.656059028990507,0.754709580222772,0.));
#1280=DIRECTION('ref_axis',(-0.754709580222772,0.656059028990507,0.));
#1281=DIRECTION('',(0.754709580222772,-0.656059028990507,0.));
#1282=DIRECTION('',(0.,0.,-1.));
#1283=DIRECTION('',(-0.754709580222772,0.656059028990507,0.));
#1284=DIRECTION('',(0.,0.,1.));
#1285=DIRECTION('center_axis',(0.,0.,1.));
#1286=DIRECTION('ref_axis',(1.,0.,0.));
#1287=DIRECTION('',(-0.656059028990507,-0.754709580222772,0.));
#1288=DIRECTION('',(0.656059028990507,0.754709580222772,0.));
#1289=DIRECTION('',(-0.754709580222772,0.656059028990507,0.));
#1290=DIRECTION('center_axis',(-0.809016994374948,0.587785252292473,0.));
#1291=DIRECTION('ref_axis',(-0.587785252292473,-0.809016994374947,0.));
#1292=DIRECTION('',(0.587785252292473,0.809016994374947,0.));
#1293=DIRECTION('',(0.,0.,-1.));
#1294=DIRECTION('',(-0.587785252292473,-0.809016994374947,0.));
#1295=DIRECTION('',(0.,0.,1.));
#1296=DIRECTION('center_axis',(0.,0.,1.));
#1297=DIRECTION('ref_axis',(1.,0.,0.));
#1298=DIRECTION('',(0.809016994374947,-0.587785252292473,0.));
#1299=DIRECTION('',(-0.809016994374947,0.587785252292473,0.));
#1300=DIRECTION('',(-0.587785252292473,-0.809016994374947,0.));
#1301=DIRECTION('center_axis',(0.987688340595138,0.156434465040231,0.));
#1302=DIRECTION('ref_axis',(-0.156434465040231,0.987688340595138,0.));
#1303=DIRECTION('',(0.156434465040231,-0.987688340595138,0.));
#1304=DIRECTION('',(0.,0.,-1.));
#1305=DIRECTION('',(-0.156434465040231,0.987688340595138,0.));
#1306=DIRECTION('',(0.,0.,1.));
#1307=DIRECTION('center_axis',(0.,0.,1.));
#1308=DIRECTION('ref_axis',(1.,0.,0.));
#1309=DIRECTION('',(-0.987688340595138,-0.156434465040231,0.));
#1310=DIRECTION('',(0.987688340595138,0.156434465040231,0.));
#1311=DIRECTION('',(-0.156434465040231,0.987688340595138,0.));
#1312=DIRECTION('center_axis',(0.987688340595138,0.156434465040231,0.));
#1313=DIRECTION('ref_axis',(-0.156434465040231,0.987688340595138,0.));
#1314=DIRECTION('',(-0.156434465040231,0.987688340595138,0.));
#1315=DIRECTION('',(0.,0.,1.));
#1316=DIRECTION('',(0.156434465040231,-0.987688340595138,0.));
#1317=DIRECTION('',(0.,0.,1.));
#1318=DIRECTION('center_axis',(-0.156434465040231,0.987688340595138,0.));
#1319=DIRECTION('ref_axis',(-0.987688340595138,-0.156434465040231,0.));
#1320=DIRECTION('',(-0.987688340595138,-0.156434465040231,0.));
#1321=DIRECTION('',(0.987688340595138,0.156434465040231,0.));
#1322=DIRECTION('',(0.,0.,1.));
#1323=DIRECTION('center_axis',(-0.987688340595138,-0.156434465040231,0.));
#1324=DIRECTION('ref_axis',(0.156434465040231,-0.987688340595138,0.));
#1325=DIRECTION('',(-0.156434465040231,0.987688340595138,0.));
#1326=DIRECTION('',(0.,0.,1.));
#1327=DIRECTION('center_axis',(0.156434465040231,-0.987688340595138,0.));
#1328=DIRECTION('ref_axis',(0.987688340595138,0.156434465040231,0.));
#1329=DIRECTION('',(-0.987688340595138,-0.156434465040231,0.));
#1330=DIRECTION('',(0.987688340595138,0.156434465040231,0.));
#1331=DIRECTION('center_axis',(-0.809016994374947,0.587785252292473,0.));
#1332=DIRECTION('ref_axis',(-0.587785252292473,-0.809016994374947,0.));
#1333=DIRECTION('',(-0.587785252292473,-0.809016994374947,0.));
#1334=DIRECTION('',(0.,0.,1.));
#1335=DIRECTION('',(0.587785252292473,0.809016994374947,0.));
#1336=DIRECTION('',(0.,0.,1.));
#1337=DIRECTION('center_axis',(-0.587785252292473,-0.809016994374947,0.));
#1338=DIRECTION('ref_axis',(0.809016994374947,-0.587785252292473,0.));
#1339=DIRECTION('',(0.809016994374947,-0.587785252292473,0.));
#1340=DIRECTION('',(-0.809016994374947,0.587785252292473,0.));
#1341=DIRECTION('',(0.,0.,1.));
#1342=DIRECTION('center_axis',(0.809016994374948,-0.587785252292473,0.));
#1343=DIRECTION('ref_axis',(0.587785252292473,0.809016994374947,0.));
#1344=DIRECTION('',(-0.587785252292473,-0.809016994374947,0.));
#1345=DIRECTION('',(0.,0.,1.));
#1346=DIRECTION('center_axis',(0.587785252292473,0.809016994374947,0.));
#1347=DIRECTION('ref_axis',(-0.809016994374947,0.587785252292473,0.));
#1348=DIRECTION('',(0.809016994374947,-0.587785252292473,0.));
#1349=DIRECTION('',(-0.809016994374947,0.587785252292473,0.));
#1350=DIRECTION('center_axis',(0.656059028990507,0.754709580222772,0.));
#1351=DIRECTION('ref_axis',(-0.754709580222772,0.656059028990507,0.));
#1352=DIRECTION('',(0.754709580222772,-0.656059028990507,0.));
#1353=DIRECTION('',(0.,0.,1.));
#1354=DIRECTION('',(-0.754709580222772,0.656059028990507,0.));
#1355=DIRECTION('',(0.,0.,1.));
#1356=DIRECTION('center_axis',(0.754709580222772,-0.656059028990507,0.));
#1357=DIRECTION('ref_axis',(0.656059028990507,0.754709580222772,0.));
#1358=DIRECTION('',(0.,0.,1.));
#1359=DIRECTION('',(-0.656059028990507,-0.754709580222772,0.));
#1360=DIRECTION('',(0.656059028990507,0.754709580222772,0.));
#1361=DIRECTION('center_axis',(-0.656059028990507,-0.754709580222772,0.));
#1362=DIRECTION('ref_axis',(0.754709580222772,-0.656059028990507,0.));
#1363=DIRECTION('',(0.,0.,1.));
#1364=DIRECTION('',(-0.754709580222772,0.656059028990507,0.));
#1365=DIRECTION('center_axis',(-0.754709580222772,0.656059028990507,0.));
#1366=DIRECTION('ref_axis',(-0.656059028990507,-0.754709580222772,0.));
#1367=DIRECTION('',(-0.656059028990507,-0.754709580222772,0.));
#1368=DIRECTION('',(0.656059028990507,0.754709580222772,0.));
#1369=DIRECTION('center_axis',(0.,0.,-1.));
#1370=DIRECTION('ref_axis',(-1.,0.,0.));
#1371=DIRECTION('center_axis',(0.,0.,1.));
#1372=DIRECTION('ref_axis',(1.,0.,0.));
#1373=DIRECTION('center_axis',(0.,0.,1.));
#1374=DIRECTION('ref_axis',(1.,0.,0.));
#1375=DIRECTION('center_axis',(0.,0.,1.));
#1376=DIRECTION('ref_axis',(-0.5,-0.866025403784438,0.));
#1377=DIRECTION('',(0.,0.,-1.));
#1378=DIRECTION('',(0.,0.,1.));
#1379=DIRECTION('center_axis',(0.,0.,1.));
#1380=DIRECTION('ref_axis',(0.0174524064372838,0.999847695156391,0.));
#1381=DIRECTION('center_axis',(0.,0.,1.));
#1382=DIRECTION('ref_axis',(0.0174524064372837,0.999847695156391,0.));
#1383=DIRECTION('',(-0.541675220419701,0.454519477672044,0.707106781186548));
#1384=DIRECTION('center_axis',(0.,0.,1.));
#1385=DIRECTION('ref_axis',(0.0174524064372838,0.999847695156391,0.));
#1386=DIRECTION('',(0.0123407149398272,0.706999085398824,0.707106781186548));
#1387=DIRECTION('center_axis',(0.,0.,1.));
#1388=DIRECTION('ref_axis',(0.0174524064372837,0.999847695156391,0.));
#1389=DIRECTION('center_axis',(0.,0.,1.));
#1390=DIRECTION('ref_axis',(1.,0.,0.));
#1391=DIRECTION('center_axis',(0.,0.,1.));
#1392=DIRECTION('ref_axis',(0.0174524064372837,0.999847695156391,0.));
#1393=DIRECTION('',(0.,0.,1.));
#1394=DIRECTION('center_axis',(-0.64278760968654,-0.766044443118977,0.));
#1395=DIRECTION('ref_axis',(0.,0.,1.));
#1396=DIRECTION('',(0.,0.,-1.));
#1397=DIRECTION('',(0.5416752204197,-0.454519477672043,0.70710678118655));
#1398=DIRECTION('center_axis',(0.,0.,-1.));
#1399=DIRECTION('ref_axis',(0.0174524064372838,0.999847695156391,0.));
#1400=DIRECTION('center_axis',(0.,0.,1.));
#1401=DIRECTION('ref_axis',(0.0174524064372837,0.999847695156391,0.));
#1402=DIRECTION('',(-0.0123407149398272,-0.706999085398822,0.70710678118655));
#1403=DIRECTION('center_axis',(0.,0.,-1.));
#1404=DIRECTION('ref_axis',(0.0174524064372838,0.999847695156391,0.));
#1405=DIRECTION('center_axis',(-0.999847695156391,0.0174524064372839,0.));
#1406=DIRECTION('ref_axis',(0.,0.,1.));
#1407=DIRECTION('',(0.,0.,1.));
#1408=DIRECTION('',(-0.017452406437282,-0.999847695156391,0.));
#1409=DIRECTION('',(-0.0123407149398279,-0.706999085398823,-0.707106781186549));
#1410=DIRECTION('',(0.,0.,-1.));
#1411=DIRECTION('center_axis',(-0.999847695156391,0.0174524064372839,0.));
#1412=DIRECTION('ref_axis',(0.,0.,1.));
#1413=DIRECTION('',(0.,0.,-1.));
#1414=DIRECTION('',(0.0174524064372839,0.999847695156391,0.));
#1415=DIRECTION('',(0.,0.,1.));
#1416=DIRECTION('center_axis',(0.,0.,1.));
#1417=DIRECTION('ref_axis',(0.0174524064372838,0.999847695156391,0.));
#1418=DIRECTION('center_axis',(0.,0.,1.));
#1419=DIRECTION('ref_axis',(0.0174524064372838,0.999847695156391,0.));
#1420=DIRECTION('',(0.,0.,-1.));
#1421=DIRECTION('center_axis',(0.,0.,1.));
#1422=DIRECTION('ref_axis',(0.0174524064372838,0.999847695156391,0.));
#1423=DIRECTION('center_axis',(-0.452434709311783,-0.891797529605214,0.));
#1424=DIRECTION('ref_axis',(0.,0.,1.));
#1425=DIRECTION('',(0.,0.,-1.));
#1426=DIRECTION('',(0.891797529605214,-0.452434709311783,0.));
#1427=DIRECTION('',(0.630596080629256,-0.319919650998526,-0.707106781186549));
#1428=DIRECTION('',(0.891797529605215,-0.452434709311781,0.));
#1429=DIRECTION('center_axis',(0.,0.,-1.));
#1430=DIRECTION('ref_axis',(0.5,0.866025403784438,0.));
#1431=DIRECTION('center_axis',(0.,0.,1.));
#1432=DIRECTION('ref_axis',(1.,0.,0.));
#1433=DIRECTION('center_axis',(0.,0.,1.));
#1434=DIRECTION('ref_axis',(0.0174524064372838,0.999847695156391,0.));
#1435=DIRECTION('center_axis',(0.,0.,1.));
#1436=DIRECTION('ref_axis',(0.0174524064372839,0.999847695156391,0.));
#1437=DIRECTION('center_axis',(0.,0.,1.));
#1438=DIRECTION('ref_axis',(1.,0.,0.));
#1439=DIRECTION('center_axis',(0.,0.,1.));
#1440=DIRECTION('ref_axis',(1.,0.,0.));
#1441=DIRECTION('',(0.,0.,-1.));
#1442=DIRECTION('center_axis',(0.,0.,1.));
#1443=DIRECTION('ref_axis',(1.,0.,0.));
#1444=DIRECTION('center_axis',(0.,0.,1.));
#1445=DIRECTION('ref_axis',(-0.5,0.866025403784439,0.));
#1446=DIRECTION('',(0.,0.,-1.));
#1447=DIRECTION('',(0.,0.,1.));
#1448=DIRECTION('center_axis',(0.,0.,1.));
#1449=DIRECTION('ref_axis',(0.857167300702112,-0.515038074910054,0.));
#1450=DIRECTION('center_axis',(0.,0.,1.));
#1451=DIRECTION('ref_axis',(0.857167300702112,-0.515038074910054,0.));
#1452=DIRECTION('',(0.664463024388674,0.241844762647975,0.707106781186548));
#1453=DIRECTION('center_axis',(0.,0.,1.));
#1454=DIRECTION('ref_axis',(0.857167300702112,-0.515038074910054,0.));
#1455=DIRECTION('',(0.606108810937832,-0.364186915338164,0.707106781186548));
#1456=DIRECTION('center_axis',(0.,0.,1.));
#1457=DIRECTION('ref_axis',(0.857167300702112,-0.515038074910054,0.));
#1458=DIRECTION('center_axis',(0.,0.,1.));
#1459=DIRECTION('ref_axis',(1.,0.,0.));
#1460=DIRECTION('center_axis',(0.,0.,1.));
#1461=DIRECTION('ref_axis',(0.857167300702112,-0.515038074910054,0.));
#1462=DIRECTION('',(0.,0.,1.));
#1463=DIRECTION('center_axis',(-0.342020143325668,0.939692620785909,0.));
#1464=DIRECTION('ref_axis',(0.,0.,1.));
#1465=DIRECTION('',(0.,0.,-1.));
#1466=DIRECTION('',(-0.664463024388673,-0.241844762647974,0.70710678118655));
#1467=DIRECTION('center_axis',(0.,0.,-1.));
#1468=DIRECTION('ref_axis',(0.857167300702112,-0.515038074910054,0.));
#1469=DIRECTION('center_axis',(0.,0.,1.));
#1470=DIRECTION('ref_axis',(0.857167300702112,-0.515038074910054,0.));
#1471=DIRECTION('',(-0.60610881093783,0.364186915338163,0.70710678118655));
#1472=DIRECTION('center_axis',(0.,0.,-1.));
#1473=DIRECTION('ref_axis',(0.857167300702112,-0.515038074910054,0.));
#1474=DIRECTION('center_axis',(0.515038074910054,0.857167300702112,0.));
#1475=DIRECTION('ref_axis',(0.,0.,1.));
#1476=DIRECTION('',(0.,0.,1.));
#1477=DIRECTION('',(-0.857167300702113,0.515038074910053,0.));
#1478=DIRECTION('',(-0.60610881093783,0.364186915338164,-0.707106781186549));
#1479=DIRECTION('',(0.,0.,-1.));
#1480=DIRECTION('center_axis',(0.515038074910054,0.857167300702112,0.));
#1481=DIRECTION('ref_axis',(0.,0.,1.));
#1482=DIRECTION('',(0.,0.,-1.));
#1483=DIRECTION('',(0.857167300702112,-0.515038074910054,0.));
#1484=DIRECTION('',(0.,0.,1.));
#1485=DIRECTION('center_axis',(0.,0.,1.));
#1486=DIRECTION('ref_axis',(0.857167300702112,-0.515038074910054,0.));
#1487=DIRECTION('center_axis',(0.,0.,1.));
#1488=DIRECTION('ref_axis',(0.857167300702112,-0.515038074910054,0.));
#1489=DIRECTION('',(0.,0.,-1.));
#1490=DIRECTION('center_axis',(0.,0.,1.));
#1491=DIRECTION('ref_axis',(0.857167300702112,-0.515038074910054,0.));
#1492=DIRECTION('center_axis',(-0.546101961014429,0.837718716620439,0.));
#1493=DIRECTION('ref_axis',(0.,0.,1.));
#1494=DIRECTION('',(-0.837718716620439,-0.546101961014429,0.));
#1495=DIRECTION('',(-0.592356585249203,-0.386152399852573,-0.707106781186549));
#1496=DIRECTION('',(-0.837718716620438,-0.546101961014431,0.));
#1497=DIRECTION('center_axis',(0.,0.,-1.));
#1498=DIRECTION('ref_axis',(0.5,-0.866025403784439,0.));
#1499=DIRECTION('center_axis',(0.,0.,1.));
#1500=DIRECTION('ref_axis',(1.,0.,0.));
#1501=DIRECTION('center_axis',(0.,0.,1.));
#1502=DIRECTION('ref_axis',(0.857167300702112,-0.515038074910054,0.));
#1503=DIRECTION('center_axis',(0.,0.,1.));
#1504=DIRECTION('ref_axis',(0.857167300702112,-0.515038074910054,0.));
#1505=DIRECTION('center_axis',(0.,0.,1.));
#1506=DIRECTION('ref_axis',(1.,0.,0.));
#1507=DIRECTION('center_axis',(0.,0.,1.));
#1508=DIRECTION('ref_axis',(1.,0.,0.));
#1509=DIRECTION('',(0.,0.,-1.));
#1510=DIRECTION('center_axis',(0.,0.,1.));
#1511=DIRECTION('ref_axis',(1.,0.,0.));
#1512=DIRECTION('center_axis',(0.,0.,1.));
#1513=DIRECTION('ref_axis',(1.,0.,0.));
#1514=DIRECTION('',(0.,0.,-1.));
#1515=DIRECTION('',(0.,0.,1.));
#1516=DIRECTION('center_axis',(0.,0.,1.));
#1517=DIRECTION('ref_axis',(-0.874619707139396,-0.484809620246337,0.));
#1518=DIRECTION('center_axis',(0.,0.,1.));
#1519=DIRECTION('ref_axis',(-0.874619707139396,-0.484809620246337,0.));
#1520=DIRECTION('',(-0.122787803968973,-0.696364240320018,0.707106781186548));
#1521=DIRECTION('center_axis',(0.,0.,1.));
#1522=DIRECTION('ref_axis',(-0.874619707139396,-0.484809620246337,0.));
#1523=DIRECTION('',(-0.618449525877659,-0.34281217006066,0.707106781186548));
#1524=DIRECTION('center_axis',(0.,0.,1.));
#1525=DIRECTION('ref_axis',(-0.874619707139396,-0.484809620246337,0.));
#1526=DIRECTION('center_axis',(0.,0.,1.));
#1527=DIRECTION('ref_axis',(1.,0.,0.));
#1528=DIRECTION('center_axis',(0.,0.,1.));
#1529=DIRECTION('ref_axis',(-0.874619707139396,-0.484809620246337,0.));
#1530=DIRECTION('',(0.,0.,1.));
#1531=DIRECTION('center_axis',(0.984807753012208,-0.173648177666931,0.));
#1532=DIRECTION('ref_axis',(0.,0.,1.));
#1533=DIRECTION('',(0.,0.,-1.));
#1534=DIRECTION('',(0.122787803968973,0.696364240320017,0.70710678118655));
#1535=DIRECTION('center_axis',(0.,0.,-1.));
#1536=DIRECTION('ref_axis',(-0.874619707139396,-0.484809620246337,0.));
#1537=DIRECTION('center_axis',(0.,0.,1.));
#1538=DIRECTION('ref_axis',(-0.874619707139396,-0.484809620246337,0.));
#1539=DIRECTION('',(0.618449525877657,0.342812170060659,0.70710678118655));
#1540=DIRECTION('center_axis',(0.,0.,-1.));
#1541=DIRECTION('ref_axis',(-0.874619707139396,-0.484809620246337,0.));
#1542=DIRECTION('center_axis',(0.484809620246337,-0.874619707139396,0.));
#1543=DIRECTION('ref_axis',(0.,0.,1.));
#1544=DIRECTION('',(0.,0.,1.));
#1545=DIRECTION('',(0.874619707139395,0.484809620246339,0.));
#1546=DIRECTION('',(0.618449525877658,0.342812170060659,-0.707106781186549));
#1547=DIRECTION('',(0.,0.,-1.));
#1548=DIRECTION('center_axis',(0.484809620246337,-0.874619707139396,0.));
#1549=DIRECTION('ref_axis',(0.,0.,1.));
#1550=DIRECTION('',(0.,0.,-1.));
#1551=DIRECTION('',(-0.874619707139396,-0.484809620246337,0.));
#1552=DIRECTION('',(0.,0.,1.));
#1553=DIRECTION('center_axis',(0.,0.,1.));
#1554=DIRECTION('ref_axis',(-0.874619707139396,-0.484809620246337,0.));
#1555=DIRECTION('center_axis',(0.,0.,1.));
#1556=DIRECTION('ref_axis',(-0.874619707139396,-0.484809620246337,0.));
#1557=DIRECTION('',(0.,0.,-1.));
#1558=DIRECTION('center_axis',(0.,0.,1.));
#1559=DIRECTION('ref_axis',(-0.874619707139396,-0.484809620246337,0.));
#1560=DIRECTION('center_axis',(0.998536670326212,0.0540788129847756,0.));
#1561=DIRECTION('ref_axis',(0.,0.,1.));
#1562=DIRECTION('',(-0.0540788129847756,0.998536670326212,0.));
#1563=DIRECTION('',(-0.0382394953800531,0.706072050851099,-0.707106781186549));
#1564=DIRECTION('',(-0.0540788129847775,0.998536670326212,0.));
#1565=DIRECTION('center_axis',(0.,0.,-1.));
#1566=DIRECTION('ref_axis',(-1.,0.,0.));
#1567=DIRECTION('center_axis',(0.,0.,1.));
#1568=DIRECTION('ref_axis',(1.,0.,0.));
#1569=DIRECTION('center_axis',(0.,0.,1.));
#1570=DIRECTION('ref_axis',(-0.874619707139396,-0.484809620246337,0.));
#1571=DIRECTION('center_axis',(0.,0.,1.));
#1572=DIRECTION('ref_axis',(-0.874619707139396,-0.484809620246337,0.));
#1573=DIRECTION('center_axis',(0.,0.,1.));
#1574=DIRECTION('ref_axis',(1.,0.,0.));
#1575=DIRECTION('center_axis',(0.,0.,1.));
#1576=DIRECTION('ref_axis',(1.,0.,0.));
#1577=DIRECTION('',(0.707106781186549,8.65956056235495E-17,-0.707106781186546));
#1578=DIRECTION('center_axis',(0.,0.,1.));
#1579=DIRECTION('ref_axis',(1.,0.,0.));
#1580=DIRECTION('center_axis',(0.,0.,1.));
#1581=DIRECTION('ref_axis',(-0.942792055924121,-0.333381372134632,0.));
#1582=DIRECTION('center_axis',(0.,0.,1.));
#1583=DIRECTION('ref_axis',(1.,0.,0.));
#1584=DIRECTION('center_axis',(0.,0.,-1.));
#1585=DIRECTION('ref_axis',(-1.,0.,0.));
#1586=DIRECTION('center_axis',(0.,0.,1.));
#1587=DIRECTION('ref_axis',(1.,0.,0.));
#1588=DIRECTION('center_axis',(0.,0.,1.));
#1589=DIRECTION('ref_axis',(1.,0.,0.));
#1590=DIRECTION('center_axis',(0.,0.,1.));
#1591=DIRECTION('ref_axis',(1.,0.,0.));
#1592=DIRECTION('',(0.707106781186549,8.65956056235495E-17,-0.707106781186546));
#1593=DIRECTION('center_axis',(0.,0.,1.));
#1594=DIRECTION('ref_axis',(1.,0.,0.));
#1595=DIRECTION('center_axis',(0.,0.,1.));
#1596=DIRECTION('ref_axis',(1.,0.,0.));
#1597=DIRECTION('',(0.,0.,-1.));
#1598=DIRECTION('center_axis',(0.,0.,1.));
#1599=DIRECTION('ref_axis',(1.,0.,0.));
#1600=CARTESIAN_POINT('',(0.,0.,0.));
#1601=CARTESIAN_POINT('Origin',(14.9811800538365,10.5728902479186,144.));
#1602=CARTESIAN_POINT('',(4.41524593071766,19.7577166537857,144.));
#1603=CARTESIAN_POINT('',(14.9811800538365,10.5728902479186,144.));
#1604=CARTESIAN_POINT('',(4.41524593071766,19.7577166537857,144.));
#1605=CARTESIAN_POINT('',(4.41524593071766,19.7577166537857,145.));
#1606=CARTESIAN_POINT('',(4.41524593071765,19.7577166537857,143.75));
#1607=CARTESIAN_POINT('',(14.9811800538365,10.5728902479186,145.));
#1608=CARTESIAN_POINT('',(4.41524593071766,19.7577166537857,145.));
#1609=CARTESIAN_POINT('',(14.9811800538365,10.5728902479186,143.75));
#1610=CARTESIAN_POINT('Origin',(9.04215396328656,14.4105938706294,145.));
#1611=CARTESIAN_POINT('',(13.6690619958555,9.06347108747306,145.));
#1612=CARTESIAN_POINT('',(13.9970915103507,9.44082587758445,145.));
#1613=CARTESIAN_POINT('',(3.10312787273664,18.2482974933402,145.));
#1614=CARTESIAN_POINT('',(7.36751156117494,23.1539097647882,145.));
#1615=CARTESIAN_POINT('',(5.74461140351635,15.9520908918734,145.));
#1616=CARTESIAN_POINT('Origin',(-10.2377077511504,2.28743480825923,144.));
#1617=CARTESIAN_POINT('',(-18.466701283245,-9.03880311299003,144.));
#1618=CARTESIAN_POINT('',(-10.2377077511504,2.28743480825923,144.));
#1619=CARTESIAN_POINT('',(-18.466701283245,-9.03880311299003,144.));
#1620=CARTESIAN_POINT('',(-18.466701283245,-9.03880311299003,145.));
#1621=CARTESIAN_POINT('',(-18.466701283245,-9.03880311299003,143.75));
#1622=CARTESIAN_POINT('',(-10.2377077511504,2.28743480825923,145.));
#1623=CARTESIAN_POINT('',(-18.466701283245,-9.03880311299003,145.));
#1624=CARTESIAN_POINT('',(-10.2377077511504,2.28743480825923,143.75));
#1625=CARTESIAN_POINT('Origin',(-13.5431875228227,-3.96346940465787,145.));
#1626=CARTESIAN_POINT('',(-8.61967376240046,1.11186430367429,145.));
#1627=CARTESIAN_POINT('',(-9.02418225958793,1.40575692982052,145.));
#1628=CARTESIAN_POINT('',(-16.8486672944951,-10.214373617575,145.));
#1629=CARTESIAN_POINT('',(-22.1072777579322,-6.3937694776739,145.));
#1630=CARTESIAN_POINT('',(-14.7914189114714,-7.38281413726266,145.));
#1631=CARTESIAN_POINT('Origin',(6.53522306547889,-24.430445196198,144.));
#1632=CARTESIAN_POINT('',(4.34514055491565,-10.602808427866,144.));
#1633=CARTESIAN_POINT('',(6.53522306547889,-24.430445196198,144.));
#1634=CARTESIAN_POINT('',(4.34514055491565,-10.602808427866,144.));
#1635=CARTESIAN_POINT('',(4.34514055491565,-10.602808427866,145.));
#1636=CARTESIAN_POINT('',(4.34514055491565,-10.602808427866,143.75));
#1637=CARTESIAN_POINT('',(6.53522306547889,-24.430445196198,145.));
#1638=CARTESIAN_POINT('',(4.34514055491565,-10.602808427866,145.));
#1639=CARTESIAN_POINT('',(6.53522306547889,-24.430445196198,143.75));
#1640=CARTESIAN_POINT('Origin',(4.45249346960213,-17.6730612770722,145.));
#1641=CARTESIAN_POINT('',(4.55984638428861,-24.7433141262784,145.));
#1642=CARTESIAN_POINT('',(5.05369055458618,-24.6650968937583,145.));
#1643=CARTESIAN_POINT('',(2.36976387372538,-10.9156773579465,145.));
#1644=CARTESIAN_POINT('',(8.78973808759377,-9.89885333518501,145.));
#1645=CARTESIAN_POINT('',(2.91728450136619,-14.3725865500295,145.));
#1646=CARTESIAN_POINT('Origin',(16.4121064714303,-22.8661005457957,143.5));
#1647=CARTESIAN_POINT('',(16.4121064714303,-22.8661005457957,144.));
#1648=CARTESIAN_POINT('',(14.222023960867,-9.03846377746374,144.));
#1649=CARTESIAN_POINT('',(14.7996268959445,-12.6853051836896,144.));
#1650=CARTESIAN_POINT('',(16.4121064714303,-22.8661005457957,162.));
#1651=CARTESIAN_POINT('',(16.4121064714303,-22.8661005457957,143.5));
#1652=CARTESIAN_POINT('',(14.222023960867,-9.03846377746374,162.));
#1653=CARTESIAN_POINT('',(14.4447866390843,-10.4449319744712,162.));
#1654=CARTESIAN_POINT('',(14.222023960867,-9.03846377746374,143.5));
#1655=CARTESIAN_POINT('Origin',(14.222023960867,-9.03846377746374,143.5));
#1656=CARTESIAN_POINT('',(22.1284503006377,-7.78620886667199,144.));
#1657=CARTESIAN_POINT('',(2.36976387372538,-10.9156773579465,162.));
#1658=CARTESIAN_POINT('',(7.98329055749784,-10.0265820758904,162.));
#1659=CARTESIAN_POINT('',(2.36976387372538,-10.9156773579465,143.5));
#1660=CARTESIAN_POINT('Origin',(2.36976387372538,-10.9156773579465,143.5));
#1661=CARTESIAN_POINT('',(4.55984638428861,-24.7433141262784,162.));
#1662=CARTESIAN_POINT('',(1.49748529666105,-5.40832717078802,162.));
#1663=CARTESIAN_POINT('',(4.55984638428861,-24.7433141262784,143.5));
#1664=CARTESIAN_POINT('Origin',(4.55984638428861,-24.7433141262784,143.5));
#1665=CARTESIAN_POINT('',(4.24724302449025,-24.7928256344637,162.));
#1666=CARTESIAN_POINT('',(18.3924027676301,-22.5524524252453,144.));
#1667=CARTESIAN_POINT('Origin',(-18.3278776948998,8.16528733118396,143.5));
#1668=CARTESIAN_POINT('',(-18.3278776948998,8.16528733118396,144.));
#1669=CARTESIAN_POINT('',(-26.5568712269945,-3.1609505900653,144.));
#1670=CARTESIAN_POINT('',(-12.0936003309668,16.746033982104,144.));
#1671=CARTESIAN_POINT('',(-18.3278776948998,8.16528733118396,162.));
#1672=CARTESIAN_POINT('',(-18.3278776948998,8.16528733118396,143.5));
#1673=CARTESIAN_POINT('',(-26.5568712269945,-3.1609505900653,162.));
#1674=CARTESIAN_POINT('',(-17.1032271217485,9.85087423896417,162.));
#1675=CARTESIAN_POINT('',(-26.5568712269945,-3.1609505900653,143.5));
#1676=CARTESIAN_POINT('Origin',(-26.5568712269945,-3.1609505900653,143.5));
#1677=CARTESIAN_POINT('',(-9.12720974347754,-15.8243409065774,144.));
#1678=CARTESIAN_POINT('',(-16.8486672944951,-10.214373617575,162.));
#1679=CARTESIAN_POINT('',(-18.6175829526959,-8.92918116343749,162.));
#1680=CARTESIAN_POINT('',(-16.8486672944951,-10.214373617575,143.5));
#1681=CARTESIAN_POINT('Origin',(-16.8486672944951,-10.214373617575,143.5));
#1682=CARTESIAN_POINT('',(-8.61967376240046,1.11186430367429,162.));
#1683=CARTESIAN_POINT('',(-11.5095199552964,-2.86566774917014,162.));
#1684=CARTESIAN_POINT('',(-8.61967376240046,1.11186430367429,143.5));
#1685=CARTESIAN_POINT('Origin',(-8.61967376240046,1.11186430367429,143.5));
#1686=CARTESIAN_POINT('',(-5.5344874543516,-1.12965475594306,162.));
#1687=CARTESIAN_POINT('',(3.95588575486677,-8.02481449908292,144.));
#1688=CARTESIAN_POINT('Origin',(21.5417703437415,18.1199860501463,143.5));
#1689=CARTESIAN_POINT('',(10.9758362206227,27.3048124560134,162.));
#1690=CARTESIAN_POINT('',(21.5417703437415,18.1199860501463,162.));
#1691=CARTESIAN_POINT('',(19.8927299109548,19.5534750284906,162.));
#1692=CARTESIAN_POINT('',(10.9758362206227,27.3048124560134,144.428247722214));
#1693=CARTESIAN_POINT('',(10.9758362206227,27.3048124560134,143.5));
#1694=CARTESIAN_POINT('',(12.0332441857976,26.3856217354257,144.));
#1695=CARTESIAN_POINT('Ctrl Pts',(12.0332441857976,26.3856217354257,144.));
#1696=CARTESIAN_POINT('Ctrl Pts',(11.508415319872,26.841848508198,144.197325281121));
#1697=CARTESIAN_POINT('Ctrl Pts',(10.9758362206227,27.3048124560134,144.428247722214));
#1698=CARTESIAN_POINT('',(21.5417703437415,18.1199860501463,144.));
#1699=CARTESIAN_POINT('',(28.1517348929153,12.3740315301142,144.));
#1700=CARTESIAN_POINT('',(21.5417703437415,18.1199860501463,143.5));
#1701=CARTESIAN_POINT('Origin',(13.6690619958555,9.06347108747306,143.5));
#1702=CARTESIAN_POINT('',(13.6690619958555,9.06347108747306,162.));
#1703=CARTESIAN_POINT('',(13.6690619958555,9.06347108747306,143.5));
#1704=CARTESIAN_POINT('',(8.48357143071448,3.09824656539227,162.));
#1705=CARTESIAN_POINT('',(14.724566448754,10.2776900637687,144.));
#1706=CARTESIAN_POINT('Origin',(3.10312787273664,18.2482974933402,143.5));
#1707=CARTESIAN_POINT('',(3.10312787273664,18.2482974933402,162.));
#1708=CARTESIAN_POINT('',(3.10312787273664,18.2482974933402,143.5));
#1709=CARTESIAN_POINT('',(6.73705450150929,15.0893732687509,162.));
#1710=CARTESIAN_POINT('Origin',(10.9758362206227,27.3048124560134,143.5));
#1711=CARTESIAN_POINT('',(10.6782466535636,26.9624748197501,144.));
#1712=CARTESIAN_POINT('',(8.09498649957824,23.9907739509724,144.));
#1713=CARTESIAN_POINT('Ctrl Pts',(10.9758362206227,27.3048124560134,144.428247722214));
#1714=CARTESIAN_POINT('Ctrl Pts',(10.8259508511286,27.1323890622428,144.212363115107));
#1715=CARTESIAN_POINT('Ctrl Pts',(10.6782466535636,26.9624748197501,144.));
#1716=CARTESIAN_POINT('',(1.85399148153871,16.811330452596,162.));
#1717=CARTESIAN_POINT('Origin',(29.,0.,144.));
#1718=CARTESIAN_POINT('',(-29.,-3.55147571752732E-15,144.));
#1719=CARTESIAN_POINT('Origin',(0.,0.,144.));
#1720=CARTESIAN_POINT('Origin',(0.,0.,144.));
#1721=CARTESIAN_POINT('Origin',(-17.9980530712231,21.4492444073314,147.));
#1722=CARTESIAN_POINT('',(-22.2899441026882,22.9599301370679,153.12));
#1723=CARTESIAN_POINT('',(-18.7405090338735,25.938259794198,153.12));
#1724=CARTESIAN_POINT('Ctrl Pts',(-22.2899441026882,22.9599301370679,153.12));
#1725=CARTESIAN_POINT('Ctrl Pts',(-22.2494218311595,23.075054792266,153.065624535215));
#1726=CARTESIAN_POINT('Ctrl Pts',(-22.2038586795093,23.1896831010568,153.014555656904));
#1727=CARTESIAN_POINT('Ctrl Pts',(-22.0168657768945,23.6088024433188,152.839631951967));
#1728=CARTESIAN_POINT('Ctrl Pts',(-21.8430792747053,23.9063536605777,152.739152430916));
#1729=CARTESIAN_POINT('Ctrl Pts',(-21.4284665076772,24.4582103498396,152.604332051573));
#1730=CARTESIAN_POINT('Ctrl Pts',(-21.1876076611154,24.7124934937949,152.57));
#1731=CARTESIAN_POINT('Ctrl Pts',(-20.6578657294783,25.1569997532506,152.57));
#1732=CARTESIAN_POINT('Ctrl Pts',(-20.3656210180704,25.3500436081671,152.604332051573));
#1733=CARTESIAN_POINT('Ctrl Pts',(-19.7501515205018,25.6625285672106,152.739152430916));
#1734=CARTESIAN_POINT('Ctrl Pts',(-19.4269430654187,25.7820056352957,152.839631951967));
#1735=CARTESIAN_POINT('Ctrl Pts',(-18.981720110946,25.8933783855403,153.014555656904));
#1736=CARTESIAN_POINT('Ctrl Pts',(-18.8609213054814,25.9183443336065,153.065624535215));
#1737=CARTESIAN_POINT('Ctrl Pts',(-18.7405090338735,25.938259794198,153.12));
#1738=CARTESIAN_POINT('',(-22.2899441026882,22.9599301370679,155.28));
#1739=CARTESIAN_POINT('',(-22.2899441026882,22.9599301370678,147.));
#1740=CARTESIAN_POINT('',(-18.7405090338735,25.938259794198,155.28));
#1741=CARTESIAN_POINT('Ctrl Pts',(-18.7405090338735,25.938259794198,155.28));
#1742=CARTESIAN_POINT('Ctrl Pts',(-18.8609213054814,25.9183443336065,155.334375464785));
#1743=CARTESIAN_POINT('Ctrl Pts',(-18.981720110946,25.8933783855403,155.385444343096));
#1744=CARTESIAN_POINT('Ctrl Pts',(-19.4269430654187,25.7820056352957,155.560368048033));
#1745=CARTESIAN_POINT('Ctrl Pts',(-19.7501515205018,25.6625285672106,155.660847569084));
#1746=CARTESIAN_POINT('Ctrl Pts',(-20.3656210180704,25.3500436081671,155.795667948427));
#1747=CARTESIAN_POINT('Ctrl Pts',(-20.6578657294783,25.1569997532506,155.83));
#1748=CARTESIAN_POINT('Ctrl Pts',(-21.1876076611154,24.7124934937949,155.83));
#1749=CARTESIAN_POINT('Ctrl Pts',(-21.4284665076772,24.4582103498396,155.795667948427));
#1750=CARTESIAN_POINT('Ctrl Pts',(-21.8430792747053,23.9063536605777,155.660847569084));
#1751=CARTESIAN_POINT('Ctrl Pts',(-22.0168657768945,23.6088024433188,155.560368048033));
#1752=CARTESIAN_POINT('Ctrl Pts',(-22.2038586795093,23.1896831010568,155.385444343096));
#1753=CARTESIAN_POINT('Ctrl Pts',(-22.2494218311595,23.075054792266,155.334375464785));
#1754=CARTESIAN_POINT('Ctrl Pts',(-22.2899441026882,22.9599301370678,155.28));
#1755=CARTESIAN_POINT('',(-18.7405090338735,25.938259794198,147.));
#1756=CARTESIAN_POINT('Origin',(0.,0.,156.93));
#1757=CARTESIAN_POINT('',(-24.5134221798073,20.5692035099693,155.28));
#1758=CARTESIAN_POINT('Origin',(4.36118167165878E-15,-1.02097801576513E-14,
155.28));
#1759=CARTESIAN_POINT('',(-26.8115555091642,22.4975663390289,158.28));
#1760=CARTESIAN_POINT('',(-27.0413688420999,22.6904026219348,158.58));
#1761=CARTESIAN_POINT('',(0.610834225304934,34.9946693304737,158.28));
#1762=CARTESIAN_POINT('Origin',(0.,0.,158.28));
#1763=CARTESIAN_POINT('',(0.558477005993081,31.9951262450045,155.28));
#1764=CARTESIAN_POINT('',(0.587273476614604,33.6448749420126,156.93));
#1765=CARTESIAN_POINT('Origin',(4.36118167165878E-15,-1.02097801576513E-14,
155.28));
#1766=CARTESIAN_POINT('Origin',(0.,0.,152.8));
#1767=CARTESIAN_POINT('',(-24.5134221798073,20.5692035099693,153.12));
#1768=CARTESIAN_POINT('Origin',(4.36118167165878E-15,-1.02097801576513E-14,
153.12));
#1769=CARTESIAN_POINT('',(-24.5134221798073,20.5692035099693,155.28));
#1770=CARTESIAN_POINT('Origin',(-25.7773955109536,21.6298030659521,154.2));
#1771=CARTESIAN_POINT('',(-26.8115555091642,22.4975663390289,150.12));
#1772=CARTESIAN_POINT('',(-26.8115555091642,22.4975663390289,155.2));
#1773=CARTESIAN_POINT('',(-24.5134221798073,20.5692035099693,153.12));
#1774=CARTESIAN_POINT('Origin',(0.,0.,151.47));
#1775=CARTESIAN_POINT('',(0.558477005993081,31.9951262450045,153.12));
#1776=CARTESIAN_POINT('Origin',(4.36118167165878E-15,-1.02097801576513E-14,
153.12));
#1777=CARTESIAN_POINT('',(0.610834225304934,34.9946693304737,150.12));
#1778=CARTESIAN_POINT('',(0.587273476614604,33.6448749420126,151.47));
#1779=CARTESIAN_POINT('Origin',(0.,0.,150.12));
#1780=CARTESIAN_POINT('Origin',(0.582910375005283,33.3949130182235,154.2));
#1781=CARTESIAN_POINT('',(0.558477005993083,31.9951262450045,147.));
#1782=CARTESIAN_POINT('',(0.558477005993086,31.9951262450045,152.8));
#1783=CARTESIAN_POINT('',(0.575929412430365,32.9949739401609,147.));
#1784=CARTESIAN_POINT('',(0.575929412430365,32.9949739401609,147.));
#1785=CARTESIAN_POINT('',(0.610834225304935,34.9946693304737,149.));
#1786=CARTESIAN_POINT('',(0.610834225304935,34.9946693304737,149.));
#1787=CARTESIAN_POINT('',(0.610834225304935,34.9946693304737,161.4));
#1788=CARTESIAN_POINT('Origin',(0.582910375005283,33.3949130182235,154.2));
#1789=CARTESIAN_POINT('',(0.610834225304935,34.9946693304737,158.6));
#1790=CARTESIAN_POINT('',(0.610834225304935,34.9946693304737,161.4));
#1791=CARTESIAN_POINT('',(0.558477005993086,31.9951262450045,158.6));
#1792=CARTESIAN_POINT('',(0.302054797370377,17.3047077517353,158.6));
#1793=CARTESIAN_POINT('',(0.558477005993086,31.9951262450045,152.8));
#1794=CARTESIAN_POINT('Origin',(0.,0.,155.2));
#1795=CARTESIAN_POINT('',(-31.2129135361825,15.8352148259124,149.));
#1796=CARTESIAN_POINT('Origin',(-7.97104268418494E-17,-1.79016309031856E-14,
149.));
#1797=CARTESIAN_POINT('',(-31.2129135361825,15.8352148259124,158.6));
#1798=CARTESIAN_POINT('',(-31.2129135361825,15.8352148259124,161.4));
#1799=CARTESIAN_POINT('Origin',(0.,0.,158.6));
#1800=CARTESIAN_POINT('Origin',(-29.7860374888142,15.1113192910136,154.2));
#1801=CARTESIAN_POINT('',(-28.5375209473668,14.4779106979771,158.6));
#1802=CARTESIAN_POINT('',(-28.5375209473668,14.477910697977,147.));
#1803=CARTESIAN_POINT('',(-28.5375209473668,14.4779106979771,152.8));
#1804=CARTESIAN_POINT('',(12.7835198721796,-6.48544978579538,158.6));
#1805=CARTESIAN_POINT('',(-29.4293184769721,14.9303454072888,147.));
#1806=CARTESIAN_POINT('',(-31.2129135361825,15.8352148259124,149.));
#1807=CARTESIAN_POINT('',(-29.4293184769721,14.9303454072888,147.));
#1808=CARTESIAN_POINT('Origin',(0.575929412430365,32.9949739401609,147.));
#1809=CARTESIAN_POINT('Origin',(0.,0.,147.));
#1810=CARTESIAN_POINT('Origin',(-5.94966725733503E-16,-9.91229679478457E-15,
147.));
#1811=CARTESIAN_POINT('Origin',(0.,0.,148.));
#1812=CARTESIAN_POINT('Origin',(0.,0.,152.8));
#1813=CARTESIAN_POINT('',(26.806998931854,17.4752627524617,158.6));
#1814=CARTESIAN_POINT('Origin',(0.,0.,158.6));
#1815=CARTESIAN_POINT('',(26.806998931854,17.4752627524617,147.));
#1816=CARTESIAN_POINT('',(26.806998931854,17.4752627524617,152.8));
#1817=CARTESIAN_POINT('Origin',(0.,0.,147.));
#1818=CARTESIAN_POINT('Origin',(27.5746170843418,4.86214897467404,147.));
#1819=CARTESIAN_POINT('',(31.0288548191608,7.82369277332918,153.12));
#1820=CARTESIAN_POINT('',(31.8334464286727,3.26062700608725,153.12));
#1821=CARTESIAN_POINT('Ctrl Pts',(31.0288548191608,7.82369277332919,153.12));
#1822=CARTESIAN_POINT('Ctrl Pts',(31.1082945594,7.7310371291672,153.065624535215));
#1823=CARTESIAN_POINT('Ctrl Pts',(31.1847840109805,7.63426412796632,153.014555656904));
#1824=CARTESIAN_POINT('Ctrl Pts',(31.4542555572894,7.26276385284346,152.839631951967));
#1825=CARTESIAN_POINT('Ctrl Pts',(31.625049219268,6.96348471848337,152.739152430916));
#1826=CARTESIAN_POINT('Ctrl Pts',(31.8956647479032,6.32849118487271,152.604332051573));
#1827=CARTESIAN_POINT('Ctrl Pts',(31.9954509870417,5.99275973304628,152.57));
#1828=CARTESIAN_POINT('Ctrl Pts',(32.1155337340531,5.31173663307087,152.57));
#1829=CARTESIAN_POINT('Ctrl Pts',(32.1365922607512,4.96212336141176,152.604332051573));
#1830=CARTESIAN_POINT('Ctrl Pts',(32.0994774247991,4.27286866174111,152.739152430916));
#1831=CARTESIAN_POINT('Ctrl Pts',(32.041343373389,3.9332233948787,152.839631951967));
#1832=CARTESIAN_POINT('Ctrl Pts',(31.9151835271538,3.49196263083505,153.014555656904));
#1833=CARTESIAN_POINT('Ctrl Pts',(31.8764052696764,3.37486482252279,153.065624535215));
#1834=CARTESIAN_POINT('Ctrl Pts',(31.8334464286727,3.26062700608725,153.12));
#1835=CARTESIAN_POINT('',(31.0288548191608,7.82369277332918,155.28));
#1836=CARTESIAN_POINT('',(31.0288548191608,7.8236927733292,147.));
#1837=CARTESIAN_POINT('',(31.8334464286727,3.26062700608725,155.28));
#1838=CARTESIAN_POINT('Ctrl Pts',(31.8334464286727,3.26062700608724,155.28));
#1839=CARTESIAN_POINT('Ctrl Pts',(31.8764052696764,3.37486482252278,155.334375464785));
#1840=CARTESIAN_POINT('Ctrl Pts',(31.9151835271538,3.49196263083504,155.385444343096));
#1841=CARTESIAN_POINT('Ctrl Pts',(32.041343373389,3.9332233948787,155.560368048033));
#1842=CARTESIAN_POINT('Ctrl Pts',(32.0994774247991,4.27286866174111,155.660847569084));
#1843=CARTESIAN_POINT('Ctrl Pts',(32.1365922607512,4.96212336141176,155.795667948427));
#1844=CARTESIAN_POINT('Ctrl Pts',(32.1155337340531,5.31173663307087,155.83));
#1845=CARTESIAN_POINT('Ctrl Pts',(31.9954509870417,5.99275973304628,155.83));
#1846=CARTESIAN_POINT('Ctrl Pts',(31.8956647479032,6.32849118487272,155.795667948427));
#1847=CARTESIAN_POINT('Ctrl Pts',(31.625049219268,6.96348471848338,155.660847569084));
#1848=CARTESIAN_POINT('Ctrl Pts',(31.4542555572894,7.26276385284347,155.560368048033));
#1849=CARTESIAN_POINT('Ctrl Pts',(31.1847840109805,7.63426412796633,155.385444343096));
#1850=CARTESIAN_POINT('Ctrl Pts',(31.1082945593999,7.73103712916721,155.334375464785));
#1851=CARTESIAN_POINT('Ctrl Pts',(31.0288548191608,7.82369277332919,155.28));
#1852=CARTESIAN_POINT('',(31.8334464286727,3.26062700608723,147.));
#1853=CARTESIAN_POINT('Origin',(0.,0.,156.93));
#1854=CARTESIAN_POINT('',(30.0701638651491,10.9446445864214,155.28));
#1855=CARTESIAN_POINT('Origin',(-1.10225198194097E-14,1.32799596065007E-15,
155.28));
#1856=CARTESIAN_POINT('',(32.8892417275068,11.9707050163984,158.28));
#1857=CARTESIAN_POINT('',(33.1711495137426,12.0733110593961,158.58));
#1858=CARTESIAN_POINT('',(30.0008555245739,-18.0263326218519,158.28));
#1859=CARTESIAN_POINT('Origin',(0.,0.,158.28));
#1860=CARTESIAN_POINT('',(27.4293536224676,-16.4812183971217,155.28));
#1861=CARTESIAN_POINT('',(28.8436796686261,-17.3310312207233,156.93));
#1862=CARTESIAN_POINT('Origin',(-1.10225198194097E-14,1.32799596065007E-15,
155.28));
#1863=CARTESIAN_POINT('Origin',(0.,0.,152.8));
#1864=CARTESIAN_POINT('',(30.0701638651491,10.9446445864214,153.12));
#1865=CARTESIAN_POINT('Origin',(-1.10225198194097E-14,1.32799596065007E-15,
153.12));
#1866=CARTESIAN_POINT('',(30.0701638651491,10.9446445864214,155.28));
#1867=CARTESIAN_POINT('Origin',(31.6206566894458,11.5089778229088,154.2));
#1868=CARTESIAN_POINT('',(32.8892417275068,11.9707050163984,150.12));
#1869=CARTESIAN_POINT('',(32.8892417275068,11.9707050163984,155.2));
#1870=CARTESIAN_POINT('',(30.0701638651491,10.9446445864214,153.12));
#1871=CARTESIAN_POINT('Origin',(0.,0.,151.47));
#1872=CARTESIAN_POINT('',(27.4293536224676,-16.4812183971217,153.12));
#1873=CARTESIAN_POINT('Origin',(-1.10225198194097E-14,1.32799596065007E-15,
153.12));
#1874=CARTESIAN_POINT('',(30.0008555245739,-18.0263326218519,150.12));
#1875=CARTESIAN_POINT('',(28.8436796686261,-17.3310312207233,151.47));
#1876=CARTESIAN_POINT('Origin',(0.,0.,150.12));
#1877=CARTESIAN_POINT('Origin',(28.6293878434506,-17.2022717019958,154.2));
#1878=CARTESIAN_POINT('',(27.4293536224676,-16.4812183971217,147.));
#1879=CARTESIAN_POINT('',(27.4293536224676,-16.4812183971217,152.8));
#1880=CARTESIAN_POINT('',(28.2865209231697,-16.9962564720318,147.));
#1881=CARTESIAN_POINT('',(28.2865209231697,-16.9962564720318,147.));
#1882=CARTESIAN_POINT('',(30.0008555245739,-18.0263326218519,149.));
#1883=CARTESIAN_POINT('',(30.0008555245739,-18.0263326218519,149.));
#1884=CARTESIAN_POINT('',(30.0008555245739,-18.0263326218519,161.4));
#1885=CARTESIAN_POINT('Origin',(28.6293878434506,-17.2022717019958,154.2));
#1886=CARTESIAN_POINT('',(30.0008555245739,-18.0263326218519,158.6));
#1887=CARTESIAN_POINT('',(30.0008555245739,-18.0263326218519,161.4));
#1888=CARTESIAN_POINT('',(27.4293536224676,-16.4812183971217,158.6));
#1889=CARTESIAN_POINT('',(39.8834991141998,-23.9644239667432,158.6));
#1890=CARTESIAN_POINT('',(27.4293536224676,-16.4812183971217,152.8));
#1891=CARTESIAN_POINT('Origin',(0.,0.,155.2));
#1892=CARTESIAN_POINT('',(29.3201550817154,19.113568635505,149.));
#1893=CARTESIAN_POINT('Origin',(-1.54634119179103E-14,9.01984670618433E-15,
149.));
#1894=CARTESIAN_POINT('',(29.3201550817154,19.113568635505,158.6));
#1895=CARTESIAN_POINT('',(29.3201550817154,19.113568635505,161.4));
#1896=CARTESIAN_POINT('Origin',(0.,0.,158.6));
#1897=CARTESIAN_POINT('Origin',(27.9798051351227,18.2398054978819,154.2));
#1898=CARTESIAN_POINT('',(38.4115907240929,25.0402009695279,158.6));
#1899=CARTESIAN_POINT('',(27.6447176484745,18.0213647134762,147.));
#1900=CARTESIAN_POINT('',(29.3201550817154,19.113568635505,149.));
#1901=CARTESIAN_POINT('',(27.6447176484745,18.0213647134762,147.));
#1902=CARTESIAN_POINT('Origin',(28.2865209231697,-16.9962564720318,147.));
#1903=CARTESIAN_POINT('Origin',(0.,0.,147.));
#1904=CARTESIAN_POINT('Origin',(-8.28681747126775E-15,5.47140469628394E-15,
147.));
#1905=CARTESIAN_POINT('Origin',(0.,0.,148.));
#1906=CARTESIAN_POINT('Origin',(0.,0.,152.8));
#1907=CARTESIAN_POINT('',(1.73052201551282,-31.9531734504388,158.6));
#1908=CARTESIAN_POINT('Origin',(0.,0.,158.6));
#1909=CARTESIAN_POINT('',(1.73052201551282,-31.9531734504388,147.));
#1910=CARTESIAN_POINT('',(1.73052201551282,-31.9531734504388,152.8));
#1911=CARTESIAN_POINT('Origin',(0.,0.,147.));
#1912=CARTESIAN_POINT('Origin',(-9.57656401311872,-26.3113933820054,147.));
#1913=CARTESIAN_POINT('',(-8.73891071647258,-30.783622910397,153.12));
#1914=CARTESIAN_POINT('',(-13.0929373947992,-29.1988868002852,153.12));
#1915=CARTESIAN_POINT('Ctrl Pts',(-8.73891071647258,-30.783622910397,153.12));
#1916=CARTESIAN_POINT('Ctrl Pts',(-8.85887272824045,-30.8060919214332,153.065624535215));
#1917=CARTESIAN_POINT('Ctrl Pts',(-8.98092533147117,-30.8239472290231,153.014555656904));
#1918=CARTESIAN_POINT('Ctrl Pts',(-9.43738978039493,-30.8715662961622,152.839631951967));
#1919=CARTESIAN_POINT('Ctrl Pts',(-9.78196994456268,-30.869838379061,152.739152430916));
#1920=CARTESIAN_POINT('Ctrl Pts',(-10.4671982402259,-30.7867015347123,152.604332051573));
#1921=CARTESIAN_POINT('Ctrl Pts',(-10.8078433259263,-30.7052532268411,152.57));
#1922=CARTESIAN_POINT('Ctrl Pts',(-11.4576680045747,-30.4687363863215,152.57));
#1923=CARTESIAN_POINT('Ctrl Pts',(-11.7709712426808,-30.3121669695788,152.604332051573));
#1924=CARTESIAN_POINT('Ctrl Pts',(-12.3493259042973,-29.9353972289517,152.739152430916));
#1925=CARTESIAN_POINT('Ctrl Pts',(-12.6144003079703,-29.7152290301744,152.839631951967));
#1926=CARTESIAN_POINT('Ctrl Pts',(-12.9334634162078,-29.3853410163754,153.014555656904));
#1927=CARTESIAN_POINT('Ctrl Pts',(-13.015483964195,-29.2932091561293,153.065624535215));
#1928=CARTESIAN_POINT('Ctrl Pts',(-13.0929373947992,-29.1988868002852,153.12));
#1929=CARTESIAN_POINT('',(-8.73891071647258,-30.783622910397,155.28));
#1930=CARTESIAN_POINT('',(-8.73891071647255,-30.783622910397,147.));
#1931=CARTESIAN_POINT('',(-13.0929373947992,-29.1988868002852,155.28));
#1932=CARTESIAN_POINT('Ctrl Pts',(-13.0929373947992,-29.1988868002852,155.28));
#1933=CARTESIAN_POINT('Ctrl Pts',(-13.015483964195,-29.2932091561293,155.334375464785));
#1934=CARTESIAN_POINT('Ctrl Pts',(-12.9334634162078,-29.3853410163754,155.385444343096));
#1935=CARTESIAN_POINT('Ctrl Pts',(-12.6144003079703,-29.7152290301744,155.560368048033));
#1936=CARTESIAN_POINT('Ctrl Pts',(-12.3493259042973,-29.9353972289517,155.660847569084));
#1937=CARTESIAN_POINT('Ctrl Pts',(-11.7709712426808,-30.3121669695788,155.795667948427));
#1938=CARTESIAN_POINT('Ctrl Pts',(-11.4576680045747,-30.4687363863215,155.83));
#1939=CARTESIAN_POINT('Ctrl Pts',(-10.8078433259263,-30.7052532268411,155.83));
#1940=CARTESIAN_POINT('Ctrl Pts',(-10.4671982402259,-30.7867015347123,155.795667948427));
#1941=CARTESIAN_POINT('Ctrl Pts',(-9.78196994456269,-30.869838379061,155.660847569084));
#1942=CARTESIAN_POINT('Ctrl Pts',(-9.43738978039493,-30.8715662961622,155.560368048033));
#1943=CARTESIAN_POINT('Ctrl Pts',(-8.98092533147116,-30.8239472290231,155.385444343096));
#1944=CARTESIAN_POINT('Ctrl Pts',(-8.85887272824044,-30.8060919214332,155.334375464785));
#1945=CARTESIAN_POINT('Ctrl Pts',(-8.73891071647257,-30.783622910397,155.28));
#1946=CARTESIAN_POINT('',(-13.0929373947992,-29.1988868002852,147.));
#1947=CARTESIAN_POINT('Origin',(0.,0.,156.93));
#1948=CARTESIAN_POINT('',(-5.55674168534176,-31.5138480963907,155.28));
#1949=CARTESIAN_POINT('Origin',(6.66133814775094E-15,8.88178419700125E-15,
155.28));
#1950=CARTESIAN_POINT('',(-6.07768621834255,-34.4682713554273,158.28));
#1951=CARTESIAN_POINT('',(-6.12978067164263,-34.7637136813309,158.58));
#1952=CARTESIAN_POINT('',(-30.6116897498788,-16.9683367086218,158.28));
#1953=CARTESIAN_POINT('Origin',(0.,0.,158.28));
#1954=CARTESIAN_POINT('',(-27.9878306284607,-15.5139078478828,155.28));
#1955=CARTESIAN_POINT('',(-29.4309531452407,-16.3138437212892,156.93));
#1956=CARTESIAN_POINT('Origin',(6.66133814775094E-15,8.88178419700125E-15,
155.28));
#1957=CARTESIAN_POINT('Origin',(0.,0.,152.8));
#1958=CARTESIAN_POINT('',(-5.55674168534176,-31.5138480963907,153.12));
#1959=CARTESIAN_POINT('Origin',(6.66133814775094E-15,8.88178419700125E-15,
153.12));
#1960=CARTESIAN_POINT('',(-5.55674168534176,-31.5138480963907,155.28));
#1961=CARTESIAN_POINT('Origin',(-5.8432611784922,-33.1387808888608,154.2));
#1962=CARTESIAN_POINT('',(-6.07768621834255,-34.4682713554273,150.12));
#1963=CARTESIAN_POINT('',(-6.07768621834255,-34.4682713554273,155.2));
#1964=CARTESIAN_POINT('',(-5.55674168534176,-31.5138480963907,153.12));
#1965=CARTESIAN_POINT('Origin',(0.,0.,151.47));
#1966=CARTESIAN_POINT('',(-27.9878306284607,-15.5139078478828,153.12));
#1967=CARTESIAN_POINT('Origin',(6.66133814775094E-15,8.88178419700125E-15,
153.12));
#1968=CARTESIAN_POINT('',(-30.6116897498788,-16.9683367086218,150.12));
#1969=CARTESIAN_POINT('',(-29.4309531452407,-16.3138437212892,151.47));
#1970=CARTESIAN_POINT('Origin',(0.,0.,150.12));
#1971=CARTESIAN_POINT('Origin',(-29.2122982184558,-16.1926413162277,154.2));
#1972=CARTESIAN_POINT('',(-27.9878306284607,-15.5139078478828,147.));
#1973=CARTESIAN_POINT('',(-27.9878306284607,-15.5139078478828,152.8));
#1974=CARTESIAN_POINT('',(-28.8624503356001,-15.9987174681291,147.));
#1975=CARTESIAN_POINT('',(-28.8624503356001,-15.9987174681291,147.));
#1976=CARTESIAN_POINT('',(-30.6116897498788,-16.9683367086218,149.));
#1977=CARTESIAN_POINT('',(-30.6116897498788,-16.9683367086218,149.));
#1978=CARTESIAN_POINT('',(-30.6116897498788,-16.9683367086218,161.4));
#1979=CARTESIAN_POINT('Origin',(-29.2122982184558,-16.1926413162277,154.2));
#1980=CARTESIAN_POINT('',(-30.6116897498788,-16.9683367086218,158.6));
#1981=CARTESIAN_POINT('',(-30.6116897498788,-16.9683367086218,161.4));
#1982=CARTESIAN_POINT('',(-27.9878306284607,-15.5139078478828,158.6));
#1983=CARTESIAN_POINT('',(12.0144460884298,6.65971621500798,158.6));
#1984=CARTESIAN_POINT('',(-27.9878306284607,-15.5139078478828,152.8));
#1985=CARTESIAN_POINT('Origin',(0.,0.,155.2));
#1986=CARTESIAN_POINT('',(1.89275845446715,-34.9487834614174,149.));
#1987=CARTESIAN_POINT('Origin',(1.55431223447522E-14,8.88178419700125E-15,
149.));
#1988=CARTESIAN_POINT('',(1.89275845446715,-34.9487834614174,158.6));
#1989=CARTESIAN_POINT('',(1.89275845446715,-34.9487834614174,161.4));
#1990=CARTESIAN_POINT('Origin',(0.,0.,158.6));
#1991=CARTESIAN_POINT('Origin',(1.80623235369151,-33.3511247888955,154.2));
#1992=CARTESIAN_POINT('',(1.00488940372746,-18.5547511837325,158.6));
#1993=CARTESIAN_POINT('',(1.7846008284976,-32.951710120765,147.));
#1994=CARTESIAN_POINT('',(1.89275845446715,-34.9487834614174,149.));
#1995=CARTESIAN_POINT('',(1.7846008284976,-32.951710120765,147.));
#1996=CARTESIAN_POINT('Origin',(-28.8624503356001,-15.9987174681291,147.));
#1997=CARTESIAN_POINT('Origin',(0.,0.,147.));
#1998=CARTESIAN_POINT('Origin',(8.88178419700125E-15,4.44089209850063E-15,
147.));
#1999=CARTESIAN_POINT('Origin',(0.,0.,148.));
#2000=CARTESIAN_POINT('Origin',(0.,0.,145.5));
#2001=CARTESIAN_POINT('',(-32.,-3.91886975727153E-15,147.));
#2002=CARTESIAN_POINT('Origin',(0.,0.,147.));
#2003=CARTESIAN_POINT('',(-30.5,-3.73517273739943E-15,145.5));
#2004=CARTESIAN_POINT('Origin',(0.,0.,147.));
#2005=CARTESIAN_POINT('Origin',(0.,0.,152.8));
#2006=CARTESIAN_POINT('Origin',(0.,0.,158.6));
#2007=CARTESIAN_POINT('Origin',(69.6,0.,158.6));
#2008=CARTESIAN_POINT('',(-69.6,-8.52354172206558E-15,158.6));
#2009=CARTESIAN_POINT('Origin',(0.,0.,158.6));
#2010=CARTESIAN_POINT('Origin',(0.,0.,159.6));
#2011=CARTESIAN_POINT('',(-71.6,-8.76847108189505E-15,160.6));
#2012=CARTESIAN_POINT('Origin',(0.,0.,160.6));
#2013=CARTESIAN_POINT('',(-70.6,-8.64600640198031E-15,159.6));
#2014=CARTESIAN_POINT('Origin',(0.,0.,161.3));
#2015=CARTESIAN_POINT('',(-71.6,-8.76847108189505E-15,162.));
#2016=CARTESIAN_POINT('Origin',(0.,0.,162.));
#2017=CARTESIAN_POINT('',(-71.6,-8.76847108189505E-15,161.3));
#2018=CARTESIAN_POINT('Origin',(0.,0.,162.));
#2019=UNCERTAINTY_MEASURE_WITH_UNIT(LENGTH_MEASURE(0.01),#2023,
'DISTANCE_ACCURACY_VALUE',
'Maximum model space distance between geometric entities at asserted c
onnectivities');
#2020=UNCERTAINTY_MEASURE_WITH_UNIT(LENGTH_MEASURE(0.01),#2023,
'DISTANCE_ACCURACY_VALUE',
'Maximum model space distance between geometric entities at asserted c
onnectivities');
#2021=(
GEOMETRIC_REPRESENTATION_CONTEXT(3)
GLOBAL_UNCERTAINTY_ASSIGNED_CONTEXT((#2019))
GLOBAL_UNIT_ASSIGNED_CONTEXT((#2023,#2025,#2026))
REPRESENTATION_CONTEXT('','3D')
);
#2022=(
GEOMETRIC_REPRESENTATION_CONTEXT(3)
GLOBAL_UNCERTAINTY_ASSIGNED_CONTEXT((#2020))
GLOBAL_UNIT_ASSIGNED_CONTEXT((#2023,#2025,#2026))
REPRESENTATION_CONTEXT('','3D')
);
#2023=(
LENGTH_UNIT()
NAMED_UNIT(*)
SI_UNIT(.MILLI.,.METRE.)
);
#2024=(
LENGTH_UNIT()
NAMED_UNIT(*)
SI_UNIT($,.METRE.)
);
#2025=(
NAMED_UNIT(*)
PLANE_ANGLE_UNIT()
SI_UNIT($,.RADIAN.)
);
#2026=(
NAMED_UNIT(*)
SI_UNIT($,.STERADIAN.)
SOLID_ANGLE_UNIT()
);
#2027=SHAPE_DEFINITION_REPRESENTATION(#2028,#2029);
#2028=PRODUCT_DEFINITION_SHAPE('',$,#2031);
#2029=SHAPE_REPRESENTATION('',(#1174),#2021);
#2030=PRODUCT_DEFINITION_CONTEXT('part definition',#2035,'design');
#2031=PRODUCT_DEFINITION('Coperchio parametrico',
'Coperchio parametrico',#2032,#2030);
#2032=PRODUCT_DEFINITION_FORMATION('',$,#2037);
#2033=PRODUCT_RELATED_PRODUCT_CATEGORY('Coperchio parametrico',
'Coperchio parametrico',(#2037));
#2034=APPLICATION_PROTOCOL_DEFINITION('international standard',
'automotive_design',2009,#2035);
#2035=APPLICATION_CONTEXT(
'Core Data for Automotive Mechanical Design Process');
#2036=PRODUCT_CONTEXT('part definition',#2035,'mechanical');
#2037=PRODUCT('Coperchio parametrico','Coperchio parametrico',$,(#2036));
#2038=PRESENTATION_STYLE_ASSIGNMENT((#2040));
#2039=PRESENTATION_STYLE_ASSIGNMENT((#2041));
#2040=SURFACE_STYLE_USAGE(.BOTH.,#2042);
#2041=SURFACE_STYLE_USAGE(.BOTH.,#2043);
#2042=SURFACE_SIDE_STYLE('',(#2044));
#2043=SURFACE_SIDE_STYLE('',(#2045));
#2044=SURFACE_STYLE_FILL_AREA(#2046);
#2045=SURFACE_STYLE_FILL_AREA(#2047);
#2046=FILL_AREA_STYLE('Acciaio - Satinato',(#2048));
#2047=FILL_AREA_STYLE('PLA verde bambu opaco',(#2049));
#2048=FILL_AREA_STYLE_COLOUR('Acciaio - Satinato',#2050);
#2049=FILL_AREA_STYLE_COLOUR('PLA verde bambu opaco',#2051);
#2050=COLOUR_RGB('Acciaio - Satinato',0.627450980392157,0.627450980392157,
0.627450980392157);
#2051=COLOUR_RGB('PLA verde bambu opaco',0.376470588235294,0.658823529411765,
0.282352941176471);
ENDSEC;
END-ISO-10303-21;
