M48
; DRILL file {KiCad 9.0.1} date 2026-09-30T11:34:02+0200
; FORMAT={-:-/ absolute / metric / decimal}
; #@! TF.CreationDate,2026-09-30T11:34:02+02:00
; #@! TF.GenerationSoftware,Kicad,Pcbnew,9.0.1
; #@! TF.FileFunction,MixedPlating,1,2
FMAT,2
METRIC
; #@! TA.AperFunction,Plated,PTH,ComponentDrill
T1C0.200
; #@! TA.AperFunction,Plated,PTH,ViaDrill
T2C0.300
; #@! TA.AperFunction,Plated,PTH,ComponentDrill
T3C0.800
; #@! TA.AperFunction,Plated,PTH,ComponentDrill
T4C1.000
; #@! TA.AperFunction,NonPlated,NPTH,ComponentDrill
T5C2.100
%
G90
G05
T1
X154.4Y-49.232
X154.4Y-50.632
X155.1Y-48.532
X155.1Y-49.932
X155.1Y-51.332
X155.8Y-49.232
X155.8Y-50.632
X156.5Y-48.532
X156.5Y-49.932
X156.5Y-51.332
X157.2Y-49.232
X157.2Y-50.632
T2
X131.3Y-76.475
X132.6Y-58.2
X133.0Y-67.5
X133.0Y-70.5
X133.0Y-73.5
X134.0Y-53.3
X136.0Y-67.5
X136.0Y-70.5
X136.0Y-73.5
X137.7Y-49.4
X138.0Y-77.5
X138.8Y-48.6
X139.0Y-67.5
X139.0Y-70.5
X139.0Y-73.5
X142.5Y-46.1
X144.4Y-60.26
X144.9Y-58.5
X145.575Y-36.825
X146.6Y-51.9
X147.1Y-44.9
X147.2Y-42.0
X147.3Y-62.48
X148.45Y-73.43
X148.7Y-61.3
X149.0Y-39.35
X149.5Y-67.4
X150.4Y-59.6
X151.3Y-69.7
X152.575Y-36.825
X152.85Y-61.2
X153.9Y-61.3
X155.4Y-66.2
X155.6Y-68.6
X157.8Y-69.3
X159.9Y-65.2
X160.2Y-38.97
X160.9Y-61.3
X166.05Y-41.2
X166.05Y-60.0
T3
X156.4Y-75.782
X156.4Y-78.322
X156.4Y-80.862
T4
X131.78Y-42.782
X134.32Y-42.782
X136.86Y-42.782
X139.4Y-42.782
X141.94Y-42.782
X144.48Y-42.782
X156.4Y-90.282
X156.4Y-95.282
T5
X131.4Y-37.882
X131.4Y-101.432
X165.2Y-37.882
X165.2Y-101.432
T4
X140.3Y-89.382G85X142.9Y-89.382
G05
X140.5Y-95.682G85X142.7Y-95.682
G05
X146.4Y-91.182G85X146.4Y-93.382
G05
M30
