%TF.GenerationSoftware,KiCad,Pcbnew,9.0.1*%
%TF.CreationDate,2026-09-30T11:34:00+02:00*%
%TF.ProjectId,BaseChipOnly,42617365-4368-4697-904f-6e6c792e6b69,rev?*%
%TF.SameCoordinates,Original*%
%TF.FileFunction,Legend,Top*%
%TF.FilePolarity,Positive*%
%FSLAX46Y46*%
G04 Gerber Fmt 4.6, Leading zero omitted, Abs format (unit mm)*
G04 Created by KiCad (PCBNEW 9.0.1) date 2026-09-30 11:34:00*
%MOMM*%
%LPD*%
G01*
G04 APERTURE LIST*
%ADD10C,0.100000*%
%ADD11C,0.125000*%
%ADD12C,0.150000*%
%ADD13C,0.250000*%
%ADD14C,0.120000*%
%ADD15C,0.200000*%
%ADD16C,0.127000*%
G04 APERTURE END LIST*
D10*
X128865000Y-35357323D02*
X167715000Y-35357323D01*
X167715000Y-103957323D01*
X128865000Y-103957323D01*
X128865000Y-35357323D01*
D11*
X136029855Y-40714632D02*
X136315569Y-40714632D01*
X136172712Y-41214632D02*
X136172712Y-40714632D01*
X136434616Y-40714632D02*
X136767949Y-41214632D01*
X136767949Y-40714632D02*
X136434616Y-41214632D01*
X137053663Y-40714632D02*
X137101282Y-40714632D01*
X137101282Y-40714632D02*
X137148901Y-40738442D01*
X137148901Y-40738442D02*
X137172711Y-40762251D01*
X137172711Y-40762251D02*
X137196520Y-40809870D01*
X137196520Y-40809870D02*
X137220330Y-40905108D01*
X137220330Y-40905108D02*
X137220330Y-41024156D01*
X137220330Y-41024156D02*
X137196520Y-41119394D01*
X137196520Y-41119394D02*
X137172711Y-41167013D01*
X137172711Y-41167013D02*
X137148901Y-41190823D01*
X137148901Y-41190823D02*
X137101282Y-41214632D01*
X137101282Y-41214632D02*
X137053663Y-41214632D01*
X137053663Y-41214632D02*
X137006044Y-41190823D01*
X137006044Y-41190823D02*
X136982235Y-41167013D01*
X136982235Y-41167013D02*
X136958425Y-41119394D01*
X136958425Y-41119394D02*
X136934616Y-41024156D01*
X136934616Y-41024156D02*
X136934616Y-40905108D01*
X136934616Y-40905108D02*
X136958425Y-40809870D01*
X136958425Y-40809870D02*
X136982235Y-40762251D01*
X136982235Y-40762251D02*
X137006044Y-40738442D01*
X137006044Y-40738442D02*
X137053663Y-40714632D01*
X141601283Y-41164632D02*
X141601283Y-40664632D01*
X141601283Y-40664632D02*
X141720331Y-40664632D01*
X141720331Y-40664632D02*
X141791759Y-40688442D01*
X141791759Y-40688442D02*
X141839378Y-40736061D01*
X141839378Y-40736061D02*
X141863188Y-40783680D01*
X141863188Y-40783680D02*
X141886997Y-40878918D01*
X141886997Y-40878918D02*
X141886997Y-40950346D01*
X141886997Y-40950346D02*
X141863188Y-41045584D01*
X141863188Y-41045584D02*
X141839378Y-41093203D01*
X141839378Y-41093203D02*
X141791759Y-41140823D01*
X141791759Y-41140823D02*
X141720331Y-41164632D01*
X141720331Y-41164632D02*
X141601283Y-41164632D01*
X142029855Y-40664632D02*
X142315569Y-40664632D01*
X142172712Y-41164632D02*
X142172712Y-40664632D01*
X142767949Y-41164632D02*
X142601283Y-40926537D01*
X142482235Y-41164632D02*
X142482235Y-40664632D01*
X142482235Y-40664632D02*
X142672711Y-40664632D01*
X142672711Y-40664632D02*
X142720330Y-40688442D01*
X142720330Y-40688442D02*
X142744140Y-40712251D01*
X142744140Y-40712251D02*
X142767949Y-40759870D01*
X142767949Y-40759870D02*
X142767949Y-40831299D01*
X142767949Y-40831299D02*
X142744140Y-40878918D01*
X142744140Y-40878918D02*
X142720330Y-40902727D01*
X142720330Y-40902727D02*
X142672711Y-40926537D01*
X142672711Y-40926537D02*
X142482235Y-40926537D01*
X131363188Y-40738442D02*
X131315569Y-40714632D01*
X131315569Y-40714632D02*
X131244140Y-40714632D01*
X131244140Y-40714632D02*
X131172712Y-40738442D01*
X131172712Y-40738442D02*
X131125093Y-40786061D01*
X131125093Y-40786061D02*
X131101283Y-40833680D01*
X131101283Y-40833680D02*
X131077474Y-40928918D01*
X131077474Y-40928918D02*
X131077474Y-41000346D01*
X131077474Y-41000346D02*
X131101283Y-41095584D01*
X131101283Y-41095584D02*
X131125093Y-41143203D01*
X131125093Y-41143203D02*
X131172712Y-41190823D01*
X131172712Y-41190823D02*
X131244140Y-41214632D01*
X131244140Y-41214632D02*
X131291759Y-41214632D01*
X131291759Y-41214632D02*
X131363188Y-41190823D01*
X131363188Y-41190823D02*
X131386997Y-41167013D01*
X131386997Y-41167013D02*
X131386997Y-41000346D01*
X131386997Y-41000346D02*
X131291759Y-41000346D01*
X131601283Y-41214632D02*
X131601283Y-40714632D01*
X131601283Y-40714632D02*
X131886997Y-41214632D01*
X131886997Y-41214632D02*
X131886997Y-40714632D01*
X132125093Y-41214632D02*
X132125093Y-40714632D01*
X132125093Y-40714632D02*
X132244141Y-40714632D01*
X132244141Y-40714632D02*
X132315569Y-40738442D01*
X132315569Y-40738442D02*
X132363188Y-40786061D01*
X132363188Y-40786061D02*
X132386998Y-40833680D01*
X132386998Y-40833680D02*
X132410807Y-40928918D01*
X132410807Y-40928918D02*
X132410807Y-41000346D01*
X132410807Y-41000346D02*
X132386998Y-41095584D01*
X132386998Y-41095584D02*
X132363188Y-41143203D01*
X132363188Y-41143203D02*
X132315569Y-41190823D01*
X132315569Y-41190823D02*
X132244141Y-41214632D01*
X132244141Y-41214632D02*
X132125093Y-41214632D01*
X138886997Y-41214632D02*
X138720331Y-40976537D01*
X138601283Y-41214632D02*
X138601283Y-40714632D01*
X138601283Y-40714632D02*
X138791759Y-40714632D01*
X138791759Y-40714632D02*
X138839378Y-40738442D01*
X138839378Y-40738442D02*
X138863188Y-40762251D01*
X138863188Y-40762251D02*
X138886997Y-40809870D01*
X138886997Y-40809870D02*
X138886997Y-40881299D01*
X138886997Y-40881299D02*
X138863188Y-40928918D01*
X138863188Y-40928918D02*
X138839378Y-40952727D01*
X138839378Y-40952727D02*
X138791759Y-40976537D01*
X138791759Y-40976537D02*
X138601283Y-40976537D01*
X139053664Y-40714632D02*
X139386997Y-41214632D01*
X139386997Y-40714632D02*
X139053664Y-41214632D01*
X139672711Y-40714632D02*
X139720330Y-40714632D01*
X139720330Y-40714632D02*
X139767949Y-40738442D01*
X139767949Y-40738442D02*
X139791759Y-40762251D01*
X139791759Y-40762251D02*
X139815568Y-40809870D01*
X139815568Y-40809870D02*
X139839378Y-40905108D01*
X139839378Y-40905108D02*
X139839378Y-41024156D01*
X139839378Y-41024156D02*
X139815568Y-41119394D01*
X139815568Y-41119394D02*
X139791759Y-41167013D01*
X139791759Y-41167013D02*
X139767949Y-41190823D01*
X139767949Y-41190823D02*
X139720330Y-41214632D01*
X139720330Y-41214632D02*
X139672711Y-41214632D01*
X139672711Y-41214632D02*
X139625092Y-41190823D01*
X139625092Y-41190823D02*
X139601283Y-41167013D01*
X139601283Y-41167013D02*
X139577473Y-41119394D01*
X139577473Y-41119394D02*
X139553664Y-41024156D01*
X139553664Y-41024156D02*
X139553664Y-40905108D01*
X139553664Y-40905108D02*
X139577473Y-40809870D01*
X139577473Y-40809870D02*
X139601283Y-40762251D01*
X139601283Y-40762251D02*
X139625092Y-40738442D01*
X139625092Y-40738442D02*
X139672711Y-40714632D01*
D12*
X158761904Y-80434761D02*
X158666666Y-80387142D01*
X158666666Y-80387142D02*
X158523809Y-80387142D01*
X158523809Y-80387142D02*
X158380952Y-80434761D01*
X158380952Y-80434761D02*
X158285714Y-80529999D01*
X158285714Y-80529999D02*
X158238095Y-80625237D01*
X158238095Y-80625237D02*
X158190476Y-80815713D01*
X158190476Y-80815713D02*
X158190476Y-80958570D01*
X158190476Y-80958570D02*
X158238095Y-81149046D01*
X158238095Y-81149046D02*
X158285714Y-81244284D01*
X158285714Y-81244284D02*
X158380952Y-81339523D01*
X158380952Y-81339523D02*
X158523809Y-81387142D01*
X158523809Y-81387142D02*
X158619047Y-81387142D01*
X158619047Y-81387142D02*
X158761904Y-81339523D01*
X158761904Y-81339523D02*
X158809523Y-81291903D01*
X158809523Y-81291903D02*
X158809523Y-80958570D01*
X158809523Y-80958570D02*
X158619047Y-80958570D01*
D11*
X133553664Y-40714632D02*
X133863188Y-40714632D01*
X133863188Y-40714632D02*
X133696521Y-40905108D01*
X133696521Y-40905108D02*
X133767950Y-40905108D01*
X133767950Y-40905108D02*
X133815569Y-40928918D01*
X133815569Y-40928918D02*
X133839378Y-40952727D01*
X133839378Y-40952727D02*
X133863188Y-41000346D01*
X133863188Y-41000346D02*
X133863188Y-41119394D01*
X133863188Y-41119394D02*
X133839378Y-41167013D01*
X133839378Y-41167013D02*
X133815569Y-41190823D01*
X133815569Y-41190823D02*
X133767950Y-41214632D01*
X133767950Y-41214632D02*
X133625093Y-41214632D01*
X133625093Y-41214632D02*
X133577474Y-41190823D01*
X133577474Y-41190823D02*
X133553664Y-41167013D01*
X134029854Y-40881299D02*
X134148902Y-41214632D01*
X134148902Y-41214632D02*
X134267949Y-40881299D01*
X134410806Y-40714632D02*
X134720330Y-40714632D01*
X134720330Y-40714632D02*
X134553663Y-40905108D01*
X134553663Y-40905108D02*
X134625092Y-40905108D01*
X134625092Y-40905108D02*
X134672711Y-40928918D01*
X134672711Y-40928918D02*
X134696520Y-40952727D01*
X134696520Y-40952727D02*
X134720330Y-41000346D01*
X134720330Y-41000346D02*
X134720330Y-41119394D01*
X134720330Y-41119394D02*
X134696520Y-41167013D01*
X134696520Y-41167013D02*
X134672711Y-41190823D01*
X134672711Y-41190823D02*
X134625092Y-41214632D01*
X134625092Y-41214632D02*
X134482235Y-41214632D01*
X134482235Y-41214632D02*
X134434616Y-41190823D01*
X134434616Y-41190823D02*
X134410806Y-41167013D01*
D12*
X158216667Y-77837142D02*
X158550000Y-78837142D01*
X158550000Y-78837142D02*
X158883333Y-77837142D01*
D11*
X144386997Y-41214632D02*
X144220331Y-40976537D01*
X144101283Y-41214632D02*
X144101283Y-40714632D01*
X144101283Y-40714632D02*
X144291759Y-40714632D01*
X144291759Y-40714632D02*
X144339378Y-40738442D01*
X144339378Y-40738442D02*
X144363188Y-40762251D01*
X144363188Y-40762251D02*
X144386997Y-40809870D01*
X144386997Y-40809870D02*
X144386997Y-40881299D01*
X144386997Y-40881299D02*
X144363188Y-40928918D01*
X144363188Y-40928918D02*
X144339378Y-40952727D01*
X144339378Y-40952727D02*
X144291759Y-40976537D01*
X144291759Y-40976537D02*
X144101283Y-40976537D01*
X144529855Y-40714632D02*
X144815569Y-40714632D01*
X144672712Y-41214632D02*
X144672712Y-40714632D01*
X144958426Y-41190823D02*
X145029854Y-41214632D01*
X145029854Y-41214632D02*
X145148902Y-41214632D01*
X145148902Y-41214632D02*
X145196521Y-41190823D01*
X145196521Y-41190823D02*
X145220330Y-41167013D01*
X145220330Y-41167013D02*
X145244140Y-41119394D01*
X145244140Y-41119394D02*
X145244140Y-41071775D01*
X145244140Y-41071775D02*
X145220330Y-41024156D01*
X145220330Y-41024156D02*
X145196521Y-41000346D01*
X145196521Y-41000346D02*
X145148902Y-40976537D01*
X145148902Y-40976537D02*
X145053664Y-40952727D01*
X145053664Y-40952727D02*
X145006045Y-40928918D01*
X145006045Y-40928918D02*
X144982235Y-40905108D01*
X144982235Y-40905108D02*
X144958426Y-40857489D01*
X144958426Y-40857489D02*
X144958426Y-40809870D01*
X144958426Y-40809870D02*
X144982235Y-40762251D01*
X144982235Y-40762251D02*
X145006045Y-40738442D01*
X145006045Y-40738442D02*
X145053664Y-40714632D01*
X145053664Y-40714632D02*
X145172711Y-40714632D01*
X145172711Y-40714632D02*
X145244140Y-40738442D01*
D12*
X142147618Y-38354819D02*
X141814285Y-37878628D01*
X141576190Y-38354819D02*
X141576190Y-37354819D01*
X141576190Y-37354819D02*
X141957142Y-37354819D01*
X141957142Y-37354819D02*
X142052380Y-37402438D01*
X142052380Y-37402438D02*
X142099999Y-37450057D01*
X142099999Y-37450057D02*
X142147618Y-37545295D01*
X142147618Y-37545295D02*
X142147618Y-37688152D01*
X142147618Y-37688152D02*
X142099999Y-37783390D01*
X142099999Y-37783390D02*
X142052380Y-37831009D01*
X142052380Y-37831009D02*
X141957142Y-37878628D01*
X141957142Y-37878628D02*
X141576190Y-37878628D01*
X142576190Y-37831009D02*
X142909523Y-37831009D01*
X143052380Y-38354819D02*
X142576190Y-38354819D01*
X142576190Y-38354819D02*
X142576190Y-37354819D01*
X142576190Y-37354819D02*
X143052380Y-37354819D01*
X143433333Y-38307200D02*
X143576190Y-38354819D01*
X143576190Y-38354819D02*
X143814285Y-38354819D01*
X143814285Y-38354819D02*
X143909523Y-38307200D01*
X143909523Y-38307200D02*
X143957142Y-38259580D01*
X143957142Y-38259580D02*
X144004761Y-38164342D01*
X144004761Y-38164342D02*
X144004761Y-38069104D01*
X144004761Y-38069104D02*
X143957142Y-37973866D01*
X143957142Y-37973866D02*
X143909523Y-37926247D01*
X143909523Y-37926247D02*
X143814285Y-37878628D01*
X143814285Y-37878628D02*
X143623809Y-37831009D01*
X143623809Y-37831009D02*
X143528571Y-37783390D01*
X143528571Y-37783390D02*
X143480952Y-37735771D01*
X143480952Y-37735771D02*
X143433333Y-37640533D01*
X143433333Y-37640533D02*
X143433333Y-37545295D01*
X143433333Y-37545295D02*
X143480952Y-37450057D01*
X143480952Y-37450057D02*
X143528571Y-37402438D01*
X143528571Y-37402438D02*
X143623809Y-37354819D01*
X143623809Y-37354819D02*
X143861904Y-37354819D01*
X143861904Y-37354819D02*
X144004761Y-37402438D01*
X144433333Y-37831009D02*
X144766666Y-37831009D01*
X144909523Y-38354819D02*
X144433333Y-38354819D01*
X144433333Y-38354819D02*
X144433333Y-37354819D01*
X144433333Y-37354819D02*
X144909523Y-37354819D01*
X145195238Y-37354819D02*
X145766666Y-37354819D01*
X145480952Y-38354819D02*
X145480952Y-37354819D01*
X158288095Y-76237142D02*
X158288095Y-75237142D01*
X158288095Y-75237142D02*
X158526190Y-75237142D01*
X158526190Y-75237142D02*
X158669047Y-75284761D01*
X158669047Y-75284761D02*
X158764285Y-75379999D01*
X158764285Y-75379999D02*
X158811904Y-75475237D01*
X158811904Y-75475237D02*
X158859523Y-75665713D01*
X158859523Y-75665713D02*
X158859523Y-75808570D01*
X158859523Y-75808570D02*
X158811904Y-75999046D01*
X158811904Y-75999046D02*
X158764285Y-76094284D01*
X158764285Y-76094284D02*
X158669047Y-76189523D01*
X158669047Y-76189523D02*
X158526190Y-76237142D01*
X158526190Y-76237142D02*
X158288095Y-76237142D01*
X159342857Y-37831009D02*
X159485714Y-37878628D01*
X159485714Y-37878628D02*
X159533333Y-37926247D01*
X159533333Y-37926247D02*
X159580952Y-38021485D01*
X159580952Y-38021485D02*
X159580952Y-38164342D01*
X159580952Y-38164342D02*
X159533333Y-38259580D01*
X159533333Y-38259580D02*
X159485714Y-38307200D01*
X159485714Y-38307200D02*
X159390476Y-38354819D01*
X159390476Y-38354819D02*
X159009524Y-38354819D01*
X159009524Y-38354819D02*
X159009524Y-37354819D01*
X159009524Y-37354819D02*
X159342857Y-37354819D01*
X159342857Y-37354819D02*
X159438095Y-37402438D01*
X159438095Y-37402438D02*
X159485714Y-37450057D01*
X159485714Y-37450057D02*
X159533333Y-37545295D01*
X159533333Y-37545295D02*
X159533333Y-37640533D01*
X159533333Y-37640533D02*
X159485714Y-37735771D01*
X159485714Y-37735771D02*
X159438095Y-37783390D01*
X159438095Y-37783390D02*
X159342857Y-37831009D01*
X159342857Y-37831009D02*
X159009524Y-37831009D01*
X160200000Y-37354819D02*
X160390476Y-37354819D01*
X160390476Y-37354819D02*
X160485714Y-37402438D01*
X160485714Y-37402438D02*
X160580952Y-37497676D01*
X160580952Y-37497676D02*
X160628571Y-37688152D01*
X160628571Y-37688152D02*
X160628571Y-38021485D01*
X160628571Y-38021485D02*
X160580952Y-38211961D01*
X160580952Y-38211961D02*
X160485714Y-38307200D01*
X160485714Y-38307200D02*
X160390476Y-38354819D01*
X160390476Y-38354819D02*
X160200000Y-38354819D01*
X160200000Y-38354819D02*
X160104762Y-38307200D01*
X160104762Y-38307200D02*
X160009524Y-38211961D01*
X160009524Y-38211961D02*
X159961905Y-38021485D01*
X159961905Y-38021485D02*
X159961905Y-37688152D01*
X159961905Y-37688152D02*
X160009524Y-37497676D01*
X160009524Y-37497676D02*
X160104762Y-37402438D01*
X160104762Y-37402438D02*
X160200000Y-37354819D01*
X161247619Y-37354819D02*
X161438095Y-37354819D01*
X161438095Y-37354819D02*
X161533333Y-37402438D01*
X161533333Y-37402438D02*
X161628571Y-37497676D01*
X161628571Y-37497676D02*
X161676190Y-37688152D01*
X161676190Y-37688152D02*
X161676190Y-38021485D01*
X161676190Y-38021485D02*
X161628571Y-38211961D01*
X161628571Y-38211961D02*
X161533333Y-38307200D01*
X161533333Y-38307200D02*
X161438095Y-38354819D01*
X161438095Y-38354819D02*
X161247619Y-38354819D01*
X161247619Y-38354819D02*
X161152381Y-38307200D01*
X161152381Y-38307200D02*
X161057143Y-38211961D01*
X161057143Y-38211961D02*
X161009524Y-38021485D01*
X161009524Y-38021485D02*
X161009524Y-37688152D01*
X161009524Y-37688152D02*
X161057143Y-37497676D01*
X161057143Y-37497676D02*
X161152381Y-37402438D01*
X161152381Y-37402438D02*
X161247619Y-37354819D01*
X161961905Y-37354819D02*
X162533333Y-37354819D01*
X162247619Y-38354819D02*
X162247619Y-37354819D01*
D13*
X161061143Y-83046286D02*
X161108762Y-82903429D01*
X161108762Y-82903429D02*
X161156381Y-82855810D01*
X161156381Y-82855810D02*
X161251619Y-82808191D01*
X161251619Y-82808191D02*
X161394476Y-82808191D01*
X161394476Y-82808191D02*
X161489714Y-82855810D01*
X161489714Y-82855810D02*
X161537334Y-82903429D01*
X161537334Y-82903429D02*
X161584953Y-82998667D01*
X161584953Y-82998667D02*
X161584953Y-83379619D01*
X161584953Y-83379619D02*
X160584953Y-83379619D01*
X160584953Y-83379619D02*
X160584953Y-83046286D01*
X160584953Y-83046286D02*
X160632572Y-82951048D01*
X160632572Y-82951048D02*
X160680191Y-82903429D01*
X160680191Y-82903429D02*
X160775429Y-82855810D01*
X160775429Y-82855810D02*
X160870667Y-82855810D01*
X160870667Y-82855810D02*
X160965905Y-82903429D01*
X160965905Y-82903429D02*
X161013524Y-82951048D01*
X161013524Y-82951048D02*
X161061143Y-83046286D01*
X161061143Y-83046286D02*
X161061143Y-83379619D01*
X161299238Y-82427238D02*
X161299238Y-81951048D01*
X161584953Y-82522476D02*
X160584953Y-82189143D01*
X160584953Y-82189143D02*
X161584953Y-81855810D01*
X161584953Y-80951048D02*
X161108762Y-81284381D01*
X161584953Y-81522476D02*
X160584953Y-81522476D01*
X160584953Y-81522476D02*
X160584953Y-81141524D01*
X160584953Y-81141524D02*
X160632572Y-81046286D01*
X160632572Y-81046286D02*
X160680191Y-80998667D01*
X160680191Y-80998667D02*
X160775429Y-80951048D01*
X160775429Y-80951048D02*
X160918286Y-80951048D01*
X160918286Y-80951048D02*
X161013524Y-80998667D01*
X161013524Y-80998667D02*
X161061143Y-81046286D01*
X161061143Y-81046286D02*
X161108762Y-81141524D01*
X161108762Y-81141524D02*
X161108762Y-81522476D01*
X161584953Y-80046286D02*
X161584953Y-80522476D01*
X161584953Y-80522476D02*
X160584953Y-80522476D01*
X161299238Y-79760571D02*
X161299238Y-79284381D01*
X161584953Y-79855809D02*
X160584953Y-79522476D01*
X160584953Y-79522476D02*
X161584953Y-79189143D01*
X161584953Y-78284381D02*
X161108762Y-78617714D01*
X161584953Y-78855809D02*
X160584953Y-78855809D01*
X160584953Y-78855809D02*
X160584953Y-78474857D01*
X160584953Y-78474857D02*
X160632572Y-78379619D01*
X160632572Y-78379619D02*
X160680191Y-78332000D01*
X160680191Y-78332000D02*
X160775429Y-78284381D01*
X160775429Y-78284381D02*
X160918286Y-78284381D01*
X160918286Y-78284381D02*
X161013524Y-78332000D01*
X161013524Y-78332000D02*
X161061143Y-78379619D01*
X161061143Y-78379619D02*
X161108762Y-78474857D01*
X161108762Y-78474857D02*
X161108762Y-78855809D01*
X160584953Y-77665333D02*
X160584953Y-77474857D01*
X160584953Y-77474857D02*
X160632572Y-77379619D01*
X160632572Y-77379619D02*
X160727810Y-77284381D01*
X160727810Y-77284381D02*
X160918286Y-77236762D01*
X160918286Y-77236762D02*
X161251619Y-77236762D01*
X161251619Y-77236762D02*
X161442095Y-77284381D01*
X161442095Y-77284381D02*
X161537334Y-77379619D01*
X161537334Y-77379619D02*
X161584953Y-77474857D01*
X161584953Y-77474857D02*
X161584953Y-77665333D01*
X161584953Y-77665333D02*
X161537334Y-77760571D01*
X161537334Y-77760571D02*
X161442095Y-77855809D01*
X161442095Y-77855809D02*
X161251619Y-77903428D01*
X161251619Y-77903428D02*
X160918286Y-77903428D01*
X160918286Y-77903428D02*
X160727810Y-77855809D01*
X160727810Y-77855809D02*
X160632572Y-77760571D01*
X160632572Y-77760571D02*
X160584953Y-77665333D01*
X161584953Y-76808190D02*
X160584953Y-76808190D01*
X161584953Y-76236762D02*
X161013524Y-76665333D01*
X160584953Y-76236762D02*
X161156381Y-76808190D01*
X163147278Y-86165335D02*
X163194897Y-86022478D01*
X163194897Y-86022478D02*
X163194897Y-85784383D01*
X163194897Y-85784383D02*
X163147278Y-85689145D01*
X163147278Y-85689145D02*
X163099658Y-85641526D01*
X163099658Y-85641526D02*
X163004420Y-85593907D01*
X163004420Y-85593907D02*
X162909182Y-85593907D01*
X162909182Y-85593907D02*
X162813944Y-85641526D01*
X162813944Y-85641526D02*
X162766325Y-85689145D01*
X162766325Y-85689145D02*
X162718706Y-85784383D01*
X162718706Y-85784383D02*
X162671087Y-85974859D01*
X162671087Y-85974859D02*
X162623468Y-86070097D01*
X162623468Y-86070097D02*
X162575849Y-86117716D01*
X162575849Y-86117716D02*
X162480611Y-86165335D01*
X162480611Y-86165335D02*
X162385373Y-86165335D01*
X162385373Y-86165335D02*
X162290135Y-86117716D01*
X162290135Y-86117716D02*
X162242516Y-86070097D01*
X162242516Y-86070097D02*
X162194897Y-85974859D01*
X162194897Y-85974859D02*
X162194897Y-85736764D01*
X162194897Y-85736764D02*
X162242516Y-85593907D01*
X163194897Y-85165335D02*
X162528230Y-85165335D01*
X162623468Y-85165335D02*
X162575849Y-85117716D01*
X162575849Y-85117716D02*
X162528230Y-85022478D01*
X162528230Y-85022478D02*
X162528230Y-84879621D01*
X162528230Y-84879621D02*
X162575849Y-84784383D01*
X162575849Y-84784383D02*
X162671087Y-84736764D01*
X162671087Y-84736764D02*
X163194897Y-84736764D01*
X162671087Y-84736764D02*
X162575849Y-84689145D01*
X162575849Y-84689145D02*
X162528230Y-84593907D01*
X162528230Y-84593907D02*
X162528230Y-84451050D01*
X162528230Y-84451050D02*
X162575849Y-84355811D01*
X162575849Y-84355811D02*
X162671087Y-84308192D01*
X162671087Y-84308192D02*
X163194897Y-84308192D01*
X163194897Y-83403431D02*
X162671087Y-83403431D01*
X162671087Y-83403431D02*
X162575849Y-83451050D01*
X162575849Y-83451050D02*
X162528230Y-83546288D01*
X162528230Y-83546288D02*
X162528230Y-83736764D01*
X162528230Y-83736764D02*
X162575849Y-83832002D01*
X163147278Y-83403431D02*
X163194897Y-83498669D01*
X163194897Y-83498669D02*
X163194897Y-83736764D01*
X163194897Y-83736764D02*
X163147278Y-83832002D01*
X163147278Y-83832002D02*
X163052039Y-83879621D01*
X163052039Y-83879621D02*
X162956801Y-83879621D01*
X162956801Y-83879621D02*
X162861563Y-83832002D01*
X162861563Y-83832002D02*
X162813944Y-83736764D01*
X162813944Y-83736764D02*
X162813944Y-83498669D01*
X162813944Y-83498669D02*
X162766325Y-83403431D01*
X163194897Y-82927240D02*
X162528230Y-82927240D01*
X162718706Y-82927240D02*
X162623468Y-82879621D01*
X162623468Y-82879621D02*
X162575849Y-82832002D01*
X162575849Y-82832002D02*
X162528230Y-82736764D01*
X162528230Y-82736764D02*
X162528230Y-82641526D01*
X162528230Y-82451049D02*
X162528230Y-82070097D01*
X162194897Y-82308192D02*
X163052039Y-82308192D01*
X163052039Y-82308192D02*
X163147278Y-82260573D01*
X163147278Y-82260573D02*
X163194897Y-82165335D01*
X163194897Y-82165335D02*
X163194897Y-82070097D01*
X163194897Y-81736763D02*
X162194897Y-81736763D01*
X162194897Y-81736763D02*
X162194897Y-81355811D01*
X162194897Y-81355811D02*
X162242516Y-81260573D01*
X162242516Y-81260573D02*
X162290135Y-81212954D01*
X162290135Y-81212954D02*
X162385373Y-81165335D01*
X162385373Y-81165335D02*
X162528230Y-81165335D01*
X162528230Y-81165335D02*
X162623468Y-81212954D01*
X162623468Y-81212954D02*
X162671087Y-81260573D01*
X162671087Y-81260573D02*
X162718706Y-81355811D01*
X162718706Y-81355811D02*
X162718706Y-81736763D01*
X163194897Y-80593906D02*
X163147278Y-80689144D01*
X163147278Y-80689144D02*
X163052039Y-80736763D01*
X163052039Y-80736763D02*
X162194897Y-80736763D01*
X163194897Y-79784382D02*
X162671087Y-79784382D01*
X162671087Y-79784382D02*
X162575849Y-79832001D01*
X162575849Y-79832001D02*
X162528230Y-79927239D01*
X162528230Y-79927239D02*
X162528230Y-80117715D01*
X162528230Y-80117715D02*
X162575849Y-80212953D01*
X163147278Y-79784382D02*
X163194897Y-79879620D01*
X163194897Y-79879620D02*
X163194897Y-80117715D01*
X163194897Y-80117715D02*
X163147278Y-80212953D01*
X163147278Y-80212953D02*
X163052039Y-80260572D01*
X163052039Y-80260572D02*
X162956801Y-80260572D01*
X162956801Y-80260572D02*
X162861563Y-80212953D01*
X162861563Y-80212953D02*
X162813944Y-80117715D01*
X162813944Y-80117715D02*
X162813944Y-79879620D01*
X162813944Y-79879620D02*
X162766325Y-79784382D01*
X162528230Y-79308191D02*
X163194897Y-79308191D01*
X162623468Y-79308191D02*
X162575849Y-79260572D01*
X162575849Y-79260572D02*
X162528230Y-79165334D01*
X162528230Y-79165334D02*
X162528230Y-79022477D01*
X162528230Y-79022477D02*
X162575849Y-78927239D01*
X162575849Y-78927239D02*
X162671087Y-78879620D01*
X162671087Y-78879620D02*
X163194897Y-78879620D01*
X162528230Y-78546286D02*
X162528230Y-78165334D01*
X162194897Y-78403429D02*
X163052039Y-78403429D01*
X163052039Y-78403429D02*
X163147278Y-78355810D01*
X163147278Y-78355810D02*
X163194897Y-78260572D01*
X163194897Y-78260572D02*
X163194897Y-78165334D01*
X162194897Y-77212952D02*
X162194897Y-76641524D01*
X163194897Y-76927238D02*
X162194897Y-76927238D01*
X163194897Y-76308190D02*
X162528230Y-76308190D01*
X162718706Y-76308190D02*
X162623468Y-76260571D01*
X162623468Y-76260571D02*
X162575849Y-76212952D01*
X162575849Y-76212952D02*
X162528230Y-76117714D01*
X162528230Y-76117714D02*
X162528230Y-76022476D01*
X162528230Y-75260571D02*
X163194897Y-75260571D01*
X162528230Y-75689142D02*
X163052039Y-75689142D01*
X163052039Y-75689142D02*
X163147278Y-75641523D01*
X163147278Y-75641523D02*
X163194897Y-75546285D01*
X163194897Y-75546285D02*
X163194897Y-75403428D01*
X163194897Y-75403428D02*
X163147278Y-75308190D01*
X163147278Y-75308190D02*
X163099658Y-75260571D01*
X162528230Y-74784380D02*
X163194897Y-74784380D01*
X162623468Y-74784380D02*
X162575849Y-74736761D01*
X162575849Y-74736761D02*
X162528230Y-74641523D01*
X162528230Y-74641523D02*
X162528230Y-74498666D01*
X162528230Y-74498666D02*
X162575849Y-74403428D01*
X162575849Y-74403428D02*
X162671087Y-74355809D01*
X162671087Y-74355809D02*
X163194897Y-74355809D01*
X163194897Y-73879618D02*
X162194897Y-73879618D01*
X162813944Y-73784380D02*
X163194897Y-73498666D01*
X162528230Y-73498666D02*
X162909182Y-73879618D01*
X164804841Y-89855811D02*
X163804841Y-89855811D01*
X163804841Y-89855811D02*
X163804841Y-89617716D01*
X163804841Y-89617716D02*
X163852460Y-89474859D01*
X163852460Y-89474859D02*
X163947698Y-89379621D01*
X163947698Y-89379621D02*
X164042936Y-89332002D01*
X164042936Y-89332002D02*
X164233412Y-89284383D01*
X164233412Y-89284383D02*
X164376269Y-89284383D01*
X164376269Y-89284383D02*
X164566745Y-89332002D01*
X164566745Y-89332002D02*
X164661983Y-89379621D01*
X164661983Y-89379621D02*
X164757222Y-89474859D01*
X164757222Y-89474859D02*
X164804841Y-89617716D01*
X164804841Y-89617716D02*
X164804841Y-89855811D01*
X164757222Y-88474859D02*
X164804841Y-88570097D01*
X164804841Y-88570097D02*
X164804841Y-88760573D01*
X164804841Y-88760573D02*
X164757222Y-88855811D01*
X164757222Y-88855811D02*
X164661983Y-88903430D01*
X164661983Y-88903430D02*
X164281031Y-88903430D01*
X164281031Y-88903430D02*
X164185793Y-88855811D01*
X164185793Y-88855811D02*
X164138174Y-88760573D01*
X164138174Y-88760573D02*
X164138174Y-88570097D01*
X164138174Y-88570097D02*
X164185793Y-88474859D01*
X164185793Y-88474859D02*
X164281031Y-88427240D01*
X164281031Y-88427240D02*
X164376269Y-88427240D01*
X164376269Y-88427240D02*
X164471507Y-88903430D01*
X164757222Y-88046287D02*
X164804841Y-87951049D01*
X164804841Y-87951049D02*
X164804841Y-87760573D01*
X164804841Y-87760573D02*
X164757222Y-87665335D01*
X164757222Y-87665335D02*
X164661983Y-87617716D01*
X164661983Y-87617716D02*
X164614364Y-87617716D01*
X164614364Y-87617716D02*
X164519126Y-87665335D01*
X164519126Y-87665335D02*
X164471507Y-87760573D01*
X164471507Y-87760573D02*
X164471507Y-87903430D01*
X164471507Y-87903430D02*
X164423888Y-87998668D01*
X164423888Y-87998668D02*
X164328650Y-88046287D01*
X164328650Y-88046287D02*
X164281031Y-88046287D01*
X164281031Y-88046287D02*
X164185793Y-87998668D01*
X164185793Y-87998668D02*
X164138174Y-87903430D01*
X164138174Y-87903430D02*
X164138174Y-87760573D01*
X164138174Y-87760573D02*
X164185793Y-87665335D01*
X164804841Y-87189144D02*
X164138174Y-87189144D01*
X163804841Y-87189144D02*
X163852460Y-87236763D01*
X163852460Y-87236763D02*
X163900079Y-87189144D01*
X163900079Y-87189144D02*
X163852460Y-87141525D01*
X163852460Y-87141525D02*
X163804841Y-87189144D01*
X163804841Y-87189144D02*
X163900079Y-87189144D01*
X164138174Y-86284383D02*
X164947698Y-86284383D01*
X164947698Y-86284383D02*
X165042936Y-86332002D01*
X165042936Y-86332002D02*
X165090555Y-86379621D01*
X165090555Y-86379621D02*
X165138174Y-86474859D01*
X165138174Y-86474859D02*
X165138174Y-86617716D01*
X165138174Y-86617716D02*
X165090555Y-86712954D01*
X164757222Y-86284383D02*
X164804841Y-86379621D01*
X164804841Y-86379621D02*
X164804841Y-86570097D01*
X164804841Y-86570097D02*
X164757222Y-86665335D01*
X164757222Y-86665335D02*
X164709602Y-86712954D01*
X164709602Y-86712954D02*
X164614364Y-86760573D01*
X164614364Y-86760573D02*
X164328650Y-86760573D01*
X164328650Y-86760573D02*
X164233412Y-86712954D01*
X164233412Y-86712954D02*
X164185793Y-86665335D01*
X164185793Y-86665335D02*
X164138174Y-86570097D01*
X164138174Y-86570097D02*
X164138174Y-86379621D01*
X164138174Y-86379621D02*
X164185793Y-86284383D01*
X164138174Y-85808192D02*
X164804841Y-85808192D01*
X164233412Y-85808192D02*
X164185793Y-85760573D01*
X164185793Y-85760573D02*
X164138174Y-85665335D01*
X164138174Y-85665335D02*
X164138174Y-85522478D01*
X164138174Y-85522478D02*
X164185793Y-85427240D01*
X164185793Y-85427240D02*
X164281031Y-85379621D01*
X164281031Y-85379621D02*
X164804841Y-85379621D01*
X164757222Y-84522478D02*
X164804841Y-84617716D01*
X164804841Y-84617716D02*
X164804841Y-84808192D01*
X164804841Y-84808192D02*
X164757222Y-84903430D01*
X164757222Y-84903430D02*
X164661983Y-84951049D01*
X164661983Y-84951049D02*
X164281031Y-84951049D01*
X164281031Y-84951049D02*
X164185793Y-84903430D01*
X164185793Y-84903430D02*
X164138174Y-84808192D01*
X164138174Y-84808192D02*
X164138174Y-84617716D01*
X164138174Y-84617716D02*
X164185793Y-84522478D01*
X164185793Y-84522478D02*
X164281031Y-84474859D01*
X164281031Y-84474859D02*
X164376269Y-84474859D01*
X164376269Y-84474859D02*
X164471507Y-84951049D01*
X164804841Y-83617716D02*
X163804841Y-83617716D01*
X164757222Y-83617716D02*
X164804841Y-83712954D01*
X164804841Y-83712954D02*
X164804841Y-83903430D01*
X164804841Y-83903430D02*
X164757222Y-83998668D01*
X164757222Y-83998668D02*
X164709602Y-84046287D01*
X164709602Y-84046287D02*
X164614364Y-84093906D01*
X164614364Y-84093906D02*
X164328650Y-84093906D01*
X164328650Y-84093906D02*
X164233412Y-84046287D01*
X164233412Y-84046287D02*
X164185793Y-83998668D01*
X164185793Y-83998668D02*
X164138174Y-83903430D01*
X164138174Y-83903430D02*
X164138174Y-83712954D01*
X164138174Y-83712954D02*
X164185793Y-83617716D01*
X164804841Y-82379620D02*
X163804841Y-82379620D01*
X164185793Y-82379620D02*
X164138174Y-82284382D01*
X164138174Y-82284382D02*
X164138174Y-82093906D01*
X164138174Y-82093906D02*
X164185793Y-81998668D01*
X164185793Y-81998668D02*
X164233412Y-81951049D01*
X164233412Y-81951049D02*
X164328650Y-81903430D01*
X164328650Y-81903430D02*
X164614364Y-81903430D01*
X164614364Y-81903430D02*
X164709602Y-81951049D01*
X164709602Y-81951049D02*
X164757222Y-81998668D01*
X164757222Y-81998668D02*
X164804841Y-82093906D01*
X164804841Y-82093906D02*
X164804841Y-82284382D01*
X164804841Y-82284382D02*
X164757222Y-82379620D01*
X164138174Y-81570096D02*
X164804841Y-81332001D01*
X164138174Y-81093906D02*
X164804841Y-81332001D01*
X164804841Y-81332001D02*
X165042936Y-81427239D01*
X165042936Y-81427239D02*
X165090555Y-81474858D01*
X165090555Y-81474858D02*
X165138174Y-81570096D01*
X164804841Y-79951048D02*
X163804841Y-79951048D01*
X163804841Y-79951048D02*
X164519126Y-79617715D01*
X164519126Y-79617715D02*
X163804841Y-79284382D01*
X163804841Y-79284382D02*
X164804841Y-79284382D01*
X164804841Y-78379620D02*
X164281031Y-78379620D01*
X164281031Y-78379620D02*
X164185793Y-78427239D01*
X164185793Y-78427239D02*
X164138174Y-78522477D01*
X164138174Y-78522477D02*
X164138174Y-78712953D01*
X164138174Y-78712953D02*
X164185793Y-78808191D01*
X164757222Y-78379620D02*
X164804841Y-78474858D01*
X164804841Y-78474858D02*
X164804841Y-78712953D01*
X164804841Y-78712953D02*
X164757222Y-78808191D01*
X164757222Y-78808191D02*
X164661983Y-78855810D01*
X164661983Y-78855810D02*
X164566745Y-78855810D01*
X164566745Y-78855810D02*
X164471507Y-78808191D01*
X164471507Y-78808191D02*
X164423888Y-78712953D01*
X164423888Y-78712953D02*
X164423888Y-78474858D01*
X164423888Y-78474858D02*
X164376269Y-78379620D01*
X164804841Y-77903429D02*
X164138174Y-77903429D01*
X164328650Y-77903429D02*
X164233412Y-77855810D01*
X164233412Y-77855810D02*
X164185793Y-77808191D01*
X164185793Y-77808191D02*
X164138174Y-77712953D01*
X164138174Y-77712953D02*
X164138174Y-77617715D01*
X164757222Y-76855810D02*
X164804841Y-76951048D01*
X164804841Y-76951048D02*
X164804841Y-77141524D01*
X164804841Y-77141524D02*
X164757222Y-77236762D01*
X164757222Y-77236762D02*
X164709602Y-77284381D01*
X164709602Y-77284381D02*
X164614364Y-77332000D01*
X164614364Y-77332000D02*
X164328650Y-77332000D01*
X164328650Y-77332000D02*
X164233412Y-77284381D01*
X164233412Y-77284381D02*
X164185793Y-77236762D01*
X164185793Y-77236762D02*
X164138174Y-77141524D01*
X164138174Y-77141524D02*
X164138174Y-76951048D01*
X164138174Y-76951048D02*
X164185793Y-76855810D01*
X164804841Y-76284381D02*
X164757222Y-76379619D01*
X164757222Y-76379619D02*
X164709602Y-76427238D01*
X164709602Y-76427238D02*
X164614364Y-76474857D01*
X164614364Y-76474857D02*
X164328650Y-76474857D01*
X164328650Y-76474857D02*
X164233412Y-76427238D01*
X164233412Y-76427238D02*
X164185793Y-76379619D01*
X164185793Y-76379619D02*
X164138174Y-76284381D01*
X164138174Y-76284381D02*
X164138174Y-76141524D01*
X164138174Y-76141524D02*
X164185793Y-76046286D01*
X164185793Y-76046286D02*
X164233412Y-75998667D01*
X164233412Y-75998667D02*
X164328650Y-75951048D01*
X164328650Y-75951048D02*
X164614364Y-75951048D01*
X164614364Y-75951048D02*
X164709602Y-75998667D01*
X164709602Y-75998667D02*
X164757222Y-76046286D01*
X164757222Y-76046286D02*
X164804841Y-76141524D01*
X164804841Y-76141524D02*
X164804841Y-76284381D01*
X164281031Y-74427238D02*
X164328650Y-74284381D01*
X164328650Y-74284381D02*
X164376269Y-74236762D01*
X164376269Y-74236762D02*
X164471507Y-74189143D01*
X164471507Y-74189143D02*
X164614364Y-74189143D01*
X164614364Y-74189143D02*
X164709602Y-74236762D01*
X164709602Y-74236762D02*
X164757222Y-74284381D01*
X164757222Y-74284381D02*
X164804841Y-74379619D01*
X164804841Y-74379619D02*
X164804841Y-74760571D01*
X164804841Y-74760571D02*
X163804841Y-74760571D01*
X163804841Y-74760571D02*
X163804841Y-74427238D01*
X163804841Y-74427238D02*
X163852460Y-74332000D01*
X163852460Y-74332000D02*
X163900079Y-74284381D01*
X163900079Y-74284381D02*
X163995317Y-74236762D01*
X163995317Y-74236762D02*
X164090555Y-74236762D01*
X164090555Y-74236762D02*
X164185793Y-74284381D01*
X164185793Y-74284381D02*
X164233412Y-74332000D01*
X164233412Y-74332000D02*
X164281031Y-74427238D01*
X164281031Y-74427238D02*
X164281031Y-74760571D01*
X164804841Y-73332000D02*
X164281031Y-73332000D01*
X164281031Y-73332000D02*
X164185793Y-73379619D01*
X164185793Y-73379619D02*
X164138174Y-73474857D01*
X164138174Y-73474857D02*
X164138174Y-73665333D01*
X164138174Y-73665333D02*
X164185793Y-73760571D01*
X164757222Y-73332000D02*
X164804841Y-73427238D01*
X164804841Y-73427238D02*
X164804841Y-73665333D01*
X164804841Y-73665333D02*
X164757222Y-73760571D01*
X164757222Y-73760571D02*
X164661983Y-73808190D01*
X164661983Y-73808190D02*
X164566745Y-73808190D01*
X164566745Y-73808190D02*
X164471507Y-73760571D01*
X164471507Y-73760571D02*
X164423888Y-73665333D01*
X164423888Y-73665333D02*
X164423888Y-73427238D01*
X164423888Y-73427238D02*
X164376269Y-73332000D01*
X164804841Y-72855809D02*
X164138174Y-72855809D01*
X164328650Y-72855809D02*
X164233412Y-72808190D01*
X164233412Y-72808190D02*
X164185793Y-72760571D01*
X164185793Y-72760571D02*
X164138174Y-72665333D01*
X164138174Y-72665333D02*
X164138174Y-72570095D01*
X164804841Y-72093904D02*
X164757222Y-72189142D01*
X164757222Y-72189142D02*
X164661983Y-72236761D01*
X164661983Y-72236761D02*
X163804841Y-72236761D01*
X164757222Y-71331999D02*
X164804841Y-71427237D01*
X164804841Y-71427237D02*
X164804841Y-71617713D01*
X164804841Y-71617713D02*
X164757222Y-71712951D01*
X164757222Y-71712951D02*
X164661983Y-71760570D01*
X164661983Y-71760570D02*
X164281031Y-71760570D01*
X164281031Y-71760570D02*
X164185793Y-71712951D01*
X164185793Y-71712951D02*
X164138174Y-71617713D01*
X164138174Y-71617713D02*
X164138174Y-71427237D01*
X164138174Y-71427237D02*
X164185793Y-71331999D01*
X164185793Y-71331999D02*
X164281031Y-71284380D01*
X164281031Y-71284380D02*
X164376269Y-71284380D01*
X164376269Y-71284380D02*
X164471507Y-71760570D01*
X164804841Y-70855808D02*
X164138174Y-70855808D01*
X164328650Y-70855808D02*
X164233412Y-70808189D01*
X164233412Y-70808189D02*
X164185793Y-70760570D01*
X164185793Y-70760570D02*
X164138174Y-70665332D01*
X164138174Y-70665332D02*
X164138174Y-70570094D01*
X164804841Y-69808189D02*
X164281031Y-69808189D01*
X164281031Y-69808189D02*
X164185793Y-69855808D01*
X164185793Y-69855808D02*
X164138174Y-69951046D01*
X164138174Y-69951046D02*
X164138174Y-70141522D01*
X164138174Y-70141522D02*
X164185793Y-70236760D01*
X164757222Y-69808189D02*
X164804841Y-69903427D01*
X164804841Y-69903427D02*
X164804841Y-70141522D01*
X164804841Y-70141522D02*
X164757222Y-70236760D01*
X164757222Y-70236760D02*
X164661983Y-70284379D01*
X164661983Y-70284379D02*
X164566745Y-70284379D01*
X164566745Y-70284379D02*
X164471507Y-70236760D01*
X164471507Y-70236760D02*
X164423888Y-70141522D01*
X164423888Y-70141522D02*
X164423888Y-69903427D01*
X164423888Y-69903427D02*
X164376269Y-69808189D01*
X166414785Y-87570096D02*
X165414785Y-87570096D01*
X165890975Y-87570096D02*
X165890975Y-86998668D01*
X166414785Y-86998668D02*
X165414785Y-86998668D01*
X165414785Y-86617715D02*
X166414785Y-86379620D01*
X166414785Y-86379620D02*
X165700499Y-86189144D01*
X165700499Y-86189144D02*
X166414785Y-85998668D01*
X166414785Y-85998668D02*
X165414785Y-85760573D01*
X166414785Y-84046287D02*
X165938594Y-84379620D01*
X166414785Y-84617715D02*
X165414785Y-84617715D01*
X165414785Y-84617715D02*
X165414785Y-84236763D01*
X165414785Y-84236763D02*
X165462404Y-84141525D01*
X165462404Y-84141525D02*
X165510023Y-84093906D01*
X165510023Y-84093906D02*
X165605261Y-84046287D01*
X165605261Y-84046287D02*
X165748118Y-84046287D01*
X165748118Y-84046287D02*
X165843356Y-84093906D01*
X165843356Y-84093906D02*
X165890975Y-84141525D01*
X165890975Y-84141525D02*
X165938594Y-84236763D01*
X165938594Y-84236763D02*
X165938594Y-84617715D01*
X166367166Y-83236763D02*
X166414785Y-83332001D01*
X166414785Y-83332001D02*
X166414785Y-83522477D01*
X166414785Y-83522477D02*
X166367166Y-83617715D01*
X166367166Y-83617715D02*
X166271927Y-83665334D01*
X166271927Y-83665334D02*
X165890975Y-83665334D01*
X165890975Y-83665334D02*
X165795737Y-83617715D01*
X165795737Y-83617715D02*
X165748118Y-83522477D01*
X165748118Y-83522477D02*
X165748118Y-83332001D01*
X165748118Y-83332001D02*
X165795737Y-83236763D01*
X165795737Y-83236763D02*
X165890975Y-83189144D01*
X165890975Y-83189144D02*
X165986213Y-83189144D01*
X165986213Y-83189144D02*
X166081451Y-83665334D01*
X165748118Y-82855810D02*
X166414785Y-82617715D01*
X166414785Y-82617715D02*
X165748118Y-82379620D01*
X166414785Y-80712953D02*
X166414785Y-81284381D01*
X166414785Y-80998667D02*
X165414785Y-80998667D01*
X165414785Y-80998667D02*
X165557642Y-81093905D01*
X165557642Y-81093905D02*
X165652880Y-81189143D01*
X165652880Y-81189143D02*
X165700499Y-81284381D01*
X166319546Y-80284381D02*
X166367166Y-80236762D01*
X166367166Y-80236762D02*
X166414785Y-80284381D01*
X166414785Y-80284381D02*
X166367166Y-80332000D01*
X166367166Y-80332000D02*
X166319546Y-80284381D01*
X166319546Y-80284381D02*
X166414785Y-80284381D01*
X165414785Y-79617715D02*
X165414785Y-79522477D01*
X165414785Y-79522477D02*
X165462404Y-79427239D01*
X165462404Y-79427239D02*
X165510023Y-79379620D01*
X165510023Y-79379620D02*
X165605261Y-79332001D01*
X165605261Y-79332001D02*
X165795737Y-79284382D01*
X165795737Y-79284382D02*
X166033832Y-79284382D01*
X166033832Y-79284382D02*
X166224308Y-79332001D01*
X166224308Y-79332001D02*
X166319546Y-79379620D01*
X166319546Y-79379620D02*
X166367166Y-79427239D01*
X166367166Y-79427239D02*
X166414785Y-79522477D01*
X166414785Y-79522477D02*
X166414785Y-79617715D01*
X166414785Y-79617715D02*
X166367166Y-79712953D01*
X166367166Y-79712953D02*
X166319546Y-79760572D01*
X166319546Y-79760572D02*
X166224308Y-79808191D01*
X166224308Y-79808191D02*
X166033832Y-79855810D01*
X166033832Y-79855810D02*
X165795737Y-79855810D01*
X165795737Y-79855810D02*
X165605261Y-79808191D01*
X165605261Y-79808191D02*
X165510023Y-79760572D01*
X165510023Y-79760572D02*
X165462404Y-79712953D01*
X165462404Y-79712953D02*
X165414785Y-79617715D01*
X165414785Y-78951048D02*
X165414785Y-78332001D01*
X165414785Y-78332001D02*
X165795737Y-78665334D01*
X165795737Y-78665334D02*
X165795737Y-78522477D01*
X165795737Y-78522477D02*
X165843356Y-78427239D01*
X165843356Y-78427239D02*
X165890975Y-78379620D01*
X165890975Y-78379620D02*
X165986213Y-78332001D01*
X165986213Y-78332001D02*
X166224308Y-78332001D01*
X166224308Y-78332001D02*
X166319546Y-78379620D01*
X166319546Y-78379620D02*
X166367166Y-78427239D01*
X166367166Y-78427239D02*
X166414785Y-78522477D01*
X166414785Y-78522477D02*
X166414785Y-78808191D01*
X166414785Y-78808191D02*
X166367166Y-78903429D01*
X166367166Y-78903429D02*
X166319546Y-78951048D01*
X166748118Y-76903429D02*
X165319546Y-76903429D01*
X165510023Y-75474857D02*
X165462404Y-75427238D01*
X165462404Y-75427238D02*
X165414785Y-75332000D01*
X165414785Y-75332000D02*
X165414785Y-75093905D01*
X165414785Y-75093905D02*
X165462404Y-74998667D01*
X165462404Y-74998667D02*
X165510023Y-74951048D01*
X165510023Y-74951048D02*
X165605261Y-74903429D01*
X165605261Y-74903429D02*
X165700499Y-74903429D01*
X165700499Y-74903429D02*
X165843356Y-74951048D01*
X165843356Y-74951048D02*
X166414785Y-75522476D01*
X166414785Y-75522476D02*
X166414785Y-74903429D01*
X165414785Y-74284381D02*
X165414785Y-74189143D01*
X165414785Y-74189143D02*
X165462404Y-74093905D01*
X165462404Y-74093905D02*
X165510023Y-74046286D01*
X165510023Y-74046286D02*
X165605261Y-73998667D01*
X165605261Y-73998667D02*
X165795737Y-73951048D01*
X165795737Y-73951048D02*
X166033832Y-73951048D01*
X166033832Y-73951048D02*
X166224308Y-73998667D01*
X166224308Y-73998667D02*
X166319546Y-74046286D01*
X166319546Y-74046286D02*
X166367166Y-74093905D01*
X166367166Y-74093905D02*
X166414785Y-74189143D01*
X166414785Y-74189143D02*
X166414785Y-74284381D01*
X166414785Y-74284381D02*
X166367166Y-74379619D01*
X166367166Y-74379619D02*
X166319546Y-74427238D01*
X166319546Y-74427238D02*
X166224308Y-74474857D01*
X166224308Y-74474857D02*
X166033832Y-74522476D01*
X166033832Y-74522476D02*
X165795737Y-74522476D01*
X165795737Y-74522476D02*
X165605261Y-74474857D01*
X165605261Y-74474857D02*
X165510023Y-74427238D01*
X165510023Y-74427238D02*
X165462404Y-74379619D01*
X165462404Y-74379619D02*
X165414785Y-74284381D01*
X165510023Y-73570095D02*
X165462404Y-73522476D01*
X165462404Y-73522476D02*
X165414785Y-73427238D01*
X165414785Y-73427238D02*
X165414785Y-73189143D01*
X165414785Y-73189143D02*
X165462404Y-73093905D01*
X165462404Y-73093905D02*
X165510023Y-73046286D01*
X165510023Y-73046286D02*
X165605261Y-72998667D01*
X165605261Y-72998667D02*
X165700499Y-72998667D01*
X165700499Y-72998667D02*
X165843356Y-73046286D01*
X165843356Y-73046286D02*
X166414785Y-73617714D01*
X166414785Y-73617714D02*
X166414785Y-72998667D01*
X165414785Y-72141524D02*
X165414785Y-72332000D01*
X165414785Y-72332000D02*
X165462404Y-72427238D01*
X165462404Y-72427238D02*
X165510023Y-72474857D01*
X165510023Y-72474857D02*
X165652880Y-72570095D01*
X165652880Y-72570095D02*
X165843356Y-72617714D01*
X165843356Y-72617714D02*
X166224308Y-72617714D01*
X166224308Y-72617714D02*
X166319546Y-72570095D01*
X166319546Y-72570095D02*
X166367166Y-72522476D01*
X166367166Y-72522476D02*
X166414785Y-72427238D01*
X166414785Y-72427238D02*
X166414785Y-72236762D01*
X166414785Y-72236762D02*
X166367166Y-72141524D01*
X166367166Y-72141524D02*
X166319546Y-72093905D01*
X166319546Y-72093905D02*
X166224308Y-72046286D01*
X166224308Y-72046286D02*
X165986213Y-72046286D01*
X165986213Y-72046286D02*
X165890975Y-72093905D01*
X165890975Y-72093905D02*
X165843356Y-72141524D01*
X165843356Y-72141524D02*
X165795737Y-72236762D01*
X165795737Y-72236762D02*
X165795737Y-72427238D01*
X165795737Y-72427238D02*
X165843356Y-72522476D01*
X165843356Y-72522476D02*
X165890975Y-72570095D01*
X165890975Y-72570095D02*
X165986213Y-72617714D01*
D14*
X131863855Y-81533332D02*
X131482902Y-81799999D01*
X131863855Y-81990475D02*
X131063855Y-81990475D01*
X131063855Y-81990475D02*
X131063855Y-81685713D01*
X131063855Y-81685713D02*
X131101950Y-81609523D01*
X131101950Y-81609523D02*
X131140045Y-81571428D01*
X131140045Y-81571428D02*
X131216236Y-81533332D01*
X131216236Y-81533332D02*
X131330521Y-81533332D01*
X131330521Y-81533332D02*
X131406712Y-81571428D01*
X131406712Y-81571428D02*
X131444807Y-81609523D01*
X131444807Y-81609523D02*
X131482902Y-81685713D01*
X131482902Y-81685713D02*
X131482902Y-81990475D01*
X131063855Y-81038094D02*
X131063855Y-80961904D01*
X131063855Y-80961904D02*
X131101950Y-80885713D01*
X131101950Y-80885713D02*
X131140045Y-80847618D01*
X131140045Y-80847618D02*
X131216236Y-80809523D01*
X131216236Y-80809523D02*
X131368617Y-80771428D01*
X131368617Y-80771428D02*
X131559093Y-80771428D01*
X131559093Y-80771428D02*
X131711474Y-80809523D01*
X131711474Y-80809523D02*
X131787664Y-80847618D01*
X131787664Y-80847618D02*
X131825760Y-80885713D01*
X131825760Y-80885713D02*
X131863855Y-80961904D01*
X131863855Y-80961904D02*
X131863855Y-81038094D01*
X131863855Y-81038094D02*
X131825760Y-81114285D01*
X131825760Y-81114285D02*
X131787664Y-81152380D01*
X131787664Y-81152380D02*
X131711474Y-81190475D01*
X131711474Y-81190475D02*
X131559093Y-81228571D01*
X131559093Y-81228571D02*
X131368617Y-81228571D01*
X131368617Y-81228571D02*
X131216236Y-81190475D01*
X131216236Y-81190475D02*
X131140045Y-81152380D01*
X131140045Y-81152380D02*
X131101950Y-81114285D01*
X131101950Y-81114285D02*
X131063855Y-81038094D01*
X156833855Y-63503155D02*
X156452902Y-63769822D01*
X156833855Y-63960298D02*
X156033855Y-63960298D01*
X156033855Y-63960298D02*
X156033855Y-63655536D01*
X156033855Y-63655536D02*
X156071950Y-63579346D01*
X156071950Y-63579346D02*
X156110045Y-63541251D01*
X156110045Y-63541251D02*
X156186236Y-63503155D01*
X156186236Y-63503155D02*
X156300521Y-63503155D01*
X156300521Y-63503155D02*
X156376712Y-63541251D01*
X156376712Y-63541251D02*
X156414807Y-63579346D01*
X156414807Y-63579346D02*
X156452902Y-63655536D01*
X156452902Y-63655536D02*
X156452902Y-63960298D01*
X156300521Y-62817441D02*
X156833855Y-62817441D01*
X155995760Y-63007917D02*
X156567188Y-63198394D01*
X156567188Y-63198394D02*
X156567188Y-62703155D01*
X145713855Y-74441846D02*
X146361474Y-74441846D01*
X146361474Y-74441846D02*
X146437664Y-74403751D01*
X146437664Y-74403751D02*
X146475760Y-74365656D01*
X146475760Y-74365656D02*
X146513855Y-74289465D01*
X146513855Y-74289465D02*
X146513855Y-74137084D01*
X146513855Y-74137084D02*
X146475760Y-74060894D01*
X146475760Y-74060894D02*
X146437664Y-74022799D01*
X146437664Y-74022799D02*
X146361474Y-73984703D01*
X146361474Y-73984703D02*
X145713855Y-73984703D01*
X145713855Y-73679942D02*
X145713855Y-73184704D01*
X145713855Y-73184704D02*
X146018617Y-73451370D01*
X146018617Y-73451370D02*
X146018617Y-73337085D01*
X146018617Y-73337085D02*
X146056712Y-73260894D01*
X146056712Y-73260894D02*
X146094807Y-73222799D01*
X146094807Y-73222799D02*
X146170998Y-73184704D01*
X146170998Y-73184704D02*
X146361474Y-73184704D01*
X146361474Y-73184704D02*
X146437664Y-73222799D01*
X146437664Y-73222799D02*
X146475760Y-73260894D01*
X146475760Y-73260894D02*
X146513855Y-73337085D01*
X146513855Y-73337085D02*
X146513855Y-73565656D01*
X146513855Y-73565656D02*
X146475760Y-73641847D01*
X146475760Y-73641847D02*
X146437664Y-73679942D01*
X135013855Y-78090475D02*
X134213855Y-78090475D01*
X134213855Y-78090475D02*
X134213855Y-77899999D01*
X134213855Y-77899999D02*
X134251950Y-77785713D01*
X134251950Y-77785713D02*
X134328140Y-77709523D01*
X134328140Y-77709523D02*
X134404331Y-77671428D01*
X134404331Y-77671428D02*
X134556712Y-77633332D01*
X134556712Y-77633332D02*
X134670998Y-77633332D01*
X134670998Y-77633332D02*
X134823379Y-77671428D01*
X134823379Y-77671428D02*
X134899569Y-77709523D01*
X134899569Y-77709523D02*
X134975760Y-77785713D01*
X134975760Y-77785713D02*
X135013855Y-77899999D01*
X135013855Y-77899999D02*
X135013855Y-78090475D01*
X135013855Y-76871428D02*
X135013855Y-77328571D01*
X135013855Y-77099999D02*
X134213855Y-77099999D01*
X134213855Y-77099999D02*
X134328140Y-77176190D01*
X134328140Y-77176190D02*
X134404331Y-77252380D01*
X134404331Y-77252380D02*
X134442426Y-77328571D01*
X135863855Y-83223809D02*
X135063855Y-83223809D01*
X135063855Y-83223809D02*
X135063855Y-83033333D01*
X135063855Y-83033333D02*
X135101950Y-82919047D01*
X135101950Y-82919047D02*
X135178140Y-82842857D01*
X135178140Y-82842857D02*
X135254331Y-82804762D01*
X135254331Y-82804762D02*
X135406712Y-82766666D01*
X135406712Y-82766666D02*
X135520998Y-82766666D01*
X135520998Y-82766666D02*
X135673379Y-82804762D01*
X135673379Y-82804762D02*
X135749569Y-82842857D01*
X135749569Y-82842857D02*
X135825760Y-82919047D01*
X135825760Y-82919047D02*
X135863855Y-83033333D01*
X135863855Y-83033333D02*
X135863855Y-83223809D01*
X135940045Y-82614286D02*
X135940045Y-82004762D01*
X135063855Y-81928571D02*
X135063855Y-81471428D01*
X135863855Y-81700000D02*
X135063855Y-81700000D01*
X135063855Y-81319047D02*
X135863855Y-81052380D01*
X135863855Y-81052380D02*
X135063855Y-80785714D01*
X135825760Y-80557143D02*
X135863855Y-80442857D01*
X135863855Y-80442857D02*
X135863855Y-80252381D01*
X135863855Y-80252381D02*
X135825760Y-80176190D01*
X135825760Y-80176190D02*
X135787664Y-80138095D01*
X135787664Y-80138095D02*
X135711474Y-80100000D01*
X135711474Y-80100000D02*
X135635283Y-80100000D01*
X135635283Y-80100000D02*
X135559093Y-80138095D01*
X135559093Y-80138095D02*
X135520998Y-80176190D01*
X135520998Y-80176190D02*
X135482902Y-80252381D01*
X135482902Y-80252381D02*
X135444807Y-80404762D01*
X135444807Y-80404762D02*
X135406712Y-80480952D01*
X135406712Y-80480952D02*
X135368617Y-80519047D01*
X135368617Y-80519047D02*
X135292426Y-80557143D01*
X135292426Y-80557143D02*
X135216236Y-80557143D01*
X135216236Y-80557143D02*
X135140045Y-80519047D01*
X135140045Y-80519047D02*
X135101950Y-80480952D01*
X135101950Y-80480952D02*
X135063855Y-80404762D01*
X135063855Y-80404762D02*
X135063855Y-80214285D01*
X135063855Y-80214285D02*
X135101950Y-80100000D01*
X135863855Y-79338095D02*
X135863855Y-79795238D01*
X135863855Y-79566666D02*
X135063855Y-79566666D01*
X135063855Y-79566666D02*
X135178140Y-79642857D01*
X135178140Y-79642857D02*
X135254331Y-79719047D01*
X135254331Y-79719047D02*
X135292426Y-79795238D01*
X147263855Y-63528155D02*
X146882902Y-63794822D01*
X147263855Y-63985298D02*
X146463855Y-63985298D01*
X146463855Y-63985298D02*
X146463855Y-63680536D01*
X146463855Y-63680536D02*
X146501950Y-63604346D01*
X146501950Y-63604346D02*
X146540045Y-63566251D01*
X146540045Y-63566251D02*
X146616236Y-63528155D01*
X146616236Y-63528155D02*
X146730521Y-63528155D01*
X146730521Y-63528155D02*
X146806712Y-63566251D01*
X146806712Y-63566251D02*
X146844807Y-63604346D01*
X146844807Y-63604346D02*
X146882902Y-63680536D01*
X146882902Y-63680536D02*
X146882902Y-63985298D01*
X147263855Y-62766251D02*
X147263855Y-63223394D01*
X147263855Y-62994822D02*
X146463855Y-62994822D01*
X146463855Y-62994822D02*
X146578140Y-63071013D01*
X146578140Y-63071013D02*
X146654331Y-63147203D01*
X146654331Y-63147203D02*
X146692426Y-63223394D01*
X132914285Y-52263855D02*
X132647618Y-51882902D01*
X132457142Y-52263855D02*
X132457142Y-51463855D01*
X132457142Y-51463855D02*
X132761904Y-51463855D01*
X132761904Y-51463855D02*
X132838094Y-51501950D01*
X132838094Y-51501950D02*
X132876189Y-51540045D01*
X132876189Y-51540045D02*
X132914285Y-51616236D01*
X132914285Y-51616236D02*
X132914285Y-51730521D01*
X132914285Y-51730521D02*
X132876189Y-51806712D01*
X132876189Y-51806712D02*
X132838094Y-51844807D01*
X132838094Y-51844807D02*
X132761904Y-51882902D01*
X132761904Y-51882902D02*
X132457142Y-51882902D01*
X133257142Y-52263855D02*
X133257142Y-51463855D01*
X133257142Y-51768617D02*
X133333332Y-51730521D01*
X133333332Y-51730521D02*
X133485713Y-51730521D01*
X133485713Y-51730521D02*
X133561904Y-51768617D01*
X133561904Y-51768617D02*
X133599999Y-51806712D01*
X133599999Y-51806712D02*
X133638094Y-51882902D01*
X133638094Y-51882902D02*
X133638094Y-52111474D01*
X133638094Y-52111474D02*
X133599999Y-52187664D01*
X133599999Y-52187664D02*
X133561904Y-52225760D01*
X133561904Y-52225760D02*
X133485713Y-52263855D01*
X133485713Y-52263855D02*
X133333332Y-52263855D01*
X133333332Y-52263855D02*
X133257142Y-52225760D01*
X134095237Y-52263855D02*
X134019047Y-52225760D01*
X134019047Y-52225760D02*
X133980952Y-52187664D01*
X133980952Y-52187664D02*
X133942856Y-52111474D01*
X133942856Y-52111474D02*
X133942856Y-51882902D01*
X133942856Y-51882902D02*
X133980952Y-51806712D01*
X133980952Y-51806712D02*
X134019047Y-51768617D01*
X134019047Y-51768617D02*
X134095237Y-51730521D01*
X134095237Y-51730521D02*
X134209523Y-51730521D01*
X134209523Y-51730521D02*
X134285714Y-51768617D01*
X134285714Y-51768617D02*
X134323809Y-51806712D01*
X134323809Y-51806712D02*
X134361904Y-51882902D01*
X134361904Y-51882902D02*
X134361904Y-52111474D01*
X134361904Y-52111474D02*
X134323809Y-52187664D01*
X134323809Y-52187664D02*
X134285714Y-52225760D01*
X134285714Y-52225760D02*
X134209523Y-52263855D01*
X134209523Y-52263855D02*
X134095237Y-52263855D01*
X134590476Y-51730521D02*
X134895238Y-51730521D01*
X134704762Y-51463855D02*
X134704762Y-52149569D01*
X134704762Y-52149569D02*
X134742857Y-52225760D01*
X134742857Y-52225760D02*
X134819047Y-52263855D01*
X134819047Y-52263855D02*
X134895238Y-52263855D01*
X135580952Y-52263855D02*
X135123809Y-52263855D01*
X135352381Y-52263855D02*
X135352381Y-51463855D01*
X135352381Y-51463855D02*
X135276190Y-51578140D01*
X135276190Y-51578140D02*
X135200000Y-51654331D01*
X135200000Y-51654331D02*
X135123809Y-51692426D01*
X148216667Y-67696178D02*
X147950000Y-67315225D01*
X147759524Y-67696178D02*
X147759524Y-66896178D01*
X147759524Y-66896178D02*
X148064286Y-66896178D01*
X148064286Y-66896178D02*
X148140476Y-66934273D01*
X148140476Y-66934273D02*
X148178571Y-66972368D01*
X148178571Y-66972368D02*
X148216667Y-67048559D01*
X148216667Y-67048559D02*
X148216667Y-67162844D01*
X148216667Y-67162844D02*
X148178571Y-67239035D01*
X148178571Y-67239035D02*
X148140476Y-67277130D01*
X148140476Y-67277130D02*
X148064286Y-67315225D01*
X148064286Y-67315225D02*
X147759524Y-67315225D01*
X148940476Y-66896178D02*
X148559524Y-66896178D01*
X148559524Y-66896178D02*
X148521428Y-67277130D01*
X148521428Y-67277130D02*
X148559524Y-67239035D01*
X148559524Y-67239035D02*
X148635714Y-67200940D01*
X148635714Y-67200940D02*
X148826190Y-67200940D01*
X148826190Y-67200940D02*
X148902381Y-67239035D01*
X148902381Y-67239035D02*
X148940476Y-67277130D01*
X148940476Y-67277130D02*
X148978571Y-67353321D01*
X148978571Y-67353321D02*
X148978571Y-67543797D01*
X148978571Y-67543797D02*
X148940476Y-67619987D01*
X148940476Y-67619987D02*
X148902381Y-67658083D01*
X148902381Y-67658083D02*
X148826190Y-67696178D01*
X148826190Y-67696178D02*
X148635714Y-67696178D01*
X148635714Y-67696178D02*
X148559524Y-67658083D01*
X148559524Y-67658083D02*
X148521428Y-67619987D01*
X147287664Y-61433332D02*
X147325760Y-61471428D01*
X147325760Y-61471428D02*
X147363855Y-61585713D01*
X147363855Y-61585713D02*
X147363855Y-61661904D01*
X147363855Y-61661904D02*
X147325760Y-61776190D01*
X147325760Y-61776190D02*
X147249569Y-61852380D01*
X147249569Y-61852380D02*
X147173379Y-61890475D01*
X147173379Y-61890475D02*
X147020998Y-61928571D01*
X147020998Y-61928571D02*
X146906712Y-61928571D01*
X146906712Y-61928571D02*
X146754331Y-61890475D01*
X146754331Y-61890475D02*
X146678140Y-61852380D01*
X146678140Y-61852380D02*
X146601950Y-61776190D01*
X146601950Y-61776190D02*
X146563855Y-61661904D01*
X146563855Y-61661904D02*
X146563855Y-61585713D01*
X146563855Y-61585713D02*
X146601950Y-61471428D01*
X146601950Y-61471428D02*
X146640045Y-61433332D01*
X146640045Y-61128571D02*
X146601950Y-61090475D01*
X146601950Y-61090475D02*
X146563855Y-61014285D01*
X146563855Y-61014285D02*
X146563855Y-60823809D01*
X146563855Y-60823809D02*
X146601950Y-60747618D01*
X146601950Y-60747618D02*
X146640045Y-60709523D01*
X146640045Y-60709523D02*
X146716236Y-60671428D01*
X146716236Y-60671428D02*
X146792426Y-60671428D01*
X146792426Y-60671428D02*
X146906712Y-60709523D01*
X146906712Y-60709523D02*
X147363855Y-61166666D01*
X147363855Y-61166666D02*
X147363855Y-60671428D01*
X147933332Y-38225760D02*
X148047618Y-38263855D01*
X148047618Y-38263855D02*
X148238094Y-38263855D01*
X148238094Y-38263855D02*
X148314285Y-38225760D01*
X148314285Y-38225760D02*
X148352380Y-38187664D01*
X148352380Y-38187664D02*
X148390475Y-38111474D01*
X148390475Y-38111474D02*
X148390475Y-38035283D01*
X148390475Y-38035283D02*
X148352380Y-37959093D01*
X148352380Y-37959093D02*
X148314285Y-37920998D01*
X148314285Y-37920998D02*
X148238094Y-37882902D01*
X148238094Y-37882902D02*
X148085713Y-37844807D01*
X148085713Y-37844807D02*
X148009523Y-37806712D01*
X148009523Y-37806712D02*
X147971428Y-37768617D01*
X147971428Y-37768617D02*
X147933332Y-37692426D01*
X147933332Y-37692426D02*
X147933332Y-37616236D01*
X147933332Y-37616236D02*
X147971428Y-37540045D01*
X147971428Y-37540045D02*
X148009523Y-37501950D01*
X148009523Y-37501950D02*
X148085713Y-37463855D01*
X148085713Y-37463855D02*
X148276190Y-37463855D01*
X148276190Y-37463855D02*
X148390475Y-37501950D01*
X148657142Y-37463855D02*
X148847618Y-38263855D01*
X148847618Y-38263855D02*
X148999999Y-37692426D01*
X148999999Y-37692426D02*
X149152380Y-38263855D01*
X149152380Y-38263855D02*
X149342857Y-37463855D01*
X149609523Y-37540045D02*
X149647619Y-37501950D01*
X149647619Y-37501950D02*
X149723809Y-37463855D01*
X149723809Y-37463855D02*
X149914285Y-37463855D01*
X149914285Y-37463855D02*
X149990476Y-37501950D01*
X149990476Y-37501950D02*
X150028571Y-37540045D01*
X150028571Y-37540045D02*
X150066666Y-37616236D01*
X150066666Y-37616236D02*
X150066666Y-37692426D01*
X150066666Y-37692426D02*
X150028571Y-37806712D01*
X150028571Y-37806712D02*
X149571428Y-38263855D01*
X149571428Y-38263855D02*
X150066666Y-38263855D01*
X138187664Y-46233332D02*
X138225760Y-46271428D01*
X138225760Y-46271428D02*
X138263855Y-46385713D01*
X138263855Y-46385713D02*
X138263855Y-46461904D01*
X138263855Y-46461904D02*
X138225760Y-46576190D01*
X138225760Y-46576190D02*
X138149569Y-46652380D01*
X138149569Y-46652380D02*
X138073379Y-46690475D01*
X138073379Y-46690475D02*
X137920998Y-46728571D01*
X137920998Y-46728571D02*
X137806712Y-46728571D01*
X137806712Y-46728571D02*
X137654331Y-46690475D01*
X137654331Y-46690475D02*
X137578140Y-46652380D01*
X137578140Y-46652380D02*
X137501950Y-46576190D01*
X137501950Y-46576190D02*
X137463855Y-46461904D01*
X137463855Y-46461904D02*
X137463855Y-46385713D01*
X137463855Y-46385713D02*
X137501950Y-46271428D01*
X137501950Y-46271428D02*
X137540045Y-46233332D01*
X137463855Y-45966666D02*
X137463855Y-45471428D01*
X137463855Y-45471428D02*
X137768617Y-45738094D01*
X137768617Y-45738094D02*
X137768617Y-45623809D01*
X137768617Y-45623809D02*
X137806712Y-45547618D01*
X137806712Y-45547618D02*
X137844807Y-45509523D01*
X137844807Y-45509523D02*
X137920998Y-45471428D01*
X137920998Y-45471428D02*
X138111474Y-45471428D01*
X138111474Y-45471428D02*
X138187664Y-45509523D01*
X138187664Y-45509523D02*
X138225760Y-45547618D01*
X138225760Y-45547618D02*
X138263855Y-45623809D01*
X138263855Y-45623809D02*
X138263855Y-45852380D01*
X138263855Y-45852380D02*
X138225760Y-45928571D01*
X138225760Y-45928571D02*
X138187664Y-45966666D01*
X130276190Y-97363855D02*
X130276190Y-96563855D01*
X130276190Y-96563855D02*
X130580952Y-96563855D01*
X130580952Y-96563855D02*
X130657142Y-96601950D01*
X130657142Y-96601950D02*
X130695237Y-96640045D01*
X130695237Y-96640045D02*
X130733333Y-96716236D01*
X130733333Y-96716236D02*
X130733333Y-96830521D01*
X130733333Y-96830521D02*
X130695237Y-96906712D01*
X130695237Y-96906712D02*
X130657142Y-96944807D01*
X130657142Y-96944807D02*
X130580952Y-96982902D01*
X130580952Y-96982902D02*
X130276190Y-96982902D01*
X131190475Y-97363855D02*
X131114285Y-97325760D01*
X131114285Y-97325760D02*
X131076190Y-97287664D01*
X131076190Y-97287664D02*
X131038094Y-97211474D01*
X131038094Y-97211474D02*
X131038094Y-96982902D01*
X131038094Y-96982902D02*
X131076190Y-96906712D01*
X131076190Y-96906712D02*
X131114285Y-96868617D01*
X131114285Y-96868617D02*
X131190475Y-96830521D01*
X131190475Y-96830521D02*
X131304761Y-96830521D01*
X131304761Y-96830521D02*
X131380952Y-96868617D01*
X131380952Y-96868617D02*
X131419047Y-96906712D01*
X131419047Y-96906712D02*
X131457142Y-96982902D01*
X131457142Y-96982902D02*
X131457142Y-97211474D01*
X131457142Y-97211474D02*
X131419047Y-97287664D01*
X131419047Y-97287664D02*
X131380952Y-97325760D01*
X131380952Y-97325760D02*
X131304761Y-97363855D01*
X131304761Y-97363855D02*
X131190475Y-97363855D01*
X131914285Y-97363855D02*
X131838095Y-97325760D01*
X131838095Y-97325760D02*
X131800000Y-97249569D01*
X131800000Y-97249569D02*
X131800000Y-96563855D01*
X132142857Y-96830521D02*
X132333333Y-97363855D01*
X132523810Y-96830521D02*
X132333333Y-97363855D01*
X132333333Y-97363855D02*
X132257143Y-97554331D01*
X132257143Y-97554331D02*
X132219048Y-97592426D01*
X132219048Y-97592426D02*
X132142857Y-97630521D01*
X132714286Y-96830521D02*
X133019048Y-96830521D01*
X132828572Y-97363855D02*
X132828572Y-96678140D01*
X132828572Y-96678140D02*
X132866667Y-96601950D01*
X132866667Y-96601950D02*
X132942857Y-96563855D01*
X132942857Y-96563855D02*
X133019048Y-96563855D01*
X133628572Y-96830521D02*
X133628572Y-97363855D01*
X133285715Y-96830521D02*
X133285715Y-97249569D01*
X133285715Y-97249569D02*
X133323810Y-97325760D01*
X133323810Y-97325760D02*
X133400000Y-97363855D01*
X133400000Y-97363855D02*
X133514286Y-97363855D01*
X133514286Y-97363855D02*
X133590477Y-97325760D01*
X133590477Y-97325760D02*
X133628572Y-97287664D01*
X133971429Y-97325760D02*
X134047620Y-97363855D01*
X134047620Y-97363855D02*
X134200001Y-97363855D01*
X134200001Y-97363855D02*
X134276191Y-97325760D01*
X134276191Y-97325760D02*
X134314287Y-97249569D01*
X134314287Y-97249569D02*
X134314287Y-97211474D01*
X134314287Y-97211474D02*
X134276191Y-97135283D01*
X134276191Y-97135283D02*
X134200001Y-97097188D01*
X134200001Y-97097188D02*
X134085715Y-97097188D01*
X134085715Y-97097188D02*
X134009525Y-97059093D01*
X134009525Y-97059093D02*
X133971429Y-96982902D01*
X133971429Y-96982902D02*
X133971429Y-96944807D01*
X133971429Y-96944807D02*
X134009525Y-96868617D01*
X134009525Y-96868617D02*
X134085715Y-96830521D01*
X134085715Y-96830521D02*
X134200001Y-96830521D01*
X134200001Y-96830521D02*
X134276191Y-96868617D01*
X134961906Y-97325760D02*
X134885715Y-97363855D01*
X134885715Y-97363855D02*
X134733334Y-97363855D01*
X134733334Y-97363855D02*
X134657144Y-97325760D01*
X134657144Y-97325760D02*
X134619048Y-97249569D01*
X134619048Y-97249569D02*
X134619048Y-96944807D01*
X134619048Y-96944807D02*
X134657144Y-96868617D01*
X134657144Y-96868617D02*
X134733334Y-96830521D01*
X134733334Y-96830521D02*
X134885715Y-96830521D01*
X134885715Y-96830521D02*
X134961906Y-96868617D01*
X134961906Y-96868617D02*
X135000001Y-96944807D01*
X135000001Y-96944807D02*
X135000001Y-97020998D01*
X135000001Y-97020998D02*
X134619048Y-97097188D01*
X135761905Y-97363855D02*
X135304762Y-97363855D01*
X135533334Y-97363855D02*
X135533334Y-96563855D01*
X135533334Y-96563855D02*
X135457143Y-96678140D01*
X135457143Y-96678140D02*
X135380953Y-96754331D01*
X135380953Y-96754331D02*
X135304762Y-96792426D01*
X154933332Y-38225760D02*
X155047618Y-38263855D01*
X155047618Y-38263855D02*
X155238094Y-38263855D01*
X155238094Y-38263855D02*
X155314285Y-38225760D01*
X155314285Y-38225760D02*
X155352380Y-38187664D01*
X155352380Y-38187664D02*
X155390475Y-38111474D01*
X155390475Y-38111474D02*
X155390475Y-38035283D01*
X155390475Y-38035283D02*
X155352380Y-37959093D01*
X155352380Y-37959093D02*
X155314285Y-37920998D01*
X155314285Y-37920998D02*
X155238094Y-37882902D01*
X155238094Y-37882902D02*
X155085713Y-37844807D01*
X155085713Y-37844807D02*
X155009523Y-37806712D01*
X155009523Y-37806712D02*
X154971428Y-37768617D01*
X154971428Y-37768617D02*
X154933332Y-37692426D01*
X154933332Y-37692426D02*
X154933332Y-37616236D01*
X154933332Y-37616236D02*
X154971428Y-37540045D01*
X154971428Y-37540045D02*
X155009523Y-37501950D01*
X155009523Y-37501950D02*
X155085713Y-37463855D01*
X155085713Y-37463855D02*
X155276190Y-37463855D01*
X155276190Y-37463855D02*
X155390475Y-37501950D01*
X155657142Y-37463855D02*
X155847618Y-38263855D01*
X155847618Y-38263855D02*
X155999999Y-37692426D01*
X155999999Y-37692426D02*
X156152380Y-38263855D01*
X156152380Y-38263855D02*
X156342857Y-37463855D01*
X157066666Y-38263855D02*
X156609523Y-38263855D01*
X156838095Y-38263855D02*
X156838095Y-37463855D01*
X156838095Y-37463855D02*
X156761904Y-37578140D01*
X156761904Y-37578140D02*
X156685714Y-37654331D01*
X156685714Y-37654331D02*
X156609523Y-37692426D01*
X130463855Y-56685714D02*
X130082902Y-56952381D01*
X130463855Y-57142857D02*
X129663855Y-57142857D01*
X129663855Y-57142857D02*
X129663855Y-56838095D01*
X129663855Y-56838095D02*
X129701950Y-56761905D01*
X129701950Y-56761905D02*
X129740045Y-56723810D01*
X129740045Y-56723810D02*
X129816236Y-56685714D01*
X129816236Y-56685714D02*
X129930521Y-56685714D01*
X129930521Y-56685714D02*
X130006712Y-56723810D01*
X130006712Y-56723810D02*
X130044807Y-56761905D01*
X130044807Y-56761905D02*
X130082902Y-56838095D01*
X130082902Y-56838095D02*
X130082902Y-57142857D01*
X129930521Y-56457143D02*
X129930521Y-56152381D01*
X129663855Y-56342857D02*
X130349569Y-56342857D01*
X130349569Y-56342857D02*
X130425760Y-56304762D01*
X130425760Y-56304762D02*
X130463855Y-56228572D01*
X130463855Y-56228572D02*
X130463855Y-56152381D01*
X130463855Y-55771429D02*
X130425760Y-55847619D01*
X130425760Y-55847619D02*
X130387664Y-55885714D01*
X130387664Y-55885714D02*
X130311474Y-55923810D01*
X130311474Y-55923810D02*
X130082902Y-55923810D01*
X130082902Y-55923810D02*
X130006712Y-55885714D01*
X130006712Y-55885714D02*
X129968617Y-55847619D01*
X129968617Y-55847619D02*
X129930521Y-55771429D01*
X129930521Y-55771429D02*
X129930521Y-55657143D01*
X129930521Y-55657143D02*
X129968617Y-55580952D01*
X129968617Y-55580952D02*
X130006712Y-55542857D01*
X130006712Y-55542857D02*
X130082902Y-55504762D01*
X130082902Y-55504762D02*
X130311474Y-55504762D01*
X130311474Y-55504762D02*
X130387664Y-55542857D01*
X130387664Y-55542857D02*
X130425760Y-55580952D01*
X130425760Y-55580952D02*
X130463855Y-55657143D01*
X130463855Y-55657143D02*
X130463855Y-55771429D01*
X129930521Y-55161904D02*
X130730521Y-55161904D01*
X129968617Y-55161904D02*
X129930521Y-55085714D01*
X129930521Y-55085714D02*
X129930521Y-54933333D01*
X129930521Y-54933333D02*
X129968617Y-54857142D01*
X129968617Y-54857142D02*
X130006712Y-54819047D01*
X130006712Y-54819047D02*
X130082902Y-54780952D01*
X130082902Y-54780952D02*
X130311474Y-54780952D01*
X130311474Y-54780952D02*
X130387664Y-54819047D01*
X130387664Y-54819047D02*
X130425760Y-54857142D01*
X130425760Y-54857142D02*
X130463855Y-54933333D01*
X130463855Y-54933333D02*
X130463855Y-55085714D01*
X130463855Y-55085714D02*
X130425760Y-55161904D01*
X130463855Y-54019047D02*
X130463855Y-54476190D01*
X130463855Y-54247618D02*
X129663855Y-54247618D01*
X129663855Y-54247618D02*
X129778140Y-54323809D01*
X129778140Y-54323809D02*
X129854331Y-54399999D01*
X129854331Y-54399999D02*
X129892426Y-54476190D01*
X138063855Y-54788152D02*
X137263855Y-54788152D01*
X137263855Y-54788152D02*
X137263855Y-54597676D01*
X137263855Y-54597676D02*
X137301950Y-54483390D01*
X137301950Y-54483390D02*
X137378140Y-54407200D01*
X137378140Y-54407200D02*
X137454331Y-54369105D01*
X137454331Y-54369105D02*
X137606712Y-54331009D01*
X137606712Y-54331009D02*
X137720998Y-54331009D01*
X137720998Y-54331009D02*
X137873379Y-54369105D01*
X137873379Y-54369105D02*
X137949569Y-54407200D01*
X137949569Y-54407200D02*
X138025760Y-54483390D01*
X138025760Y-54483390D02*
X138063855Y-54597676D01*
X138063855Y-54597676D02*
X138063855Y-54788152D01*
X137340045Y-54026248D02*
X137301950Y-53988152D01*
X137301950Y-53988152D02*
X137263855Y-53911962D01*
X137263855Y-53911962D02*
X137263855Y-53721486D01*
X137263855Y-53721486D02*
X137301950Y-53645295D01*
X137301950Y-53645295D02*
X137340045Y-53607200D01*
X137340045Y-53607200D02*
X137416236Y-53569105D01*
X137416236Y-53569105D02*
X137492426Y-53569105D01*
X137492426Y-53569105D02*
X137606712Y-53607200D01*
X137606712Y-53607200D02*
X138063855Y-54064343D01*
X138063855Y-54064343D02*
X138063855Y-53569105D01*
X150483855Y-63515655D02*
X150102902Y-63782322D01*
X150483855Y-63972798D02*
X149683855Y-63972798D01*
X149683855Y-63972798D02*
X149683855Y-63668036D01*
X149683855Y-63668036D02*
X149721950Y-63591846D01*
X149721950Y-63591846D02*
X149760045Y-63553751D01*
X149760045Y-63553751D02*
X149836236Y-63515655D01*
X149836236Y-63515655D02*
X149950521Y-63515655D01*
X149950521Y-63515655D02*
X150026712Y-63553751D01*
X150026712Y-63553751D02*
X150064807Y-63591846D01*
X150064807Y-63591846D02*
X150102902Y-63668036D01*
X150102902Y-63668036D02*
X150102902Y-63972798D01*
X149760045Y-63210894D02*
X149721950Y-63172798D01*
X149721950Y-63172798D02*
X149683855Y-63096608D01*
X149683855Y-63096608D02*
X149683855Y-62906132D01*
X149683855Y-62906132D02*
X149721950Y-62829941D01*
X149721950Y-62829941D02*
X149760045Y-62791846D01*
X149760045Y-62791846D02*
X149836236Y-62753751D01*
X149836236Y-62753751D02*
X149912426Y-62753751D01*
X149912426Y-62753751D02*
X150026712Y-62791846D01*
X150026712Y-62791846D02*
X150483855Y-63248989D01*
X150483855Y-63248989D02*
X150483855Y-62753751D01*
X134523810Y-49787664D02*
X134485714Y-49825760D01*
X134485714Y-49825760D02*
X134371429Y-49863855D01*
X134371429Y-49863855D02*
X134295238Y-49863855D01*
X134295238Y-49863855D02*
X134180952Y-49825760D01*
X134180952Y-49825760D02*
X134104762Y-49749569D01*
X134104762Y-49749569D02*
X134066667Y-49673379D01*
X134066667Y-49673379D02*
X134028571Y-49520998D01*
X134028571Y-49520998D02*
X134028571Y-49406712D01*
X134028571Y-49406712D02*
X134066667Y-49254331D01*
X134066667Y-49254331D02*
X134104762Y-49178140D01*
X134104762Y-49178140D02*
X134180952Y-49101950D01*
X134180952Y-49101950D02*
X134295238Y-49063855D01*
X134295238Y-49063855D02*
X134371429Y-49063855D01*
X134371429Y-49063855D02*
X134485714Y-49101950D01*
X134485714Y-49101950D02*
X134523810Y-49140045D01*
X135019048Y-49063855D02*
X135171429Y-49063855D01*
X135171429Y-49063855D02*
X135247619Y-49101950D01*
X135247619Y-49101950D02*
X135323810Y-49178140D01*
X135323810Y-49178140D02*
X135361905Y-49330521D01*
X135361905Y-49330521D02*
X135361905Y-49597188D01*
X135361905Y-49597188D02*
X135323810Y-49749569D01*
X135323810Y-49749569D02*
X135247619Y-49825760D01*
X135247619Y-49825760D02*
X135171429Y-49863855D01*
X135171429Y-49863855D02*
X135019048Y-49863855D01*
X135019048Y-49863855D02*
X134942857Y-49825760D01*
X134942857Y-49825760D02*
X134866667Y-49749569D01*
X134866667Y-49749569D02*
X134828571Y-49597188D01*
X134828571Y-49597188D02*
X134828571Y-49330521D01*
X134828571Y-49330521D02*
X134866667Y-49178140D01*
X134866667Y-49178140D02*
X134942857Y-49101950D01*
X134942857Y-49101950D02*
X135019048Y-49063855D01*
X135704762Y-49063855D02*
X135704762Y-49711474D01*
X135704762Y-49711474D02*
X135742857Y-49787664D01*
X135742857Y-49787664D02*
X135780952Y-49825760D01*
X135780952Y-49825760D02*
X135857143Y-49863855D01*
X135857143Y-49863855D02*
X136009524Y-49863855D01*
X136009524Y-49863855D02*
X136085714Y-49825760D01*
X136085714Y-49825760D02*
X136123809Y-49787664D01*
X136123809Y-49787664D02*
X136161905Y-49711474D01*
X136161905Y-49711474D02*
X136161905Y-49063855D01*
X136428571Y-49063855D02*
X136885714Y-49063855D01*
X136657142Y-49863855D02*
X136657142Y-49063855D01*
X137114285Y-49140045D02*
X137152381Y-49101950D01*
X137152381Y-49101950D02*
X137228571Y-49063855D01*
X137228571Y-49063855D02*
X137419047Y-49063855D01*
X137419047Y-49063855D02*
X137495238Y-49101950D01*
X137495238Y-49101950D02*
X137533333Y-49140045D01*
X137533333Y-49140045D02*
X137571428Y-49216236D01*
X137571428Y-49216236D02*
X137571428Y-49292426D01*
X137571428Y-49292426D02*
X137533333Y-49406712D01*
X137533333Y-49406712D02*
X137076190Y-49863855D01*
X137076190Y-49863855D02*
X137571428Y-49863855D01*
X156690476Y-44563855D02*
X156690476Y-45211474D01*
X156690476Y-45211474D02*
X156728571Y-45287664D01*
X156728571Y-45287664D02*
X156766666Y-45325760D01*
X156766666Y-45325760D02*
X156842857Y-45363855D01*
X156842857Y-45363855D02*
X156995238Y-45363855D01*
X156995238Y-45363855D02*
X157071428Y-45325760D01*
X157071428Y-45325760D02*
X157109523Y-45287664D01*
X157109523Y-45287664D02*
X157147619Y-45211474D01*
X157147619Y-45211474D02*
X157147619Y-44563855D01*
X157947618Y-45363855D02*
X157490475Y-45363855D01*
X157719047Y-45363855D02*
X157719047Y-44563855D01*
X157719047Y-44563855D02*
X157642856Y-44678140D01*
X157642856Y-44678140D02*
X157566666Y-44754331D01*
X157566666Y-44754331D02*
X157490475Y-44792426D01*
X150548214Y-70896178D02*
X150548214Y-70096178D01*
X151081547Y-70096178D02*
X151233928Y-70096178D01*
X151233928Y-70096178D02*
X151310118Y-70134273D01*
X151310118Y-70134273D02*
X151386309Y-70210463D01*
X151386309Y-70210463D02*
X151424404Y-70362844D01*
X151424404Y-70362844D02*
X151424404Y-70629511D01*
X151424404Y-70629511D02*
X151386309Y-70781892D01*
X151386309Y-70781892D02*
X151310118Y-70858083D01*
X151310118Y-70858083D02*
X151233928Y-70896178D01*
X151233928Y-70896178D02*
X151081547Y-70896178D01*
X151081547Y-70896178D02*
X151005356Y-70858083D01*
X151005356Y-70858083D02*
X150929166Y-70781892D01*
X150929166Y-70781892D02*
X150891070Y-70629511D01*
X150891070Y-70629511D02*
X150891070Y-70362844D01*
X150891070Y-70362844D02*
X150929166Y-70210463D01*
X150929166Y-70210463D02*
X151005356Y-70134273D01*
X151005356Y-70134273D02*
X151081547Y-70096178D01*
X151919642Y-70096178D02*
X151995832Y-70096178D01*
X151995832Y-70096178D02*
X152072023Y-70134273D01*
X152072023Y-70134273D02*
X152110118Y-70172368D01*
X152110118Y-70172368D02*
X152148213Y-70248559D01*
X152148213Y-70248559D02*
X152186308Y-70400940D01*
X152186308Y-70400940D02*
X152186308Y-70591416D01*
X152186308Y-70591416D02*
X152148213Y-70743797D01*
X152148213Y-70743797D02*
X152110118Y-70819987D01*
X152110118Y-70819987D02*
X152072023Y-70858083D01*
X152072023Y-70858083D02*
X151995832Y-70896178D01*
X151995832Y-70896178D02*
X151919642Y-70896178D01*
X151919642Y-70896178D02*
X151843451Y-70858083D01*
X151843451Y-70858083D02*
X151805356Y-70819987D01*
X151805356Y-70819987D02*
X151767261Y-70743797D01*
X151767261Y-70743797D02*
X151729165Y-70591416D01*
X151729165Y-70591416D02*
X151729165Y-70400940D01*
X151729165Y-70400940D02*
X151767261Y-70248559D01*
X151767261Y-70248559D02*
X151805356Y-70172368D01*
X151805356Y-70172368D02*
X151843451Y-70134273D01*
X151843451Y-70134273D02*
X151919642Y-70096178D01*
X152338690Y-70972368D02*
X152948213Y-70972368D01*
X153595833Y-70819987D02*
X153557737Y-70858083D01*
X153557737Y-70858083D02*
X153443452Y-70896178D01*
X153443452Y-70896178D02*
X153367261Y-70896178D01*
X153367261Y-70896178D02*
X153252975Y-70858083D01*
X153252975Y-70858083D02*
X153176785Y-70781892D01*
X153176785Y-70781892D02*
X153138690Y-70705702D01*
X153138690Y-70705702D02*
X153100594Y-70553321D01*
X153100594Y-70553321D02*
X153100594Y-70439035D01*
X153100594Y-70439035D02*
X153138690Y-70286654D01*
X153138690Y-70286654D02*
X153176785Y-70210463D01*
X153176785Y-70210463D02*
X153252975Y-70134273D01*
X153252975Y-70134273D02*
X153367261Y-70096178D01*
X153367261Y-70096178D02*
X153443452Y-70096178D01*
X153443452Y-70096178D02*
X153557737Y-70134273D01*
X153557737Y-70134273D02*
X153595833Y-70172368D01*
X153824404Y-70096178D02*
X154281547Y-70096178D01*
X154052975Y-70896178D02*
X154052975Y-70096178D01*
X155005357Y-70896178D02*
X154738690Y-70515225D01*
X154548214Y-70896178D02*
X154548214Y-70096178D01*
X154548214Y-70096178D02*
X154852976Y-70096178D01*
X154852976Y-70096178D02*
X154929166Y-70134273D01*
X154929166Y-70134273D02*
X154967261Y-70172368D01*
X154967261Y-70172368D02*
X155005357Y-70248559D01*
X155005357Y-70248559D02*
X155005357Y-70362844D01*
X155005357Y-70362844D02*
X154967261Y-70439035D01*
X154967261Y-70439035D02*
X154929166Y-70477130D01*
X154929166Y-70477130D02*
X154852976Y-70515225D01*
X154852976Y-70515225D02*
X154548214Y-70515225D01*
X155729166Y-70896178D02*
X155348214Y-70896178D01*
X155348214Y-70896178D02*
X155348214Y-70096178D01*
X156414880Y-70896178D02*
X155957737Y-70896178D01*
X156186309Y-70896178D02*
X156186309Y-70096178D01*
X156186309Y-70096178D02*
X156110118Y-70210463D01*
X156110118Y-70210463D02*
X156033928Y-70286654D01*
X156033928Y-70286654D02*
X155957737Y-70324749D01*
X157257738Y-70477130D02*
X157524404Y-70477130D01*
X157638690Y-70896178D02*
X157257738Y-70896178D01*
X157257738Y-70896178D02*
X157257738Y-70096178D01*
X157257738Y-70096178D02*
X157638690Y-70096178D01*
X157981548Y-70896178D02*
X157981548Y-70096178D01*
X157981548Y-70096178D02*
X158438691Y-70896178D01*
X158438691Y-70896178D02*
X158438691Y-70096178D01*
X158629167Y-70972368D02*
X159238690Y-70972368D01*
X159886310Y-70819987D02*
X159848214Y-70858083D01*
X159848214Y-70858083D02*
X159733929Y-70896178D01*
X159733929Y-70896178D02*
X159657738Y-70896178D01*
X159657738Y-70896178D02*
X159543452Y-70858083D01*
X159543452Y-70858083D02*
X159467262Y-70781892D01*
X159467262Y-70781892D02*
X159429167Y-70705702D01*
X159429167Y-70705702D02*
X159391071Y-70553321D01*
X159391071Y-70553321D02*
X159391071Y-70439035D01*
X159391071Y-70439035D02*
X159429167Y-70286654D01*
X159429167Y-70286654D02*
X159467262Y-70210463D01*
X159467262Y-70210463D02*
X159543452Y-70134273D01*
X159543452Y-70134273D02*
X159657738Y-70096178D01*
X159657738Y-70096178D02*
X159733929Y-70096178D01*
X159733929Y-70096178D02*
X159848214Y-70134273D01*
X159848214Y-70134273D02*
X159886310Y-70172368D01*
X160114881Y-70096178D02*
X160572024Y-70096178D01*
X160343452Y-70896178D02*
X160343452Y-70096178D01*
X161295834Y-70896178D02*
X161029167Y-70515225D01*
X160838691Y-70896178D02*
X160838691Y-70096178D01*
X160838691Y-70096178D02*
X161143453Y-70096178D01*
X161143453Y-70096178D02*
X161219643Y-70134273D01*
X161219643Y-70134273D02*
X161257738Y-70172368D01*
X161257738Y-70172368D02*
X161295834Y-70248559D01*
X161295834Y-70248559D02*
X161295834Y-70362844D01*
X161295834Y-70362844D02*
X161257738Y-70439035D01*
X161257738Y-70439035D02*
X161219643Y-70477130D01*
X161219643Y-70477130D02*
X161143453Y-70515225D01*
X161143453Y-70515225D02*
X160838691Y-70515225D01*
X162019643Y-70896178D02*
X161638691Y-70896178D01*
X161638691Y-70896178D02*
X161638691Y-70096178D01*
X162705357Y-70896178D02*
X162248214Y-70896178D01*
X162476786Y-70896178D02*
X162476786Y-70096178D01*
X162476786Y-70096178D02*
X162400595Y-70210463D01*
X162400595Y-70210463D02*
X162324405Y-70286654D01*
X162324405Y-70286654D02*
X162248214Y-70324749D01*
X143323810Y-47587664D02*
X143285714Y-47625760D01*
X143285714Y-47625760D02*
X143171429Y-47663855D01*
X143171429Y-47663855D02*
X143095238Y-47663855D01*
X143095238Y-47663855D02*
X142980952Y-47625760D01*
X142980952Y-47625760D02*
X142904762Y-47549569D01*
X142904762Y-47549569D02*
X142866667Y-47473379D01*
X142866667Y-47473379D02*
X142828571Y-47320998D01*
X142828571Y-47320998D02*
X142828571Y-47206712D01*
X142828571Y-47206712D02*
X142866667Y-47054331D01*
X142866667Y-47054331D02*
X142904762Y-46978140D01*
X142904762Y-46978140D02*
X142980952Y-46901950D01*
X142980952Y-46901950D02*
X143095238Y-46863855D01*
X143095238Y-46863855D02*
X143171429Y-46863855D01*
X143171429Y-46863855D02*
X143285714Y-46901950D01*
X143285714Y-46901950D02*
X143323810Y-46940045D01*
X143819048Y-46863855D02*
X143971429Y-46863855D01*
X143971429Y-46863855D02*
X144047619Y-46901950D01*
X144047619Y-46901950D02*
X144123810Y-46978140D01*
X144123810Y-46978140D02*
X144161905Y-47130521D01*
X144161905Y-47130521D02*
X144161905Y-47397188D01*
X144161905Y-47397188D02*
X144123810Y-47549569D01*
X144123810Y-47549569D02*
X144047619Y-47625760D01*
X144047619Y-47625760D02*
X143971429Y-47663855D01*
X143971429Y-47663855D02*
X143819048Y-47663855D01*
X143819048Y-47663855D02*
X143742857Y-47625760D01*
X143742857Y-47625760D02*
X143666667Y-47549569D01*
X143666667Y-47549569D02*
X143628571Y-47397188D01*
X143628571Y-47397188D02*
X143628571Y-47130521D01*
X143628571Y-47130521D02*
X143666667Y-46978140D01*
X143666667Y-46978140D02*
X143742857Y-46901950D01*
X143742857Y-46901950D02*
X143819048Y-46863855D01*
X144504762Y-46863855D02*
X144504762Y-47511474D01*
X144504762Y-47511474D02*
X144542857Y-47587664D01*
X144542857Y-47587664D02*
X144580952Y-47625760D01*
X144580952Y-47625760D02*
X144657143Y-47663855D01*
X144657143Y-47663855D02*
X144809524Y-47663855D01*
X144809524Y-47663855D02*
X144885714Y-47625760D01*
X144885714Y-47625760D02*
X144923809Y-47587664D01*
X144923809Y-47587664D02*
X144961905Y-47511474D01*
X144961905Y-47511474D02*
X144961905Y-46863855D01*
X145228571Y-46863855D02*
X145685714Y-46863855D01*
X145457142Y-47663855D02*
X145457142Y-46863855D01*
X146371428Y-47663855D02*
X145914285Y-47663855D01*
X146142857Y-47663855D02*
X146142857Y-46863855D01*
X146142857Y-46863855D02*
X146066666Y-46978140D01*
X146066666Y-46978140D02*
X145990476Y-47054331D01*
X145990476Y-47054331D02*
X145914285Y-47092426D01*
X162617664Y-63415655D02*
X162655760Y-63453751D01*
X162655760Y-63453751D02*
X162693855Y-63568036D01*
X162693855Y-63568036D02*
X162693855Y-63644227D01*
X162693855Y-63644227D02*
X162655760Y-63758513D01*
X162655760Y-63758513D02*
X162579569Y-63834703D01*
X162579569Y-63834703D02*
X162503379Y-63872798D01*
X162503379Y-63872798D02*
X162350998Y-63910894D01*
X162350998Y-63910894D02*
X162236712Y-63910894D01*
X162236712Y-63910894D02*
X162084331Y-63872798D01*
X162084331Y-63872798D02*
X162008140Y-63834703D01*
X162008140Y-63834703D02*
X161931950Y-63758513D01*
X161931950Y-63758513D02*
X161893855Y-63644227D01*
X161893855Y-63644227D02*
X161893855Y-63568036D01*
X161893855Y-63568036D02*
X161931950Y-63453751D01*
X161931950Y-63453751D02*
X161970045Y-63415655D01*
X162160521Y-62729941D02*
X162693855Y-62729941D01*
X161855760Y-62920417D02*
X162427188Y-63110894D01*
X162427188Y-63110894D02*
X162427188Y-62615655D01*
X141807664Y-62042856D02*
X141845760Y-62080952D01*
X141845760Y-62080952D02*
X141883855Y-62195237D01*
X141883855Y-62195237D02*
X141883855Y-62271428D01*
X141883855Y-62271428D02*
X141845760Y-62385714D01*
X141845760Y-62385714D02*
X141769569Y-62461904D01*
X141769569Y-62461904D02*
X141693379Y-62499999D01*
X141693379Y-62499999D02*
X141540998Y-62538095D01*
X141540998Y-62538095D02*
X141426712Y-62538095D01*
X141426712Y-62538095D02*
X141274331Y-62499999D01*
X141274331Y-62499999D02*
X141198140Y-62461904D01*
X141198140Y-62461904D02*
X141121950Y-62385714D01*
X141121950Y-62385714D02*
X141083855Y-62271428D01*
X141083855Y-62271428D02*
X141083855Y-62195237D01*
X141083855Y-62195237D02*
X141121950Y-62080952D01*
X141121950Y-62080952D02*
X141160045Y-62042856D01*
X141883855Y-61699999D02*
X141083855Y-61699999D01*
X141883855Y-61319047D02*
X141083855Y-61319047D01*
X141083855Y-61319047D02*
X141883855Y-60861904D01*
X141883855Y-60861904D02*
X141083855Y-60861904D01*
X141883855Y-60061905D02*
X141883855Y-60519048D01*
X141883855Y-60290476D02*
X141083855Y-60290476D01*
X141083855Y-60290476D02*
X141198140Y-60366667D01*
X141198140Y-60366667D02*
X141274331Y-60442857D01*
X141274331Y-60442857D02*
X141312426Y-60519048D01*
X162937664Y-92915655D02*
X162975760Y-92953751D01*
X162975760Y-92953751D02*
X163013855Y-93068036D01*
X163013855Y-93068036D02*
X163013855Y-93144227D01*
X163013855Y-93144227D02*
X162975760Y-93258513D01*
X162975760Y-93258513D02*
X162899569Y-93334703D01*
X162899569Y-93334703D02*
X162823379Y-93372798D01*
X162823379Y-93372798D02*
X162670998Y-93410894D01*
X162670998Y-93410894D02*
X162556712Y-93410894D01*
X162556712Y-93410894D02*
X162404331Y-93372798D01*
X162404331Y-93372798D02*
X162328140Y-93334703D01*
X162328140Y-93334703D02*
X162251950Y-93258513D01*
X162251950Y-93258513D02*
X162213855Y-93144227D01*
X162213855Y-93144227D02*
X162213855Y-93068036D01*
X162213855Y-93068036D02*
X162251950Y-92953751D01*
X162251950Y-92953751D02*
X162290045Y-92915655D01*
X163013855Y-92153751D02*
X163013855Y-92610894D01*
X163013855Y-92382322D02*
X162213855Y-92382322D01*
X162213855Y-92382322D02*
X162328140Y-92458513D01*
X162328140Y-92458513D02*
X162404331Y-92534703D01*
X162404331Y-92534703D02*
X162442426Y-92610894D01*
X143563855Y-55033333D02*
X143563855Y-55414285D01*
X143563855Y-55414285D02*
X142763855Y-55414285D01*
X143563855Y-54347619D02*
X143563855Y-54804762D01*
X143563855Y-54576190D02*
X142763855Y-54576190D01*
X142763855Y-54576190D02*
X142878140Y-54652381D01*
X142878140Y-54652381D02*
X142954331Y-54728571D01*
X142954331Y-54728571D02*
X142992426Y-54804762D01*
X153733855Y-63503155D02*
X153352902Y-63769822D01*
X153733855Y-63960298D02*
X152933855Y-63960298D01*
X152933855Y-63960298D02*
X152933855Y-63655536D01*
X152933855Y-63655536D02*
X152971950Y-63579346D01*
X152971950Y-63579346D02*
X153010045Y-63541251D01*
X153010045Y-63541251D02*
X153086236Y-63503155D01*
X153086236Y-63503155D02*
X153200521Y-63503155D01*
X153200521Y-63503155D02*
X153276712Y-63541251D01*
X153276712Y-63541251D02*
X153314807Y-63579346D01*
X153314807Y-63579346D02*
X153352902Y-63655536D01*
X153352902Y-63655536D02*
X153352902Y-63960298D01*
X152933855Y-63236489D02*
X152933855Y-62741251D01*
X152933855Y-62741251D02*
X153238617Y-63007917D01*
X153238617Y-63007917D02*
X153238617Y-62893632D01*
X153238617Y-62893632D02*
X153276712Y-62817441D01*
X153276712Y-62817441D02*
X153314807Y-62779346D01*
X153314807Y-62779346D02*
X153390998Y-62741251D01*
X153390998Y-62741251D02*
X153581474Y-62741251D01*
X153581474Y-62741251D02*
X153657664Y-62779346D01*
X153657664Y-62779346D02*
X153695760Y-62817441D01*
X153695760Y-62817441D02*
X153733855Y-62893632D01*
X153733855Y-62893632D02*
X153733855Y-63122203D01*
X153733855Y-63122203D02*
X153695760Y-63198394D01*
X153695760Y-63198394D02*
X153657664Y-63236489D01*
D12*
X151097619Y-76257142D02*
X151097619Y-75257142D01*
X151097619Y-75257142D02*
X151335714Y-75257142D01*
X151335714Y-75257142D02*
X151478571Y-75304761D01*
X151478571Y-75304761D02*
X151573809Y-75399999D01*
X151573809Y-75399999D02*
X151621428Y-75495237D01*
X151621428Y-75495237D02*
X151669047Y-75685713D01*
X151669047Y-75685713D02*
X151669047Y-75828570D01*
X151669047Y-75828570D02*
X151621428Y-76019046D01*
X151621428Y-76019046D02*
X151573809Y-76114284D01*
X151573809Y-76114284D02*
X151478571Y-76209523D01*
X151478571Y-76209523D02*
X151335714Y-76257142D01*
X151335714Y-76257142D02*
X151097619Y-76257142D01*
X152526190Y-76257142D02*
X152526190Y-75733332D01*
X152526190Y-75733332D02*
X152478571Y-75638094D01*
X152478571Y-75638094D02*
X152383333Y-75590475D01*
X152383333Y-75590475D02*
X152192857Y-75590475D01*
X152192857Y-75590475D02*
X152097619Y-75638094D01*
X152526190Y-76209523D02*
X152430952Y-76257142D01*
X152430952Y-76257142D02*
X152192857Y-76257142D01*
X152192857Y-76257142D02*
X152097619Y-76209523D01*
X152097619Y-76209523D02*
X152050000Y-76114284D01*
X152050000Y-76114284D02*
X152050000Y-76019046D01*
X152050000Y-76019046D02*
X152097619Y-75923808D01*
X152097619Y-75923808D02*
X152192857Y-75876189D01*
X152192857Y-75876189D02*
X152430952Y-75876189D01*
X152430952Y-75876189D02*
X152526190Y-75828570D01*
X152859524Y-75590475D02*
X153240476Y-75590475D01*
X153002381Y-75257142D02*
X153002381Y-76114284D01*
X153002381Y-76114284D02*
X153050000Y-76209523D01*
X153050000Y-76209523D02*
X153145238Y-76257142D01*
X153145238Y-76257142D02*
X153240476Y-76257142D01*
X154002381Y-76257142D02*
X154002381Y-75733332D01*
X154002381Y-75733332D02*
X153954762Y-75638094D01*
X153954762Y-75638094D02*
X153859524Y-75590475D01*
X153859524Y-75590475D02*
X153669048Y-75590475D01*
X153669048Y-75590475D02*
X153573810Y-75638094D01*
X154002381Y-76209523D02*
X153907143Y-76257142D01*
X153907143Y-76257142D02*
X153669048Y-76257142D01*
X153669048Y-76257142D02*
X153573810Y-76209523D01*
X153573810Y-76209523D02*
X153526191Y-76114284D01*
X153526191Y-76114284D02*
X153526191Y-76019046D01*
X153526191Y-76019046D02*
X153573810Y-75923808D01*
X153573810Y-75923808D02*
X153669048Y-75876189D01*
X153669048Y-75876189D02*
X153907143Y-75876189D01*
X153907143Y-75876189D02*
X154002381Y-75828570D01*
X151714762Y-77847142D02*
X152048095Y-78847142D01*
X152048095Y-78847142D02*
X152381428Y-77847142D01*
X152714762Y-78847142D02*
X152714762Y-77847142D01*
X153190952Y-78847142D02*
X153190952Y-77847142D01*
X153190952Y-77847142D02*
X153762380Y-78847142D01*
X153762380Y-78847142D02*
X153762380Y-77847142D01*
X152018095Y-80454761D02*
X151922857Y-80407142D01*
X151922857Y-80407142D02*
X151780000Y-80407142D01*
X151780000Y-80407142D02*
X151637143Y-80454761D01*
X151637143Y-80454761D02*
X151541905Y-80549999D01*
X151541905Y-80549999D02*
X151494286Y-80645237D01*
X151494286Y-80645237D02*
X151446667Y-80835713D01*
X151446667Y-80835713D02*
X151446667Y-80978570D01*
X151446667Y-80978570D02*
X151494286Y-81169046D01*
X151494286Y-81169046D02*
X151541905Y-81264284D01*
X151541905Y-81264284D02*
X151637143Y-81359523D01*
X151637143Y-81359523D02*
X151780000Y-81407142D01*
X151780000Y-81407142D02*
X151875238Y-81407142D01*
X151875238Y-81407142D02*
X152018095Y-81359523D01*
X152018095Y-81359523D02*
X152065714Y-81311903D01*
X152065714Y-81311903D02*
X152065714Y-80978570D01*
X152065714Y-80978570D02*
X151875238Y-80978570D01*
X152494286Y-81407142D02*
X152494286Y-80407142D01*
X152494286Y-80407142D02*
X153065714Y-81407142D01*
X153065714Y-81407142D02*
X153065714Y-80407142D01*
X153541905Y-81407142D02*
X153541905Y-80407142D01*
X153541905Y-80407142D02*
X153780000Y-80407142D01*
X153780000Y-80407142D02*
X153922857Y-80454761D01*
X153922857Y-80454761D02*
X154018095Y-80549999D01*
X154018095Y-80549999D02*
X154065714Y-80645237D01*
X154065714Y-80645237D02*
X154113333Y-80835713D01*
X154113333Y-80835713D02*
X154113333Y-80978570D01*
X154113333Y-80978570D02*
X154065714Y-81169046D01*
X154065714Y-81169046D02*
X154018095Y-81264284D01*
X154018095Y-81264284D02*
X153922857Y-81359523D01*
X153922857Y-81359523D02*
X153780000Y-81407142D01*
X153780000Y-81407142D02*
X153541905Y-81407142D01*
D14*
X142213855Y-69609523D02*
X142861474Y-69609523D01*
X142861474Y-69609523D02*
X142937664Y-69571428D01*
X142937664Y-69571428D02*
X142975760Y-69533333D01*
X142975760Y-69533333D02*
X143013855Y-69457142D01*
X143013855Y-69457142D02*
X143013855Y-69304761D01*
X143013855Y-69304761D02*
X142975760Y-69228571D01*
X142975760Y-69228571D02*
X142937664Y-69190476D01*
X142937664Y-69190476D02*
X142861474Y-69152380D01*
X142861474Y-69152380D02*
X142213855Y-69152380D01*
X142480521Y-68428571D02*
X143013855Y-68428571D01*
X142175760Y-68619047D02*
X142747188Y-68809524D01*
X142747188Y-68809524D02*
X142747188Y-68314285D01*
%TO.C,R0*%
X132265000Y-81627064D02*
X132265000Y-81172936D01*
X133735000Y-81627064D02*
X133735000Y-81172936D01*
%TO.C,R4*%
X157377500Y-63624547D02*
X157377500Y-63115099D01*
X158422500Y-63624547D02*
X158422500Y-63115099D01*
%TO.C,U3*%
X146840000Y-72532323D02*
X146840000Y-74332323D01*
X150060000Y-73532323D02*
X150060000Y-72732323D01*
X150060000Y-73532323D02*
X150060000Y-74332323D01*
X150340000Y-72472323D02*
X150010000Y-72232323D01*
X150340000Y-71992323D01*
X150340000Y-72472323D01*
G36*
X150340000Y-72472323D02*
G01*
X150010000Y-72232323D01*
X150340000Y-71992323D01*
X150340000Y-72472323D01*
G37*
%TO.C,D1*%
X132040000Y-75640000D02*
X132040000Y-78500000D01*
X133960000Y-75640000D02*
X132040000Y-75640000D01*
X133960000Y-78500000D02*
X133960000Y-75640000D01*
%TO.C,D_TVS1*%
X136350000Y-84810000D02*
X136350000Y-79300000D01*
X136350000Y-84810000D02*
X139650000Y-84810000D01*
X139650000Y-84810000D02*
X139650000Y-79300000D01*
%TO.C,R1*%
X147877500Y-63140099D02*
X147877500Y-63649547D01*
X148922500Y-63140099D02*
X148922500Y-63649547D01*
%TO.C,Rbot1*%
X133265000Y-55827064D02*
X133265000Y-55372936D01*
X134735000Y-55827064D02*
X134735000Y-55372936D01*
%TO.C,R5*%
X148727064Y-68097323D02*
X148272936Y-68097323D01*
X148727064Y-69567323D02*
X148272936Y-69567323D01*
%TO.C,C2*%
X144865000Y-61561252D02*
X144865000Y-61038748D01*
X146335000Y-61561252D02*
X146335000Y-61038748D01*
%TO.C,SW2*%
X146800000Y-36200000D02*
X146800000Y-36320000D01*
X146800000Y-37330000D02*
X146800000Y-38470000D01*
X146800000Y-39480000D02*
X146800000Y-39600000D01*
X146800000Y-39600000D02*
X151200000Y-39600000D01*
X151200000Y-36200000D02*
X146800000Y-36200000D01*
X151200000Y-36320000D02*
X151200000Y-36200000D01*
X151200000Y-38470000D02*
X151200000Y-37330000D01*
X151200000Y-39600000D02*
X151200000Y-39480000D01*
%TO.C,C3*%
X140138748Y-45365000D02*
X140661252Y-45365000D01*
X140138748Y-46835000D02*
X140661252Y-46835000D01*
%TO.C,Polyfuse1*%
X130330000Y-92703752D02*
X130330000Y-88296248D01*
X135670000Y-92703752D02*
X135670000Y-88296248D01*
%TO.C,SW1*%
X153800000Y-36200000D02*
X153800000Y-36320000D01*
X153800000Y-37330000D02*
X153800000Y-38470000D01*
X153800000Y-39480000D02*
X153800000Y-39600000D01*
X153800000Y-39600000D02*
X158200000Y-39600000D01*
X158200000Y-36200000D02*
X153800000Y-36200000D01*
X158200000Y-36320000D02*
X158200000Y-36200000D01*
X158200000Y-38470000D02*
X158200000Y-37330000D01*
X158200000Y-39600000D02*
X158200000Y-39480000D01*
%TO.C,Rtop1*%
X130865000Y-55827064D02*
X130865000Y-55372936D01*
X132335000Y-55827064D02*
X132335000Y-55372936D01*
%TO.C,D2*%
X136050000Y-57710000D02*
X136050000Y-52200000D01*
X136050000Y-57710000D02*
X139350000Y-57710000D01*
X139350000Y-57710000D02*
X139350000Y-52200000D01*
D15*
%TO.C,J1*%
X137100000Y-103082323D02*
X137100000Y-88782323D01*
X137100000Y-103082323D02*
X146100000Y-103082323D01*
X139150000Y-88782323D02*
X137100000Y-88782323D01*
X144050000Y-88782323D02*
X146100000Y-88782323D01*
X146100000Y-88782323D02*
X146100000Y-90032323D01*
X146100000Y-103082323D02*
X146100000Y-94532323D01*
X141700000Y-87282323D02*
G75*
G02*
X141500000Y-87282323I-100000J0D01*
G01*
X141500000Y-87282323D02*
G75*
G02*
X141700000Y-87282323I100000J0D01*
G01*
D14*
%TO.C,R2*%
X151027500Y-63637047D02*
X151027500Y-63127599D01*
X152072500Y-63637047D02*
X152072500Y-63127599D01*
%TO.C,COUT2*%
X140500000Y-51210000D02*
X147440000Y-51210000D01*
X147440000Y-47790000D02*
X140500000Y-47790000D01*
X147440000Y-51210000D02*
X147440000Y-47790000D01*
D16*
%TO.C,U1*%
X148300000Y-41022323D02*
X166300000Y-41022323D01*
X148300000Y-41442323D02*
X148300000Y-41022323D01*
X148300000Y-59492323D02*
X148300000Y-60222323D01*
X148300000Y-60222323D02*
X150815000Y-60222323D01*
X163785000Y-60222323D02*
X166300000Y-60222323D01*
X166300000Y-41022323D02*
X166300000Y-41442323D01*
X166300000Y-60222323D02*
X166300000Y-59492323D01*
D15*
X147400000Y-42212323D02*
G75*
G02*
X147200000Y-42212323I-100000J0D01*
G01*
X147200000Y-42212323D02*
G75*
G02*
X147400000Y-42212323I100000J0D01*
G01*
D14*
%TO.C,IO0_CTRL1*%
X153462500Y-66722323D02*
X152812500Y-66722323D01*
X153462500Y-66722323D02*
X154112500Y-66722323D01*
X153462500Y-69842323D02*
X152812500Y-69842323D01*
X153462500Y-69842323D02*
X154112500Y-69842323D01*
X152300000Y-66772323D02*
X152060000Y-66442323D01*
X152540000Y-66442323D01*
X152300000Y-66772323D01*
G36*
X152300000Y-66772323D02*
G01*
X152060000Y-66442323D01*
X152540000Y-66442323D01*
X152300000Y-66772323D01*
G37*
%TO.C,EN_CTRL1*%
X159962500Y-66722323D02*
X159312500Y-66722323D01*
X159962500Y-66722323D02*
X160612500Y-66722323D01*
X159962500Y-69842323D02*
X159312500Y-69842323D01*
X159962500Y-69842323D02*
X160612500Y-69842323D01*
X158800000Y-66772323D02*
X158560000Y-66442323D01*
X159040000Y-66442323D01*
X158800000Y-66772323D01*
G36*
X158800000Y-66772323D02*
G01*
X158560000Y-66442323D01*
X159040000Y-66442323D01*
X158800000Y-66772323D01*
G37*
%TO.C,COUT1*%
X144861252Y-45365000D02*
X144338748Y-45365000D01*
X144861252Y-46835000D02*
X144338748Y-46835000D01*
%TO.C,C4*%
X160390000Y-63136056D02*
X160390000Y-63428590D01*
X161410000Y-63136056D02*
X161410000Y-63428590D01*
%TO.C,CIN1*%
X142465000Y-61561252D02*
X142465000Y-61038748D01*
X143935000Y-61561252D02*
X143935000Y-61038748D01*
%TO.C,C1*%
X155160000Y-94062323D02*
X151483000Y-94062323D01*
X155160000Y-94102323D02*
X151493000Y-94102323D01*
X155160000Y-94142323D02*
X151504000Y-94142323D01*
X155160000Y-94182323D02*
X151515000Y-94182323D01*
X155160000Y-94222323D02*
X151527000Y-94222323D01*
X155160000Y-94262323D02*
X151539000Y-94262323D01*
X155160000Y-94302323D02*
X151551000Y-94302323D01*
X155160000Y-94342323D02*
X151563000Y-94342323D01*
X155160000Y-94382323D02*
X151576000Y-94382323D01*
X155160000Y-94422323D02*
X151590000Y-94422323D01*
X155160000Y-94462323D02*
X151603000Y-94462323D01*
X155160000Y-94502323D02*
X151618000Y-94502323D01*
X155160000Y-94542323D02*
X151632000Y-94542323D01*
X155160000Y-94582323D02*
X151647000Y-94582323D01*
X155160000Y-94622323D02*
X151662000Y-94622323D01*
X155160000Y-94662323D02*
X151678000Y-94662323D01*
X155160000Y-94702323D02*
X151694000Y-94702323D01*
X155160000Y-94742323D02*
X151710000Y-94742323D01*
X155160000Y-94782323D02*
X151727000Y-94782323D01*
X155160000Y-94822323D02*
X151744000Y-94822323D01*
X155160000Y-94862323D02*
X151762000Y-94862323D01*
X155160000Y-94902323D02*
X151780000Y-94902323D01*
X155160000Y-94942323D02*
X151798000Y-94942323D01*
X155160000Y-94982323D02*
X151817000Y-94982323D01*
X155160000Y-95022323D02*
X151836000Y-95022323D01*
X155160000Y-95062323D02*
X151856000Y-95062323D01*
X155160000Y-95102323D02*
X151876000Y-95102323D01*
X155160000Y-95142323D02*
X151896000Y-95142323D01*
X155160000Y-95182323D02*
X151917000Y-95182323D01*
X155160000Y-95222323D02*
X151939000Y-95222323D01*
X155160000Y-95262323D02*
X151961000Y-95262323D01*
X155160000Y-95302323D02*
X151983000Y-95302323D01*
X155160000Y-95342323D02*
X152006000Y-95342323D01*
X155160000Y-95382323D02*
X152029000Y-95382323D01*
X155160000Y-95422323D02*
X152053000Y-95422323D01*
X155160000Y-95462323D02*
X152077000Y-95462323D01*
X155160000Y-95502323D02*
X152102000Y-95502323D01*
X155160000Y-95542323D02*
X152128000Y-95542323D01*
X155160000Y-95582323D02*
X152153000Y-95582323D01*
X155160000Y-95622323D02*
X152180000Y-95622323D01*
X155160000Y-95662323D02*
X152207000Y-95662323D01*
X155160000Y-95702323D02*
X152234000Y-95702323D01*
X155160000Y-95742323D02*
X152262000Y-95742323D01*
X155160000Y-95782323D02*
X152291000Y-95782323D01*
X155160000Y-95822323D02*
X152320000Y-95822323D01*
X155160000Y-95862323D02*
X152350000Y-95862323D01*
X155160000Y-95902323D02*
X152380000Y-95902323D01*
X155160000Y-95942323D02*
X152412000Y-95942323D01*
X155160000Y-95982323D02*
X152443000Y-95982323D01*
X155160000Y-96022323D02*
X152476000Y-96022323D01*
X155160000Y-96062323D02*
X152509000Y-96062323D01*
X155160000Y-96102323D02*
X152542000Y-96102323D01*
X155160000Y-96142323D02*
X152577000Y-96142323D01*
X155160000Y-96182323D02*
X152612000Y-96182323D01*
X155160000Y-96222323D02*
X152648000Y-96222323D01*
X155160000Y-96262323D02*
X152684000Y-96262323D01*
X155160000Y-96302323D02*
X152722000Y-96302323D01*
X155160000Y-96342323D02*
X152760000Y-96342323D01*
X155160000Y-96382323D02*
X152799000Y-96382323D01*
X155160000Y-96422323D02*
X152839000Y-96422323D01*
X155160000Y-96462323D02*
X152880000Y-96462323D01*
X155160000Y-96502323D02*
X152922000Y-96502323D01*
X156999000Y-97862323D02*
X155801000Y-97862323D01*
X157262000Y-97822323D02*
X155538000Y-97822323D01*
X157462000Y-97782323D02*
X155338000Y-97782323D01*
X157630000Y-97742323D02*
X155170000Y-97742323D01*
X157777000Y-97702323D02*
X155023000Y-97702323D01*
X157909000Y-97662323D02*
X154891000Y-97662323D01*
X158030000Y-97622323D02*
X154770000Y-97622323D01*
X158142000Y-97582323D02*
X154658000Y-97582323D01*
X158246000Y-97542323D02*
X154554000Y-97542323D01*
X158344000Y-97502323D02*
X154456000Y-97502323D01*
X158437000Y-97462323D02*
X154363000Y-97462323D01*
X158524000Y-97422323D02*
X154276000Y-97422323D01*
X158608000Y-97382323D02*
X154192000Y-97382323D01*
X158688000Y-97342323D02*
X154112000Y-97342323D01*
X158765000Y-97302323D02*
X154035000Y-97302323D01*
X158839000Y-97262323D02*
X153961000Y-97262323D01*
X158910000Y-97222323D02*
X153890000Y-97222323D01*
X158978000Y-97182323D02*
X153822000Y-97182323D01*
X159044000Y-97142323D02*
X153756000Y-97142323D01*
X159108000Y-97102323D02*
X153692000Y-97102323D01*
X159170000Y-97062323D02*
X153630000Y-97062323D01*
X159230000Y-97022323D02*
X153570000Y-97022323D01*
X159275000Y-87302677D02*
X159275000Y-88302677D01*
X159288000Y-96982323D02*
X153512000Y-96982323D01*
X159345000Y-96942323D02*
X153455000Y-96942323D01*
X159400000Y-96902323D02*
X153400000Y-96902323D01*
X159453000Y-96862323D02*
X153347000Y-96862323D01*
X159505000Y-96822323D02*
X153295000Y-96822323D01*
X159556000Y-96782323D02*
X153244000Y-96782323D01*
X159605000Y-96742323D02*
X153195000Y-96742323D01*
X159654000Y-96702323D02*
X153146000Y-96702323D01*
X159701000Y-96662323D02*
X153099000Y-96662323D01*
X159747000Y-96622323D02*
X153053000Y-96622323D01*
X159775000Y-87802677D02*
X158775000Y-87802677D01*
X159791000Y-96582323D02*
X153009000Y-96582323D01*
X159835000Y-96542323D02*
X152965000Y-96542323D01*
X159878000Y-96502323D02*
X157640000Y-96502323D01*
X159920000Y-96462323D02*
X157640000Y-96462323D01*
X159961000Y-96422323D02*
X157640000Y-96422323D01*
X160001000Y-96382323D02*
X157640000Y-96382323D01*
X160040000Y-96342323D02*
X157640000Y-96342323D01*
X160078000Y-96302323D02*
X157640000Y-96302323D01*
X160116000Y-96262323D02*
X157640000Y-96262323D01*
X160152000Y-96222323D02*
X157640000Y-96222323D01*
X160188000Y-96182323D02*
X157640000Y-96182323D01*
X160223000Y-96142323D02*
X157640000Y-96142323D01*
X160258000Y-96102323D02*
X157640000Y-96102323D01*
X160291000Y-96062323D02*
X157640000Y-96062323D01*
X160324000Y-96022323D02*
X157640000Y-96022323D01*
X160357000Y-95982323D02*
X157640000Y-95982323D01*
X160388000Y-95942323D02*
X157640000Y-95942323D01*
X160420000Y-95902323D02*
X157640000Y-95902323D01*
X160450000Y-95862323D02*
X157640000Y-95862323D01*
X160480000Y-95822323D02*
X157640000Y-95822323D01*
X160509000Y-95782323D02*
X157640000Y-95782323D01*
X160538000Y-95742323D02*
X157640000Y-95742323D01*
X160566000Y-95702323D02*
X157640000Y-95702323D01*
X160593000Y-95662323D02*
X157640000Y-95662323D01*
X160620000Y-95622323D02*
X157640000Y-95622323D01*
X160647000Y-95582323D02*
X157640000Y-95582323D01*
X160672000Y-95542323D02*
X157640000Y-95542323D01*
X160698000Y-95502323D02*
X157640000Y-95502323D01*
X160723000Y-95462323D02*
X157640000Y-95462323D01*
X160747000Y-95422323D02*
X157640000Y-95422323D01*
X160771000Y-95382323D02*
X157640000Y-95382323D01*
X160794000Y-95342323D02*
X157640000Y-95342323D01*
X160817000Y-95302323D02*
X157640000Y-95302323D01*
X160839000Y-95262323D02*
X157640000Y-95262323D01*
X160861000Y-95222323D02*
X157640000Y-95222323D01*
X160883000Y-95182323D02*
X157640000Y-95182323D01*
X160904000Y-95142323D02*
X157640000Y-95142323D01*
X160924000Y-95102323D02*
X157640000Y-95102323D01*
X160944000Y-95062323D02*
X157640000Y-95062323D01*
X160964000Y-95022323D02*
X157640000Y-95022323D01*
X160983000Y-94982323D02*
X157640000Y-94982323D01*
X161002000Y-94942323D02*
X157640000Y-94942323D01*
X161020000Y-94902323D02*
X157640000Y-94902323D01*
X161038000Y-94862323D02*
X157640000Y-94862323D01*
X161056000Y-94822323D02*
X157640000Y-94822323D01*
X161073000Y-94782323D02*
X157640000Y-94782323D01*
X161090000Y-94742323D02*
X157640000Y-94742323D01*
X161106000Y-94702323D02*
X157640000Y-94702323D01*
X161122000Y-94662323D02*
X157640000Y-94662323D01*
X161138000Y-94622323D02*
X157640000Y-94622323D01*
X161153000Y-94582323D02*
X157640000Y-94582323D01*
X161168000Y-94542323D02*
X157640000Y-94542323D01*
X161182000Y-94502323D02*
X157640000Y-94502323D01*
X161197000Y-94462323D02*
X157640000Y-94462323D01*
X161210000Y-94422323D02*
X157640000Y-94422323D01*
X161224000Y-94382323D02*
X157640000Y-94382323D01*
X161237000Y-94342323D02*
X157640000Y-94342323D01*
X161249000Y-94302323D02*
X157640000Y-94302323D01*
X161261000Y-94262323D02*
X157640000Y-94262323D01*
X161273000Y-94222323D02*
X157640000Y-94222323D01*
X161285000Y-94182323D02*
X157640000Y-94182323D01*
X161296000Y-94142323D02*
X157640000Y-94142323D01*
X161307000Y-94102323D02*
X157640000Y-94102323D01*
X161317000Y-94062323D02*
X157640000Y-94062323D01*
X161328000Y-94022323D02*
X151472000Y-94022323D01*
X161337000Y-93982323D02*
X151463000Y-93982323D01*
X161347000Y-93942323D02*
X151453000Y-93942323D01*
X161356000Y-93902323D02*
X151444000Y-93902323D01*
X161365000Y-93862323D02*
X151435000Y-93862323D01*
X161373000Y-93822323D02*
X151427000Y-93822323D01*
X161381000Y-93782323D02*
X151419000Y-93782323D01*
X161389000Y-93742323D02*
X151411000Y-93742323D01*
X161397000Y-93702323D02*
X151403000Y-93702323D01*
X161404000Y-93662323D02*
X151396000Y-93662323D01*
X161411000Y-93622323D02*
X151389000Y-93622323D01*
X161417000Y-93582323D02*
X151383000Y-93582323D01*
X161423000Y-93542323D02*
X151377000Y-93542323D01*
X161429000Y-93502323D02*
X151371000Y-93502323D01*
X161435000Y-93462323D02*
X151365000Y-93462323D01*
X161440000Y-93422323D02*
X151360000Y-93422323D01*
X161445000Y-93382323D02*
X151355000Y-93382323D01*
X161449000Y-93342323D02*
X151351000Y-93342323D01*
X161454000Y-93302323D02*
X151346000Y-93302323D01*
X161457000Y-93262323D02*
X151343000Y-93262323D01*
X161461000Y-93222323D02*
X151339000Y-93222323D01*
X161464000Y-93182323D02*
X151336000Y-93182323D01*
X161467000Y-93142323D02*
X151333000Y-93142323D01*
X161470000Y-93102323D02*
X151330000Y-93102323D01*
X161472000Y-93062323D02*
X151328000Y-93062323D01*
X161474000Y-93022323D02*
X151326000Y-93022323D01*
X161476000Y-92982323D02*
X151324000Y-92982323D01*
X161477000Y-92942323D02*
X151323000Y-92942323D01*
X161479000Y-92862323D02*
X151321000Y-92862323D01*
X161479000Y-92902323D02*
X151321000Y-92902323D01*
X161480000Y-92782323D02*
X151320000Y-92782323D01*
X161480000Y-92822323D02*
X151320000Y-92822323D01*
X161520000Y-92782323D02*
G75*
G02*
X151280000Y-92782323I-5120000J0D01*
G01*
X151280000Y-92782323D02*
G75*
G02*
X161520000Y-92782323I5120000J0D01*
G01*
%TO.C,L1*%
X140100000Y-51800000D02*
X140100000Y-52250000D01*
X140100000Y-51800000D02*
X146300000Y-51800000D01*
X140100000Y-58000000D02*
X140100000Y-57550000D01*
X146300000Y-51800000D02*
X146300000Y-52250000D01*
X146300000Y-58000000D02*
X140100000Y-58000000D01*
X146300000Y-58000000D02*
X146300000Y-57550000D01*
%TO.C,J3*%
X130400000Y-44162323D02*
X130400000Y-42782323D01*
X131780000Y-44162323D02*
X130400000Y-44162323D01*
X133050000Y-41402323D02*
X145860000Y-41402323D01*
X133050000Y-44162323D02*
X133050000Y-41402323D01*
X133050000Y-44162323D02*
X145860000Y-44162323D01*
X145860000Y-44162323D02*
X145860000Y-41402323D01*
%TO.C,R3*%
X154277500Y-63624547D02*
X154277500Y-63115099D01*
X155322500Y-63624547D02*
X155322500Y-63115099D01*
%TO.C,J2*%
D10*
X150730000Y-74892323D02*
X157870000Y-74892323D01*
X157870000Y-81962323D01*
X150730000Y-81962323D01*
X150730000Y-74892323D01*
D14*
%TO.C,U4*%
X130800000Y-64175000D02*
X131750000Y-64175000D01*
X130800000Y-65540000D02*
X130800000Y-64175000D01*
X141200000Y-64175000D02*
X140250000Y-64175000D01*
X141200000Y-65540000D02*
X141200000Y-64175000D01*
X140680000Y-61690000D02*
X140210000Y-61350000D01*
X140680000Y-61010000D01*
X140680000Y-61690000D01*
G36*
X140680000Y-61690000D02*
G01*
X140210000Y-61350000D01*
X140680000Y-61010000D01*
X140680000Y-61690000D01*
G37*
%TD*%
M02*
