M48
; DRILL file {KiCad 9.0.1} date 2026-02-13T16:53:11+0100
; FORMAT={-:-/ absolute / metric / decimal}
; #@! TF.CreationDate,2026-02-13T16:53:11+01:00
; #@! TF.GenerationSoftware,Kicad,Pcbnew,9.0.1
; #@! TF.FileFunction,Plated,1,2,PTH
FMAT,2
METRIC
; #@! TA.AperFunction,Plated,PTH,ViaDrill
T1C0.300
%
G90
G05
T1
X92.15Y-41.65
X92.15Y-55.7
X92.15Y-69.65
X92.15Y-83.65
X92.15Y-97.65
X92.15Y-111.65
X92.15Y-125.65
X93.05Y-58.3
X93.05Y-59.6
X93.05Y-72.4
X93.05Y-73.6
X93.05Y-114.4
X93.05Y-115.6
X93.1Y-44.4
X93.1Y-45.6
X93.1Y-86.4
X93.1Y-87.65
X93.1Y-100.4
X93.1Y-101.6
X93.1Y-128.4
X94.0Y-45.0
X94.0Y-59.0
X94.0Y-73.0
X94.0Y-87.0
X94.0Y-101.0
X94.0Y-115.0
X94.0Y-129.0
X95.137Y-132.0
X95.95Y-133.25
X98.0Y-45.0
X98.0Y-59.0
X98.0Y-73.0
X98.0Y-87.0
X98.0Y-101.0
X98.0Y-115.0
X98.0Y-129.0
X98.076Y-132.626
X98.75Y-129.8
X99.8Y-38.35
X99.8Y-52.35
X99.8Y-66.35
X99.8Y-80.35
X99.8Y-94.35
X99.8Y-108.35
X99.8Y-122.35
X99.8Y-131.75
M30
