%TF.GenerationSoftware,KiCad,Pcbnew,9.0.1*%
%TF.CreationDate,2026-02-13T16:53:08+01:00*%
%TF.ProjectId,Foglia_Led,466f676c-6961-45f4-9c65-642e6b696361,rev?*%
%TF.SameCoordinates,Original*%
%TF.FileFunction,Legend,Top*%
%TF.FilePolarity,Positive*%
%FSLAX46Y46*%
G04 Gerber Fmt 4.6, Leading zero omitted, Abs format (unit mm)*
G04 Created by KiCad (PCBNEW 9.0.1) date 2026-02-13 16:53:08*
%MOMM*%
%LPD*%
G01*
G04 APERTURE LIST*
%ADD10C,0.250000*%
%ADD11C,0.075000*%
%ADD12C,0.150000*%
%ADD13C,0.100000*%
%ADD14C,0.120000*%
G04 APERTURE END LIST*
D10*
X97997238Y-34811904D02*
X97949619Y-34907142D01*
X97949619Y-34907142D02*
X97949619Y-35049999D01*
X97949619Y-35049999D02*
X97997238Y-35192856D01*
X97997238Y-35192856D02*
X98092476Y-35288094D01*
X98092476Y-35288094D02*
X98187714Y-35335713D01*
X98187714Y-35335713D02*
X98378190Y-35383332D01*
X98378190Y-35383332D02*
X98521047Y-35383332D01*
X98521047Y-35383332D02*
X98711523Y-35335713D01*
X98711523Y-35335713D02*
X98806761Y-35288094D01*
X98806761Y-35288094D02*
X98902000Y-35192856D01*
X98902000Y-35192856D02*
X98949619Y-35049999D01*
X98949619Y-35049999D02*
X98949619Y-34954761D01*
X98949619Y-34954761D02*
X98902000Y-34811904D01*
X98902000Y-34811904D02*
X98854380Y-34764285D01*
X98854380Y-34764285D02*
X98521047Y-34764285D01*
X98521047Y-34764285D02*
X98521047Y-34954761D01*
X98949619Y-34335713D02*
X97949619Y-34335713D01*
X97949619Y-34335713D02*
X97949619Y-34097618D01*
X97949619Y-34097618D02*
X97997238Y-33954761D01*
X97997238Y-33954761D02*
X98092476Y-33859523D01*
X98092476Y-33859523D02*
X98187714Y-33811904D01*
X98187714Y-33811904D02*
X98378190Y-33764285D01*
X98378190Y-33764285D02*
X98521047Y-33764285D01*
X98521047Y-33764285D02*
X98711523Y-33811904D01*
X98711523Y-33811904D02*
X98806761Y-33859523D01*
X98806761Y-33859523D02*
X98902000Y-33954761D01*
X98902000Y-33954761D02*
X98949619Y-34097618D01*
X98949619Y-34097618D02*
X98949619Y-34335713D01*
X98949619Y-33335713D02*
X97949619Y-33335713D01*
X97949619Y-33335713D02*
X98949619Y-32764285D01*
X98949619Y-32764285D02*
X97949619Y-32764285D01*
X92899619Y-35145237D02*
X93899619Y-34811904D01*
X93899619Y-34811904D02*
X92899619Y-34478571D01*
X93899619Y-34145237D02*
X92899619Y-34145237D01*
X93899619Y-33669047D02*
X92899619Y-33669047D01*
X92899619Y-33669047D02*
X93899619Y-33097619D01*
X93899619Y-33097619D02*
X92899619Y-33097619D01*
X96499619Y-35549999D02*
X95499619Y-35549999D01*
X95499619Y-35549999D02*
X95499619Y-35311904D01*
X95499619Y-35311904D02*
X95547238Y-35169047D01*
X95547238Y-35169047D02*
X95642476Y-35073809D01*
X95642476Y-35073809D02*
X95737714Y-35026190D01*
X95737714Y-35026190D02*
X95928190Y-34978571D01*
X95928190Y-34978571D02*
X96071047Y-34978571D01*
X96071047Y-34978571D02*
X96261523Y-35026190D01*
X96261523Y-35026190D02*
X96356761Y-35073809D01*
X96356761Y-35073809D02*
X96452000Y-35169047D01*
X96452000Y-35169047D02*
X96499619Y-35311904D01*
X96499619Y-35311904D02*
X96499619Y-35549999D01*
X96213904Y-34597618D02*
X96213904Y-34121428D01*
X96499619Y-34692856D02*
X95499619Y-34359523D01*
X95499619Y-34359523D02*
X96499619Y-34026190D01*
X95499619Y-33835713D02*
X95499619Y-33264285D01*
X96499619Y-33549999D02*
X95499619Y-33549999D01*
X96213904Y-32978570D02*
X96213904Y-32502380D01*
X96499619Y-33073808D02*
X95499619Y-32740475D01*
X95499619Y-32740475D02*
X96499619Y-32407142D01*
D11*
X97042500Y-44066314D02*
X97028214Y-44080600D01*
X97028214Y-44080600D02*
X96985357Y-44094885D01*
X96985357Y-44094885D02*
X96956785Y-44094885D01*
X96956785Y-44094885D02*
X96913928Y-44080600D01*
X96913928Y-44080600D02*
X96885357Y-44052028D01*
X96885357Y-44052028D02*
X96871071Y-44023457D01*
X96871071Y-44023457D02*
X96856785Y-43966314D01*
X96856785Y-43966314D02*
X96856785Y-43923457D01*
X96856785Y-43923457D02*
X96871071Y-43866314D01*
X96871071Y-43866314D02*
X96885357Y-43837742D01*
X96885357Y-43837742D02*
X96913928Y-43809171D01*
X96913928Y-43809171D02*
X96956785Y-43794885D01*
X96956785Y-43794885D02*
X96985357Y-43794885D01*
X96985357Y-43794885D02*
X97028214Y-43809171D01*
X97028214Y-43809171D02*
X97042500Y-43823457D01*
X97328214Y-44094885D02*
X97156785Y-44094885D01*
X97242500Y-44094885D02*
X97242500Y-43794885D01*
X97242500Y-43794885D02*
X97213928Y-43837742D01*
X97213928Y-43837742D02*
X97185357Y-43866314D01*
X97185357Y-43866314D02*
X97156785Y-43880600D01*
D12*
X95211905Y-37054819D02*
X95211905Y-36054819D01*
X95211905Y-36054819D02*
X95450000Y-36054819D01*
X95450000Y-36054819D02*
X95592857Y-36102438D01*
X95592857Y-36102438D02*
X95688095Y-36197676D01*
X95688095Y-36197676D02*
X95735714Y-36292914D01*
X95735714Y-36292914D02*
X95783333Y-36483390D01*
X95783333Y-36483390D02*
X95783333Y-36626247D01*
X95783333Y-36626247D02*
X95735714Y-36816723D01*
X95735714Y-36816723D02*
X95688095Y-36911961D01*
X95688095Y-36911961D02*
X95592857Y-37007200D01*
X95592857Y-37007200D02*
X95450000Y-37054819D01*
X95450000Y-37054819D02*
X95211905Y-37054819D01*
X96735714Y-37054819D02*
X96164286Y-37054819D01*
X96450000Y-37054819D02*
X96450000Y-36054819D01*
X96450000Y-36054819D02*
X96354762Y-36197676D01*
X96354762Y-36197676D02*
X96259524Y-36292914D01*
X96259524Y-36292914D02*
X96164286Y-36340533D01*
X92928571Y-37212295D02*
X92471428Y-37212295D01*
X92700000Y-37212295D02*
X92700000Y-36412295D01*
X92700000Y-36412295D02*
X92623809Y-36526580D01*
X92623809Y-36526580D02*
X92547619Y-36602771D01*
X92547619Y-36602771D02*
X92471428Y-36640866D01*
X95261905Y-92954819D02*
X95261905Y-91954819D01*
X95261905Y-91954819D02*
X95500000Y-91954819D01*
X95500000Y-91954819D02*
X95642857Y-92002438D01*
X95642857Y-92002438D02*
X95738095Y-92097676D01*
X95738095Y-92097676D02*
X95785714Y-92192914D01*
X95785714Y-92192914D02*
X95833333Y-92383390D01*
X95833333Y-92383390D02*
X95833333Y-92526247D01*
X95833333Y-92526247D02*
X95785714Y-92716723D01*
X95785714Y-92716723D02*
X95738095Y-92811961D01*
X95738095Y-92811961D02*
X95642857Y-92907200D01*
X95642857Y-92907200D02*
X95500000Y-92954819D01*
X95500000Y-92954819D02*
X95261905Y-92954819D01*
X96738095Y-91954819D02*
X96261905Y-91954819D01*
X96261905Y-91954819D02*
X96214286Y-92431009D01*
X96214286Y-92431009D02*
X96261905Y-92383390D01*
X96261905Y-92383390D02*
X96357143Y-92335771D01*
X96357143Y-92335771D02*
X96595238Y-92335771D01*
X96595238Y-92335771D02*
X96690476Y-92383390D01*
X96690476Y-92383390D02*
X96738095Y-92431009D01*
X96738095Y-92431009D02*
X96785714Y-92526247D01*
X96785714Y-92526247D02*
X96785714Y-92764342D01*
X96785714Y-92764342D02*
X96738095Y-92859580D01*
X96738095Y-92859580D02*
X96690476Y-92907200D01*
X96690476Y-92907200D02*
X96595238Y-92954819D01*
X96595238Y-92954819D02*
X96357143Y-92954819D01*
X96357143Y-92954819D02*
X96261905Y-92907200D01*
X96261905Y-92907200D02*
X96214286Y-92859580D01*
X92978571Y-93262295D02*
X92521428Y-93262295D01*
X92750000Y-93262295D02*
X92750000Y-92462295D01*
X92750000Y-92462295D02*
X92673809Y-92576580D01*
X92673809Y-92576580D02*
X92597619Y-92652771D01*
X92597619Y-92652771D02*
X92521428Y-92690866D01*
D13*
X95933333Y-58041752D02*
X95914285Y-58060800D01*
X95914285Y-58060800D02*
X95857143Y-58079847D01*
X95857143Y-58079847D02*
X95819047Y-58079847D01*
X95819047Y-58079847D02*
X95761904Y-58060800D01*
X95761904Y-58060800D02*
X95723809Y-58022704D01*
X95723809Y-58022704D02*
X95704762Y-57984609D01*
X95704762Y-57984609D02*
X95685714Y-57908419D01*
X95685714Y-57908419D02*
X95685714Y-57851276D01*
X95685714Y-57851276D02*
X95704762Y-57775085D01*
X95704762Y-57775085D02*
X95723809Y-57736990D01*
X95723809Y-57736990D02*
X95761904Y-57698895D01*
X95761904Y-57698895D02*
X95819047Y-57679847D01*
X95819047Y-57679847D02*
X95857143Y-57679847D01*
X95857143Y-57679847D02*
X95914285Y-57698895D01*
X95914285Y-57698895D02*
X95933333Y-57717942D01*
X96085714Y-57717942D02*
X96104762Y-57698895D01*
X96104762Y-57698895D02*
X96142857Y-57679847D01*
X96142857Y-57679847D02*
X96238095Y-57679847D01*
X96238095Y-57679847D02*
X96276190Y-57698895D01*
X96276190Y-57698895D02*
X96295238Y-57717942D01*
X96295238Y-57717942D02*
X96314285Y-57756038D01*
X96314285Y-57756038D02*
X96314285Y-57794133D01*
X96314285Y-57794133D02*
X96295238Y-57851276D01*
X96295238Y-57851276D02*
X96066666Y-58079847D01*
X96066666Y-58079847D02*
X96314285Y-58079847D01*
D12*
X95261905Y-106954819D02*
X95261905Y-105954819D01*
X95261905Y-105954819D02*
X95500000Y-105954819D01*
X95500000Y-105954819D02*
X95642857Y-106002438D01*
X95642857Y-106002438D02*
X95738095Y-106097676D01*
X95738095Y-106097676D02*
X95785714Y-106192914D01*
X95785714Y-106192914D02*
X95833333Y-106383390D01*
X95833333Y-106383390D02*
X95833333Y-106526247D01*
X95833333Y-106526247D02*
X95785714Y-106716723D01*
X95785714Y-106716723D02*
X95738095Y-106811961D01*
X95738095Y-106811961D02*
X95642857Y-106907200D01*
X95642857Y-106907200D02*
X95500000Y-106954819D01*
X95500000Y-106954819D02*
X95261905Y-106954819D01*
X96690476Y-105954819D02*
X96500000Y-105954819D01*
X96500000Y-105954819D02*
X96404762Y-106002438D01*
X96404762Y-106002438D02*
X96357143Y-106050057D01*
X96357143Y-106050057D02*
X96261905Y-106192914D01*
X96261905Y-106192914D02*
X96214286Y-106383390D01*
X96214286Y-106383390D02*
X96214286Y-106764342D01*
X96214286Y-106764342D02*
X96261905Y-106859580D01*
X96261905Y-106859580D02*
X96309524Y-106907200D01*
X96309524Y-106907200D02*
X96404762Y-106954819D01*
X96404762Y-106954819D02*
X96595238Y-106954819D01*
X96595238Y-106954819D02*
X96690476Y-106907200D01*
X96690476Y-106907200D02*
X96738095Y-106859580D01*
X96738095Y-106859580D02*
X96785714Y-106764342D01*
X96785714Y-106764342D02*
X96785714Y-106526247D01*
X96785714Y-106526247D02*
X96738095Y-106431009D01*
X96738095Y-106431009D02*
X96690476Y-106383390D01*
X96690476Y-106383390D02*
X96595238Y-106335771D01*
X96595238Y-106335771D02*
X96404762Y-106335771D01*
X96404762Y-106335771D02*
X96309524Y-106383390D01*
X96309524Y-106383390D02*
X96261905Y-106431009D01*
X96261905Y-106431009D02*
X96214286Y-106526247D01*
X92978571Y-107262295D02*
X92521428Y-107262295D01*
X92750000Y-107262295D02*
X92750000Y-106462295D01*
X92750000Y-106462295D02*
X92673809Y-106576580D01*
X92673809Y-106576580D02*
X92597619Y-106652771D01*
X92597619Y-106652771D02*
X92521428Y-106690866D01*
D13*
X95716666Y-26007419D02*
X95716666Y-26721704D01*
X95716666Y-26721704D02*
X95669047Y-26864561D01*
X95669047Y-26864561D02*
X95573809Y-26959800D01*
X95573809Y-26959800D02*
X95430952Y-27007419D01*
X95430952Y-27007419D02*
X95335714Y-27007419D01*
X96716666Y-27007419D02*
X96145238Y-27007419D01*
X96430952Y-27007419D02*
X96430952Y-26007419D01*
X96430952Y-26007419D02*
X96335714Y-26150276D01*
X96335714Y-26150276D02*
X96240476Y-26245514D01*
X96240476Y-26245514D02*
X96145238Y-26293133D01*
D12*
X95261905Y-50954819D02*
X95261905Y-49954819D01*
X95261905Y-49954819D02*
X95500000Y-49954819D01*
X95500000Y-49954819D02*
X95642857Y-50002438D01*
X95642857Y-50002438D02*
X95738095Y-50097676D01*
X95738095Y-50097676D02*
X95785714Y-50192914D01*
X95785714Y-50192914D02*
X95833333Y-50383390D01*
X95833333Y-50383390D02*
X95833333Y-50526247D01*
X95833333Y-50526247D02*
X95785714Y-50716723D01*
X95785714Y-50716723D02*
X95738095Y-50811961D01*
X95738095Y-50811961D02*
X95642857Y-50907200D01*
X95642857Y-50907200D02*
X95500000Y-50954819D01*
X95500000Y-50954819D02*
X95261905Y-50954819D01*
X96214286Y-50050057D02*
X96261905Y-50002438D01*
X96261905Y-50002438D02*
X96357143Y-49954819D01*
X96357143Y-49954819D02*
X96595238Y-49954819D01*
X96595238Y-49954819D02*
X96690476Y-50002438D01*
X96690476Y-50002438D02*
X96738095Y-50050057D01*
X96738095Y-50050057D02*
X96785714Y-50145295D01*
X96785714Y-50145295D02*
X96785714Y-50240533D01*
X96785714Y-50240533D02*
X96738095Y-50383390D01*
X96738095Y-50383390D02*
X96166667Y-50954819D01*
X96166667Y-50954819D02*
X96785714Y-50954819D01*
X93003571Y-51237295D02*
X92546428Y-51237295D01*
X92775000Y-51237295D02*
X92775000Y-50437295D01*
X92775000Y-50437295D02*
X92698809Y-50551580D01*
X92698809Y-50551580D02*
X92622619Y-50627771D01*
X92622619Y-50627771D02*
X92546428Y-50665866D01*
X95833333Y-85929580D02*
X95785714Y-85977200D01*
X95785714Y-85977200D02*
X95642857Y-86024819D01*
X95642857Y-86024819D02*
X95547619Y-86024819D01*
X95547619Y-86024819D02*
X95404762Y-85977200D01*
X95404762Y-85977200D02*
X95309524Y-85881961D01*
X95309524Y-85881961D02*
X95261905Y-85786723D01*
X95261905Y-85786723D02*
X95214286Y-85596247D01*
X95214286Y-85596247D02*
X95214286Y-85453390D01*
X95214286Y-85453390D02*
X95261905Y-85262914D01*
X95261905Y-85262914D02*
X95309524Y-85167676D01*
X95309524Y-85167676D02*
X95404762Y-85072438D01*
X95404762Y-85072438D02*
X95547619Y-85024819D01*
X95547619Y-85024819D02*
X95642857Y-85024819D01*
X95642857Y-85024819D02*
X95785714Y-85072438D01*
X95785714Y-85072438D02*
X95833333Y-85120057D01*
X96690476Y-85358152D02*
X96690476Y-86024819D01*
X96452381Y-84977200D02*
X96214286Y-85691485D01*
X96214286Y-85691485D02*
X96833333Y-85691485D01*
X95833333Y-127929580D02*
X95785714Y-127977200D01*
X95785714Y-127977200D02*
X95642857Y-128024819D01*
X95642857Y-128024819D02*
X95547619Y-128024819D01*
X95547619Y-128024819D02*
X95404762Y-127977200D01*
X95404762Y-127977200D02*
X95309524Y-127881961D01*
X95309524Y-127881961D02*
X95261905Y-127786723D01*
X95261905Y-127786723D02*
X95214286Y-127596247D01*
X95214286Y-127596247D02*
X95214286Y-127453390D01*
X95214286Y-127453390D02*
X95261905Y-127262914D01*
X95261905Y-127262914D02*
X95309524Y-127167676D01*
X95309524Y-127167676D02*
X95404762Y-127072438D01*
X95404762Y-127072438D02*
X95547619Y-127024819D01*
X95547619Y-127024819D02*
X95642857Y-127024819D01*
X95642857Y-127024819D02*
X95785714Y-127072438D01*
X95785714Y-127072438D02*
X95833333Y-127120057D01*
X96166667Y-127024819D02*
X96833333Y-127024819D01*
X96833333Y-127024819D02*
X96404762Y-128024819D01*
X95833333Y-99929580D02*
X95785714Y-99977200D01*
X95785714Y-99977200D02*
X95642857Y-100024819D01*
X95642857Y-100024819D02*
X95547619Y-100024819D01*
X95547619Y-100024819D02*
X95404762Y-99977200D01*
X95404762Y-99977200D02*
X95309524Y-99881961D01*
X95309524Y-99881961D02*
X95261905Y-99786723D01*
X95261905Y-99786723D02*
X95214286Y-99596247D01*
X95214286Y-99596247D02*
X95214286Y-99453390D01*
X95214286Y-99453390D02*
X95261905Y-99262914D01*
X95261905Y-99262914D02*
X95309524Y-99167676D01*
X95309524Y-99167676D02*
X95404762Y-99072438D01*
X95404762Y-99072438D02*
X95547619Y-99024819D01*
X95547619Y-99024819D02*
X95642857Y-99024819D01*
X95642857Y-99024819D02*
X95785714Y-99072438D01*
X95785714Y-99072438D02*
X95833333Y-99120057D01*
X96738095Y-99024819D02*
X96261905Y-99024819D01*
X96261905Y-99024819D02*
X96214286Y-99501009D01*
X96214286Y-99501009D02*
X96261905Y-99453390D01*
X96261905Y-99453390D02*
X96357143Y-99405771D01*
X96357143Y-99405771D02*
X96595238Y-99405771D01*
X96595238Y-99405771D02*
X96690476Y-99453390D01*
X96690476Y-99453390D02*
X96738095Y-99501009D01*
X96738095Y-99501009D02*
X96785714Y-99596247D01*
X96785714Y-99596247D02*
X96785714Y-99834342D01*
X96785714Y-99834342D02*
X96738095Y-99929580D01*
X96738095Y-99929580D02*
X96690476Y-99977200D01*
X96690476Y-99977200D02*
X96595238Y-100024819D01*
X96595238Y-100024819D02*
X96357143Y-100024819D01*
X96357143Y-100024819D02*
X96261905Y-99977200D01*
X96261905Y-99977200D02*
X96214286Y-99929580D01*
X93028571Y-135687295D02*
X92571428Y-135687295D01*
X92800000Y-135687295D02*
X92800000Y-134887295D01*
X92800000Y-134887295D02*
X92723809Y-135001580D01*
X92723809Y-135001580D02*
X92647619Y-135077771D01*
X92647619Y-135077771D02*
X92571428Y-135115866D01*
X95261905Y-64954819D02*
X95261905Y-63954819D01*
X95261905Y-63954819D02*
X95500000Y-63954819D01*
X95500000Y-63954819D02*
X95642857Y-64002438D01*
X95642857Y-64002438D02*
X95738095Y-64097676D01*
X95738095Y-64097676D02*
X95785714Y-64192914D01*
X95785714Y-64192914D02*
X95833333Y-64383390D01*
X95833333Y-64383390D02*
X95833333Y-64526247D01*
X95833333Y-64526247D02*
X95785714Y-64716723D01*
X95785714Y-64716723D02*
X95738095Y-64811961D01*
X95738095Y-64811961D02*
X95642857Y-64907200D01*
X95642857Y-64907200D02*
X95500000Y-64954819D01*
X95500000Y-64954819D02*
X95261905Y-64954819D01*
X96166667Y-63954819D02*
X96785714Y-63954819D01*
X96785714Y-63954819D02*
X96452381Y-64335771D01*
X96452381Y-64335771D02*
X96595238Y-64335771D01*
X96595238Y-64335771D02*
X96690476Y-64383390D01*
X96690476Y-64383390D02*
X96738095Y-64431009D01*
X96738095Y-64431009D02*
X96785714Y-64526247D01*
X96785714Y-64526247D02*
X96785714Y-64764342D01*
X96785714Y-64764342D02*
X96738095Y-64859580D01*
X96738095Y-64859580D02*
X96690476Y-64907200D01*
X96690476Y-64907200D02*
X96595238Y-64954819D01*
X96595238Y-64954819D02*
X96309524Y-64954819D01*
X96309524Y-64954819D02*
X96214286Y-64907200D01*
X96214286Y-64907200D02*
X96166667Y-64859580D01*
X92928571Y-65162295D02*
X92471428Y-65162295D01*
X92700000Y-65162295D02*
X92700000Y-64362295D01*
X92700000Y-64362295D02*
X92623809Y-64476580D01*
X92623809Y-64476580D02*
X92547619Y-64552771D01*
X92547619Y-64552771D02*
X92471428Y-64590866D01*
X95261905Y-78954819D02*
X95261905Y-77954819D01*
X95261905Y-77954819D02*
X95500000Y-77954819D01*
X95500000Y-77954819D02*
X95642857Y-78002438D01*
X95642857Y-78002438D02*
X95738095Y-78097676D01*
X95738095Y-78097676D02*
X95785714Y-78192914D01*
X95785714Y-78192914D02*
X95833333Y-78383390D01*
X95833333Y-78383390D02*
X95833333Y-78526247D01*
X95833333Y-78526247D02*
X95785714Y-78716723D01*
X95785714Y-78716723D02*
X95738095Y-78811961D01*
X95738095Y-78811961D02*
X95642857Y-78907200D01*
X95642857Y-78907200D02*
X95500000Y-78954819D01*
X95500000Y-78954819D02*
X95261905Y-78954819D01*
X96690476Y-78288152D02*
X96690476Y-78954819D01*
X96452381Y-77907200D02*
X96214286Y-78621485D01*
X96214286Y-78621485D02*
X96833333Y-78621485D01*
X92978571Y-79262295D02*
X92521428Y-79262295D01*
X92750000Y-79262295D02*
X92750000Y-78462295D01*
X92750000Y-78462295D02*
X92673809Y-78576580D01*
X92673809Y-78576580D02*
X92597619Y-78652771D01*
X92597619Y-78652771D02*
X92521428Y-78690866D01*
X95833333Y-113929580D02*
X95785714Y-113977200D01*
X95785714Y-113977200D02*
X95642857Y-114024819D01*
X95642857Y-114024819D02*
X95547619Y-114024819D01*
X95547619Y-114024819D02*
X95404762Y-113977200D01*
X95404762Y-113977200D02*
X95309524Y-113881961D01*
X95309524Y-113881961D02*
X95261905Y-113786723D01*
X95261905Y-113786723D02*
X95214286Y-113596247D01*
X95214286Y-113596247D02*
X95214286Y-113453390D01*
X95214286Y-113453390D02*
X95261905Y-113262914D01*
X95261905Y-113262914D02*
X95309524Y-113167676D01*
X95309524Y-113167676D02*
X95404762Y-113072438D01*
X95404762Y-113072438D02*
X95547619Y-113024819D01*
X95547619Y-113024819D02*
X95642857Y-113024819D01*
X95642857Y-113024819D02*
X95785714Y-113072438D01*
X95785714Y-113072438D02*
X95833333Y-113120057D01*
X96690476Y-113024819D02*
X96500000Y-113024819D01*
X96500000Y-113024819D02*
X96404762Y-113072438D01*
X96404762Y-113072438D02*
X96357143Y-113120057D01*
X96357143Y-113120057D02*
X96261905Y-113262914D01*
X96261905Y-113262914D02*
X96214286Y-113453390D01*
X96214286Y-113453390D02*
X96214286Y-113834342D01*
X96214286Y-113834342D02*
X96261905Y-113929580D01*
X96261905Y-113929580D02*
X96309524Y-113977200D01*
X96309524Y-113977200D02*
X96404762Y-114024819D01*
X96404762Y-114024819D02*
X96595238Y-114024819D01*
X96595238Y-114024819D02*
X96690476Y-113977200D01*
X96690476Y-113977200D02*
X96738095Y-113929580D01*
X96738095Y-113929580D02*
X96785714Y-113834342D01*
X96785714Y-113834342D02*
X96785714Y-113596247D01*
X96785714Y-113596247D02*
X96738095Y-113501009D01*
X96738095Y-113501009D02*
X96690476Y-113453390D01*
X96690476Y-113453390D02*
X96595238Y-113405771D01*
X96595238Y-113405771D02*
X96404762Y-113405771D01*
X96404762Y-113405771D02*
X96309524Y-113453390D01*
X96309524Y-113453390D02*
X96261905Y-113501009D01*
X96261905Y-113501009D02*
X96214286Y-113596247D01*
X95833333Y-71929580D02*
X95785714Y-71977200D01*
X95785714Y-71977200D02*
X95642857Y-72024819D01*
X95642857Y-72024819D02*
X95547619Y-72024819D01*
X95547619Y-72024819D02*
X95404762Y-71977200D01*
X95404762Y-71977200D02*
X95309524Y-71881961D01*
X95309524Y-71881961D02*
X95261905Y-71786723D01*
X95261905Y-71786723D02*
X95214286Y-71596247D01*
X95214286Y-71596247D02*
X95214286Y-71453390D01*
X95214286Y-71453390D02*
X95261905Y-71262914D01*
X95261905Y-71262914D02*
X95309524Y-71167676D01*
X95309524Y-71167676D02*
X95404762Y-71072438D01*
X95404762Y-71072438D02*
X95547619Y-71024819D01*
X95547619Y-71024819D02*
X95642857Y-71024819D01*
X95642857Y-71024819D02*
X95785714Y-71072438D01*
X95785714Y-71072438D02*
X95833333Y-71120057D01*
X96166667Y-71024819D02*
X96785714Y-71024819D01*
X96785714Y-71024819D02*
X96452381Y-71405771D01*
X96452381Y-71405771D02*
X96595238Y-71405771D01*
X96595238Y-71405771D02*
X96690476Y-71453390D01*
X96690476Y-71453390D02*
X96738095Y-71501009D01*
X96738095Y-71501009D02*
X96785714Y-71596247D01*
X96785714Y-71596247D02*
X96785714Y-71834342D01*
X96785714Y-71834342D02*
X96738095Y-71929580D01*
X96738095Y-71929580D02*
X96690476Y-71977200D01*
X96690476Y-71977200D02*
X96595238Y-72024819D01*
X96595238Y-72024819D02*
X96309524Y-72024819D01*
X96309524Y-72024819D02*
X96214286Y-71977200D01*
X96214286Y-71977200D02*
X96166667Y-71929580D01*
X95261905Y-120954819D02*
X95261905Y-119954819D01*
X95261905Y-119954819D02*
X95500000Y-119954819D01*
X95500000Y-119954819D02*
X95642857Y-120002438D01*
X95642857Y-120002438D02*
X95738095Y-120097676D01*
X95738095Y-120097676D02*
X95785714Y-120192914D01*
X95785714Y-120192914D02*
X95833333Y-120383390D01*
X95833333Y-120383390D02*
X95833333Y-120526247D01*
X95833333Y-120526247D02*
X95785714Y-120716723D01*
X95785714Y-120716723D02*
X95738095Y-120811961D01*
X95738095Y-120811961D02*
X95642857Y-120907200D01*
X95642857Y-120907200D02*
X95500000Y-120954819D01*
X95500000Y-120954819D02*
X95261905Y-120954819D01*
X96166667Y-119954819D02*
X96833333Y-119954819D01*
X96833333Y-119954819D02*
X96404762Y-120954819D01*
X92978571Y-121262295D02*
X92521428Y-121262295D01*
X92750000Y-121262295D02*
X92750000Y-120462295D01*
X92750000Y-120462295D02*
X92673809Y-120576580D01*
X92673809Y-120576580D02*
X92597619Y-120652771D01*
X92597619Y-120652771D02*
X92521428Y-120690866D01*
D14*
%TO.C,C1*%
X95853733Y-44490000D02*
X96146267Y-44490000D01*
X95853733Y-45510000D02*
X96146267Y-45510000D01*
%TO.C,D1*%
X92500000Y-37250000D02*
X92500000Y-42750000D01*
X92500000Y-37250000D02*
X99500000Y-37250000D01*
X92500000Y-42750000D02*
X99050000Y-42750000D01*
X93300000Y-40900000D02*
X93300000Y-39100000D01*
X98700000Y-40900000D02*
X98700000Y-39100000D01*
X99050000Y-42750000D02*
X99500000Y-42300000D01*
X99500000Y-42300000D02*
X99500000Y-37250000D01*
%TO.C,D5*%
X92500000Y-93250000D02*
X92500000Y-98750000D01*
X92500000Y-93250000D02*
X99500000Y-93250000D01*
X92500000Y-98750000D02*
X99050000Y-98750000D01*
X93300000Y-96900000D02*
X93300000Y-95100000D01*
X98700000Y-96900000D02*
X98700000Y-95100000D01*
X99050000Y-98750000D02*
X99500000Y-98300000D01*
X99500000Y-98300000D02*
X99500000Y-93250000D01*
%TO.C,C2*%
X95853733Y-58490000D02*
X96146267Y-58490000D01*
X95853733Y-59510000D02*
X96146267Y-59510000D01*
%TO.C,D6*%
X92500000Y-107250000D02*
X92500000Y-112750000D01*
X92500000Y-107250000D02*
X99500000Y-107250000D01*
X92500000Y-112750000D02*
X99050000Y-112750000D01*
X93300000Y-110900000D02*
X93300000Y-109100000D01*
X98700000Y-110900000D02*
X98700000Y-109100000D01*
X99050000Y-112750000D02*
X99500000Y-112300000D01*
X99500000Y-112300000D02*
X99500000Y-107250000D01*
%TO.C,J1*%
D13*
X92450000Y-27550000D02*
X99600000Y-27550000D01*
X99600000Y-32050000D01*
X92450000Y-32050000D01*
X92450000Y-27550000D01*
D14*
%TO.C,D2*%
X92500000Y-51250000D02*
X92500000Y-56750000D01*
X92500000Y-51250000D02*
X99500000Y-51250000D01*
X92500000Y-56750000D02*
X99050000Y-56750000D01*
X93300000Y-54900000D02*
X93300000Y-53100000D01*
X98700000Y-54900000D02*
X98700000Y-53100000D01*
X99050000Y-56750000D02*
X99500000Y-56300000D01*
X99500000Y-56300000D02*
X99500000Y-51250000D01*
%TO.C,C4*%
X95853733Y-86490000D02*
X96146267Y-86490000D01*
X95853733Y-87510000D02*
X96146267Y-87510000D01*
%TO.C,C7*%
X95853733Y-128490000D02*
X96146267Y-128490000D01*
X95853733Y-129510000D02*
X96146267Y-129510000D01*
%TO.C,C5*%
X95853733Y-100490000D02*
X96146267Y-100490000D01*
X95853733Y-101510000D02*
X96146267Y-101510000D01*
%TO.C,D8*%
X93250000Y-135975000D02*
X93250000Y-133625000D01*
X93250000Y-135975000D02*
X98750000Y-135975000D01*
X96900000Y-134975000D02*
X95100000Y-134975000D01*
X98300000Y-133625000D02*
X93250000Y-133625000D01*
X98750000Y-134075000D02*
X98300000Y-133625000D01*
X98750000Y-135975000D02*
X98750000Y-134075000D01*
%TO.C,D3*%
X92500000Y-65250000D02*
X92500000Y-70750000D01*
X92500000Y-65250000D02*
X99500000Y-65250000D01*
X92500000Y-70750000D02*
X99050000Y-70750000D01*
X93300000Y-68900000D02*
X93300000Y-67100000D01*
X98700000Y-68900000D02*
X98700000Y-67100000D01*
X99050000Y-70750000D02*
X99500000Y-70300000D01*
X99500000Y-70300000D02*
X99500000Y-65250000D01*
%TO.C,D4*%
X92500000Y-79250000D02*
X92500000Y-84750000D01*
X92500000Y-79250000D02*
X99500000Y-79250000D01*
X92500000Y-84750000D02*
X99050000Y-84750000D01*
X93300000Y-82900000D02*
X93300000Y-81100000D01*
X98700000Y-82900000D02*
X98700000Y-81100000D01*
X99050000Y-84750000D02*
X99500000Y-84300000D01*
X99500000Y-84300000D02*
X99500000Y-79250000D01*
%TO.C,C6*%
X95853733Y-114490000D02*
X96146267Y-114490000D01*
X95853733Y-115510000D02*
X96146267Y-115510000D01*
%TO.C,C3*%
X95853733Y-72490000D02*
X96146267Y-72490000D01*
X95853733Y-73510000D02*
X96146267Y-73510000D01*
%TO.C,D7*%
X92500000Y-121250000D02*
X92500000Y-126750000D01*
X92500000Y-121250000D02*
X99500000Y-121250000D01*
X92500000Y-126750000D02*
X99050000Y-126750000D01*
X93300000Y-124900000D02*
X93300000Y-123100000D01*
X98700000Y-124900000D02*
X98700000Y-123100000D01*
X99050000Y-126750000D02*
X99500000Y-126300000D01*
X99500000Y-126300000D02*
X99500000Y-121250000D01*
%TD*%
M02*
