%TF.GenerationSoftware,KiCad,Pcbnew,9.0.1*%
%TF.CreationDate,2026-02-13T16:53:08+01:00*%
%TF.ProjectId,Foglia_Led,466f676c-6961-45f4-9c65-642e6b696361,rev?*%
%TF.SameCoordinates,Original*%
%TF.FileFunction,Copper,L1,Top*%
%TF.FilePolarity,Positive*%
%FSLAX46Y46*%
G04 Gerber Fmt 4.6, Leading zero omitted, Abs format (unit mm)*
G04 Created by KiCad (PCBNEW 9.0.1) date 2026-02-13 16:53:08*
%MOMM*%
%LPD*%
G01*
G04 APERTURE LIST*
G04 Aperture macros list*
%AMRoundRect*
0 Rectangle with rounded corners*
0 $1 Rounding radius*
0 $2 $3 $4 $5 $6 $7 $8 $9 X,Y pos of 4 corners*
0 Add a 4 corners polygon primitive as box body*
4,1,4,$2,$3,$4,$5,$6,$7,$8,$9,$2,$3,0*
0 Add four circle primitives for the rounded corners*
1,1,$1+$1,$2,$3*
1,1,$1+$1,$4,$5*
1,1,$1+$1,$6,$7*
1,1,$1+$1,$8,$9*
0 Add four rect primitives between the rounded corners*
20,1,$1+$1,$2,$3,$4,$5,0*
20,1,$1+$1,$4,$5,$6,$7,0*
20,1,$1+$1,$6,$7,$8,$9,0*
20,1,$1+$1,$8,$9,$2,$3,0*%
G04 Aperture macros list end*
%TA.AperFunction,SMDPad,CuDef*%
%ADD10RoundRect,0.237500X-0.300000X-0.237500X0.300000X-0.237500X0.300000X0.237500X-0.300000X0.237500X0*%
%TD*%
%TA.AperFunction,SMDPad,CuDef*%
%ADD11RoundRect,0.090000X-0.660000X-0.360000X0.660000X-0.360000X0.660000X0.360000X-0.660000X0.360000X0*%
%TD*%
%TA.AperFunction,SMDPad,CuDef*%
%ADD12RoundRect,0.130125X-0.303625X1.683000X-0.303625X-1.683000X0.303625X-1.683000X0.303625X1.683000X0*%
%TD*%
%TA.AperFunction,SMDPad,CuDef*%
%ADD13RoundRect,0.090000X0.360000X-0.760000X0.360000X0.760000X-0.360000X0.760000X-0.360000X-0.760000X0*%
%TD*%
%TA.AperFunction,ViaPad*%
%ADD14C,0.600000*%
%TD*%
%TA.AperFunction,Conductor*%
%ADD15C,0.200000*%
%TD*%
G04 APERTURE END LIST*
D10*
%TO.P,C1,1*%
%TO.N,+5V*%
X95137500Y-45000000D03*
%TO.P,C1,2*%
%TO.N,GND*%
X96862500Y-45000000D03*
%TD*%
D11*
%TO.P,D1,1,VDD*%
%TO.N,+5V*%
X93550000Y-38350000D03*
%TO.P,D1,2,DOUT*%
%TO.N,Net-(D1-DOUT)*%
X93550000Y-41650000D03*
%TO.P,D1,3,VSS*%
%TO.N,GND*%
X98450000Y-41650000D03*
%TO.P,D1,4,DIN*%
%TO.N,/Data*%
X98450000Y-38350000D03*
%TD*%
%TO.P,D5,1,VDD*%
%TO.N,+5V*%
X93550000Y-94350000D03*
%TO.P,D5,2,DOUT*%
%TO.N,Net-(D5-DOUT)*%
X93550000Y-97650000D03*
%TO.P,D5,3,VSS*%
%TO.N,GND*%
X98450000Y-97650000D03*
%TO.P,D5,4,DIN*%
%TO.N,Net-(D4-DOUT)*%
X98450000Y-94350000D03*
%TD*%
D10*
%TO.P,C2,1*%
%TO.N,+5V*%
X95137500Y-59000000D03*
%TO.P,C2,2*%
%TO.N,GND*%
X96862500Y-59000000D03*
%TD*%
D11*
%TO.P,D6,1,VDD*%
%TO.N,+5V*%
X93550000Y-108350000D03*
%TO.P,D6,2,DOUT*%
%TO.N,Net-(D6-DOUT)*%
X93550000Y-111650000D03*
%TO.P,D6,3,VSS*%
%TO.N,GND*%
X98450000Y-111650000D03*
%TO.P,D6,4,DIN*%
%TO.N,Net-(D5-DOUT)*%
X98450000Y-108350000D03*
%TD*%
D12*
%TO.P,J1,1,Pin_1*%
%TO.N,+5V*%
X93450000Y-29800000D03*
%TO.P,J1,2,Pin_2*%
%TO.N,/Data*%
X96050000Y-29850000D03*
%TO.P,J1,3,Pin_3*%
%TO.N,GND*%
X98500000Y-29850000D03*
%TD*%
D11*
%TO.P,D2,1,VDD*%
%TO.N,+5V*%
X93550000Y-52350000D03*
%TO.P,D2,2,DOUT*%
%TO.N,Net-(D2-DOUT)*%
X93550000Y-55650000D03*
%TO.P,D2,3,VSS*%
%TO.N,GND*%
X98450000Y-55650000D03*
%TO.P,D2,4,DIN*%
%TO.N,Net-(D1-DOUT)*%
X98450000Y-52350000D03*
%TD*%
D10*
%TO.P,C4,1*%
%TO.N,+5V*%
X95137500Y-87000000D03*
%TO.P,C4,2*%
%TO.N,GND*%
X96862500Y-87000000D03*
%TD*%
%TO.P,C7,1*%
%TO.N,+5V*%
X95137500Y-129000000D03*
%TO.P,C7,2*%
%TO.N,GND*%
X96862500Y-129000000D03*
%TD*%
%TO.P,C5,1*%
%TO.N,+5V*%
X95137500Y-101000000D03*
%TO.P,C5,2*%
%TO.N,GND*%
X96862500Y-101000000D03*
%TD*%
D13*
%TO.P,D8,1,VDD*%
%TO.N,+5V*%
X94350000Y-135025000D03*
%TO.P,D8,2,DOUT*%
%TO.N,Net-(D8-DOUT)*%
X97650000Y-135025000D03*
%TD*%
D11*
%TO.P,D3,1,VDD*%
%TO.N,+5V*%
X93550000Y-66350000D03*
%TO.P,D3,2,DOUT*%
%TO.N,Net-(D3-DOUT)*%
X93550000Y-69650000D03*
%TO.P,D3,3,VSS*%
%TO.N,GND*%
X98450000Y-69650000D03*
%TO.P,D3,4,DIN*%
%TO.N,Net-(D2-DOUT)*%
X98450000Y-66350000D03*
%TD*%
%TO.P,D4,1,VDD*%
%TO.N,+5V*%
X93550000Y-80350000D03*
%TO.P,D4,2,DOUT*%
%TO.N,Net-(D4-DOUT)*%
X93550000Y-83650000D03*
%TO.P,D4,3,VSS*%
%TO.N,GND*%
X98450000Y-83650000D03*
%TO.P,D4,4,DIN*%
%TO.N,Net-(D3-DOUT)*%
X98450000Y-80350000D03*
%TD*%
D10*
%TO.P,C6,1*%
%TO.N,+5V*%
X95137500Y-115000000D03*
%TO.P,C6,2*%
%TO.N,GND*%
X96862500Y-115000000D03*
%TD*%
%TO.P,C3,1*%
%TO.N,+5V*%
X95137500Y-73000000D03*
%TO.P,C3,2*%
%TO.N,GND*%
X96862500Y-73000000D03*
%TD*%
D11*
%TO.P,D7,1,VDD*%
%TO.N,+5V*%
X93550000Y-122350000D03*
%TO.P,D7,2,DOUT*%
%TO.N,Net-(D7-DOUT)*%
X93550000Y-125650000D03*
%TO.P,D7,3,VSS*%
%TO.N,GND*%
X98450000Y-125650000D03*
%TO.P,D7,4,DIN*%
%TO.N,Net-(D6-DOUT)*%
X98450000Y-122350000D03*
%TD*%
D14*
%TO.N,GND*%
X98000000Y-45000000D03*
X99800000Y-52350000D03*
X99800000Y-122350000D03*
X99800000Y-66350000D03*
X98000000Y-59000000D03*
X98000000Y-87000000D03*
X99800000Y-108350000D03*
X99800000Y-94350000D03*
X98000000Y-101000000D03*
X98000000Y-129000000D03*
X99800000Y-80350000D03*
X99800000Y-38350000D03*
X98000000Y-73000000D03*
X99800000Y-131750000D03*
X98000000Y-115000000D03*
%TO.N,+5V*%
X94000000Y-129000000D03*
X92150000Y-55700000D03*
X94000000Y-59000000D03*
X92150000Y-97650000D03*
X92150000Y-83650000D03*
X92150000Y-41650000D03*
X94000000Y-115000000D03*
X94000000Y-101000000D03*
X95137500Y-132000000D03*
X92150000Y-69650000D03*
X94000000Y-87000000D03*
X92150000Y-111650000D03*
X92150000Y-125650000D03*
X94000000Y-45000000D03*
X94000000Y-73000000D03*
%TO.N,Net-(D1-DOUT)*%
X93100000Y-45600000D03*
X93100000Y-44400000D03*
%TO.N,Net-(D2-DOUT)*%
X93050000Y-58300000D03*
X93050000Y-59600000D03*
%TO.N,Net-(D3-DOUT)*%
X93050000Y-73600000D03*
X93050000Y-72400000D03*
%TO.N,Net-(D4-DOUT)*%
X93100000Y-86400000D03*
X93100000Y-87650000D03*
%TO.N,Net-(D5-DOUT)*%
X93100000Y-101600000D03*
X93100000Y-100400000D03*
%TO.N,Net-(D6-DOUT)*%
X93050000Y-114400000D03*
X93050000Y-115600000D03*
%TO.N,Net-(D7-DOUT)*%
X95950000Y-133250000D03*
X93100000Y-128400000D03*
%TO.N,Net-(D8-DOUT)*%
X98075735Y-132625735D03*
X98750000Y-129800000D03*
%TD*%
D15*
%TO.N,GND*%
X98450000Y-41650000D02*
X99750000Y-41650000D01*
X96862500Y-87000000D02*
X98000000Y-87000000D01*
X99800000Y-97550000D02*
X99800000Y-100800000D01*
X99750000Y-41650000D02*
X99800000Y-41700000D01*
X96862500Y-73000000D02*
X98000000Y-73000000D01*
X99700000Y-97650000D02*
X99800000Y-97550000D01*
X99800000Y-41700000D02*
X99800000Y-45000000D01*
X99800000Y-66350000D02*
X99800000Y-69650000D01*
X99800000Y-108350000D02*
X99800000Y-111700000D01*
X99750000Y-115000000D02*
X99800000Y-114950000D01*
X98000000Y-115000000D02*
X99750000Y-115000000D01*
X99800000Y-73000000D02*
X99800000Y-80350000D01*
X99750000Y-111650000D02*
X99800000Y-111700000D01*
X98450000Y-125650000D02*
X99800000Y-125650000D01*
X99800000Y-55550000D02*
X99800000Y-59000000D01*
X99800000Y-38350000D02*
X99800000Y-41700000D01*
X99800000Y-122350000D02*
X99800000Y-125650000D01*
X99800000Y-59000000D02*
X99800000Y-66350000D01*
X99800000Y-45000000D02*
X99800000Y-52350000D01*
X99800000Y-52350000D02*
X99800000Y-55550000D01*
X98000000Y-73000000D02*
X99800000Y-73000000D01*
X98500000Y-29850000D02*
X98500000Y-34800000D01*
X98500000Y-34800000D02*
X99800000Y-36100000D01*
X99800000Y-80350000D02*
X99800000Y-83650000D01*
X98450000Y-55650000D02*
X99700000Y-55650000D01*
X99800000Y-114950000D02*
X99800000Y-122350000D01*
X99750000Y-101000000D02*
X99800000Y-101050000D01*
X99800000Y-100800000D02*
X99800000Y-101050000D01*
X99800000Y-129000000D02*
X99800000Y-131750000D01*
X96862500Y-129000000D02*
X98000000Y-129000000D01*
X99800000Y-101050000D02*
X99800000Y-108350000D01*
X96862500Y-59000000D02*
X98000000Y-59000000D01*
X98000000Y-45000000D02*
X99800000Y-45000000D01*
X99700000Y-55650000D02*
X99800000Y-55550000D01*
X99800000Y-69650000D02*
X99800000Y-73000000D01*
X99800000Y-94350000D02*
X99800000Y-97550000D01*
X96862500Y-101000000D02*
X98000000Y-101000000D01*
X98000000Y-87000000D02*
X99800000Y-87000000D01*
X98000000Y-101000000D02*
X99750000Y-101000000D01*
X98000000Y-129000000D02*
X99800000Y-129000000D01*
X98450000Y-69650000D02*
X99800000Y-69650000D01*
X99800000Y-125650000D02*
X99800000Y-129000000D01*
X96862500Y-45000000D02*
X98000000Y-45000000D01*
X99800000Y-87000000D02*
X99800000Y-94350000D01*
X98000000Y-59000000D02*
X99800000Y-59000000D01*
X98450000Y-97650000D02*
X99700000Y-97650000D01*
X98450000Y-83650000D02*
X99800000Y-83650000D01*
X99800000Y-111700000D02*
X99800000Y-114950000D01*
X96862500Y-115000000D02*
X98000000Y-115000000D01*
X99800000Y-36100000D02*
X99800000Y-38350000D01*
X99800000Y-83650000D02*
X99800000Y-87000000D01*
X98450000Y-111650000D02*
X99750000Y-111650000D01*
%TO.N,+5V*%
X93550000Y-94350000D02*
X92150000Y-94350000D01*
X92150000Y-97650000D02*
X92150000Y-100900000D01*
X92150000Y-73000000D02*
X92150000Y-80350000D01*
X92150000Y-41650000D02*
X92150000Y-45000000D01*
X92150000Y-131350000D02*
X94487500Y-131350000D01*
X92150000Y-87000000D02*
X92150000Y-94350000D01*
X92200000Y-52350000D02*
X92150000Y-52300000D01*
X93550000Y-122350000D02*
X92200000Y-122350000D01*
X92200000Y-129000000D02*
X92150000Y-129050000D01*
X92150000Y-66400000D02*
X92150000Y-69650000D01*
X92150000Y-45000000D02*
X92150000Y-52300000D01*
X94000000Y-45000000D02*
X92150000Y-45000000D01*
X94487500Y-131350000D02*
X95137500Y-132000000D01*
X92150000Y-52300000D02*
X92150000Y-55700000D01*
X94000000Y-59000000D02*
X92150000Y-59000000D01*
X95137500Y-115000000D02*
X94000000Y-115000000D01*
X92250000Y-101000000D02*
X92150000Y-100900000D01*
X92150000Y-108300000D02*
X92150000Y-111650000D01*
X92150000Y-38400000D02*
X92150000Y-41650000D01*
X92150000Y-94350000D02*
X92150000Y-97650000D01*
X94000000Y-115000000D02*
X92200000Y-115000000D01*
X92150000Y-80350000D02*
X92150000Y-83650000D01*
X92150000Y-131700000D02*
X94350000Y-133900000D01*
X92150000Y-131350000D02*
X92150000Y-131700000D01*
X92200000Y-38350000D02*
X92150000Y-38400000D01*
X94350000Y-133900000D02*
X94350000Y-134925000D01*
X93550000Y-108350000D02*
X92200000Y-108350000D01*
X95137500Y-129000000D02*
X94000000Y-129000000D01*
X92150000Y-129050000D02*
X92150000Y-131350000D01*
X94000000Y-101000000D02*
X92250000Y-101000000D01*
X92200000Y-66350000D02*
X92150000Y-66400000D01*
X95137500Y-87000000D02*
X94000000Y-87000000D01*
X92150000Y-36150000D02*
X93450000Y-34850000D01*
X95137500Y-73000000D02*
X94000000Y-73000000D01*
X92150000Y-83650000D02*
X92150000Y-87000000D01*
X92200000Y-108350000D02*
X92150000Y-108300000D01*
X92200000Y-122350000D02*
X92150000Y-122400000D01*
X93550000Y-52350000D02*
X92200000Y-52350000D01*
X94000000Y-87000000D02*
X92150000Y-87000000D01*
X93550000Y-80350000D02*
X92150000Y-80350000D01*
X94000000Y-129000000D02*
X92200000Y-129000000D01*
X92150000Y-115050000D02*
X92150000Y-122400000D01*
X92150000Y-38400000D02*
X92150000Y-36150000D01*
X92150000Y-59000000D02*
X92150000Y-66400000D01*
X92150000Y-111650000D02*
X92150000Y-115050000D01*
X93550000Y-38350000D02*
X92200000Y-38350000D01*
X92150000Y-55700000D02*
X92150000Y-59000000D01*
X92200000Y-115000000D02*
X92150000Y-115050000D01*
X93550000Y-66350000D02*
X92200000Y-66350000D01*
X92150000Y-125650000D02*
X92150000Y-129050000D01*
X92150000Y-122400000D02*
X92150000Y-125650000D01*
X95137500Y-101000000D02*
X94000000Y-101000000D01*
X92150000Y-100900000D02*
X92150000Y-108300000D01*
X93450000Y-34850000D02*
X93450000Y-29800000D01*
X95137500Y-59000000D02*
X94000000Y-59000000D01*
X92150000Y-69650000D02*
X92150000Y-73000000D01*
X94000000Y-73000000D02*
X92150000Y-73000000D01*
X95137500Y-45000000D02*
X94000000Y-45000000D01*
%TO.N,/Data*%
X96000000Y-35900000D02*
X98450000Y-38350000D01*
X96000000Y-29800000D02*
X96000000Y-35900000D01*
%TO.N,Net-(D1-DOUT)*%
X93100000Y-42100000D02*
X93100000Y-44400000D01*
X93100000Y-47000000D02*
X98450000Y-52350000D01*
X93100000Y-45600000D02*
X93100000Y-47000000D01*
X93550000Y-41650000D02*
X93100000Y-42100000D01*
%TO.N,Net-(D2-DOUT)*%
X93050000Y-59600000D02*
X93050000Y-60950000D01*
X93050000Y-58300000D02*
X93050000Y-56150000D01*
X93050000Y-60950000D02*
X98450000Y-66350000D01*
X93050000Y-56150000D02*
X93550000Y-55650000D01*
%TO.N,Net-(D3-DOUT)*%
X93050000Y-73600000D02*
X93050000Y-74950000D01*
X93050000Y-70150000D02*
X93050000Y-72400000D01*
X93050000Y-74950000D02*
X98450000Y-80350000D01*
X93550000Y-69650000D02*
X93050000Y-70150000D01*
%TO.N,Net-(D4-DOUT)*%
X93100000Y-87650000D02*
X93100000Y-89000000D01*
X93100000Y-84100000D02*
X93100000Y-86400000D01*
X93550000Y-83650000D02*
X93100000Y-84100000D01*
X93100000Y-89000000D02*
X98450000Y-94350000D01*
%TO.N,Net-(D5-DOUT)*%
X93100000Y-101600000D02*
X93100000Y-103000000D01*
X93100000Y-103000000D02*
X98450000Y-108350000D01*
X93100000Y-98100000D02*
X93100000Y-100400000D01*
X93550000Y-97650000D02*
X93100000Y-98100000D01*
%TO.N,Net-(D6-DOUT)*%
X93050000Y-116950000D02*
X98450000Y-122350000D01*
X93550000Y-111650000D02*
X93050000Y-112150000D01*
X93050000Y-112150000D02*
X93050000Y-114400000D01*
X93050000Y-115600000D02*
X93050000Y-116950000D01*
%TO.N,Net-(D7-DOUT)*%
X95950000Y-133792100D02*
X97483900Y-135326000D01*
X97483900Y-135326000D02*
X97650000Y-135326000D01*
X95950000Y-133250000D02*
X95950000Y-133792100D01*
X93100000Y-126100000D02*
X93100000Y-128400000D01*
X93550000Y-125650000D02*
X93100000Y-126100000D01*
%TO.N,Net-(D8-DOUT)*%
X98075735Y-132625735D02*
X98750000Y-131951470D01*
X98750000Y-131951470D02*
X98750000Y-129800000D01*
%TD*%
M02*
