%TF.GenerationSoftware,KiCad,Pcbnew,9.0.1*%
%TF.CreationDate,2025-08-16T15:34:18+02:00*%
%TF.ProjectId,ESP32_LED_v2,45535033-325f-44c4-9544-5f76322e6b69,rev?*%
%TF.SameCoordinates,Original*%
%TF.FileFunction,Copper,L1,Top*%
%TF.FilePolarity,Positive*%
%FSLAX46Y46*%
G04 Gerber Fmt 4.6, Leading zero omitted, Abs format (unit mm)*
G04 Created by KiCad (PCBNEW 9.0.1) date 2025-08-16 15:34:18*
%MOMM*%
%LPD*%
G01*
G04 APERTURE LIST*
G04 Aperture macros list*
%AMRoundRect*
0 Rectangle with rounded corners*
0 $1 Rounding radius*
0 $2 $3 $4 $5 $6 $7 $8 $9 X,Y pos of 4 corners*
0 Add a 4 corners polygon primitive as box body*
4,1,4,$2,$3,$4,$5,$6,$7,$8,$9,$2,$3,0*
0 Add four circle primitives for the rounded corners*
1,1,$1+$1,$2,$3*
1,1,$1+$1,$4,$5*
1,1,$1+$1,$6,$7*
1,1,$1+$1,$8,$9*
0 Add four rect primitives between the rounded corners*
20,1,$1+$1,$2,$3,$4,$5,0*
20,1,$1+$1,$4,$5,$6,$7,0*
20,1,$1+$1,$6,$7,$8,$9,0*
20,1,$1+$1,$8,$9,$2,$3,0*%
G04 Aperture macros list end*
%TA.AperFunction,SMDPad,CuDef*%
%ADD10RoundRect,0.250001X0.462499X0.624999X-0.462499X0.624999X-0.462499X-0.624999X0.462499X-0.624999X0*%
%TD*%
%TA.AperFunction,SMDPad,CuDef*%
%ADD11RoundRect,0.250000X-0.450000X0.350000X-0.450000X-0.350000X0.450000X-0.350000X0.450000X0.350000X0*%
%TD*%
%TA.AperFunction,ComponentPad*%
%ADD12R,2.000000X2.000000*%
%TD*%
%TA.AperFunction,ComponentPad*%
%ADD13C,2.000000*%
%TD*%
%TA.AperFunction,SMDPad,CuDef*%
%ADD14RoundRect,0.250000X0.475000X-0.337500X0.475000X0.337500X-0.475000X0.337500X-0.475000X-0.337500X0*%
%TD*%
%TA.AperFunction,ComponentPad*%
%ADD15R,1.560000X1.560000*%
%TD*%
%TA.AperFunction,ComponentPad*%
%ADD16C,1.560000*%
%TD*%
%TA.AperFunction,ComponentPad*%
%ADD17O,2.000000X1.200000*%
%TD*%
%TA.AperFunction,SMDPad,CuDef*%
%ADD18RoundRect,0.250000X-0.350000X-0.450000X0.350000X-0.450000X0.350000X0.450000X-0.350000X0.450000X0*%
%TD*%
%TA.AperFunction,SMDPad,CuDef*%
%ADD19RoundRect,0.250000X0.650000X-1.000000X0.650000X1.000000X-0.650000X1.000000X-0.650000X-1.000000X0*%
%TD*%
%TA.AperFunction,SMDPad,CuDef*%
%ADD20RoundRect,0.250000X1.450000X-0.400000X1.450000X0.400000X-1.450000X0.400000X-1.450000X-0.400000X0*%
%TD*%
%TA.AperFunction,SMDPad,CuDef*%
%ADD21RoundRect,0.162500X-0.162500X0.617500X-0.162500X-0.617500X0.162500X-0.617500X0.162500X0.617500X0*%
%TD*%
%TA.AperFunction,ComponentPad*%
%ADD22O,4.400000X2.200000*%
%TD*%
%TA.AperFunction,ComponentPad*%
%ADD23O,4.000000X2.000000*%
%TD*%
%TA.AperFunction,ComponentPad*%
%ADD24O,2.000000X4.000000*%
%TD*%
%TA.AperFunction,ViaPad*%
%ADD25C,1.000000*%
%TD*%
%TA.AperFunction,ViaPad*%
%ADD26C,0.600000*%
%TD*%
%TA.AperFunction,Conductor*%
%ADD27C,6.000000*%
%TD*%
%TA.AperFunction,Conductor*%
%ADD28C,0.200000*%
%TD*%
%TA.AperFunction,Conductor*%
%ADD29C,2.000000*%
%TD*%
%TA.AperFunction,Conductor*%
%ADD30C,0.300000*%
%TD*%
%TA.AperFunction,Conductor*%
%ADD31C,3.500000*%
%TD*%
G04 APERTURE END LIST*
D10*
%TO.P,D1,1,K*%
%TO.N,Net-(D1-K)*%
X190520000Y-75820000D03*
%TO.P,D1,2,A*%
%TO.N,GND*%
X187545000Y-75820000D03*
%TD*%
D11*
%TO.P,R2,1*%
%TO.N,Net-(U2-13)*%
X211170000Y-77010000D03*
%TO.P,R2,2*%
%TO.N,Net-(R2-Pad2)*%
X211170000Y-79010000D03*
%TD*%
D12*
%TO.P,C1,1*%
%TO.N,+5V*%
X213650000Y-99890000D03*
D13*
%TO.P,C1,2*%
%TO.N,GND*%
X213650000Y-104890000D03*
%TD*%
D14*
%TO.P,C2,1*%
%TO.N,+5V*%
X196220000Y-79027500D03*
%TO.P,C2,2*%
%TO.N,GND*%
X196220000Y-76952500D03*
%TD*%
D15*
%TO.P,U2,1,3V3*%
%TO.N,unconnected-(U2-3V3-Pad1)*%
X175930000Y-70280000D03*
D16*
%TO.P,U2,2,EN*%
%TO.N,unconnected-(U2-EN-Pad2)*%
X178470000Y-70280000D03*
%TO.P,U2,3,VP*%
%TO.N,unconnected-(U2-VP-Pad3)*%
X181010000Y-70280000D03*
%TO.P,U2,4,VN*%
%TO.N,unconnected-(U2-VN-Pad4)*%
X183550000Y-70280000D03*
%TO.P,U2,5,34*%
%TO.N,unconnected-(U2-34-Pad5)*%
X186090000Y-70280000D03*
%TO.P,U2,6,35*%
%TO.N,unconnected-(U2-35-Pad6)*%
X188630000Y-70280000D03*
%TO.P,U2,7,32*%
%TO.N,unconnected-(U2-32-Pad7)*%
X191170000Y-70280000D03*
%TO.P,U2,8,33*%
%TO.N,unconnected-(U2-33-Pad8)*%
X193710000Y-70280000D03*
%TO.P,U2,9,25*%
%TO.N,unconnected-(U2-25-Pad9)*%
X196250000Y-70280000D03*
%TO.P,U2,10,26*%
%TO.N,unconnected-(U2-26-Pad10)*%
X198790000Y-70280000D03*
%TO.P,U2,11,27*%
%TO.N,unconnected-(U2-27-Pad11)*%
X201330000Y-70280000D03*
%TO.P,U2,12,14*%
%TO.N,unconnected-(U2-14-Pad12)*%
X203870000Y-70280000D03*
%TO.P,U2,13,12*%
%TO.N,unconnected-(U2-12-Pad13)*%
X206410000Y-70280000D03*
%TO.P,U2,14,GND*%
%TO.N,GND*%
X208950000Y-70280000D03*
%TO.P,U2,15,13*%
%TO.N,Net-(U2-13)*%
X211490000Y-70280000D03*
%TO.P,U2,16,D2*%
%TO.N,unconnected-(U2-D2-Pad16)*%
X214030000Y-70280000D03*
%TO.P,U2,17,D3*%
%TO.N,unconnected-(U2-D3-Pad17)*%
X216570000Y-70280000D03*
%TO.P,U2,18,CMD*%
%TO.N,unconnected-(U2-CMD-Pad18)*%
X219110000Y-70280000D03*
%TO.P,U2,19,5V*%
%TO.N,+5V*%
X221650000Y-70280000D03*
%TO.P,U2,20,GND*%
%TO.N,GND*%
X175930000Y-44880000D03*
%TO.P,U2,21,23*%
%TO.N,unconnected-(U2-23-Pad21)*%
X178470000Y-44880000D03*
%TO.P,U2,22,22*%
%TO.N,unconnected-(U2-Pad22)*%
X181010000Y-44880000D03*
%TO.P,U2,23,TX*%
%TO.N,unconnected-(U2-TX-Pad23)*%
X183550000Y-44880000D03*
%TO.P,U2,24,RX*%
%TO.N,unconnected-(U2-RX-Pad24)*%
X186090000Y-44880000D03*
%TO.P,U2,25,21*%
%TO.N,unconnected-(U2-21-Pad25)*%
X188630000Y-44880000D03*
%TO.P,U2,26,GND*%
%TO.N,GND*%
X191170000Y-44880000D03*
%TO.P,U2,27,19*%
%TO.N,unconnected-(U2-19-Pad27)*%
X193710000Y-44880000D03*
%TO.P,U2,28,18*%
%TO.N,unconnected-(U2-18-Pad28)*%
X196250000Y-44880000D03*
%TO.P,U2,29,5*%
%TO.N,unconnected-(U2-5-Pad29)*%
X198790000Y-44880000D03*
%TO.P,U2,30,17*%
%TO.N,unconnected-(U2-17-Pad30)*%
X201330000Y-44880000D03*
%TO.P,U2,31,16*%
%TO.N,unconnected-(U2-16-Pad31)*%
X203870000Y-44880000D03*
%TO.P,U2,32,4*%
%TO.N,unconnected-(U2-4-Pad32)*%
X206410000Y-44880000D03*
%TO.P,U2,33,0*%
%TO.N,unconnected-(U2-0-Pad33)*%
X208950000Y-44880000D03*
%TO.P,U2,34,2*%
%TO.N,unconnected-(U2-2-Pad34)*%
X211490000Y-44880000D03*
%TO.P,U2,35,15*%
%TO.N,unconnected-(U2-15-Pad35)*%
X214030000Y-44880000D03*
%TO.P,U2,36,D1*%
%TO.N,unconnected-(U2-D1-Pad36)*%
X216570000Y-44880000D03*
%TO.P,U2,37,D0*%
%TO.N,unconnected-(U2-D0-Pad37)*%
X219110000Y-44880000D03*
%TO.P,U2,38,CLK*%
%TO.N,unconnected-(U2-CLK-Pad38)*%
X221650000Y-44880000D03*
%TD*%
D17*
%TO.P,J2,1,Pin_1*%
%TO.N,Net-(J2-Pin_1)*%
X221540000Y-89100000D03*
%TO.P,J2,2,Pin_2*%
%TO.N,+5V*%
X221540000Y-91640000D03*
%TO.P,J2,3,Pin_3*%
%TO.N,GND*%
X221540000Y-94180000D03*
%TD*%
D18*
%TO.P,R1,1*%
%TO.N,+5V*%
X188030000Y-79710000D03*
%TO.P,R1,2*%
%TO.N,Net-(D1-K)*%
X190030000Y-79710000D03*
%TD*%
D19*
%TO.P,D_TVS1,1,A1*%
%TO.N,+5V*%
X180740000Y-80010000D03*
%TO.P,D_TVS1,2,A2*%
%TO.N,GND*%
X180740000Y-76010000D03*
%TD*%
D20*
%TO.P,Polyfuse1,1*%
%TO.N,Net-(J1-V_IN_RAW)*%
X183200000Y-89200000D03*
%TO.P,Polyfuse1,2*%
%TO.N,+5V*%
X183200000Y-84750000D03*
%TD*%
D21*
%TO.P,U1,1,I/O1*%
%TO.N,Net-(R2-Pad2)*%
X212240000Y-82030000D03*
%TO.P,U1,2,GND*%
%TO.N,GND*%
X211290000Y-82030000D03*
%TO.P,U1,3,I/O2*%
%TO.N,unconnected-(U1-I{slash}O2-Pad3)*%
X210340000Y-82030000D03*
%TO.P,U1,4,I/O2*%
%TO.N,unconnected-(U1-I{slash}O2-Pad4)*%
X210340000Y-84730000D03*
%TO.P,U1,5,VBUS*%
%TO.N,unconnected-(U1-VBUS-Pad5)*%
X211290000Y-84730000D03*
%TO.P,U1,6,I/O1*%
%TO.N,Net-(J2-Pin_1)*%
X212240000Y-84730000D03*
%TD*%
D22*
%TO.P,J1,1,V_IN_RAW*%
%TO.N,Net-(J1-V_IN_RAW)*%
X195200000Y-95100000D03*
D23*
%TO.P,J1,2,GDN*%
%TO.N,GND*%
X195200000Y-101400000D03*
D24*
%TO.P,J1,3,DATA*%
%TO.N,unconnected-(J1-DATA-Pad3)*%
X200000000Y-98000000D03*
%TD*%
D25*
%TO.N,GND*%
X185990000Y-75800000D03*
X196230000Y-75660000D03*
X180750000Y-74190000D03*
D26*
%TO.N,+5V*%
X200160000Y-86400000D03*
%TD*%
D27*
%TO.N,Net-(J1-V_IN_RAW)*%
X183200000Y-94600000D02*
X183200000Y-91700000D01*
X194700000Y-94600000D02*
X183200000Y-94600000D01*
D28*
X195200000Y-95100000D02*
X194700000Y-94600000D01*
%TO.N,GND*%
X180750000Y-76000000D02*
X180740000Y-76010000D01*
D29*
X196220000Y-76952500D02*
X196220000Y-75670000D01*
D28*
X196220000Y-75670000D02*
X196230000Y-75660000D01*
X186010000Y-75820000D02*
X185990000Y-75800000D01*
D29*
X180750000Y-74190000D02*
X180750000Y-76000000D01*
X187545000Y-75820000D02*
X186010000Y-75820000D01*
D27*
%TO.N,+5V*%
X189000000Y-86400000D02*
X196040000Y-86400000D01*
D30*
X188030000Y-79710000D02*
X188030000Y-82650000D01*
D27*
X186640000Y-84040000D02*
X189000000Y-86400000D01*
D28*
X178200000Y-84040000D02*
X184380000Y-84040000D01*
D31*
X206640000Y-91640000D02*
X221540000Y-91640000D01*
D27*
X200160000Y-86400000D02*
X213650000Y-99890000D01*
D28*
X184380000Y-84040000D02*
X186740000Y-86400000D01*
D27*
X196040000Y-81460000D02*
X196060000Y-81440000D01*
D28*
X187870000Y-79870000D02*
X188030000Y-79710000D01*
D27*
X180550000Y-81660000D02*
X180750000Y-81460000D01*
X178200000Y-84040000D02*
X186640000Y-84040000D01*
X196040000Y-86400000D02*
X196040000Y-81460000D01*
X178200000Y-84040000D02*
X180550000Y-81690000D01*
X196040000Y-86400000D02*
X200160000Y-86400000D01*
X180550000Y-81690000D02*
X180550000Y-81660000D01*
D28*
X188030000Y-82650000D02*
X186640000Y-84040000D01*
%TO.N,Net-(D1-K)*%
X190030000Y-79710000D02*
X190030000Y-76310000D01*
X190030000Y-76310000D02*
X190520000Y-75820000D01*
%TO.N,Net-(J2-Pin_1)*%
X221540000Y-89100000D02*
X216610000Y-89100000D01*
X216610000Y-89100000D02*
X212240000Y-84730000D01*
%TO.N,Net-(U2-13)*%
X211170000Y-77010000D02*
X211170000Y-70600000D01*
X211170000Y-70600000D02*
X211490000Y-70280000D01*
%TO.N,Net-(R2-Pad2)*%
X212240000Y-80080000D02*
X211170000Y-79010000D01*
X212240000Y-82030000D02*
X212240000Y-80080000D01*
%TD*%
M02*
