%TF.GenerationSoftware,KiCad,Pcbnew,9.0.1*%
%TF.CreationDate,2025-08-16T15:34:18+02:00*%
%TF.ProjectId,ESP32_LED_v2,45535033-325f-44c4-9544-5f76322e6b69,rev?*%
%TF.SameCoordinates,Original*%
%TF.FileFunction,Copper,L2,Bot*%
%TF.FilePolarity,Positive*%
%FSLAX46Y46*%
G04 Gerber Fmt 4.6, Leading zero omitted, Abs format (unit mm)*
G04 Created by KiCad (PCBNEW 9.0.1) date 2025-08-16 15:34:18*
%MOMM*%
%LPD*%
G01*
G04 APERTURE LIST*
%TA.AperFunction,ComponentPad*%
%ADD10R,2.000000X2.000000*%
%TD*%
%TA.AperFunction,ComponentPad*%
%ADD11C,2.000000*%
%TD*%
%TA.AperFunction,ComponentPad*%
%ADD12R,1.560000X1.560000*%
%TD*%
%TA.AperFunction,ComponentPad*%
%ADD13C,1.560000*%
%TD*%
%TA.AperFunction,ComponentPad*%
%ADD14O,2.000000X1.200000*%
%TD*%
%TA.AperFunction,ComponentPad*%
%ADD15O,4.400000X2.200000*%
%TD*%
%TA.AperFunction,ComponentPad*%
%ADD16O,4.000000X2.000000*%
%TD*%
%TA.AperFunction,ComponentPad*%
%ADD17O,2.000000X4.000000*%
%TD*%
%TA.AperFunction,ViaPad*%
%ADD18C,1.000000*%
%TD*%
%TA.AperFunction,ViaPad*%
%ADD19C,0.600000*%
%TD*%
%TA.AperFunction,Conductor*%
%ADD20C,0.400000*%
%TD*%
G04 APERTURE END LIST*
D10*
%TO.P,C1,1*%
%TO.N,+5V*%
X213650000Y-99890000D03*
D11*
%TO.P,C1,2*%
%TO.N,GND*%
X213650000Y-104890000D03*
%TD*%
D12*
%TO.P,U2,1,3V3*%
%TO.N,unconnected-(U2-3V3-Pad1)*%
X175930000Y-70280000D03*
D13*
%TO.P,U2,2,EN*%
%TO.N,unconnected-(U2-EN-Pad2)*%
X178470000Y-70280000D03*
%TO.P,U2,3,VP*%
%TO.N,unconnected-(U2-VP-Pad3)*%
X181010000Y-70280000D03*
%TO.P,U2,4,VN*%
%TO.N,unconnected-(U2-VN-Pad4)*%
X183550000Y-70280000D03*
%TO.P,U2,5,34*%
%TO.N,unconnected-(U2-34-Pad5)*%
X186090000Y-70280000D03*
%TO.P,U2,6,35*%
%TO.N,unconnected-(U2-35-Pad6)*%
X188630000Y-70280000D03*
%TO.P,U2,7,32*%
%TO.N,unconnected-(U2-32-Pad7)*%
X191170000Y-70280000D03*
%TO.P,U2,8,33*%
%TO.N,unconnected-(U2-33-Pad8)*%
X193710000Y-70280000D03*
%TO.P,U2,9,25*%
%TO.N,unconnected-(U2-25-Pad9)*%
X196250000Y-70280000D03*
%TO.P,U2,10,26*%
%TO.N,unconnected-(U2-26-Pad10)*%
X198790000Y-70280000D03*
%TO.P,U2,11,27*%
%TO.N,unconnected-(U2-27-Pad11)*%
X201330000Y-70280000D03*
%TO.P,U2,12,14*%
%TO.N,unconnected-(U2-14-Pad12)*%
X203870000Y-70280000D03*
%TO.P,U2,13,12*%
%TO.N,unconnected-(U2-12-Pad13)*%
X206410000Y-70280000D03*
%TO.P,U2,14,GND*%
%TO.N,GND*%
X208950000Y-70280000D03*
%TO.P,U2,15,13*%
%TO.N,Net-(U2-13)*%
X211490000Y-70280000D03*
%TO.P,U2,16,D2*%
%TO.N,unconnected-(U2-D2-Pad16)*%
X214030000Y-70280000D03*
%TO.P,U2,17,D3*%
%TO.N,unconnected-(U2-D3-Pad17)*%
X216570000Y-70280000D03*
%TO.P,U2,18,CMD*%
%TO.N,unconnected-(U2-CMD-Pad18)*%
X219110000Y-70280000D03*
%TO.P,U2,19,5V*%
%TO.N,+5V*%
X221650000Y-70280000D03*
%TO.P,U2,20,GND*%
%TO.N,GND*%
X175930000Y-44880000D03*
%TO.P,U2,21,23*%
%TO.N,unconnected-(U2-23-Pad21)*%
X178470000Y-44880000D03*
%TO.P,U2,22,22*%
%TO.N,unconnected-(U2-Pad22)*%
X181010000Y-44880000D03*
%TO.P,U2,23,TX*%
%TO.N,unconnected-(U2-TX-Pad23)*%
X183550000Y-44880000D03*
%TO.P,U2,24,RX*%
%TO.N,unconnected-(U2-RX-Pad24)*%
X186090000Y-44880000D03*
%TO.P,U2,25,21*%
%TO.N,unconnected-(U2-21-Pad25)*%
X188630000Y-44880000D03*
%TO.P,U2,26,GND*%
%TO.N,GND*%
X191170000Y-44880000D03*
%TO.P,U2,27,19*%
%TO.N,unconnected-(U2-19-Pad27)*%
X193710000Y-44880000D03*
%TO.P,U2,28,18*%
%TO.N,unconnected-(U2-18-Pad28)*%
X196250000Y-44880000D03*
%TO.P,U2,29,5*%
%TO.N,unconnected-(U2-5-Pad29)*%
X198790000Y-44880000D03*
%TO.P,U2,30,17*%
%TO.N,unconnected-(U2-17-Pad30)*%
X201330000Y-44880000D03*
%TO.P,U2,31,16*%
%TO.N,unconnected-(U2-16-Pad31)*%
X203870000Y-44880000D03*
%TO.P,U2,32,4*%
%TO.N,unconnected-(U2-4-Pad32)*%
X206410000Y-44880000D03*
%TO.P,U2,33,0*%
%TO.N,unconnected-(U2-0-Pad33)*%
X208950000Y-44880000D03*
%TO.P,U2,34,2*%
%TO.N,unconnected-(U2-2-Pad34)*%
X211490000Y-44880000D03*
%TO.P,U2,35,15*%
%TO.N,unconnected-(U2-15-Pad35)*%
X214030000Y-44880000D03*
%TO.P,U2,36,D1*%
%TO.N,unconnected-(U2-D1-Pad36)*%
X216570000Y-44880000D03*
%TO.P,U2,37,D0*%
%TO.N,unconnected-(U2-D0-Pad37)*%
X219110000Y-44880000D03*
%TO.P,U2,38,CLK*%
%TO.N,unconnected-(U2-CLK-Pad38)*%
X221650000Y-44880000D03*
%TD*%
D14*
%TO.P,J2,1,Pin_1*%
%TO.N,Net-(J2-Pin_1)*%
X221540000Y-89100000D03*
%TO.P,J2,2,Pin_2*%
%TO.N,+5V*%
X221540000Y-91640000D03*
%TO.P,J2,3,Pin_3*%
%TO.N,GND*%
X221540000Y-94180000D03*
%TD*%
D15*
%TO.P,J1,1,V_IN_RAW*%
%TO.N,Net-(J1-V_IN_RAW)*%
X195200000Y-95100000D03*
D16*
%TO.P,J1,2,GDN*%
%TO.N,GND*%
X195200000Y-101400000D03*
D17*
%TO.P,J1,3,DATA*%
%TO.N,unconnected-(J1-DATA-Pad3)*%
X200000000Y-98000000D03*
%TD*%
D18*
%TO.N,GND*%
X185990000Y-75800000D03*
X196230000Y-75660000D03*
X180750000Y-74190000D03*
D19*
%TO.N,+5V*%
X200160000Y-86400000D03*
%TD*%
D20*
%TO.N,+5V*%
X213650000Y-86400000D02*
X200160000Y-86400000D01*
X221650000Y-70280000D02*
X221650000Y-78400000D01*
X221650000Y-78400000D02*
X213650000Y-86400000D01*
%TD*%
%TA.AperFunction,Conductor*%
%TO.N,GND*%
G36*
X223212539Y-38520185D02*
G01*
X223258294Y-38572989D01*
X223269500Y-38624500D01*
X223269500Y-88883670D01*
X223249815Y-88950709D01*
X223197011Y-88996464D01*
X223127853Y-89006408D01*
X223064297Y-88977383D01*
X223026523Y-88918605D01*
X223023027Y-88903068D01*
X223020912Y-88889718D01*
X223013402Y-88842299D01*
X222959873Y-88677555D01*
X222881232Y-88523212D01*
X222779414Y-88383072D01*
X222656928Y-88260586D01*
X222516788Y-88158768D01*
X222362445Y-88080127D01*
X222197701Y-88026598D01*
X222197699Y-88026597D01*
X222197698Y-88026597D01*
X222066271Y-88005781D01*
X222026611Y-87999500D01*
X221053389Y-87999500D01*
X221013728Y-88005781D01*
X220882302Y-88026597D01*
X220717552Y-88080128D01*
X220563211Y-88158768D01*
X220483256Y-88216859D01*
X220423072Y-88260586D01*
X220423070Y-88260588D01*
X220423069Y-88260588D01*
X220300588Y-88383069D01*
X220300588Y-88383070D01*
X220300586Y-88383072D01*
X220256859Y-88443256D01*
X220198768Y-88523211D01*
X220120128Y-88677552D01*
X220066597Y-88842302D01*
X220039500Y-89013389D01*
X220039500Y-89186610D01*
X220066597Y-89357697D01*
X220066597Y-89357699D01*
X220066598Y-89357701D01*
X220120127Y-89522445D01*
X220198768Y-89676788D01*
X220300586Y-89816928D01*
X220423072Y-89939414D01*
X220563212Y-90041232D01*
X220717555Y-90119873D01*
X220882299Y-90173402D01*
X221053389Y-90200500D01*
X221053390Y-90200500D01*
X222026610Y-90200500D01*
X222026611Y-90200500D01*
X222197701Y-90173402D01*
X222362445Y-90119873D01*
X222516788Y-90041232D01*
X222656928Y-89939414D01*
X222779414Y-89816928D01*
X222881232Y-89676788D01*
X222959873Y-89522445D01*
X223013402Y-89357701D01*
X223023027Y-89296930D01*
X223052956Y-89233797D01*
X223112267Y-89196865D01*
X223182130Y-89197863D01*
X223240363Y-89236472D01*
X223268477Y-89300436D01*
X223269500Y-89316329D01*
X223269500Y-91423670D01*
X223249815Y-91490709D01*
X223197011Y-91536464D01*
X223127853Y-91546408D01*
X223064297Y-91517383D01*
X223026523Y-91458605D01*
X223023027Y-91443068D01*
X223020912Y-91429718D01*
X223013402Y-91382299D01*
X222959873Y-91217555D01*
X222881232Y-91063212D01*
X222779414Y-90923072D01*
X222656928Y-90800586D01*
X222516788Y-90698768D01*
X222362445Y-90620127D01*
X222197701Y-90566598D01*
X222197699Y-90566597D01*
X222197698Y-90566597D01*
X222066271Y-90545781D01*
X222026611Y-90539500D01*
X221053389Y-90539500D01*
X221013728Y-90545781D01*
X220882302Y-90566597D01*
X220717552Y-90620128D01*
X220563211Y-90698768D01*
X220483256Y-90756859D01*
X220423072Y-90800586D01*
X220423070Y-90800588D01*
X220423069Y-90800588D01*
X220300588Y-90923069D01*
X220300588Y-90923070D01*
X220300586Y-90923072D01*
X220256859Y-90983256D01*
X220198768Y-91063211D01*
X220120128Y-91217552D01*
X220066597Y-91382302D01*
X220039500Y-91553389D01*
X220039500Y-91726610D01*
X220066597Y-91897697D01*
X220066597Y-91897699D01*
X220066598Y-91897701D01*
X220120127Y-92062445D01*
X220198768Y-92216788D01*
X220300586Y-92356928D01*
X220423072Y-92479414D01*
X220563212Y-92581232D01*
X220717555Y-92659873D01*
X220882299Y-92713402D01*
X221053389Y-92740500D01*
X221053390Y-92740500D01*
X222026610Y-92740500D01*
X222026611Y-92740500D01*
X222197701Y-92713402D01*
X222362445Y-92659873D01*
X222516788Y-92581232D01*
X222656928Y-92479414D01*
X222779414Y-92356928D01*
X222881232Y-92216788D01*
X222959873Y-92062445D01*
X223013402Y-91897701D01*
X223023027Y-91836930D01*
X223052956Y-91773797D01*
X223112267Y-91736865D01*
X223182130Y-91737863D01*
X223240363Y-91776472D01*
X223268477Y-91840436D01*
X223269500Y-91856329D01*
X223269500Y-93966867D01*
X223249815Y-94033906D01*
X223197011Y-94079661D01*
X223127853Y-94089605D01*
X223064297Y-94060580D01*
X223026523Y-94001802D01*
X223023027Y-93986265D01*
X223012914Y-93922415D01*
X222959408Y-93757742D01*
X222880804Y-93603475D01*
X222779032Y-93463397D01*
X222656602Y-93340967D01*
X222516524Y-93239195D01*
X222362257Y-93160591D01*
X222197584Y-93107085D01*
X222026571Y-93080000D01*
X221790000Y-93080000D01*
X221790000Y-93864314D01*
X221785606Y-93859920D01*
X221694394Y-93807259D01*
X221592661Y-93780000D01*
X221487339Y-93780000D01*
X221385606Y-93807259D01*
X221294394Y-93859920D01*
X221290000Y-93864314D01*
X221290000Y-93080000D01*
X221053429Y-93080000D01*
X220882415Y-93107085D01*
X220717742Y-93160591D01*
X220563475Y-93239195D01*
X220423397Y-93340967D01*
X220300967Y-93463397D01*
X220199195Y-93603475D01*
X220120591Y-93757744D01*
X220067085Y-93922415D01*
X220065884Y-93929999D01*
X220065885Y-93930000D01*
X221224314Y-93930000D01*
X221219920Y-93934394D01*
X221167259Y-94025606D01*
X221140000Y-94127339D01*
X221140000Y-94232661D01*
X221167259Y-94334394D01*
X221219920Y-94425606D01*
X221224314Y-94430000D01*
X220065885Y-94430000D01*
X220067085Y-94437584D01*
X220120591Y-94602255D01*
X220199195Y-94756524D01*
X220300967Y-94896602D01*
X220423397Y-95019032D01*
X220563475Y-95120804D01*
X220717742Y-95199408D01*
X220882415Y-95252914D01*
X221053429Y-95280000D01*
X221290000Y-95280000D01*
X221290000Y-94495686D01*
X221294394Y-94500080D01*
X221385606Y-94552741D01*
X221487339Y-94580000D01*
X221592661Y-94580000D01*
X221694394Y-94552741D01*
X221785606Y-94500080D01*
X221790000Y-94495686D01*
X221790000Y-95280000D01*
X222026571Y-95280000D01*
X222197584Y-95252914D01*
X222362257Y-95199408D01*
X222516524Y-95120804D01*
X222656602Y-95019032D01*
X222779032Y-94896602D01*
X222880804Y-94756524D01*
X222959408Y-94602257D01*
X223012913Y-94437584D01*
X223023027Y-94373734D01*
X223052956Y-94310599D01*
X223112268Y-94273668D01*
X223182130Y-94274666D01*
X223240363Y-94313276D01*
X223268477Y-94377239D01*
X223269500Y-94393132D01*
X223269500Y-110985500D01*
X223249815Y-111052539D01*
X223197011Y-111098294D01*
X223145500Y-111109500D01*
X174374500Y-111109500D01*
X174307461Y-111089815D01*
X174261706Y-111037011D01*
X174250500Y-110985500D01*
X174250500Y-108647648D01*
X175449500Y-108647648D01*
X175449500Y-108852351D01*
X175481522Y-109054534D01*
X175544781Y-109249223D01*
X175637715Y-109431613D01*
X175758028Y-109597213D01*
X175902786Y-109741971D01*
X176057749Y-109854556D01*
X176068390Y-109862287D01*
X176184607Y-109921503D01*
X176250776Y-109955218D01*
X176250778Y-109955218D01*
X176250781Y-109955220D01*
X176355137Y-109989127D01*
X176445465Y-110018477D01*
X176546557Y-110034488D01*
X176647648Y-110050500D01*
X176647649Y-110050500D01*
X176852351Y-110050500D01*
X176852352Y-110050500D01*
X177054534Y-110018477D01*
X177249219Y-109955220D01*
X177431610Y-109862287D01*
X177524590Y-109794732D01*
X177597213Y-109741971D01*
X177597215Y-109741968D01*
X177597219Y-109741966D01*
X177741966Y-109597219D01*
X177741968Y-109597215D01*
X177741971Y-109597213D01*
X177794732Y-109524590D01*
X177862287Y-109431610D01*
X177955220Y-109249219D01*
X178018477Y-109054534D01*
X178050500Y-108852352D01*
X178050500Y-108647648D01*
X219599500Y-108647648D01*
X219599500Y-108852351D01*
X219631522Y-109054534D01*
X219694781Y-109249223D01*
X219787715Y-109431613D01*
X219908028Y-109597213D01*
X220052786Y-109741971D01*
X220207749Y-109854556D01*
X220218390Y-109862287D01*
X220334607Y-109921503D01*
X220400776Y-109955218D01*
X220400778Y-109955218D01*
X220400781Y-109955220D01*
X220505137Y-109989127D01*
X220595465Y-110018477D01*
X220696557Y-110034488D01*
X220797648Y-110050500D01*
X220797649Y-110050500D01*
X221002351Y-110050500D01*
X221002352Y-110050500D01*
X221204534Y-110018477D01*
X221399219Y-109955220D01*
X221581610Y-109862287D01*
X221674590Y-109794732D01*
X221747213Y-109741971D01*
X221747215Y-109741968D01*
X221747219Y-109741966D01*
X221891966Y-109597219D01*
X221891968Y-109597215D01*
X221891971Y-109597213D01*
X221944732Y-109524590D01*
X222012287Y-109431610D01*
X222105220Y-109249219D01*
X222168477Y-109054534D01*
X222200500Y-108852352D01*
X222200500Y-108647648D01*
X222168477Y-108445466D01*
X222105220Y-108250781D01*
X222105218Y-108250778D01*
X222105218Y-108250776D01*
X222071503Y-108184607D01*
X222012287Y-108068390D01*
X222004556Y-108057749D01*
X221891971Y-107902786D01*
X221747213Y-107758028D01*
X221581613Y-107637715D01*
X221581612Y-107637714D01*
X221581610Y-107637713D01*
X221524653Y-107608691D01*
X221399223Y-107544781D01*
X221204534Y-107481522D01*
X221029995Y-107453878D01*
X221002352Y-107449500D01*
X220797648Y-107449500D01*
X220773329Y-107453351D01*
X220595465Y-107481522D01*
X220400776Y-107544781D01*
X220218386Y-107637715D01*
X220052786Y-107758028D01*
X219908028Y-107902786D01*
X219787715Y-108068386D01*
X219694781Y-108250776D01*
X219631522Y-108445465D01*
X219599500Y-108647648D01*
X178050500Y-108647648D01*
X178018477Y-108445466D01*
X177955220Y-108250781D01*
X177955218Y-108250778D01*
X177955218Y-108250776D01*
X177921503Y-108184607D01*
X177862287Y-108068390D01*
X177854556Y-108057749D01*
X177741971Y-107902786D01*
X177597213Y-107758028D01*
X177431613Y-107637715D01*
X177431612Y-107637714D01*
X177431610Y-107637713D01*
X177374653Y-107608691D01*
X177249223Y-107544781D01*
X177054534Y-107481522D01*
X176879995Y-107453878D01*
X176852352Y-107449500D01*
X176647648Y-107449500D01*
X176623329Y-107453351D01*
X176445465Y-107481522D01*
X176250776Y-107544781D01*
X176068386Y-107637715D01*
X175902786Y-107758028D01*
X175758028Y-107902786D01*
X175637715Y-108068386D01*
X175544781Y-108250776D01*
X175481522Y-108445465D01*
X175449500Y-108647648D01*
X174250500Y-108647648D01*
X174250500Y-104771947D01*
X212150000Y-104771947D01*
X212150000Y-105008052D01*
X212186934Y-105241247D01*
X212259897Y-105465802D01*
X212367087Y-105676174D01*
X212427338Y-105759104D01*
X212427340Y-105759105D01*
X213167037Y-105019408D01*
X213184075Y-105082993D01*
X213249901Y-105197007D01*
X213342993Y-105290099D01*
X213457007Y-105355925D01*
X213520590Y-105372962D01*
X212780893Y-106112658D01*
X212863828Y-106172914D01*
X213074197Y-106280102D01*
X213298752Y-106353065D01*
X213298751Y-106353065D01*
X213531948Y-106390000D01*
X213768052Y-106390000D01*
X214001247Y-106353065D01*
X214225802Y-106280102D01*
X214436163Y-106172918D01*
X214436169Y-106172914D01*
X214519104Y-106112658D01*
X214519105Y-106112658D01*
X213779408Y-105372962D01*
X213842993Y-105355925D01*
X213957007Y-105290099D01*
X214050099Y-105197007D01*
X214115925Y-105082993D01*
X214132962Y-105019409D01*
X214872658Y-105759105D01*
X214872658Y-105759104D01*
X214932914Y-105676169D01*
X214932918Y-105676163D01*
X215040102Y-105465802D01*
X215113065Y-105241247D01*
X215150000Y-105008052D01*
X215150000Y-104771947D01*
X215113065Y-104538752D01*
X215040102Y-104314197D01*
X214932914Y-104103828D01*
X214872658Y-104020894D01*
X214872658Y-104020893D01*
X214132962Y-104760589D01*
X214115925Y-104697007D01*
X214050099Y-104582993D01*
X213957007Y-104489901D01*
X213842993Y-104424075D01*
X213779409Y-104407037D01*
X214519105Y-103667340D01*
X214519104Y-103667338D01*
X214436174Y-103607087D01*
X214225802Y-103499897D01*
X214001247Y-103426934D01*
X214001248Y-103426934D01*
X213768052Y-103390000D01*
X213531948Y-103390000D01*
X213298752Y-103426934D01*
X213074197Y-103499897D01*
X212863830Y-103607084D01*
X212780894Y-103667340D01*
X213520591Y-104407037D01*
X213457007Y-104424075D01*
X213342993Y-104489901D01*
X213249901Y-104582993D01*
X213184075Y-104697007D01*
X213167037Y-104760591D01*
X212427340Y-104020894D01*
X212367084Y-104103830D01*
X212259897Y-104314197D01*
X212186934Y-104538752D01*
X212150000Y-104771947D01*
X174250500Y-104771947D01*
X174250500Y-101150000D01*
X192720898Y-101150000D01*
X193666988Y-101150000D01*
X193634075Y-101207007D01*
X193600000Y-101334174D01*
X193600000Y-101465826D01*
X193634075Y-101592993D01*
X193666988Y-101650000D01*
X192720898Y-101650000D01*
X192736934Y-101751247D01*
X192809897Y-101975802D01*
X192917085Y-102186171D01*
X193055866Y-102377186D01*
X193222813Y-102544133D01*
X193413828Y-102682914D01*
X193624197Y-102790102D01*
X193848752Y-102863065D01*
X193848751Y-102863065D01*
X194081948Y-102900000D01*
X194950000Y-102900000D01*
X194950000Y-101900000D01*
X195450000Y-101900000D01*
X195450000Y-102900000D01*
X196318052Y-102900000D01*
X196551247Y-102863065D01*
X196775802Y-102790102D01*
X196986171Y-102682914D01*
X197177186Y-102544133D01*
X197344133Y-102377186D01*
X197482914Y-102186171D01*
X197590102Y-101975802D01*
X197663065Y-101751247D01*
X197679102Y-101650000D01*
X196733012Y-101650000D01*
X196765925Y-101592993D01*
X196800000Y-101465826D01*
X196800000Y-101334174D01*
X196765925Y-101207007D01*
X196733012Y-101150000D01*
X197679102Y-101150000D01*
X197663065Y-101048752D01*
X197590102Y-100824197D01*
X197482914Y-100613828D01*
X197344133Y-100422813D01*
X197177186Y-100255866D01*
X196986171Y-100117085D01*
X196775802Y-100009897D01*
X196551247Y-99936934D01*
X196551248Y-99936934D01*
X196318052Y-99900000D01*
X195450000Y-99900000D01*
X195450000Y-100900000D01*
X194950000Y-100900000D01*
X194950000Y-99900000D01*
X194081948Y-99900000D01*
X193848752Y-99936934D01*
X193624197Y-100009897D01*
X193413828Y-100117085D01*
X193222813Y-100255866D01*
X193055866Y-100422813D01*
X192917085Y-100613828D01*
X192809897Y-100824197D01*
X192736934Y-101048752D01*
X192720898Y-101150000D01*
X174250500Y-101150000D01*
X174250500Y-96881902D01*
X198499500Y-96881902D01*
X198499500Y-99118097D01*
X198536446Y-99351368D01*
X198609433Y-99575996D01*
X198716657Y-99786433D01*
X198855483Y-99977510D01*
X199022490Y-100144517D01*
X199213567Y-100283343D01*
X199312991Y-100334002D01*
X199424003Y-100390566D01*
X199424005Y-100390566D01*
X199424008Y-100390568D01*
X199523248Y-100422813D01*
X199648631Y-100463553D01*
X199881903Y-100500500D01*
X199881908Y-100500500D01*
X200118097Y-100500500D01*
X200351368Y-100463553D01*
X200575992Y-100390568D01*
X200786433Y-100283343D01*
X200977510Y-100144517D01*
X201144517Y-99977510D01*
X201283343Y-99786433D01*
X201390568Y-99575992D01*
X201463553Y-99351368D01*
X201500500Y-99118097D01*
X201500500Y-98842135D01*
X212149500Y-98842135D01*
X212149500Y-100937870D01*
X212149501Y-100937876D01*
X212155908Y-100997483D01*
X212206202Y-101132328D01*
X212206206Y-101132335D01*
X212292452Y-101247544D01*
X212292455Y-101247547D01*
X212407664Y-101333793D01*
X212407671Y-101333797D01*
X212542517Y-101384091D01*
X212542516Y-101384091D01*
X212549444Y-101384835D01*
X212602127Y-101390500D01*
X214697872Y-101390499D01*
X214757483Y-101384091D01*
X214892331Y-101333796D01*
X215007546Y-101247546D01*
X215093796Y-101132331D01*
X215144091Y-100997483D01*
X215150500Y-100937873D01*
X215150499Y-98842128D01*
X215144091Y-98782517D01*
X215093796Y-98647669D01*
X215093795Y-98647668D01*
X215093793Y-98647664D01*
X215007547Y-98532455D01*
X215007544Y-98532452D01*
X214892335Y-98446206D01*
X214892328Y-98446202D01*
X214757482Y-98395908D01*
X214757483Y-98395908D01*
X214697883Y-98389501D01*
X214697881Y-98389500D01*
X214697873Y-98389500D01*
X214697864Y-98389500D01*
X212602129Y-98389500D01*
X212602123Y-98389501D01*
X212542516Y-98395908D01*
X212407671Y-98446202D01*
X212407664Y-98446206D01*
X212292455Y-98532452D01*
X212292452Y-98532455D01*
X212206206Y-98647664D01*
X212206202Y-98647671D01*
X212155908Y-98782517D01*
X212149501Y-98842116D01*
X212149501Y-98842123D01*
X212149500Y-98842135D01*
X201500500Y-98842135D01*
X201500500Y-96881902D01*
X201463553Y-96648631D01*
X201429689Y-96544412D01*
X201390568Y-96424008D01*
X201390566Y-96424005D01*
X201390566Y-96424003D01*
X201283342Y-96213566D01*
X201144517Y-96022490D01*
X200977510Y-95855483D01*
X200786433Y-95716657D01*
X200781962Y-95714379D01*
X200575996Y-95609433D01*
X200351368Y-95536446D01*
X200118097Y-95499500D01*
X200118092Y-95499500D01*
X199881908Y-95499500D01*
X199881903Y-95499500D01*
X199648631Y-95536446D01*
X199424003Y-95609433D01*
X199213566Y-95716657D01*
X199104550Y-95795862D01*
X199022490Y-95855483D01*
X199022488Y-95855485D01*
X199022487Y-95855485D01*
X198855485Y-96022487D01*
X198855485Y-96022488D01*
X198855483Y-96022490D01*
X198795862Y-96104550D01*
X198716657Y-96213566D01*
X198609433Y-96424003D01*
X198536446Y-96648631D01*
X198499500Y-96881902D01*
X174250500Y-96881902D01*
X174250500Y-94974038D01*
X192499500Y-94974038D01*
X192499500Y-95225961D01*
X192538910Y-95474785D01*
X192616760Y-95714383D01*
X192731132Y-95938848D01*
X192879201Y-96142649D01*
X192879205Y-96142654D01*
X193057345Y-96320794D01*
X193057350Y-96320798D01*
X193235117Y-96449952D01*
X193261155Y-96468870D01*
X193404184Y-96541747D01*
X193485616Y-96583239D01*
X193485618Y-96583239D01*
X193485621Y-96583241D01*
X193725215Y-96661090D01*
X193974038Y-96700500D01*
X193974039Y-96700500D01*
X196425961Y-96700500D01*
X196425962Y-96700500D01*
X196674785Y-96661090D01*
X196914379Y-96583241D01*
X197138845Y-96468870D01*
X197342656Y-96320793D01*
X197520793Y-96142656D01*
X197668870Y-95938845D01*
X197783241Y-95714379D01*
X197861090Y-95474785D01*
X197900500Y-95225962D01*
X197900500Y-94974038D01*
X197861090Y-94725215D01*
X197783241Y-94485621D01*
X197783239Y-94485618D01*
X197783239Y-94485616D01*
X197764699Y-94449230D01*
X197752662Y-94425606D01*
X197668870Y-94261155D01*
X197648168Y-94232661D01*
X197520798Y-94057350D01*
X197520794Y-94057345D01*
X197342654Y-93879205D01*
X197342649Y-93879201D01*
X197138848Y-93731132D01*
X197138847Y-93731131D01*
X197138845Y-93731130D01*
X197068747Y-93695413D01*
X196914383Y-93616760D01*
X196674785Y-93538910D01*
X196425962Y-93499500D01*
X193974038Y-93499500D01*
X193849626Y-93519205D01*
X193725214Y-93538910D01*
X193485616Y-93616760D01*
X193261151Y-93731132D01*
X193057350Y-93879201D01*
X193057345Y-93879205D01*
X192879205Y-94057345D01*
X192879201Y-94057350D01*
X192731132Y-94261151D01*
X192616760Y-94485616D01*
X192538910Y-94725214D01*
X192499500Y-94974038D01*
X174250500Y-94974038D01*
X174250500Y-69452135D01*
X174649500Y-69452135D01*
X174649500Y-71107870D01*
X174649501Y-71107876D01*
X174655908Y-71167483D01*
X174706202Y-71302328D01*
X174706206Y-71302335D01*
X174792452Y-71417544D01*
X174792455Y-71417547D01*
X174907664Y-71503793D01*
X174907671Y-71503797D01*
X175042517Y-71554091D01*
X175042516Y-71554091D01*
X175049444Y-71554835D01*
X175102127Y-71560500D01*
X176757872Y-71560499D01*
X176817483Y-71554091D01*
X176952331Y-71503796D01*
X177067546Y-71417546D01*
X177153796Y-71302331D01*
X177204091Y-71167483D01*
X177210500Y-71107873D01*
X177210499Y-71106620D01*
X177210581Y-71106342D01*
X177210678Y-71104547D01*
X177211101Y-71104569D01*
X177230169Y-71039580D01*
X177282963Y-70993814D01*
X177352119Y-70983855D01*
X177415681Y-71012866D01*
X177434816Y-71033711D01*
X177486283Y-71104547D01*
X177493289Y-71114190D01*
X177635810Y-71256711D01*
X177798871Y-71375182D01*
X177977549Y-71466223D01*
X177978460Y-71466687D01*
X178074303Y-71497828D01*
X178170149Y-71528970D01*
X178262348Y-71543572D01*
X178369217Y-71560500D01*
X178369222Y-71560500D01*
X178570783Y-71560500D01*
X178667289Y-71545214D01*
X178769851Y-71528970D01*
X178961542Y-71466686D01*
X179141129Y-71375182D01*
X179304190Y-71256711D01*
X179446711Y-71114190D01*
X179565182Y-70951129D01*
X179629515Y-70824867D01*
X179677490Y-70774072D01*
X179745310Y-70757277D01*
X179811445Y-70779814D01*
X179850484Y-70824867D01*
X179914818Y-70951129D01*
X180033289Y-71114190D01*
X180175810Y-71256711D01*
X180338871Y-71375182D01*
X180517549Y-71466223D01*
X180518460Y-71466687D01*
X180614303Y-71497828D01*
X180710149Y-71528970D01*
X180802348Y-71543572D01*
X180909217Y-71560500D01*
X180909222Y-71560500D01*
X181110783Y-71560500D01*
X181207289Y-71545214D01*
X181309851Y-71528970D01*
X181501542Y-71466686D01*
X181681129Y-71375182D01*
X181844190Y-71256711D01*
X181986711Y-71114190D01*
X182105182Y-70951129D01*
X182169515Y-70824867D01*
X182217490Y-70774072D01*
X182285310Y-70757277D01*
X182351445Y-70779814D01*
X182390484Y-70824867D01*
X182454818Y-70951129D01*
X182573289Y-71114190D01*
X182715810Y-71256711D01*
X182878871Y-71375182D01*
X183057549Y-71466223D01*
X183058460Y-71466687D01*
X183154303Y-71497828D01*
X183250149Y-71528970D01*
X183342348Y-71543572D01*
X183449217Y-71560500D01*
X183449222Y-71560500D01*
X183650783Y-71560500D01*
X183747289Y-71545214D01*
X183849851Y-71528970D01*
X184041542Y-71466686D01*
X184221129Y-71375182D01*
X184384190Y-71256711D01*
X184526711Y-71114190D01*
X184645182Y-70951129D01*
X184709515Y-70824867D01*
X184757490Y-70774072D01*
X184825310Y-70757277D01*
X184891445Y-70779814D01*
X184930484Y-70824867D01*
X184994818Y-70951129D01*
X185113289Y-71114190D01*
X185255810Y-71256711D01*
X185418871Y-71375182D01*
X185597549Y-71466223D01*
X185598460Y-71466687D01*
X185694303Y-71497828D01*
X185790149Y-71528970D01*
X185882348Y-71543572D01*
X185989217Y-71560500D01*
X185989222Y-71560500D01*
X186190783Y-71560500D01*
X186287289Y-71545214D01*
X186389851Y-71528970D01*
X186581542Y-71466686D01*
X186761129Y-71375182D01*
X186924190Y-71256711D01*
X187066711Y-71114190D01*
X187185182Y-70951129D01*
X187249515Y-70824867D01*
X187297490Y-70774072D01*
X187365310Y-70757277D01*
X187431445Y-70779814D01*
X187470484Y-70824867D01*
X187534818Y-70951129D01*
X187653289Y-71114190D01*
X187795810Y-71256711D01*
X187958871Y-71375182D01*
X188137549Y-71466223D01*
X188138460Y-71466687D01*
X188234303Y-71497828D01*
X188330149Y-71528970D01*
X188422348Y-71543572D01*
X188529217Y-71560500D01*
X188529222Y-71560500D01*
X188730783Y-71560500D01*
X188827289Y-71545214D01*
X188929851Y-71528970D01*
X189121542Y-71466686D01*
X189301129Y-71375182D01*
X189464190Y-71256711D01*
X189606711Y-71114190D01*
X189725182Y-70951129D01*
X189789515Y-70824867D01*
X189837490Y-70774072D01*
X189905310Y-70757277D01*
X189971445Y-70779814D01*
X190010484Y-70824867D01*
X190074818Y-70951129D01*
X190193289Y-71114190D01*
X190335810Y-71256711D01*
X190498871Y-71375182D01*
X190677549Y-71466223D01*
X190678460Y-71466687D01*
X190774303Y-71497828D01*
X190870149Y-71528970D01*
X190962348Y-71543572D01*
X191069217Y-71560500D01*
X191069222Y-71560500D01*
X191270783Y-71560500D01*
X191367289Y-71545214D01*
X191469851Y-71528970D01*
X191661542Y-71466686D01*
X191841129Y-71375182D01*
X192004190Y-71256711D01*
X192146711Y-71114190D01*
X192265182Y-70951129D01*
X192329515Y-70824867D01*
X192377490Y-70774072D01*
X192445310Y-70757277D01*
X192511445Y-70779814D01*
X192550484Y-70824867D01*
X192614818Y-70951129D01*
X192733289Y-71114190D01*
X192875810Y-71256711D01*
X193038871Y-71375182D01*
X193217549Y-71466223D01*
X193218460Y-71466687D01*
X193314303Y-71497828D01*
X193410149Y-71528970D01*
X193502348Y-71543572D01*
X193609217Y-71560500D01*
X193609222Y-71560500D01*
X193810783Y-71560500D01*
X193907289Y-71545214D01*
X194009851Y-71528970D01*
X194201542Y-71466686D01*
X194381129Y-71375182D01*
X194544190Y-71256711D01*
X194686711Y-71114190D01*
X194805182Y-70951129D01*
X194869515Y-70824867D01*
X194917490Y-70774072D01*
X194985310Y-70757277D01*
X195051445Y-70779814D01*
X195090484Y-70824867D01*
X195154818Y-70951129D01*
X195273289Y-71114190D01*
X195415810Y-71256711D01*
X195578871Y-71375182D01*
X195757549Y-71466223D01*
X195758460Y-71466687D01*
X195854303Y-71497828D01*
X195950149Y-71528970D01*
X196042348Y-71543572D01*
X196149217Y-71560500D01*
X196149222Y-71560500D01*
X196350783Y-71560500D01*
X196447289Y-71545214D01*
X196549851Y-71528970D01*
X196741542Y-71466686D01*
X196921129Y-71375182D01*
X197084190Y-71256711D01*
X197226711Y-71114190D01*
X197345182Y-70951129D01*
X197409515Y-70824867D01*
X197457490Y-70774072D01*
X197525310Y-70757277D01*
X197591445Y-70779814D01*
X197630484Y-70824867D01*
X197694818Y-70951129D01*
X197813289Y-71114190D01*
X197955810Y-71256711D01*
X198118871Y-71375182D01*
X198297549Y-71466223D01*
X198298460Y-71466687D01*
X198394303Y-71497828D01*
X198490149Y-71528970D01*
X198582348Y-71543572D01*
X198689217Y-71560500D01*
X198689222Y-71560500D01*
X198890783Y-71560500D01*
X198987289Y-71545214D01*
X199089851Y-71528970D01*
X199281542Y-71466686D01*
X199461129Y-71375182D01*
X199624190Y-71256711D01*
X199766711Y-71114190D01*
X199885182Y-70951129D01*
X199949515Y-70824867D01*
X199997490Y-70774072D01*
X200065310Y-70757277D01*
X200131445Y-70779814D01*
X200170484Y-70824867D01*
X200234818Y-70951129D01*
X200353289Y-71114190D01*
X200495810Y-71256711D01*
X200658871Y-71375182D01*
X200837549Y-71466223D01*
X200838460Y-71466687D01*
X200934303Y-71497828D01*
X201030149Y-71528970D01*
X201122348Y-71543572D01*
X201229217Y-71560500D01*
X201229222Y-71560500D01*
X201430783Y-71560500D01*
X201527289Y-71545214D01*
X201629851Y-71528970D01*
X201821542Y-71466686D01*
X202001129Y-71375182D01*
X202164190Y-71256711D01*
X202306711Y-71114190D01*
X202425182Y-70951129D01*
X202489515Y-70824867D01*
X202537490Y-70774072D01*
X202605310Y-70757277D01*
X202671445Y-70779814D01*
X202710484Y-70824867D01*
X202774818Y-70951129D01*
X202893289Y-71114190D01*
X203035810Y-71256711D01*
X203198871Y-71375182D01*
X203377549Y-71466223D01*
X203378460Y-71466687D01*
X203474303Y-71497828D01*
X203570149Y-71528970D01*
X203662348Y-71543572D01*
X203769217Y-71560500D01*
X203769222Y-71560500D01*
X203970783Y-71560500D01*
X204067289Y-71545214D01*
X204169851Y-71528970D01*
X204361542Y-71466686D01*
X204541129Y-71375182D01*
X204704190Y-71256711D01*
X204846711Y-71114190D01*
X204965182Y-70951129D01*
X205029515Y-70824867D01*
X205077490Y-70774072D01*
X205145310Y-70757277D01*
X205211445Y-70779814D01*
X205250484Y-70824867D01*
X205314818Y-70951129D01*
X205433289Y-71114190D01*
X205575810Y-71256711D01*
X205738871Y-71375182D01*
X205917549Y-71466223D01*
X205918460Y-71466687D01*
X206014303Y-71497828D01*
X206110149Y-71528970D01*
X206202348Y-71543572D01*
X206309217Y-71560500D01*
X206309222Y-71560500D01*
X206510783Y-71560500D01*
X206607289Y-71545214D01*
X206709851Y-71528970D01*
X206901542Y-71466686D01*
X207081129Y-71375182D01*
X207244190Y-71256711D01*
X207386711Y-71114190D01*
X207505182Y-70951129D01*
X207569795Y-70824317D01*
X207617769Y-70773521D01*
X207685590Y-70756726D01*
X207751725Y-70779263D01*
X207790764Y-70824316D01*
X207855246Y-70950867D01*
X207884842Y-70991602D01*
X207884843Y-70991603D01*
X208450707Y-70425739D01*
X208465437Y-70480712D01*
X208533896Y-70599287D01*
X208630713Y-70696104D01*
X208749288Y-70764563D01*
X208804259Y-70779292D01*
X208238395Y-71345155D01*
X208279133Y-71374753D01*
X208458650Y-71466223D01*
X208458653Y-71466224D01*
X208650264Y-71528481D01*
X208849263Y-71560000D01*
X209050737Y-71560000D01*
X209249735Y-71528481D01*
X209441346Y-71466224D01*
X209441349Y-71466223D01*
X209620866Y-71374753D01*
X209661602Y-71345156D01*
X209661602Y-71345155D01*
X209095739Y-70779292D01*
X209150712Y-70764563D01*
X209269287Y-70696104D01*
X209366104Y-70599287D01*
X209434563Y-70480712D01*
X209449292Y-70425739D01*
X210015155Y-70991602D01*
X210015156Y-70991602D01*
X210044753Y-70950866D01*
X210109234Y-70824317D01*
X210157209Y-70773521D01*
X210225030Y-70756726D01*
X210291165Y-70779263D01*
X210330204Y-70824317D01*
X210394818Y-70951129D01*
X210513289Y-71114190D01*
X210655810Y-71256711D01*
X210818871Y-71375182D01*
X210997549Y-71466223D01*
X210998460Y-71466687D01*
X211094303Y-71497828D01*
X211190149Y-71528970D01*
X211282348Y-71543572D01*
X211389217Y-71560500D01*
X211389222Y-71560500D01*
X211590783Y-71560500D01*
X211687289Y-71545214D01*
X211789851Y-71528970D01*
X211981542Y-71466686D01*
X212161129Y-71375182D01*
X212324190Y-71256711D01*
X212466711Y-71114190D01*
X212585182Y-70951129D01*
X212649515Y-70824867D01*
X212697490Y-70774072D01*
X212765310Y-70757277D01*
X212831445Y-70779814D01*
X212870484Y-70824867D01*
X212934818Y-70951129D01*
X213053289Y-71114190D01*
X213195810Y-71256711D01*
X213358871Y-71375182D01*
X213537549Y-71466223D01*
X213538460Y-71466687D01*
X213634303Y-71497828D01*
X213730149Y-71528970D01*
X213822348Y-71543572D01*
X213929217Y-71560500D01*
X213929222Y-71560500D01*
X214130783Y-71560500D01*
X214227289Y-71545214D01*
X214329851Y-71528970D01*
X214521542Y-71466686D01*
X214701129Y-71375182D01*
X214864190Y-71256711D01*
X215006711Y-71114190D01*
X215125182Y-70951129D01*
X215189515Y-70824867D01*
X215237490Y-70774072D01*
X215305310Y-70757277D01*
X215371445Y-70779814D01*
X215410484Y-70824867D01*
X215474818Y-70951129D01*
X215593289Y-71114190D01*
X215735810Y-71256711D01*
X215898871Y-71375182D01*
X216077549Y-71466223D01*
X216078460Y-71466687D01*
X216174303Y-71497828D01*
X216270149Y-71528970D01*
X216362348Y-71543572D01*
X216469217Y-71560500D01*
X216469222Y-71560500D01*
X216670783Y-71560500D01*
X216767289Y-71545214D01*
X216869851Y-71528970D01*
X217061542Y-71466686D01*
X217241129Y-71375182D01*
X217404190Y-71256711D01*
X217546711Y-71114190D01*
X217665182Y-70951129D01*
X217729515Y-70824867D01*
X217777490Y-70774072D01*
X217845310Y-70757277D01*
X217911445Y-70779814D01*
X217950484Y-70824867D01*
X218014818Y-70951129D01*
X218133289Y-71114190D01*
X218275810Y-71256711D01*
X218438871Y-71375182D01*
X218617549Y-71466223D01*
X218618460Y-71466687D01*
X218714303Y-71497828D01*
X218810149Y-71528970D01*
X218902348Y-71543572D01*
X219009217Y-71560500D01*
X219009222Y-71560500D01*
X219210783Y-71560500D01*
X219307289Y-71545214D01*
X219409851Y-71528970D01*
X219601542Y-71466686D01*
X219781129Y-71375182D01*
X219944190Y-71256711D01*
X220086711Y-71114190D01*
X220205182Y-70951129D01*
X220269515Y-70824867D01*
X220317490Y-70774072D01*
X220385310Y-70757277D01*
X220451445Y-70779814D01*
X220490484Y-70824867D01*
X220554818Y-70951129D01*
X220673289Y-71114190D01*
X220673291Y-71114192D01*
X220815813Y-71256714D01*
X220898384Y-71316704D01*
X220941051Y-71372034D01*
X220949500Y-71417023D01*
X220949500Y-78058481D01*
X220929815Y-78125520D01*
X220913181Y-78146162D01*
X213396162Y-85663181D01*
X213334839Y-85696666D01*
X213308481Y-85699500D01*
X200585316Y-85699500D01*
X200537864Y-85690061D01*
X200393501Y-85630264D01*
X200393489Y-85630261D01*
X200238845Y-85599500D01*
X200238842Y-85599500D01*
X200081158Y-85599500D01*
X200081155Y-85599500D01*
X199926510Y-85630261D01*
X199926498Y-85630264D01*
X199780827Y-85690602D01*
X199780814Y-85690609D01*
X199649711Y-85778210D01*
X199649707Y-85778213D01*
X199538213Y-85889707D01*
X199538210Y-85889711D01*
X199450609Y-86020814D01*
X199450602Y-86020827D01*
X199390264Y-86166498D01*
X199390261Y-86166510D01*
X199359500Y-86321153D01*
X199359500Y-86478846D01*
X199390261Y-86633489D01*
X199390264Y-86633501D01*
X199450602Y-86779172D01*
X199450609Y-86779185D01*
X199538210Y-86910288D01*
X199538213Y-86910292D01*
X199649707Y-87021786D01*
X199649711Y-87021789D01*
X199780814Y-87109390D01*
X199780827Y-87109397D01*
X199926498Y-87169735D01*
X199926503Y-87169737D01*
X200081153Y-87200499D01*
X200081156Y-87200500D01*
X200081158Y-87200500D01*
X200238844Y-87200500D01*
X200238845Y-87200499D01*
X200393497Y-87169737D01*
X200468963Y-87138478D01*
X200537864Y-87109939D01*
X200585316Y-87100500D01*
X213718996Y-87100500D01*
X213810040Y-87082389D01*
X213854328Y-87073580D01*
X213918069Y-87047177D01*
X213981807Y-87020777D01*
X213981808Y-87020776D01*
X213981811Y-87020775D01*
X214096543Y-86944114D01*
X222194113Y-78846543D01*
X222270774Y-78731812D01*
X222270775Y-78731811D01*
X222323580Y-78604328D01*
X222350500Y-78468993D01*
X222350500Y-71417023D01*
X222370185Y-71349984D01*
X222401616Y-71316704D01*
X222421394Y-71302335D01*
X222484190Y-71256711D01*
X222626711Y-71114190D01*
X222745182Y-70951129D01*
X222836686Y-70771542D01*
X222898970Y-70579851D01*
X222920000Y-70447072D01*
X222930500Y-70380783D01*
X222930500Y-70179216D01*
X222909500Y-70046636D01*
X222898970Y-69980149D01*
X222836686Y-69788458D01*
X222745182Y-69608871D01*
X222626711Y-69445810D01*
X222484190Y-69303289D01*
X222321129Y-69184818D01*
X222237981Y-69142452D01*
X222141539Y-69093312D01*
X221949852Y-69031030D01*
X221750783Y-68999500D01*
X221750778Y-68999500D01*
X221549222Y-68999500D01*
X221549217Y-68999500D01*
X221350147Y-69031030D01*
X221158460Y-69093312D01*
X220978870Y-69184818D01*
X220937545Y-69214843D01*
X220815810Y-69303289D01*
X220815808Y-69303291D01*
X220815807Y-69303291D01*
X220673291Y-69445807D01*
X220673291Y-69445808D01*
X220673289Y-69445810D01*
X220647367Y-69481489D01*
X220554818Y-69608870D01*
X220490485Y-69735131D01*
X220442510Y-69785927D01*
X220374689Y-69802722D01*
X220308554Y-69780184D01*
X220269515Y-69735131D01*
X220205181Y-69608870D01*
X220175774Y-69568395D01*
X220086711Y-69445810D01*
X219944190Y-69303289D01*
X219781129Y-69184818D01*
X219697981Y-69142452D01*
X219601539Y-69093312D01*
X219409852Y-69031030D01*
X219210783Y-68999500D01*
X219210778Y-68999500D01*
X219009222Y-68999500D01*
X219009217Y-68999500D01*
X218810147Y-69031030D01*
X218618460Y-69093312D01*
X218438870Y-69184818D01*
X218397545Y-69214843D01*
X218275810Y-69303289D01*
X218275808Y-69303291D01*
X218275807Y-69303291D01*
X218133291Y-69445807D01*
X218133291Y-69445808D01*
X218133289Y-69445810D01*
X218107367Y-69481489D01*
X218014818Y-69608870D01*
X217950485Y-69735131D01*
X217902510Y-69785927D01*
X217834689Y-69802722D01*
X217768554Y-69780184D01*
X217729515Y-69735131D01*
X217665181Y-69608870D01*
X217635774Y-69568395D01*
X217546711Y-69445810D01*
X217404190Y-69303289D01*
X217241129Y-69184818D01*
X217157981Y-69142452D01*
X217061539Y-69093312D01*
X216869852Y-69031030D01*
X216670783Y-68999500D01*
X216670778Y-68999500D01*
X216469222Y-68999500D01*
X216469217Y-68999500D01*
X216270147Y-69031030D01*
X216078460Y-69093312D01*
X215898870Y-69184818D01*
X215857545Y-69214843D01*
X215735810Y-69303289D01*
X215735808Y-69303291D01*
X215735807Y-69303291D01*
X215593291Y-69445807D01*
X215593291Y-69445808D01*
X215593289Y-69445810D01*
X215567367Y-69481489D01*
X215474818Y-69608870D01*
X215410485Y-69735131D01*
X215362510Y-69785927D01*
X215294689Y-69802722D01*
X215228554Y-69780184D01*
X215189515Y-69735131D01*
X215125181Y-69608870D01*
X215095774Y-69568395D01*
X215006711Y-69445810D01*
X214864190Y-69303289D01*
X214701129Y-69184818D01*
X214617981Y-69142452D01*
X214521539Y-69093312D01*
X214329852Y-69031030D01*
X214130783Y-68999500D01*
X214130778Y-68999500D01*
X213929222Y-68999500D01*
X213929217Y-68999500D01*
X213730147Y-69031030D01*
X213538460Y-69093312D01*
X213358870Y-69184818D01*
X213317545Y-69214843D01*
X213195810Y-69303289D01*
X213195808Y-69303291D01*
X213195807Y-69303291D01*
X213053291Y-69445807D01*
X213053291Y-69445808D01*
X213053289Y-69445810D01*
X213027367Y-69481489D01*
X212934818Y-69608870D01*
X212870485Y-69735131D01*
X212822510Y-69785927D01*
X212754689Y-69802722D01*
X212688554Y-69780184D01*
X212649515Y-69735131D01*
X212585181Y-69608870D01*
X212555774Y-69568395D01*
X212466711Y-69445810D01*
X212324190Y-69303289D01*
X212161129Y-69184818D01*
X212077981Y-69142452D01*
X211981539Y-69093312D01*
X211789852Y-69031030D01*
X211590783Y-68999500D01*
X211590778Y-68999500D01*
X211389222Y-68999500D01*
X211389217Y-68999500D01*
X211190147Y-69031030D01*
X210998460Y-69093312D01*
X210818870Y-69184818D01*
X210777545Y-69214843D01*
X210655810Y-69303289D01*
X210655808Y-69303291D01*
X210655807Y-69303291D01*
X210513291Y-69445807D01*
X210513291Y-69445808D01*
X210513289Y-69445810D01*
X210487367Y-69481489D01*
X210394818Y-69608870D01*
X210330204Y-69735682D01*
X210282229Y-69786478D01*
X210214408Y-69803273D01*
X210148273Y-69780735D01*
X210109234Y-69735682D01*
X210044753Y-69609133D01*
X210015155Y-69568396D01*
X210015155Y-69568395D01*
X209449292Y-70134259D01*
X209434563Y-70079288D01*
X209366104Y-69960713D01*
X209269287Y-69863896D01*
X209150712Y-69795437D01*
X209095738Y-69780707D01*
X209661603Y-69214843D01*
X209661602Y-69214842D01*
X209620869Y-69185248D01*
X209441349Y-69093776D01*
X209441346Y-69093775D01*
X209249735Y-69031518D01*
X209050737Y-69000000D01*
X208849263Y-69000000D01*
X208650264Y-69031518D01*
X208458653Y-69093775D01*
X208458650Y-69093776D01*
X208279135Y-69185245D01*
X208279133Y-69185246D01*
X208238396Y-69214842D01*
X208238396Y-69214843D01*
X208804260Y-69780707D01*
X208749288Y-69795437D01*
X208630713Y-69863896D01*
X208533896Y-69960713D01*
X208465437Y-70079288D01*
X208450707Y-70134260D01*
X207884843Y-69568396D01*
X207884842Y-69568396D01*
X207855246Y-69609133D01*
X207855242Y-69609140D01*
X207790764Y-69735683D01*
X207742789Y-69786478D01*
X207674968Y-69803273D01*
X207608833Y-69780735D01*
X207569795Y-69735682D01*
X207505182Y-69608871D01*
X207386711Y-69445810D01*
X207244190Y-69303289D01*
X207081129Y-69184818D01*
X206997981Y-69142452D01*
X206901539Y-69093312D01*
X206709852Y-69031030D01*
X206510783Y-68999500D01*
X206510778Y-68999500D01*
X206309222Y-68999500D01*
X206309217Y-68999500D01*
X206110147Y-69031030D01*
X205918460Y-69093312D01*
X205738870Y-69184818D01*
X205697545Y-69214843D01*
X205575810Y-69303289D01*
X205575808Y-69303291D01*
X205575807Y-69303291D01*
X205433291Y-69445807D01*
X205433291Y-69445808D01*
X205433289Y-69445810D01*
X205407367Y-69481489D01*
X205314818Y-69608870D01*
X205250485Y-69735131D01*
X205202510Y-69785927D01*
X205134689Y-69802722D01*
X205068554Y-69780184D01*
X205029515Y-69735131D01*
X204965181Y-69608870D01*
X204935774Y-69568395D01*
X204846711Y-69445810D01*
X204704190Y-69303289D01*
X204541129Y-69184818D01*
X204457981Y-69142452D01*
X204361539Y-69093312D01*
X204169852Y-69031030D01*
X203970783Y-68999500D01*
X203970778Y-68999500D01*
X203769222Y-68999500D01*
X203769217Y-68999500D01*
X203570147Y-69031030D01*
X203378460Y-69093312D01*
X203198870Y-69184818D01*
X203157545Y-69214843D01*
X203035810Y-69303289D01*
X203035808Y-69303291D01*
X203035807Y-69303291D01*
X202893291Y-69445807D01*
X202893291Y-69445808D01*
X202893289Y-69445810D01*
X202867367Y-69481489D01*
X202774818Y-69608870D01*
X202710485Y-69735131D01*
X202662510Y-69785927D01*
X202594689Y-69802722D01*
X202528554Y-69780184D01*
X202489515Y-69735131D01*
X202425181Y-69608870D01*
X202395774Y-69568395D01*
X202306711Y-69445810D01*
X202164190Y-69303289D01*
X202001129Y-69184818D01*
X201917981Y-69142452D01*
X201821539Y-69093312D01*
X201629852Y-69031030D01*
X201430783Y-68999500D01*
X201430778Y-68999500D01*
X201229222Y-68999500D01*
X201229217Y-68999500D01*
X201030147Y-69031030D01*
X200838460Y-69093312D01*
X200658870Y-69184818D01*
X200617545Y-69214843D01*
X200495810Y-69303289D01*
X200495808Y-69303291D01*
X200495807Y-69303291D01*
X200353291Y-69445807D01*
X200353291Y-69445808D01*
X200353289Y-69445810D01*
X200327367Y-69481489D01*
X200234818Y-69608870D01*
X200170485Y-69735131D01*
X200122510Y-69785927D01*
X200054689Y-69802722D01*
X199988554Y-69780184D01*
X199949515Y-69735131D01*
X199885181Y-69608870D01*
X199855774Y-69568395D01*
X199766711Y-69445810D01*
X199624190Y-69303289D01*
X199461129Y-69184818D01*
X199377981Y-69142452D01*
X199281539Y-69093312D01*
X199089852Y-69031030D01*
X198890783Y-68999500D01*
X198890778Y-68999500D01*
X198689222Y-68999500D01*
X198689217Y-68999500D01*
X198490147Y-69031030D01*
X198298460Y-69093312D01*
X198118870Y-69184818D01*
X198077545Y-69214843D01*
X197955810Y-69303289D01*
X197955808Y-69303291D01*
X197955807Y-69303291D01*
X197813291Y-69445807D01*
X197813291Y-69445808D01*
X197813289Y-69445810D01*
X197787367Y-69481489D01*
X197694818Y-69608870D01*
X197630485Y-69735131D01*
X197582510Y-69785927D01*
X197514689Y-69802722D01*
X197448554Y-69780184D01*
X197409515Y-69735131D01*
X197345181Y-69608870D01*
X197315774Y-69568395D01*
X197226711Y-69445810D01*
X197084190Y-69303289D01*
X196921129Y-69184818D01*
X196837981Y-69142452D01*
X196741539Y-69093312D01*
X196549852Y-69031030D01*
X196350783Y-68999500D01*
X196350778Y-68999500D01*
X196149222Y-68999500D01*
X196149217Y-68999500D01*
X195950147Y-69031030D01*
X195758460Y-69093312D01*
X195578870Y-69184818D01*
X195537545Y-69214843D01*
X195415810Y-69303289D01*
X195415808Y-69303291D01*
X195415807Y-69303291D01*
X195273291Y-69445807D01*
X195273291Y-69445808D01*
X195273289Y-69445810D01*
X195247367Y-69481489D01*
X195154818Y-69608870D01*
X195090485Y-69735131D01*
X195042510Y-69785927D01*
X194974689Y-69802722D01*
X194908554Y-69780184D01*
X194869515Y-69735131D01*
X194805181Y-69608870D01*
X194775774Y-69568395D01*
X194686711Y-69445810D01*
X194544190Y-69303289D01*
X194381129Y-69184818D01*
X194297981Y-69142452D01*
X194201539Y-69093312D01*
X194009852Y-69031030D01*
X193810783Y-68999500D01*
X193810778Y-68999500D01*
X193609222Y-68999500D01*
X193609217Y-68999500D01*
X193410147Y-69031030D01*
X193218460Y-69093312D01*
X193038870Y-69184818D01*
X192997545Y-69214843D01*
X192875810Y-69303289D01*
X192875808Y-69303291D01*
X192875807Y-69303291D01*
X192733291Y-69445807D01*
X192733291Y-69445808D01*
X192733289Y-69445810D01*
X192707367Y-69481489D01*
X192614818Y-69608870D01*
X192550485Y-69735131D01*
X192502510Y-69785927D01*
X192434689Y-69802722D01*
X192368554Y-69780184D01*
X192329515Y-69735131D01*
X192265181Y-69608870D01*
X192235774Y-69568395D01*
X192146711Y-69445810D01*
X192004190Y-69303289D01*
X191841129Y-69184818D01*
X191757981Y-69142452D01*
X191661539Y-69093312D01*
X191469852Y-69031030D01*
X191270783Y-68999500D01*
X191270778Y-68999500D01*
X191069222Y-68999500D01*
X191069217Y-68999500D01*
X190870147Y-69031030D01*
X190678460Y-69093312D01*
X190498870Y-69184818D01*
X190457545Y-69214843D01*
X190335810Y-69303289D01*
X190335808Y-69303291D01*
X190335807Y-69303291D01*
X190193291Y-69445807D01*
X190193291Y-69445808D01*
X190193289Y-69445810D01*
X190167367Y-69481489D01*
X190074818Y-69608870D01*
X190010485Y-69735131D01*
X189962510Y-69785927D01*
X189894689Y-69802722D01*
X189828554Y-69780184D01*
X189789515Y-69735131D01*
X189725181Y-69608870D01*
X189695774Y-69568395D01*
X189606711Y-69445810D01*
X189464190Y-69303289D01*
X189301129Y-69184818D01*
X189217981Y-69142452D01*
X189121539Y-69093312D01*
X188929852Y-69031030D01*
X188730783Y-68999500D01*
X188730778Y-68999500D01*
X188529222Y-68999500D01*
X188529217Y-68999500D01*
X188330147Y-69031030D01*
X188138460Y-69093312D01*
X187958870Y-69184818D01*
X187917545Y-69214843D01*
X187795810Y-69303289D01*
X187795808Y-69303291D01*
X187795807Y-69303291D01*
X187653291Y-69445807D01*
X187653291Y-69445808D01*
X187653289Y-69445810D01*
X187627367Y-69481489D01*
X187534818Y-69608870D01*
X187470485Y-69735131D01*
X187422510Y-69785927D01*
X187354689Y-69802722D01*
X187288554Y-69780184D01*
X187249515Y-69735131D01*
X187185181Y-69608870D01*
X187155774Y-69568395D01*
X187066711Y-69445810D01*
X186924190Y-69303289D01*
X186761129Y-69184818D01*
X186677981Y-69142452D01*
X186581539Y-69093312D01*
X186389852Y-69031030D01*
X186190783Y-68999500D01*
X186190778Y-68999500D01*
X185989222Y-68999500D01*
X185989217Y-68999500D01*
X185790147Y-69031030D01*
X185598460Y-69093312D01*
X185418870Y-69184818D01*
X185377545Y-69214843D01*
X185255810Y-69303289D01*
X185255808Y-69303291D01*
X185255807Y-69303291D01*
X185113291Y-69445807D01*
X185113291Y-69445808D01*
X185113289Y-69445810D01*
X185087367Y-69481489D01*
X184994818Y-69608870D01*
X184930485Y-69735131D01*
X184882510Y-69785927D01*
X184814689Y-69802722D01*
X184748554Y-69780184D01*
X184709515Y-69735131D01*
X184645181Y-69608870D01*
X184615774Y-69568395D01*
X184526711Y-69445810D01*
X184384190Y-69303289D01*
X184221129Y-69184818D01*
X184137981Y-69142452D01*
X184041539Y-69093312D01*
X183849852Y-69031030D01*
X183650783Y-68999500D01*
X183650778Y-68999500D01*
X183449222Y-68999500D01*
X183449217Y-68999500D01*
X183250147Y-69031030D01*
X183058460Y-69093312D01*
X182878870Y-69184818D01*
X182837545Y-69214843D01*
X182715810Y-69303289D01*
X182715808Y-69303291D01*
X182715807Y-69303291D01*
X182573291Y-69445807D01*
X182573291Y-69445808D01*
X182573289Y-69445810D01*
X182547367Y-69481489D01*
X182454818Y-69608870D01*
X182390485Y-69735131D01*
X182342510Y-69785927D01*
X182274689Y-69802722D01*
X182208554Y-69780184D01*
X182169515Y-69735131D01*
X182105181Y-69608870D01*
X182075774Y-69568395D01*
X181986711Y-69445810D01*
X181844190Y-69303289D01*
X181681129Y-69184818D01*
X181597981Y-69142452D01*
X181501539Y-69093312D01*
X181309852Y-69031030D01*
X181110783Y-68999500D01*
X181110778Y-68999500D01*
X180909222Y-68999500D01*
X180909217Y-68999500D01*
X180710147Y-69031030D01*
X180518460Y-69093312D01*
X180338870Y-69184818D01*
X180297545Y-69214843D01*
X180175810Y-69303289D01*
X180175808Y-69303291D01*
X180175807Y-69303291D01*
X180033291Y-69445807D01*
X180033291Y-69445808D01*
X180033289Y-69445810D01*
X180007367Y-69481489D01*
X179914818Y-69608870D01*
X179850485Y-69735131D01*
X179802510Y-69785927D01*
X179734689Y-69802722D01*
X179668554Y-69780184D01*
X179629515Y-69735131D01*
X179565181Y-69608870D01*
X179535774Y-69568395D01*
X179446711Y-69445810D01*
X179304190Y-69303289D01*
X179141129Y-69184818D01*
X179057981Y-69142452D01*
X178961539Y-69093312D01*
X178769852Y-69031030D01*
X178570783Y-68999500D01*
X178570778Y-68999500D01*
X178369222Y-68999500D01*
X178369217Y-68999500D01*
X178170147Y-69031030D01*
X177978460Y-69093312D01*
X177798870Y-69184818D01*
X177757545Y-69214843D01*
X177635810Y-69303289D01*
X177635808Y-69303291D01*
X177635807Y-69303291D01*
X177493291Y-69445807D01*
X177493291Y-69445808D01*
X177493289Y-69445810D01*
X177467367Y-69481489D01*
X177434817Y-69526290D01*
X177379487Y-69568955D01*
X177309873Y-69574934D01*
X177248078Y-69542328D01*
X177213721Y-69481489D01*
X177210731Y-69455433D01*
X177210676Y-69455436D01*
X177210626Y-69454518D01*
X177210499Y-69453404D01*
X177210499Y-69452129D01*
X177210498Y-69452123D01*
X177210497Y-69452116D01*
X177204091Y-69392517D01*
X177153796Y-69257669D01*
X177153795Y-69257668D01*
X177153793Y-69257664D01*
X177067547Y-69142455D01*
X177067544Y-69142452D01*
X176952335Y-69056206D01*
X176952328Y-69056202D01*
X176817482Y-69005908D01*
X176817483Y-69005908D01*
X176757883Y-68999501D01*
X176757881Y-68999500D01*
X176757873Y-68999500D01*
X176757864Y-68999500D01*
X175102129Y-68999500D01*
X175102123Y-68999501D01*
X175042516Y-69005908D01*
X174907671Y-69056202D01*
X174907664Y-69056206D01*
X174792455Y-69142452D01*
X174792452Y-69142455D01*
X174706206Y-69257664D01*
X174706202Y-69257671D01*
X174655908Y-69392517D01*
X174650179Y-69445807D01*
X174649501Y-69452123D01*
X174649500Y-69452135D01*
X174250500Y-69452135D01*
X174250500Y-44779262D01*
X174650000Y-44779262D01*
X174650000Y-44980737D01*
X174681518Y-45179735D01*
X174743775Y-45371346D01*
X174743776Y-45371349D01*
X174835248Y-45550869D01*
X174864842Y-45591602D01*
X174864843Y-45591603D01*
X175430707Y-45025739D01*
X175445437Y-45080712D01*
X175513896Y-45199287D01*
X175610713Y-45296104D01*
X175729288Y-45364563D01*
X175784259Y-45379292D01*
X175218395Y-45945155D01*
X175259133Y-45974753D01*
X175438650Y-46066223D01*
X175438653Y-46066224D01*
X175630264Y-46128481D01*
X175829263Y-46160000D01*
X176030737Y-46160000D01*
X176229735Y-46128481D01*
X176421346Y-46066224D01*
X176421349Y-46066223D01*
X176600866Y-45974753D01*
X176641602Y-45945156D01*
X176641602Y-45945155D01*
X176075739Y-45379292D01*
X176130712Y-45364563D01*
X176249287Y-45296104D01*
X176346104Y-45199287D01*
X176414563Y-45080712D01*
X176429292Y-45025739D01*
X176995155Y-45591602D01*
X176995156Y-45591602D01*
X177024753Y-45550866D01*
X177089234Y-45424317D01*
X177137209Y-45373521D01*
X177205030Y-45356726D01*
X177271165Y-45379263D01*
X177310204Y-45424317D01*
X177374818Y-45551129D01*
X177493289Y-45714190D01*
X177635810Y-45856711D01*
X177798871Y-45975182D01*
X177977549Y-46066223D01*
X177978460Y-46066687D01*
X178074303Y-46097828D01*
X178170149Y-46128970D01*
X178262348Y-46143572D01*
X178369217Y-46160500D01*
X178369222Y-46160500D01*
X178570783Y-46160500D01*
X178667289Y-46145214D01*
X178769851Y-46128970D01*
X178961542Y-46066686D01*
X179141129Y-45975182D01*
X179304190Y-45856711D01*
X179446711Y-45714190D01*
X179565182Y-45551129D01*
X179629515Y-45424867D01*
X179677490Y-45374072D01*
X179745310Y-45357277D01*
X179811445Y-45379814D01*
X179850484Y-45424867D01*
X179914818Y-45551129D01*
X180033289Y-45714190D01*
X180175810Y-45856711D01*
X180338871Y-45975182D01*
X180517549Y-46066223D01*
X180518460Y-46066687D01*
X180614303Y-46097828D01*
X180710149Y-46128970D01*
X180802348Y-46143572D01*
X180909217Y-46160500D01*
X180909222Y-46160500D01*
X181110783Y-46160500D01*
X181207289Y-46145214D01*
X181309851Y-46128970D01*
X181501542Y-46066686D01*
X181681129Y-45975182D01*
X181844190Y-45856711D01*
X181986711Y-45714190D01*
X182105182Y-45551129D01*
X182169515Y-45424867D01*
X182217490Y-45374072D01*
X182285310Y-45357277D01*
X182351445Y-45379814D01*
X182390484Y-45424867D01*
X182454818Y-45551129D01*
X182573289Y-45714190D01*
X182715810Y-45856711D01*
X182878871Y-45975182D01*
X183057549Y-46066223D01*
X183058460Y-46066687D01*
X183154303Y-46097828D01*
X183250149Y-46128970D01*
X183342348Y-46143572D01*
X183449217Y-46160500D01*
X183449222Y-46160500D01*
X183650783Y-46160500D01*
X183747289Y-46145214D01*
X183849851Y-46128970D01*
X184041542Y-46066686D01*
X184221129Y-45975182D01*
X184384190Y-45856711D01*
X184526711Y-45714190D01*
X184645182Y-45551129D01*
X184709515Y-45424867D01*
X184757490Y-45374072D01*
X184825310Y-45357277D01*
X184891445Y-45379814D01*
X184930484Y-45424867D01*
X184994818Y-45551129D01*
X185113289Y-45714190D01*
X185255810Y-45856711D01*
X185418871Y-45975182D01*
X185597549Y-46066223D01*
X185598460Y-46066687D01*
X185694303Y-46097828D01*
X185790149Y-46128970D01*
X185882348Y-46143572D01*
X185989217Y-46160500D01*
X185989222Y-46160500D01*
X186190783Y-46160500D01*
X186287289Y-46145214D01*
X186389851Y-46128970D01*
X186581542Y-46066686D01*
X186761129Y-45975182D01*
X186924190Y-45856711D01*
X187066711Y-45714190D01*
X187185182Y-45551129D01*
X187249515Y-45424867D01*
X187297490Y-45374072D01*
X187365310Y-45357277D01*
X187431445Y-45379814D01*
X187470484Y-45424867D01*
X187534818Y-45551129D01*
X187653289Y-45714190D01*
X187795810Y-45856711D01*
X187958871Y-45975182D01*
X188137549Y-46066223D01*
X188138460Y-46066687D01*
X188234303Y-46097828D01*
X188330149Y-46128970D01*
X188422348Y-46143572D01*
X188529217Y-46160500D01*
X188529222Y-46160500D01*
X188730783Y-46160500D01*
X188827289Y-46145214D01*
X188929851Y-46128970D01*
X189121542Y-46066686D01*
X189301129Y-45975182D01*
X189464190Y-45856711D01*
X189606711Y-45714190D01*
X189725182Y-45551129D01*
X189789795Y-45424317D01*
X189837769Y-45373521D01*
X189905590Y-45356726D01*
X189971725Y-45379263D01*
X190010764Y-45424316D01*
X190075246Y-45550867D01*
X190104842Y-45591602D01*
X190104843Y-45591603D01*
X190670707Y-45025739D01*
X190685437Y-45080712D01*
X190753896Y-45199287D01*
X190850713Y-45296104D01*
X190969288Y-45364563D01*
X191024259Y-45379292D01*
X190458395Y-45945155D01*
X190499133Y-45974753D01*
X190678650Y-46066223D01*
X190678653Y-46066224D01*
X190870264Y-46128481D01*
X191069263Y-46160000D01*
X191270737Y-46160000D01*
X191469735Y-46128481D01*
X191661346Y-46066224D01*
X191661349Y-46066223D01*
X191840866Y-45974753D01*
X191881602Y-45945156D01*
X191881602Y-45945155D01*
X191315739Y-45379292D01*
X191370712Y-45364563D01*
X191489287Y-45296104D01*
X191586104Y-45199287D01*
X191654563Y-45080712D01*
X191669292Y-45025739D01*
X192235155Y-45591602D01*
X192235156Y-45591602D01*
X192264753Y-45550866D01*
X192329234Y-45424317D01*
X192377209Y-45373521D01*
X192445030Y-45356726D01*
X192511165Y-45379263D01*
X192550204Y-45424317D01*
X192614818Y-45551129D01*
X192733289Y-45714190D01*
X192875810Y-45856711D01*
X193038871Y-45975182D01*
X193217549Y-46066223D01*
X193218460Y-46066687D01*
X193314303Y-46097828D01*
X193410149Y-46128970D01*
X193502348Y-46143572D01*
X193609217Y-46160500D01*
X193609222Y-46160500D01*
X193810783Y-46160500D01*
X193907289Y-46145214D01*
X194009851Y-46128970D01*
X194201542Y-46066686D01*
X194381129Y-45975182D01*
X194544190Y-45856711D01*
X194686711Y-45714190D01*
X194805182Y-45551129D01*
X194869515Y-45424867D01*
X194917490Y-45374072D01*
X194985310Y-45357277D01*
X195051445Y-45379814D01*
X195090484Y-45424867D01*
X195154818Y-45551129D01*
X195273289Y-45714190D01*
X195415810Y-45856711D01*
X195578871Y-45975182D01*
X195757549Y-46066223D01*
X195758460Y-46066687D01*
X195854303Y-46097828D01*
X195950149Y-46128970D01*
X196042348Y-46143572D01*
X196149217Y-46160500D01*
X196149222Y-46160500D01*
X196350783Y-46160500D01*
X196447289Y-46145214D01*
X196549851Y-46128970D01*
X196741542Y-46066686D01*
X196921129Y-45975182D01*
X197084190Y-45856711D01*
X197226711Y-45714190D01*
X197345182Y-45551129D01*
X197409515Y-45424867D01*
X197457490Y-45374072D01*
X197525310Y-45357277D01*
X197591445Y-45379814D01*
X197630484Y-45424867D01*
X197694818Y-45551129D01*
X197813289Y-45714190D01*
X197955810Y-45856711D01*
X198118871Y-45975182D01*
X198297549Y-46066223D01*
X198298460Y-46066687D01*
X198394303Y-46097828D01*
X198490149Y-46128970D01*
X198582348Y-46143572D01*
X198689217Y-46160500D01*
X198689222Y-46160500D01*
X198890783Y-46160500D01*
X198987289Y-46145214D01*
X199089851Y-46128970D01*
X199281542Y-46066686D01*
X199461129Y-45975182D01*
X199624190Y-45856711D01*
X199766711Y-45714190D01*
X199885182Y-45551129D01*
X199949515Y-45424867D01*
X199997490Y-45374072D01*
X200065310Y-45357277D01*
X200131445Y-45379814D01*
X200170484Y-45424867D01*
X200234818Y-45551129D01*
X200353289Y-45714190D01*
X200495810Y-45856711D01*
X200658871Y-45975182D01*
X200837549Y-46066223D01*
X200838460Y-46066687D01*
X200934303Y-46097828D01*
X201030149Y-46128970D01*
X201122348Y-46143572D01*
X201229217Y-46160500D01*
X201229222Y-46160500D01*
X201430783Y-46160500D01*
X201527289Y-46145214D01*
X201629851Y-46128970D01*
X201821542Y-46066686D01*
X202001129Y-45975182D01*
X202164190Y-45856711D01*
X202306711Y-45714190D01*
X202425182Y-45551129D01*
X202489515Y-45424867D01*
X202537490Y-45374072D01*
X202605310Y-45357277D01*
X202671445Y-45379814D01*
X202710484Y-45424867D01*
X202774818Y-45551129D01*
X202893289Y-45714190D01*
X203035810Y-45856711D01*
X203198871Y-45975182D01*
X203377549Y-46066223D01*
X203378460Y-46066687D01*
X203474303Y-46097828D01*
X203570149Y-46128970D01*
X203662348Y-46143572D01*
X203769217Y-46160500D01*
X203769222Y-46160500D01*
X203970783Y-46160500D01*
X204067289Y-46145214D01*
X204169851Y-46128970D01*
X204361542Y-46066686D01*
X204541129Y-45975182D01*
X204704190Y-45856711D01*
X204846711Y-45714190D01*
X204965182Y-45551129D01*
X205029515Y-45424867D01*
X205077490Y-45374072D01*
X205145310Y-45357277D01*
X205211445Y-45379814D01*
X205250484Y-45424867D01*
X205314818Y-45551129D01*
X205433289Y-45714190D01*
X205575810Y-45856711D01*
X205738871Y-45975182D01*
X205917549Y-46066223D01*
X205918460Y-46066687D01*
X206014303Y-46097828D01*
X206110149Y-46128970D01*
X206202348Y-46143572D01*
X206309217Y-46160500D01*
X206309222Y-46160500D01*
X206510783Y-46160500D01*
X206607289Y-46145214D01*
X206709851Y-46128970D01*
X206901542Y-46066686D01*
X207081129Y-45975182D01*
X207244190Y-45856711D01*
X207386711Y-45714190D01*
X207505182Y-45551129D01*
X207569515Y-45424867D01*
X207617490Y-45374072D01*
X207685310Y-45357277D01*
X207751445Y-45379814D01*
X207790484Y-45424867D01*
X207854818Y-45551129D01*
X207973289Y-45714190D01*
X208115810Y-45856711D01*
X208278871Y-45975182D01*
X208457549Y-46066223D01*
X208458460Y-46066687D01*
X208554303Y-46097828D01*
X208650149Y-46128970D01*
X208742348Y-46143572D01*
X208849217Y-46160500D01*
X208849222Y-46160500D01*
X209050783Y-46160500D01*
X209147289Y-46145214D01*
X209249851Y-46128970D01*
X209441542Y-46066686D01*
X209621129Y-45975182D01*
X209784190Y-45856711D01*
X209926711Y-45714190D01*
X210045182Y-45551129D01*
X210109515Y-45424867D01*
X210157490Y-45374072D01*
X210225310Y-45357277D01*
X210291445Y-45379814D01*
X210330484Y-45424867D01*
X210394818Y-45551129D01*
X210513289Y-45714190D01*
X210655810Y-45856711D01*
X210818871Y-45975182D01*
X210997549Y-46066223D01*
X210998460Y-46066687D01*
X211094303Y-46097828D01*
X211190149Y-46128970D01*
X211282348Y-46143572D01*
X211389217Y-46160500D01*
X211389222Y-46160500D01*
X211590783Y-46160500D01*
X211687289Y-46145214D01*
X211789851Y-46128970D01*
X211981542Y-46066686D01*
X212161129Y-45975182D01*
X212324190Y-45856711D01*
X212466711Y-45714190D01*
X212585182Y-45551129D01*
X212649515Y-45424867D01*
X212697490Y-45374072D01*
X212765310Y-45357277D01*
X212831445Y-45379814D01*
X212870484Y-45424867D01*
X212934818Y-45551129D01*
X213053289Y-45714190D01*
X213195810Y-45856711D01*
X213358871Y-45975182D01*
X213537549Y-46066223D01*
X213538460Y-46066687D01*
X213634303Y-46097828D01*
X213730149Y-46128970D01*
X213822348Y-46143572D01*
X213929217Y-46160500D01*
X213929222Y-46160500D01*
X214130783Y-46160500D01*
X214227289Y-46145214D01*
X214329851Y-46128970D01*
X214521542Y-46066686D01*
X214701129Y-45975182D01*
X214864190Y-45856711D01*
X215006711Y-45714190D01*
X215125182Y-45551129D01*
X215189515Y-45424867D01*
X215237490Y-45374072D01*
X215305310Y-45357277D01*
X215371445Y-45379814D01*
X215410484Y-45424867D01*
X215474818Y-45551129D01*
X215593289Y-45714190D01*
X215735810Y-45856711D01*
X215898871Y-45975182D01*
X216077549Y-46066223D01*
X216078460Y-46066687D01*
X216174303Y-46097828D01*
X216270149Y-46128970D01*
X216362348Y-46143572D01*
X216469217Y-46160500D01*
X216469222Y-46160500D01*
X216670783Y-46160500D01*
X216767289Y-46145214D01*
X216869851Y-46128970D01*
X217061542Y-46066686D01*
X217241129Y-45975182D01*
X217404190Y-45856711D01*
X217546711Y-45714190D01*
X217665182Y-45551129D01*
X217729515Y-45424867D01*
X217777490Y-45374072D01*
X217845310Y-45357277D01*
X217911445Y-45379814D01*
X217950484Y-45424867D01*
X218014818Y-45551129D01*
X218133289Y-45714190D01*
X218275810Y-45856711D01*
X218438871Y-45975182D01*
X218617549Y-46066223D01*
X218618460Y-46066687D01*
X218714303Y-46097828D01*
X218810149Y-46128970D01*
X218902348Y-46143572D01*
X219009217Y-46160500D01*
X219009222Y-46160500D01*
X219210783Y-46160500D01*
X219307289Y-46145214D01*
X219409851Y-46128970D01*
X219601542Y-46066686D01*
X219781129Y-45975182D01*
X219944190Y-45856711D01*
X220086711Y-45714190D01*
X220205182Y-45551129D01*
X220269515Y-45424867D01*
X220317490Y-45374072D01*
X220385310Y-45357277D01*
X220451445Y-45379814D01*
X220490484Y-45424867D01*
X220554818Y-45551129D01*
X220673289Y-45714190D01*
X220815810Y-45856711D01*
X220978871Y-45975182D01*
X221157549Y-46066223D01*
X221158460Y-46066687D01*
X221254303Y-46097828D01*
X221350149Y-46128970D01*
X221442348Y-46143572D01*
X221549217Y-46160500D01*
X221549222Y-46160500D01*
X221750783Y-46160500D01*
X221847289Y-46145214D01*
X221949851Y-46128970D01*
X222141542Y-46066686D01*
X222321129Y-45975182D01*
X222484190Y-45856711D01*
X222626711Y-45714190D01*
X222745182Y-45551129D01*
X222836686Y-45371542D01*
X222898970Y-45179851D01*
X222920000Y-45047072D01*
X222930500Y-44980783D01*
X222930500Y-44779216D01*
X222898988Y-44580264D01*
X222898970Y-44580149D01*
X222838954Y-44395437D01*
X222836687Y-44388460D01*
X222809795Y-44335682D01*
X222745182Y-44208871D01*
X222626711Y-44045810D01*
X222484190Y-43903289D01*
X222321129Y-43784818D01*
X222141539Y-43693312D01*
X221949852Y-43631030D01*
X221750783Y-43599500D01*
X221750778Y-43599500D01*
X221549222Y-43599500D01*
X221549217Y-43599500D01*
X221350147Y-43631030D01*
X221158460Y-43693312D01*
X220978870Y-43784818D01*
X220937545Y-43814843D01*
X220815810Y-43903289D01*
X220815808Y-43903291D01*
X220815807Y-43903291D01*
X220673291Y-44045807D01*
X220673291Y-44045808D01*
X220673289Y-44045810D01*
X220622410Y-44115838D01*
X220554818Y-44208870D01*
X220490485Y-44335131D01*
X220442510Y-44385927D01*
X220374689Y-44402722D01*
X220308554Y-44380184D01*
X220269515Y-44335131D01*
X220205319Y-44209140D01*
X220205182Y-44208871D01*
X220086711Y-44045810D01*
X219944190Y-43903289D01*
X219781129Y-43784818D01*
X219601539Y-43693312D01*
X219409852Y-43631030D01*
X219210783Y-43599500D01*
X219210778Y-43599500D01*
X219009222Y-43599500D01*
X219009217Y-43599500D01*
X218810147Y-43631030D01*
X218618460Y-43693312D01*
X218438870Y-43784818D01*
X218397545Y-43814843D01*
X218275810Y-43903289D01*
X218275808Y-43903291D01*
X218275807Y-43903291D01*
X218133291Y-44045807D01*
X218133291Y-44045808D01*
X218133289Y-44045810D01*
X218082410Y-44115838D01*
X218014818Y-44208870D01*
X217950485Y-44335131D01*
X217902510Y-44385927D01*
X217834689Y-44402722D01*
X217768554Y-44380184D01*
X217729515Y-44335131D01*
X217665319Y-44209140D01*
X217665182Y-44208871D01*
X217546711Y-44045810D01*
X217404190Y-43903289D01*
X217241129Y-43784818D01*
X217061539Y-43693312D01*
X216869852Y-43631030D01*
X216670783Y-43599500D01*
X216670778Y-43599500D01*
X216469222Y-43599500D01*
X216469217Y-43599500D01*
X216270147Y-43631030D01*
X216078460Y-43693312D01*
X215898870Y-43784818D01*
X215857545Y-43814843D01*
X215735810Y-43903289D01*
X215735808Y-43903291D01*
X215735807Y-43903291D01*
X215593291Y-44045807D01*
X215593291Y-44045808D01*
X215593289Y-44045810D01*
X215542410Y-44115838D01*
X215474818Y-44208870D01*
X215410485Y-44335131D01*
X215362510Y-44385927D01*
X215294689Y-44402722D01*
X215228554Y-44380184D01*
X215189515Y-44335131D01*
X215125319Y-44209140D01*
X215125182Y-44208871D01*
X215006711Y-44045810D01*
X214864190Y-43903289D01*
X214701129Y-43784818D01*
X214521539Y-43693312D01*
X214329852Y-43631030D01*
X214130783Y-43599500D01*
X214130778Y-43599500D01*
X213929222Y-43599500D01*
X213929217Y-43599500D01*
X213730147Y-43631030D01*
X213538460Y-43693312D01*
X213358870Y-43784818D01*
X213317545Y-43814843D01*
X213195810Y-43903289D01*
X213195808Y-43903291D01*
X213195807Y-43903291D01*
X213053291Y-44045807D01*
X213053291Y-44045808D01*
X213053289Y-44045810D01*
X213002410Y-44115838D01*
X212934818Y-44208870D01*
X212870485Y-44335131D01*
X212822510Y-44385927D01*
X212754689Y-44402722D01*
X212688554Y-44380184D01*
X212649515Y-44335131D01*
X212585319Y-44209140D01*
X212585182Y-44208871D01*
X212466711Y-44045810D01*
X212324190Y-43903289D01*
X212161129Y-43784818D01*
X211981539Y-43693312D01*
X211789852Y-43631030D01*
X211590783Y-43599500D01*
X211590778Y-43599500D01*
X211389222Y-43599500D01*
X211389217Y-43599500D01*
X211190147Y-43631030D01*
X210998460Y-43693312D01*
X210818870Y-43784818D01*
X210777545Y-43814843D01*
X210655810Y-43903289D01*
X210655808Y-43903291D01*
X210655807Y-43903291D01*
X210513291Y-44045807D01*
X210513291Y-44045808D01*
X210513289Y-44045810D01*
X210462410Y-44115838D01*
X210394818Y-44208870D01*
X210330485Y-44335131D01*
X210282510Y-44385927D01*
X210214689Y-44402722D01*
X210148554Y-44380184D01*
X210109515Y-44335131D01*
X210045319Y-44209140D01*
X210045182Y-44208871D01*
X209926711Y-44045810D01*
X209784190Y-43903289D01*
X209621129Y-43784818D01*
X209441539Y-43693312D01*
X209249852Y-43631030D01*
X209050783Y-43599500D01*
X209050778Y-43599500D01*
X208849222Y-43599500D01*
X208849217Y-43599500D01*
X208650147Y-43631030D01*
X208458460Y-43693312D01*
X208278870Y-43784818D01*
X208237545Y-43814843D01*
X208115810Y-43903289D01*
X208115808Y-43903291D01*
X208115807Y-43903291D01*
X207973291Y-44045807D01*
X207973291Y-44045808D01*
X207973289Y-44045810D01*
X207922410Y-44115838D01*
X207854818Y-44208870D01*
X207790485Y-44335131D01*
X207742510Y-44385927D01*
X207674689Y-44402722D01*
X207608554Y-44380184D01*
X207569515Y-44335131D01*
X207505319Y-44209140D01*
X207505182Y-44208871D01*
X207386711Y-44045810D01*
X207244190Y-43903289D01*
X207081129Y-43784818D01*
X206901539Y-43693312D01*
X206709852Y-43631030D01*
X206510783Y-43599500D01*
X206510778Y-43599500D01*
X206309222Y-43599500D01*
X206309217Y-43599500D01*
X206110147Y-43631030D01*
X205918460Y-43693312D01*
X205738870Y-43784818D01*
X205697545Y-43814843D01*
X205575810Y-43903289D01*
X205575808Y-43903291D01*
X205575807Y-43903291D01*
X205433291Y-44045807D01*
X205433291Y-44045808D01*
X205433289Y-44045810D01*
X205382410Y-44115838D01*
X205314818Y-44208870D01*
X205250485Y-44335131D01*
X205202510Y-44385927D01*
X205134689Y-44402722D01*
X205068554Y-44380184D01*
X205029515Y-44335131D01*
X204965319Y-44209140D01*
X204965182Y-44208871D01*
X204846711Y-44045810D01*
X204704190Y-43903289D01*
X204541129Y-43784818D01*
X204361539Y-43693312D01*
X204169852Y-43631030D01*
X203970783Y-43599500D01*
X203970778Y-43599500D01*
X203769222Y-43599500D01*
X203769217Y-43599500D01*
X203570147Y-43631030D01*
X203378460Y-43693312D01*
X203198870Y-43784818D01*
X203157545Y-43814843D01*
X203035810Y-43903289D01*
X203035808Y-43903291D01*
X203035807Y-43903291D01*
X202893291Y-44045807D01*
X202893291Y-44045808D01*
X202893289Y-44045810D01*
X202842410Y-44115838D01*
X202774818Y-44208870D01*
X202710485Y-44335131D01*
X202662510Y-44385927D01*
X202594689Y-44402722D01*
X202528554Y-44380184D01*
X202489515Y-44335131D01*
X202425319Y-44209140D01*
X202425182Y-44208871D01*
X202306711Y-44045810D01*
X202164190Y-43903289D01*
X202001129Y-43784818D01*
X201821539Y-43693312D01*
X201629852Y-43631030D01*
X201430783Y-43599500D01*
X201430778Y-43599500D01*
X201229222Y-43599500D01*
X201229217Y-43599500D01*
X201030147Y-43631030D01*
X200838460Y-43693312D01*
X200658870Y-43784818D01*
X200617545Y-43814843D01*
X200495810Y-43903289D01*
X200495808Y-43903291D01*
X200495807Y-43903291D01*
X200353291Y-44045807D01*
X200353291Y-44045808D01*
X200353289Y-44045810D01*
X200302410Y-44115838D01*
X200234818Y-44208870D01*
X200170485Y-44335131D01*
X200122510Y-44385927D01*
X200054689Y-44402722D01*
X199988554Y-44380184D01*
X199949515Y-44335131D01*
X199885319Y-44209140D01*
X199885182Y-44208871D01*
X199766711Y-44045810D01*
X199624190Y-43903289D01*
X199461129Y-43784818D01*
X199281539Y-43693312D01*
X199089852Y-43631030D01*
X198890783Y-43599500D01*
X198890778Y-43599500D01*
X198689222Y-43599500D01*
X198689217Y-43599500D01*
X198490147Y-43631030D01*
X198298460Y-43693312D01*
X198118870Y-43784818D01*
X198077545Y-43814843D01*
X197955810Y-43903289D01*
X197955808Y-43903291D01*
X197955807Y-43903291D01*
X197813291Y-44045807D01*
X197813291Y-44045808D01*
X197813289Y-44045810D01*
X197762410Y-44115838D01*
X197694818Y-44208870D01*
X197630485Y-44335131D01*
X197582510Y-44385927D01*
X197514689Y-44402722D01*
X197448554Y-44380184D01*
X197409515Y-44335131D01*
X197345319Y-44209140D01*
X197345182Y-44208871D01*
X197226711Y-44045810D01*
X197084190Y-43903289D01*
X196921129Y-43784818D01*
X196741539Y-43693312D01*
X196549852Y-43631030D01*
X196350783Y-43599500D01*
X196350778Y-43599500D01*
X196149222Y-43599500D01*
X196149217Y-43599500D01*
X195950147Y-43631030D01*
X195758460Y-43693312D01*
X195578870Y-43784818D01*
X195537545Y-43814843D01*
X195415810Y-43903289D01*
X195415808Y-43903291D01*
X195415807Y-43903291D01*
X195273291Y-44045807D01*
X195273291Y-44045808D01*
X195273289Y-44045810D01*
X195222410Y-44115838D01*
X195154818Y-44208870D01*
X195090485Y-44335131D01*
X195042510Y-44385927D01*
X194974689Y-44402722D01*
X194908554Y-44380184D01*
X194869515Y-44335131D01*
X194805319Y-44209140D01*
X194805182Y-44208871D01*
X194686711Y-44045810D01*
X194544190Y-43903289D01*
X194381129Y-43784818D01*
X194201539Y-43693312D01*
X194009852Y-43631030D01*
X193810783Y-43599500D01*
X193810778Y-43599500D01*
X193609222Y-43599500D01*
X193609217Y-43599500D01*
X193410147Y-43631030D01*
X193218460Y-43693312D01*
X193038870Y-43784818D01*
X192997545Y-43814843D01*
X192875810Y-43903289D01*
X192875808Y-43903291D01*
X192875807Y-43903291D01*
X192733291Y-44045807D01*
X192733291Y-44045808D01*
X192733289Y-44045810D01*
X192682410Y-44115838D01*
X192614818Y-44208870D01*
X192550204Y-44335682D01*
X192502229Y-44386478D01*
X192434408Y-44403273D01*
X192368273Y-44380735D01*
X192329234Y-44335682D01*
X192264753Y-44209133D01*
X192235155Y-44168396D01*
X192235155Y-44168395D01*
X191669292Y-44734259D01*
X191654563Y-44679288D01*
X191586104Y-44560713D01*
X191489287Y-44463896D01*
X191370712Y-44395437D01*
X191315738Y-44380707D01*
X191881603Y-43814843D01*
X191881602Y-43814842D01*
X191840869Y-43785248D01*
X191661349Y-43693776D01*
X191661346Y-43693775D01*
X191469735Y-43631518D01*
X191270737Y-43600000D01*
X191069263Y-43600000D01*
X190870264Y-43631518D01*
X190678653Y-43693775D01*
X190678650Y-43693776D01*
X190499135Y-43785245D01*
X190499133Y-43785246D01*
X190458396Y-43814842D01*
X190458396Y-43814843D01*
X191024260Y-44380707D01*
X190969288Y-44395437D01*
X190850713Y-44463896D01*
X190753896Y-44560713D01*
X190685437Y-44679288D01*
X190670707Y-44734260D01*
X190104843Y-44168396D01*
X190104842Y-44168396D01*
X190075246Y-44209133D01*
X190075242Y-44209140D01*
X190010764Y-44335683D01*
X189962789Y-44386478D01*
X189894968Y-44403273D01*
X189828833Y-44380735D01*
X189789795Y-44335682D01*
X189725182Y-44208871D01*
X189606711Y-44045810D01*
X189464190Y-43903289D01*
X189301129Y-43784818D01*
X189121539Y-43693312D01*
X188929852Y-43631030D01*
X188730783Y-43599500D01*
X188730778Y-43599500D01*
X188529222Y-43599500D01*
X188529217Y-43599500D01*
X188330147Y-43631030D01*
X188138460Y-43693312D01*
X187958870Y-43784818D01*
X187917545Y-43814843D01*
X187795810Y-43903289D01*
X187795808Y-43903291D01*
X187795807Y-43903291D01*
X187653291Y-44045807D01*
X187653291Y-44045808D01*
X187653289Y-44045810D01*
X187602410Y-44115838D01*
X187534818Y-44208870D01*
X187470485Y-44335131D01*
X187422510Y-44385927D01*
X187354689Y-44402722D01*
X187288554Y-44380184D01*
X187249515Y-44335131D01*
X187185319Y-44209140D01*
X187185182Y-44208871D01*
X187066711Y-44045810D01*
X186924190Y-43903289D01*
X186761129Y-43784818D01*
X186581539Y-43693312D01*
X186389852Y-43631030D01*
X186190783Y-43599500D01*
X186190778Y-43599500D01*
X185989222Y-43599500D01*
X185989217Y-43599500D01*
X185790147Y-43631030D01*
X185598460Y-43693312D01*
X185418870Y-43784818D01*
X185377545Y-43814843D01*
X185255810Y-43903289D01*
X185255808Y-43903291D01*
X185255807Y-43903291D01*
X185113291Y-44045807D01*
X185113291Y-44045808D01*
X185113289Y-44045810D01*
X185062410Y-44115838D01*
X184994818Y-44208870D01*
X184930485Y-44335131D01*
X184882510Y-44385927D01*
X184814689Y-44402722D01*
X184748554Y-44380184D01*
X184709515Y-44335131D01*
X184645319Y-44209140D01*
X184645182Y-44208871D01*
X184526711Y-44045810D01*
X184384190Y-43903289D01*
X184221129Y-43784818D01*
X184041539Y-43693312D01*
X183849852Y-43631030D01*
X183650783Y-43599500D01*
X183650778Y-43599500D01*
X183449222Y-43599500D01*
X183449217Y-43599500D01*
X183250147Y-43631030D01*
X183058460Y-43693312D01*
X182878870Y-43784818D01*
X182837545Y-43814843D01*
X182715810Y-43903289D01*
X182715808Y-43903291D01*
X182715807Y-43903291D01*
X182573291Y-44045807D01*
X182573291Y-44045808D01*
X182573289Y-44045810D01*
X182522410Y-44115838D01*
X182454818Y-44208870D01*
X182390485Y-44335131D01*
X182342510Y-44385927D01*
X182274689Y-44402722D01*
X182208554Y-44380184D01*
X182169515Y-44335131D01*
X182105319Y-44209140D01*
X182105182Y-44208871D01*
X181986711Y-44045810D01*
X181844190Y-43903289D01*
X181681129Y-43784818D01*
X181501539Y-43693312D01*
X181309852Y-43631030D01*
X181110783Y-43599500D01*
X181110778Y-43599500D01*
X180909222Y-43599500D01*
X180909217Y-43599500D01*
X180710147Y-43631030D01*
X180518460Y-43693312D01*
X180338870Y-43784818D01*
X180297545Y-43814843D01*
X180175810Y-43903289D01*
X180175808Y-43903291D01*
X180175807Y-43903291D01*
X180033291Y-44045807D01*
X180033291Y-44045808D01*
X180033289Y-44045810D01*
X179982410Y-44115838D01*
X179914818Y-44208870D01*
X179850485Y-44335131D01*
X179802510Y-44385927D01*
X179734689Y-44402722D01*
X179668554Y-44380184D01*
X179629515Y-44335131D01*
X179565319Y-44209140D01*
X179565182Y-44208871D01*
X179446711Y-44045810D01*
X179304190Y-43903289D01*
X179141129Y-43784818D01*
X178961539Y-43693312D01*
X178769852Y-43631030D01*
X178570783Y-43599500D01*
X178570778Y-43599500D01*
X178369222Y-43599500D01*
X178369217Y-43599500D01*
X178170147Y-43631030D01*
X177978460Y-43693312D01*
X177798870Y-43784818D01*
X177757545Y-43814843D01*
X177635810Y-43903289D01*
X177635808Y-43903291D01*
X177635807Y-43903291D01*
X177493291Y-44045807D01*
X177493291Y-44045808D01*
X177493289Y-44045810D01*
X177442410Y-44115838D01*
X177374818Y-44208870D01*
X177310204Y-44335682D01*
X177262229Y-44386478D01*
X177194408Y-44403273D01*
X177128273Y-44380735D01*
X177089234Y-44335682D01*
X177024753Y-44209133D01*
X176995155Y-44168396D01*
X176995155Y-44168395D01*
X176429292Y-44734259D01*
X176414563Y-44679288D01*
X176346104Y-44560713D01*
X176249287Y-44463896D01*
X176130712Y-44395437D01*
X176075738Y-44380707D01*
X176641603Y-43814843D01*
X176641602Y-43814842D01*
X176600869Y-43785248D01*
X176421349Y-43693776D01*
X176421346Y-43693775D01*
X176229735Y-43631518D01*
X176030737Y-43600000D01*
X175829263Y-43600000D01*
X175630264Y-43631518D01*
X175438653Y-43693775D01*
X175438650Y-43693776D01*
X175259135Y-43785245D01*
X175259133Y-43785246D01*
X175218396Y-43814842D01*
X175218396Y-43814843D01*
X175784260Y-44380707D01*
X175729288Y-44395437D01*
X175610713Y-44463896D01*
X175513896Y-44560713D01*
X175445437Y-44679288D01*
X175430707Y-44734260D01*
X174864843Y-44168396D01*
X174864842Y-44168396D01*
X174835246Y-44209133D01*
X174835245Y-44209135D01*
X174743776Y-44388650D01*
X174743775Y-44388653D01*
X174681518Y-44580264D01*
X174650000Y-44779262D01*
X174250500Y-44779262D01*
X174250500Y-40647648D01*
X175449500Y-40647648D01*
X175449500Y-40852351D01*
X175481522Y-41054534D01*
X175544781Y-41249223D01*
X175637715Y-41431613D01*
X175758028Y-41597213D01*
X175902786Y-41741971D01*
X176057749Y-41854556D01*
X176068390Y-41862287D01*
X176184607Y-41921503D01*
X176250776Y-41955218D01*
X176250778Y-41955218D01*
X176250781Y-41955220D01*
X176355137Y-41989127D01*
X176445465Y-42018477D01*
X176546557Y-42034488D01*
X176647648Y-42050500D01*
X176647649Y-42050500D01*
X176852351Y-42050500D01*
X176852352Y-42050500D01*
X177054534Y-42018477D01*
X177249219Y-41955220D01*
X177431610Y-41862287D01*
X177524590Y-41794732D01*
X177597213Y-41741971D01*
X177597215Y-41741968D01*
X177597219Y-41741966D01*
X177741966Y-41597219D01*
X177741968Y-41597215D01*
X177741971Y-41597213D01*
X177794732Y-41524590D01*
X177862287Y-41431610D01*
X177955220Y-41249219D01*
X178018477Y-41054534D01*
X178050500Y-40852352D01*
X178050500Y-40647648D01*
X219599500Y-40647648D01*
X219599500Y-40852351D01*
X219631522Y-41054534D01*
X219694781Y-41249223D01*
X219787715Y-41431613D01*
X219908028Y-41597213D01*
X220052786Y-41741971D01*
X220207749Y-41854556D01*
X220218390Y-41862287D01*
X220334607Y-41921503D01*
X220400776Y-41955218D01*
X220400778Y-41955218D01*
X220400781Y-41955220D01*
X220505137Y-41989127D01*
X220595465Y-42018477D01*
X220696557Y-42034488D01*
X220797648Y-42050500D01*
X220797649Y-42050500D01*
X221002351Y-42050500D01*
X221002352Y-42050500D01*
X221204534Y-42018477D01*
X221399219Y-41955220D01*
X221581610Y-41862287D01*
X221674590Y-41794732D01*
X221747213Y-41741971D01*
X221747215Y-41741968D01*
X221747219Y-41741966D01*
X221891966Y-41597219D01*
X221891968Y-41597215D01*
X221891971Y-41597213D01*
X221944732Y-41524590D01*
X222012287Y-41431610D01*
X222105220Y-41249219D01*
X222168477Y-41054534D01*
X222200500Y-40852352D01*
X222200500Y-40647648D01*
X222168477Y-40445466D01*
X222105220Y-40250781D01*
X222105218Y-40250778D01*
X222105218Y-40250776D01*
X222071503Y-40184607D01*
X222012287Y-40068390D01*
X222004556Y-40057749D01*
X221891971Y-39902786D01*
X221747213Y-39758028D01*
X221581613Y-39637715D01*
X221581612Y-39637714D01*
X221581610Y-39637713D01*
X221524653Y-39608691D01*
X221399223Y-39544781D01*
X221204534Y-39481522D01*
X221029995Y-39453878D01*
X221002352Y-39449500D01*
X220797648Y-39449500D01*
X220773329Y-39453351D01*
X220595465Y-39481522D01*
X220400776Y-39544781D01*
X220218386Y-39637715D01*
X220052786Y-39758028D01*
X219908028Y-39902786D01*
X219787715Y-40068386D01*
X219694781Y-40250776D01*
X219631522Y-40445465D01*
X219599500Y-40647648D01*
X178050500Y-40647648D01*
X178018477Y-40445466D01*
X177955220Y-40250781D01*
X177955218Y-40250778D01*
X177955218Y-40250776D01*
X177921503Y-40184607D01*
X177862287Y-40068390D01*
X177854556Y-40057749D01*
X177741971Y-39902786D01*
X177597213Y-39758028D01*
X177431613Y-39637715D01*
X177431612Y-39637714D01*
X177431610Y-39637713D01*
X177374653Y-39608691D01*
X177249223Y-39544781D01*
X177054534Y-39481522D01*
X176879995Y-39453878D01*
X176852352Y-39449500D01*
X176647648Y-39449500D01*
X176623329Y-39453351D01*
X176445465Y-39481522D01*
X176250776Y-39544781D01*
X176068386Y-39637715D01*
X175902786Y-39758028D01*
X175758028Y-39902786D01*
X175637715Y-40068386D01*
X175544781Y-40250776D01*
X175481522Y-40445465D01*
X175449500Y-40647648D01*
X174250500Y-40647648D01*
X174250500Y-38624500D01*
X174270185Y-38557461D01*
X174322989Y-38511706D01*
X174374500Y-38500500D01*
X223145500Y-38500500D01*
X223212539Y-38520185D01*
G37*
%TD.AperFunction*%
%TD*%
M02*
