M48
; DRILL file {KiCad 9.0.1} date 2025-08-16T15:34:20+0200
; FORMAT={-:-/ absolute / metric / decimal}
; #@! TF.CreationDate,2025-08-16T15:34:20+02:00
; #@! TF.GenerationSoftware,Kicad,Pcbnew,9.0.1
; #@! TF.FileFunction,Plated,1,2,PTH
FMAT,2
METRIC
; #@! TA.AperFunction,Plated,PTH,ViaDrill
T1C0.300
; #@! TA.AperFunction,Plated,PTH,ComponentDrill
T2C0.800
; #@! TA.AperFunction,Plated,PTH,ComponentDrill
T3C1.000
; #@! TA.AperFunction,Plated,PTH,ComponentDrill
T4C1.040
%
G90
G05
T1
X180.75Y-74.19
X185.99Y-75.8
X196.23Y-75.66
X200.16Y-86.4
T2
X221.54Y-89.1
X221.54Y-91.64
X221.54Y-94.18
T3
X213.65Y-99.89
X213.65Y-104.89
T4
X175.93Y-44.88
X175.93Y-70.28
X178.47Y-44.88
X178.47Y-70.28
X181.01Y-44.88
X181.01Y-70.28
X183.55Y-44.88
X183.55Y-70.28
X186.09Y-44.88
X186.09Y-70.28
X188.63Y-44.88
X188.63Y-70.28
X191.17Y-44.88
X191.17Y-70.28
X193.71Y-44.88
X193.71Y-70.28
X196.25Y-44.88
X196.25Y-70.28
X198.79Y-44.88
X198.79Y-70.28
X201.33Y-44.88
X201.33Y-70.28
X203.87Y-44.88
X203.87Y-70.28
X206.41Y-44.88
X206.41Y-70.28
X208.95Y-44.88
X208.95Y-70.28
X211.49Y-44.88
X211.49Y-70.28
X214.03Y-44.88
X214.03Y-70.28
X216.57Y-44.88
X216.57Y-70.28
X219.11Y-44.88
X219.11Y-70.28
X221.65Y-44.88
X221.65Y-70.28
T3
G00X193.9Y-95.1
M15
G01X196.5Y-95.1
M16
G05
G00X194.1Y-101.4
M15
G01X196.3Y-101.4
M16
G05
G00X200.0Y-96.9
M15
G01X200.0Y-99.1
M16
G05
M30
