%TF.GenerationSoftware,KiCad,Pcbnew,9.0.1*%
%TF.CreationDate,2025-08-16T15:34:18+02:00*%
%TF.ProjectId,ESP32_LED_v2,45535033-325f-44c4-9544-5f76322e6b69,rev?*%
%TF.SameCoordinates,Original*%
%TF.FileFunction,Soldermask,Bot*%
%TF.FilePolarity,Negative*%
%FSLAX46Y46*%
G04 Gerber Fmt 4.6, Leading zero omitted, Abs format (unit mm)*
G04 Created by KiCad (PCBNEW 9.0.1) date 2025-08-16 15:34:18*
%MOMM*%
%LPD*%
G01*
G04 APERTURE LIST*
G04 Aperture macros list*
%AMRoundRect*
0 Rectangle with rounded corners*
0 $1 Rounding radius*
0 $2 $3 $4 $5 $6 $7 $8 $9 X,Y pos of 4 corners*
0 Add a 4 corners polygon primitive as box body*
4,1,4,$2,$3,$4,$5,$6,$7,$8,$9,$2,$3,0*
0 Add four circle primitives for the rounded corners*
1,1,$1+$1,$2,$3*
1,1,$1+$1,$4,$5*
1,1,$1+$1,$6,$7*
1,1,$1+$1,$8,$9*
0 Add four rect primitives between the rounded corners*
20,1,$1+$1,$2,$3,$4,$5,0*
20,1,$1+$1,$4,$5,$6,$7,0*
20,1,$1+$1,$6,$7,$8,$9,0*
20,1,$1+$1,$8,$9,$2,$3,0*%
G04 Aperture macros list end*
%ADD10R,2.000000X2.000000*%
%ADD11C,2.000000*%
%ADD12RoundRect,0.102000X0.780000X-0.780000X0.780000X0.780000X-0.780000X0.780000X-0.780000X-0.780000X0*%
%ADD13C,1.764000*%
%ADD14C,2.100000*%
%ADD15O,2.000000X1.200000*%
%ADD16O,4.604000X2.404000*%
%ADD17O,4.204000X2.204000*%
%ADD18O,2.204000X4.204000*%
G04 APERTURE END LIST*
D10*
%TO.C,C1*%
X213650000Y-99890000D03*
D11*
X213650000Y-104890000D03*
%TD*%
D12*
%TO.C,U2*%
X175930000Y-70280000D03*
D13*
X178470000Y-70280000D03*
X181010000Y-70280000D03*
X183550000Y-70280000D03*
X186090000Y-70280000D03*
X188630000Y-70280000D03*
X191170000Y-70280000D03*
X193710000Y-70280000D03*
X196250000Y-70280000D03*
X198790000Y-70280000D03*
X201330000Y-70280000D03*
X203870000Y-70280000D03*
X206410000Y-70280000D03*
X208950000Y-70280000D03*
X211490000Y-70280000D03*
X214030000Y-70280000D03*
X216570000Y-70280000D03*
X219110000Y-70280000D03*
X221650000Y-70280000D03*
X175930000Y-44880000D03*
X178470000Y-44880000D03*
X181010000Y-44880000D03*
X183550000Y-44880000D03*
X186090000Y-44880000D03*
X188630000Y-44880000D03*
X191170000Y-44880000D03*
X193710000Y-44880000D03*
X196250000Y-44880000D03*
X198790000Y-44880000D03*
X201330000Y-44880000D03*
X203870000Y-44880000D03*
X206410000Y-44880000D03*
X208950000Y-44880000D03*
X211490000Y-44880000D03*
X214030000Y-44880000D03*
X216570000Y-44880000D03*
X219110000Y-44880000D03*
X221650000Y-44880000D03*
%TD*%
D14*
%TO.C,2.1mm*%
X176750000Y-108750000D03*
%TD*%
%TO.C,2.1mm*%
X220900000Y-108750000D03*
%TD*%
%TO.C,2.1mm*%
X176750000Y-40750000D03*
%TD*%
D15*
%TO.C,J2*%
X221540000Y-89100000D03*
X221540000Y-91640000D03*
X221540000Y-94180000D03*
%TD*%
D14*
%TO.C,2.1mm*%
X220900000Y-40750000D03*
%TD*%
D16*
%TO.C,J1*%
X195200000Y-95100000D03*
D17*
X195200000Y-101400000D03*
D18*
X200000000Y-98000000D03*
%TD*%
M02*
