%TF.GenerationSoftware,KiCad,Pcbnew,9.0.1*%
%TF.CreationDate,2025-08-16T15:34:18+02:00*%
%TF.ProjectId,ESP32_LED_v2,45535033-325f-44c4-9544-5f76322e6b69,rev?*%
%TF.SameCoordinates,Original*%
%TF.FileFunction,Legend,Top*%
%TF.FilePolarity,Positive*%
%FSLAX46Y46*%
G04 Gerber Fmt 4.6, Leading zero omitted, Abs format (unit mm)*
G04 Created by KiCad (PCBNEW 9.0.1) date 2025-08-16 15:34:18*
%MOMM*%
%LPD*%
G01*
G04 APERTURE LIST*
%ADD10C,0.300000*%
%ADD11C,0.150000*%
%ADD12C,0.100000*%
%ADD13C,0.120000*%
%ADD14C,0.127000*%
%ADD15C,0.200000*%
G04 APERTURE END LIST*
D10*
X190854510Y-89200828D02*
X190854510Y-87700828D01*
X190854510Y-87700828D02*
X191425939Y-87700828D01*
X191425939Y-87700828D02*
X191568796Y-87772257D01*
X191568796Y-87772257D02*
X191640225Y-87843685D01*
X191640225Y-87843685D02*
X191711653Y-87986542D01*
X191711653Y-87986542D02*
X191711653Y-88200828D01*
X191711653Y-88200828D02*
X191640225Y-88343685D01*
X191640225Y-88343685D02*
X191568796Y-88415114D01*
X191568796Y-88415114D02*
X191425939Y-88486542D01*
X191425939Y-88486542D02*
X190854510Y-88486542D01*
X193211653Y-89057971D02*
X193140225Y-89129400D01*
X193140225Y-89129400D02*
X192925939Y-89200828D01*
X192925939Y-89200828D02*
X192783082Y-89200828D01*
X192783082Y-89200828D02*
X192568796Y-89129400D01*
X192568796Y-89129400D02*
X192425939Y-88986542D01*
X192425939Y-88986542D02*
X192354510Y-88843685D01*
X192354510Y-88843685D02*
X192283082Y-88557971D01*
X192283082Y-88557971D02*
X192283082Y-88343685D01*
X192283082Y-88343685D02*
X192354510Y-88057971D01*
X192354510Y-88057971D02*
X192425939Y-87915114D01*
X192425939Y-87915114D02*
X192568796Y-87772257D01*
X192568796Y-87772257D02*
X192783082Y-87700828D01*
X192783082Y-87700828D02*
X192925939Y-87700828D01*
X192925939Y-87700828D02*
X193140225Y-87772257D01*
X193140225Y-87772257D02*
X193211653Y-87843685D01*
X194354510Y-88415114D02*
X194568796Y-88486542D01*
X194568796Y-88486542D02*
X194640225Y-88557971D01*
X194640225Y-88557971D02*
X194711653Y-88700828D01*
X194711653Y-88700828D02*
X194711653Y-88915114D01*
X194711653Y-88915114D02*
X194640225Y-89057971D01*
X194640225Y-89057971D02*
X194568796Y-89129400D01*
X194568796Y-89129400D02*
X194425939Y-89200828D01*
X194425939Y-89200828D02*
X193854510Y-89200828D01*
X193854510Y-89200828D02*
X193854510Y-87700828D01*
X193854510Y-87700828D02*
X194354510Y-87700828D01*
X194354510Y-87700828D02*
X194497368Y-87772257D01*
X194497368Y-87772257D02*
X194568796Y-87843685D01*
X194568796Y-87843685D02*
X194640225Y-87986542D01*
X194640225Y-87986542D02*
X194640225Y-88129400D01*
X194640225Y-88129400D02*
X194568796Y-88272257D01*
X194568796Y-88272257D02*
X194497368Y-88343685D01*
X194497368Y-88343685D02*
X194354510Y-88415114D01*
X194354510Y-88415114D02*
X193854510Y-88415114D01*
X194997368Y-89343685D02*
X196140225Y-89343685D01*
X196997367Y-88415114D02*
X197211653Y-88486542D01*
X197211653Y-88486542D02*
X197283082Y-88557971D01*
X197283082Y-88557971D02*
X197354510Y-88700828D01*
X197354510Y-88700828D02*
X197354510Y-88915114D01*
X197354510Y-88915114D02*
X197283082Y-89057971D01*
X197283082Y-89057971D02*
X197211653Y-89129400D01*
X197211653Y-89129400D02*
X197068796Y-89200828D01*
X197068796Y-89200828D02*
X196497367Y-89200828D01*
X196497367Y-89200828D02*
X196497367Y-87700828D01*
X196497367Y-87700828D02*
X196997367Y-87700828D01*
X196997367Y-87700828D02*
X197140225Y-87772257D01*
X197140225Y-87772257D02*
X197211653Y-87843685D01*
X197211653Y-87843685D02*
X197283082Y-87986542D01*
X197283082Y-87986542D02*
X197283082Y-88129400D01*
X197283082Y-88129400D02*
X197211653Y-88272257D01*
X197211653Y-88272257D02*
X197140225Y-88343685D01*
X197140225Y-88343685D02*
X196997367Y-88415114D01*
X196997367Y-88415114D02*
X196497367Y-88415114D01*
X197925939Y-88772257D02*
X198640225Y-88772257D01*
X197783082Y-89200828D02*
X198283082Y-87700828D01*
X198283082Y-87700828D02*
X198783082Y-89200828D01*
X200140224Y-89200828D02*
X199640224Y-88486542D01*
X199283081Y-89200828D02*
X199283081Y-87700828D01*
X199283081Y-87700828D02*
X199854510Y-87700828D01*
X199854510Y-87700828D02*
X199997367Y-87772257D01*
X199997367Y-87772257D02*
X200068796Y-87843685D01*
X200068796Y-87843685D02*
X200140224Y-87986542D01*
X200140224Y-87986542D02*
X200140224Y-88200828D01*
X200140224Y-88200828D02*
X200068796Y-88343685D01*
X200068796Y-88343685D02*
X199997367Y-88415114D01*
X199997367Y-88415114D02*
X199854510Y-88486542D01*
X199854510Y-88486542D02*
X199283081Y-88486542D01*
X201497367Y-89200828D02*
X200783081Y-89200828D01*
X200783081Y-89200828D02*
X200783081Y-87700828D01*
X201997367Y-88415114D02*
X202497367Y-88415114D01*
X202711653Y-89200828D02*
X201997367Y-89200828D01*
X201997367Y-89200828D02*
X201997367Y-87700828D01*
X201997367Y-87700828D02*
X202711653Y-87700828D01*
X204211653Y-89200828D02*
X203711653Y-88486542D01*
X203354510Y-89200828D02*
X203354510Y-87700828D01*
X203354510Y-87700828D02*
X203925939Y-87700828D01*
X203925939Y-87700828D02*
X204068796Y-87772257D01*
X204068796Y-87772257D02*
X204140225Y-87843685D01*
X204140225Y-87843685D02*
X204211653Y-87986542D01*
X204211653Y-87986542D02*
X204211653Y-88200828D01*
X204211653Y-88200828D02*
X204140225Y-88343685D01*
X204140225Y-88343685D02*
X204068796Y-88415114D01*
X204068796Y-88415114D02*
X203925939Y-88486542D01*
X203925939Y-88486542D02*
X203354510Y-88486542D01*
X204783082Y-88772257D02*
X205497368Y-88772257D01*
X204640225Y-89200828D02*
X205140225Y-87700828D01*
X205140225Y-87700828D02*
X205640225Y-89200828D01*
D11*
X188389642Y-74444819D02*
X187913452Y-74444819D01*
X187913452Y-74444819D02*
X187913452Y-73444819D01*
X188722976Y-73921009D02*
X189056309Y-73921009D01*
X189199166Y-74444819D02*
X188722976Y-74444819D01*
X188722976Y-74444819D02*
X188722976Y-73444819D01*
X188722976Y-73444819D02*
X189199166Y-73444819D01*
X189627738Y-74444819D02*
X189627738Y-73444819D01*
X189627738Y-73444819D02*
X189865833Y-73444819D01*
X189865833Y-73444819D02*
X190008690Y-73492438D01*
X190008690Y-73492438D02*
X190103928Y-73587676D01*
X190103928Y-73587676D02*
X190151547Y-73682914D01*
X190151547Y-73682914D02*
X190199166Y-73873390D01*
X190199166Y-73873390D02*
X190199166Y-74016247D01*
X190199166Y-74016247D02*
X190151547Y-74206723D01*
X190151547Y-74206723D02*
X190103928Y-74301961D01*
X190103928Y-74301961D02*
X190008690Y-74397200D01*
X190008690Y-74397200D02*
X189865833Y-74444819D01*
X189865833Y-74444819D02*
X189627738Y-74444819D01*
X212738152Y-79423333D02*
X213404819Y-79423333D01*
X212357200Y-79661428D02*
X213071485Y-79899523D01*
X213071485Y-79899523D02*
X213071485Y-79280476D01*
X212404819Y-78994761D02*
X212404819Y-78328095D01*
X212404819Y-78328095D02*
X213404819Y-78756666D01*
X212404819Y-77756666D02*
X212404819Y-77661428D01*
X212404819Y-77661428D02*
X212452438Y-77566190D01*
X212452438Y-77566190D02*
X212500057Y-77518571D01*
X212500057Y-77518571D02*
X212595295Y-77470952D01*
X212595295Y-77470952D02*
X212785771Y-77423333D01*
X212785771Y-77423333D02*
X213023866Y-77423333D01*
X213023866Y-77423333D02*
X213214342Y-77470952D01*
X213214342Y-77470952D02*
X213309580Y-77518571D01*
X213309580Y-77518571D02*
X213357200Y-77566190D01*
X213357200Y-77566190D02*
X213404819Y-77661428D01*
X213404819Y-77661428D02*
X213404819Y-77756666D01*
X213404819Y-77756666D02*
X213357200Y-77851904D01*
X213357200Y-77851904D02*
X213309580Y-77899523D01*
X213309580Y-77899523D02*
X213214342Y-77947142D01*
X213214342Y-77947142D02*
X213023866Y-77994761D01*
X213023866Y-77994761D02*
X212785771Y-77994761D01*
X212785771Y-77994761D02*
X212595295Y-77947142D01*
X212595295Y-77947142D02*
X212500057Y-77899523D01*
X212500057Y-77899523D02*
X212452438Y-77851904D01*
X212452438Y-77851904D02*
X212404819Y-77756666D01*
X213404819Y-77042380D02*
X213404819Y-76804285D01*
X213404819Y-76804285D02*
X213214342Y-76804285D01*
X213214342Y-76804285D02*
X213166723Y-76899523D01*
X213166723Y-76899523D02*
X213071485Y-76994761D01*
X213071485Y-76994761D02*
X212928628Y-77042380D01*
X212928628Y-77042380D02*
X212690533Y-77042380D01*
X212690533Y-77042380D02*
X212547676Y-76994761D01*
X212547676Y-76994761D02*
X212452438Y-76899523D01*
X212452438Y-76899523D02*
X212404819Y-76756666D01*
X212404819Y-76756666D02*
X212404819Y-76566190D01*
X212404819Y-76566190D02*
X212452438Y-76423333D01*
X212452438Y-76423333D02*
X212547676Y-76328095D01*
X212547676Y-76328095D02*
X212690533Y-76280476D01*
X212690533Y-76280476D02*
X212928628Y-76280476D01*
X212928628Y-76280476D02*
X213071485Y-76328095D01*
X213071485Y-76328095D02*
X213166723Y-76423333D01*
X213166723Y-76423333D02*
X213214342Y-76518571D01*
X213214342Y-76518571D02*
X213404819Y-76518571D01*
X213404819Y-76518571D02*
X213404819Y-76280476D01*
X207854819Y-104485238D02*
X207854819Y-105056666D01*
X207854819Y-104770952D02*
X206854819Y-104770952D01*
X206854819Y-104770952D02*
X206997676Y-104866190D01*
X206997676Y-104866190D02*
X207092914Y-104961428D01*
X207092914Y-104961428D02*
X207140533Y-105056666D01*
X206854819Y-103866190D02*
X206854819Y-103770952D01*
X206854819Y-103770952D02*
X206902438Y-103675714D01*
X206902438Y-103675714D02*
X206950057Y-103628095D01*
X206950057Y-103628095D02*
X207045295Y-103580476D01*
X207045295Y-103580476D02*
X207235771Y-103532857D01*
X207235771Y-103532857D02*
X207473866Y-103532857D01*
X207473866Y-103532857D02*
X207664342Y-103580476D01*
X207664342Y-103580476D02*
X207759580Y-103628095D01*
X207759580Y-103628095D02*
X207807200Y-103675714D01*
X207807200Y-103675714D02*
X207854819Y-103770952D01*
X207854819Y-103770952D02*
X207854819Y-103866190D01*
X207854819Y-103866190D02*
X207807200Y-103961428D01*
X207807200Y-103961428D02*
X207759580Y-104009047D01*
X207759580Y-104009047D02*
X207664342Y-104056666D01*
X207664342Y-104056666D02*
X207473866Y-104104285D01*
X207473866Y-104104285D02*
X207235771Y-104104285D01*
X207235771Y-104104285D02*
X207045295Y-104056666D01*
X207045295Y-104056666D02*
X206950057Y-104009047D01*
X206950057Y-104009047D02*
X206902438Y-103961428D01*
X206902438Y-103961428D02*
X206854819Y-103866190D01*
X206854819Y-102913809D02*
X206854819Y-102818571D01*
X206854819Y-102818571D02*
X206902438Y-102723333D01*
X206902438Y-102723333D02*
X206950057Y-102675714D01*
X206950057Y-102675714D02*
X207045295Y-102628095D01*
X207045295Y-102628095D02*
X207235771Y-102580476D01*
X207235771Y-102580476D02*
X207473866Y-102580476D01*
X207473866Y-102580476D02*
X207664342Y-102628095D01*
X207664342Y-102628095D02*
X207759580Y-102675714D01*
X207759580Y-102675714D02*
X207807200Y-102723333D01*
X207807200Y-102723333D02*
X207854819Y-102818571D01*
X207854819Y-102818571D02*
X207854819Y-102913809D01*
X207854819Y-102913809D02*
X207807200Y-103009047D01*
X207807200Y-103009047D02*
X207759580Y-103056666D01*
X207759580Y-103056666D02*
X207664342Y-103104285D01*
X207664342Y-103104285D02*
X207473866Y-103151904D01*
X207473866Y-103151904D02*
X207235771Y-103151904D01*
X207235771Y-103151904D02*
X207045295Y-103104285D01*
X207045295Y-103104285D02*
X206950057Y-103056666D01*
X206950057Y-103056666D02*
X206902438Y-103009047D01*
X206902438Y-103009047D02*
X206854819Y-102913809D01*
X206854819Y-101961428D02*
X206854819Y-101866190D01*
X206854819Y-101866190D02*
X206902438Y-101770952D01*
X206902438Y-101770952D02*
X206950057Y-101723333D01*
X206950057Y-101723333D02*
X207045295Y-101675714D01*
X207045295Y-101675714D02*
X207235771Y-101628095D01*
X207235771Y-101628095D02*
X207473866Y-101628095D01*
X207473866Y-101628095D02*
X207664342Y-101675714D01*
X207664342Y-101675714D02*
X207759580Y-101723333D01*
X207759580Y-101723333D02*
X207807200Y-101770952D01*
X207807200Y-101770952D02*
X207854819Y-101866190D01*
X207854819Y-101866190D02*
X207854819Y-101961428D01*
X207854819Y-101961428D02*
X207807200Y-102056666D01*
X207807200Y-102056666D02*
X207759580Y-102104285D01*
X207759580Y-102104285D02*
X207664342Y-102151904D01*
X207664342Y-102151904D02*
X207473866Y-102199523D01*
X207473866Y-102199523D02*
X207235771Y-102199523D01*
X207235771Y-102199523D02*
X207045295Y-102151904D01*
X207045295Y-102151904D02*
X206950057Y-102104285D01*
X206950057Y-102104285D02*
X206902438Y-102056666D01*
X206902438Y-102056666D02*
X206854819Y-101961428D01*
X207188152Y-101199523D02*
X208188152Y-101199523D01*
X207711961Y-100723333D02*
X207807200Y-100675714D01*
X207807200Y-100675714D02*
X207854819Y-100580476D01*
X207711961Y-101199523D02*
X207807200Y-101151904D01*
X207807200Y-101151904D02*
X207854819Y-101056666D01*
X207854819Y-101056666D02*
X207854819Y-100866190D01*
X207854819Y-100866190D02*
X207807200Y-100770952D01*
X207807200Y-100770952D02*
X207711961Y-100723333D01*
X207711961Y-100723333D02*
X207188152Y-100723333D01*
X207331009Y-99818571D02*
X207331009Y-100151904D01*
X207854819Y-100151904D02*
X206854819Y-100151904D01*
X206854819Y-100151904D02*
X206854819Y-99675714D01*
X198354819Y-79537619D02*
X198354819Y-80109047D01*
X198354819Y-79823333D02*
X197354819Y-79823333D01*
X197354819Y-79823333D02*
X197497676Y-79918571D01*
X197497676Y-79918571D02*
X197592914Y-80013809D01*
X197592914Y-80013809D02*
X197640533Y-80109047D01*
X197354819Y-78918571D02*
X197354819Y-78823333D01*
X197354819Y-78823333D02*
X197402438Y-78728095D01*
X197402438Y-78728095D02*
X197450057Y-78680476D01*
X197450057Y-78680476D02*
X197545295Y-78632857D01*
X197545295Y-78632857D02*
X197735771Y-78585238D01*
X197735771Y-78585238D02*
X197973866Y-78585238D01*
X197973866Y-78585238D02*
X198164342Y-78632857D01*
X198164342Y-78632857D02*
X198259580Y-78680476D01*
X198259580Y-78680476D02*
X198307200Y-78728095D01*
X198307200Y-78728095D02*
X198354819Y-78823333D01*
X198354819Y-78823333D02*
X198354819Y-78918571D01*
X198354819Y-78918571D02*
X198307200Y-79013809D01*
X198307200Y-79013809D02*
X198259580Y-79061428D01*
X198259580Y-79061428D02*
X198164342Y-79109047D01*
X198164342Y-79109047D02*
X197973866Y-79156666D01*
X197973866Y-79156666D02*
X197735771Y-79156666D01*
X197735771Y-79156666D02*
X197545295Y-79109047D01*
X197545295Y-79109047D02*
X197450057Y-79061428D01*
X197450057Y-79061428D02*
X197402438Y-79013809D01*
X197402438Y-79013809D02*
X197354819Y-78918571D01*
X197354819Y-77966190D02*
X197354819Y-77870952D01*
X197354819Y-77870952D02*
X197402438Y-77775714D01*
X197402438Y-77775714D02*
X197450057Y-77728095D01*
X197450057Y-77728095D02*
X197545295Y-77680476D01*
X197545295Y-77680476D02*
X197735771Y-77632857D01*
X197735771Y-77632857D02*
X197973866Y-77632857D01*
X197973866Y-77632857D02*
X198164342Y-77680476D01*
X198164342Y-77680476D02*
X198259580Y-77728095D01*
X198259580Y-77728095D02*
X198307200Y-77775714D01*
X198307200Y-77775714D02*
X198354819Y-77870952D01*
X198354819Y-77870952D02*
X198354819Y-77966190D01*
X198354819Y-77966190D02*
X198307200Y-78061428D01*
X198307200Y-78061428D02*
X198259580Y-78109047D01*
X198259580Y-78109047D02*
X198164342Y-78156666D01*
X198164342Y-78156666D02*
X197973866Y-78204285D01*
X197973866Y-78204285D02*
X197735771Y-78204285D01*
X197735771Y-78204285D02*
X197545295Y-78156666D01*
X197545295Y-78156666D02*
X197450057Y-78109047D01*
X197450057Y-78109047D02*
X197402438Y-78061428D01*
X197402438Y-78061428D02*
X197354819Y-77966190D01*
X197688152Y-77204285D02*
X198354819Y-77204285D01*
X197783390Y-77204285D02*
X197735771Y-77156666D01*
X197735771Y-77156666D02*
X197688152Y-77061428D01*
X197688152Y-77061428D02*
X197688152Y-76918571D01*
X197688152Y-76918571D02*
X197735771Y-76823333D01*
X197735771Y-76823333D02*
X197831009Y-76775714D01*
X197831009Y-76775714D02*
X198354819Y-76775714D01*
X197831009Y-75966190D02*
X197831009Y-76299523D01*
X198354819Y-76299523D02*
X197354819Y-76299523D01*
X197354819Y-76299523D02*
X197354819Y-75823333D01*
D12*
X204298609Y-47458258D02*
X204298609Y-47743972D01*
X204298609Y-47601115D02*
X203798609Y-47601115D01*
X203798609Y-47601115D02*
X203870038Y-47648734D01*
X203870038Y-47648734D02*
X203917657Y-47696353D01*
X203917657Y-47696353D02*
X203941466Y-47743972D01*
X203798609Y-47029687D02*
X203798609Y-47124925D01*
X203798609Y-47124925D02*
X203822419Y-47172544D01*
X203822419Y-47172544D02*
X203846228Y-47196354D01*
X203846228Y-47196354D02*
X203917657Y-47243973D01*
X203917657Y-47243973D02*
X204012895Y-47267782D01*
X204012895Y-47267782D02*
X204203371Y-47267782D01*
X204203371Y-47267782D02*
X204250990Y-47243973D01*
X204250990Y-47243973D02*
X204274800Y-47220163D01*
X204274800Y-47220163D02*
X204298609Y-47172544D01*
X204298609Y-47172544D02*
X204298609Y-47077306D01*
X204298609Y-47077306D02*
X204274800Y-47029687D01*
X204274800Y-47029687D02*
X204250990Y-47005878D01*
X204250990Y-47005878D02*
X204203371Y-46982068D01*
X204203371Y-46982068D02*
X204084323Y-46982068D01*
X204084323Y-46982068D02*
X204036704Y-47005878D01*
X204036704Y-47005878D02*
X204012895Y-47029687D01*
X204012895Y-47029687D02*
X203989085Y-47077306D01*
X203989085Y-47077306D02*
X203989085Y-47172544D01*
X203989085Y-47172544D02*
X204012895Y-47220163D01*
X204012895Y-47220163D02*
X204036704Y-47243973D01*
X204036704Y-47243973D02*
X204084323Y-47267782D01*
X193448609Y-68417782D02*
X193448609Y-68108258D01*
X193448609Y-68108258D02*
X193639085Y-68274925D01*
X193639085Y-68274925D02*
X193639085Y-68203496D01*
X193639085Y-68203496D02*
X193662895Y-68155877D01*
X193662895Y-68155877D02*
X193686704Y-68132068D01*
X193686704Y-68132068D02*
X193734323Y-68108258D01*
X193734323Y-68108258D02*
X193853371Y-68108258D01*
X193853371Y-68108258D02*
X193900990Y-68132068D01*
X193900990Y-68132068D02*
X193924800Y-68155877D01*
X193924800Y-68155877D02*
X193948609Y-68203496D01*
X193948609Y-68203496D02*
X193948609Y-68346353D01*
X193948609Y-68346353D02*
X193924800Y-68393972D01*
X193924800Y-68393972D02*
X193900990Y-68417782D01*
X193448609Y-67941592D02*
X193448609Y-67632068D01*
X193448609Y-67632068D02*
X193639085Y-67798735D01*
X193639085Y-67798735D02*
X193639085Y-67727306D01*
X193639085Y-67727306D02*
X193662895Y-67679687D01*
X193662895Y-67679687D02*
X193686704Y-67655878D01*
X193686704Y-67655878D02*
X193734323Y-67632068D01*
X193734323Y-67632068D02*
X193853371Y-67632068D01*
X193853371Y-67632068D02*
X193900990Y-67655878D01*
X193900990Y-67655878D02*
X193924800Y-67679687D01*
X193924800Y-67679687D02*
X193948609Y-67727306D01*
X193948609Y-67727306D02*
X193948609Y-67870163D01*
X193948609Y-67870163D02*
X193924800Y-67917782D01*
X193924800Y-67917782D02*
X193900990Y-67941592D01*
X178446228Y-47818972D02*
X178422419Y-47795163D01*
X178422419Y-47795163D02*
X178398609Y-47747544D01*
X178398609Y-47747544D02*
X178398609Y-47628496D01*
X178398609Y-47628496D02*
X178422419Y-47580877D01*
X178422419Y-47580877D02*
X178446228Y-47557068D01*
X178446228Y-47557068D02*
X178493847Y-47533258D01*
X178493847Y-47533258D02*
X178541466Y-47533258D01*
X178541466Y-47533258D02*
X178612895Y-47557068D01*
X178612895Y-47557068D02*
X178898609Y-47842782D01*
X178898609Y-47842782D02*
X178898609Y-47533258D01*
X178398609Y-47366592D02*
X178398609Y-47057068D01*
X178398609Y-47057068D02*
X178589085Y-47223735D01*
X178589085Y-47223735D02*
X178589085Y-47152306D01*
X178589085Y-47152306D02*
X178612895Y-47104687D01*
X178612895Y-47104687D02*
X178636704Y-47080878D01*
X178636704Y-47080878D02*
X178684323Y-47057068D01*
X178684323Y-47057068D02*
X178803371Y-47057068D01*
X178803371Y-47057068D02*
X178850990Y-47080878D01*
X178850990Y-47080878D02*
X178874800Y-47104687D01*
X178874800Y-47104687D02*
X178898609Y-47152306D01*
X178898609Y-47152306D02*
X178898609Y-47295163D01*
X178898609Y-47295163D02*
X178874800Y-47342782D01*
X178874800Y-47342782D02*
X178850990Y-47366592D01*
X206623609Y-68233258D02*
X206623609Y-68518972D01*
X206623609Y-68376115D02*
X206123609Y-68376115D01*
X206123609Y-68376115D02*
X206195038Y-68423734D01*
X206195038Y-68423734D02*
X206242657Y-68471353D01*
X206242657Y-68471353D02*
X206266466Y-68518972D01*
X206171228Y-68042782D02*
X206147419Y-68018973D01*
X206147419Y-68018973D02*
X206123609Y-67971354D01*
X206123609Y-67971354D02*
X206123609Y-67852306D01*
X206123609Y-67852306D02*
X206147419Y-67804687D01*
X206147419Y-67804687D02*
X206171228Y-67780878D01*
X206171228Y-67780878D02*
X206218847Y-67757068D01*
X206218847Y-67757068D02*
X206266466Y-67757068D01*
X206266466Y-67757068D02*
X206337895Y-67780878D01*
X206337895Y-67780878D02*
X206623609Y-68066592D01*
X206623609Y-68066592D02*
X206623609Y-67757068D01*
X217023609Y-47795163D02*
X216523609Y-47795163D01*
X216523609Y-47795163D02*
X216523609Y-47676115D01*
X216523609Y-47676115D02*
X216547419Y-47604687D01*
X216547419Y-47604687D02*
X216595038Y-47557068D01*
X216595038Y-47557068D02*
X216642657Y-47533258D01*
X216642657Y-47533258D02*
X216737895Y-47509449D01*
X216737895Y-47509449D02*
X216809323Y-47509449D01*
X216809323Y-47509449D02*
X216904561Y-47533258D01*
X216904561Y-47533258D02*
X216952180Y-47557068D01*
X216952180Y-47557068D02*
X216999800Y-47604687D01*
X216999800Y-47604687D02*
X217023609Y-47676115D01*
X217023609Y-47676115D02*
X217023609Y-47795163D01*
X217023609Y-47033258D02*
X217023609Y-47318972D01*
X217023609Y-47176115D02*
X216523609Y-47176115D01*
X216523609Y-47176115D02*
X216595038Y-47223734D01*
X216595038Y-47223734D02*
X216642657Y-47271353D01*
X216642657Y-47271353D02*
X216666466Y-47318972D01*
X211648609Y-68258258D02*
X211648609Y-68543972D01*
X211648609Y-68401115D02*
X211148609Y-68401115D01*
X211148609Y-68401115D02*
X211220038Y-68448734D01*
X211220038Y-68448734D02*
X211267657Y-68496353D01*
X211267657Y-68496353D02*
X211291466Y-68543972D01*
X211148609Y-68091592D02*
X211148609Y-67782068D01*
X211148609Y-67782068D02*
X211339085Y-67948735D01*
X211339085Y-67948735D02*
X211339085Y-67877306D01*
X211339085Y-67877306D02*
X211362895Y-67829687D01*
X211362895Y-67829687D02*
X211386704Y-67805878D01*
X211386704Y-67805878D02*
X211434323Y-67782068D01*
X211434323Y-67782068D02*
X211553371Y-67782068D01*
X211553371Y-67782068D02*
X211600990Y-67805878D01*
X211600990Y-67805878D02*
X211624800Y-67829687D01*
X211624800Y-67829687D02*
X211648609Y-67877306D01*
X211648609Y-67877306D02*
X211648609Y-68020163D01*
X211648609Y-68020163D02*
X211624800Y-68067782D01*
X211624800Y-68067782D02*
X211600990Y-68091592D01*
X194198609Y-47433258D02*
X194198609Y-47718972D01*
X194198609Y-47576115D02*
X193698609Y-47576115D01*
X193698609Y-47576115D02*
X193770038Y-47623734D01*
X193770038Y-47623734D02*
X193817657Y-47671353D01*
X193817657Y-47671353D02*
X193841466Y-47718972D01*
X194198609Y-47195163D02*
X194198609Y-47099925D01*
X194198609Y-47099925D02*
X194174800Y-47052306D01*
X194174800Y-47052306D02*
X194150990Y-47028497D01*
X194150990Y-47028497D02*
X194079561Y-46980878D01*
X194079561Y-46980878D02*
X193984323Y-46957068D01*
X193984323Y-46957068D02*
X193793847Y-46957068D01*
X193793847Y-46957068D02*
X193746228Y-46980878D01*
X193746228Y-46980878D02*
X193722419Y-47004687D01*
X193722419Y-47004687D02*
X193698609Y-47052306D01*
X193698609Y-47052306D02*
X193698609Y-47147544D01*
X193698609Y-47147544D02*
X193722419Y-47195163D01*
X193722419Y-47195163D02*
X193746228Y-47218973D01*
X193746228Y-47218973D02*
X193793847Y-47242782D01*
X193793847Y-47242782D02*
X193912895Y-47242782D01*
X193912895Y-47242782D02*
X193960514Y-47218973D01*
X193960514Y-47218973D02*
X193984323Y-47195163D01*
X193984323Y-47195163D02*
X194008133Y-47147544D01*
X194008133Y-47147544D02*
X194008133Y-47052306D01*
X194008133Y-47052306D02*
X193984323Y-47004687D01*
X193984323Y-47004687D02*
X193960514Y-46980878D01*
X193960514Y-46980878D02*
X193912895Y-46957068D01*
X214248609Y-68495163D02*
X213748609Y-68495163D01*
X213748609Y-68495163D02*
X213748609Y-68376115D01*
X213748609Y-68376115D02*
X213772419Y-68304687D01*
X213772419Y-68304687D02*
X213820038Y-68257068D01*
X213820038Y-68257068D02*
X213867657Y-68233258D01*
X213867657Y-68233258D02*
X213962895Y-68209449D01*
X213962895Y-68209449D02*
X214034323Y-68209449D01*
X214034323Y-68209449D02*
X214129561Y-68233258D01*
X214129561Y-68233258D02*
X214177180Y-68257068D01*
X214177180Y-68257068D02*
X214224800Y-68304687D01*
X214224800Y-68304687D02*
X214248609Y-68376115D01*
X214248609Y-68376115D02*
X214248609Y-68495163D01*
X213796228Y-68018972D02*
X213772419Y-67995163D01*
X213772419Y-67995163D02*
X213748609Y-67947544D01*
X213748609Y-67947544D02*
X213748609Y-67828496D01*
X213748609Y-67828496D02*
X213772419Y-67780877D01*
X213772419Y-67780877D02*
X213796228Y-67757068D01*
X213796228Y-67757068D02*
X213843847Y-67733258D01*
X213843847Y-67733258D02*
X213891466Y-67733258D01*
X213891466Y-67733258D02*
X213962895Y-67757068D01*
X213962895Y-67757068D02*
X214248609Y-68042782D01*
X214248609Y-68042782D02*
X214248609Y-67733258D01*
X214348609Y-47558258D02*
X214348609Y-47843972D01*
X214348609Y-47701115D02*
X213848609Y-47701115D01*
X213848609Y-47701115D02*
X213920038Y-47748734D01*
X213920038Y-47748734D02*
X213967657Y-47796353D01*
X213967657Y-47796353D02*
X213991466Y-47843972D01*
X213848609Y-47105878D02*
X213848609Y-47343973D01*
X213848609Y-47343973D02*
X214086704Y-47367782D01*
X214086704Y-47367782D02*
X214062895Y-47343973D01*
X214062895Y-47343973D02*
X214039085Y-47296354D01*
X214039085Y-47296354D02*
X214039085Y-47177306D01*
X214039085Y-47177306D02*
X214062895Y-47129687D01*
X214062895Y-47129687D02*
X214086704Y-47105878D01*
X214086704Y-47105878D02*
X214134323Y-47082068D01*
X214134323Y-47082068D02*
X214253371Y-47082068D01*
X214253371Y-47082068D02*
X214300990Y-47105878D01*
X214300990Y-47105878D02*
X214324800Y-47129687D01*
X214324800Y-47129687D02*
X214348609Y-47177306D01*
X214348609Y-47177306D02*
X214348609Y-47296354D01*
X214348609Y-47296354D02*
X214324800Y-47343973D01*
X214324800Y-47343973D02*
X214300990Y-47367782D01*
X190898609Y-68392782D02*
X190898609Y-68083258D01*
X190898609Y-68083258D02*
X191089085Y-68249925D01*
X191089085Y-68249925D02*
X191089085Y-68178496D01*
X191089085Y-68178496D02*
X191112895Y-68130877D01*
X191112895Y-68130877D02*
X191136704Y-68107068D01*
X191136704Y-68107068D02*
X191184323Y-68083258D01*
X191184323Y-68083258D02*
X191303371Y-68083258D01*
X191303371Y-68083258D02*
X191350990Y-68107068D01*
X191350990Y-68107068D02*
X191374800Y-68130877D01*
X191374800Y-68130877D02*
X191398609Y-68178496D01*
X191398609Y-68178496D02*
X191398609Y-68321353D01*
X191398609Y-68321353D02*
X191374800Y-68368972D01*
X191374800Y-68368972D02*
X191350990Y-68392782D01*
X190946228Y-67892782D02*
X190922419Y-67868973D01*
X190922419Y-67868973D02*
X190898609Y-67821354D01*
X190898609Y-67821354D02*
X190898609Y-67702306D01*
X190898609Y-67702306D02*
X190922419Y-67654687D01*
X190922419Y-67654687D02*
X190946228Y-67630878D01*
X190946228Y-67630878D02*
X190993847Y-67607068D01*
X190993847Y-67607068D02*
X191041466Y-67607068D01*
X191041466Y-67607068D02*
X191112895Y-67630878D01*
X191112895Y-67630878D02*
X191398609Y-67916592D01*
X191398609Y-67916592D02*
X191398609Y-67607068D01*
X195996228Y-68418972D02*
X195972419Y-68395163D01*
X195972419Y-68395163D02*
X195948609Y-68347544D01*
X195948609Y-68347544D02*
X195948609Y-68228496D01*
X195948609Y-68228496D02*
X195972419Y-68180877D01*
X195972419Y-68180877D02*
X195996228Y-68157068D01*
X195996228Y-68157068D02*
X196043847Y-68133258D01*
X196043847Y-68133258D02*
X196091466Y-68133258D01*
X196091466Y-68133258D02*
X196162895Y-68157068D01*
X196162895Y-68157068D02*
X196448609Y-68442782D01*
X196448609Y-68442782D02*
X196448609Y-68133258D01*
X195948609Y-67680878D02*
X195948609Y-67918973D01*
X195948609Y-67918973D02*
X196186704Y-67942782D01*
X196186704Y-67942782D02*
X196162895Y-67918973D01*
X196162895Y-67918973D02*
X196139085Y-67871354D01*
X196139085Y-67871354D02*
X196139085Y-67752306D01*
X196139085Y-67752306D02*
X196162895Y-67704687D01*
X196162895Y-67704687D02*
X196186704Y-67680878D01*
X196186704Y-67680878D02*
X196234323Y-67657068D01*
X196234323Y-67657068D02*
X196353371Y-67657068D01*
X196353371Y-67657068D02*
X196400990Y-67680878D01*
X196400990Y-67680878D02*
X196424800Y-67704687D01*
X196424800Y-67704687D02*
X196448609Y-67752306D01*
X196448609Y-67752306D02*
X196448609Y-67871354D01*
X196448609Y-67871354D02*
X196424800Y-67918973D01*
X196424800Y-67918973D02*
X196400990Y-67942782D01*
X216723609Y-68445163D02*
X216223609Y-68445163D01*
X216223609Y-68445163D02*
X216223609Y-68326115D01*
X216223609Y-68326115D02*
X216247419Y-68254687D01*
X216247419Y-68254687D02*
X216295038Y-68207068D01*
X216295038Y-68207068D02*
X216342657Y-68183258D01*
X216342657Y-68183258D02*
X216437895Y-68159449D01*
X216437895Y-68159449D02*
X216509323Y-68159449D01*
X216509323Y-68159449D02*
X216604561Y-68183258D01*
X216604561Y-68183258D02*
X216652180Y-68207068D01*
X216652180Y-68207068D02*
X216699800Y-68254687D01*
X216699800Y-68254687D02*
X216723609Y-68326115D01*
X216723609Y-68326115D02*
X216723609Y-68445163D01*
X216223609Y-67992782D02*
X216223609Y-67683258D01*
X216223609Y-67683258D02*
X216414085Y-67849925D01*
X216414085Y-67849925D02*
X216414085Y-67778496D01*
X216414085Y-67778496D02*
X216437895Y-67730877D01*
X216437895Y-67730877D02*
X216461704Y-67707068D01*
X216461704Y-67707068D02*
X216509323Y-67683258D01*
X216509323Y-67683258D02*
X216628371Y-67683258D01*
X216628371Y-67683258D02*
X216675990Y-67707068D01*
X216675990Y-67707068D02*
X216699800Y-67730877D01*
X216699800Y-67730877D02*
X216723609Y-67778496D01*
X216723609Y-67778496D02*
X216723609Y-67921353D01*
X216723609Y-67921353D02*
X216699800Y-67968972D01*
X216699800Y-67968972D02*
X216675990Y-67992782D01*
X180748609Y-68291591D02*
X181248609Y-68124925D01*
X181248609Y-68124925D02*
X180748609Y-67958258D01*
X181248609Y-67791592D02*
X180748609Y-67791592D01*
X180748609Y-67791592D02*
X180748609Y-67601116D01*
X180748609Y-67601116D02*
X180772419Y-67553497D01*
X180772419Y-67553497D02*
X180796228Y-67529687D01*
X180796228Y-67529687D02*
X180843847Y-67505878D01*
X180843847Y-67505878D02*
X180915276Y-67505878D01*
X180915276Y-67505878D02*
X180962895Y-67529687D01*
X180962895Y-67529687D02*
X180986704Y-67553497D01*
X180986704Y-67553497D02*
X181010514Y-67601116D01*
X181010514Y-67601116D02*
X181010514Y-67791592D01*
X183223609Y-68291591D02*
X183723609Y-68124925D01*
X183723609Y-68124925D02*
X183223609Y-67958258D01*
X183723609Y-67791592D02*
X183223609Y-67791592D01*
X183223609Y-67791592D02*
X183723609Y-67505878D01*
X183723609Y-67505878D02*
X183223609Y-67505878D01*
X204098609Y-68183258D02*
X204098609Y-68468972D01*
X204098609Y-68326115D02*
X203598609Y-68326115D01*
X203598609Y-68326115D02*
X203670038Y-68373734D01*
X203670038Y-68373734D02*
X203717657Y-68421353D01*
X203717657Y-68421353D02*
X203741466Y-68468972D01*
X203765276Y-67754687D02*
X204098609Y-67754687D01*
X203574800Y-67873735D02*
X203931942Y-67992782D01*
X203931942Y-67992782D02*
X203931942Y-67683259D01*
X201748609Y-47458258D02*
X201748609Y-47743972D01*
X201748609Y-47601115D02*
X201248609Y-47601115D01*
X201248609Y-47601115D02*
X201320038Y-47648734D01*
X201320038Y-47648734D02*
X201367657Y-47696353D01*
X201367657Y-47696353D02*
X201391466Y-47743972D01*
X201248609Y-47291592D02*
X201248609Y-46958259D01*
X201248609Y-46958259D02*
X201748609Y-47172544D01*
X198596228Y-68443972D02*
X198572419Y-68420163D01*
X198572419Y-68420163D02*
X198548609Y-68372544D01*
X198548609Y-68372544D02*
X198548609Y-68253496D01*
X198548609Y-68253496D02*
X198572419Y-68205877D01*
X198572419Y-68205877D02*
X198596228Y-68182068D01*
X198596228Y-68182068D02*
X198643847Y-68158258D01*
X198643847Y-68158258D02*
X198691466Y-68158258D01*
X198691466Y-68158258D02*
X198762895Y-68182068D01*
X198762895Y-68182068D02*
X199048609Y-68467782D01*
X199048609Y-68467782D02*
X199048609Y-68158258D01*
X198548609Y-67729687D02*
X198548609Y-67824925D01*
X198548609Y-67824925D02*
X198572419Y-67872544D01*
X198572419Y-67872544D02*
X198596228Y-67896354D01*
X198596228Y-67896354D02*
X198667657Y-67943973D01*
X198667657Y-67943973D02*
X198762895Y-67967782D01*
X198762895Y-67967782D02*
X198953371Y-67967782D01*
X198953371Y-67967782D02*
X199000990Y-67943973D01*
X199000990Y-67943973D02*
X199024800Y-67920163D01*
X199024800Y-67920163D02*
X199048609Y-67872544D01*
X199048609Y-67872544D02*
X199048609Y-67777306D01*
X199048609Y-67777306D02*
X199024800Y-67729687D01*
X199024800Y-67729687D02*
X199000990Y-67705878D01*
X199000990Y-67705878D02*
X198953371Y-67682068D01*
X198953371Y-67682068D02*
X198834323Y-67682068D01*
X198834323Y-67682068D02*
X198786704Y-67705878D01*
X198786704Y-67705878D02*
X198762895Y-67729687D01*
X198762895Y-67729687D02*
X198739085Y-67777306D01*
X198739085Y-67777306D02*
X198739085Y-67872544D01*
X198739085Y-67872544D02*
X198762895Y-67920163D01*
X198762895Y-67920163D02*
X198786704Y-67943973D01*
X198786704Y-67943973D02*
X198834323Y-67967782D01*
X196673609Y-47483258D02*
X196673609Y-47768972D01*
X196673609Y-47626115D02*
X196173609Y-47626115D01*
X196173609Y-47626115D02*
X196245038Y-47673734D01*
X196245038Y-47673734D02*
X196292657Y-47721353D01*
X196292657Y-47721353D02*
X196316466Y-47768972D01*
X196387895Y-47197544D02*
X196364085Y-47245163D01*
X196364085Y-47245163D02*
X196340276Y-47268973D01*
X196340276Y-47268973D02*
X196292657Y-47292782D01*
X196292657Y-47292782D02*
X196268847Y-47292782D01*
X196268847Y-47292782D02*
X196221228Y-47268973D01*
X196221228Y-47268973D02*
X196197419Y-47245163D01*
X196197419Y-47245163D02*
X196173609Y-47197544D01*
X196173609Y-47197544D02*
X196173609Y-47102306D01*
X196173609Y-47102306D02*
X196197419Y-47054687D01*
X196197419Y-47054687D02*
X196221228Y-47030878D01*
X196221228Y-47030878D02*
X196268847Y-47007068D01*
X196268847Y-47007068D02*
X196292657Y-47007068D01*
X196292657Y-47007068D02*
X196340276Y-47030878D01*
X196340276Y-47030878D02*
X196364085Y-47054687D01*
X196364085Y-47054687D02*
X196387895Y-47102306D01*
X196387895Y-47102306D02*
X196387895Y-47197544D01*
X196387895Y-47197544D02*
X196411704Y-47245163D01*
X196411704Y-47245163D02*
X196435514Y-47268973D01*
X196435514Y-47268973D02*
X196483133Y-47292782D01*
X196483133Y-47292782D02*
X196578371Y-47292782D01*
X196578371Y-47292782D02*
X196625990Y-47268973D01*
X196625990Y-47268973D02*
X196649800Y-47245163D01*
X196649800Y-47245163D02*
X196673609Y-47197544D01*
X196673609Y-47197544D02*
X196673609Y-47102306D01*
X196673609Y-47102306D02*
X196649800Y-47054687D01*
X196649800Y-47054687D02*
X196625990Y-47030878D01*
X196625990Y-47030878D02*
X196578371Y-47007068D01*
X196578371Y-47007068D02*
X196483133Y-47007068D01*
X196483133Y-47007068D02*
X196435514Y-47030878D01*
X196435514Y-47030878D02*
X196411704Y-47054687D01*
X196411704Y-47054687D02*
X196387895Y-47102306D01*
X175747419Y-47733258D02*
X175723609Y-47780877D01*
X175723609Y-47780877D02*
X175723609Y-47852306D01*
X175723609Y-47852306D02*
X175747419Y-47923734D01*
X175747419Y-47923734D02*
X175795038Y-47971353D01*
X175795038Y-47971353D02*
X175842657Y-47995163D01*
X175842657Y-47995163D02*
X175937895Y-48018972D01*
X175937895Y-48018972D02*
X176009323Y-48018972D01*
X176009323Y-48018972D02*
X176104561Y-47995163D01*
X176104561Y-47995163D02*
X176152180Y-47971353D01*
X176152180Y-47971353D02*
X176199800Y-47923734D01*
X176199800Y-47923734D02*
X176223609Y-47852306D01*
X176223609Y-47852306D02*
X176223609Y-47804687D01*
X176223609Y-47804687D02*
X176199800Y-47733258D01*
X176199800Y-47733258D02*
X176175990Y-47709449D01*
X176175990Y-47709449D02*
X176009323Y-47709449D01*
X176009323Y-47709449D02*
X176009323Y-47804687D01*
X176223609Y-47495163D02*
X175723609Y-47495163D01*
X175723609Y-47495163D02*
X176223609Y-47209449D01*
X176223609Y-47209449D02*
X175723609Y-47209449D01*
X176223609Y-46971353D02*
X175723609Y-46971353D01*
X175723609Y-46971353D02*
X175723609Y-46852305D01*
X175723609Y-46852305D02*
X175747419Y-46780877D01*
X175747419Y-46780877D02*
X175795038Y-46733258D01*
X175795038Y-46733258D02*
X175842657Y-46709448D01*
X175842657Y-46709448D02*
X175937895Y-46685639D01*
X175937895Y-46685639D02*
X176009323Y-46685639D01*
X176009323Y-46685639D02*
X176104561Y-46709448D01*
X176104561Y-46709448D02*
X176152180Y-46733258D01*
X176152180Y-46733258D02*
X176199800Y-46780877D01*
X176199800Y-46780877D02*
X176223609Y-46852305D01*
X176223609Y-46852305D02*
X176223609Y-46971353D01*
X208697419Y-68208258D02*
X208673609Y-68255877D01*
X208673609Y-68255877D02*
X208673609Y-68327306D01*
X208673609Y-68327306D02*
X208697419Y-68398734D01*
X208697419Y-68398734D02*
X208745038Y-68446353D01*
X208745038Y-68446353D02*
X208792657Y-68470163D01*
X208792657Y-68470163D02*
X208887895Y-68493972D01*
X208887895Y-68493972D02*
X208959323Y-68493972D01*
X208959323Y-68493972D02*
X209054561Y-68470163D01*
X209054561Y-68470163D02*
X209102180Y-68446353D01*
X209102180Y-68446353D02*
X209149800Y-68398734D01*
X209149800Y-68398734D02*
X209173609Y-68327306D01*
X209173609Y-68327306D02*
X209173609Y-68279687D01*
X209173609Y-68279687D02*
X209149800Y-68208258D01*
X209149800Y-68208258D02*
X209125990Y-68184449D01*
X209125990Y-68184449D02*
X208959323Y-68184449D01*
X208959323Y-68184449D02*
X208959323Y-68279687D01*
X209173609Y-67970163D02*
X208673609Y-67970163D01*
X208673609Y-67970163D02*
X209173609Y-67684449D01*
X209173609Y-67684449D02*
X208673609Y-67684449D01*
X209173609Y-67446353D02*
X208673609Y-67446353D01*
X208673609Y-67446353D02*
X208673609Y-67327305D01*
X208673609Y-67327305D02*
X208697419Y-67255877D01*
X208697419Y-67255877D02*
X208745038Y-67208258D01*
X208745038Y-67208258D02*
X208792657Y-67184448D01*
X208792657Y-67184448D02*
X208887895Y-67160639D01*
X208887895Y-67160639D02*
X208959323Y-67160639D01*
X208959323Y-67160639D02*
X209054561Y-67184448D01*
X209054561Y-67184448D02*
X209102180Y-67208258D01*
X209102180Y-67208258D02*
X209149800Y-67255877D01*
X209149800Y-67255877D02*
X209173609Y-67327305D01*
X209173609Y-67327305D02*
X209173609Y-67446353D01*
X208798609Y-47474925D02*
X208798609Y-47427306D01*
X208798609Y-47427306D02*
X208822419Y-47379687D01*
X208822419Y-47379687D02*
X208846228Y-47355877D01*
X208846228Y-47355877D02*
X208893847Y-47332068D01*
X208893847Y-47332068D02*
X208989085Y-47308258D01*
X208989085Y-47308258D02*
X209108133Y-47308258D01*
X209108133Y-47308258D02*
X209203371Y-47332068D01*
X209203371Y-47332068D02*
X209250990Y-47355877D01*
X209250990Y-47355877D02*
X209274800Y-47379687D01*
X209274800Y-47379687D02*
X209298609Y-47427306D01*
X209298609Y-47427306D02*
X209298609Y-47474925D01*
X209298609Y-47474925D02*
X209274800Y-47522544D01*
X209274800Y-47522544D02*
X209250990Y-47546353D01*
X209250990Y-47546353D02*
X209203371Y-47570163D01*
X209203371Y-47570163D02*
X209108133Y-47593972D01*
X209108133Y-47593972D02*
X208989085Y-47593972D01*
X208989085Y-47593972D02*
X208893847Y-47570163D01*
X208893847Y-47570163D02*
X208846228Y-47546353D01*
X208846228Y-47546353D02*
X208822419Y-47522544D01*
X208822419Y-47522544D02*
X208798609Y-47474925D01*
X196393884Y-57628609D02*
X196727217Y-57628609D01*
X196870074Y-58152419D02*
X196393884Y-58152419D01*
X196393884Y-58152419D02*
X196393884Y-57152419D01*
X196393884Y-57152419D02*
X196870074Y-57152419D01*
X197251027Y-58104800D02*
X197393884Y-58152419D01*
X197393884Y-58152419D02*
X197631979Y-58152419D01*
X197631979Y-58152419D02*
X197727217Y-58104800D01*
X197727217Y-58104800D02*
X197774836Y-58057180D01*
X197774836Y-58057180D02*
X197822455Y-57961942D01*
X197822455Y-57961942D02*
X197822455Y-57866704D01*
X197822455Y-57866704D02*
X197774836Y-57771466D01*
X197774836Y-57771466D02*
X197727217Y-57723847D01*
X197727217Y-57723847D02*
X197631979Y-57676228D01*
X197631979Y-57676228D02*
X197441503Y-57628609D01*
X197441503Y-57628609D02*
X197346265Y-57580990D01*
X197346265Y-57580990D02*
X197298646Y-57533371D01*
X197298646Y-57533371D02*
X197251027Y-57438133D01*
X197251027Y-57438133D02*
X197251027Y-57342895D01*
X197251027Y-57342895D02*
X197298646Y-57247657D01*
X197298646Y-57247657D02*
X197346265Y-57200038D01*
X197346265Y-57200038D02*
X197441503Y-57152419D01*
X197441503Y-57152419D02*
X197679598Y-57152419D01*
X197679598Y-57152419D02*
X197822455Y-57200038D01*
X198251027Y-58152419D02*
X198251027Y-57152419D01*
X198251027Y-57152419D02*
X198631979Y-57152419D01*
X198631979Y-57152419D02*
X198727217Y-57200038D01*
X198727217Y-57200038D02*
X198774836Y-57247657D01*
X198774836Y-57247657D02*
X198822455Y-57342895D01*
X198822455Y-57342895D02*
X198822455Y-57485752D01*
X198822455Y-57485752D02*
X198774836Y-57580990D01*
X198774836Y-57580990D02*
X198727217Y-57628609D01*
X198727217Y-57628609D02*
X198631979Y-57676228D01*
X198631979Y-57676228D02*
X198251027Y-57676228D01*
X199155789Y-57152419D02*
X199774836Y-57152419D01*
X199774836Y-57152419D02*
X199441503Y-57533371D01*
X199441503Y-57533371D02*
X199584360Y-57533371D01*
X199584360Y-57533371D02*
X199679598Y-57580990D01*
X199679598Y-57580990D02*
X199727217Y-57628609D01*
X199727217Y-57628609D02*
X199774836Y-57723847D01*
X199774836Y-57723847D02*
X199774836Y-57961942D01*
X199774836Y-57961942D02*
X199727217Y-58057180D01*
X199727217Y-58057180D02*
X199679598Y-58104800D01*
X199679598Y-58104800D02*
X199584360Y-58152419D01*
X199584360Y-58152419D02*
X199298646Y-58152419D01*
X199298646Y-58152419D02*
X199203408Y-58104800D01*
X199203408Y-58104800D02*
X199155789Y-58057180D01*
X200155789Y-57247657D02*
X200203408Y-57200038D01*
X200203408Y-57200038D02*
X200298646Y-57152419D01*
X200298646Y-57152419D02*
X200536741Y-57152419D01*
X200536741Y-57152419D02*
X200631979Y-57200038D01*
X200631979Y-57200038D02*
X200679598Y-57247657D01*
X200679598Y-57247657D02*
X200727217Y-57342895D01*
X200727217Y-57342895D02*
X200727217Y-57438133D01*
X200727217Y-57438133D02*
X200679598Y-57580990D01*
X200679598Y-57580990D02*
X200108170Y-58152419D01*
X200108170Y-58152419D02*
X200727217Y-58152419D01*
X201155789Y-57152419D02*
X201155789Y-57961942D01*
X201155789Y-57961942D02*
X201203408Y-58057180D01*
X201203408Y-58057180D02*
X201251027Y-58104800D01*
X201251027Y-58104800D02*
X201346265Y-58152419D01*
X201346265Y-58152419D02*
X201536741Y-58152419D01*
X201536741Y-58152419D02*
X201631979Y-58104800D01*
X201631979Y-58104800D02*
X201679598Y-58057180D01*
X201679598Y-58057180D02*
X201727217Y-57961942D01*
X201727217Y-57961942D02*
X201727217Y-57152419D01*
X178386704Y-68245163D02*
X178386704Y-68078496D01*
X178648609Y-68007068D02*
X178648609Y-68245163D01*
X178648609Y-68245163D02*
X178148609Y-68245163D01*
X178148609Y-68245163D02*
X178148609Y-68007068D01*
X178648609Y-67792782D02*
X178148609Y-67792782D01*
X178148609Y-67792782D02*
X178648609Y-67507068D01*
X178648609Y-67507068D02*
X178148609Y-67507068D01*
X221388609Y-68197068D02*
X221388609Y-68435163D01*
X221388609Y-68435163D02*
X221626704Y-68458972D01*
X221626704Y-68458972D02*
X221602895Y-68435163D01*
X221602895Y-68435163D02*
X221579085Y-68387544D01*
X221579085Y-68387544D02*
X221579085Y-68268496D01*
X221579085Y-68268496D02*
X221602895Y-68220877D01*
X221602895Y-68220877D02*
X221626704Y-68197068D01*
X221626704Y-68197068D02*
X221674323Y-68173258D01*
X221674323Y-68173258D02*
X221793371Y-68173258D01*
X221793371Y-68173258D02*
X221840990Y-68197068D01*
X221840990Y-68197068D02*
X221864800Y-68220877D01*
X221864800Y-68220877D02*
X221888609Y-68268496D01*
X221888609Y-68268496D02*
X221888609Y-68387544D01*
X221888609Y-68387544D02*
X221864800Y-68435163D01*
X221864800Y-68435163D02*
X221840990Y-68458972D01*
X221388609Y-68030401D02*
X221888609Y-67863735D01*
X221888609Y-67863735D02*
X221388609Y-67697068D01*
X211446228Y-47668972D02*
X211422419Y-47645163D01*
X211422419Y-47645163D02*
X211398609Y-47597544D01*
X211398609Y-47597544D02*
X211398609Y-47478496D01*
X211398609Y-47478496D02*
X211422419Y-47430877D01*
X211422419Y-47430877D02*
X211446228Y-47407068D01*
X211446228Y-47407068D02*
X211493847Y-47383258D01*
X211493847Y-47383258D02*
X211541466Y-47383258D01*
X211541466Y-47383258D02*
X211612895Y-47407068D01*
X211612895Y-47407068D02*
X211898609Y-47692782D01*
X211898609Y-47692782D02*
X211898609Y-47383258D01*
X221940990Y-47749449D02*
X221964800Y-47773258D01*
X221964800Y-47773258D02*
X221988609Y-47844687D01*
X221988609Y-47844687D02*
X221988609Y-47892306D01*
X221988609Y-47892306D02*
X221964800Y-47963734D01*
X221964800Y-47963734D02*
X221917180Y-48011353D01*
X221917180Y-48011353D02*
X221869561Y-48035163D01*
X221869561Y-48035163D02*
X221774323Y-48058972D01*
X221774323Y-48058972D02*
X221702895Y-48058972D01*
X221702895Y-48058972D02*
X221607657Y-48035163D01*
X221607657Y-48035163D02*
X221560038Y-48011353D01*
X221560038Y-48011353D02*
X221512419Y-47963734D01*
X221512419Y-47963734D02*
X221488609Y-47892306D01*
X221488609Y-47892306D02*
X221488609Y-47844687D01*
X221488609Y-47844687D02*
X221512419Y-47773258D01*
X221512419Y-47773258D02*
X221536228Y-47749449D01*
X221988609Y-47297068D02*
X221988609Y-47535163D01*
X221988609Y-47535163D02*
X221488609Y-47535163D01*
X221988609Y-47130401D02*
X221488609Y-47130401D01*
X221988609Y-46844687D02*
X221702895Y-47058972D01*
X221488609Y-46844687D02*
X221774323Y-47130401D01*
X175623609Y-68442782D02*
X175623609Y-68133258D01*
X175623609Y-68133258D02*
X175814085Y-68299925D01*
X175814085Y-68299925D02*
X175814085Y-68228496D01*
X175814085Y-68228496D02*
X175837895Y-68180877D01*
X175837895Y-68180877D02*
X175861704Y-68157068D01*
X175861704Y-68157068D02*
X175909323Y-68133258D01*
X175909323Y-68133258D02*
X176028371Y-68133258D01*
X176028371Y-68133258D02*
X176075990Y-68157068D01*
X176075990Y-68157068D02*
X176099800Y-68180877D01*
X176099800Y-68180877D02*
X176123609Y-68228496D01*
X176123609Y-68228496D02*
X176123609Y-68371353D01*
X176123609Y-68371353D02*
X176099800Y-68418972D01*
X176099800Y-68418972D02*
X176075990Y-68442782D01*
X175790276Y-67966592D02*
X176123609Y-67847544D01*
X176123609Y-67847544D02*
X175790276Y-67728497D01*
X175623609Y-67585640D02*
X175623609Y-67276116D01*
X175623609Y-67276116D02*
X175814085Y-67442783D01*
X175814085Y-67442783D02*
X175814085Y-67371354D01*
X175814085Y-67371354D02*
X175837895Y-67323735D01*
X175837895Y-67323735D02*
X175861704Y-67299926D01*
X175861704Y-67299926D02*
X175909323Y-67276116D01*
X175909323Y-67276116D02*
X176028371Y-67276116D01*
X176028371Y-67276116D02*
X176075990Y-67299926D01*
X176075990Y-67299926D02*
X176099800Y-67323735D01*
X176099800Y-67323735D02*
X176123609Y-67371354D01*
X176123609Y-67371354D02*
X176123609Y-67514211D01*
X176123609Y-67514211D02*
X176099800Y-67561830D01*
X176099800Y-67561830D02*
X176075990Y-67585640D01*
X206465276Y-47280877D02*
X206798609Y-47280877D01*
X206274800Y-47399925D02*
X206631942Y-47518972D01*
X206631942Y-47518972D02*
X206631942Y-47209449D01*
X188571228Y-47793972D02*
X188547419Y-47770163D01*
X188547419Y-47770163D02*
X188523609Y-47722544D01*
X188523609Y-47722544D02*
X188523609Y-47603496D01*
X188523609Y-47603496D02*
X188547419Y-47555877D01*
X188547419Y-47555877D02*
X188571228Y-47532068D01*
X188571228Y-47532068D02*
X188618847Y-47508258D01*
X188618847Y-47508258D02*
X188666466Y-47508258D01*
X188666466Y-47508258D02*
X188737895Y-47532068D01*
X188737895Y-47532068D02*
X189023609Y-47817782D01*
X189023609Y-47817782D02*
X189023609Y-47508258D01*
X189023609Y-47032068D02*
X189023609Y-47317782D01*
X189023609Y-47174925D02*
X188523609Y-47174925D01*
X188523609Y-47174925D02*
X188595038Y-47222544D01*
X188595038Y-47222544D02*
X188642657Y-47270163D01*
X188642657Y-47270163D02*
X188666466Y-47317782D01*
X201071228Y-68418972D02*
X201047419Y-68395163D01*
X201047419Y-68395163D02*
X201023609Y-68347544D01*
X201023609Y-68347544D02*
X201023609Y-68228496D01*
X201023609Y-68228496D02*
X201047419Y-68180877D01*
X201047419Y-68180877D02*
X201071228Y-68157068D01*
X201071228Y-68157068D02*
X201118847Y-68133258D01*
X201118847Y-68133258D02*
X201166466Y-68133258D01*
X201166466Y-68133258D02*
X201237895Y-68157068D01*
X201237895Y-68157068D02*
X201523609Y-68442782D01*
X201523609Y-68442782D02*
X201523609Y-68133258D01*
X201023609Y-67966592D02*
X201023609Y-67633259D01*
X201023609Y-67633259D02*
X201523609Y-67847544D01*
X219280990Y-68179449D02*
X219304800Y-68203258D01*
X219304800Y-68203258D02*
X219328609Y-68274687D01*
X219328609Y-68274687D02*
X219328609Y-68322306D01*
X219328609Y-68322306D02*
X219304800Y-68393734D01*
X219304800Y-68393734D02*
X219257180Y-68441353D01*
X219257180Y-68441353D02*
X219209561Y-68465163D01*
X219209561Y-68465163D02*
X219114323Y-68488972D01*
X219114323Y-68488972D02*
X219042895Y-68488972D01*
X219042895Y-68488972D02*
X218947657Y-68465163D01*
X218947657Y-68465163D02*
X218900038Y-68441353D01*
X218900038Y-68441353D02*
X218852419Y-68393734D01*
X218852419Y-68393734D02*
X218828609Y-68322306D01*
X218828609Y-68322306D02*
X218828609Y-68274687D01*
X218828609Y-68274687D02*
X218852419Y-68203258D01*
X218852419Y-68203258D02*
X218876228Y-68179449D01*
X219328609Y-67965163D02*
X218828609Y-67965163D01*
X218828609Y-67965163D02*
X219185752Y-67798496D01*
X219185752Y-67798496D02*
X218828609Y-67631830D01*
X218828609Y-67631830D02*
X219328609Y-67631830D01*
X219328609Y-67393734D02*
X218828609Y-67393734D01*
X218828609Y-67393734D02*
X218828609Y-67274686D01*
X218828609Y-67274686D02*
X218852419Y-67203258D01*
X218852419Y-67203258D02*
X218900038Y-67155639D01*
X218900038Y-67155639D02*
X218947657Y-67131829D01*
X218947657Y-67131829D02*
X219042895Y-67108020D01*
X219042895Y-67108020D02*
X219114323Y-67108020D01*
X219114323Y-67108020D02*
X219209561Y-67131829D01*
X219209561Y-67131829D02*
X219257180Y-67155639D01*
X219257180Y-67155639D02*
X219304800Y-67203258D01*
X219304800Y-67203258D02*
X219328609Y-67274686D01*
X219328609Y-67274686D02*
X219328609Y-67393734D01*
X191097419Y-47758258D02*
X191073609Y-47805877D01*
X191073609Y-47805877D02*
X191073609Y-47877306D01*
X191073609Y-47877306D02*
X191097419Y-47948734D01*
X191097419Y-47948734D02*
X191145038Y-47996353D01*
X191145038Y-47996353D02*
X191192657Y-48020163D01*
X191192657Y-48020163D02*
X191287895Y-48043972D01*
X191287895Y-48043972D02*
X191359323Y-48043972D01*
X191359323Y-48043972D02*
X191454561Y-48020163D01*
X191454561Y-48020163D02*
X191502180Y-47996353D01*
X191502180Y-47996353D02*
X191549800Y-47948734D01*
X191549800Y-47948734D02*
X191573609Y-47877306D01*
X191573609Y-47877306D02*
X191573609Y-47829687D01*
X191573609Y-47829687D02*
X191549800Y-47758258D01*
X191549800Y-47758258D02*
X191525990Y-47734449D01*
X191525990Y-47734449D02*
X191359323Y-47734449D01*
X191359323Y-47734449D02*
X191359323Y-47829687D01*
X191573609Y-47520163D02*
X191073609Y-47520163D01*
X191073609Y-47520163D02*
X191073609Y-47401115D01*
X191073609Y-47401115D02*
X191097419Y-47329687D01*
X191097419Y-47329687D02*
X191145038Y-47282068D01*
X191145038Y-47282068D02*
X191192657Y-47258258D01*
X191192657Y-47258258D02*
X191287895Y-47234449D01*
X191287895Y-47234449D02*
X191359323Y-47234449D01*
X191359323Y-47234449D02*
X191454561Y-47258258D01*
X191454561Y-47258258D02*
X191502180Y-47282068D01*
X191502180Y-47282068D02*
X191549800Y-47329687D01*
X191549800Y-47329687D02*
X191573609Y-47401115D01*
X191573609Y-47401115D02*
X191573609Y-47520163D01*
X191573609Y-47020163D02*
X191073609Y-47020163D01*
X191073609Y-47020163D02*
X191573609Y-46734449D01*
X191573609Y-46734449D02*
X191073609Y-46734449D01*
X186373609Y-47384449D02*
X186135514Y-47551115D01*
X186373609Y-47670163D02*
X185873609Y-47670163D01*
X185873609Y-47670163D02*
X185873609Y-47479687D01*
X185873609Y-47479687D02*
X185897419Y-47432068D01*
X185897419Y-47432068D02*
X185921228Y-47408258D01*
X185921228Y-47408258D02*
X185968847Y-47384449D01*
X185968847Y-47384449D02*
X186040276Y-47384449D01*
X186040276Y-47384449D02*
X186087895Y-47408258D01*
X186087895Y-47408258D02*
X186111704Y-47432068D01*
X186111704Y-47432068D02*
X186135514Y-47479687D01*
X186135514Y-47479687D02*
X186135514Y-47670163D01*
X185873609Y-47217782D02*
X186373609Y-46884449D01*
X185873609Y-46884449D02*
X186373609Y-47217782D01*
X198648609Y-47207068D02*
X198648609Y-47445163D01*
X198648609Y-47445163D02*
X198886704Y-47468972D01*
X198886704Y-47468972D02*
X198862895Y-47445163D01*
X198862895Y-47445163D02*
X198839085Y-47397544D01*
X198839085Y-47397544D02*
X198839085Y-47278496D01*
X198839085Y-47278496D02*
X198862895Y-47230877D01*
X198862895Y-47230877D02*
X198886704Y-47207068D01*
X198886704Y-47207068D02*
X198934323Y-47183258D01*
X198934323Y-47183258D02*
X199053371Y-47183258D01*
X199053371Y-47183258D02*
X199100990Y-47207068D01*
X199100990Y-47207068D02*
X199124800Y-47230877D01*
X199124800Y-47230877D02*
X199148609Y-47278496D01*
X199148609Y-47278496D02*
X199148609Y-47397544D01*
X199148609Y-47397544D02*
X199124800Y-47445163D01*
X199124800Y-47445163D02*
X199100990Y-47468972D01*
X185823609Y-68342782D02*
X185823609Y-68033258D01*
X185823609Y-68033258D02*
X186014085Y-68199925D01*
X186014085Y-68199925D02*
X186014085Y-68128496D01*
X186014085Y-68128496D02*
X186037895Y-68080877D01*
X186037895Y-68080877D02*
X186061704Y-68057068D01*
X186061704Y-68057068D02*
X186109323Y-68033258D01*
X186109323Y-68033258D02*
X186228371Y-68033258D01*
X186228371Y-68033258D02*
X186275990Y-68057068D01*
X186275990Y-68057068D02*
X186299800Y-68080877D01*
X186299800Y-68080877D02*
X186323609Y-68128496D01*
X186323609Y-68128496D02*
X186323609Y-68271353D01*
X186323609Y-68271353D02*
X186299800Y-68318972D01*
X186299800Y-68318972D02*
X186275990Y-68342782D01*
X185990276Y-67604687D02*
X186323609Y-67604687D01*
X185799800Y-67723735D02*
X186156942Y-67842782D01*
X186156942Y-67842782D02*
X186156942Y-67533259D01*
X183323609Y-47791591D02*
X183323609Y-47505877D01*
X183823609Y-47648734D02*
X183323609Y-47648734D01*
X183323609Y-47386830D02*
X183823609Y-47053497D01*
X183323609Y-47053497D02*
X183823609Y-47386830D01*
X219623609Y-47820163D02*
X219123609Y-47820163D01*
X219123609Y-47820163D02*
X219123609Y-47701115D01*
X219123609Y-47701115D02*
X219147419Y-47629687D01*
X219147419Y-47629687D02*
X219195038Y-47582068D01*
X219195038Y-47582068D02*
X219242657Y-47558258D01*
X219242657Y-47558258D02*
X219337895Y-47534449D01*
X219337895Y-47534449D02*
X219409323Y-47534449D01*
X219409323Y-47534449D02*
X219504561Y-47558258D01*
X219504561Y-47558258D02*
X219552180Y-47582068D01*
X219552180Y-47582068D02*
X219599800Y-47629687D01*
X219599800Y-47629687D02*
X219623609Y-47701115D01*
X219623609Y-47701115D02*
X219623609Y-47820163D01*
X219123609Y-47224925D02*
X219123609Y-47177306D01*
X219123609Y-47177306D02*
X219147419Y-47129687D01*
X219147419Y-47129687D02*
X219171228Y-47105877D01*
X219171228Y-47105877D02*
X219218847Y-47082068D01*
X219218847Y-47082068D02*
X219314085Y-47058258D01*
X219314085Y-47058258D02*
X219433133Y-47058258D01*
X219433133Y-47058258D02*
X219528371Y-47082068D01*
X219528371Y-47082068D02*
X219575990Y-47105877D01*
X219575990Y-47105877D02*
X219599800Y-47129687D01*
X219599800Y-47129687D02*
X219623609Y-47177306D01*
X219623609Y-47177306D02*
X219623609Y-47224925D01*
X219623609Y-47224925D02*
X219599800Y-47272544D01*
X219599800Y-47272544D02*
X219575990Y-47296353D01*
X219575990Y-47296353D02*
X219528371Y-47320163D01*
X219528371Y-47320163D02*
X219433133Y-47343972D01*
X219433133Y-47343972D02*
X219314085Y-47343972D01*
X219314085Y-47343972D02*
X219218847Y-47320163D01*
X219218847Y-47320163D02*
X219171228Y-47296353D01*
X219171228Y-47296353D02*
X219147419Y-47272544D01*
X219147419Y-47272544D02*
X219123609Y-47224925D01*
X180946228Y-47793972D02*
X180922419Y-47770163D01*
X180922419Y-47770163D02*
X180898609Y-47722544D01*
X180898609Y-47722544D02*
X180898609Y-47603496D01*
X180898609Y-47603496D02*
X180922419Y-47555877D01*
X180922419Y-47555877D02*
X180946228Y-47532068D01*
X180946228Y-47532068D02*
X180993847Y-47508258D01*
X180993847Y-47508258D02*
X181041466Y-47508258D01*
X181041466Y-47508258D02*
X181112895Y-47532068D01*
X181112895Y-47532068D02*
X181398609Y-47817782D01*
X181398609Y-47817782D02*
X181398609Y-47508258D01*
X180946228Y-47317782D02*
X180922419Y-47293973D01*
X180922419Y-47293973D02*
X180898609Y-47246354D01*
X180898609Y-47246354D02*
X180898609Y-47127306D01*
X180898609Y-47127306D02*
X180922419Y-47079687D01*
X180922419Y-47079687D02*
X180946228Y-47055878D01*
X180946228Y-47055878D02*
X180993847Y-47032068D01*
X180993847Y-47032068D02*
X181041466Y-47032068D01*
X181041466Y-47032068D02*
X181112895Y-47055878D01*
X181112895Y-47055878D02*
X181398609Y-47341592D01*
X181398609Y-47341592D02*
X181398609Y-47032068D01*
X188373609Y-68392782D02*
X188373609Y-68083258D01*
X188373609Y-68083258D02*
X188564085Y-68249925D01*
X188564085Y-68249925D02*
X188564085Y-68178496D01*
X188564085Y-68178496D02*
X188587895Y-68130877D01*
X188587895Y-68130877D02*
X188611704Y-68107068D01*
X188611704Y-68107068D02*
X188659323Y-68083258D01*
X188659323Y-68083258D02*
X188778371Y-68083258D01*
X188778371Y-68083258D02*
X188825990Y-68107068D01*
X188825990Y-68107068D02*
X188849800Y-68130877D01*
X188849800Y-68130877D02*
X188873609Y-68178496D01*
X188873609Y-68178496D02*
X188873609Y-68321353D01*
X188873609Y-68321353D02*
X188849800Y-68368972D01*
X188849800Y-68368972D02*
X188825990Y-68392782D01*
X188373609Y-67630878D02*
X188373609Y-67868973D01*
X188373609Y-67868973D02*
X188611704Y-67892782D01*
X188611704Y-67892782D02*
X188587895Y-67868973D01*
X188587895Y-67868973D02*
X188564085Y-67821354D01*
X188564085Y-67821354D02*
X188564085Y-67702306D01*
X188564085Y-67702306D02*
X188587895Y-67654687D01*
X188587895Y-67654687D02*
X188611704Y-67630878D01*
X188611704Y-67630878D02*
X188659323Y-67607068D01*
X188659323Y-67607068D02*
X188778371Y-67607068D01*
X188778371Y-67607068D02*
X188825990Y-67630878D01*
X188825990Y-67630878D02*
X188849800Y-67654687D01*
X188849800Y-67654687D02*
X188873609Y-67702306D01*
X188873609Y-67702306D02*
X188873609Y-67821354D01*
X188873609Y-67821354D02*
X188849800Y-67868973D01*
X188849800Y-67868973D02*
X188825990Y-67892782D01*
D11*
X174416667Y-105100057D02*
X174464286Y-105052438D01*
X174464286Y-105052438D02*
X174559524Y-105004819D01*
X174559524Y-105004819D02*
X174797619Y-105004819D01*
X174797619Y-105004819D02*
X174892857Y-105052438D01*
X174892857Y-105052438D02*
X174940476Y-105100057D01*
X174940476Y-105100057D02*
X174988095Y-105195295D01*
X174988095Y-105195295D02*
X174988095Y-105290533D01*
X174988095Y-105290533D02*
X174940476Y-105433390D01*
X174940476Y-105433390D02*
X174369048Y-106004819D01*
X174369048Y-106004819D02*
X174988095Y-106004819D01*
X175416667Y-105909580D02*
X175464286Y-105957200D01*
X175464286Y-105957200D02*
X175416667Y-106004819D01*
X175416667Y-106004819D02*
X175369048Y-105957200D01*
X175369048Y-105957200D02*
X175416667Y-105909580D01*
X175416667Y-105909580D02*
X175416667Y-106004819D01*
X176416666Y-106004819D02*
X175845238Y-106004819D01*
X176130952Y-106004819D02*
X176130952Y-105004819D01*
X176130952Y-105004819D02*
X176035714Y-105147676D01*
X176035714Y-105147676D02*
X175940476Y-105242914D01*
X175940476Y-105242914D02*
X175845238Y-105290533D01*
X176845238Y-106004819D02*
X176845238Y-105338152D01*
X176845238Y-105433390D02*
X176892857Y-105385771D01*
X176892857Y-105385771D02*
X176988095Y-105338152D01*
X176988095Y-105338152D02*
X177130952Y-105338152D01*
X177130952Y-105338152D02*
X177226190Y-105385771D01*
X177226190Y-105385771D02*
X177273809Y-105481009D01*
X177273809Y-105481009D02*
X177273809Y-106004819D01*
X177273809Y-105481009D02*
X177321428Y-105385771D01*
X177321428Y-105385771D02*
X177416666Y-105338152D01*
X177416666Y-105338152D02*
X177559523Y-105338152D01*
X177559523Y-105338152D02*
X177654762Y-105385771D01*
X177654762Y-105385771D02*
X177702381Y-105481009D01*
X177702381Y-105481009D02*
X177702381Y-106004819D01*
X178178571Y-106004819D02*
X178178571Y-105338152D01*
X178178571Y-105433390D02*
X178226190Y-105385771D01*
X178226190Y-105385771D02*
X178321428Y-105338152D01*
X178321428Y-105338152D02*
X178464285Y-105338152D01*
X178464285Y-105338152D02*
X178559523Y-105385771D01*
X178559523Y-105385771D02*
X178607142Y-105481009D01*
X178607142Y-105481009D02*
X178607142Y-106004819D01*
X178607142Y-105481009D02*
X178654761Y-105385771D01*
X178654761Y-105385771D02*
X178749999Y-105338152D01*
X178749999Y-105338152D02*
X178892856Y-105338152D01*
X178892856Y-105338152D02*
X178988095Y-105385771D01*
X178988095Y-105385771D02*
X179035714Y-105481009D01*
X179035714Y-105481009D02*
X179035714Y-106004819D01*
X218566667Y-105100057D02*
X218614286Y-105052438D01*
X218614286Y-105052438D02*
X218709524Y-105004819D01*
X218709524Y-105004819D02*
X218947619Y-105004819D01*
X218947619Y-105004819D02*
X219042857Y-105052438D01*
X219042857Y-105052438D02*
X219090476Y-105100057D01*
X219090476Y-105100057D02*
X219138095Y-105195295D01*
X219138095Y-105195295D02*
X219138095Y-105290533D01*
X219138095Y-105290533D02*
X219090476Y-105433390D01*
X219090476Y-105433390D02*
X218519048Y-106004819D01*
X218519048Y-106004819D02*
X219138095Y-106004819D01*
X219566667Y-105909580D02*
X219614286Y-105957200D01*
X219614286Y-105957200D02*
X219566667Y-106004819D01*
X219566667Y-106004819D02*
X219519048Y-105957200D01*
X219519048Y-105957200D02*
X219566667Y-105909580D01*
X219566667Y-105909580D02*
X219566667Y-106004819D01*
X220566666Y-106004819D02*
X219995238Y-106004819D01*
X220280952Y-106004819D02*
X220280952Y-105004819D01*
X220280952Y-105004819D02*
X220185714Y-105147676D01*
X220185714Y-105147676D02*
X220090476Y-105242914D01*
X220090476Y-105242914D02*
X219995238Y-105290533D01*
X220995238Y-106004819D02*
X220995238Y-105338152D01*
X220995238Y-105433390D02*
X221042857Y-105385771D01*
X221042857Y-105385771D02*
X221138095Y-105338152D01*
X221138095Y-105338152D02*
X221280952Y-105338152D01*
X221280952Y-105338152D02*
X221376190Y-105385771D01*
X221376190Y-105385771D02*
X221423809Y-105481009D01*
X221423809Y-105481009D02*
X221423809Y-106004819D01*
X221423809Y-105481009D02*
X221471428Y-105385771D01*
X221471428Y-105385771D02*
X221566666Y-105338152D01*
X221566666Y-105338152D02*
X221709523Y-105338152D01*
X221709523Y-105338152D02*
X221804762Y-105385771D01*
X221804762Y-105385771D02*
X221852381Y-105481009D01*
X221852381Y-105481009D02*
X221852381Y-106004819D01*
X222328571Y-106004819D02*
X222328571Y-105338152D01*
X222328571Y-105433390D02*
X222376190Y-105385771D01*
X222376190Y-105385771D02*
X222471428Y-105338152D01*
X222471428Y-105338152D02*
X222614285Y-105338152D01*
X222614285Y-105338152D02*
X222709523Y-105385771D01*
X222709523Y-105385771D02*
X222757142Y-105481009D01*
X222757142Y-105481009D02*
X222757142Y-106004819D01*
X222757142Y-105481009D02*
X222804761Y-105385771D01*
X222804761Y-105385771D02*
X222899999Y-105338152D01*
X222899999Y-105338152D02*
X223042856Y-105338152D01*
X223042856Y-105338152D02*
X223138095Y-105385771D01*
X223138095Y-105385771D02*
X223185714Y-105481009D01*
X223185714Y-105481009D02*
X223185714Y-106004819D01*
X179876667Y-40370057D02*
X179924286Y-40322438D01*
X179924286Y-40322438D02*
X180019524Y-40274819D01*
X180019524Y-40274819D02*
X180257619Y-40274819D01*
X180257619Y-40274819D02*
X180352857Y-40322438D01*
X180352857Y-40322438D02*
X180400476Y-40370057D01*
X180400476Y-40370057D02*
X180448095Y-40465295D01*
X180448095Y-40465295D02*
X180448095Y-40560533D01*
X180448095Y-40560533D02*
X180400476Y-40703390D01*
X180400476Y-40703390D02*
X179829048Y-41274819D01*
X179829048Y-41274819D02*
X180448095Y-41274819D01*
X180876667Y-41179580D02*
X180924286Y-41227200D01*
X180924286Y-41227200D02*
X180876667Y-41274819D01*
X180876667Y-41274819D02*
X180829048Y-41227200D01*
X180829048Y-41227200D02*
X180876667Y-41179580D01*
X180876667Y-41179580D02*
X180876667Y-41274819D01*
X181876666Y-41274819D02*
X181305238Y-41274819D01*
X181590952Y-41274819D02*
X181590952Y-40274819D01*
X181590952Y-40274819D02*
X181495714Y-40417676D01*
X181495714Y-40417676D02*
X181400476Y-40512914D01*
X181400476Y-40512914D02*
X181305238Y-40560533D01*
X182305238Y-41274819D02*
X182305238Y-40608152D01*
X182305238Y-40703390D02*
X182352857Y-40655771D01*
X182352857Y-40655771D02*
X182448095Y-40608152D01*
X182448095Y-40608152D02*
X182590952Y-40608152D01*
X182590952Y-40608152D02*
X182686190Y-40655771D01*
X182686190Y-40655771D02*
X182733809Y-40751009D01*
X182733809Y-40751009D02*
X182733809Y-41274819D01*
X182733809Y-40751009D02*
X182781428Y-40655771D01*
X182781428Y-40655771D02*
X182876666Y-40608152D01*
X182876666Y-40608152D02*
X183019523Y-40608152D01*
X183019523Y-40608152D02*
X183114762Y-40655771D01*
X183114762Y-40655771D02*
X183162381Y-40751009D01*
X183162381Y-40751009D02*
X183162381Y-41274819D01*
X183638571Y-41274819D02*
X183638571Y-40608152D01*
X183638571Y-40703390D02*
X183686190Y-40655771D01*
X183686190Y-40655771D02*
X183781428Y-40608152D01*
X183781428Y-40608152D02*
X183924285Y-40608152D01*
X183924285Y-40608152D02*
X184019523Y-40655771D01*
X184019523Y-40655771D02*
X184067142Y-40751009D01*
X184067142Y-40751009D02*
X184067142Y-41274819D01*
X184067142Y-40751009D02*
X184114761Y-40655771D01*
X184114761Y-40655771D02*
X184209999Y-40608152D01*
X184209999Y-40608152D02*
X184352856Y-40608152D01*
X184352856Y-40608152D02*
X184448095Y-40655771D01*
X184448095Y-40655771D02*
X184495714Y-40751009D01*
X184495714Y-40751009D02*
X184495714Y-41274819D01*
X216854762Y-91164819D02*
X217188095Y-92164819D01*
X217188095Y-92164819D02*
X217521428Y-91164819D01*
X217854762Y-92164819D02*
X217854762Y-91164819D01*
X218330952Y-92164819D02*
X218330952Y-91164819D01*
X218330952Y-91164819D02*
X218902380Y-92164819D01*
X218902380Y-92164819D02*
X218902380Y-91164819D01*
X216237619Y-89574819D02*
X216237619Y-88574819D01*
X216237619Y-88574819D02*
X216475714Y-88574819D01*
X216475714Y-88574819D02*
X216618571Y-88622438D01*
X216618571Y-88622438D02*
X216713809Y-88717676D01*
X216713809Y-88717676D02*
X216761428Y-88812914D01*
X216761428Y-88812914D02*
X216809047Y-89003390D01*
X216809047Y-89003390D02*
X216809047Y-89146247D01*
X216809047Y-89146247D02*
X216761428Y-89336723D01*
X216761428Y-89336723D02*
X216713809Y-89431961D01*
X216713809Y-89431961D02*
X216618571Y-89527200D01*
X216618571Y-89527200D02*
X216475714Y-89574819D01*
X216475714Y-89574819D02*
X216237619Y-89574819D01*
X217666190Y-89574819D02*
X217666190Y-89051009D01*
X217666190Y-89051009D02*
X217618571Y-88955771D01*
X217618571Y-88955771D02*
X217523333Y-88908152D01*
X217523333Y-88908152D02*
X217332857Y-88908152D01*
X217332857Y-88908152D02*
X217237619Y-88955771D01*
X217666190Y-89527200D02*
X217570952Y-89574819D01*
X217570952Y-89574819D02*
X217332857Y-89574819D01*
X217332857Y-89574819D02*
X217237619Y-89527200D01*
X217237619Y-89527200D02*
X217190000Y-89431961D01*
X217190000Y-89431961D02*
X217190000Y-89336723D01*
X217190000Y-89336723D02*
X217237619Y-89241485D01*
X217237619Y-89241485D02*
X217332857Y-89193866D01*
X217332857Y-89193866D02*
X217570952Y-89193866D01*
X217570952Y-89193866D02*
X217666190Y-89146247D01*
X217999524Y-88908152D02*
X218380476Y-88908152D01*
X218142381Y-88574819D02*
X218142381Y-89431961D01*
X218142381Y-89431961D02*
X218190000Y-89527200D01*
X218190000Y-89527200D02*
X218285238Y-89574819D01*
X218285238Y-89574819D02*
X218380476Y-89574819D01*
X219142381Y-89574819D02*
X219142381Y-89051009D01*
X219142381Y-89051009D02*
X219094762Y-88955771D01*
X219094762Y-88955771D02*
X218999524Y-88908152D01*
X218999524Y-88908152D02*
X218809048Y-88908152D01*
X218809048Y-88908152D02*
X218713810Y-88955771D01*
X219142381Y-89527200D02*
X219047143Y-89574819D01*
X219047143Y-89574819D02*
X218809048Y-89574819D01*
X218809048Y-89574819D02*
X218713810Y-89527200D01*
X218713810Y-89527200D02*
X218666191Y-89431961D01*
X218666191Y-89431961D02*
X218666191Y-89336723D01*
X218666191Y-89336723D02*
X218713810Y-89241485D01*
X218713810Y-89241485D02*
X218809048Y-89193866D01*
X218809048Y-89193866D02*
X219047143Y-89193866D01*
X219047143Y-89193866D02*
X219142381Y-89146247D01*
X217158095Y-93772438D02*
X217062857Y-93724819D01*
X217062857Y-93724819D02*
X216920000Y-93724819D01*
X216920000Y-93724819D02*
X216777143Y-93772438D01*
X216777143Y-93772438D02*
X216681905Y-93867676D01*
X216681905Y-93867676D02*
X216634286Y-93962914D01*
X216634286Y-93962914D02*
X216586667Y-94153390D01*
X216586667Y-94153390D02*
X216586667Y-94296247D01*
X216586667Y-94296247D02*
X216634286Y-94486723D01*
X216634286Y-94486723D02*
X216681905Y-94581961D01*
X216681905Y-94581961D02*
X216777143Y-94677200D01*
X216777143Y-94677200D02*
X216920000Y-94724819D01*
X216920000Y-94724819D02*
X217015238Y-94724819D01*
X217015238Y-94724819D02*
X217158095Y-94677200D01*
X217158095Y-94677200D02*
X217205714Y-94629580D01*
X217205714Y-94629580D02*
X217205714Y-94296247D01*
X217205714Y-94296247D02*
X217015238Y-94296247D01*
X217634286Y-94724819D02*
X217634286Y-93724819D01*
X217634286Y-93724819D02*
X217872381Y-93724819D01*
X217872381Y-93724819D02*
X218015238Y-93772438D01*
X218015238Y-93772438D02*
X218110476Y-93867676D01*
X218110476Y-93867676D02*
X218158095Y-93962914D01*
X218158095Y-93962914D02*
X218205714Y-94153390D01*
X218205714Y-94153390D02*
X218205714Y-94296247D01*
X218205714Y-94296247D02*
X218158095Y-94486723D01*
X218158095Y-94486723D02*
X218110476Y-94581961D01*
X218110476Y-94581961D02*
X218015238Y-94677200D01*
X218015238Y-94677200D02*
X217872381Y-94724819D01*
X217872381Y-94724819D02*
X217634286Y-94724819D01*
X218634286Y-94724819D02*
X218634286Y-93724819D01*
X218634286Y-93724819D02*
X219205714Y-94724819D01*
X219205714Y-94724819D02*
X219205714Y-93724819D01*
X187696666Y-81148152D02*
X187696666Y-81814819D01*
X187458571Y-80767200D02*
X187220476Y-81481485D01*
X187220476Y-81481485D02*
X187839523Y-81481485D01*
X188125238Y-80814819D02*
X188791904Y-80814819D01*
X188791904Y-80814819D02*
X188363333Y-81814819D01*
X189363333Y-80814819D02*
X189458571Y-80814819D01*
X189458571Y-80814819D02*
X189553809Y-80862438D01*
X189553809Y-80862438D02*
X189601428Y-80910057D01*
X189601428Y-80910057D02*
X189649047Y-81005295D01*
X189649047Y-81005295D02*
X189696666Y-81195771D01*
X189696666Y-81195771D02*
X189696666Y-81433866D01*
X189696666Y-81433866D02*
X189649047Y-81624342D01*
X189649047Y-81624342D02*
X189601428Y-81719580D01*
X189601428Y-81719580D02*
X189553809Y-81767200D01*
X189553809Y-81767200D02*
X189458571Y-81814819D01*
X189458571Y-81814819D02*
X189363333Y-81814819D01*
X189363333Y-81814819D02*
X189268095Y-81767200D01*
X189268095Y-81767200D02*
X189220476Y-81719580D01*
X189220476Y-81719580D02*
X189172857Y-81624342D01*
X189172857Y-81624342D02*
X189125238Y-81433866D01*
X189125238Y-81433866D02*
X189125238Y-81195771D01*
X189125238Y-81195771D02*
X189172857Y-81005295D01*
X189172857Y-81005295D02*
X189220476Y-80910057D01*
X189220476Y-80910057D02*
X189268095Y-80862438D01*
X189268095Y-80862438D02*
X189363333Y-80814819D01*
X190077619Y-81814819D02*
X190315714Y-81814819D01*
X190315714Y-81814819D02*
X190315714Y-81624342D01*
X190315714Y-81624342D02*
X190220476Y-81576723D01*
X190220476Y-81576723D02*
X190125238Y-81481485D01*
X190125238Y-81481485D02*
X190077619Y-81338628D01*
X190077619Y-81338628D02*
X190077619Y-81100533D01*
X190077619Y-81100533D02*
X190125238Y-80957676D01*
X190125238Y-80957676D02*
X190220476Y-80862438D01*
X190220476Y-80862438D02*
X190363333Y-80814819D01*
X190363333Y-80814819D02*
X190553809Y-80814819D01*
X190553809Y-80814819D02*
X190696666Y-80862438D01*
X190696666Y-80862438D02*
X190791904Y-80957676D01*
X190791904Y-80957676D02*
X190839523Y-81100533D01*
X190839523Y-81100533D02*
X190839523Y-81338628D01*
X190839523Y-81338628D02*
X190791904Y-81481485D01*
X190791904Y-81481485D02*
X190696666Y-81576723D01*
X190696666Y-81576723D02*
X190601428Y-81624342D01*
X190601428Y-81624342D02*
X190601428Y-81814819D01*
X190601428Y-81814819D02*
X190839523Y-81814819D01*
X178694819Y-80414761D02*
X177694819Y-80414761D01*
X177694819Y-80414761D02*
X177694819Y-80176666D01*
X177694819Y-80176666D02*
X177742438Y-80033809D01*
X177742438Y-80033809D02*
X177837676Y-79938571D01*
X177837676Y-79938571D02*
X177932914Y-79890952D01*
X177932914Y-79890952D02*
X178123390Y-79843333D01*
X178123390Y-79843333D02*
X178266247Y-79843333D01*
X178266247Y-79843333D02*
X178456723Y-79890952D01*
X178456723Y-79890952D02*
X178551961Y-79938571D01*
X178551961Y-79938571D02*
X178647200Y-80033809D01*
X178647200Y-80033809D02*
X178694819Y-80176666D01*
X178694819Y-80176666D02*
X178694819Y-80414761D01*
X178790057Y-79652857D02*
X178790057Y-78890952D01*
X177694819Y-78795713D02*
X177694819Y-78224285D01*
X178694819Y-78509999D02*
X177694819Y-78509999D01*
X177694819Y-78033808D02*
X178694819Y-77700475D01*
X178694819Y-77700475D02*
X177694819Y-77367142D01*
X178647200Y-77081427D02*
X178694819Y-76938570D01*
X178694819Y-76938570D02*
X178694819Y-76700475D01*
X178694819Y-76700475D02*
X178647200Y-76605237D01*
X178647200Y-76605237D02*
X178599580Y-76557618D01*
X178599580Y-76557618D02*
X178504342Y-76509999D01*
X178504342Y-76509999D02*
X178409104Y-76509999D01*
X178409104Y-76509999D02*
X178313866Y-76557618D01*
X178313866Y-76557618D02*
X178266247Y-76605237D01*
X178266247Y-76605237D02*
X178218628Y-76700475D01*
X178218628Y-76700475D02*
X178171009Y-76890951D01*
X178171009Y-76890951D02*
X178123390Y-76986189D01*
X178123390Y-76986189D02*
X178075771Y-77033808D01*
X178075771Y-77033808D02*
X177980533Y-77081427D01*
X177980533Y-77081427D02*
X177885295Y-77081427D01*
X177885295Y-77081427D02*
X177790057Y-77033808D01*
X177790057Y-77033808D02*
X177742438Y-76986189D01*
X177742438Y-76986189D02*
X177694819Y-76890951D01*
X177694819Y-76890951D02*
X177694819Y-76652856D01*
X177694819Y-76652856D02*
X177742438Y-76509999D01*
X178694819Y-75557618D02*
X178694819Y-76129046D01*
X178694819Y-75843332D02*
X177694819Y-75843332D01*
X177694819Y-75843332D02*
X177837676Y-75938570D01*
X177837676Y-75938570D02*
X177932914Y-76033808D01*
X177932914Y-76033808D02*
X177980533Y-76129046D01*
X186304819Y-87594047D02*
X186304819Y-88165475D01*
X186304819Y-87879761D02*
X185304819Y-87879761D01*
X185304819Y-87879761D02*
X185447676Y-87974999D01*
X185447676Y-87974999D02*
X185542914Y-88070237D01*
X185542914Y-88070237D02*
X185590533Y-88165475D01*
X185400057Y-87213094D02*
X185352438Y-87165475D01*
X185352438Y-87165475D02*
X185304819Y-87070237D01*
X185304819Y-87070237D02*
X185304819Y-86832142D01*
X185304819Y-86832142D02*
X185352438Y-86736904D01*
X185352438Y-86736904D02*
X185400057Y-86689285D01*
X185400057Y-86689285D02*
X185495295Y-86641666D01*
X185495295Y-86641666D02*
X185590533Y-86641666D01*
X185590533Y-86641666D02*
X185733390Y-86689285D01*
X185733390Y-86689285D02*
X186304819Y-87260713D01*
X186304819Y-87260713D02*
X186304819Y-86641666D01*
X186019104Y-86260713D02*
X186019104Y-85784523D01*
X186304819Y-86355951D02*
X185304819Y-86022618D01*
X185304819Y-86022618D02*
X186304819Y-85689285D01*
X207844819Y-88570475D02*
X208654342Y-88570475D01*
X208654342Y-88570475D02*
X208749580Y-88522856D01*
X208749580Y-88522856D02*
X208797200Y-88475237D01*
X208797200Y-88475237D02*
X208844819Y-88379999D01*
X208844819Y-88379999D02*
X208844819Y-88189523D01*
X208844819Y-88189523D02*
X208797200Y-88094285D01*
X208797200Y-88094285D02*
X208749580Y-88046666D01*
X208749580Y-88046666D02*
X208654342Y-87999047D01*
X208654342Y-87999047D02*
X207844819Y-87999047D01*
X208797200Y-87570475D02*
X208844819Y-87427618D01*
X208844819Y-87427618D02*
X208844819Y-87189523D01*
X208844819Y-87189523D02*
X208797200Y-87094285D01*
X208797200Y-87094285D02*
X208749580Y-87046666D01*
X208749580Y-87046666D02*
X208654342Y-86999047D01*
X208654342Y-86999047D02*
X208559104Y-86999047D01*
X208559104Y-86999047D02*
X208463866Y-87046666D01*
X208463866Y-87046666D02*
X208416247Y-87094285D01*
X208416247Y-87094285D02*
X208368628Y-87189523D01*
X208368628Y-87189523D02*
X208321009Y-87379999D01*
X208321009Y-87379999D02*
X208273390Y-87475237D01*
X208273390Y-87475237D02*
X208225771Y-87522856D01*
X208225771Y-87522856D02*
X208130533Y-87570475D01*
X208130533Y-87570475D02*
X208035295Y-87570475D01*
X208035295Y-87570475D02*
X207940057Y-87522856D01*
X207940057Y-87522856D02*
X207892438Y-87475237D01*
X207892438Y-87475237D02*
X207844819Y-87379999D01*
X207844819Y-87379999D02*
X207844819Y-87141904D01*
X207844819Y-87141904D02*
X207892438Y-86999047D01*
X208321009Y-86237142D02*
X208368628Y-86094285D01*
X208368628Y-86094285D02*
X208416247Y-86046666D01*
X208416247Y-86046666D02*
X208511485Y-85999047D01*
X208511485Y-85999047D02*
X208654342Y-85999047D01*
X208654342Y-85999047D02*
X208749580Y-86046666D01*
X208749580Y-86046666D02*
X208797200Y-86094285D01*
X208797200Y-86094285D02*
X208844819Y-86189523D01*
X208844819Y-86189523D02*
X208844819Y-86570475D01*
X208844819Y-86570475D02*
X207844819Y-86570475D01*
X207844819Y-86570475D02*
X207844819Y-86237142D01*
X207844819Y-86237142D02*
X207892438Y-86141904D01*
X207892438Y-86141904D02*
X207940057Y-86094285D01*
X207940057Y-86094285D02*
X208035295Y-86046666D01*
X208035295Y-86046666D02*
X208130533Y-86046666D01*
X208130533Y-86046666D02*
X208225771Y-86094285D01*
X208225771Y-86094285D02*
X208273390Y-86141904D01*
X208273390Y-86141904D02*
X208321009Y-86237142D01*
X208321009Y-86237142D02*
X208321009Y-86570475D01*
X208844819Y-85094285D02*
X208844819Y-85570475D01*
X208844819Y-85570475D02*
X207844819Y-85570475D01*
X208749580Y-84189523D02*
X208797200Y-84237142D01*
X208797200Y-84237142D02*
X208844819Y-84379999D01*
X208844819Y-84379999D02*
X208844819Y-84475237D01*
X208844819Y-84475237D02*
X208797200Y-84618094D01*
X208797200Y-84618094D02*
X208701961Y-84713332D01*
X208701961Y-84713332D02*
X208606723Y-84760951D01*
X208606723Y-84760951D02*
X208416247Y-84808570D01*
X208416247Y-84808570D02*
X208273390Y-84808570D01*
X208273390Y-84808570D02*
X208082914Y-84760951D01*
X208082914Y-84760951D02*
X207987676Y-84713332D01*
X207987676Y-84713332D02*
X207892438Y-84618094D01*
X207892438Y-84618094D02*
X207844819Y-84475237D01*
X207844819Y-84475237D02*
X207844819Y-84379999D01*
X207844819Y-84379999D02*
X207892438Y-84237142D01*
X207892438Y-84237142D02*
X207940057Y-84189523D01*
X207844819Y-83332380D02*
X207844819Y-83522856D01*
X207844819Y-83522856D02*
X207892438Y-83618094D01*
X207892438Y-83618094D02*
X207940057Y-83665713D01*
X207940057Y-83665713D02*
X208082914Y-83760951D01*
X208082914Y-83760951D02*
X208273390Y-83808570D01*
X208273390Y-83808570D02*
X208654342Y-83808570D01*
X208654342Y-83808570D02*
X208749580Y-83760951D01*
X208749580Y-83760951D02*
X208797200Y-83713332D01*
X208797200Y-83713332D02*
X208844819Y-83618094D01*
X208844819Y-83618094D02*
X208844819Y-83427618D01*
X208844819Y-83427618D02*
X208797200Y-83332380D01*
X208797200Y-83332380D02*
X208749580Y-83284761D01*
X208749580Y-83284761D02*
X208654342Y-83237142D01*
X208654342Y-83237142D02*
X208416247Y-83237142D01*
X208416247Y-83237142D02*
X208321009Y-83284761D01*
X208321009Y-83284761D02*
X208273390Y-83332380D01*
X208273390Y-83332380D02*
X208225771Y-83427618D01*
X208225771Y-83427618D02*
X208225771Y-83618094D01*
X208225771Y-83618094D02*
X208273390Y-83713332D01*
X208273390Y-83713332D02*
X208321009Y-83760951D01*
X208321009Y-83760951D02*
X208416247Y-83808570D01*
X208463866Y-82808570D02*
X208463866Y-82046666D01*
X207940057Y-81618094D02*
X207892438Y-81570475D01*
X207892438Y-81570475D02*
X207844819Y-81475237D01*
X207844819Y-81475237D02*
X207844819Y-81237142D01*
X207844819Y-81237142D02*
X207892438Y-81141904D01*
X207892438Y-81141904D02*
X207940057Y-81094285D01*
X207940057Y-81094285D02*
X208035295Y-81046666D01*
X208035295Y-81046666D02*
X208130533Y-81046666D01*
X208130533Y-81046666D02*
X208273390Y-81094285D01*
X208273390Y-81094285D02*
X208844819Y-81665713D01*
X208844819Y-81665713D02*
X208844819Y-81046666D01*
X208797200Y-80665713D02*
X208844819Y-80522856D01*
X208844819Y-80522856D02*
X208844819Y-80284761D01*
X208844819Y-80284761D02*
X208797200Y-80189523D01*
X208797200Y-80189523D02*
X208749580Y-80141904D01*
X208749580Y-80141904D02*
X208654342Y-80094285D01*
X208654342Y-80094285D02*
X208559104Y-80094285D01*
X208559104Y-80094285D02*
X208463866Y-80141904D01*
X208463866Y-80141904D02*
X208416247Y-80189523D01*
X208416247Y-80189523D02*
X208368628Y-80284761D01*
X208368628Y-80284761D02*
X208321009Y-80475237D01*
X208321009Y-80475237D02*
X208273390Y-80570475D01*
X208273390Y-80570475D02*
X208225771Y-80618094D01*
X208225771Y-80618094D02*
X208130533Y-80665713D01*
X208130533Y-80665713D02*
X208035295Y-80665713D01*
X208035295Y-80665713D02*
X207940057Y-80618094D01*
X207940057Y-80618094D02*
X207892438Y-80570475D01*
X207892438Y-80570475D02*
X207844819Y-80475237D01*
X207844819Y-80475237D02*
X207844819Y-80237142D01*
X207844819Y-80237142D02*
X207892438Y-80094285D01*
X208749580Y-79094285D02*
X208797200Y-79141904D01*
X208797200Y-79141904D02*
X208844819Y-79284761D01*
X208844819Y-79284761D02*
X208844819Y-79379999D01*
X208844819Y-79379999D02*
X208797200Y-79522856D01*
X208797200Y-79522856D02*
X208701961Y-79618094D01*
X208701961Y-79618094D02*
X208606723Y-79665713D01*
X208606723Y-79665713D02*
X208416247Y-79713332D01*
X208416247Y-79713332D02*
X208273390Y-79713332D01*
X208273390Y-79713332D02*
X208082914Y-79665713D01*
X208082914Y-79665713D02*
X207987676Y-79618094D01*
X207987676Y-79618094D02*
X207892438Y-79522856D01*
X207892438Y-79522856D02*
X207844819Y-79379999D01*
X207844819Y-79379999D02*
X207844819Y-79284761D01*
X207844819Y-79284761D02*
X207892438Y-79141904D01*
X207892438Y-79141904D02*
X207940057Y-79094285D01*
X207844819Y-78237142D02*
X207844819Y-78427618D01*
X207844819Y-78427618D02*
X207892438Y-78522856D01*
X207892438Y-78522856D02*
X207940057Y-78570475D01*
X207940057Y-78570475D02*
X208082914Y-78665713D01*
X208082914Y-78665713D02*
X208273390Y-78713332D01*
X208273390Y-78713332D02*
X208654342Y-78713332D01*
X208654342Y-78713332D02*
X208749580Y-78665713D01*
X208749580Y-78665713D02*
X208797200Y-78618094D01*
X208797200Y-78618094D02*
X208844819Y-78522856D01*
X208844819Y-78522856D02*
X208844819Y-78332380D01*
X208844819Y-78332380D02*
X208797200Y-78237142D01*
X208797200Y-78237142D02*
X208749580Y-78189523D01*
X208749580Y-78189523D02*
X208654342Y-78141904D01*
X208654342Y-78141904D02*
X208416247Y-78141904D01*
X208416247Y-78141904D02*
X208321009Y-78189523D01*
X208321009Y-78189523D02*
X208273390Y-78237142D01*
X208273390Y-78237142D02*
X208225771Y-78332380D01*
X208225771Y-78332380D02*
X208225771Y-78522856D01*
X208225771Y-78522856D02*
X208273390Y-78618094D01*
X208273390Y-78618094D02*
X208321009Y-78665713D01*
X208321009Y-78665713D02*
X208416247Y-78713332D01*
X212756667Y-40020057D02*
X212804286Y-39972438D01*
X212804286Y-39972438D02*
X212899524Y-39924819D01*
X212899524Y-39924819D02*
X213137619Y-39924819D01*
X213137619Y-39924819D02*
X213232857Y-39972438D01*
X213232857Y-39972438D02*
X213280476Y-40020057D01*
X213280476Y-40020057D02*
X213328095Y-40115295D01*
X213328095Y-40115295D02*
X213328095Y-40210533D01*
X213328095Y-40210533D02*
X213280476Y-40353390D01*
X213280476Y-40353390D02*
X212709048Y-40924819D01*
X212709048Y-40924819D02*
X213328095Y-40924819D01*
X213756667Y-40829580D02*
X213804286Y-40877200D01*
X213804286Y-40877200D02*
X213756667Y-40924819D01*
X213756667Y-40924819D02*
X213709048Y-40877200D01*
X213709048Y-40877200D02*
X213756667Y-40829580D01*
X213756667Y-40829580D02*
X213756667Y-40924819D01*
X214756666Y-40924819D02*
X214185238Y-40924819D01*
X214470952Y-40924819D02*
X214470952Y-39924819D01*
X214470952Y-39924819D02*
X214375714Y-40067676D01*
X214375714Y-40067676D02*
X214280476Y-40162914D01*
X214280476Y-40162914D02*
X214185238Y-40210533D01*
X215185238Y-40924819D02*
X215185238Y-40258152D01*
X215185238Y-40353390D02*
X215232857Y-40305771D01*
X215232857Y-40305771D02*
X215328095Y-40258152D01*
X215328095Y-40258152D02*
X215470952Y-40258152D01*
X215470952Y-40258152D02*
X215566190Y-40305771D01*
X215566190Y-40305771D02*
X215613809Y-40401009D01*
X215613809Y-40401009D02*
X215613809Y-40924819D01*
X215613809Y-40401009D02*
X215661428Y-40305771D01*
X215661428Y-40305771D02*
X215756666Y-40258152D01*
X215756666Y-40258152D02*
X215899523Y-40258152D01*
X215899523Y-40258152D02*
X215994762Y-40305771D01*
X215994762Y-40305771D02*
X216042381Y-40401009D01*
X216042381Y-40401009D02*
X216042381Y-40924819D01*
X216518571Y-40924819D02*
X216518571Y-40258152D01*
X216518571Y-40353390D02*
X216566190Y-40305771D01*
X216566190Y-40305771D02*
X216661428Y-40258152D01*
X216661428Y-40258152D02*
X216804285Y-40258152D01*
X216804285Y-40258152D02*
X216899523Y-40305771D01*
X216899523Y-40305771D02*
X216947142Y-40401009D01*
X216947142Y-40401009D02*
X216947142Y-40924819D01*
X216947142Y-40401009D02*
X216994761Y-40305771D01*
X216994761Y-40305771D02*
X217089999Y-40258152D01*
X217089999Y-40258152D02*
X217232856Y-40258152D01*
X217232856Y-40258152D02*
X217328095Y-40305771D01*
X217328095Y-40305771D02*
X217375714Y-40401009D01*
X217375714Y-40401009D02*
X217375714Y-40924819D01*
X189054819Y-102583333D02*
X189769104Y-102583333D01*
X189769104Y-102583333D02*
X189911961Y-102630952D01*
X189911961Y-102630952D02*
X190007200Y-102726190D01*
X190007200Y-102726190D02*
X190054819Y-102869047D01*
X190054819Y-102869047D02*
X190054819Y-102964285D01*
X190054819Y-101583333D02*
X190054819Y-102154761D01*
X190054819Y-101869047D02*
X189054819Y-101869047D01*
X189054819Y-101869047D02*
X189197676Y-101964285D01*
X189197676Y-101964285D02*
X189292914Y-102059523D01*
X189292914Y-102059523D02*
X189340533Y-102154761D01*
D13*
%TO.C,D1*%
X187432500Y-76955000D02*
X191492500Y-76955000D01*
X191492500Y-74685000D02*
X187432500Y-74685000D01*
X191492500Y-76955000D02*
X191492500Y-74685000D01*
%TO.C,R2*%
X210435000Y-77782936D02*
X210435000Y-78237064D01*
X211905000Y-77782936D02*
X211905000Y-78237064D01*
%TO.C,C1*%
X212410000Y-103670000D02*
X208733000Y-103670000D01*
X212410000Y-103710000D02*
X208743000Y-103710000D01*
X212410000Y-103750000D02*
X208754000Y-103750000D01*
X212410000Y-103790000D02*
X208765000Y-103790000D01*
X212410000Y-103830000D02*
X208777000Y-103830000D01*
X212410000Y-103870000D02*
X208789000Y-103870000D01*
X212410000Y-103910000D02*
X208801000Y-103910000D01*
X212410000Y-103950000D02*
X208813000Y-103950000D01*
X212410000Y-103990000D02*
X208826000Y-103990000D01*
X212410000Y-104030000D02*
X208840000Y-104030000D01*
X212410000Y-104070000D02*
X208853000Y-104070000D01*
X212410000Y-104110000D02*
X208868000Y-104110000D01*
X212410000Y-104150000D02*
X208882000Y-104150000D01*
X212410000Y-104190000D02*
X208897000Y-104190000D01*
X212410000Y-104230000D02*
X208912000Y-104230000D01*
X212410000Y-104270000D02*
X208928000Y-104270000D01*
X212410000Y-104310000D02*
X208944000Y-104310000D01*
X212410000Y-104350000D02*
X208960000Y-104350000D01*
X212410000Y-104390000D02*
X208977000Y-104390000D01*
X212410000Y-104430000D02*
X208994000Y-104430000D01*
X212410000Y-104470000D02*
X209012000Y-104470000D01*
X212410000Y-104510000D02*
X209030000Y-104510000D01*
X212410000Y-104550000D02*
X209048000Y-104550000D01*
X212410000Y-104590000D02*
X209067000Y-104590000D01*
X212410000Y-104630000D02*
X209086000Y-104630000D01*
X212410000Y-104670000D02*
X209106000Y-104670000D01*
X212410000Y-104710000D02*
X209126000Y-104710000D01*
X212410000Y-104750000D02*
X209146000Y-104750000D01*
X212410000Y-104790000D02*
X209167000Y-104790000D01*
X212410000Y-104830000D02*
X209189000Y-104830000D01*
X212410000Y-104870000D02*
X209211000Y-104870000D01*
X212410000Y-104910000D02*
X209233000Y-104910000D01*
X212410000Y-104950000D02*
X209256000Y-104950000D01*
X212410000Y-104990000D02*
X209279000Y-104990000D01*
X212410000Y-105030000D02*
X209303000Y-105030000D01*
X212410000Y-105070000D02*
X209327000Y-105070000D01*
X212410000Y-105110000D02*
X209352000Y-105110000D01*
X212410000Y-105150000D02*
X209378000Y-105150000D01*
X212410000Y-105190000D02*
X209403000Y-105190000D01*
X212410000Y-105230000D02*
X209430000Y-105230000D01*
X212410000Y-105270000D02*
X209457000Y-105270000D01*
X212410000Y-105310000D02*
X209484000Y-105310000D01*
X212410000Y-105350000D02*
X209512000Y-105350000D01*
X212410000Y-105390000D02*
X209541000Y-105390000D01*
X212410000Y-105430000D02*
X209570000Y-105430000D01*
X212410000Y-105470000D02*
X209600000Y-105470000D01*
X212410000Y-105510000D02*
X209630000Y-105510000D01*
X212410000Y-105550000D02*
X209662000Y-105550000D01*
X212410000Y-105590000D02*
X209693000Y-105590000D01*
X212410000Y-105630000D02*
X209726000Y-105630000D01*
X212410000Y-105670000D02*
X209759000Y-105670000D01*
X212410000Y-105710000D02*
X209792000Y-105710000D01*
X212410000Y-105750000D02*
X209827000Y-105750000D01*
X212410000Y-105790000D02*
X209862000Y-105790000D01*
X212410000Y-105830000D02*
X209898000Y-105830000D01*
X212410000Y-105870000D02*
X209934000Y-105870000D01*
X212410000Y-105910000D02*
X209972000Y-105910000D01*
X212410000Y-105950000D02*
X210010000Y-105950000D01*
X212410000Y-105990000D02*
X210049000Y-105990000D01*
X212410000Y-106030000D02*
X210089000Y-106030000D01*
X212410000Y-106070000D02*
X210130000Y-106070000D01*
X212410000Y-106110000D02*
X210172000Y-106110000D01*
X214249000Y-107470000D02*
X213051000Y-107470000D01*
X214512000Y-107430000D02*
X212788000Y-107430000D01*
X214712000Y-107390000D02*
X212588000Y-107390000D01*
X214880000Y-107350000D02*
X212420000Y-107350000D01*
X215027000Y-107310000D02*
X212273000Y-107310000D01*
X215159000Y-107270000D02*
X212141000Y-107270000D01*
X215280000Y-107230000D02*
X212020000Y-107230000D01*
X215392000Y-107190000D02*
X211908000Y-107190000D01*
X215496000Y-107150000D02*
X211804000Y-107150000D01*
X215594000Y-107110000D02*
X211706000Y-107110000D01*
X215687000Y-107070000D02*
X211613000Y-107070000D01*
X215774000Y-107030000D02*
X211526000Y-107030000D01*
X215858000Y-106990000D02*
X211442000Y-106990000D01*
X215938000Y-106950000D02*
X211362000Y-106950000D01*
X216015000Y-106910000D02*
X211285000Y-106910000D01*
X216089000Y-106870000D02*
X211211000Y-106870000D01*
X216160000Y-106830000D02*
X211140000Y-106830000D01*
X216228000Y-106790000D02*
X211072000Y-106790000D01*
X216294000Y-106750000D02*
X211006000Y-106750000D01*
X216358000Y-106710000D02*
X210942000Y-106710000D01*
X216420000Y-106670000D02*
X210880000Y-106670000D01*
X216480000Y-106630000D02*
X210820000Y-106630000D01*
X216525000Y-96910354D02*
X216525000Y-97910354D01*
X216538000Y-106590000D02*
X210762000Y-106590000D01*
X216595000Y-106550000D02*
X210705000Y-106550000D01*
X216650000Y-106510000D02*
X210650000Y-106510000D01*
X216703000Y-106470000D02*
X210597000Y-106470000D01*
X216755000Y-106430000D02*
X210545000Y-106430000D01*
X216806000Y-106390000D02*
X210494000Y-106390000D01*
X216855000Y-106350000D02*
X210445000Y-106350000D01*
X216904000Y-106310000D02*
X210396000Y-106310000D01*
X216951000Y-106270000D02*
X210349000Y-106270000D01*
X216997000Y-106230000D02*
X210303000Y-106230000D01*
X217025000Y-97410354D02*
X216025000Y-97410354D01*
X217041000Y-106190000D02*
X210259000Y-106190000D01*
X217085000Y-106150000D02*
X210215000Y-106150000D01*
X217128000Y-106110000D02*
X214890000Y-106110000D01*
X217170000Y-106070000D02*
X214890000Y-106070000D01*
X217211000Y-106030000D02*
X214890000Y-106030000D01*
X217251000Y-105990000D02*
X214890000Y-105990000D01*
X217290000Y-105950000D02*
X214890000Y-105950000D01*
X217328000Y-105910000D02*
X214890000Y-105910000D01*
X217366000Y-105870000D02*
X214890000Y-105870000D01*
X217402000Y-105830000D02*
X214890000Y-105830000D01*
X217438000Y-105790000D02*
X214890000Y-105790000D01*
X217473000Y-105750000D02*
X214890000Y-105750000D01*
X217508000Y-105710000D02*
X214890000Y-105710000D01*
X217541000Y-105670000D02*
X214890000Y-105670000D01*
X217574000Y-105630000D02*
X214890000Y-105630000D01*
X217607000Y-105590000D02*
X214890000Y-105590000D01*
X217638000Y-105550000D02*
X214890000Y-105550000D01*
X217670000Y-105510000D02*
X214890000Y-105510000D01*
X217700000Y-105470000D02*
X214890000Y-105470000D01*
X217730000Y-105430000D02*
X214890000Y-105430000D01*
X217759000Y-105390000D02*
X214890000Y-105390000D01*
X217788000Y-105350000D02*
X214890000Y-105350000D01*
X217816000Y-105310000D02*
X214890000Y-105310000D01*
X217843000Y-105270000D02*
X214890000Y-105270000D01*
X217870000Y-105230000D02*
X214890000Y-105230000D01*
X217897000Y-105190000D02*
X214890000Y-105190000D01*
X217922000Y-105150000D02*
X214890000Y-105150000D01*
X217948000Y-105110000D02*
X214890000Y-105110000D01*
X217973000Y-105070000D02*
X214890000Y-105070000D01*
X217997000Y-105030000D02*
X214890000Y-105030000D01*
X218021000Y-104990000D02*
X214890000Y-104990000D01*
X218044000Y-104950000D02*
X214890000Y-104950000D01*
X218067000Y-104910000D02*
X214890000Y-104910000D01*
X218089000Y-104870000D02*
X214890000Y-104870000D01*
X218111000Y-104830000D02*
X214890000Y-104830000D01*
X218133000Y-104790000D02*
X214890000Y-104790000D01*
X218154000Y-104750000D02*
X214890000Y-104750000D01*
X218174000Y-104710000D02*
X214890000Y-104710000D01*
X218194000Y-104670000D02*
X214890000Y-104670000D01*
X218214000Y-104630000D02*
X214890000Y-104630000D01*
X218233000Y-104590000D02*
X214890000Y-104590000D01*
X218252000Y-104550000D02*
X214890000Y-104550000D01*
X218270000Y-104510000D02*
X214890000Y-104510000D01*
X218288000Y-104470000D02*
X214890000Y-104470000D01*
X218306000Y-104430000D02*
X214890000Y-104430000D01*
X218323000Y-104390000D02*
X214890000Y-104390000D01*
X218340000Y-104350000D02*
X214890000Y-104350000D01*
X218356000Y-104310000D02*
X214890000Y-104310000D01*
X218372000Y-104270000D02*
X214890000Y-104270000D01*
X218388000Y-104230000D02*
X214890000Y-104230000D01*
X218403000Y-104190000D02*
X214890000Y-104190000D01*
X218418000Y-104150000D02*
X214890000Y-104150000D01*
X218432000Y-104110000D02*
X214890000Y-104110000D01*
X218447000Y-104070000D02*
X214890000Y-104070000D01*
X218460000Y-104030000D02*
X214890000Y-104030000D01*
X218474000Y-103990000D02*
X214890000Y-103990000D01*
X218487000Y-103950000D02*
X214890000Y-103950000D01*
X218499000Y-103910000D02*
X214890000Y-103910000D01*
X218511000Y-103870000D02*
X214890000Y-103870000D01*
X218523000Y-103830000D02*
X214890000Y-103830000D01*
X218535000Y-103790000D02*
X214890000Y-103790000D01*
X218546000Y-103750000D02*
X214890000Y-103750000D01*
X218557000Y-103710000D02*
X214890000Y-103710000D01*
X218567000Y-103670000D02*
X214890000Y-103670000D01*
X218578000Y-103630000D02*
X208722000Y-103630000D01*
X218587000Y-103590000D02*
X208713000Y-103590000D01*
X218597000Y-103550000D02*
X208703000Y-103550000D01*
X218606000Y-103510000D02*
X208694000Y-103510000D01*
X218615000Y-103470000D02*
X208685000Y-103470000D01*
X218623000Y-103430000D02*
X208677000Y-103430000D01*
X218631000Y-103390000D02*
X208669000Y-103390000D01*
X218639000Y-103350000D02*
X208661000Y-103350000D01*
X218647000Y-103310000D02*
X208653000Y-103310000D01*
X218654000Y-103270000D02*
X208646000Y-103270000D01*
X218661000Y-103230000D02*
X208639000Y-103230000D01*
X218667000Y-103190000D02*
X208633000Y-103190000D01*
X218673000Y-103150000D02*
X208627000Y-103150000D01*
X218679000Y-103110000D02*
X208621000Y-103110000D01*
X218685000Y-103070000D02*
X208615000Y-103070000D01*
X218690000Y-103030000D02*
X208610000Y-103030000D01*
X218695000Y-102990000D02*
X208605000Y-102990000D01*
X218699000Y-102950000D02*
X208601000Y-102950000D01*
X218704000Y-102910000D02*
X208596000Y-102910000D01*
X218707000Y-102870000D02*
X208593000Y-102870000D01*
X218711000Y-102830000D02*
X208589000Y-102830000D01*
X218714000Y-102790000D02*
X208586000Y-102790000D01*
X218717000Y-102750000D02*
X208583000Y-102750000D01*
X218720000Y-102710000D02*
X208580000Y-102710000D01*
X218722000Y-102670000D02*
X208578000Y-102670000D01*
X218724000Y-102630000D02*
X208576000Y-102630000D01*
X218726000Y-102590000D02*
X208574000Y-102590000D01*
X218727000Y-102550000D02*
X208573000Y-102550000D01*
X218729000Y-102470000D02*
X208571000Y-102470000D01*
X218729000Y-102510000D02*
X208571000Y-102510000D01*
X218730000Y-102390000D02*
X208570000Y-102390000D01*
X218730000Y-102430000D02*
X208570000Y-102430000D01*
X218770000Y-102390000D02*
G75*
G02*
X208530000Y-102390000I-5120000J0D01*
G01*
X208530000Y-102390000D02*
G75*
G02*
X218770000Y-102390000I5120000J0D01*
G01*
%TO.C,C2*%
X195485000Y-78251252D02*
X195485000Y-77728748D01*
X196955000Y-78251252D02*
X196955000Y-77728748D01*
D14*
%TO.C,U2*%
X174590000Y-43630000D02*
X222890000Y-43630000D01*
X174590000Y-71430000D02*
X174590000Y-43630000D01*
X222890000Y-43630000D02*
X222890000Y-71530000D01*
X222890000Y-71530000D02*
X174590000Y-71430000D01*
%TO.C,J2*%
D12*
X215870000Y-88210000D02*
X223010000Y-88210000D01*
X223010000Y-95280000D01*
X215870000Y-95280000D01*
X215870000Y-88210000D01*
D13*
%TO.C,R1*%
X188802936Y-78975000D02*
X189257064Y-78975000D01*
X188802936Y-80445000D02*
X189257064Y-80445000D01*
%TO.C,D_TVS1*%
X179090000Y-81520000D02*
X179090000Y-76010000D01*
X179090000Y-81520000D02*
X182390000Y-81520000D01*
X182390000Y-81520000D02*
X182390000Y-76010000D01*
%TO.C,Polyfuse1*%
X181490000Y-88361252D02*
X181490000Y-85588748D01*
X184910000Y-88361252D02*
X184910000Y-85588748D01*
%TO.C,U1*%
X209680000Y-82480000D02*
X209680000Y-84280000D01*
X212900000Y-83480000D02*
X212900000Y-82680000D01*
X212900000Y-83480000D02*
X212900000Y-84280000D01*
X213180000Y-82420000D02*
X212850000Y-82180000D01*
X213180000Y-81940000D01*
X213180000Y-82420000D01*
G36*
X213180000Y-82420000D02*
G01*
X212850000Y-82180000D01*
X213180000Y-81940000D01*
X213180000Y-82420000D01*
G37*
D15*
%TO.C,J1*%
X190700000Y-108800000D02*
X190700000Y-94500000D01*
X190700000Y-108800000D02*
X199700000Y-108800000D01*
X192750000Y-94500000D02*
X190700000Y-94500000D01*
X197650000Y-94500000D02*
X199700000Y-94500000D01*
X199700000Y-94500000D02*
X199700000Y-95750000D01*
X199700000Y-108800000D02*
X199700000Y-100250000D01*
X195300000Y-93000000D02*
G75*
G02*
X195100000Y-93000000I-100000J0D01*
G01*
X195100000Y-93000000D02*
G75*
G02*
X195300000Y-93000000I100000J0D01*
G01*
%TD*%
M02*
