M48
; DRILL file {KiCad 9.0.1} date 2026-04-21T21:08:07+0200
; FORMAT={-:-/ absolute / metric / decimal}
; #@! TF.CreationDate,2026-04-21T21:08:07+02:00
; #@! TF.GenerationSoftware,Kicad,Pcbnew,9.0.1
; #@! TF.FileFunction,Plated,1,2,PTH
FMAT,2
METRIC
; #@! TA.AperFunction,Plated,PTH,ComponentDrill
T1C0.200
; #@! TA.AperFunction,Plated,PTH,ViaDrill
T2C0.300
; #@! TA.AperFunction,Plated,PTH,ComponentDrill
T3C0.800
; #@! TA.AperFunction,Plated,PTH,ComponentDrill
T4C1.000
%
G90
G05
T1
X154.4Y-49.232
X154.4Y-50.632
X155.1Y-48.532
X155.1Y-49.932
X155.1Y-51.332
X155.8Y-49.232
X155.8Y-50.632
X156.5Y-48.532
X156.5Y-49.932
X156.5Y-51.332
X157.2Y-49.232
X157.2Y-50.632
T2
X131.287Y-45.938
X131.35Y-52.882
X131.4Y-50.932
X134.25Y-45.8
X134.25Y-59.882
X134.25Y-60.382
X134.25Y-60.882
X134.75Y-59.882
X134.75Y-60.382
X134.75Y-60.882
X135.05Y-53.432
X135.25Y-59.882
X135.25Y-60.382
X135.25Y-60.882
X138.9Y-72.95
X139.15Y-45.582
X141.4Y-82.782
X142.375Y-70.282
X142.4Y-75.282
X143.45Y-47.582
X143.85Y-57.05
X143.9Y-58.782
X143.9Y-60.382
X148.55Y-42.232
X148.55Y-43.482
X148.55Y-44.752
X149.5Y-68.832
X149.5Y-68.832
X151.6Y-59.982
X152.5Y-69.282
X152.855Y-59.972
X154.146Y-49.911
X154.375Y-51.358
X154.376Y-48.499
X154.5Y-68.282
X154.8Y-62.457
X154.8Y-64.282
X155.802Y-48.337
X155.813Y-51.565
X157.25Y-51.356
X157.253Y-48.509
X157.404Y-49.937
X157.9Y-62.457
X159.05Y-69.232
X160.9Y-62.42
X160.9Y-64.182
X166.1Y-42.232
X166.1Y-58.732
T3
X156.4Y-75.782
X156.4Y-78.322
X156.4Y-80.862
T4
X131.78Y-42.782
X134.32Y-42.782
X136.86Y-42.782
X139.4Y-42.782
X141.94Y-42.782
X144.48Y-42.782
X156.4Y-90.282
X156.4Y-95.282
T4
G00X140.3Y-89.382
M15
G01X142.9Y-89.382
M16
G05
G00X140.5Y-95.682
M15
G01X142.7Y-95.682
M16
G05
G00X146.4Y-91.182
M15
G01X146.4Y-93.382
M16
G05
M30
