%TF.GenerationSoftware,KiCad,Pcbnew,9.0.1*%
%TF.CreationDate,2026-04-21T21:09:18+02:00*%
%TF.ProjectId,BaseChipOnly,42617365-4368-4697-904f-6e6c792e6b69,rev?*%
%TF.SameCoordinates,Original*%
%TF.FileFunction,Paste,Top*%
%TF.FilePolarity,Positive*%
%FSLAX46Y46*%
G04 Gerber Fmt 4.6, Leading zero omitted, Abs format (unit mm)*
G04 Created by KiCad (PCBNEW 9.0.1) date 2026-04-21 21:09:18*
%MOMM*%
%LPD*%
G01*
G04 APERTURE LIST*
G04 Aperture macros list*
%AMRoundRect*
0 Rectangle with rounded corners*
0 $1 Rounding radius*
0 $2 $3 $4 $5 $6 $7 $8 $9 X,Y pos of 4 corners*
0 Add a 4 corners polygon primitive as box body*
4,1,4,$2,$3,$4,$5,$6,$7,$8,$9,$2,$3,0*
0 Add four circle primitives for the rounded corners*
1,1,$1+$1,$2,$3*
1,1,$1+$1,$4,$5*
1,1,$1+$1,$6,$7*
1,1,$1+$1,$8,$9*
0 Add four rect primitives between the rounded corners*
20,1,$1+$1,$2,$3,$4,$5,0*
20,1,$1+$1,$4,$5,$6,$7,0*
20,1,$1+$1,$6,$7,$8,$9,0*
20,1,$1+$1,$8,$9,$2,$3,0*%
G04 Aperture macros list end*
%ADD10RoundRect,0.250000X0.450000X-0.350000X0.450000X0.350000X-0.450000X0.350000X-0.450000X-0.350000X0*%
%ADD11RoundRect,0.250000X0.475000X-0.337500X0.475000X0.337500X-0.475000X0.337500X-0.475000X-0.337500X0*%
%ADD12RoundRect,0.250000X1.075000X-0.400000X1.075000X0.400000X-1.075000X0.400000X-1.075000X-0.400000X0*%
%ADD13RoundRect,0.250000X-0.325000X-0.450000X0.325000X-0.450000X0.325000X0.450000X-0.325000X0.450000X0*%
%ADD14RoundRect,0.237500X0.237500X-0.250000X0.237500X0.250000X-0.237500X0.250000X-0.237500X-0.250000X0*%
%ADD15RoundRect,0.162500X-0.162500X0.617500X-0.162500X-0.617500X0.162500X-0.617500X0.162500X0.617500X0*%
%ADD16RoundRect,0.250001X0.849999X-0.462499X0.849999X0.462499X-0.849999X0.462499X-0.849999X-0.462499X0*%
%ADD17RoundRect,0.250000X-1.000000X-0.650000X1.000000X-0.650000X1.000000X0.650000X-1.000000X0.650000X0*%
%ADD18RoundRect,0.237500X-0.237500X0.250000X-0.237500X-0.250000X0.237500X-0.250000X0.237500X0.250000X0*%
%ADD19RoundRect,0.250000X0.350000X0.450000X-0.350000X0.450000X-0.350000X-0.450000X0.350000X-0.450000X0*%
%ADD20RoundRect,0.237500X0.287500X0.237500X-0.287500X0.237500X-0.287500X-0.237500X0.287500X-0.237500X0*%
%ADD21RoundRect,0.250000X-0.650000X1.000000X-0.650000X-1.000000X0.650000X-1.000000X0.650000X1.000000X0*%
%ADD22R,1.500000X0.900000*%
%ADD23R,0.900000X1.500000*%
%ADD24R,0.900000X0.900000*%
%ADD25RoundRect,0.150000X-0.587500X-0.150000X0.587500X-0.150000X0.587500X0.150000X-0.587500X0.150000X0*%
%ADD26RoundRect,0.237500X-0.237500X0.300000X-0.237500X-0.300000X0.237500X-0.300000X0.237500X0.300000X0*%
%ADD27RoundRect,0.250000X-0.337500X-0.475000X0.337500X-0.475000X0.337500X0.475000X-0.337500X0.475000X0*%
%ADD28RoundRect,0.250000X2.025000X2.375000X-2.025000X2.375000X-2.025000X-2.375000X2.025000X-2.375000X0*%
%ADD29RoundRect,0.250000X2.050000X0.300000X-2.050000X0.300000X-2.050000X-0.300000X2.050000X-0.300000X0*%
G04 APERTURE END LIST*
D10*
%TO.C,1.2k*%
X131350000Y-50882323D03*
X131350000Y-52882323D03*
%TD*%
D11*
%TO.C,100nF*%
X131337500Y-45812500D03*
X131337500Y-47887500D03*
%TD*%
D12*
%TO.C,2.0k*%
X135050000Y-53432323D03*
X135050000Y-50332323D03*
%TD*%
D13*
%TO.C,LED*%
X136875000Y-72950000D03*
X138925000Y-72950000D03*
%TD*%
D10*
%TO.C,470\u03A9*%
X137400000Y-77282323D03*
X137400000Y-75282323D03*
%TD*%
D14*
%TO.C,10k*%
X157900000Y-64282323D03*
X157900000Y-62457323D03*
%TD*%
D15*
%TO.C,USBLC6-2SC6*%
X149400000Y-72082323D03*
X148450000Y-72082323D03*
X147500000Y-72082323D03*
X147500000Y-74782323D03*
X148450000Y-74782323D03*
X149400000Y-74782323D03*
%TD*%
D16*
%TO.C,L1*%
X139250000Y-49857323D03*
X139250000Y-47532323D03*
%TD*%
D17*
%TO.C,SMF5.0A*%
X137400000Y-82782323D03*
X141400000Y-82782323D03*
%TD*%
D18*
%TO.C,10k*%
X148400000Y-62482323D03*
X148400000Y-64307323D03*
%TD*%
D19*
%TO.C,470\u03A9*%
X149500000Y-68832323D03*
X147500000Y-68832323D03*
%TD*%
D11*
%TO.C,100nF*%
X142400000Y-77319823D03*
X142400000Y-75244823D03*
%TD*%
D20*
%TO.C,12A*%
X134775000Y-88782323D03*
X133025000Y-88782323D03*
%TD*%
D21*
%TO.C,SS34*%
X143450000Y-47532323D03*
X143450000Y-51532323D03*
%TD*%
D14*
%TO.C,10k*%
X151550000Y-64294823D03*
X151550000Y-62469823D03*
%TD*%
D22*
%TO.C,U1*%
X148550000Y-42212323D03*
X148550000Y-43482323D03*
X148550000Y-44752323D03*
X148550000Y-46022323D03*
X148550000Y-47292323D03*
X148550000Y-48562323D03*
X148550000Y-49832323D03*
X148550000Y-51102323D03*
X148550000Y-52372323D03*
X148550000Y-53642323D03*
X148550000Y-54912323D03*
X148550000Y-56182323D03*
X148550000Y-57452323D03*
X148550000Y-58722323D03*
D23*
X151585000Y-59972323D03*
X152855000Y-59972323D03*
X154125000Y-59972323D03*
X155395000Y-59972323D03*
X156665000Y-59972323D03*
X157935000Y-59972323D03*
X159205000Y-59972323D03*
X160475000Y-59972323D03*
X161745000Y-59972323D03*
X163015000Y-59972323D03*
D22*
X166050000Y-58722323D03*
X166050000Y-57452323D03*
X166050000Y-56182323D03*
X166050000Y-54912323D03*
X166050000Y-53642323D03*
X166050000Y-52372323D03*
X166050000Y-51102323D03*
X166050000Y-49832323D03*
X166050000Y-48562323D03*
X166050000Y-47292323D03*
X166050000Y-46022323D03*
X166050000Y-44752323D03*
X166050000Y-43482323D03*
X166050000Y-42212323D03*
D24*
X154400000Y-48532323D03*
X155800000Y-48532323D03*
X157200000Y-48532323D03*
X154400000Y-49932323D03*
X155800000Y-49932323D03*
X157200000Y-49932323D03*
X154400000Y-51332323D03*
X155800000Y-51332323D03*
X157200000Y-51332323D03*
%TD*%
D25*
%TO.C,IO0_CTRL1*%
X152525000Y-67332323D03*
X152525000Y-69232323D03*
X154400000Y-68282323D03*
%TD*%
%TO.C,EN_CTRL1*%
X159025000Y-67332323D03*
X159025000Y-69232323D03*
X160900000Y-68282323D03*
%TD*%
D26*
%TO.C,100nF*%
X160900000Y-62419823D03*
X160900000Y-64144823D03*
%TD*%
D27*
%TO.C,22\u00B5F*%
X140300000Y-70282323D03*
X142375000Y-70282323D03*
%TD*%
D14*
%TO.C,10K*%
X154800000Y-64282323D03*
X154800000Y-62457323D03*
%TD*%
D28*
%TO.C,U4*%
X137175000Y-63157323D03*
X137175000Y-57607323D03*
X132325000Y-63157323D03*
X132325000Y-57607323D03*
D29*
X143900000Y-63782323D03*
X143900000Y-62082323D03*
X143900000Y-60382323D03*
X143900000Y-58682323D03*
X143900000Y-56982323D03*
%TD*%
D11*
%TO.C,47\u00B5F*%
X134250000Y-47887500D03*
X134250000Y-45812500D03*
%TD*%
M02*
